<?xml version="1.0" encoding="utf-8" standalone="no"?>
<!DOCTYPE svg PUBLIC "-//W3C//DTD SVG 1.1//EN"
  "http://www.w3.org/Graphics/SVG/1.1/DTD/svg11.dtd">
<!-- Created with matplotlib (https://matplotlib.org/) -->
<svg height="336.576313pt" version="1.1" viewBox="0 0 545.245312 336.576313" width="545.245312pt" xmlns="http://www.w3.org/2000/svg" xmlns:xlink="http://www.w3.org/1999/xlink">
 <defs>
  <style type="text/css">
*{stroke-linecap:butt;stroke-linejoin:round;}
  </style>
 </defs>
 <g id="figure_1">
  <g id="patch_1">
   <path d="M 0 336.576313 
L 545.245312 336.576313 
L 545.245312 0 
L 0 0 
z
" style="fill:#ffffff;stroke:#ffffff;stroke-linejoin:miter;"/>
  </g>
  <g id="axes_1">
   <g id="patch_2">
    <path d="M 57.785938 293.895376 
L 414.905938 293.895376 
L 414.905938 27.783376 
L 57.785938 27.783376 
z
" style="fill:#ffffff;"/>
   </g>
   <g id="matplotlib.axis_1">
    <g id="xtick_1">
     <g id="line2d_1">
      <path clip-path="url(#p985b5aae02)" d="M 73.97808 293.895376 
L 73.97808 27.783376 
" style="fill:none;stroke:#d3d3d3;"/>
     </g>
     <g id="line2d_2">
      <path d="M 73.97808 293.895376 
" style="fill:none;stroke:#333333;stroke-width:1.5;"/>
      <defs>
       <path d="M 0 0 
L 0 2.75 
" id="m1469219970" style="stroke:#333333;"/>
      </defs>
      <g>
       <use style="fill:#333333;stroke:#333333;" x="73.97808" xlink:href="#m1469219970" y="293.895376"/>
      </g>
     </g>
     <g id="text_1">
      <!-- 0 -->
      <defs>
       <path d="M 31.78125 66.40625 
Q 24.171875 66.40625 20.328125 58.90625 
Q 16.5 51.421875 16.5 36.375 
Q 16.5 21.390625 20.328125 13.890625 
Q 24.171875 6.390625 31.78125 6.390625 
Q 39.453125 6.390625 43.28125 13.890625 
Q 47.125 21.390625 47.125 36.375 
Q 47.125 51.421875 43.28125 58.90625 
Q 39.453125 66.40625 31.78125 66.40625 
z
M 31.78125 74.21875 
Q 44.046875 74.21875 50.515625 64.515625 
Q 56.984375 54.828125 56.984375 36.375 
Q 56.984375 17.96875 50.515625 8.265625 
Q 44.046875 -1.421875 31.78125 -1.421875 
Q 19.53125 -1.421875 13.0625 8.265625 
Q 6.59375 17.96875 6.59375 36.375 
Q 6.59375 54.828125 13.0625 64.515625 
Q 19.53125 74.21875 31.78125 74.21875 
z
" id="DejaVuSans-48"/>
      </defs>
      <g style="fill:#4d4d4d;" transform="translate(70.16058 307.963501)scale(0.12 -0.12)">
       <use xlink:href="#DejaVuSans-48"/>
      </g>
     </g>
    </g>
    <g id="xtick_2">
     <g id="line2d_3">
      <path clip-path="url(#p985b5aae02)" d="M 182.20528 293.895376 
L 182.20528 27.783376 
" style="fill:none;stroke:#d3d3d3;"/>
     </g>
     <g id="line2d_4">
      <path d="M 182.20528 293.895376 
" style="fill:none;stroke:#333333;stroke-width:1.5;"/>
      <g>
       <use style="fill:#333333;stroke:#333333;" x="182.20528" xlink:href="#m1469219970" y="293.895376"/>
      </g>
     </g>
     <g id="text_2">
      <!-- 2000 -->
      <defs>
       <path d="M 19.1875 8.296875 
L 53.609375 8.296875 
L 53.609375 0 
L 7.328125 0 
L 7.328125 8.296875 
Q 12.9375 14.109375 22.625 23.890625 
Q 32.328125 33.6875 34.8125 36.53125 
Q 39.546875 41.84375 41.421875 45.53125 
Q 43.3125 49.21875 43.3125 52.78125 
Q 43.3125 58.59375 39.234375 62.25 
Q 35.15625 65.921875 28.609375 65.921875 
Q 23.96875 65.921875 18.8125 64.3125 
Q 13.671875 62.703125 7.8125 59.421875 
L 7.8125 69.390625 
Q 13.765625 71.78125 18.9375 73 
Q 24.125 74.21875 28.421875 74.21875 
Q 39.75 74.21875 46.484375 68.546875 
Q 53.21875 62.890625 53.21875 53.421875 
Q 53.21875 48.921875 51.53125 44.890625 
Q 49.859375 40.875 45.40625 35.40625 
Q 44.1875 33.984375 37.640625 27.21875 
Q 31.109375 20.453125 19.1875 8.296875 
z
" id="DejaVuSans-50"/>
      </defs>
      <g style="fill:#4d4d4d;" transform="translate(166.93528 307.963501)scale(0.12 -0.12)">
       <use xlink:href="#DejaVuSans-50"/>
       <use x="63.623047" xlink:href="#DejaVuSans-48"/>
       <use x="127.246094" xlink:href="#DejaVuSans-48"/>
       <use x="190.869141" xlink:href="#DejaVuSans-48"/>
      </g>
     </g>
    </g>
    <g id="xtick_3">
     <g id="line2d_5">
      <path clip-path="url(#p985b5aae02)" d="M 290.432481 293.895376 
L 290.432481 27.783376 
" style="fill:none;stroke:#d3d3d3;"/>
     </g>
     <g id="line2d_6">
      <path d="M 290.432481 293.895376 
" style="fill:none;stroke:#333333;stroke-width:1.5;"/>
      <g>
       <use style="fill:#333333;stroke:#333333;" x="290.432481" xlink:href="#m1469219970" y="293.895376"/>
      </g>
     </g>
     <g id="text_3">
      <!-- 4000 -->
      <defs>
       <path d="M 37.796875 64.3125 
L 12.890625 25.390625 
L 37.796875 25.390625 
z
M 35.203125 72.90625 
L 47.609375 72.90625 
L 47.609375 25.390625 
L 58.015625 25.390625 
L 58.015625 17.1875 
L 47.609375 17.1875 
L 47.609375 0 
L 37.796875 0 
L 37.796875 17.1875 
L 4.890625 17.1875 
L 4.890625 26.703125 
z
" id="DejaVuSans-52"/>
      </defs>
      <g style="fill:#4d4d4d;" transform="translate(275.162481 307.963501)scale(0.12 -0.12)">
       <use xlink:href="#DejaVuSans-52"/>
       <use x="63.623047" xlink:href="#DejaVuSans-48"/>
       <use x="127.246094" xlink:href="#DejaVuSans-48"/>
       <use x="190.869141" xlink:href="#DejaVuSans-48"/>
      </g>
     </g>
    </g>
    <g id="xtick_4">
     <g id="line2d_7">
      <path clip-path="url(#p985b5aae02)" d="M 398.659682 293.895376 
L 398.659682 27.783376 
" style="fill:none;stroke:#d3d3d3;"/>
     </g>
     <g id="line2d_8">
      <path d="M 398.659682 293.895376 
" style="fill:none;stroke:#333333;stroke-width:1.5;"/>
      <g>
       <use style="fill:#333333;stroke:#333333;" x="398.659682" xlink:href="#m1469219970" y="293.895376"/>
      </g>
     </g>
     <g id="text_4">
      <!-- 6000 -->
      <defs>
       <path d="M 33.015625 40.375 
Q 26.375 40.375 22.484375 35.828125 
Q 18.609375 31.296875 18.609375 23.390625 
Q 18.609375 15.53125 22.484375 10.953125 
Q 26.375 6.390625 33.015625 6.390625 
Q 39.65625 6.390625 43.53125 10.953125 
Q 47.40625 15.53125 47.40625 23.390625 
Q 47.40625 31.296875 43.53125 35.828125 
Q 39.65625 40.375 33.015625 40.375 
z
M 52.59375 71.296875 
L 52.59375 62.3125 
Q 48.875 64.0625 45.09375 64.984375 
Q 41.3125 65.921875 37.59375 65.921875 
Q 27.828125 65.921875 22.671875 59.328125 
Q 17.53125 52.734375 16.796875 39.40625 
Q 19.671875 43.65625 24.015625 45.921875 
Q 28.375 48.1875 33.59375 48.1875 
Q 44.578125 48.1875 50.953125 41.515625 
Q 57.328125 34.859375 57.328125 23.390625 
Q 57.328125 12.15625 50.6875 5.359375 
Q 44.046875 -1.421875 33.015625 -1.421875 
Q 20.359375 -1.421875 13.671875 8.265625 
Q 6.984375 17.96875 6.984375 36.375 
Q 6.984375 53.65625 15.1875 63.9375 
Q 23.390625 74.21875 37.203125 74.21875 
Q 40.921875 74.21875 44.703125 73.484375 
Q 48.484375 72.75 52.59375 71.296875 
z
" id="DejaVuSans-54"/>
      </defs>
      <g style="fill:#4d4d4d;" transform="translate(383.389682 307.963501)scale(0.12 -0.12)">
       <use xlink:href="#DejaVuSans-54"/>
       <use x="63.623047" xlink:href="#DejaVuSans-48"/>
       <use x="127.246094" xlink:href="#DejaVuSans-48"/>
       <use x="190.869141" xlink:href="#DejaVuSans-48"/>
      </g>
     </g>
    </g>
    <g id="xtick_5">
     <g id="line2d_9">
      <path clip-path="url(#p985b5aae02)" d="M 128.09168 293.895376 
L 128.09168 27.783376 
" style="fill:none;stroke:#ffffff;stroke-width:0.5;"/>
     </g>
     <g id="line2d_10">
      <path d="M 128.09168 293.895376 
" style="fill:none;stroke:#333333;stroke-width:1.5;"/>
     </g>
    </g>
    <g id="xtick_6">
     <g id="line2d_11">
      <path clip-path="url(#p985b5aae02)" d="M 236.318881 293.895376 
L 236.318881 27.783376 
" style="fill:none;stroke:#ffffff;stroke-width:0.5;"/>
     </g>
     <g id="line2d_12">
      <path d="M 236.318881 293.895376 
" style="fill:none;stroke:#333333;stroke-width:1.5;"/>
     </g>
    </g>
    <g id="xtick_7">
     <g id="line2d_13">
      <path clip-path="url(#p985b5aae02)" d="M 344.546081 293.895376 
L 344.546081 27.783376 
" style="fill:none;stroke:#ffffff;stroke-width:0.5;"/>
     </g>
     <g id="line2d_14">
      <path d="M 344.546081 293.895376 
" style="fill:none;stroke:#333333;stroke-width:1.5;"/>
     </g>
    </g>
    <g id="text_5">
     <!-- Number of Partitions -->
     <defs>
      <path d="M 9.8125 72.90625 
L 23.09375 72.90625 
L 55.421875 11.921875 
L 55.421875 72.90625 
L 64.984375 72.90625 
L 64.984375 0 
L 51.703125 0 
L 19.390625 60.984375 
L 19.390625 0 
L 9.8125 0 
z
" id="DejaVuSans-78"/>
      <path d="M 8.5 21.578125 
L 8.5 54.6875 
L 17.484375 54.6875 
L 17.484375 21.921875 
Q 17.484375 14.15625 20.5 10.265625 
Q 23.53125 6.390625 29.59375 6.390625 
Q 36.859375 6.390625 41.078125 11.03125 
Q 45.3125 15.671875 45.3125 23.6875 
L 45.3125 54.6875 
L 54.296875 54.6875 
L 54.296875 0 
L 45.3125 0 
L 45.3125 8.40625 
Q 42.046875 3.421875 37.71875 1 
Q 33.40625 -1.421875 27.6875 -1.421875 
Q 18.265625 -1.421875 13.375 4.4375 
Q 8.5 10.296875 8.5 21.578125 
z
M 31.109375 56 
z
" id="DejaVuSans-117"/>
      <path d="M 52 44.1875 
Q 55.375 50.25 60.0625 53.125 
Q 64.75 56 71.09375 56 
Q 79.640625 56 84.28125 50.015625 
Q 88.921875 44.046875 88.921875 33.015625 
L 88.921875 0 
L 79.890625 0 
L 79.890625 32.71875 
Q 79.890625 40.578125 77.09375 44.375 
Q 74.3125 48.1875 68.609375 48.1875 
Q 61.625 48.1875 57.5625 43.546875 
Q 53.515625 38.921875 53.515625 30.90625 
L 53.515625 0 
L 44.484375 0 
L 44.484375 32.71875 
Q 44.484375 40.625 41.703125 44.40625 
Q 38.921875 48.1875 33.109375 48.1875 
Q 26.21875 48.1875 22.15625 43.53125 
Q 18.109375 38.875 18.109375 30.90625 
L 18.109375 0 
L 9.078125 0 
L 9.078125 54.6875 
L 18.109375 54.6875 
L 18.109375 46.1875 
Q 21.1875 51.21875 25.484375 53.609375 
Q 29.78125 56 35.6875 56 
Q 41.65625 56 45.828125 52.96875 
Q 50 49.953125 52 44.1875 
z
" id="DejaVuSans-109"/>
      <path d="M 48.6875 27.296875 
Q 48.6875 37.203125 44.609375 42.84375 
Q 40.53125 48.484375 33.40625 48.484375 
Q 26.265625 48.484375 22.1875 42.84375 
Q 18.109375 37.203125 18.109375 27.296875 
Q 18.109375 17.390625 22.1875 11.75 
Q 26.265625 6.109375 33.40625 6.109375 
Q 40.53125 6.109375 44.609375 11.75 
Q 48.6875 17.390625 48.6875 27.296875 
z
M 18.109375 46.390625 
Q 20.953125 51.265625 25.265625 53.625 
Q 29.59375 56 35.59375 56 
Q 45.5625 56 51.78125 48.09375 
Q 58.015625 40.1875 58.015625 27.296875 
Q 58.015625 14.40625 51.78125 6.484375 
Q 45.5625 -1.421875 35.59375 -1.421875 
Q 29.59375 -1.421875 25.265625 0.953125 
Q 20.953125 3.328125 18.109375 8.203125 
L 18.109375 0 
L 9.078125 0 
L 9.078125 75.984375 
L 18.109375 75.984375 
z
" id="DejaVuSans-98"/>
      <path d="M 56.203125 29.59375 
L 56.203125 25.203125 
L 14.890625 25.203125 
Q 15.484375 15.921875 20.484375 11.0625 
Q 25.484375 6.203125 34.421875 6.203125 
Q 39.59375 6.203125 44.453125 7.46875 
Q 49.3125 8.734375 54.109375 11.28125 
L 54.109375 2.78125 
Q 49.265625 0.734375 44.1875 -0.34375 
Q 39.109375 -1.421875 33.890625 -1.421875 
Q 20.796875 -1.421875 13.15625 6.1875 
Q 5.515625 13.8125 5.515625 26.8125 
Q 5.515625 40.234375 12.765625 48.109375 
Q 20.015625 56 32.328125 56 
Q 43.359375 56 49.78125 48.890625 
Q 56.203125 41.796875 56.203125 29.59375 
z
M 47.21875 32.234375 
Q 47.125 39.59375 43.09375 43.984375 
Q 39.0625 48.390625 32.421875 48.390625 
Q 24.90625 48.390625 20.390625 44.140625 
Q 15.875 39.890625 15.1875 32.171875 
z
" id="DejaVuSans-101"/>
      <path d="M 41.109375 46.296875 
Q 39.59375 47.171875 37.8125 47.578125 
Q 36.03125 48 33.890625 48 
Q 26.265625 48 22.1875 43.046875 
Q 18.109375 38.09375 18.109375 28.8125 
L 18.109375 0 
L 9.078125 0 
L 9.078125 54.6875 
L 18.109375 54.6875 
L 18.109375 46.1875 
Q 20.953125 51.171875 25.484375 53.578125 
Q 30.03125 56 36.53125 56 
Q 37.453125 56 38.578125 55.875 
Q 39.703125 55.765625 41.0625 55.515625 
z
" id="DejaVuSans-114"/>
      <path id="DejaVuSans-32"/>
      <path d="M 30.609375 48.390625 
Q 23.390625 48.390625 19.1875 42.75 
Q 14.984375 37.109375 14.984375 27.296875 
Q 14.984375 17.484375 19.15625 11.84375 
Q 23.34375 6.203125 30.609375 6.203125 
Q 37.796875 6.203125 41.984375 11.859375 
Q 46.1875 17.53125 46.1875 27.296875 
Q 46.1875 37.015625 41.984375 42.703125 
Q 37.796875 48.390625 30.609375 48.390625 
z
M 30.609375 56 
Q 42.328125 56 49.015625 48.375 
Q 55.71875 40.765625 55.71875 27.296875 
Q 55.71875 13.875 49.015625 6.21875 
Q 42.328125 -1.421875 30.609375 -1.421875 
Q 18.84375 -1.421875 12.171875 6.21875 
Q 5.515625 13.875 5.515625 27.296875 
Q 5.515625 40.765625 12.171875 48.375 
Q 18.84375 56 30.609375 56 
z
" id="DejaVuSans-111"/>
      <path d="M 37.109375 75.984375 
L 37.109375 68.5 
L 28.515625 68.5 
Q 23.6875 68.5 21.796875 66.546875 
Q 19.921875 64.59375 19.921875 59.515625 
L 19.921875 54.6875 
L 34.71875 54.6875 
L 34.71875 47.703125 
L 19.921875 47.703125 
L 19.921875 0 
L 10.890625 0 
L 10.890625 47.703125 
L 2.296875 47.703125 
L 2.296875 54.6875 
L 10.890625 54.6875 
L 10.890625 58.5 
Q 10.890625 67.625 15.140625 71.796875 
Q 19.390625 75.984375 28.609375 75.984375 
z
" id="DejaVuSans-102"/>
      <path d="M 19.671875 64.796875 
L 19.671875 37.40625 
L 32.078125 37.40625 
Q 38.96875 37.40625 42.71875 40.96875 
Q 46.484375 44.53125 46.484375 51.125 
Q 46.484375 57.671875 42.71875 61.234375 
Q 38.96875 64.796875 32.078125 64.796875 
z
M 9.8125 72.90625 
L 32.078125 72.90625 
Q 44.34375 72.90625 50.609375 67.359375 
Q 56.890625 61.8125 56.890625 51.125 
Q 56.890625 40.328125 50.609375 34.8125 
Q 44.34375 29.296875 32.078125 29.296875 
L 19.671875 29.296875 
L 19.671875 0 
L 9.8125 0 
z
" id="DejaVuSans-80"/>
      <path d="M 34.28125 27.484375 
Q 23.390625 27.484375 19.1875 25 
Q 14.984375 22.515625 14.984375 16.5 
Q 14.984375 11.71875 18.140625 8.90625 
Q 21.296875 6.109375 26.703125 6.109375 
Q 34.1875 6.109375 38.703125 11.40625 
Q 43.21875 16.703125 43.21875 25.484375 
L 43.21875 27.484375 
z
M 52.203125 31.203125 
L 52.203125 0 
L 43.21875 0 
L 43.21875 8.296875 
Q 40.140625 3.328125 35.546875 0.953125 
Q 30.953125 -1.421875 24.3125 -1.421875 
Q 15.921875 -1.421875 10.953125 3.296875 
Q 6 8.015625 6 15.921875 
Q 6 25.140625 12.171875 29.828125 
Q 18.359375 34.515625 30.609375 34.515625 
L 43.21875 34.515625 
L 43.21875 35.40625 
Q 43.21875 41.609375 39.140625 45 
Q 35.0625 48.390625 27.6875 48.390625 
Q 23 48.390625 18.546875 47.265625 
Q 14.109375 46.140625 10.015625 43.890625 
L 10.015625 52.203125 
Q 14.9375 54.109375 19.578125 55.046875 
Q 24.21875 56 28.609375 56 
Q 40.484375 56 46.34375 49.84375 
Q 52.203125 43.703125 52.203125 31.203125 
z
" id="DejaVuSans-97"/>
      <path d="M 18.3125 70.21875 
L 18.3125 54.6875 
L 36.8125 54.6875 
L 36.8125 47.703125 
L 18.3125 47.703125 
L 18.3125 18.015625 
Q 18.3125 11.328125 20.140625 9.421875 
Q 21.96875 7.515625 27.59375 7.515625 
L 36.8125 7.515625 
L 36.8125 0 
L 27.59375 0 
Q 17.1875 0 13.234375 3.875 
Q 9.28125 7.765625 9.28125 18.015625 
L 9.28125 47.703125 
L 2.6875 47.703125 
L 2.6875 54.6875 
L 9.28125 54.6875 
L 9.28125 70.21875 
z
" id="DejaVuSans-116"/>
      <path d="M 9.421875 54.6875 
L 18.40625 54.6875 
L 18.40625 0 
L 9.421875 0 
z
M 9.421875 75.984375 
L 18.40625 75.984375 
L 18.40625 64.59375 
L 9.421875 64.59375 
z
" id="DejaVuSans-105"/>
      <path d="M 54.890625 33.015625 
L 54.890625 0 
L 45.90625 0 
L 45.90625 32.71875 
Q 45.90625 40.484375 42.875 44.328125 
Q 39.84375 48.1875 33.796875 48.1875 
Q 26.515625 48.1875 22.3125 43.546875 
Q 18.109375 38.921875 18.109375 30.90625 
L 18.109375 0 
L 9.078125 0 
L 9.078125 54.6875 
L 18.109375 54.6875 
L 18.109375 46.1875 
Q 21.34375 51.125 25.703125 53.5625 
Q 30.078125 56 35.796875 56 
Q 45.21875 56 50.046875 50.171875 
Q 54.890625 44.34375 54.890625 33.015625 
z
" id="DejaVuSans-110"/>
      <path d="M 44.28125 53.078125 
L 44.28125 44.578125 
Q 40.484375 46.53125 36.375 47.5 
Q 32.28125 48.484375 27.875 48.484375 
Q 21.1875 48.484375 17.84375 46.4375 
Q 14.5 44.390625 14.5 40.28125 
Q 14.5 37.15625 16.890625 35.375 
Q 19.28125 33.59375 26.515625 31.984375 
L 29.59375 31.296875 
Q 39.15625 29.25 43.1875 25.515625 
Q 47.21875 21.78125 47.21875 15.09375 
Q 47.21875 7.46875 41.1875 3.015625 
Q 35.15625 -1.421875 24.609375 -1.421875 
Q 20.21875 -1.421875 15.453125 -0.5625 
Q 10.6875 0.296875 5.421875 2 
L 5.421875 11.28125 
Q 10.40625 8.6875 15.234375 7.390625 
Q 20.0625 6.109375 24.8125 6.109375 
Q 31.15625 6.109375 34.5625 8.28125 
Q 37.984375 10.453125 37.984375 14.40625 
Q 37.984375 18.0625 35.515625 20.015625 
Q 33.0625 21.96875 24.703125 23.78125 
L 21.578125 24.515625 
Q 13.234375 26.265625 9.515625 29.90625 
Q 5.8125 33.546875 5.8125 39.890625 
Q 5.8125 47.609375 11.28125 51.796875 
Q 16.75 56 26.8125 56 
Q 31.78125 56 36.171875 55.265625 
Q 40.578125 54.546875 44.28125 53.078125 
z
" id="DejaVuSans-115"/>
     </defs>
     <g transform="translate(152.966797 326.256782)scale(0.15 -0.15)">
      <use xlink:href="#DejaVuSans-78"/>
      <use x="74.804688" xlink:href="#DejaVuSans-117"/>
      <use x="138.183594" xlink:href="#DejaVuSans-109"/>
      <use x="235.595703" xlink:href="#DejaVuSans-98"/>
      <use x="299.072266" xlink:href="#DejaVuSans-101"/>
      <use x="360.595703" xlink:href="#DejaVuSans-114"/>
      <use x="401.708984" xlink:href="#DejaVuSans-32"/>
      <use x="433.496094" xlink:href="#DejaVuSans-111"/>
      <use x="494.677734" xlink:href="#DejaVuSans-102"/>
      <use x="529.882812" xlink:href="#DejaVuSans-32"/>
      <use x="561.669922" xlink:href="#DejaVuSans-80"/>
      <use x="621.910156" xlink:href="#DejaVuSans-97"/>
      <use x="683.189453" xlink:href="#DejaVuSans-114"/>
      <use x="724.302734" xlink:href="#DejaVuSans-116"/>
      <use x="763.511719" xlink:href="#DejaVuSans-105"/>
      <use x="791.294922" xlink:href="#DejaVuSans-116"/>
      <use x="830.503906" xlink:href="#DejaVuSans-105"/>
      <use x="858.287109" xlink:href="#DejaVuSans-111"/>
      <use x="919.46875" xlink:href="#DejaVuSans-110"/>
      <use x="982.847656" xlink:href="#DejaVuSans-115"/>
     </g>
    </g>
   </g>
   <g id="matplotlib.axis_2">
    <g id="ytick_1">
     <g id="line2d_15">
      <path clip-path="url(#p985b5aae02)" d="M 57.785938 283.170478 
L 414.905938 283.170478 
" style="fill:none;stroke:#d3d3d3;"/>
     </g>
     <g id="line2d_16">
      <path d="M 57.785938 283.170478 
" style="fill:none;stroke:#333333;stroke-width:1.5;"/>
      <defs>
       <path d="M 0 0 
L -2.75 0 
" id="m908ddb3239" style="stroke:#333333;"/>
      </defs>
      <g>
       <use style="fill:#333333;stroke:#333333;" x="57.785938" xlink:href="#m908ddb3239" y="283.170478"/>
      </g>
     </g>
     <g id="text_6">
      <!-- 0 -->
      <g style="fill:#4d4d4d;" transform="translate(45.200938 286.481728)scale(0.12 -0.12)">
       <use xlink:href="#DejaVuSans-48"/>
      </g>
     </g>
    </g>
    <g id="ytick_2">
     <g id="line2d_17">
      <path clip-path="url(#p985b5aae02)" d="M 57.785938 222.347339 
L 414.905938 222.347339 
" style="fill:none;stroke:#d3d3d3;"/>
     </g>
     <g id="line2d_18">
      <path d="M 57.785938 222.347339 
" style="fill:none;stroke:#333333;stroke-width:1.5;"/>
      <g>
       <use style="fill:#333333;stroke:#333333;" x="57.785938" xlink:href="#m908ddb3239" y="222.347339"/>
      </g>
     </g>
     <g id="text_7">
      <!-- 0.25 -->
      <defs>
       <path d="M 10.6875 12.40625 
L 21 12.40625 
L 21 0 
L 10.6875 0 
z
" id="DejaVuSans-46"/>
       <path d="M 10.796875 72.90625 
L 49.515625 72.90625 
L 49.515625 64.59375 
L 19.828125 64.59375 
L 19.828125 46.734375 
Q 21.96875 47.46875 24.109375 47.828125 
Q 26.265625 48.1875 28.421875 48.1875 
Q 40.625 48.1875 47.75 41.5 
Q 54.890625 34.8125 54.890625 23.390625 
Q 54.890625 11.625 47.5625 5.09375 
Q 40.234375 -1.421875 26.90625 -1.421875 
Q 22.3125 -1.421875 17.546875 -0.640625 
Q 12.796875 0.140625 7.71875 1.703125 
L 7.71875 11.625 
Q 12.109375 9.234375 16.796875 8.0625 
Q 21.484375 6.890625 26.703125 6.890625 
Q 35.15625 6.890625 40.078125 11.328125 
Q 45.015625 15.765625 45.015625 23.390625 
Q 45.015625 31 40.078125 35.4375 
Q 35.15625 39.890625 26.703125 39.890625 
Q 22.75 39.890625 18.8125 39.015625 
Q 14.890625 38.140625 10.796875 36.28125 
z
" id="DejaVuSans-53"/>
      </defs>
      <g style="fill:#4d4d4d;" transform="translate(26.117188 225.658589)scale(0.12 -0.12)">
       <use xlink:href="#DejaVuSans-48"/>
       <use x="63.623047" xlink:href="#DejaVuSans-46"/>
       <use x="95.410156" xlink:href="#DejaVuSans-50"/>
       <use x="159.033203" xlink:href="#DejaVuSans-53"/>
      </g>
     </g>
    </g>
    <g id="ytick_3">
     <g id="line2d_19">
      <path clip-path="url(#p985b5aae02)" d="M 57.785938 161.5242 
L 414.905938 161.5242 
" style="fill:none;stroke:#d3d3d3;"/>
     </g>
     <g id="line2d_20">
      <path d="M 57.785938 161.5242 
" style="fill:none;stroke:#333333;stroke-width:1.5;"/>
      <g>
       <use style="fill:#333333;stroke:#333333;" x="57.785938" xlink:href="#m908ddb3239" y="161.5242"/>
      </g>
     </g>
     <g id="text_8">
      <!-- 0.50 -->
      <g style="fill:#4d4d4d;" transform="translate(26.117188 164.83545)scale(0.12 -0.12)">
       <use xlink:href="#DejaVuSans-48"/>
       <use x="63.623047" xlink:href="#DejaVuSans-46"/>
       <use x="95.410156" xlink:href="#DejaVuSans-53"/>
       <use x="159.033203" xlink:href="#DejaVuSans-48"/>
      </g>
     </g>
    </g>
    <g id="ytick_4">
     <g id="line2d_21">
      <path clip-path="url(#p985b5aae02)" d="M 57.785938 100.701061 
L 414.905938 100.701061 
" style="fill:none;stroke:#d3d3d3;"/>
     </g>
     <g id="line2d_22">
      <path d="M 57.785938 100.701061 
" style="fill:none;stroke:#333333;stroke-width:1.5;"/>
      <g>
       <use style="fill:#333333;stroke:#333333;" x="57.785938" xlink:href="#m908ddb3239" y="100.701061"/>
      </g>
     </g>
     <g id="text_9">
      <!-- 0.75 -->
      <defs>
       <path d="M 8.203125 72.90625 
L 55.078125 72.90625 
L 55.078125 68.703125 
L 28.609375 0 
L 18.3125 0 
L 43.21875 64.59375 
L 8.203125 64.59375 
z
" id="DejaVuSans-55"/>
      </defs>
      <g style="fill:#4d4d4d;" transform="translate(26.117188 104.012311)scale(0.12 -0.12)">
       <use xlink:href="#DejaVuSans-48"/>
       <use x="63.623047" xlink:href="#DejaVuSans-46"/>
       <use x="95.410156" xlink:href="#DejaVuSans-55"/>
       <use x="159.033203" xlink:href="#DejaVuSans-53"/>
      </g>
     </g>
    </g>
    <g id="ytick_5">
     <g id="line2d_23">
      <path clip-path="url(#p985b5aae02)" d="M 57.785938 39.877923 
L 414.905938 39.877923 
" style="fill:none;stroke:#d3d3d3;"/>
     </g>
     <g id="line2d_24">
      <path d="M 57.785938 39.877923 
" style="fill:none;stroke:#333333;stroke-width:1.5;"/>
      <g>
       <use style="fill:#333333;stroke:#333333;" x="57.785938" xlink:href="#m908ddb3239" y="39.877923"/>
      </g>
     </g>
     <g id="text_10">
      <!-- 1 -->
      <defs>
       <path d="M 12.40625 8.296875 
L 28.515625 8.296875 
L 28.515625 63.921875 
L 10.984375 60.40625 
L 10.984375 69.390625 
L 28.421875 72.90625 
L 38.28125 72.90625 
L 38.28125 8.296875 
L 54.390625 8.296875 
L 54.390625 0 
L 12.40625 0 
z
" id="DejaVuSans-49"/>
      </defs>
      <g style="fill:#4d4d4d;" transform="translate(45.200938 43.189173)scale(0.12 -0.12)">
       <use xlink:href="#DejaVuSans-49"/>
      </g>
     </g>
    </g>
    <g id="ytick_6">
     <g id="line2d_25">
      <path clip-path="url(#p985b5aae02)" d="M 57.785938 252.758908 
L 414.905938 252.758908 
" style="fill:none;stroke:#ffffff;stroke-width:0.5;"/>
     </g>
     <g id="line2d_26">
      <path d="M 57.785938 252.758908 
" style="fill:none;stroke:#333333;stroke-width:1.5;"/>
     </g>
    </g>
    <g id="ytick_7">
     <g id="line2d_27">
      <path clip-path="url(#p985b5aae02)" d="M 57.785938 191.93577 
L 414.905938 191.93577 
" style="fill:none;stroke:#ffffff;stroke-width:0.5;"/>
     </g>
     <g id="line2d_28">
      <path d="M 57.785938 191.93577 
" style="fill:none;stroke:#333333;stroke-width:1.5;"/>
     </g>
    </g>
    <g id="ytick_8">
     <g id="line2d_29">
      <path clip-path="url(#p985b5aae02)" d="M 57.785938 131.112631 
L 414.905938 131.112631 
" style="fill:none;stroke:#ffffff;stroke-width:0.5;"/>
     </g>
     <g id="line2d_30">
      <path d="M 57.785938 131.112631 
" style="fill:none;stroke:#333333;stroke-width:1.5;"/>
     </g>
    </g>
    <g id="ytick_9">
     <g id="line2d_31">
      <path clip-path="url(#p985b5aae02)" d="M 57.785938 70.289492 
L 414.905938 70.289492 
" style="fill:none;stroke:#ffffff;stroke-width:0.5;"/>
     </g>
     <g id="line2d_32">
      <path d="M 57.785938 70.289492 
" style="fill:none;stroke:#333333;stroke-width:1.5;"/>
     </g>
    </g>
    <g id="text_11">
     <!-- Similarity score (SVCCA) -->
     <defs>
      <path d="M 53.515625 70.515625 
L 53.515625 60.890625 
Q 47.90625 63.578125 42.921875 64.890625 
Q 37.9375 66.21875 33.296875 66.21875 
Q 25.25 66.21875 20.875 63.09375 
Q 16.5 59.96875 16.5 54.203125 
Q 16.5 49.359375 19.40625 46.890625 
Q 22.3125 44.4375 30.421875 42.921875 
L 36.375 41.703125 
Q 47.40625 39.59375 52.65625 34.296875 
Q 57.90625 29 57.90625 20.125 
Q 57.90625 9.515625 50.796875 4.046875 
Q 43.703125 -1.421875 29.984375 -1.421875 
Q 24.8125 -1.421875 18.96875 -0.25 
Q 13.140625 0.921875 6.890625 3.21875 
L 6.890625 13.375 
Q 12.890625 10.015625 18.65625 8.296875 
Q 24.421875 6.59375 29.984375 6.59375 
Q 38.421875 6.59375 43.015625 9.90625 
Q 47.609375 13.234375 47.609375 19.390625 
Q 47.609375 24.75 44.3125 27.78125 
Q 41.015625 30.8125 33.5 32.328125 
L 27.484375 33.5 
Q 16.453125 35.6875 11.515625 40.375 
Q 6.59375 45.0625 6.59375 53.421875 
Q 6.59375 63.09375 13.40625 68.65625 
Q 20.21875 74.21875 32.171875 74.21875 
Q 37.3125 74.21875 42.625 73.28125 
Q 47.953125 72.359375 53.515625 70.515625 
z
" id="DejaVuSans-83"/>
      <path d="M 9.421875 75.984375 
L 18.40625 75.984375 
L 18.40625 0 
L 9.421875 0 
z
" id="DejaVuSans-108"/>
      <path d="M 32.171875 -5.078125 
Q 28.375 -14.84375 24.75 -17.8125 
Q 21.140625 -20.796875 15.09375 -20.796875 
L 7.90625 -20.796875 
L 7.90625 -13.28125 
L 13.1875 -13.28125 
Q 16.890625 -13.28125 18.9375 -11.515625 
Q 21 -9.765625 23.484375 -3.21875 
L 25.09375 0.875 
L 2.984375 54.6875 
L 12.5 54.6875 
L 29.59375 11.921875 
L 46.6875 54.6875 
L 56.203125 54.6875 
z
" id="DejaVuSans-121"/>
      <path d="M 48.78125 52.59375 
L 48.78125 44.1875 
Q 44.96875 46.296875 41.140625 47.34375 
Q 37.3125 48.390625 33.40625 48.390625 
Q 24.65625 48.390625 19.8125 42.84375 
Q 14.984375 37.3125 14.984375 27.296875 
Q 14.984375 17.28125 19.8125 11.734375 
Q 24.65625 6.203125 33.40625 6.203125 
Q 37.3125 6.203125 41.140625 7.25 
Q 44.96875 8.296875 48.78125 10.40625 
L 48.78125 2.09375 
Q 45.015625 0.34375 40.984375 -0.53125 
Q 36.96875 -1.421875 32.421875 -1.421875 
Q 20.0625 -1.421875 12.78125 6.34375 
Q 5.515625 14.109375 5.515625 27.296875 
Q 5.515625 40.671875 12.859375 48.328125 
Q 20.21875 56 33.015625 56 
Q 37.15625 56 41.109375 55.140625 
Q 45.0625 54.296875 48.78125 52.59375 
z
" id="DejaVuSans-99"/>
      <path d="M 31 75.875 
Q 24.46875 64.65625 21.28125 53.65625 
Q 18.109375 42.671875 18.109375 31.390625 
Q 18.109375 20.125 21.3125 9.0625 
Q 24.515625 -2 31 -13.1875 
L 23.1875 -13.1875 
Q 15.875 -1.703125 12.234375 9.375 
Q 8.59375 20.453125 8.59375 31.390625 
Q 8.59375 42.28125 12.203125 53.3125 
Q 15.828125 64.359375 23.1875 75.875 
z
" id="DejaVuSans-40"/>
      <path d="M 28.609375 0 
L 0.78125 72.90625 
L 11.078125 72.90625 
L 34.1875 11.53125 
L 57.328125 72.90625 
L 67.578125 72.90625 
L 39.796875 0 
z
" id="DejaVuSans-86"/>
      <path d="M 64.40625 67.28125 
L 64.40625 56.890625 
Q 59.421875 61.53125 53.78125 63.8125 
Q 48.140625 66.109375 41.796875 66.109375 
Q 29.296875 66.109375 22.65625 58.46875 
Q 16.015625 50.828125 16.015625 36.375 
Q 16.015625 21.96875 22.65625 14.328125 
Q 29.296875 6.6875 41.796875 6.6875 
Q 48.140625 6.6875 53.78125 8.984375 
Q 59.421875 11.28125 64.40625 15.921875 
L 64.40625 5.609375 
Q 59.234375 2.09375 53.4375 0.328125 
Q 47.65625 -1.421875 41.21875 -1.421875 
Q 24.65625 -1.421875 15.125 8.703125 
Q 5.609375 18.84375 5.609375 36.375 
Q 5.609375 53.953125 15.125 64.078125 
Q 24.65625 74.21875 41.21875 74.21875 
Q 47.75 74.21875 53.53125 72.484375 
Q 59.328125 70.75 64.40625 67.28125 
z
" id="DejaVuSans-67"/>
      <path d="M 34.1875 63.1875 
L 20.796875 26.90625 
L 47.609375 26.90625 
z
M 28.609375 72.90625 
L 39.796875 72.90625 
L 67.578125 0 
L 57.328125 0 
L 50.6875 18.703125 
L 17.828125 18.703125 
L 11.1875 0 
L 0.78125 0 
z
" id="DejaVuSans-65"/>
      <path d="M 8.015625 75.875 
L 15.828125 75.875 
Q 23.140625 64.359375 26.78125 53.3125 
Q 30.421875 42.28125 30.421875 31.390625 
Q 30.421875 20.453125 26.78125 9.375 
Q 23.140625 -1.703125 15.828125 -13.1875 
L 8.015625 -13.1875 
Q 14.5 -2 17.703125 9.0625 
Q 20.90625 20.125 20.90625 31.390625 
Q 20.90625 42.671875 17.703125 53.65625 
Q 14.5 64.65625 8.015625 75.875 
z
" id="DejaVuSans-41"/>
     </defs>
     <g transform="translate(18.597656 251.002782)rotate(-90)scale(0.15 -0.15)">
      <use xlink:href="#DejaVuSans-83"/>
      <use x="63.476562" xlink:href="#DejaVuSans-105"/>
      <use x="91.259766" xlink:href="#DejaVuSans-109"/>
      <use x="188.671875" xlink:href="#DejaVuSans-105"/>
      <use x="216.455078" xlink:href="#DejaVuSans-108"/>
      <use x="244.238281" xlink:href="#DejaVuSans-97"/>
      <use x="305.517578" xlink:href="#DejaVuSans-114"/>
      <use x="346.630859" xlink:href="#DejaVuSans-105"/>
      <use x="374.414062" xlink:href="#DejaVuSans-116"/>
      <use x="413.623047" xlink:href="#DejaVuSans-121"/>
      <use x="472.802734" xlink:href="#DejaVuSans-32"/>
      <use x="504.589844" xlink:href="#DejaVuSans-115"/>
      <use x="556.689453" xlink:href="#DejaVuSans-99"/>
      <use x="611.669922" xlink:href="#DejaVuSans-111"/>
      <use x="672.851562" xlink:href="#DejaVuSans-114"/>
      <use x="713.933594" xlink:href="#DejaVuSans-101"/>
      <use x="775.457031" xlink:href="#DejaVuSans-32"/>
      <use x="807.244141" xlink:href="#DejaVuSans-40"/>
      <use x="846.257812" xlink:href="#DejaVuSans-83"/>
      <use x="909.734375" xlink:href="#DejaVuSans-86"/>
      <use x="978.142578" xlink:href="#DejaVuSans-67"/>
      <use x="1047.966797" xlink:href="#DejaVuSans-67"/>
      <use x="1117.791016" xlink:href="#DejaVuSans-65"/>
      <use x="1186.199219" xlink:href="#DejaVuSans-41"/>
     </g>
    </g>
   </g>
   <g id="line2d_33">
    <path clip-path="url(#p985b5aae02)" d="M 74.032193 39.879404 
L 74.086307 39.891511 
L 74.248648 39.951302 
L 74.519216 40.052435 
L 75.060352 40.248594 
L 76.68376 40.897159 
L 79.38944 41.958067 
L 101.03488 50.36644 
L 128.09168 61.024736 
L 182.20528 84.99459 
L 236.318881 115.058627 
L 398.659682 280.251536 
" style="fill:none;stroke:#1976d2;stroke-width:2.658681;"/>
   </g>
   <g id="line2d_34">
    <path clip-path="url(#p985b5aae02)" d="M 74.032193 39.879401 
L 74.086307 64.020943 
L 74.248648 135.325427 
L 74.519216 251.441044 
L 75.060352 272.857812 
L 76.68376 248.429498 
L 79.38944 225.316282 
L 101.03488 107.149826 
L 128.09168 56.057327 
L 182.20528 48.445273 
L 236.318881 47.299731 
L 398.659682 46.219215 
" style="fill:none;stroke:#b3e5fc;stroke-width:2.658681;"/>
   </g>
   <g id="PathCollection_1">
    <path clip-path="url(#p985b5aae02)" d="M 74.032193 40.765628 
C 74.267223 40.765628 74.492659 40.67225 74.65885 40.506058 
C 74.825042 40.339867 74.91842 40.114431 74.91842 39.879401 
C 74.91842 39.644371 74.825042 39.418935 74.65885 39.252744 
C 74.492659 39.086553 74.267223 38.993174 74.032193 38.993174 
C 73.797163 38.993174 73.571728 39.086553 73.405536 39.252744 
C 73.239345 39.418935 73.145966 39.644371 73.145966 39.879401 
C 73.145966 40.114431 73.239345 40.339867 73.405536 40.506058 
C 73.571728 40.67225 73.797163 40.765628 74.032193 40.765628 
z
" style="fill:#a9a9a9;stroke:#a9a9a9;stroke-width:0.886227;"/>
    <path clip-path="url(#p985b5aae02)" d="M 74.086307 64.90717 
C 74.321337 64.90717 74.546772 64.813791 74.712964 64.6476 
C 74.879155 64.481409 74.972534 64.255973 74.972534 64.020943 
C 74.972534 63.785913 74.879155 63.560477 74.712964 63.394286 
C 74.546772 63.228094 74.321337 63.134716 74.086307 63.134716 
C 73.851277 63.134716 73.625841 63.228094 73.45965 63.394286 
C 73.293458 63.560477 73.20008 63.785913 73.20008 64.020943 
C 73.20008 64.255973 73.293458 64.481409 73.45965 64.6476 
C 73.625841 64.813791 73.851277 64.90717 74.086307 64.90717 
z
" style="fill:#a9a9a9;stroke:#a9a9a9;stroke-width:0.886227;"/>
    <path clip-path="url(#p985b5aae02)" d="M 74.248648 136.211654 
C 74.483678 136.211654 74.709113 136.118275 74.875305 135.952084 
C 75.041496 135.785892 75.134874 135.560457 75.134874 135.325427 
C 75.134874 135.090396 75.041496 134.864961 74.875305 134.69877 
C 74.709113 134.532578 74.483678 134.4392 74.248648 134.4392 
C 74.013617 134.4392 73.788182 134.532578 73.621991 134.69877 
C 73.455799 134.864961 73.362421 135.090396 73.362421 135.325427 
C 73.362421 135.560457 73.455799 135.785892 73.621991 135.952084 
C 73.788182 136.118275 74.013617 136.211654 74.248648 136.211654 
z
" style="fill:#a9a9a9;stroke:#a9a9a9;stroke-width:0.886227;"/>
    <path clip-path="url(#p985b5aae02)" d="M 74.519216 252.327271 
C 74.754246 252.327271 74.979681 252.233893 75.145873 252.067701 
C 75.312064 251.90151 75.405443 251.676074 75.405443 251.441044 
C 75.405443 251.206014 75.312064 250.980578 75.145873 250.814387 
C 74.979681 250.648196 74.754246 250.554817 74.519216 250.554817 
C 74.284185 250.554817 74.05875 250.648196 73.892559 250.814387 
C 73.726367 250.980578 73.632989 251.206014 73.632989 251.441044 
C 73.632989 251.676074 73.726367 251.90151 73.892559 252.067701 
C 74.05875 252.233893 74.284185 252.327271 74.519216 252.327271 
z
" style="fill:#a9a9a9;stroke:#a9a9a9;stroke-width:0.886227;"/>
    <path clip-path="url(#p985b5aae02)" d="M 75.060352 273.744039 
C 75.295382 273.744039 75.520817 273.65066 75.687009 273.484469 
C 75.8532 273.318277 75.946579 273.092842 75.946579 272.857812 
C 75.946579 272.622782 75.8532 272.397346 75.687009 272.231155 
C 75.520817 272.064963 75.295382 271.971585 75.060352 271.971585 
C 74.825321 271.971585 74.599886 272.064963 74.433695 272.231155 
C 74.267503 272.397346 74.174125 272.622782 74.174125 272.857812 
C 74.174125 273.092842 74.267503 273.318277 74.433695 273.484469 
C 74.599886 273.65066 74.825321 273.744039 75.060352 273.744039 
z
" style="fill:#a9a9a9;stroke:#a9a9a9;stroke-width:0.886227;"/>
    <path clip-path="url(#p985b5aae02)" d="M 76.68376 249.315725 
C 76.91879 249.315725 77.144225 249.222347 77.310417 249.056155 
C 77.476608 248.889964 77.569987 248.664528 77.569987 248.429498 
C 77.569987 248.194468 77.476608 247.969032 77.310417 247.802841 
C 77.144225 247.63665 76.91879 247.543271 76.68376 247.543271 
C 76.448729 247.543271 76.223294 247.63665 76.057103 247.802841 
C 75.890911 247.969032 75.797533 248.194468 75.797533 248.429498 
C 75.797533 248.664528 75.890911 248.889964 76.057103 249.056155 
C 76.223294 249.222347 76.448729 249.315725 76.68376 249.315725 
z
" style="fill:#a9a9a9;stroke:#a9a9a9;stroke-width:0.886227;"/>
    <path clip-path="url(#p985b5aae02)" d="M 79.38944 226.202509 
C 79.62447 226.202509 79.849905 226.109131 80.016097 225.942939 
C 80.182288 225.776748 80.275667 225.551312 80.275667 225.316282 
C 80.275667 225.081252 80.182288 224.855817 80.016097 224.689625 
C 79.849905 224.523434 79.62447 224.430055 79.38944 224.430055 
C 79.154409 224.430055 78.928974 224.523434 78.762783 224.689625 
C 78.596591 224.855817 78.503213 225.081252 78.503213 225.316282 
C 78.503213 225.551312 78.596591 225.776748 78.762783 225.942939 
C 78.928974 226.109131 79.154409 226.202509 79.38944 226.202509 
z
" style="fill:#a9a9a9;stroke:#a9a9a9;stroke-width:0.886227;"/>
    <path clip-path="url(#p985b5aae02)" d="M 101.03488 108.036053 
C 101.26991 108.036053 101.495345 107.942674 101.661537 107.776483 
C 101.827728 107.610291 101.921107 107.384856 101.921107 107.149826 
C 101.921107 106.914796 101.827728 106.68936 101.661537 106.523169 
C 101.495345 106.356977 101.26991 106.263599 101.03488 106.263599 
C 100.79985 106.263599 100.574414 106.356977 100.408223 106.523169 
C 100.242031 106.68936 100.148653 106.914796 100.148653 107.149826 
C 100.148653 107.384856 100.242031 107.610291 100.408223 107.776483 
C 100.574414 107.942674 100.79985 108.036053 101.03488 108.036053 
z
" style="fill:#a9a9a9;stroke:#a9a9a9;stroke-width:0.886227;"/>
    <path clip-path="url(#p985b5aae02)" d="M 128.09168 56.943553 
C 128.32671 56.943553 128.552146 56.850175 128.718337 56.683984 
C 128.884528 56.517792 128.977907 56.292357 128.977907 56.057327 
C 128.977907 55.822296 128.884528 55.596861 128.718337 55.430669 
C 128.552146 55.264478 128.32671 55.1711 128.09168 55.1711 
C 127.85665 55.1711 127.631214 55.264478 127.465023 55.430669 
C 127.298831 55.596861 127.205453 55.822296 127.205453 56.057327 
C 127.205453 56.292357 127.298831 56.517792 127.465023 56.683984 
C 127.631214 56.850175 127.85665 56.943553 128.09168 56.943553 
z
" style="fill:#a9a9a9;stroke:#a9a9a9;stroke-width:0.886227;"/>
    <path clip-path="url(#p985b5aae02)" d="M 182.20528 49.3315 
C 182.44031 49.3315 182.665746 49.238121 182.831937 49.07193 
C 182.998129 48.905739 183.091507 48.680303 183.091507 48.445273 
C 183.091507 48.210243 182.998129 47.984807 182.831937 47.818616 
C 182.665746 47.652424 182.44031 47.559046 182.20528 47.559046 
C 181.97025 47.559046 181.744815 47.652424 181.578623 47.818616 
C 181.412432 47.984807 181.319053 48.210243 181.319053 48.445273 
C 181.319053 48.680303 181.412432 48.905739 181.578623 49.07193 
C 181.744815 49.238121 181.97025 49.3315 182.20528 49.3315 
z
" style="fill:#a9a9a9;stroke:#a9a9a9;stroke-width:0.886227;"/>
    <path clip-path="url(#p985b5aae02)" d="M 236.318881 48.185958 
C 236.553911 48.185958 236.779346 48.09258 236.945538 47.926388 
C 237.111729 47.760197 237.205108 47.534761 237.205108 47.299731 
C 237.205108 47.064701 237.111729 46.839265 236.945538 46.673074 
C 236.779346 46.506883 236.553911 46.413504 236.318881 46.413504 
C 236.083851 46.413504 235.858415 46.506883 235.692224 46.673074 
C 235.526032 46.839265 235.432654 47.064701 235.432654 47.299731 
C 235.432654 47.534761 235.526032 47.760197 235.692224 47.926388 
C 235.858415 48.09258 236.083851 48.185958 236.318881 48.185958 
z
" style="fill:#a9a9a9;stroke:#a9a9a9;stroke-width:0.886227;"/>
    <path clip-path="url(#p985b5aae02)" d="M 398.659682 47.105442 
C 398.894712 47.105442 399.120147 47.012063 399.286339 46.845872 
C 399.45253 46.679681 399.545909 46.454245 399.545909 46.219215 
C 399.545909 45.984185 399.45253 45.758749 399.286339 45.592558 
C 399.120147 45.426366 398.894712 45.332988 398.659682 45.332988 
C 398.424652 45.332988 398.199216 45.426366 398.033025 45.592558 
C 397.866833 45.758749 397.773455 45.984185 397.773455 46.219215 
C 397.773455 46.454245 397.866833 46.679681 398.033025 46.845872 
C 398.199216 47.012063 398.424652 47.105442 398.659682 47.105442 
z
" style="fill:#a9a9a9;stroke:#a9a9a9;stroke-width:0.886227;"/>
    <path clip-path="url(#p985b5aae02)" d="M 74.032193 40.765631 
C 74.267223 40.765631 74.492659 40.672253 74.65885 40.506061 
C 74.825042 40.33987 74.91842 40.114434 74.91842 39.879404 
C 74.91842 39.644374 74.825042 39.418939 74.65885 39.252747 
C 74.492659 39.086556 74.267223 38.993177 74.032193 38.993177 
C 73.797163 38.993177 73.571728 39.086556 73.405536 39.252747 
C 73.239345 39.418939 73.145966 39.644374 73.145966 39.879404 
C 73.145966 40.114434 73.239345 40.33987 73.405536 40.506061 
C 73.571728 40.672253 73.797163 40.765631 74.032193 40.765631 
z
" style="fill:#a9a9a9;stroke:#a9a9a9;stroke-width:0.886227;"/>
    <path clip-path="url(#p985b5aae02)" d="M 74.086307 40.777738 
C 74.321337 40.777738 74.546772 40.68436 74.712964 40.518168 
C 74.879155 40.351977 74.972534 40.126541 74.972534 39.891511 
C 74.972534 39.656481 74.879155 39.431045 74.712964 39.264854 
C 74.546772 39.098663 74.321337 39.005284 74.086307 39.005284 
C 73.851277 39.005284 73.625841 39.098663 73.45965 39.264854 
C 73.293458 39.431045 73.20008 39.656481 73.20008 39.891511 
C 73.20008 40.126541 73.293458 40.351977 73.45965 40.518168 
C 73.625841 40.68436 73.851277 40.777738 74.086307 40.777738 
z
" style="fill:#a9a9a9;stroke:#a9a9a9;stroke-width:0.886227;"/>
    <path clip-path="url(#p985b5aae02)" d="M 74.248648 40.837529 
C 74.483678 40.837529 74.709113 40.744151 74.875305 40.577959 
C 75.041496 40.411768 75.134874 40.186332 75.134874 39.951302 
C 75.134874 39.716272 75.041496 39.490837 74.875305 39.324645 
C 74.709113 39.158454 74.483678 39.065075 74.248648 39.065075 
C 74.013617 39.065075 73.788182 39.158454 73.621991 39.324645 
C 73.455799 39.490837 73.362421 39.716272 73.362421 39.951302 
C 73.362421 40.186332 73.455799 40.411768 73.621991 40.577959 
C 73.788182 40.744151 74.013617 40.837529 74.248648 40.837529 
z
" style="fill:#a9a9a9;stroke:#a9a9a9;stroke-width:0.886227;"/>
    <path clip-path="url(#p985b5aae02)" d="M 74.519216 40.938662 
C 74.754246 40.938662 74.979681 40.845284 75.145873 40.679092 
C 75.312064 40.512901 75.405443 40.287465 75.405443 40.052435 
C 75.405443 39.817405 75.312064 39.591969 75.145873 39.425778 
C 74.979681 39.259587 74.754246 39.166208 74.519216 39.166208 
C 74.284185 39.166208 74.05875 39.259587 73.892559 39.425778 
C 73.726367 39.591969 73.632989 39.817405 73.632989 40.052435 
C 73.632989 40.287465 73.726367 40.512901 73.892559 40.679092 
C 74.05875 40.845284 74.284185 40.938662 74.519216 40.938662 
z
" style="fill:#a9a9a9;stroke:#a9a9a9;stroke-width:0.886227;"/>
    <path clip-path="url(#p985b5aae02)" d="M 75.060352 41.13482 
C 75.295382 41.13482 75.520817 41.041442 75.687009 40.875251 
C 75.8532 40.709059 75.946579 40.483624 75.946579 40.248594 
C 75.946579 40.013563 75.8532 39.788128 75.687009 39.621936 
C 75.520817 39.455745 75.295382 39.362367 75.060352 39.362367 
C 74.825321 39.362367 74.599886 39.455745 74.433695 39.621936 
C 74.267503 39.788128 74.174125 40.013563 74.174125 40.248594 
C 74.174125 40.483624 74.267503 40.709059 74.433695 40.875251 
C 74.599886 41.041442 74.825321 41.13482 75.060352 41.13482 
z
" style="fill:#a9a9a9;stroke:#a9a9a9;stroke-width:0.886227;"/>
    <path clip-path="url(#p985b5aae02)" d="M 76.68376 41.783386 
C 76.91879 41.783386 77.144225 41.690007 77.310417 41.523816 
C 77.476608 41.357625 77.569987 41.132189 77.569987 40.897159 
C 77.569987 40.662129 77.476608 40.436693 77.310417 40.270502 
C 77.144225 40.10431 76.91879 40.010932 76.68376 40.010932 
C 76.448729 40.010932 76.223294 40.10431 76.057103 40.270502 
C 75.890911 40.436693 75.797533 40.662129 75.797533 40.897159 
C 75.797533 41.132189 75.890911 41.357625 76.057103 41.523816 
C 76.223294 41.690007 76.448729 41.783386 76.68376 41.783386 
z
" style="fill:#a9a9a9;stroke:#a9a9a9;stroke-width:0.886227;"/>
    <path clip-path="url(#p985b5aae02)" d="M 79.38944 42.844294 
C 79.62447 42.844294 79.849905 42.750916 80.016097 42.584725 
C 80.182288 42.418533 80.275667 42.193098 80.275667 41.958067 
C 80.275667 41.723037 80.182288 41.497602 80.016097 41.33141 
C 79.849905 41.165219 79.62447 41.071841 79.38944 41.071841 
C 79.154409 41.071841 78.928974 41.165219 78.762783 41.33141 
C 78.596591 41.497602 78.503213 41.723037 78.503213 41.958067 
C 78.503213 42.193098 78.596591 42.418533 78.762783 42.584725 
C 78.928974 42.750916 79.154409 42.844294 79.38944 42.844294 
z
" style="fill:#a9a9a9;stroke:#a9a9a9;stroke-width:0.886227;"/>
    <path clip-path="url(#p985b5aae02)" d="M 101.03488 51.252667 
C 101.26991 51.252667 101.495345 51.159289 101.661537 50.993097 
C 101.827728 50.826906 101.921107 50.60147 101.921107 50.36644 
C 101.921107 50.13141 101.827728 49.905974 101.661537 49.739783 
C 101.495345 49.573592 101.26991 49.480213 101.03488 49.480213 
C 100.79985 49.480213 100.574414 49.573592 100.408223 49.739783 
C 100.242031 49.905974 100.148653 50.13141 100.148653 50.36644 
C 100.148653 50.60147 100.242031 50.826906 100.408223 50.993097 
C 100.574414 51.159289 100.79985 51.252667 101.03488 51.252667 
z
" style="fill:#a9a9a9;stroke:#a9a9a9;stroke-width:0.886227;"/>
    <path clip-path="url(#p985b5aae02)" d="M 128.09168 61.910963 
C 128.32671 61.910963 128.552146 61.817584 128.718337 61.651393 
C 128.884528 61.485202 128.977907 61.259766 128.977907 61.024736 
C 128.977907 60.789706 128.884528 60.56427 128.718337 60.398079 
C 128.552146 60.231887 128.32671 60.138509 128.09168 60.138509 
C 127.85665 60.138509 127.631214 60.231887 127.465023 60.398079 
C 127.298831 60.56427 127.205453 60.789706 127.205453 61.024736 
C 127.205453 61.259766 127.298831 61.485202 127.465023 61.651393 
C 127.631214 61.817584 127.85665 61.910963 128.09168 61.910963 
z
" style="fill:#a9a9a9;stroke:#a9a9a9;stroke-width:0.886227;"/>
    <path clip-path="url(#p985b5aae02)" d="M 182.20528 85.880817 
C 182.44031 85.880817 182.665746 85.787439 182.831937 85.621247 
C 182.998129 85.455056 183.091507 85.22962 183.091507 84.99459 
C 183.091507 84.75956 182.998129 84.534124 182.831937 84.367933 
C 182.665746 84.201742 182.44031 84.108363 182.20528 84.108363 
C 181.97025 84.108363 181.744815 84.201742 181.578623 84.367933 
C 181.412432 84.534124 181.319053 84.75956 181.319053 84.99459 
C 181.319053 85.22962 181.412432 85.455056 181.578623 85.621247 
C 181.744815 85.787439 181.97025 85.880817 182.20528 85.880817 
z
" style="fill:#a9a9a9;stroke:#a9a9a9;stroke-width:0.886227;"/>
    <path clip-path="url(#p985b5aae02)" d="M 236.318881 115.944854 
C 236.553911 115.944854 236.779346 115.851476 236.945538 115.685284 
C 237.111729 115.519093 237.205108 115.293657 237.205108 115.058627 
C 237.205108 114.823597 237.111729 114.598162 236.945538 114.43197 
C 236.779346 114.265779 236.553911 114.1724 236.318881 114.1724 
C 236.083851 114.1724 235.858415 114.265779 235.692224 114.43197 
C 235.526032 114.598162 235.432654 114.823597 235.432654 115.058627 
C 235.432654 115.293657 235.526032 115.519093 235.692224 115.685284 
C 235.858415 115.851476 236.083851 115.944854 236.318881 115.944854 
z
" style="fill:#a9a9a9;stroke:#a9a9a9;stroke-width:0.886227;"/>
    <path clip-path="url(#p985b5aae02)" d="M 398.659682 281.137763 
C 398.894712 281.137763 399.120147 281.044384 399.286339 280.878193 
C 399.45253 280.712001 399.545909 280.486566 399.545909 280.251536 
C 399.545909 280.016505 399.45253 279.79107 399.286339 279.624879 
C 399.120147 279.458687 398.894712 279.365309 398.659682 279.365309 
C 398.424652 279.365309 398.199216 279.458687 398.033025 279.624879 
C 397.866833 279.79107 397.773455 280.016505 397.773455 280.251536 
C 397.773455 280.486566 397.866833 280.712001 398.033025 280.878193 
C 398.199216 281.044384 398.424652 281.137763 398.659682 281.137763 
z
" style="fill:#a9a9a9;stroke:#a9a9a9;stroke-width:0.886227;"/>
   </g>
   <g id="patch_3">
    <path d="M 57.785938 293.895376 
L 57.785938 27.783376 
" style="fill:none;stroke:#808080;stroke-linecap:square;stroke-linejoin:miter;"/>
   </g>
   <g id="patch_4">
    <path d="M 57.785938 293.895376 
L 414.905938 293.895376 
" style="fill:none;stroke:#808080;stroke-linecap:square;stroke-linejoin:miter;"/>
   </g>
   <g id="LineCollection_1">
    <path clip-path="url(#p985b5aae02)" d="M 74.018665 39.879426 
L 74.045722 39.879426 
" style="fill:none;stroke:#a9a9a9;stroke-width:0.886227;"/>
    <path clip-path="url(#p985b5aae02)" d="M 74.072778 64.072238 
L 74.099835 64.072238 
" style="fill:none;stroke:#a9a9a9;stroke-width:0.886227;"/>
    <path clip-path="url(#p985b5aae02)" d="M 74.235119 135.609856 
L 74.262176 135.609856 
" style="fill:none;stroke:#a9a9a9;stroke-width:0.886227;"/>
    <path clip-path="url(#p985b5aae02)" d="M 74.505687 251.630541 
L 74.532744 251.630541 
" style="fill:none;stroke:#a9a9a9;stroke-width:0.886227;"/>
    <path clip-path="url(#p985b5aae02)" d="M 75.046823 273.08335 
L 75.07388 273.08335 
" style="fill:none;stroke:#a9a9a9;stroke-width:0.886227;"/>
    <path clip-path="url(#p985b5aae02)" d="M 76.670231 249.454653 
L 76.697288 249.454653 
" style="fill:none;stroke:#a9a9a9;stroke-width:0.886227;"/>
    <path clip-path="url(#p985b5aae02)" d="M 79.375911 225.639846 
L 79.402968 225.639846 
" style="fill:none;stroke:#a9a9a9;stroke-width:0.886227;"/>
    <path clip-path="url(#p985b5aae02)" d="M 101.021351 110.935965 
L 101.048408 110.935965 
" style="fill:none;stroke:#a9a9a9;stroke-width:0.886227;"/>
    <path clip-path="url(#p985b5aae02)" d="M 128.078152 56.687126 
L 128.105208 56.687126 
" style="fill:none;stroke:#a9a9a9;stroke-width:0.886227;"/>
    <path clip-path="url(#p985b5aae02)" d="M 182.191752 48.679522 
L 182.218809 48.679522 
" style="fill:none;stroke:#a9a9a9;stroke-width:0.886227;"/>
    <path clip-path="url(#p985b5aae02)" d="M 236.305352 47.706053 
L 236.332409 47.706053 
" style="fill:none;stroke:#a9a9a9;stroke-width:0.886227;"/>
    <path clip-path="url(#p985b5aae02)" d="M 398.646153 46.360615 
L 398.67321 46.360615 
" style="fill:none;stroke:#a9a9a9;stroke-width:0.886227;"/>
    <path clip-path="url(#p985b5aae02)" d="M 74.018665 39.879428 
L 74.045722 39.879428 
" style="fill:none;stroke:#a9a9a9;stroke-width:0.886227;"/>
    <path clip-path="url(#p985b5aae02)" d="M 74.072778 39.895861 
L 74.099835 39.895861 
" style="fill:none;stroke:#a9a9a9;stroke-width:0.886227;"/>
    <path clip-path="url(#p985b5aae02)" d="M 74.235119 39.965375 
L 74.262176 39.965375 
" style="fill:none;stroke:#a9a9a9;stroke-width:0.886227;"/>
    <path clip-path="url(#p985b5aae02)" d="M 74.505687 40.061407 
L 74.532744 40.061407 
" style="fill:none;stroke:#a9a9a9;stroke-width:0.886227;"/>
    <path clip-path="url(#p985b5aae02)" d="M 75.046823 40.257697 
L 75.07388 40.257697 
" style="fill:none;stroke:#a9a9a9;stroke-width:0.886227;"/>
    <path clip-path="url(#p985b5aae02)" d="M 76.670231 40.942881 
L 76.697288 40.942881 
" style="fill:none;stroke:#a9a9a9;stroke-width:0.886227;"/>
    <path clip-path="url(#p985b5aae02)" d="M 79.375911 42.015041 
L 79.402968 42.015041 
" style="fill:none;stroke:#a9a9a9;stroke-width:0.886227;"/>
    <path clip-path="url(#p985b5aae02)" d="M 101.021351 50.58778 
L 101.048408 50.58778 
" style="fill:none;stroke:#a9a9a9;stroke-width:0.886227;"/>
    <path clip-path="url(#p985b5aae02)" d="M 128.078152 61.244146 
L 128.105208 61.244146 
" style="fill:none;stroke:#a9a9a9;stroke-width:0.886227;"/>
    <path clip-path="url(#p985b5aae02)" d="M 182.191752 85.224509 
L 182.218809 85.224509 
" style="fill:none;stroke:#a9a9a9;stroke-width:0.886227;"/>
    <path clip-path="url(#p985b5aae02)" d="M 236.305352 119.569265 
L 236.332409 119.569265 
" style="fill:none;stroke:#a9a9a9;stroke-width:0.886227;"/>
    <path clip-path="url(#p985b5aae02)" d="M 398.646153 281.799376 
L 398.67321 281.799376 
" style="fill:none;stroke:#a9a9a9;stroke-width:0.886227;"/>
    <path clip-path="url(#p985b5aae02)" d="M 74.018665 39.879376 
L 74.045722 39.879376 
" style="fill:none;stroke:#a9a9a9;stroke-width:0.886227;"/>
    <path clip-path="url(#p985b5aae02)" d="M 74.072778 63.969648 
L 74.099835 63.969648 
" style="fill:none;stroke:#a9a9a9;stroke-width:0.886227;"/>
    <path clip-path="url(#p985b5aae02)" d="M 74.235119 135.040997 
L 74.262176 135.040997 
" style="fill:none;stroke:#a9a9a9;stroke-width:0.886227;"/>
    <path clip-path="url(#p985b5aae02)" d="M 74.505687 251.251547 
L 74.532744 251.251547 
" style="fill:none;stroke:#a9a9a9;stroke-width:0.886227;"/>
    <path clip-path="url(#p985b5aae02)" d="M 75.046823 272.632273 
L 75.07388 272.632273 
" style="fill:none;stroke:#a9a9a9;stroke-width:0.886227;"/>
    <path clip-path="url(#p985b5aae02)" d="M 76.670231 247.404343 
L 76.697288 247.404343 
" style="fill:none;stroke:#a9a9a9;stroke-width:0.886227;"/>
    <path clip-path="url(#p985b5aae02)" d="M 79.375911 224.992719 
L 79.402968 224.992719 
" style="fill:none;stroke:#a9a9a9;stroke-width:0.886227;"/>
    <path clip-path="url(#p985b5aae02)" d="M 101.021351 103.363686 
L 101.048408 103.363686 
" style="fill:none;stroke:#a9a9a9;stroke-width:0.886227;"/>
    <path clip-path="url(#p985b5aae02)" d="M 128.078152 55.427527 
L 128.105208 55.427527 
" style="fill:none;stroke:#a9a9a9;stroke-width:0.886227;"/>
    <path clip-path="url(#p985b5aae02)" d="M 182.191752 48.211024 
L 182.218809 48.211024 
" style="fill:none;stroke:#a9a9a9;stroke-width:0.886227;"/>
    <path clip-path="url(#p985b5aae02)" d="M 236.305352 46.893409 
L 236.332409 46.893409 
" style="fill:none;stroke:#a9a9a9;stroke-width:0.886227;"/>
    <path clip-path="url(#p985b5aae02)" d="M 398.646153 46.077815 
L 398.67321 46.077815 
" style="fill:none;stroke:#a9a9a9;stroke-width:0.886227;"/>
    <path clip-path="url(#p985b5aae02)" d="M 74.018665 39.879381 
L 74.045722 39.879381 
" style="fill:none;stroke:#a9a9a9;stroke-width:0.886227;"/>
    <path clip-path="url(#p985b5aae02)" d="M 74.072778 39.887161 
L 74.099835 39.887161 
" style="fill:none;stroke:#a9a9a9;stroke-width:0.886227;"/>
    <path clip-path="url(#p985b5aae02)" d="M 74.235119 39.937229 
L 74.262176 39.937229 
" style="fill:none;stroke:#a9a9a9;stroke-width:0.886227;"/>
    <path clip-path="url(#p985b5aae02)" d="M 74.505687 40.043463 
L 74.532744 40.043463 
" style="fill:none;stroke:#a9a9a9;stroke-width:0.886227;"/>
    <path clip-path="url(#p985b5aae02)" d="M 75.046823 40.23949 
L 75.07388 40.23949 
" style="fill:none;stroke:#a9a9a9;stroke-width:0.886227;"/>
    <path clip-path="url(#p985b5aae02)" d="M 76.670231 40.851437 
L 76.697288 40.851437 
" style="fill:none;stroke:#a9a9a9;stroke-width:0.886227;"/>
    <path clip-path="url(#p985b5aae02)" d="M 79.375911 41.901094 
L 79.402968 41.901094 
" style="fill:none;stroke:#a9a9a9;stroke-width:0.886227;"/>
    <path clip-path="url(#p985b5aae02)" d="M 101.021351 50.1451 
L 101.048408 50.1451 
" style="fill:none;stroke:#a9a9a9;stroke-width:0.886227;"/>
    <path clip-path="url(#p985b5aae02)" d="M 128.078152 60.805326 
L 128.105208 60.805326 
" style="fill:none;stroke:#a9a9a9;stroke-width:0.886227;"/>
    <path clip-path="url(#p985b5aae02)" d="M 182.191752 84.764672 
L 182.218809 84.764672 
" style="fill:none;stroke:#a9a9a9;stroke-width:0.886227;"/>
    <path clip-path="url(#p985b5aae02)" d="M 236.305352 110.54799 
L 236.332409 110.54799 
" style="fill:none;stroke:#a9a9a9;stroke-width:0.886227;"/>
    <path clip-path="url(#p985b5aae02)" d="M 398.646153 278.703695 
L 398.67321 278.703695 
" style="fill:none;stroke:#a9a9a9;stroke-width:0.886227;"/>
    <path clip-path="url(#p985b5aae02)" d="M 74.032193 39.879376 
L 74.032193 39.879426 
" style="fill:none;stroke:#a9a9a9;stroke-width:0.886227;"/>
    <path clip-path="url(#p985b5aae02)" d="M 74.086307 63.969648 
L 74.086307 64.072238 
" style="fill:none;stroke:#a9a9a9;stroke-width:0.886227;"/>
    <path clip-path="url(#p985b5aae02)" d="M 74.248648 135.040997 
L 74.248648 135.609856 
" style="fill:none;stroke:#a9a9a9;stroke-width:0.886227;"/>
    <path clip-path="url(#p985b5aae02)" d="M 74.519216 251.251547 
L 74.519216 251.630541 
" style="fill:none;stroke:#a9a9a9;stroke-width:0.886227;"/>
    <path clip-path="url(#p985b5aae02)" d="M 75.060352 272.632273 
L 75.060352 273.08335 
" style="fill:none;stroke:#a9a9a9;stroke-width:0.886227;"/>
    <path clip-path="url(#p985b5aae02)" d="M 76.68376 247.404343 
L 76.68376 249.454653 
" style="fill:none;stroke:#a9a9a9;stroke-width:0.886227;"/>
    <path clip-path="url(#p985b5aae02)" d="M 79.38944 224.992719 
L 79.38944 225.639846 
" style="fill:none;stroke:#a9a9a9;stroke-width:0.886227;"/>
    <path clip-path="url(#p985b5aae02)" d="M 101.03488 103.363686 
L 101.03488 110.935965 
" style="fill:none;stroke:#a9a9a9;stroke-width:0.886227;"/>
    <path clip-path="url(#p985b5aae02)" d="M 128.09168 55.427527 
L 128.09168 56.687126 
" style="fill:none;stroke:#a9a9a9;stroke-width:0.886227;"/>
    <path clip-path="url(#p985b5aae02)" d="M 182.20528 48.211024 
L 182.20528 48.679522 
" style="fill:none;stroke:#a9a9a9;stroke-width:0.886227;"/>
    <path clip-path="url(#p985b5aae02)" d="M 236.318881 46.893409 
L 236.318881 47.706053 
" style="fill:none;stroke:#a9a9a9;stroke-width:0.886227;"/>
    <path clip-path="url(#p985b5aae02)" d="M 398.659682 46.077815 
L 398.659682 46.360615 
" style="fill:none;stroke:#a9a9a9;stroke-width:0.886227;"/>
    <path clip-path="url(#p985b5aae02)" d="M 74.032193 39.879381 
L 74.032193 39.879428 
" style="fill:none;stroke:#a9a9a9;stroke-width:0.886227;"/>
    <path clip-path="url(#p985b5aae02)" d="M 74.086307 39.887161 
L 74.086307 39.895861 
" style="fill:none;stroke:#a9a9a9;stroke-width:0.886227;"/>
    <path clip-path="url(#p985b5aae02)" d="M 74.248648 39.937229 
L 74.248648 39.965375 
" style="fill:none;stroke:#a9a9a9;stroke-width:0.886227;"/>
    <path clip-path="url(#p985b5aae02)" d="M 74.519216 40.043463 
L 74.519216 40.061407 
" style="fill:none;stroke:#a9a9a9;stroke-width:0.886227;"/>
    <path clip-path="url(#p985b5aae02)" d="M 75.060352 40.23949 
L 75.060352 40.257697 
" style="fill:none;stroke:#a9a9a9;stroke-width:0.886227;"/>
    <path clip-path="url(#p985b5aae02)" d="M 76.68376 40.851437 
L 76.68376 40.942881 
" style="fill:none;stroke:#a9a9a9;stroke-width:0.886227;"/>
    <path clip-path="url(#p985b5aae02)" d="M 79.38944 41.901094 
L 79.38944 42.015041 
" style="fill:none;stroke:#a9a9a9;stroke-width:0.886227;"/>
    <path clip-path="url(#p985b5aae02)" d="M 101.03488 50.1451 
L 101.03488 50.58778 
" style="fill:none;stroke:#a9a9a9;stroke-width:0.886227;"/>
    <path clip-path="url(#p985b5aae02)" d="M 128.09168 60.805326 
L 128.09168 61.244146 
" style="fill:none;stroke:#a9a9a9;stroke-width:0.886227;"/>
    <path clip-path="url(#p985b5aae02)" d="M 182.20528 84.764672 
L 182.20528 85.224509 
" style="fill:none;stroke:#a9a9a9;stroke-width:0.886227;"/>
    <path clip-path="url(#p985b5aae02)" d="M 236.318881 110.54799 
L 236.318881 119.569265 
" style="fill:none;stroke:#a9a9a9;stroke-width:0.886227;"/>
    <path clip-path="url(#p985b5aae02)" d="M 398.659682 278.703695 
L 398.659682 281.799376 
" style="fill:none;stroke:#a9a9a9;stroke-width:0.886227;"/>
   </g>
   <g id="line2d_35">
    <path clip-path="url(#p985b5aae02)" d="M 74.032193 258.627906 
L 74.032193 258.627906 
L 74.086307 258.627906 
L 74.086307 258.627906 
L 74.248648 258.627906 
L 74.248648 258.627906 
L 74.519216 258.627906 
L 74.519216 258.627906 
L 75.060352 258.627906 
L 75.060352 258.627906 
L 76.68376 258.627906 
L 76.68376 258.627906 
L 79.38944 258.627906 
L 79.38944 258.627906 
L 101.03488 258.627906 
L 101.03488 258.627906 
L 128.09168 258.627906 
L 128.09168 258.627906 
L 182.20528 258.627906 
L 182.20528 258.627906 
L 236.318881 258.627906 
L 236.318881 258.627906 
L 398.659682 258.627906 
L 398.659682 258.627906 
" style="fill:none;stroke:#a9a9a9;stroke-dasharray:6.558079,2.835926;stroke-dashoffset:0;stroke-width:1.772454;"/>
   </g>
   <g id="patch_5">
    <path d="M 422.105938 197.60997 
L 538.045313 197.60997 
L 538.045313 120.612782 
L 422.105938 120.612782 
z
" style="fill:#ffffff;"/>
   </g>
   <g id="text_12">
    <!-- Group -->
    <defs>
     <path d="M 59.515625 10.40625 
L 59.515625 29.984375 
L 43.40625 29.984375 
L 43.40625 38.09375 
L 69.28125 38.09375 
L 69.28125 6.78125 
Q 63.578125 2.734375 56.6875 0.65625 
Q 49.8125 -1.421875 42 -1.421875 
Q 24.90625 -1.421875 15.25 8.5625 
Q 5.609375 18.5625 5.609375 36.375 
Q 5.609375 54.25 15.25 64.234375 
Q 24.90625 74.21875 42 74.21875 
Q 49.125 74.21875 55.546875 72.453125 
Q 61.96875 70.703125 67.390625 67.28125 
L 67.390625 56.78125 
Q 61.921875 61.421875 55.765625 63.765625 
Q 49.609375 66.109375 42.828125 66.109375 
Q 29.4375 66.109375 22.71875 58.640625 
Q 16.015625 51.171875 16.015625 36.375 
Q 16.015625 21.625 22.71875 14.15625 
Q 29.4375 6.6875 42.828125 6.6875 
Q 48.046875 6.6875 52.140625 7.59375 
Q 56.25 8.5 59.515625 10.40625 
z
" id="DejaVuSans-71"/>
     <path d="M 18.109375 8.203125 
L 18.109375 -20.796875 
L 9.078125 -20.796875 
L 9.078125 54.6875 
L 18.109375 54.6875 
L 18.109375 46.390625 
Q 20.953125 51.265625 25.265625 53.625 
Q 29.59375 56 35.59375 56 
Q 45.5625 56 51.78125 48.09375 
Q 58.015625 40.1875 58.015625 27.296875 
Q 58.015625 14.40625 51.78125 6.484375 
Q 45.5625 -1.421875 35.59375 -1.421875 
Q 29.59375 -1.421875 25.265625 0.953125 
Q 20.953125 3.328125 18.109375 8.203125 
z
M 48.6875 27.296875 
Q 48.6875 37.203125 44.609375 42.84375 
Q 40.53125 48.484375 33.40625 48.484375 
Q 26.265625 48.484375 22.1875 42.84375 
Q 18.109375 37.203125 18.109375 27.296875 
Q 18.109375 17.390625 22.1875 11.75 
Q 26.265625 6.109375 33.40625 6.109375 
Q 40.53125 6.109375 44.609375 11.75 
Q 48.6875 17.390625 48.6875 27.296875 
z
" id="DejaVuSans-112"/>
    </defs>
    <g transform="translate(434.305938 148.349501)scale(0.15 -0.15)">
     <use xlink:href="#DejaVuSans-71"/>
     <use x="77.490234" xlink:href="#DejaVuSans-114"/>
     <use x="118.572266" xlink:href="#DejaVuSans-111"/>
     <use x="179.753906" xlink:href="#DejaVuSans-117"/>
     <use x="243.132812" xlink:href="#DejaVuSans-112"/>
    </g>
   </g>
   <g id="patch_6">
    <path clip-path="url(#p8cbbb6efb0)" d="M 434.305938 167.56997 
L 450.145938 167.56997 
L 450.145938 151.72997 
L 434.305938 151.72997 
z
" style="fill:#ffffff;stroke:#ffffff;stroke-linejoin:miter;"/>
   </g>
   <g id="line2d_36">
    <path clip-path="url(#p8cbbb6efb0)" d="M 434.305938 159.64997 
L 450.145938 159.64997 
" style="fill:none;stroke:#1976d2;stroke-width:2.658681;"/>
   </g>
   <g id="text_13">
    <!-- corrected -->
    <defs>
     <path d="M 45.40625 46.390625 
L 45.40625 75.984375 
L 54.390625 75.984375 
L 54.390625 0 
L 45.40625 0 
L 45.40625 8.203125 
Q 42.578125 3.328125 38.25 0.953125 
Q 33.9375 -1.421875 27.875 -1.421875 
Q 17.96875 -1.421875 11.734375 6.484375 
Q 5.515625 14.40625 5.515625 27.296875 
Q 5.515625 40.1875 11.734375 48.09375 
Q 17.96875 56 27.875 56 
Q 33.9375 56 38.25 53.625 
Q 42.578125 51.265625 45.40625 46.390625 
z
M 14.796875 27.296875 
Q 14.796875 17.390625 18.875 11.75 
Q 22.953125 6.109375 30.078125 6.109375 
Q 37.203125 6.109375 41.296875 11.75 
Q 45.40625 17.390625 45.40625 27.296875 
Q 45.40625 37.203125 41.296875 42.84375 
Q 37.203125 48.484375 30.078125 48.484375 
Q 22.953125 48.484375 18.875 42.84375 
Q 14.796875 37.203125 14.796875 27.296875 
z
" id="DejaVuSans-100"/>
    </defs>
    <g transform="translate(453.145938 162.96122)scale(0.12 -0.12)">
     <use xlink:href="#DejaVuSans-99"/>
     <use x="54.980469" xlink:href="#DejaVuSans-111"/>
     <use x="116.162109" xlink:href="#DejaVuSans-114"/>
     <use x="157.259766" xlink:href="#DejaVuSans-114"/>
     <use x="198.341797" xlink:href="#DejaVuSans-101"/>
     <use x="259.865234" xlink:href="#DejaVuSans-99"/>
     <use x="314.845703" xlink:href="#DejaVuSans-116"/>
     <use x="354.054688" xlink:href="#DejaVuSans-101"/>
     <use x="415.578125" xlink:href="#DejaVuSans-100"/>
    </g>
   </g>
   <g id="patch_7">
    <path clip-path="url(#p9c255ce1a1)" d="M 434.305938 185.40997 
L 450.145938 185.40997 
L 450.145938 169.56997 
L 434.305938 169.56997 
z
" style="fill:#ffffff;stroke:#ffffff;stroke-linejoin:miter;"/>
   </g>
   <g id="line2d_37">
    <path clip-path="url(#p9c255ce1a1)" d="M 434.305938 177.48997 
L 450.145938 177.48997 
" style="fill:none;stroke:#b3e5fc;stroke-width:2.658681;"/>
   </g>
   <g id="text_14">
    <!-- uncorrected -->
    <g transform="translate(453.145938 180.80122)scale(0.12 -0.12)">
     <use xlink:href="#DejaVuSans-117"/>
     <use x="63.378906" xlink:href="#DejaVuSans-110"/>
     <use x="126.757812" xlink:href="#DejaVuSans-99"/>
     <use x="181.738281" xlink:href="#DejaVuSans-111"/>
     <use x="242.919922" xlink:href="#DejaVuSans-114"/>
     <use x="284.017578" xlink:href="#DejaVuSans-114"/>
     <use x="325.099609" xlink:href="#DejaVuSans-101"/>
     <use x="386.623047" xlink:href="#DejaVuSans-99"/>
     <use x="441.603516" xlink:href="#DejaVuSans-116"/>
     <use x="480.8125" xlink:href="#DejaVuSans-101"/>
     <use x="542.335938" xlink:href="#DejaVuSans-100"/>
    </g>
   </g>
  </g>
  <g id="text_15">
   <!-- Similarity across varying numbers of partitions -->
   <defs>
    <path d="M 2.984375 54.6875 
L 12.5 54.6875 
L 29.59375 8.796875 
L 46.6875 54.6875 
L 56.203125 54.6875 
L 35.6875 0 
L 23.484375 0 
z
" id="DejaVuSans-118"/>
    <path d="M 45.40625 27.984375 
Q 45.40625 37.75 41.375 43.109375 
Q 37.359375 48.484375 30.078125 48.484375 
Q 22.859375 48.484375 18.828125 43.109375 
Q 14.796875 37.75 14.796875 27.984375 
Q 14.796875 18.265625 18.828125 12.890625 
Q 22.859375 7.515625 30.078125 7.515625 
Q 37.359375 7.515625 41.375 12.890625 
Q 45.40625 18.265625 45.40625 27.984375 
z
M 54.390625 6.78125 
Q 54.390625 -7.171875 48.1875 -13.984375 
Q 42 -20.796875 29.203125 -20.796875 
Q 24.46875 -20.796875 20.265625 -20.09375 
Q 16.0625 -19.390625 12.109375 -17.921875 
L 12.109375 -9.1875 
Q 16.0625 -11.328125 19.921875 -12.34375 
Q 23.78125 -13.375 27.78125 -13.375 
Q 36.625 -13.375 41.015625 -8.765625 
Q 45.40625 -4.15625 45.40625 5.171875 
L 45.40625 9.625 
Q 42.625 4.78125 38.28125 2.390625 
Q 33.9375 0 27.875 0 
Q 17.828125 0 11.671875 7.65625 
Q 5.515625 15.328125 5.515625 27.984375 
Q 5.515625 40.671875 11.671875 48.328125 
Q 17.828125 56 27.875 56 
Q 33.9375 56 38.28125 53.609375 
Q 42.625 51.21875 45.40625 46.390625 
L 45.40625 54.6875 
L 54.390625 54.6875 
z
" id="DejaVuSans-103"/>
   </defs>
   <g transform="translate(54.703906 18.597656)scale(0.15 -0.15)">
    <use xlink:href="#DejaVuSans-83"/>
    <use x="63.476562" xlink:href="#DejaVuSans-105"/>
    <use x="91.259766" xlink:href="#DejaVuSans-109"/>
    <use x="188.671875" xlink:href="#DejaVuSans-105"/>
    <use x="216.455078" xlink:href="#DejaVuSans-108"/>
    <use x="244.238281" xlink:href="#DejaVuSans-97"/>
    <use x="305.517578" xlink:href="#DejaVuSans-114"/>
    <use x="346.630859" xlink:href="#DejaVuSans-105"/>
    <use x="374.414062" xlink:href="#DejaVuSans-116"/>
    <use x="413.623047" xlink:href="#DejaVuSans-121"/>
    <use x="472.802734" xlink:href="#DejaVuSans-32"/>
    <use x="504.589844" xlink:href="#DejaVuSans-97"/>
    <use x="565.869141" xlink:href="#DejaVuSans-99"/>
    <use x="620.849609" xlink:href="#DejaVuSans-114"/>
    <use x="661.931641" xlink:href="#DejaVuSans-111"/>
    <use x="723.113281" xlink:href="#DejaVuSans-115"/>
    <use x="775.212891" xlink:href="#DejaVuSans-115"/>
    <use x="827.3125" xlink:href="#DejaVuSans-32"/>
    <use x="859.099609" xlink:href="#DejaVuSans-118"/>
    <use x="918.279297" xlink:href="#DejaVuSans-97"/>
    <use x="979.558594" xlink:href="#DejaVuSans-114"/>
    <use x="1020.671875" xlink:href="#DejaVuSans-121"/>
    <use x="1079.851562" xlink:href="#DejaVuSans-105"/>
    <use x="1107.634766" xlink:href="#DejaVuSans-110"/>
    <use x="1171.013672" xlink:href="#DejaVuSans-103"/>
    <use x="1234.490234" xlink:href="#DejaVuSans-32"/>
    <use x="1266.277344" xlink:href="#DejaVuSans-110"/>
    <use x="1329.65625" xlink:href="#DejaVuSans-117"/>
    <use x="1393.035156" xlink:href="#DejaVuSans-109"/>
    <use x="1490.447266" xlink:href="#DejaVuSans-98"/>
    <use x="1553.923828" xlink:href="#DejaVuSans-101"/>
    <use x="1615.447266" xlink:href="#DejaVuSans-114"/>
    <use x="1656.560547" xlink:href="#DejaVuSans-115"/>
    <use x="1708.660156" xlink:href="#DejaVuSans-32"/>
    <use x="1740.447266" xlink:href="#DejaVuSans-111"/>
    <use x="1801.628906" xlink:href="#DejaVuSans-102"/>
    <use x="1836.833984" xlink:href="#DejaVuSans-32"/>
    <use x="1868.621094" xlink:href="#DejaVuSans-112"/>
    <use x="1932.097656" xlink:href="#DejaVuSans-97"/>
    <use x="1993.376953" xlink:href="#DejaVuSans-114"/>
    <use x="2034.490234" xlink:href="#DejaVuSans-116"/>
    <use x="2073.699219" xlink:href="#DejaVuSans-105"/>
    <use x="2101.482422" xlink:href="#DejaVuSans-116"/>
    <use x="2140.691406" xlink:href="#DejaVuSans-105"/>
    <use x="2168.474609" xlink:href="#DejaVuSans-111"/>
    <use x="2229.65625" xlink:href="#DejaVuSans-110"/>
    <use x="2293.035156" xlink:href="#DejaVuSans-115"/>
   </g>
  </g>
 </g>
 <defs>
  <clipPath id="p985b5aae02">
   <rect height="266.112" width="357.12" x="57.785938" y="27.783376"/>
  </clipPath>
  <clipPath id="p8cbbb6efb0">
   <path d="M 434.305938 167.56997 
L 434.305938 151.72997 
L 450.145938 151.72997 
L 450.145938 167.56997 
"/>
  </clipPath>
  <clipPath id="p9c255ce1a1">
   <path d="M 434.305938 185.40997 
L 434.305938 169.56997 
L 450.145938 169.56997 
L 450.145938 185.40997 
"/>
  </clipPath>
 </defs>
</svg>
