<?xml version="1.0" encoding="utf-8" standalone="no"?>
<!DOCTYPE svg PUBLIC "-//W3C//DTD SVG 1.1//EN"
  "http://www.w3.org/Graphics/SVG/1.1/DTD/svg11.dtd">
<!-- Created with matplotlib (https://matplotlib.org/) -->
<svg height="336.576313pt" version="1.1" viewBox="0 0 545.245312 336.576313" width="545.245312pt" xmlns="http://www.w3.org/2000/svg" xmlns:xlink="http://www.w3.org/1999/xlink">
 <defs>
  <style type="text/css">
*{stroke-linecap:butt;stroke-linejoin:round;}
  </style>
 </defs>
 <g id="figure_1">
  <g id="patch_1">
   <path d="M 0 336.576313 
L 545.245312 336.576313 
L 545.245312 0 
L 0 0 
z
" style="fill:#ffffff;stroke:#ffffff;stroke-linejoin:miter;"/>
  </g>
  <g id="axes_1">
   <g id="patch_2">
    <path d="M 57.785938 293.895376 
L 414.905938 293.895376 
L 414.905938 27.783376 
L 57.785938 27.783376 
z
" style="fill:#ffffff;"/>
   </g>
   <g id="matplotlib.axis_1">
    <g id="xtick_1">
     <g id="line2d_1">
      <path clip-path="url(#p9718b5d6ee)" d="M 73.612508 293.895376 
L 73.612508 27.783376 
" style="fill:none;stroke:#d3d3d3;"/>
     </g>
     <g id="line2d_2">
      <path d="M 73.612508 293.895376 
" style="fill:none;stroke:#333333;stroke-width:1.5;"/>
      <defs>
       <path d="M 0 0 
L 0 2.75 
" id="mbcf7e7972c" style="stroke:#333333;"/>
      </defs>
      <g>
       <use style="fill:#333333;stroke:#333333;" x="73.612508" xlink:href="#mbcf7e7972c" y="293.895376"/>
      </g>
     </g>
     <g id="text_1">
      <!-- 0 -->
      <defs>
       <path d="M 31.78125 66.40625 
Q 24.171875 66.40625 20.328125 58.90625 
Q 16.5 51.421875 16.5 36.375 
Q 16.5 21.390625 20.328125 13.890625 
Q 24.171875 6.390625 31.78125 6.390625 
Q 39.453125 6.390625 43.28125 13.890625 
Q 47.125 21.390625 47.125 36.375 
Q 47.125 51.421875 43.28125 58.90625 
Q 39.453125 66.40625 31.78125 66.40625 
z
M 31.78125 74.21875 
Q 44.046875 74.21875 50.515625 64.515625 
Q 56.984375 54.828125 56.984375 36.375 
Q 56.984375 17.96875 50.515625 8.265625 
Q 44.046875 -1.421875 31.78125 -1.421875 
Q 19.53125 -1.421875 13.0625 8.265625 
Q 6.59375 17.96875 6.59375 36.375 
Q 6.59375 54.828125 13.0625 64.515625 
Q 19.53125 74.21875 31.78125 74.21875 
z
" id="DejaVuSans-48"/>
      </defs>
      <g style="fill:#4d4d4d;" transform="translate(69.795008 307.963501)scale(0.12 -0.12)">
       <use xlink:href="#DejaVuSans-48"/>
      </g>
     </g>
    </g>
    <g id="xtick_2">
     <g id="line2d_3">
      <path clip-path="url(#p9718b5d6ee)" d="M 181.920947 293.895376 
L 181.920947 27.783376 
" style="fill:none;stroke:#d3d3d3;"/>
     </g>
     <g id="line2d_4">
      <path d="M 181.920947 293.895376 
" style="fill:none;stroke:#333333;stroke-width:1.5;"/>
      <g>
       <use style="fill:#333333;stroke:#333333;" x="181.920947" xlink:href="#mbcf7e7972c" y="293.895376"/>
      </g>
     </g>
     <g id="text_2">
      <!-- 200 -->
      <defs>
       <path d="M 19.1875 8.296875 
L 53.609375 8.296875 
L 53.609375 0 
L 7.328125 0 
L 7.328125 8.296875 
Q 12.9375 14.109375 22.625 23.890625 
Q 32.328125 33.6875 34.8125 36.53125 
Q 39.546875 41.84375 41.421875 45.53125 
Q 43.3125 49.21875 43.3125 52.78125 
Q 43.3125 58.59375 39.234375 62.25 
Q 35.15625 65.921875 28.609375 65.921875 
Q 23.96875 65.921875 18.8125 64.3125 
Q 13.671875 62.703125 7.8125 59.421875 
L 7.8125 69.390625 
Q 13.765625 71.78125 18.9375 73 
Q 24.125 74.21875 28.421875 74.21875 
Q 39.75 74.21875 46.484375 68.546875 
Q 53.21875 62.890625 53.21875 53.421875 
Q 53.21875 48.921875 51.53125 44.890625 
Q 49.859375 40.875 45.40625 35.40625 
Q 44.1875 33.984375 37.640625 27.21875 
Q 31.109375 20.453125 19.1875 8.296875 
z
" id="DejaVuSans-50"/>
      </defs>
      <g style="fill:#4d4d4d;" transform="translate(170.468447 307.963501)scale(0.12 -0.12)">
       <use xlink:href="#DejaVuSans-50"/>
       <use x="63.623047" xlink:href="#DejaVuSans-48"/>
       <use x="127.246094" xlink:href="#DejaVuSans-48"/>
      </g>
     </g>
    </g>
    <g id="xtick_3">
     <g id="line2d_5">
      <path clip-path="url(#p9718b5d6ee)" d="M 290.229386 293.895376 
L 290.229386 27.783376 
" style="fill:none;stroke:#d3d3d3;"/>
     </g>
     <g id="line2d_6">
      <path d="M 290.229386 293.895376 
" style="fill:none;stroke:#333333;stroke-width:1.5;"/>
      <g>
       <use style="fill:#333333;stroke:#333333;" x="290.229386" xlink:href="#mbcf7e7972c" y="293.895376"/>
      </g>
     </g>
     <g id="text_3">
      <!-- 400 -->
      <defs>
       <path d="M 37.796875 64.3125 
L 12.890625 25.390625 
L 37.796875 25.390625 
z
M 35.203125 72.90625 
L 47.609375 72.90625 
L 47.609375 25.390625 
L 58.015625 25.390625 
L 58.015625 17.1875 
L 47.609375 17.1875 
L 47.609375 0 
L 37.796875 0 
L 37.796875 17.1875 
L 4.890625 17.1875 
L 4.890625 26.703125 
z
" id="DejaVuSans-52"/>
      </defs>
      <g style="fill:#4d4d4d;" transform="translate(278.776886 307.963501)scale(0.12 -0.12)">
       <use xlink:href="#DejaVuSans-52"/>
       <use x="63.623047" xlink:href="#DejaVuSans-48"/>
       <use x="127.246094" xlink:href="#DejaVuSans-48"/>
      </g>
     </g>
    </g>
    <g id="xtick_4">
     <g id="line2d_7">
      <path clip-path="url(#p9718b5d6ee)" d="M 398.537825 293.895376 
L 398.537825 27.783376 
" style="fill:none;stroke:#d3d3d3;"/>
     </g>
     <g id="line2d_8">
      <path d="M 398.537825 293.895376 
" style="fill:none;stroke:#333333;stroke-width:1.5;"/>
      <g>
       <use style="fill:#333333;stroke:#333333;" x="398.537825" xlink:href="#mbcf7e7972c" y="293.895376"/>
      </g>
     </g>
     <g id="text_4">
      <!-- 600 -->
      <defs>
       <path d="M 33.015625 40.375 
Q 26.375 40.375 22.484375 35.828125 
Q 18.609375 31.296875 18.609375 23.390625 
Q 18.609375 15.53125 22.484375 10.953125 
Q 26.375 6.390625 33.015625 6.390625 
Q 39.65625 6.390625 43.53125 10.953125 
Q 47.40625 15.53125 47.40625 23.390625 
Q 47.40625 31.296875 43.53125 35.828125 
Q 39.65625 40.375 33.015625 40.375 
z
M 52.59375 71.296875 
L 52.59375 62.3125 
Q 48.875 64.0625 45.09375 64.984375 
Q 41.3125 65.921875 37.59375 65.921875 
Q 27.828125 65.921875 22.671875 59.328125 
Q 17.53125 52.734375 16.796875 39.40625 
Q 19.671875 43.65625 24.015625 45.921875 
Q 28.375 48.1875 33.59375 48.1875 
Q 44.578125 48.1875 50.953125 41.515625 
Q 57.328125 34.859375 57.328125 23.390625 
Q 57.328125 12.15625 50.6875 5.359375 
Q 44.046875 -1.421875 33.015625 -1.421875 
Q 20.359375 -1.421875 13.671875 8.265625 
Q 6.984375 17.96875 6.984375 36.375 
Q 6.984375 53.65625 15.1875 63.9375 
Q 23.390625 74.21875 37.203125 74.21875 
Q 40.921875 74.21875 44.703125 73.484375 
Q 48.484375 72.75 52.59375 71.296875 
z
" id="DejaVuSans-54"/>
      </defs>
      <g style="fill:#4d4d4d;" transform="translate(387.085325 307.963501)scale(0.12 -0.12)">
       <use xlink:href="#DejaVuSans-54"/>
       <use x="63.623047" xlink:href="#DejaVuSans-48"/>
       <use x="127.246094" xlink:href="#DejaVuSans-48"/>
      </g>
     </g>
    </g>
    <g id="xtick_5">
     <g id="line2d_9">
      <path clip-path="url(#p9718b5d6ee)" d="M 127.766728 293.895376 
L 127.766728 27.783376 
" style="fill:none;stroke:#ffffff;stroke-width:0.5;"/>
     </g>
     <g id="line2d_10">
      <path d="M 127.766728 293.895376 
" style="fill:none;stroke:#333333;stroke-width:1.5;"/>
     </g>
    </g>
    <g id="xtick_6">
     <g id="line2d_11">
      <path clip-path="url(#p9718b5d6ee)" d="M 236.075166 293.895376 
L 236.075166 27.783376 
" style="fill:none;stroke:#ffffff;stroke-width:0.5;"/>
     </g>
     <g id="line2d_12">
      <path d="M 236.075166 293.895376 
" style="fill:none;stroke:#333333;stroke-width:1.5;"/>
     </g>
    </g>
    <g id="xtick_7">
     <g id="line2d_13">
      <path clip-path="url(#p9718b5d6ee)" d="M 344.383605 293.895376 
L 344.383605 27.783376 
" style="fill:none;stroke:#ffffff;stroke-width:0.5;"/>
     </g>
     <g id="line2d_14">
      <path d="M 344.383605 293.895376 
" style="fill:none;stroke:#333333;stroke-width:1.5;"/>
     </g>
    </g>
    <g id="text_5">
     <!-- Number of Partitions -->
     <defs>
      <path d="M 9.8125 72.90625 
L 23.09375 72.90625 
L 55.421875 11.921875 
L 55.421875 72.90625 
L 64.984375 72.90625 
L 64.984375 0 
L 51.703125 0 
L 19.390625 60.984375 
L 19.390625 0 
L 9.8125 0 
z
" id="DejaVuSans-78"/>
      <path d="M 8.5 21.578125 
L 8.5 54.6875 
L 17.484375 54.6875 
L 17.484375 21.921875 
Q 17.484375 14.15625 20.5 10.265625 
Q 23.53125 6.390625 29.59375 6.390625 
Q 36.859375 6.390625 41.078125 11.03125 
Q 45.3125 15.671875 45.3125 23.6875 
L 45.3125 54.6875 
L 54.296875 54.6875 
L 54.296875 0 
L 45.3125 0 
L 45.3125 8.40625 
Q 42.046875 3.421875 37.71875 1 
Q 33.40625 -1.421875 27.6875 -1.421875 
Q 18.265625 -1.421875 13.375 4.4375 
Q 8.5 10.296875 8.5 21.578125 
z
M 31.109375 56 
z
" id="DejaVuSans-117"/>
      <path d="M 52 44.1875 
Q 55.375 50.25 60.0625 53.125 
Q 64.75 56 71.09375 56 
Q 79.640625 56 84.28125 50.015625 
Q 88.921875 44.046875 88.921875 33.015625 
L 88.921875 0 
L 79.890625 0 
L 79.890625 32.71875 
Q 79.890625 40.578125 77.09375 44.375 
Q 74.3125 48.1875 68.609375 48.1875 
Q 61.625 48.1875 57.5625 43.546875 
Q 53.515625 38.921875 53.515625 30.90625 
L 53.515625 0 
L 44.484375 0 
L 44.484375 32.71875 
Q 44.484375 40.625 41.703125 44.40625 
Q 38.921875 48.1875 33.109375 48.1875 
Q 26.21875 48.1875 22.15625 43.53125 
Q 18.109375 38.875 18.109375 30.90625 
L 18.109375 0 
L 9.078125 0 
L 9.078125 54.6875 
L 18.109375 54.6875 
L 18.109375 46.1875 
Q 21.1875 51.21875 25.484375 53.609375 
Q 29.78125 56 35.6875 56 
Q 41.65625 56 45.828125 52.96875 
Q 50 49.953125 52 44.1875 
z
" id="DejaVuSans-109"/>
      <path d="M 48.6875 27.296875 
Q 48.6875 37.203125 44.609375 42.84375 
Q 40.53125 48.484375 33.40625 48.484375 
Q 26.265625 48.484375 22.1875 42.84375 
Q 18.109375 37.203125 18.109375 27.296875 
Q 18.109375 17.390625 22.1875 11.75 
Q 26.265625 6.109375 33.40625 6.109375 
Q 40.53125 6.109375 44.609375 11.75 
Q 48.6875 17.390625 48.6875 27.296875 
z
M 18.109375 46.390625 
Q 20.953125 51.265625 25.265625 53.625 
Q 29.59375 56 35.59375 56 
Q 45.5625 56 51.78125 48.09375 
Q 58.015625 40.1875 58.015625 27.296875 
Q 58.015625 14.40625 51.78125 6.484375 
Q 45.5625 -1.421875 35.59375 -1.421875 
Q 29.59375 -1.421875 25.265625 0.953125 
Q 20.953125 3.328125 18.109375 8.203125 
L 18.109375 0 
L 9.078125 0 
L 9.078125 75.984375 
L 18.109375 75.984375 
z
" id="DejaVuSans-98"/>
      <path d="M 56.203125 29.59375 
L 56.203125 25.203125 
L 14.890625 25.203125 
Q 15.484375 15.921875 20.484375 11.0625 
Q 25.484375 6.203125 34.421875 6.203125 
Q 39.59375 6.203125 44.453125 7.46875 
Q 49.3125 8.734375 54.109375 11.28125 
L 54.109375 2.78125 
Q 49.265625 0.734375 44.1875 -0.34375 
Q 39.109375 -1.421875 33.890625 -1.421875 
Q 20.796875 -1.421875 13.15625 6.1875 
Q 5.515625 13.8125 5.515625 26.8125 
Q 5.515625 40.234375 12.765625 48.109375 
Q 20.015625 56 32.328125 56 
Q 43.359375 56 49.78125 48.890625 
Q 56.203125 41.796875 56.203125 29.59375 
z
M 47.21875 32.234375 
Q 47.125 39.59375 43.09375 43.984375 
Q 39.0625 48.390625 32.421875 48.390625 
Q 24.90625 48.390625 20.390625 44.140625 
Q 15.875 39.890625 15.1875 32.171875 
z
" id="DejaVuSans-101"/>
      <path d="M 41.109375 46.296875 
Q 39.59375 47.171875 37.8125 47.578125 
Q 36.03125 48 33.890625 48 
Q 26.265625 48 22.1875 43.046875 
Q 18.109375 38.09375 18.109375 28.8125 
L 18.109375 0 
L 9.078125 0 
L 9.078125 54.6875 
L 18.109375 54.6875 
L 18.109375 46.1875 
Q 20.953125 51.171875 25.484375 53.578125 
Q 30.03125 56 36.53125 56 
Q 37.453125 56 38.578125 55.875 
Q 39.703125 55.765625 41.0625 55.515625 
z
" id="DejaVuSans-114"/>
      <path id="DejaVuSans-32"/>
      <path d="M 30.609375 48.390625 
Q 23.390625 48.390625 19.1875 42.75 
Q 14.984375 37.109375 14.984375 27.296875 
Q 14.984375 17.484375 19.15625 11.84375 
Q 23.34375 6.203125 30.609375 6.203125 
Q 37.796875 6.203125 41.984375 11.859375 
Q 46.1875 17.53125 46.1875 27.296875 
Q 46.1875 37.015625 41.984375 42.703125 
Q 37.796875 48.390625 30.609375 48.390625 
z
M 30.609375 56 
Q 42.328125 56 49.015625 48.375 
Q 55.71875 40.765625 55.71875 27.296875 
Q 55.71875 13.875 49.015625 6.21875 
Q 42.328125 -1.421875 30.609375 -1.421875 
Q 18.84375 -1.421875 12.171875 6.21875 
Q 5.515625 13.875 5.515625 27.296875 
Q 5.515625 40.765625 12.171875 48.375 
Q 18.84375 56 30.609375 56 
z
" id="DejaVuSans-111"/>
      <path d="M 37.109375 75.984375 
L 37.109375 68.5 
L 28.515625 68.5 
Q 23.6875 68.5 21.796875 66.546875 
Q 19.921875 64.59375 19.921875 59.515625 
L 19.921875 54.6875 
L 34.71875 54.6875 
L 34.71875 47.703125 
L 19.921875 47.703125 
L 19.921875 0 
L 10.890625 0 
L 10.890625 47.703125 
L 2.296875 47.703125 
L 2.296875 54.6875 
L 10.890625 54.6875 
L 10.890625 58.5 
Q 10.890625 67.625 15.140625 71.796875 
Q 19.390625 75.984375 28.609375 75.984375 
z
" id="DejaVuSans-102"/>
      <path d="M 19.671875 64.796875 
L 19.671875 37.40625 
L 32.078125 37.40625 
Q 38.96875 37.40625 42.71875 40.96875 
Q 46.484375 44.53125 46.484375 51.125 
Q 46.484375 57.671875 42.71875 61.234375 
Q 38.96875 64.796875 32.078125 64.796875 
z
M 9.8125 72.90625 
L 32.078125 72.90625 
Q 44.34375 72.90625 50.609375 67.359375 
Q 56.890625 61.8125 56.890625 51.125 
Q 56.890625 40.328125 50.609375 34.8125 
Q 44.34375 29.296875 32.078125 29.296875 
L 19.671875 29.296875 
L 19.671875 0 
L 9.8125 0 
z
" id="DejaVuSans-80"/>
      <path d="M 34.28125 27.484375 
Q 23.390625 27.484375 19.1875 25 
Q 14.984375 22.515625 14.984375 16.5 
Q 14.984375 11.71875 18.140625 8.90625 
Q 21.296875 6.109375 26.703125 6.109375 
Q 34.1875 6.109375 38.703125 11.40625 
Q 43.21875 16.703125 43.21875 25.484375 
L 43.21875 27.484375 
z
M 52.203125 31.203125 
L 52.203125 0 
L 43.21875 0 
L 43.21875 8.296875 
Q 40.140625 3.328125 35.546875 0.953125 
Q 30.953125 -1.421875 24.3125 -1.421875 
Q 15.921875 -1.421875 10.953125 3.296875 
Q 6 8.015625 6 15.921875 
Q 6 25.140625 12.171875 29.828125 
Q 18.359375 34.515625 30.609375 34.515625 
L 43.21875 34.515625 
L 43.21875 35.40625 
Q 43.21875 41.609375 39.140625 45 
Q 35.0625 48.390625 27.6875 48.390625 
Q 23 48.390625 18.546875 47.265625 
Q 14.109375 46.140625 10.015625 43.890625 
L 10.015625 52.203125 
Q 14.9375 54.109375 19.578125 55.046875 
Q 24.21875 56 28.609375 56 
Q 40.484375 56 46.34375 49.84375 
Q 52.203125 43.703125 52.203125 31.203125 
z
" id="DejaVuSans-97"/>
      <path d="M 18.3125 70.21875 
L 18.3125 54.6875 
L 36.8125 54.6875 
L 36.8125 47.703125 
L 18.3125 47.703125 
L 18.3125 18.015625 
Q 18.3125 11.328125 20.140625 9.421875 
Q 21.96875 7.515625 27.59375 7.515625 
L 36.8125 7.515625 
L 36.8125 0 
L 27.59375 0 
Q 17.1875 0 13.234375 3.875 
Q 9.28125 7.765625 9.28125 18.015625 
L 9.28125 47.703125 
L 2.6875 47.703125 
L 2.6875 54.6875 
L 9.28125 54.6875 
L 9.28125 70.21875 
z
" id="DejaVuSans-116"/>
      <path d="M 9.421875 54.6875 
L 18.40625 54.6875 
L 18.40625 0 
L 9.421875 0 
z
M 9.421875 75.984375 
L 18.40625 75.984375 
L 18.40625 64.59375 
L 9.421875 64.59375 
z
" id="DejaVuSans-105"/>
      <path d="M 54.890625 33.015625 
L 54.890625 0 
L 45.90625 0 
L 45.90625 32.71875 
Q 45.90625 40.484375 42.875 44.328125 
Q 39.84375 48.1875 33.796875 48.1875 
Q 26.515625 48.1875 22.3125 43.546875 
Q 18.109375 38.921875 18.109375 30.90625 
L 18.109375 0 
L 9.078125 0 
L 9.078125 54.6875 
L 18.109375 54.6875 
L 18.109375 46.1875 
Q 21.34375 51.125 25.703125 53.5625 
Q 30.078125 56 35.796875 56 
Q 45.21875 56 50.046875 50.171875 
Q 54.890625 44.34375 54.890625 33.015625 
z
" id="DejaVuSans-110"/>
      <path d="M 44.28125 53.078125 
L 44.28125 44.578125 
Q 40.484375 46.53125 36.375 47.5 
Q 32.28125 48.484375 27.875 48.484375 
Q 21.1875 48.484375 17.84375 46.4375 
Q 14.5 44.390625 14.5 40.28125 
Q 14.5 37.15625 16.890625 35.375 
Q 19.28125 33.59375 26.515625 31.984375 
L 29.59375 31.296875 
Q 39.15625 29.25 43.1875 25.515625 
Q 47.21875 21.78125 47.21875 15.09375 
Q 47.21875 7.46875 41.1875 3.015625 
Q 35.15625 -1.421875 24.609375 -1.421875 
Q 20.21875 -1.421875 15.453125 -0.5625 
Q 10.6875 0.296875 5.421875 2 
L 5.421875 11.28125 
Q 10.40625 8.6875 15.234375 7.390625 
Q 20.0625 6.109375 24.8125 6.109375 
Q 31.15625 6.109375 34.5625 8.28125 
Q 37.984375 10.453125 37.984375 14.40625 
Q 37.984375 18.0625 35.515625 20.015625 
Q 33.0625 21.96875 24.703125 23.78125 
L 21.578125 24.515625 
Q 13.234375 26.265625 9.515625 29.90625 
Q 5.8125 33.546875 5.8125 39.890625 
Q 5.8125 47.609375 11.28125 51.796875 
Q 16.75 56 26.8125 56 
Q 31.78125 56 36.171875 55.265625 
Q 40.578125 54.546875 44.28125 53.078125 
z
" id="DejaVuSans-115"/>
     </defs>
     <g transform="translate(152.966797 326.256782)scale(0.15 -0.15)">
      <use xlink:href="#DejaVuSans-78"/>
      <use x="74.804688" xlink:href="#DejaVuSans-117"/>
      <use x="138.183594" xlink:href="#DejaVuSans-109"/>
      <use x="235.595703" xlink:href="#DejaVuSans-98"/>
      <use x="299.072266" xlink:href="#DejaVuSans-101"/>
      <use x="360.595703" xlink:href="#DejaVuSans-114"/>
      <use x="401.708984" xlink:href="#DejaVuSans-32"/>
      <use x="433.496094" xlink:href="#DejaVuSans-111"/>
      <use x="494.677734" xlink:href="#DejaVuSans-102"/>
      <use x="529.882812" xlink:href="#DejaVuSans-32"/>
      <use x="561.669922" xlink:href="#DejaVuSans-80"/>
      <use x="621.910156" xlink:href="#DejaVuSans-97"/>
      <use x="683.189453" xlink:href="#DejaVuSans-114"/>
      <use x="724.302734" xlink:href="#DejaVuSans-116"/>
      <use x="763.511719" xlink:href="#DejaVuSans-105"/>
      <use x="791.294922" xlink:href="#DejaVuSans-116"/>
      <use x="830.503906" xlink:href="#DejaVuSans-105"/>
      <use x="858.287109" xlink:href="#DejaVuSans-111"/>
      <use x="919.46875" xlink:href="#DejaVuSans-110"/>
      <use x="982.847656" xlink:href="#DejaVuSans-115"/>
     </g>
    </g>
   </g>
   <g id="matplotlib.axis_2">
    <g id="ytick_1">
     <g id="line2d_15">
      <path clip-path="url(#p9718b5d6ee)" d="M 57.785938 247.195993 
L 414.905938 247.195993 
" style="fill:none;stroke:#d3d3d3;"/>
     </g>
     <g id="line2d_16">
      <path d="M 57.785938 247.195993 
" style="fill:none;stroke:#333333;stroke-width:1.5;"/>
      <defs>
       <path d="M 0 0 
L -2.75 0 
" id="m1093f8a8b6" style="stroke:#333333;"/>
      </defs>
      <g>
       <use style="fill:#333333;stroke:#333333;" x="57.785938" xlink:href="#m1093f8a8b6" y="247.195993"/>
      </g>
     </g>
     <g id="text_6">
      <!-- 0.25 -->
      <defs>
       <path d="M 10.6875 12.40625 
L 21 12.40625 
L 21 0 
L 10.6875 0 
z
" id="DejaVuSans-46"/>
       <path d="M 10.796875 72.90625 
L 49.515625 72.90625 
L 49.515625 64.59375 
L 19.828125 64.59375 
L 19.828125 46.734375 
Q 21.96875 47.46875 24.109375 47.828125 
Q 26.265625 48.1875 28.421875 48.1875 
Q 40.625 48.1875 47.75 41.5 
Q 54.890625 34.8125 54.890625 23.390625 
Q 54.890625 11.625 47.5625 5.09375 
Q 40.234375 -1.421875 26.90625 -1.421875 
Q 22.3125 -1.421875 17.546875 -0.640625 
Q 12.796875 0.140625 7.71875 1.703125 
L 7.71875 11.625 
Q 12.109375 9.234375 16.796875 8.0625 
Q 21.484375 6.890625 26.703125 6.890625 
Q 35.15625 6.890625 40.078125 11.328125 
Q 45.015625 15.765625 45.015625 23.390625 
Q 45.015625 31 40.078125 35.4375 
Q 35.15625 39.890625 26.703125 39.890625 
Q 22.75 39.890625 18.8125 39.015625 
Q 14.890625 38.140625 10.796875 36.28125 
z
" id="DejaVuSans-53"/>
      </defs>
      <g style="fill:#4d4d4d;" transform="translate(26.117188 250.507243)scale(0.12 -0.12)">
       <use xlink:href="#DejaVuSans-48"/>
       <use x="63.623047" xlink:href="#DejaVuSans-46"/>
       <use x="95.410156" xlink:href="#DejaVuSans-50"/>
       <use x="159.033203" xlink:href="#DejaVuSans-53"/>
      </g>
     </g>
    </g>
    <g id="ytick_2">
     <g id="line2d_17">
      <path clip-path="url(#p9718b5d6ee)" d="M 57.785938 178.39005 
L 414.905938 178.39005 
" style="fill:none;stroke:#d3d3d3;"/>
     </g>
     <g id="line2d_18">
      <path d="M 57.785938 178.39005 
" style="fill:none;stroke:#333333;stroke-width:1.5;"/>
      <g>
       <use style="fill:#333333;stroke:#333333;" x="57.785938" xlink:href="#m1093f8a8b6" y="178.39005"/>
      </g>
     </g>
     <g id="text_7">
      <!-- 0.50 -->
      <g style="fill:#4d4d4d;" transform="translate(26.117188 181.7013)scale(0.12 -0.12)">
       <use xlink:href="#DejaVuSans-48"/>
       <use x="63.623047" xlink:href="#DejaVuSans-46"/>
       <use x="95.410156" xlink:href="#DejaVuSans-53"/>
       <use x="159.033203" xlink:href="#DejaVuSans-48"/>
      </g>
     </g>
    </g>
    <g id="ytick_3">
     <g id="line2d_19">
      <path clip-path="url(#p9718b5d6ee)" d="M 57.785938 109.584106 
L 414.905938 109.584106 
" style="fill:none;stroke:#d3d3d3;"/>
     </g>
     <g id="line2d_20">
      <path d="M 57.785938 109.584106 
" style="fill:none;stroke:#333333;stroke-width:1.5;"/>
      <g>
       <use style="fill:#333333;stroke:#333333;" x="57.785938" xlink:href="#m1093f8a8b6" y="109.584106"/>
      </g>
     </g>
     <g id="text_8">
      <!-- 0.75 -->
      <defs>
       <path d="M 8.203125 72.90625 
L 55.078125 72.90625 
L 55.078125 68.703125 
L 28.609375 0 
L 18.3125 0 
L 43.21875 64.59375 
L 8.203125 64.59375 
z
" id="DejaVuSans-55"/>
      </defs>
      <g style="fill:#4d4d4d;" transform="translate(26.117188 112.895356)scale(0.12 -0.12)">
       <use xlink:href="#DejaVuSans-48"/>
       <use x="63.623047" xlink:href="#DejaVuSans-46"/>
       <use x="95.410156" xlink:href="#DejaVuSans-55"/>
       <use x="159.033203" xlink:href="#DejaVuSans-53"/>
      </g>
     </g>
    </g>
    <g id="ytick_4">
     <g id="line2d_21">
      <path clip-path="url(#p9718b5d6ee)" d="M 57.785938 40.778162 
L 414.905938 40.778162 
" style="fill:none;stroke:#d3d3d3;"/>
     </g>
     <g id="line2d_22">
      <path d="M 57.785938 40.778162 
" style="fill:none;stroke:#333333;stroke-width:1.5;"/>
      <g>
       <use style="fill:#333333;stroke:#333333;" x="57.785938" xlink:href="#m1093f8a8b6" y="40.778162"/>
      </g>
     </g>
     <g id="text_9">
      <!-- 1 -->
      <defs>
       <path d="M 12.40625 8.296875 
L 28.515625 8.296875 
L 28.515625 63.921875 
L 10.984375 60.40625 
L 10.984375 69.390625 
L 28.421875 72.90625 
L 38.28125 72.90625 
L 38.28125 8.296875 
L 54.390625 8.296875 
L 54.390625 0 
L 12.40625 0 
z
" id="DejaVuSans-49"/>
      </defs>
      <g style="fill:#4d4d4d;" transform="translate(45.200938 44.089412)scale(0.12 -0.12)">
       <use xlink:href="#DejaVuSans-49"/>
      </g>
     </g>
    </g>
    <g id="ytick_5">
     <g id="line2d_23">
      <path clip-path="url(#p9718b5d6ee)" d="M 57.785938 281.598965 
L 414.905938 281.598965 
" style="fill:none;stroke:#ffffff;stroke-width:0.5;"/>
     </g>
     <g id="line2d_24">
      <path d="M 57.785938 281.598965 
" style="fill:none;stroke:#333333;stroke-width:1.5;"/>
     </g>
    </g>
    <g id="ytick_6">
     <g id="line2d_25">
      <path clip-path="url(#p9718b5d6ee)" d="M 57.785938 212.793021 
L 414.905938 212.793021 
" style="fill:none;stroke:#ffffff;stroke-width:0.5;"/>
     </g>
     <g id="line2d_26">
      <path d="M 57.785938 212.793021 
" style="fill:none;stroke:#333333;stroke-width:1.5;"/>
     </g>
    </g>
    <g id="ytick_7">
     <g id="line2d_27">
      <path clip-path="url(#p9718b5d6ee)" d="M 57.785938 143.987078 
L 414.905938 143.987078 
" style="fill:none;stroke:#ffffff;stroke-width:0.5;"/>
     </g>
     <g id="line2d_28">
      <path d="M 57.785938 143.987078 
" style="fill:none;stroke:#333333;stroke-width:1.5;"/>
     </g>
    </g>
    <g id="ytick_8">
     <g id="line2d_29">
      <path clip-path="url(#p9718b5d6ee)" d="M 57.785938 75.181134 
L 414.905938 75.181134 
" style="fill:none;stroke:#ffffff;stroke-width:0.5;"/>
     </g>
     <g id="line2d_30">
      <path d="M 57.785938 75.181134 
" style="fill:none;stroke:#333333;stroke-width:1.5;"/>
     </g>
    </g>
    <g id="text_10">
     <!-- Similarity score (SVCCA) -->
     <defs>
      <path d="M 53.515625 70.515625 
L 53.515625 60.890625 
Q 47.90625 63.578125 42.921875 64.890625 
Q 37.9375 66.21875 33.296875 66.21875 
Q 25.25 66.21875 20.875 63.09375 
Q 16.5 59.96875 16.5 54.203125 
Q 16.5 49.359375 19.40625 46.890625 
Q 22.3125 44.4375 30.421875 42.921875 
L 36.375 41.703125 
Q 47.40625 39.59375 52.65625 34.296875 
Q 57.90625 29 57.90625 20.125 
Q 57.90625 9.515625 50.796875 4.046875 
Q 43.703125 -1.421875 29.984375 -1.421875 
Q 24.8125 -1.421875 18.96875 -0.25 
Q 13.140625 0.921875 6.890625 3.21875 
L 6.890625 13.375 
Q 12.890625 10.015625 18.65625 8.296875 
Q 24.421875 6.59375 29.984375 6.59375 
Q 38.421875 6.59375 43.015625 9.90625 
Q 47.609375 13.234375 47.609375 19.390625 
Q 47.609375 24.75 44.3125 27.78125 
Q 41.015625 30.8125 33.5 32.328125 
L 27.484375 33.5 
Q 16.453125 35.6875 11.515625 40.375 
Q 6.59375 45.0625 6.59375 53.421875 
Q 6.59375 63.09375 13.40625 68.65625 
Q 20.21875 74.21875 32.171875 74.21875 
Q 37.3125 74.21875 42.625 73.28125 
Q 47.953125 72.359375 53.515625 70.515625 
z
" id="DejaVuSans-83"/>
      <path d="M 9.421875 75.984375 
L 18.40625 75.984375 
L 18.40625 0 
L 9.421875 0 
z
" id="DejaVuSans-108"/>
      <path d="M 32.171875 -5.078125 
Q 28.375 -14.84375 24.75 -17.8125 
Q 21.140625 -20.796875 15.09375 -20.796875 
L 7.90625 -20.796875 
L 7.90625 -13.28125 
L 13.1875 -13.28125 
Q 16.890625 -13.28125 18.9375 -11.515625 
Q 21 -9.765625 23.484375 -3.21875 
L 25.09375 0.875 
L 2.984375 54.6875 
L 12.5 54.6875 
L 29.59375 11.921875 
L 46.6875 54.6875 
L 56.203125 54.6875 
z
" id="DejaVuSans-121"/>
      <path d="M 48.78125 52.59375 
L 48.78125 44.1875 
Q 44.96875 46.296875 41.140625 47.34375 
Q 37.3125 48.390625 33.40625 48.390625 
Q 24.65625 48.390625 19.8125 42.84375 
Q 14.984375 37.3125 14.984375 27.296875 
Q 14.984375 17.28125 19.8125 11.734375 
Q 24.65625 6.203125 33.40625 6.203125 
Q 37.3125 6.203125 41.140625 7.25 
Q 44.96875 8.296875 48.78125 10.40625 
L 48.78125 2.09375 
Q 45.015625 0.34375 40.984375 -0.53125 
Q 36.96875 -1.421875 32.421875 -1.421875 
Q 20.0625 -1.421875 12.78125 6.34375 
Q 5.515625 14.109375 5.515625 27.296875 
Q 5.515625 40.671875 12.859375 48.328125 
Q 20.21875 56 33.015625 56 
Q 37.15625 56 41.109375 55.140625 
Q 45.0625 54.296875 48.78125 52.59375 
z
" id="DejaVuSans-99"/>
      <path d="M 31 75.875 
Q 24.46875 64.65625 21.28125 53.65625 
Q 18.109375 42.671875 18.109375 31.390625 
Q 18.109375 20.125 21.3125 9.0625 
Q 24.515625 -2 31 -13.1875 
L 23.1875 -13.1875 
Q 15.875 -1.703125 12.234375 9.375 
Q 8.59375 20.453125 8.59375 31.390625 
Q 8.59375 42.28125 12.203125 53.3125 
Q 15.828125 64.359375 23.1875 75.875 
z
" id="DejaVuSans-40"/>
      <path d="M 28.609375 0 
L 0.78125 72.90625 
L 11.078125 72.90625 
L 34.1875 11.53125 
L 57.328125 72.90625 
L 67.578125 72.90625 
L 39.796875 0 
z
" id="DejaVuSans-86"/>
      <path d="M 64.40625 67.28125 
L 64.40625 56.890625 
Q 59.421875 61.53125 53.78125 63.8125 
Q 48.140625 66.109375 41.796875 66.109375 
Q 29.296875 66.109375 22.65625 58.46875 
Q 16.015625 50.828125 16.015625 36.375 
Q 16.015625 21.96875 22.65625 14.328125 
Q 29.296875 6.6875 41.796875 6.6875 
Q 48.140625 6.6875 53.78125 8.984375 
Q 59.421875 11.28125 64.40625 15.921875 
L 64.40625 5.609375 
Q 59.234375 2.09375 53.4375 0.328125 
Q 47.65625 -1.421875 41.21875 -1.421875 
Q 24.65625 -1.421875 15.125 8.703125 
Q 5.609375 18.84375 5.609375 36.375 
Q 5.609375 53.953125 15.125 64.078125 
Q 24.65625 74.21875 41.21875 74.21875 
Q 47.75 74.21875 53.53125 72.484375 
Q 59.328125 70.75 64.40625 67.28125 
z
" id="DejaVuSans-67"/>
      <path d="M 34.1875 63.1875 
L 20.796875 26.90625 
L 47.609375 26.90625 
z
M 28.609375 72.90625 
L 39.796875 72.90625 
L 67.578125 0 
L 57.328125 0 
L 50.6875 18.703125 
L 17.828125 18.703125 
L 11.1875 0 
L 0.78125 0 
z
" id="DejaVuSans-65"/>
      <path d="M 8.015625 75.875 
L 15.828125 75.875 
Q 23.140625 64.359375 26.78125 53.3125 
Q 30.421875 42.28125 30.421875 31.390625 
Q 30.421875 20.453125 26.78125 9.375 
Q 23.140625 -1.703125 15.828125 -13.1875 
L 8.015625 -13.1875 
Q 14.5 -2 17.703125 9.0625 
Q 20.90625 20.125 20.90625 31.390625 
Q 20.90625 42.671875 17.703125 53.65625 
Q 14.5 64.65625 8.015625 75.875 
z
" id="DejaVuSans-41"/>
     </defs>
     <g transform="translate(18.597656 251.002782)rotate(-90)scale(0.15 -0.15)">
      <use xlink:href="#DejaVuSans-83"/>
      <use x="63.476562" xlink:href="#DejaVuSans-105"/>
      <use x="91.259766" xlink:href="#DejaVuSans-109"/>
      <use x="188.671875" xlink:href="#DejaVuSans-105"/>
      <use x="216.455078" xlink:href="#DejaVuSans-108"/>
      <use x="244.238281" xlink:href="#DejaVuSans-97"/>
      <use x="305.517578" xlink:href="#DejaVuSans-114"/>
      <use x="346.630859" xlink:href="#DejaVuSans-105"/>
      <use x="374.414062" xlink:href="#DejaVuSans-116"/>
      <use x="413.623047" xlink:href="#DejaVuSans-121"/>
      <use x="472.802734" xlink:href="#DejaVuSans-32"/>
      <use x="504.589844" xlink:href="#DejaVuSans-115"/>
      <use x="556.689453" xlink:href="#DejaVuSans-99"/>
      <use x="611.669922" xlink:href="#DejaVuSans-111"/>
      <use x="672.851562" xlink:href="#DejaVuSans-114"/>
      <use x="713.933594" xlink:href="#DejaVuSans-101"/>
      <use x="775.457031" xlink:href="#DejaVuSans-32"/>
      <use x="807.244141" xlink:href="#DejaVuSans-40"/>
      <use x="846.257812" xlink:href="#DejaVuSans-83"/>
      <use x="909.734375" xlink:href="#DejaVuSans-86"/>
      <use x="978.142578" xlink:href="#DejaVuSans-67"/>
      <use x="1047.966797" xlink:href="#DejaVuSans-67"/>
      <use x="1117.791016" xlink:href="#DejaVuSans-65"/>
      <use x="1186.199219" xlink:href="#DejaVuSans-41"/>
     </g>
    </g>
   </g>
   <g id="line2d_31">
    <path clip-path="url(#p9718b5d6ee)" d="M 74.15405 40.780084 
L 74.695593 41.231388 
L 75.237135 45.84183 
L 76.320219 42.58499 
L 79.02793 46.122966 
L 84.443352 53.008737 
L 89.858774 54.318576 
L 100.689618 60.923758 
L 111.520462 66.885201 
L 127.766728 71.139081 
L 181.920947 94.387738 
L 236.075166 114.96548 
L 290.229386 130.719875 
L 344.383605 150.731453 
L 398.537825 171.5249 
" style="fill:none;stroke:#1976d2;stroke-width:2.658681;"/>
   </g>
   <g id="line2d_32">
    <path clip-path="url(#p9718b5d6ee)" d="M 74.15405 40.780135 
L 74.695593 67.041202 
L 75.237135 91.857362 
L 76.320219 141.233931 
L 79.02793 248.196582 
L 84.443352 223.497579 
L 89.858774 214.592434 
L 100.689618 194.279761 
L 111.520462 176.911022 
L 127.766728 156.119536 
L 181.920947 128.93781 
L 236.075166 119.160692 
L 290.229386 118.648335 
L 344.383605 111.921477 
L 398.537825 105.914351 
" style="fill:none;stroke:#b3e5fc;stroke-width:2.658681;"/>
   </g>
   <g id="PathCollection_1">
    <path clip-path="url(#p9718b5d6ee)" d="M 74.15405 41.666362 
C 74.38908 41.666362 74.614516 41.572983 74.780707 41.406792 
C 74.946899 41.240601 75.040277 41.015165 75.040277 40.780135 
C 75.040277 40.545105 74.946899 40.319669 74.780707 40.153478 
C 74.614516 39.987286 74.38908 39.893908 74.15405 39.893908 
C 73.91902 39.893908 73.693585 39.987286 73.527393 40.153478 
C 73.361202 40.319669 73.267823 40.545105 73.267823 40.780135 
C 73.267823 41.015165 73.361202 41.240601 73.527393 41.406792 
C 73.693585 41.572983 73.91902 41.666362 74.15405 41.666362 
z
" style="fill:#a9a9a9;stroke:#a9a9a9;stroke-width:0.886227;"/>
    <path clip-path="url(#p9718b5d6ee)" d="M 74.695593 67.927429 
C 74.930623 67.927429 75.156058 67.83405 75.32225 67.667859 
C 75.488441 67.501667 75.581819 67.276232 75.581819 67.041202 
C 75.581819 66.806172 75.488441 66.580736 75.32225 66.414545 
C 75.156058 66.248353 74.930623 66.154975 74.695593 66.154975 
C 74.460562 66.154975 74.235127 66.248353 74.068935 66.414545 
C 73.902744 66.580736 73.809366 66.806172 73.809366 67.041202 
C 73.809366 67.276232 73.902744 67.501667 74.068935 67.667859 
C 74.235127 67.83405 74.460562 67.927429 74.695593 67.927429 
z
" style="fill:#a9a9a9;stroke:#a9a9a9;stroke-width:0.886227;"/>
    <path clip-path="url(#p9718b5d6ee)" d="M 75.237135 92.743589 
C 75.472165 92.743589 75.6976 92.65021 75.863792 92.484019 
C 76.029983 92.317827 76.123362 92.092392 76.123362 91.857362 
C 76.123362 91.622332 76.029983 91.396896 75.863792 91.230705 
C 75.6976 91.064513 75.472165 90.971135 75.237135 90.971135 
C 75.002105 90.971135 74.776669 91.064513 74.610478 91.230705 
C 74.444286 91.396896 74.350908 91.622332 74.350908 91.857362 
C 74.350908 92.092392 74.444286 92.317827 74.610478 92.484019 
C 74.776669 92.65021 75.002105 92.743589 75.237135 92.743589 
z
" style="fill:#a9a9a9;stroke:#a9a9a9;stroke-width:0.886227;"/>
    <path clip-path="url(#p9718b5d6ee)" d="M 76.320219 142.120158 
C 76.555249 142.120158 76.780685 142.02678 76.946876 141.860588 
C 77.113068 141.694397 77.206446 141.468961 77.206446 141.233931 
C 77.206446 140.998901 77.113068 140.773466 76.946876 140.607274 
C 76.780685 140.441083 76.555249 140.347704 76.320219 140.347704 
C 76.085189 140.347704 75.859753 140.441083 75.693562 140.607274 
C 75.527371 140.773466 75.433992 140.998901 75.433992 141.233931 
C 75.433992 141.468961 75.527371 141.694397 75.693562 141.860588 
C 75.859753 142.02678 76.085189 142.120158 76.320219 142.120158 
z
" style="fill:#a9a9a9;stroke:#a9a9a9;stroke-width:0.886227;"/>
    <path clip-path="url(#p9718b5d6ee)" d="M 79.02793 249.082809 
C 79.26296 249.082809 79.488396 248.989431 79.654587 248.823239 
C 79.820779 248.657048 79.914157 248.431612 79.914157 248.196582 
C 79.914157 247.961552 79.820779 247.736117 79.654587 247.569925 
C 79.488396 247.403734 79.26296 247.310355 79.02793 247.310355 
C 78.7929 247.310355 78.567464 247.403734 78.401273 247.569925 
C 78.235082 247.736117 78.141703 247.961552 78.141703 248.196582 
C 78.141703 248.431612 78.235082 248.657048 78.401273 248.823239 
C 78.567464 248.989431 78.7929 249.082809 79.02793 249.082809 
z
" style="fill:#a9a9a9;stroke:#a9a9a9;stroke-width:0.886227;"/>
    <path clip-path="url(#p9718b5d6ee)" d="M 84.443352 224.383806 
C 84.678382 224.383806 84.903818 224.290427 85.070009 224.124236 
C 85.2362 223.958045 85.329579 223.732609 85.329579 223.497579 
C 85.329579 223.262549 85.2362 223.037113 85.070009 222.870922 
C 84.903818 222.70473 84.678382 222.611352 84.443352 222.611352 
C 84.208322 222.611352 83.982886 222.70473 83.816695 222.870922 
C 83.650504 223.037113 83.557125 223.262549 83.557125 223.497579 
C 83.557125 223.732609 83.650504 223.958045 83.816695 224.124236 
C 83.982886 224.290427 84.208322 224.383806 84.443352 224.383806 
z
" style="fill:#a9a9a9;stroke:#a9a9a9;stroke-width:0.886227;"/>
    <path clip-path="url(#p9718b5d6ee)" d="M 89.858774 215.478661 
C 90.093804 215.478661 90.31924 215.385283 90.485431 215.219091 
C 90.651622 215.0529 90.745001 214.827464 90.745001 214.592434 
C 90.745001 214.357404 90.651622 214.131968 90.485431 213.965777 
C 90.31924 213.799586 90.093804 213.706207 89.858774 213.706207 
C 89.623744 213.706207 89.398308 213.799586 89.232117 213.965777 
C 89.065925 214.131968 88.972547 214.357404 88.972547 214.592434 
C 88.972547 214.827464 89.065925 215.0529 89.232117 215.219091 
C 89.398308 215.385283 89.623744 215.478661 89.858774 215.478661 
z
" style="fill:#a9a9a9;stroke:#a9a9a9;stroke-width:0.886227;"/>
    <path clip-path="url(#p9718b5d6ee)" d="M 100.689618 195.165988 
C 100.924648 195.165988 101.150084 195.072609 101.316275 194.906418 
C 101.482466 194.740227 101.575845 194.514791 101.575845 194.279761 
C 101.575845 194.044731 101.482466 193.819295 101.316275 193.653104 
C 101.150084 193.486913 100.924648 193.393534 100.689618 193.393534 
C 100.454588 193.393534 100.229152 193.486913 100.062961 193.653104 
C 99.896769 193.819295 99.803391 194.044731 99.803391 194.279761 
C 99.803391 194.514791 99.896769 194.740227 100.062961 194.906418 
C 100.229152 195.072609 100.454588 195.165988 100.689618 195.165988 
z
" style="fill:#a9a9a9;stroke:#a9a9a9;stroke-width:0.886227;"/>
    <path clip-path="url(#p9718b5d6ee)" d="M 111.520462 177.797249 
C 111.755492 177.797249 111.980927 177.703871 112.147119 177.537679 
C 112.31331 177.371488 112.406689 177.146052 112.406689 176.911022 
C 112.406689 176.675992 112.31331 176.450557 112.147119 176.284365 
C 111.980927 176.118174 111.755492 176.024795 111.520462 176.024795 
C 111.285432 176.024795 111.059996 176.118174 110.893805 176.284365 
C 110.727613 176.450557 110.634235 176.675992 110.634235 176.911022 
C 110.634235 177.146052 110.727613 177.371488 110.893805 177.537679 
C 111.059996 177.703871 111.285432 177.797249 111.520462 177.797249 
z
" style="fill:#a9a9a9;stroke:#a9a9a9;stroke-width:0.886227;"/>
    <path clip-path="url(#p9718b5d6ee)" d="M 127.766728 157.005763 
C 128.001758 157.005763 128.227193 156.912385 128.393385 156.746193 
C 128.559576 156.580002 128.652954 156.354567 128.652954 156.119536 
C 128.652954 155.884506 128.559576 155.659071 128.393385 155.492879 
C 128.227193 155.326688 128.001758 155.23331 127.766728 155.23331 
C 127.531697 155.23331 127.306262 155.326688 127.14007 155.492879 
C 126.973879 155.659071 126.880501 155.884506 126.880501 156.119536 
C 126.880501 156.354567 126.973879 156.580002 127.14007 156.746193 
C 127.306262 156.912385 127.531697 157.005763 127.766728 157.005763 
z
" style="fill:#a9a9a9;stroke:#a9a9a9;stroke-width:0.886227;"/>
    <path clip-path="url(#p9718b5d6ee)" d="M 181.920947 129.824037 
C 182.155977 129.824037 182.381413 129.730659 182.547604 129.564467 
C 182.713795 129.398276 182.807174 129.172841 182.807174 128.93781 
C 182.807174 128.70278 182.713795 128.477345 182.547604 128.311153 
C 182.381413 128.144962 182.155977 128.051583 181.920947 128.051583 
C 181.685917 128.051583 181.460481 128.144962 181.29429 128.311153 
C 181.128099 128.477345 181.03472 128.70278 181.03472 128.93781 
C 181.03472 129.172841 181.128099 129.398276 181.29429 129.564467 
C 181.460481 129.730659 181.685917 129.824037 181.920947 129.824037 
z
" style="fill:#a9a9a9;stroke:#a9a9a9;stroke-width:0.886227;"/>
    <path clip-path="url(#p9718b5d6ee)" d="M 236.075166 120.046919 
C 236.310197 120.046919 236.535632 119.953541 236.701823 119.787349 
C 236.868015 119.621158 236.961393 119.395723 236.961393 119.160692 
C 236.961393 118.925662 236.868015 118.700227 236.701823 118.534035 
C 236.535632 118.367844 236.310197 118.274465 236.075166 118.274465 
C 235.840136 118.274465 235.614701 118.367844 235.448509 118.534035 
C 235.282318 118.700227 235.188939 118.925662 235.188939 119.160692 
C 235.188939 119.395723 235.282318 119.621158 235.448509 119.787349 
C 235.614701 119.953541 235.840136 120.046919 236.075166 120.046919 
z
" style="fill:#a9a9a9;stroke:#a9a9a9;stroke-width:0.886227;"/>
    <path clip-path="url(#p9718b5d6ee)" d="M 290.229386 119.534562 
C 290.464416 119.534562 290.689851 119.441184 290.856043 119.274992 
C 291.022234 119.108801 291.115613 118.883365 291.115613 118.648335 
C 291.115613 118.413305 291.022234 118.187869 290.856043 118.021678 
C 290.689851 117.855487 290.464416 117.762108 290.229386 117.762108 
C 289.994356 117.762108 289.76892 117.855487 289.602729 118.021678 
C 289.436537 118.187869 289.343159 118.413305 289.343159 118.648335 
C 289.343159 118.883365 289.436537 119.108801 289.602729 119.274992 
C 289.76892 119.441184 289.994356 119.534562 290.229386 119.534562 
z
" style="fill:#a9a9a9;stroke:#a9a9a9;stroke-width:0.886227;"/>
    <path clip-path="url(#p9718b5d6ee)" d="M 344.383605 112.807704 
C 344.618635 112.807704 344.844071 112.714326 345.010262 112.548134 
C 345.176454 112.381943 345.269832 112.156507 345.269832 111.921477 
C 345.269832 111.686447 345.176454 111.461011 345.010262 111.29482 
C 344.844071 111.128629 344.618635 111.03525 344.383605 111.03525 
C 344.148575 111.03525 343.92314 111.128629 343.756948 111.29482 
C 343.590757 111.461011 343.497378 111.686447 343.497378 111.921477 
C 343.497378 112.156507 343.590757 112.381943 343.756948 112.548134 
C 343.92314 112.714326 344.148575 112.807704 344.383605 112.807704 
z
" style="fill:#a9a9a9;stroke:#a9a9a9;stroke-width:0.886227;"/>
    <path clip-path="url(#p9718b5d6ee)" d="M 398.537825 106.800577 
C 398.772855 106.800577 398.99829 106.707199 399.164482 106.541008 
C 399.330673 106.374816 399.424052 106.149381 399.424052 105.914351 
C 399.424052 105.67932 399.330673 105.453885 399.164482 105.287693 
C 398.99829 105.121502 398.772855 105.028124 398.537825 105.028124 
C 398.302795 105.028124 398.077359 105.121502 397.911168 105.287693 
C 397.744976 105.453885 397.651598 105.67932 397.651598 105.914351 
C 397.651598 106.149381 397.744976 106.374816 397.911168 106.541008 
C 398.077359 106.707199 398.302795 106.800577 398.537825 106.800577 
z
" style="fill:#a9a9a9;stroke:#a9a9a9;stroke-width:0.886227;"/>
    <path clip-path="url(#p9718b5d6ee)" d="M 74.15405 41.66631 
C 74.38908 41.66631 74.614516 41.572932 74.780707 41.406741 
C 74.946899 41.240549 75.040277 41.015114 75.040277 40.780084 
C 75.040277 40.545053 74.946899 40.319618 74.780707 40.153426 
C 74.614516 39.987235 74.38908 39.893857 74.15405 39.893857 
C 73.91902 39.893857 73.693585 39.987235 73.527393 40.153426 
C 73.361202 40.319618 73.267823 40.545053 73.267823 40.780084 
C 73.267823 41.015114 73.361202 41.240549 73.527393 41.406741 
C 73.693585 41.572932 73.91902 41.66631 74.15405 41.66631 
z
" style="fill:#a9a9a9;stroke:#a9a9a9;stroke-width:0.886227;"/>
    <path clip-path="url(#p9718b5d6ee)" d="M 74.695593 42.117615 
C 74.930623 42.117615 75.156058 42.024236 75.32225 41.858045 
C 75.488441 41.691854 75.581819 41.466418 75.581819 41.231388 
C 75.581819 40.996358 75.488441 40.770922 75.32225 40.604731 
C 75.156058 40.438539 74.930623 40.345161 74.695593 40.345161 
C 74.460562 40.345161 74.235127 40.438539 74.068935 40.604731 
C 73.902744 40.770922 73.809366 40.996358 73.809366 41.231388 
C 73.809366 41.466418 73.902744 41.691854 74.068935 41.858045 
C 74.235127 42.024236 74.460562 42.117615 74.695593 42.117615 
z
" style="fill:#a9a9a9;stroke:#a9a9a9;stroke-width:0.886227;"/>
    <path clip-path="url(#p9718b5d6ee)" d="M 75.237135 46.728057 
C 75.472165 46.728057 75.6976 46.634679 75.863792 46.468487 
C 76.029983 46.302296 76.123362 46.07686 76.123362 45.84183 
C 76.123362 45.6068 76.029983 45.381365 75.863792 45.215173 
C 75.6976 45.048982 75.472165 44.955603 75.237135 44.955603 
C 75.002105 44.955603 74.776669 45.048982 74.610478 45.215173 
C 74.444286 45.381365 74.350908 45.6068 74.350908 45.84183 
C 74.350908 46.07686 74.444286 46.302296 74.610478 46.468487 
C 74.776669 46.634679 75.002105 46.728057 75.237135 46.728057 
z
" style="fill:#a9a9a9;stroke:#a9a9a9;stroke-width:0.886227;"/>
    <path clip-path="url(#p9718b5d6ee)" d="M 76.320219 43.471217 
C 76.555249 43.471217 76.780685 43.377839 76.946876 43.211647 
C 77.113068 43.045456 77.206446 42.82002 77.206446 42.58499 
C 77.206446 42.34996 77.113068 42.124524 76.946876 41.958333 
C 76.780685 41.792142 76.555249 41.698763 76.320219 41.698763 
C 76.085189 41.698763 75.859753 41.792142 75.693562 41.958333 
C 75.527371 42.124524 75.433992 42.34996 75.433992 42.58499 
C 75.433992 42.82002 75.527371 43.045456 75.693562 43.211647 
C 75.859753 43.377839 76.085189 43.471217 76.320219 43.471217 
z
" style="fill:#a9a9a9;stroke:#a9a9a9;stroke-width:0.886227;"/>
    <path clip-path="url(#p9718b5d6ee)" d="M 79.02793 47.009193 
C 79.26296 47.009193 79.488396 46.915815 79.654587 46.749623 
C 79.820779 46.583432 79.914157 46.357996 79.914157 46.122966 
C 79.914157 45.887936 79.820779 45.6625 79.654587 45.496309 
C 79.488396 45.330118 79.26296 45.236739 79.02793 45.236739 
C 78.7929 45.236739 78.567464 45.330118 78.401273 45.496309 
C 78.235082 45.6625 78.141703 45.887936 78.141703 46.122966 
C 78.141703 46.357996 78.235082 46.583432 78.401273 46.749623 
C 78.567464 46.915815 78.7929 47.009193 79.02793 47.009193 
z
" style="fill:#a9a9a9;stroke:#a9a9a9;stroke-width:0.886227;"/>
    <path clip-path="url(#p9718b5d6ee)" d="M 84.443352 53.894964 
C 84.678382 53.894964 84.903818 53.801586 85.070009 53.635394 
C 85.2362 53.469203 85.329579 53.243767 85.329579 53.008737 
C 85.329579 52.773707 85.2362 52.548272 85.070009 52.38208 
C 84.903818 52.215889 84.678382 52.12251 84.443352 52.12251 
C 84.208322 52.12251 83.982886 52.215889 83.816695 52.38208 
C 83.650504 52.548272 83.557125 52.773707 83.557125 53.008737 
C 83.557125 53.243767 83.650504 53.469203 83.816695 53.635394 
C 83.982886 53.801586 84.208322 53.894964 84.443352 53.894964 
z
" style="fill:#a9a9a9;stroke:#a9a9a9;stroke-width:0.886227;"/>
    <path clip-path="url(#p9718b5d6ee)" d="M 89.858774 55.204803 
C 90.093804 55.204803 90.31924 55.111424 90.485431 54.945233 
C 90.651622 54.779041 90.745001 54.553606 90.745001 54.318576 
C 90.745001 54.083546 90.651622 53.85811 90.485431 53.691919 
C 90.31924 53.525727 90.093804 53.432349 89.858774 53.432349 
C 89.623744 53.432349 89.398308 53.525727 89.232117 53.691919 
C 89.065925 53.85811 88.972547 54.083546 88.972547 54.318576 
C 88.972547 54.553606 89.065925 54.779041 89.232117 54.945233 
C 89.398308 55.111424 89.623744 55.204803 89.858774 55.204803 
z
" style="fill:#a9a9a9;stroke:#a9a9a9;stroke-width:0.886227;"/>
    <path clip-path="url(#p9718b5d6ee)" d="M 100.689618 61.809985 
C 100.924648 61.809985 101.150084 61.716606 101.316275 61.550415 
C 101.482466 61.384224 101.575845 61.158788 101.575845 60.923758 
C 101.575845 60.688728 101.482466 60.463292 101.316275 60.297101 
C 101.150084 60.130909 100.924648 60.037531 100.689618 60.037531 
C 100.454588 60.037531 100.229152 60.130909 100.062961 60.297101 
C 99.896769 60.463292 99.803391 60.688728 99.803391 60.923758 
C 99.803391 61.158788 99.896769 61.384224 100.062961 61.550415 
C 100.229152 61.716606 100.454588 61.809985 100.689618 61.809985 
z
" style="fill:#a9a9a9;stroke:#a9a9a9;stroke-width:0.886227;"/>
    <path clip-path="url(#p9718b5d6ee)" d="M 111.520462 67.771428 
C 111.755492 67.771428 111.980927 67.67805 112.147119 67.511858 
C 112.31331 67.345667 112.406689 67.120231 112.406689 66.885201 
C 112.406689 66.650171 112.31331 66.424736 112.147119 66.258544 
C 111.980927 66.092353 111.755492 65.998974 111.520462 65.998974 
C 111.285432 65.998974 111.059996 66.092353 110.893805 66.258544 
C 110.727613 66.424736 110.634235 66.650171 110.634235 66.885201 
C 110.634235 67.120231 110.727613 67.345667 110.893805 67.511858 
C 111.059996 67.67805 111.285432 67.771428 111.520462 67.771428 
z
" style="fill:#a9a9a9;stroke:#a9a9a9;stroke-width:0.886227;"/>
    <path clip-path="url(#p9718b5d6ee)" d="M 127.766728 72.025308 
C 128.001758 72.025308 128.227193 71.93193 128.393385 71.765738 
C 128.559576 71.599547 128.652954 71.374111 128.652954 71.139081 
C 128.652954 70.904051 128.559576 70.678616 128.393385 70.512424 
C 128.227193 70.346233 128.001758 70.252854 127.766728 70.252854 
C 127.531697 70.252854 127.306262 70.346233 127.14007 70.512424 
C 126.973879 70.678616 126.880501 70.904051 126.880501 71.139081 
C 126.880501 71.374111 126.973879 71.599547 127.14007 71.765738 
C 127.306262 71.93193 127.531697 72.025308 127.766728 72.025308 
z
" style="fill:#a9a9a9;stroke:#a9a9a9;stroke-width:0.886227;"/>
    <path clip-path="url(#p9718b5d6ee)" d="M 181.920947 95.273965 
C 182.155977 95.273965 182.381413 95.180587 182.547604 95.014395 
C 182.713795 94.848204 182.807174 94.622768 182.807174 94.387738 
C 182.807174 94.152708 182.713795 93.927273 182.547604 93.761081 
C 182.381413 93.59489 182.155977 93.501511 181.920947 93.501511 
C 181.685917 93.501511 181.460481 93.59489 181.29429 93.761081 
C 181.128099 93.927273 181.03472 94.152708 181.03472 94.387738 
C 181.03472 94.622768 181.128099 94.848204 181.29429 95.014395 
C 181.460481 95.180587 181.685917 95.273965 181.920947 95.273965 
z
" style="fill:#a9a9a9;stroke:#a9a9a9;stroke-width:0.886227;"/>
    <path clip-path="url(#p9718b5d6ee)" d="M 236.075166 115.851707 
C 236.310197 115.851707 236.535632 115.758328 236.701823 115.592137 
C 236.868015 115.425946 236.961393 115.20051 236.961393 114.96548 
C 236.961393 114.73045 236.868015 114.505014 236.701823 114.338823 
C 236.535632 114.172631 236.310197 114.079253 236.075166 114.079253 
C 235.840136 114.079253 235.614701 114.172631 235.448509 114.338823 
C 235.282318 114.505014 235.188939 114.73045 235.188939 114.96548 
C 235.188939 115.20051 235.282318 115.425946 235.448509 115.592137 
C 235.614701 115.758328 235.840136 115.851707 236.075166 115.851707 
z
" style="fill:#a9a9a9;stroke:#a9a9a9;stroke-width:0.886227;"/>
    <path clip-path="url(#p9718b5d6ee)" d="M 290.229386 131.606102 
C 290.464416 131.606102 290.689851 131.512723 290.856043 131.346532 
C 291.022234 131.180341 291.115613 130.954905 291.115613 130.719875 
C 291.115613 130.484845 291.022234 130.259409 290.856043 130.093218 
C 290.689851 129.927027 290.464416 129.833648 290.229386 129.833648 
C 289.994356 129.833648 289.76892 129.927027 289.602729 130.093218 
C 289.436537 130.259409 289.343159 130.484845 289.343159 130.719875 
C 289.343159 130.954905 289.436537 131.180341 289.602729 131.346532 
C 289.76892 131.512723 289.994356 131.606102 290.229386 131.606102 
z
" style="fill:#a9a9a9;stroke:#a9a9a9;stroke-width:0.886227;"/>
    <path clip-path="url(#p9718b5d6ee)" d="M 344.383605 151.61768 
C 344.618635 151.61768 344.844071 151.524301 345.010262 151.35811 
C 345.176454 151.191918 345.269832 150.966483 345.269832 150.731453 
C 345.269832 150.496423 345.176454 150.270987 345.010262 150.104796 
C 344.844071 149.938604 344.618635 149.845226 344.383605 149.845226 
C 344.148575 149.845226 343.92314 149.938604 343.756948 150.104796 
C 343.590757 150.270987 343.497378 150.496423 343.497378 150.731453 
C 343.497378 150.966483 343.590757 151.191918 343.756948 151.35811 
C 343.92314 151.524301 344.148575 151.61768 344.383605 151.61768 
z
" style="fill:#a9a9a9;stroke:#a9a9a9;stroke-width:0.886227;"/>
    <path clip-path="url(#p9718b5d6ee)" d="M 398.537825 172.411127 
C 398.772855 172.411127 398.99829 172.317749 399.164482 172.151558 
C 399.330673 171.985366 399.424052 171.759931 399.424052 171.5249 
C 399.424052 171.28987 399.330673 171.064435 399.164482 170.898243 
C 398.99829 170.732052 398.772855 170.638674 398.537825 170.638674 
C 398.302795 170.638674 398.077359 170.732052 397.911168 170.898243 
C 397.744976 171.064435 397.651598 171.28987 397.651598 171.5249 
C 397.651598 171.759931 397.744976 171.985366 397.911168 172.151558 
C 398.077359 172.317749 398.302795 172.411127 398.537825 172.411127 
z
" style="fill:#a9a9a9;stroke:#a9a9a9;stroke-width:0.886227;"/>
   </g>
   <g id="patch_3">
    <path d="M 57.785938 293.895376 
L 57.785938 27.783376 
" style="fill:none;stroke:#808080;stroke-linecap:square;stroke-linejoin:miter;"/>
   </g>
   <g id="patch_4">
    <path d="M 57.785938 293.895376 
L 414.905938 293.895376 
" style="fill:none;stroke:#808080;stroke-linecap:square;stroke-linejoin:miter;"/>
   </g>
   <g id="LineCollection_1">
    <path clip-path="url(#p9718b5d6ee)" d="M 74.018665 40.780259 
L 74.289436 40.780259 
" style="fill:none;stroke:#a9a9a9;stroke-width:0.886227;"/>
    <path clip-path="url(#p9718b5d6ee)" d="M 74.560207 67.524566 
L 74.830978 67.524566 
" style="fill:none;stroke:#a9a9a9;stroke-width:0.886227;"/>
    <path clip-path="url(#p9718b5d6ee)" d="M 75.101749 92.924655 
L 75.37252 92.924655 
" style="fill:none;stroke:#a9a9a9;stroke-width:0.886227;"/>
    <path clip-path="url(#p9718b5d6ee)" d="M 76.184834 142.075534 
L 76.455605 142.075534 
" style="fill:none;stroke:#a9a9a9;stroke-width:0.886227;"/>
    <path clip-path="url(#p9718b5d6ee)" d="M 78.892545 251.252917 
L 79.163316 251.252917 
" style="fill:none;stroke:#a9a9a9;stroke-width:0.886227;"/>
    <path clip-path="url(#p9718b5d6ee)" d="M 84.307966 224.934328 
L 84.578738 224.934328 
" style="fill:none;stroke:#a9a9a9;stroke-width:0.886227;"/>
    <path clip-path="url(#p9718b5d6ee)" d="M 89.723388 216.490407 
L 89.99416 216.490407 
" style="fill:none;stroke:#a9a9a9;stroke-width:0.886227;"/>
    <path clip-path="url(#p9718b5d6ee)" d="M 100.554232 197.833177 
L 100.825003 197.833177 
" style="fill:none;stroke:#a9a9a9;stroke-width:0.886227;"/>
    <path clip-path="url(#p9718b5d6ee)" d="M 111.385076 179.720745 
L 111.655847 179.720745 
" style="fill:none;stroke:#a9a9a9;stroke-width:0.886227;"/>
    <path clip-path="url(#p9718b5d6ee)" d="M 127.631342 160.817553 
L 127.902113 160.817553 
" style="fill:none;stroke:#a9a9a9;stroke-width:0.886227;"/>
    <path clip-path="url(#p9718b5d6ee)" d="M 181.785561 134.057323 
L 182.056333 134.057323 
" style="fill:none;stroke:#a9a9a9;stroke-width:0.886227;"/>
    <path clip-path="url(#p9718b5d6ee)" d="M 235.939781 126.619554 
L 236.210552 126.619554 
" style="fill:none;stroke:#a9a9a9;stroke-width:0.886227;"/>
    <path clip-path="url(#p9718b5d6ee)" d="M 290.094 126.634088 
L 290.364771 126.634088 
" style="fill:none;stroke:#a9a9a9;stroke-width:0.886227;"/>
    <path clip-path="url(#p9718b5d6ee)" d="M 344.24822 117.940039 
L 344.518991 117.940039 
" style="fill:none;stroke:#a9a9a9;stroke-width:0.886227;"/>
    <path clip-path="url(#p9718b5d6ee)" d="M 398.402439 112.376327 
L 398.67321 112.376327 
" style="fill:none;stroke:#a9a9a9;stroke-width:0.886227;"/>
    <path clip-path="url(#p9718b5d6ee)" d="M 74.018665 40.780129 
L 74.289436 40.780129 
" style="fill:none;stroke:#a9a9a9;stroke-width:0.886227;"/>
    <path clip-path="url(#p9718b5d6ee)" d="M 74.560207 41.362907 
L 74.830978 41.362907 
" style="fill:none;stroke:#a9a9a9;stroke-width:0.886227;"/>
    <path clip-path="url(#p9718b5d6ee)" d="M 75.101749 51.804285 
L 75.37252 51.804285 
" style="fill:none;stroke:#a9a9a9;stroke-width:0.886227;"/>
    <path clip-path="url(#p9718b5d6ee)" d="M 76.184834 42.960931 
L 76.455605 42.960931 
" style="fill:none;stroke:#a9a9a9;stroke-width:0.886227;"/>
    <path clip-path="url(#p9718b5d6ee)" d="M 78.892545 48.455867 
L 79.163316 48.455867 
" style="fill:none;stroke:#a9a9a9;stroke-width:0.886227;"/>
    <path clip-path="url(#p9718b5d6ee)" d="M 84.307966 60.102702 
L 84.578738 60.102702 
" style="fill:none;stroke:#a9a9a9;stroke-width:0.886227;"/>
    <path clip-path="url(#p9718b5d6ee)" d="M 89.723388 59.683259 
L 89.99416 59.683259 
" style="fill:none;stroke:#a9a9a9;stroke-width:0.886227;"/>
    <path clip-path="url(#p9718b5d6ee)" d="M 100.554232 66.435739 
L 100.825003 66.435739 
" style="fill:none;stroke:#a9a9a9;stroke-width:0.886227;"/>
    <path clip-path="url(#p9718b5d6ee)" d="M 111.385076 72.698502 
L 111.655847 72.698502 
" style="fill:none;stroke:#a9a9a9;stroke-width:0.886227;"/>
    <path clip-path="url(#p9718b5d6ee)" d="M 127.631342 74.150749 
L 127.902113 74.150749 
" style="fill:none;stroke:#a9a9a9;stroke-width:0.886227;"/>
    <path clip-path="url(#p9718b5d6ee)" d="M 181.785561 98.815155 
L 182.056333 98.815155 
" style="fill:none;stroke:#a9a9a9;stroke-width:0.886227;"/>
    <path clip-path="url(#p9718b5d6ee)" d="M 235.939781 119.412536 
L 236.210552 119.412536 
" style="fill:none;stroke:#a9a9a9;stroke-width:0.886227;"/>
    <path clip-path="url(#p9718b5d6ee)" d="M 290.094 135.388937 
L 290.364771 135.388937 
" style="fill:none;stroke:#a9a9a9;stroke-width:0.886227;"/>
    <path clip-path="url(#p9718b5d6ee)" d="M 344.24822 154.902774 
L 344.518991 154.902774 
" style="fill:none;stroke:#a9a9a9;stroke-width:0.886227;"/>
    <path clip-path="url(#p9718b5d6ee)" d="M 398.402439 175.429287 
L 398.67321 175.429287 
" style="fill:none;stroke:#a9a9a9;stroke-width:0.886227;"/>
    <path clip-path="url(#p9718b5d6ee)" d="M 74.018665 40.780011 
L 74.289436 40.780011 
" style="fill:none;stroke:#a9a9a9;stroke-width:0.886227;"/>
    <path clip-path="url(#p9718b5d6ee)" d="M 74.560207 66.557837 
L 74.830978 66.557837 
" style="fill:none;stroke:#a9a9a9;stroke-width:0.886227;"/>
    <path clip-path="url(#p9718b5d6ee)" d="M 75.101749 90.790069 
L 75.37252 90.790069 
" style="fill:none;stroke:#a9a9a9;stroke-width:0.886227;"/>
    <path clip-path="url(#p9718b5d6ee)" d="M 76.184834 140.392329 
L 76.455605 140.392329 
" style="fill:none;stroke:#a9a9a9;stroke-width:0.886227;"/>
    <path clip-path="url(#p9718b5d6ee)" d="M 78.892545 245.140248 
L 79.163316 245.140248 
" style="fill:none;stroke:#a9a9a9;stroke-width:0.886227;"/>
    <path clip-path="url(#p9718b5d6ee)" d="M 84.307966 222.06083 
L 84.578738 222.06083 
" style="fill:none;stroke:#a9a9a9;stroke-width:0.886227;"/>
    <path clip-path="url(#p9718b5d6ee)" d="M 89.723388 212.694461 
L 89.99416 212.694461 
" style="fill:none;stroke:#a9a9a9;stroke-width:0.886227;"/>
    <path clip-path="url(#p9718b5d6ee)" d="M 100.554232 190.726345 
L 100.825003 190.726345 
" style="fill:none;stroke:#a9a9a9;stroke-width:0.886227;"/>
    <path clip-path="url(#p9718b5d6ee)" d="M 111.385076 174.101299 
L 111.655847 174.101299 
" style="fill:none;stroke:#a9a9a9;stroke-width:0.886227;"/>
    <path clip-path="url(#p9718b5d6ee)" d="M 127.631342 151.42152 
L 127.902113 151.42152 
" style="fill:none;stroke:#a9a9a9;stroke-width:0.886227;"/>
    <path clip-path="url(#p9718b5d6ee)" d="M 181.785561 123.818298 
L 182.056333 123.818298 
" style="fill:none;stroke:#a9a9a9;stroke-width:0.886227;"/>
    <path clip-path="url(#p9718b5d6ee)" d="M 235.939781 111.70183 
L 236.210552 111.70183 
" style="fill:none;stroke:#a9a9a9;stroke-width:0.886227;"/>
    <path clip-path="url(#p9718b5d6ee)" d="M 290.094 110.662583 
L 290.364771 110.662583 
" style="fill:none;stroke:#a9a9a9;stroke-width:0.886227;"/>
    <path clip-path="url(#p9718b5d6ee)" d="M 344.24822 105.902916 
L 344.518991 105.902916 
" style="fill:none;stroke:#a9a9a9;stroke-width:0.886227;"/>
    <path clip-path="url(#p9718b5d6ee)" d="M 398.402439 99.452374 
L 398.67321 99.452374 
" style="fill:none;stroke:#a9a9a9;stroke-width:0.886227;"/>
    <path clip-path="url(#p9718b5d6ee)" d="M 74.018665 40.780038 
L 74.289436 40.780038 
" style="fill:none;stroke:#a9a9a9;stroke-width:0.886227;"/>
    <path clip-path="url(#p9718b5d6ee)" d="M 74.560207 41.099869 
L 74.830978 41.099869 
" style="fill:none;stroke:#a9a9a9;stroke-width:0.886227;"/>
    <path clip-path="url(#p9718b5d6ee)" d="M 75.101749 39.879376 
L 75.37252 39.879376 
" style="fill:none;stroke:#a9a9a9;stroke-width:0.886227;"/>
    <path clip-path="url(#p9718b5d6ee)" d="M 76.184834 42.209049 
L 76.455605 42.209049 
" style="fill:none;stroke:#a9a9a9;stroke-width:0.886227;"/>
    <path clip-path="url(#p9718b5d6ee)" d="M 78.892545 43.790065 
L 79.163316 43.790065 
" style="fill:none;stroke:#a9a9a9;stroke-width:0.886227;"/>
    <path clip-path="url(#p9718b5d6ee)" d="M 84.307966 45.914773 
L 84.578738 45.914773 
" style="fill:none;stroke:#a9a9a9;stroke-width:0.886227;"/>
    <path clip-path="url(#p9718b5d6ee)" d="M 89.723388 48.953892 
L 89.99416 48.953892 
" style="fill:none;stroke:#a9a9a9;stroke-width:0.886227;"/>
    <path clip-path="url(#p9718b5d6ee)" d="M 100.554232 55.411777 
L 100.825003 55.411777 
" style="fill:none;stroke:#a9a9a9;stroke-width:0.886227;"/>
    <path clip-path="url(#p9718b5d6ee)" d="M 111.385076 61.071901 
L 111.655847 61.071901 
" style="fill:none;stroke:#a9a9a9;stroke-width:0.886227;"/>
    <path clip-path="url(#p9718b5d6ee)" d="M 127.631342 68.127414 
L 127.902113 68.127414 
" style="fill:none;stroke:#a9a9a9;stroke-width:0.886227;"/>
    <path clip-path="url(#p9718b5d6ee)" d="M 181.785561 89.960322 
L 182.056333 89.960322 
" style="fill:none;stroke:#a9a9a9;stroke-width:0.886227;"/>
    <path clip-path="url(#p9718b5d6ee)" d="M 235.939781 110.518424 
L 236.210552 110.518424 
" style="fill:none;stroke:#a9a9a9;stroke-width:0.886227;"/>
    <path clip-path="url(#p9718b5d6ee)" d="M 290.094 126.050813 
L 290.364771 126.050813 
" style="fill:none;stroke:#a9a9a9;stroke-width:0.886227;"/>
    <path clip-path="url(#p9718b5d6ee)" d="M 344.24822 146.560131 
L 344.518991 146.560131 
" style="fill:none;stroke:#a9a9a9;stroke-width:0.886227;"/>
    <path clip-path="url(#p9718b5d6ee)" d="M 398.402439 167.620514 
L 398.67321 167.620514 
" style="fill:none;stroke:#a9a9a9;stroke-width:0.886227;"/>
    <path clip-path="url(#p9718b5d6ee)" d="M 74.15405 40.780011 
L 74.15405 40.780259 
" style="fill:none;stroke:#a9a9a9;stroke-width:0.886227;"/>
    <path clip-path="url(#p9718b5d6ee)" d="M 74.695593 66.557837 
L 74.695593 67.524566 
" style="fill:none;stroke:#a9a9a9;stroke-width:0.886227;"/>
    <path clip-path="url(#p9718b5d6ee)" d="M 75.237135 90.790069 
L 75.237135 92.924655 
" style="fill:none;stroke:#a9a9a9;stroke-width:0.886227;"/>
    <path clip-path="url(#p9718b5d6ee)" d="M 76.320219 140.392329 
L 76.320219 142.075534 
" style="fill:none;stroke:#a9a9a9;stroke-width:0.886227;"/>
    <path clip-path="url(#p9718b5d6ee)" d="M 79.02793 245.140248 
L 79.02793 251.252917 
" style="fill:none;stroke:#a9a9a9;stroke-width:0.886227;"/>
    <path clip-path="url(#p9718b5d6ee)" d="M 84.443352 222.06083 
L 84.443352 224.934328 
" style="fill:none;stroke:#a9a9a9;stroke-width:0.886227;"/>
    <path clip-path="url(#p9718b5d6ee)" d="M 89.858774 212.694461 
L 89.858774 216.490407 
" style="fill:none;stroke:#a9a9a9;stroke-width:0.886227;"/>
    <path clip-path="url(#p9718b5d6ee)" d="M 100.689618 190.726345 
L 100.689618 197.833177 
" style="fill:none;stroke:#a9a9a9;stroke-width:0.886227;"/>
    <path clip-path="url(#p9718b5d6ee)" d="M 111.520462 174.101299 
L 111.520462 179.720745 
" style="fill:none;stroke:#a9a9a9;stroke-width:0.886227;"/>
    <path clip-path="url(#p9718b5d6ee)" d="M 127.766728 151.42152 
L 127.766728 160.817553 
" style="fill:none;stroke:#a9a9a9;stroke-width:0.886227;"/>
    <path clip-path="url(#p9718b5d6ee)" d="M 181.920947 123.818298 
L 181.920947 134.057323 
" style="fill:none;stroke:#a9a9a9;stroke-width:0.886227;"/>
    <path clip-path="url(#p9718b5d6ee)" d="M 236.075166 111.70183 
L 236.075166 126.619554 
" style="fill:none;stroke:#a9a9a9;stroke-width:0.886227;"/>
    <path clip-path="url(#p9718b5d6ee)" d="M 290.229386 110.662583 
L 290.229386 126.634088 
" style="fill:none;stroke:#a9a9a9;stroke-width:0.886227;"/>
    <path clip-path="url(#p9718b5d6ee)" d="M 344.383605 105.902916 
L 344.383605 117.940039 
" style="fill:none;stroke:#a9a9a9;stroke-width:0.886227;"/>
    <path clip-path="url(#p9718b5d6ee)" d="M 398.537825 99.452374 
L 398.537825 112.376327 
" style="fill:none;stroke:#a9a9a9;stroke-width:0.886227;"/>
    <path clip-path="url(#p9718b5d6ee)" d="M 74.15405 40.780038 
L 74.15405 40.780129 
" style="fill:none;stroke:#a9a9a9;stroke-width:0.886227;"/>
    <path clip-path="url(#p9718b5d6ee)" d="M 74.695593 41.099869 
L 74.695593 41.362907 
" style="fill:none;stroke:#a9a9a9;stroke-width:0.886227;"/>
    <path clip-path="url(#p9718b5d6ee)" d="M 75.237135 39.879376 
L 75.237135 51.804285 
" style="fill:none;stroke:#a9a9a9;stroke-width:0.886227;"/>
    <path clip-path="url(#p9718b5d6ee)" d="M 76.320219 42.209049 
L 76.320219 42.960931 
" style="fill:none;stroke:#a9a9a9;stroke-width:0.886227;"/>
    <path clip-path="url(#p9718b5d6ee)" d="M 79.02793 43.790065 
L 79.02793 48.455867 
" style="fill:none;stroke:#a9a9a9;stroke-width:0.886227;"/>
    <path clip-path="url(#p9718b5d6ee)" d="M 84.443352 45.914773 
L 84.443352 60.102702 
" style="fill:none;stroke:#a9a9a9;stroke-width:0.886227;"/>
    <path clip-path="url(#p9718b5d6ee)" d="M 89.858774 48.953892 
L 89.858774 59.683259 
" style="fill:none;stroke:#a9a9a9;stroke-width:0.886227;"/>
    <path clip-path="url(#p9718b5d6ee)" d="M 100.689618 55.411777 
L 100.689618 66.435739 
" style="fill:none;stroke:#a9a9a9;stroke-width:0.886227;"/>
    <path clip-path="url(#p9718b5d6ee)" d="M 111.520462 61.071901 
L 111.520462 72.698502 
" style="fill:none;stroke:#a9a9a9;stroke-width:0.886227;"/>
    <path clip-path="url(#p9718b5d6ee)" d="M 127.766728 68.127414 
L 127.766728 74.150749 
" style="fill:none;stroke:#a9a9a9;stroke-width:0.886227;"/>
    <path clip-path="url(#p9718b5d6ee)" d="M 181.920947 89.960322 
L 181.920947 98.815155 
" style="fill:none;stroke:#a9a9a9;stroke-width:0.886227;"/>
    <path clip-path="url(#p9718b5d6ee)" d="M 236.075166 110.518424 
L 236.075166 119.412536 
" style="fill:none;stroke:#a9a9a9;stroke-width:0.886227;"/>
    <path clip-path="url(#p9718b5d6ee)" d="M 290.229386 126.050813 
L 290.229386 135.388937 
" style="fill:none;stroke:#a9a9a9;stroke-width:0.886227;"/>
    <path clip-path="url(#p9718b5d6ee)" d="M 344.383605 146.560131 
L 344.383605 154.902774 
" style="fill:none;stroke:#a9a9a9;stroke-width:0.886227;"/>
    <path clip-path="url(#p9718b5d6ee)" d="M 398.537825 167.620514 
L 398.537825 175.429287 
" style="fill:none;stroke:#a9a9a9;stroke-width:0.886227;"/>
   </g>
   <g id="line2d_33">
    <path clip-path="url(#p9718b5d6ee)" d="M 74.15405 281.799376 
L 74.15405 281.799376 
L 74.695593 281.799376 
L 74.695593 281.799376 
L 75.237135 281.799376 
L 75.237135 281.799376 
L 76.320219 281.799376 
L 76.320219 281.799376 
L 79.02793 281.799376 
L 79.02793 281.799376 
L 84.443352 281.799376 
L 84.443352 281.799376 
L 89.858774 281.799376 
L 89.858774 281.799376 
L 100.689618 281.799376 
L 100.689618 281.799376 
L 111.520462 281.799376 
L 111.520462 281.799376 
L 127.766728 281.799376 
L 127.766728 281.799376 
L 181.920947 281.799376 
L 181.920947 281.799376 
L 236.075166 281.799376 
L 236.075166 281.799376 
L 290.229386 281.799376 
L 290.229386 281.799376 
L 344.383605 281.799376 
L 344.383605 281.799376 
L 398.537825 281.799376 
L 398.537825 281.799376 
" style="fill:none;stroke:#a9a9a9;stroke-dasharray:6.558079,2.835926;stroke-dashoffset:0;stroke-width:1.772454;"/>
   </g>
   <g id="patch_5">
    <path d="M 422.105938 197.60997 
L 538.045313 197.60997 
L 538.045313 120.612782 
L 422.105938 120.612782 
z
" style="fill:#ffffff;"/>
   </g>
   <g id="text_11">
    <!-- Group -->
    <defs>
     <path d="M 59.515625 10.40625 
L 59.515625 29.984375 
L 43.40625 29.984375 
L 43.40625 38.09375 
L 69.28125 38.09375 
L 69.28125 6.78125 
Q 63.578125 2.734375 56.6875 0.65625 
Q 49.8125 -1.421875 42 -1.421875 
Q 24.90625 -1.421875 15.25 8.5625 
Q 5.609375 18.5625 5.609375 36.375 
Q 5.609375 54.25 15.25 64.234375 
Q 24.90625 74.21875 42 74.21875 
Q 49.125 74.21875 55.546875 72.453125 
Q 61.96875 70.703125 67.390625 67.28125 
L 67.390625 56.78125 
Q 61.921875 61.421875 55.765625 63.765625 
Q 49.609375 66.109375 42.828125 66.109375 
Q 29.4375 66.109375 22.71875 58.640625 
Q 16.015625 51.171875 16.015625 36.375 
Q 16.015625 21.625 22.71875 14.15625 
Q 29.4375 6.6875 42.828125 6.6875 
Q 48.046875 6.6875 52.140625 7.59375 
Q 56.25 8.5 59.515625 10.40625 
z
" id="DejaVuSans-71"/>
     <path d="M 18.109375 8.203125 
L 18.109375 -20.796875 
L 9.078125 -20.796875 
L 9.078125 54.6875 
L 18.109375 54.6875 
L 18.109375 46.390625 
Q 20.953125 51.265625 25.265625 53.625 
Q 29.59375 56 35.59375 56 
Q 45.5625 56 51.78125 48.09375 
Q 58.015625 40.1875 58.015625 27.296875 
Q 58.015625 14.40625 51.78125 6.484375 
Q 45.5625 -1.421875 35.59375 -1.421875 
Q 29.59375 -1.421875 25.265625 0.953125 
Q 20.953125 3.328125 18.109375 8.203125 
z
M 48.6875 27.296875 
Q 48.6875 37.203125 44.609375 42.84375 
Q 40.53125 48.484375 33.40625 48.484375 
Q 26.265625 48.484375 22.1875 42.84375 
Q 18.109375 37.203125 18.109375 27.296875 
Q 18.109375 17.390625 22.1875 11.75 
Q 26.265625 6.109375 33.40625 6.109375 
Q 40.53125 6.109375 44.609375 11.75 
Q 48.6875 17.390625 48.6875 27.296875 
z
" id="DejaVuSans-112"/>
    </defs>
    <g transform="translate(434.305938 148.349501)scale(0.15 -0.15)">
     <use xlink:href="#DejaVuSans-71"/>
     <use x="77.490234" xlink:href="#DejaVuSans-114"/>
     <use x="118.572266" xlink:href="#DejaVuSans-111"/>
     <use x="179.753906" xlink:href="#DejaVuSans-117"/>
     <use x="243.132812" xlink:href="#DejaVuSans-112"/>
    </g>
   </g>
   <g id="patch_6">
    <path clip-path="url(#p08584a191e)" d="M 434.305938 167.56997 
L 450.145938 167.56997 
L 450.145938 151.72997 
L 434.305938 151.72997 
z
" style="fill:#ffffff;stroke:#ffffff;stroke-linejoin:miter;"/>
   </g>
   <g id="line2d_34">
    <path clip-path="url(#p08584a191e)" d="M 434.305938 159.64997 
L 450.145938 159.64997 
" style="fill:none;stroke:#1976d2;stroke-width:2.658681;"/>
   </g>
   <g id="text_12">
    <!-- corrected -->
    <defs>
     <path d="M 45.40625 46.390625 
L 45.40625 75.984375 
L 54.390625 75.984375 
L 54.390625 0 
L 45.40625 0 
L 45.40625 8.203125 
Q 42.578125 3.328125 38.25 0.953125 
Q 33.9375 -1.421875 27.875 -1.421875 
Q 17.96875 -1.421875 11.734375 6.484375 
Q 5.515625 14.40625 5.515625 27.296875 
Q 5.515625 40.1875 11.734375 48.09375 
Q 17.96875 56 27.875 56 
Q 33.9375 56 38.25 53.625 
Q 42.578125 51.265625 45.40625 46.390625 
z
M 14.796875 27.296875 
Q 14.796875 17.390625 18.875 11.75 
Q 22.953125 6.109375 30.078125 6.109375 
Q 37.203125 6.109375 41.296875 11.75 
Q 45.40625 17.390625 45.40625 27.296875 
Q 45.40625 37.203125 41.296875 42.84375 
Q 37.203125 48.484375 30.078125 48.484375 
Q 22.953125 48.484375 18.875 42.84375 
Q 14.796875 37.203125 14.796875 27.296875 
z
" id="DejaVuSans-100"/>
    </defs>
    <g transform="translate(453.145938 162.96122)scale(0.12 -0.12)">
     <use xlink:href="#DejaVuSans-99"/>
     <use x="54.980469" xlink:href="#DejaVuSans-111"/>
     <use x="116.162109" xlink:href="#DejaVuSans-114"/>
     <use x="157.259766" xlink:href="#DejaVuSans-114"/>
     <use x="198.341797" xlink:href="#DejaVuSans-101"/>
     <use x="259.865234" xlink:href="#DejaVuSans-99"/>
     <use x="314.845703" xlink:href="#DejaVuSans-116"/>
     <use x="354.054688" xlink:href="#DejaVuSans-101"/>
     <use x="415.578125" xlink:href="#DejaVuSans-100"/>
    </g>
   </g>
   <g id="patch_7">
    <path clip-path="url(#p0d28c389d4)" d="M 434.305938 185.40997 
L 450.145938 185.40997 
L 450.145938 169.56997 
L 434.305938 169.56997 
z
" style="fill:#ffffff;stroke:#ffffff;stroke-linejoin:miter;"/>
   </g>
   <g id="line2d_35">
    <path clip-path="url(#p0d28c389d4)" d="M 434.305938 177.48997 
L 450.145938 177.48997 
" style="fill:none;stroke:#b3e5fc;stroke-width:2.658681;"/>
   </g>
   <g id="text_13">
    <!-- uncorrected -->
    <g transform="translate(453.145938 180.80122)scale(0.12 -0.12)">
     <use xlink:href="#DejaVuSans-117"/>
     <use x="63.378906" xlink:href="#DejaVuSans-110"/>
     <use x="126.757812" xlink:href="#DejaVuSans-99"/>
     <use x="181.738281" xlink:href="#DejaVuSans-111"/>
     <use x="242.919922" xlink:href="#DejaVuSans-114"/>
     <use x="284.017578" xlink:href="#DejaVuSans-114"/>
     <use x="325.099609" xlink:href="#DejaVuSans-101"/>
     <use x="386.623047" xlink:href="#DejaVuSans-99"/>
     <use x="441.603516" xlink:href="#DejaVuSans-116"/>
     <use x="480.8125" xlink:href="#DejaVuSans-101"/>
     <use x="542.335938" xlink:href="#DejaVuSans-100"/>
    </g>
   </g>
  </g>
  <g id="text_14">
   <!-- Similarity across varying numbers of partitions -->
   <defs>
    <path d="M 2.984375 54.6875 
L 12.5 54.6875 
L 29.59375 8.796875 
L 46.6875 54.6875 
L 56.203125 54.6875 
L 35.6875 0 
L 23.484375 0 
z
" id="DejaVuSans-118"/>
    <path d="M 45.40625 27.984375 
Q 45.40625 37.75 41.375 43.109375 
Q 37.359375 48.484375 30.078125 48.484375 
Q 22.859375 48.484375 18.828125 43.109375 
Q 14.796875 37.75 14.796875 27.984375 
Q 14.796875 18.265625 18.828125 12.890625 
Q 22.859375 7.515625 30.078125 7.515625 
Q 37.359375 7.515625 41.375 12.890625 
Q 45.40625 18.265625 45.40625 27.984375 
z
M 54.390625 6.78125 
Q 54.390625 -7.171875 48.1875 -13.984375 
Q 42 -20.796875 29.203125 -20.796875 
Q 24.46875 -20.796875 20.265625 -20.09375 
Q 16.0625 -19.390625 12.109375 -17.921875 
L 12.109375 -9.1875 
Q 16.0625 -11.328125 19.921875 -12.34375 
Q 23.78125 -13.375 27.78125 -13.375 
Q 36.625 -13.375 41.015625 -8.765625 
Q 45.40625 -4.15625 45.40625 5.171875 
L 45.40625 9.625 
Q 42.625 4.78125 38.28125 2.390625 
Q 33.9375 0 27.875 0 
Q 17.828125 0 11.671875 7.65625 
Q 5.515625 15.328125 5.515625 27.984375 
Q 5.515625 40.671875 11.671875 48.328125 
Q 17.828125 56 27.875 56 
Q 33.9375 56 38.28125 53.609375 
Q 42.625 51.21875 45.40625 46.390625 
L 45.40625 54.6875 
L 54.390625 54.6875 
z
" id="DejaVuSans-103"/>
   </defs>
   <g transform="translate(54.703906 18.597656)scale(0.15 -0.15)">
    <use xlink:href="#DejaVuSans-83"/>
    <use x="63.476562" xlink:href="#DejaVuSans-105"/>
    <use x="91.259766" xlink:href="#DejaVuSans-109"/>
    <use x="188.671875" xlink:href="#DejaVuSans-105"/>
    <use x="216.455078" xlink:href="#DejaVuSans-108"/>
    <use x="244.238281" xlink:href="#DejaVuSans-97"/>
    <use x="305.517578" xlink:href="#DejaVuSans-114"/>
    <use x="346.630859" xlink:href="#DejaVuSans-105"/>
    <use x="374.414062" xlink:href="#DejaVuSans-116"/>
    <use x="413.623047" xlink:href="#DejaVuSans-121"/>
    <use x="472.802734" xlink:href="#DejaVuSans-32"/>
    <use x="504.589844" xlink:href="#DejaVuSans-97"/>
    <use x="565.869141" xlink:href="#DejaVuSans-99"/>
    <use x="620.849609" xlink:href="#DejaVuSans-114"/>
    <use x="661.931641" xlink:href="#DejaVuSans-111"/>
    <use x="723.113281" xlink:href="#DejaVuSans-115"/>
    <use x="775.212891" xlink:href="#DejaVuSans-115"/>
    <use x="827.3125" xlink:href="#DejaVuSans-32"/>
    <use x="859.099609" xlink:href="#DejaVuSans-118"/>
    <use x="918.279297" xlink:href="#DejaVuSans-97"/>
    <use x="979.558594" xlink:href="#DejaVuSans-114"/>
    <use x="1020.671875" xlink:href="#DejaVuSans-121"/>
    <use x="1079.851562" xlink:href="#DejaVuSans-105"/>
    <use x="1107.634766" xlink:href="#DejaVuSans-110"/>
    <use x="1171.013672" xlink:href="#DejaVuSans-103"/>
    <use x="1234.490234" xlink:href="#DejaVuSans-32"/>
    <use x="1266.277344" xlink:href="#DejaVuSans-110"/>
    <use x="1329.65625" xlink:href="#DejaVuSans-117"/>
    <use x="1393.035156" xlink:href="#DejaVuSans-109"/>
    <use x="1490.447266" xlink:href="#DejaVuSans-98"/>
    <use x="1553.923828" xlink:href="#DejaVuSans-101"/>
    <use x="1615.447266" xlink:href="#DejaVuSans-114"/>
    <use x="1656.560547" xlink:href="#DejaVuSans-115"/>
    <use x="1708.660156" xlink:href="#DejaVuSans-32"/>
    <use x="1740.447266" xlink:href="#DejaVuSans-111"/>
    <use x="1801.628906" xlink:href="#DejaVuSans-102"/>
    <use x="1836.833984" xlink:href="#DejaVuSans-32"/>
    <use x="1868.621094" xlink:href="#DejaVuSans-112"/>
    <use x="1932.097656" xlink:href="#DejaVuSans-97"/>
    <use x="1993.376953" xlink:href="#DejaVuSans-114"/>
    <use x="2034.490234" xlink:href="#DejaVuSans-116"/>
    <use x="2073.699219" xlink:href="#DejaVuSans-105"/>
    <use x="2101.482422" xlink:href="#DejaVuSans-116"/>
    <use x="2140.691406" xlink:href="#DejaVuSans-105"/>
    <use x="2168.474609" xlink:href="#DejaVuSans-111"/>
    <use x="2229.65625" xlink:href="#DejaVuSans-110"/>
    <use x="2293.035156" xlink:href="#DejaVuSans-115"/>
   </g>
  </g>
 </g>
 <defs>
  <clipPath id="p9718b5d6ee">
   <rect height="266.112" width="357.12" x="57.785938" y="27.783376"/>
  </clipPath>
  <clipPath id="p08584a191e">
   <path d="M 434.305938 167.56997 
L 434.305938 151.72997 
L 450.145938 151.72997 
L 450.145938 167.56997 
"/>
  </clipPath>
  <clipPath id="p0d28c389d4">
   <path d="M 434.305938 185.40997 
L 434.305938 169.56997 
L 450.145938 169.56997 
L 450.145938 185.40997 
"/>
  </clipPath>
 </defs>
</svg>
