<?xml version="1.0" encoding="utf-8" standalone="no"?>
<!DOCTYPE svg PUBLIC "-//W3C//DTD SVG 1.1//EN"
  "http://www.w3.org/Graphics/SVG/1.1/DTD/svg11.dtd">
<!-- Created with matplotlib (https://matplotlib.org/) -->
<svg height="336.576313pt" version="1.1" viewBox="0 0 545.245312 336.576313" width="545.245312pt" xmlns="http://www.w3.org/2000/svg" xmlns:xlink="http://www.w3.org/1999/xlink">
 <defs>
  <style type="text/css">
*{stroke-linecap:butt;stroke-linejoin:round;}
  </style>
 </defs>
 <g id="figure_1">
  <g id="patch_1">
   <path d="M 0 336.576313 
L 545.245312 336.576313 
L 545.245312 0 
L 0 0 
z
" style="fill:#ffffff;stroke:#ffffff;stroke-linejoin:miter;"/>
  </g>
  <g id="axes_1">
   <g id="patch_2">
    <path d="M 57.785938 293.895376 
L 414.905938 293.895376 
L 414.905938 27.783376 
L 57.785938 27.783376 
z
" style="fill:#ffffff;"/>
   </g>
   <g id="matplotlib.axis_1">
    <g id="xtick_1">
     <g id="line2d_1">
      <path clip-path="url(#p9e6f6129eb)" d="M 73.97808 293.895376 
L 73.97808 27.783376 
" style="fill:none;stroke:#d3d3d3;"/>
     </g>
     <g id="line2d_2">
      <path d="M 73.97808 293.895376 
" style="fill:none;stroke:#333333;stroke-width:1.5;"/>
      <defs>
       <path d="M 0 0 
L 0 2.75 
" id="m7c18166684" style="stroke:#333333;"/>
      </defs>
      <g>
       <use style="fill:#333333;stroke:#333333;" x="73.97808" xlink:href="#m7c18166684" y="293.895376"/>
      </g>
     </g>
     <g id="text_1">
      <!-- 0 -->
      <defs>
       <path d="M 31.78125 66.40625 
Q 24.171875 66.40625 20.328125 58.90625 
Q 16.5 51.421875 16.5 36.375 
Q 16.5 21.390625 20.328125 13.890625 
Q 24.171875 6.390625 31.78125 6.390625 
Q 39.453125 6.390625 43.28125 13.890625 
Q 47.125 21.390625 47.125 36.375 
Q 47.125 51.421875 43.28125 58.90625 
Q 39.453125 66.40625 31.78125 66.40625 
z
M 31.78125 74.21875 
Q 44.046875 74.21875 50.515625 64.515625 
Q 56.984375 54.828125 56.984375 36.375 
Q 56.984375 17.96875 50.515625 8.265625 
Q 44.046875 -1.421875 31.78125 -1.421875 
Q 19.53125 -1.421875 13.0625 8.265625 
Q 6.59375 17.96875 6.59375 36.375 
Q 6.59375 54.828125 13.0625 64.515625 
Q 19.53125 74.21875 31.78125 74.21875 
z
" id="DejaVuSans-48"/>
      </defs>
      <g style="fill:#4d4d4d;" transform="translate(70.16058 307.963501)scale(0.12 -0.12)">
       <use xlink:href="#DejaVuSans-48"/>
      </g>
     </g>
    </g>
    <g id="xtick_2">
     <g id="line2d_3">
      <path clip-path="url(#p9e6f6129eb)" d="M 182.20528 293.895376 
L 182.20528 27.783376 
" style="fill:none;stroke:#d3d3d3;"/>
     </g>
     <g id="line2d_4">
      <path d="M 182.20528 293.895376 
" style="fill:none;stroke:#333333;stroke-width:1.5;"/>
      <g>
       <use style="fill:#333333;stroke:#333333;" x="182.20528" xlink:href="#m7c18166684" y="293.895376"/>
      </g>
     </g>
     <g id="text_2">
      <!-- 2000 -->
      <defs>
       <path d="M 19.1875 8.296875 
L 53.609375 8.296875 
L 53.609375 0 
L 7.328125 0 
L 7.328125 8.296875 
Q 12.9375 14.109375 22.625 23.890625 
Q 32.328125 33.6875 34.8125 36.53125 
Q 39.546875 41.84375 41.421875 45.53125 
Q 43.3125 49.21875 43.3125 52.78125 
Q 43.3125 58.59375 39.234375 62.25 
Q 35.15625 65.921875 28.609375 65.921875 
Q 23.96875 65.921875 18.8125 64.3125 
Q 13.671875 62.703125 7.8125 59.421875 
L 7.8125 69.390625 
Q 13.765625 71.78125 18.9375 73 
Q 24.125 74.21875 28.421875 74.21875 
Q 39.75 74.21875 46.484375 68.546875 
Q 53.21875 62.890625 53.21875 53.421875 
Q 53.21875 48.921875 51.53125 44.890625 
Q 49.859375 40.875 45.40625 35.40625 
Q 44.1875 33.984375 37.640625 27.21875 
Q 31.109375 20.453125 19.1875 8.296875 
z
" id="DejaVuSans-50"/>
      </defs>
      <g style="fill:#4d4d4d;" transform="translate(166.93528 307.963501)scale(0.12 -0.12)">
       <use xlink:href="#DejaVuSans-50"/>
       <use x="63.623047" xlink:href="#DejaVuSans-48"/>
       <use x="127.246094" xlink:href="#DejaVuSans-48"/>
       <use x="190.869141" xlink:href="#DejaVuSans-48"/>
      </g>
     </g>
    </g>
    <g id="xtick_3">
     <g id="line2d_5">
      <path clip-path="url(#p9e6f6129eb)" d="M 290.432481 293.895376 
L 290.432481 27.783376 
" style="fill:none;stroke:#d3d3d3;"/>
     </g>
     <g id="line2d_6">
      <path d="M 290.432481 293.895376 
" style="fill:none;stroke:#333333;stroke-width:1.5;"/>
      <g>
       <use style="fill:#333333;stroke:#333333;" x="290.432481" xlink:href="#m7c18166684" y="293.895376"/>
      </g>
     </g>
     <g id="text_3">
      <!-- 4000 -->
      <defs>
       <path d="M 37.796875 64.3125 
L 12.890625 25.390625 
L 37.796875 25.390625 
z
M 35.203125 72.90625 
L 47.609375 72.90625 
L 47.609375 25.390625 
L 58.015625 25.390625 
L 58.015625 17.1875 
L 47.609375 17.1875 
L 47.609375 0 
L 37.796875 0 
L 37.796875 17.1875 
L 4.890625 17.1875 
L 4.890625 26.703125 
z
" id="DejaVuSans-52"/>
      </defs>
      <g style="fill:#4d4d4d;" transform="translate(275.162481 307.963501)scale(0.12 -0.12)">
       <use xlink:href="#DejaVuSans-52"/>
       <use x="63.623047" xlink:href="#DejaVuSans-48"/>
       <use x="127.246094" xlink:href="#DejaVuSans-48"/>
       <use x="190.869141" xlink:href="#DejaVuSans-48"/>
      </g>
     </g>
    </g>
    <g id="xtick_4">
     <g id="line2d_7">
      <path clip-path="url(#p9e6f6129eb)" d="M 398.659682 293.895376 
L 398.659682 27.783376 
" style="fill:none;stroke:#d3d3d3;"/>
     </g>
     <g id="line2d_8">
      <path d="M 398.659682 293.895376 
" style="fill:none;stroke:#333333;stroke-width:1.5;"/>
      <g>
       <use style="fill:#333333;stroke:#333333;" x="398.659682" xlink:href="#m7c18166684" y="293.895376"/>
      </g>
     </g>
     <g id="text_4">
      <!-- 6000 -->
      <defs>
       <path d="M 33.015625 40.375 
Q 26.375 40.375 22.484375 35.828125 
Q 18.609375 31.296875 18.609375 23.390625 
Q 18.609375 15.53125 22.484375 10.953125 
Q 26.375 6.390625 33.015625 6.390625 
Q 39.65625 6.390625 43.53125 10.953125 
Q 47.40625 15.53125 47.40625 23.390625 
Q 47.40625 31.296875 43.53125 35.828125 
Q 39.65625 40.375 33.015625 40.375 
z
M 52.59375 71.296875 
L 52.59375 62.3125 
Q 48.875 64.0625 45.09375 64.984375 
Q 41.3125 65.921875 37.59375 65.921875 
Q 27.828125 65.921875 22.671875 59.328125 
Q 17.53125 52.734375 16.796875 39.40625 
Q 19.671875 43.65625 24.015625 45.921875 
Q 28.375 48.1875 33.59375 48.1875 
Q 44.578125 48.1875 50.953125 41.515625 
Q 57.328125 34.859375 57.328125 23.390625 
Q 57.328125 12.15625 50.6875 5.359375 
Q 44.046875 -1.421875 33.015625 -1.421875 
Q 20.359375 -1.421875 13.671875 8.265625 
Q 6.984375 17.96875 6.984375 36.375 
Q 6.984375 53.65625 15.1875 63.9375 
Q 23.390625 74.21875 37.203125 74.21875 
Q 40.921875 74.21875 44.703125 73.484375 
Q 48.484375 72.75 52.59375 71.296875 
z
" id="DejaVuSans-54"/>
      </defs>
      <g style="fill:#4d4d4d;" transform="translate(383.389682 307.963501)scale(0.12 -0.12)">
       <use xlink:href="#DejaVuSans-54"/>
       <use x="63.623047" xlink:href="#DejaVuSans-48"/>
       <use x="127.246094" xlink:href="#DejaVuSans-48"/>
       <use x="190.869141" xlink:href="#DejaVuSans-48"/>
      </g>
     </g>
    </g>
    <g id="xtick_5">
     <g id="line2d_9">
      <path clip-path="url(#p9e6f6129eb)" d="M 128.09168 293.895376 
L 128.09168 27.783376 
" style="fill:none;stroke:#ffffff;stroke-width:0.5;"/>
     </g>
     <g id="line2d_10">
      <path d="M 128.09168 293.895376 
" style="fill:none;stroke:#333333;stroke-width:1.5;"/>
     </g>
    </g>
    <g id="xtick_6">
     <g id="line2d_11">
      <path clip-path="url(#p9e6f6129eb)" d="M 236.318881 293.895376 
L 236.318881 27.783376 
" style="fill:none;stroke:#ffffff;stroke-width:0.5;"/>
     </g>
     <g id="line2d_12">
      <path d="M 236.318881 293.895376 
" style="fill:none;stroke:#333333;stroke-width:1.5;"/>
     </g>
    </g>
    <g id="xtick_7">
     <g id="line2d_13">
      <path clip-path="url(#p9e6f6129eb)" d="M 344.546081 293.895376 
L 344.546081 27.783376 
" style="fill:none;stroke:#ffffff;stroke-width:0.5;"/>
     </g>
     <g id="line2d_14">
      <path d="M 344.546081 293.895376 
" style="fill:none;stroke:#333333;stroke-width:1.5;"/>
     </g>
    </g>
    <g id="text_5">
     <!-- Number of Partitions -->
     <defs>
      <path d="M 9.8125 72.90625 
L 23.09375 72.90625 
L 55.421875 11.921875 
L 55.421875 72.90625 
L 64.984375 72.90625 
L 64.984375 0 
L 51.703125 0 
L 19.390625 60.984375 
L 19.390625 0 
L 9.8125 0 
z
" id="DejaVuSans-78"/>
      <path d="M 8.5 21.578125 
L 8.5 54.6875 
L 17.484375 54.6875 
L 17.484375 21.921875 
Q 17.484375 14.15625 20.5 10.265625 
Q 23.53125 6.390625 29.59375 6.390625 
Q 36.859375 6.390625 41.078125 11.03125 
Q 45.3125 15.671875 45.3125 23.6875 
L 45.3125 54.6875 
L 54.296875 54.6875 
L 54.296875 0 
L 45.3125 0 
L 45.3125 8.40625 
Q 42.046875 3.421875 37.71875 1 
Q 33.40625 -1.421875 27.6875 -1.421875 
Q 18.265625 -1.421875 13.375 4.4375 
Q 8.5 10.296875 8.5 21.578125 
z
M 31.109375 56 
z
" id="DejaVuSans-117"/>
      <path d="M 52 44.1875 
Q 55.375 50.25 60.0625 53.125 
Q 64.75 56 71.09375 56 
Q 79.640625 56 84.28125 50.015625 
Q 88.921875 44.046875 88.921875 33.015625 
L 88.921875 0 
L 79.890625 0 
L 79.890625 32.71875 
Q 79.890625 40.578125 77.09375 44.375 
Q 74.3125 48.1875 68.609375 48.1875 
Q 61.625 48.1875 57.5625 43.546875 
Q 53.515625 38.921875 53.515625 30.90625 
L 53.515625 0 
L 44.484375 0 
L 44.484375 32.71875 
Q 44.484375 40.625 41.703125 44.40625 
Q 38.921875 48.1875 33.109375 48.1875 
Q 26.21875 48.1875 22.15625 43.53125 
Q 18.109375 38.875 18.109375 30.90625 
L 18.109375 0 
L 9.078125 0 
L 9.078125 54.6875 
L 18.109375 54.6875 
L 18.109375 46.1875 
Q 21.1875 51.21875 25.484375 53.609375 
Q 29.78125 56 35.6875 56 
Q 41.65625 56 45.828125 52.96875 
Q 50 49.953125 52 44.1875 
z
" id="DejaVuSans-109"/>
      <path d="M 48.6875 27.296875 
Q 48.6875 37.203125 44.609375 42.84375 
Q 40.53125 48.484375 33.40625 48.484375 
Q 26.265625 48.484375 22.1875 42.84375 
Q 18.109375 37.203125 18.109375 27.296875 
Q 18.109375 17.390625 22.1875 11.75 
Q 26.265625 6.109375 33.40625 6.109375 
Q 40.53125 6.109375 44.609375 11.75 
Q 48.6875 17.390625 48.6875 27.296875 
z
M 18.109375 46.390625 
Q 20.953125 51.265625 25.265625 53.625 
Q 29.59375 56 35.59375 56 
Q 45.5625 56 51.78125 48.09375 
Q 58.015625 40.1875 58.015625 27.296875 
Q 58.015625 14.40625 51.78125 6.484375 
Q 45.5625 -1.421875 35.59375 -1.421875 
Q 29.59375 -1.421875 25.265625 0.953125 
Q 20.953125 3.328125 18.109375 8.203125 
L 18.109375 0 
L 9.078125 0 
L 9.078125 75.984375 
L 18.109375 75.984375 
z
" id="DejaVuSans-98"/>
      <path d="M 56.203125 29.59375 
L 56.203125 25.203125 
L 14.890625 25.203125 
Q 15.484375 15.921875 20.484375 11.0625 
Q 25.484375 6.203125 34.421875 6.203125 
Q 39.59375 6.203125 44.453125 7.46875 
Q 49.3125 8.734375 54.109375 11.28125 
L 54.109375 2.78125 
Q 49.265625 0.734375 44.1875 -0.34375 
Q 39.109375 -1.421875 33.890625 -1.421875 
Q 20.796875 -1.421875 13.15625 6.1875 
Q 5.515625 13.8125 5.515625 26.8125 
Q 5.515625 40.234375 12.765625 48.109375 
Q 20.015625 56 32.328125 56 
Q 43.359375 56 49.78125 48.890625 
Q 56.203125 41.796875 56.203125 29.59375 
z
M 47.21875 32.234375 
Q 47.125 39.59375 43.09375 43.984375 
Q 39.0625 48.390625 32.421875 48.390625 
Q 24.90625 48.390625 20.390625 44.140625 
Q 15.875 39.890625 15.1875 32.171875 
z
" id="DejaVuSans-101"/>
      <path d="M 41.109375 46.296875 
Q 39.59375 47.171875 37.8125 47.578125 
Q 36.03125 48 33.890625 48 
Q 26.265625 48 22.1875 43.046875 
Q 18.109375 38.09375 18.109375 28.8125 
L 18.109375 0 
L 9.078125 0 
L 9.078125 54.6875 
L 18.109375 54.6875 
L 18.109375 46.1875 
Q 20.953125 51.171875 25.484375 53.578125 
Q 30.03125 56 36.53125 56 
Q 37.453125 56 38.578125 55.875 
Q 39.703125 55.765625 41.0625 55.515625 
z
" id="DejaVuSans-114"/>
      <path id="DejaVuSans-32"/>
      <path d="M 30.609375 48.390625 
Q 23.390625 48.390625 19.1875 42.75 
Q 14.984375 37.109375 14.984375 27.296875 
Q 14.984375 17.484375 19.15625 11.84375 
Q 23.34375 6.203125 30.609375 6.203125 
Q 37.796875 6.203125 41.984375 11.859375 
Q 46.1875 17.53125 46.1875 27.296875 
Q 46.1875 37.015625 41.984375 42.703125 
Q 37.796875 48.390625 30.609375 48.390625 
z
M 30.609375 56 
Q 42.328125 56 49.015625 48.375 
Q 55.71875 40.765625 55.71875 27.296875 
Q 55.71875 13.875 49.015625 6.21875 
Q 42.328125 -1.421875 30.609375 -1.421875 
Q 18.84375 -1.421875 12.171875 6.21875 
Q 5.515625 13.875 5.515625 27.296875 
Q 5.515625 40.765625 12.171875 48.375 
Q 18.84375 56 30.609375 56 
z
" id="DejaVuSans-111"/>
      <path d="M 37.109375 75.984375 
L 37.109375 68.5 
L 28.515625 68.5 
Q 23.6875 68.5 21.796875 66.546875 
Q 19.921875 64.59375 19.921875 59.515625 
L 19.921875 54.6875 
L 34.71875 54.6875 
L 34.71875 47.703125 
L 19.921875 47.703125 
L 19.921875 0 
L 10.890625 0 
L 10.890625 47.703125 
L 2.296875 47.703125 
L 2.296875 54.6875 
L 10.890625 54.6875 
L 10.890625 58.5 
Q 10.890625 67.625 15.140625 71.796875 
Q 19.390625 75.984375 28.609375 75.984375 
z
" id="DejaVuSans-102"/>
      <path d="M 19.671875 64.796875 
L 19.671875 37.40625 
L 32.078125 37.40625 
Q 38.96875 37.40625 42.71875 40.96875 
Q 46.484375 44.53125 46.484375 51.125 
Q 46.484375 57.671875 42.71875 61.234375 
Q 38.96875 64.796875 32.078125 64.796875 
z
M 9.8125 72.90625 
L 32.078125 72.90625 
Q 44.34375 72.90625 50.609375 67.359375 
Q 56.890625 61.8125 56.890625 51.125 
Q 56.890625 40.328125 50.609375 34.8125 
Q 44.34375 29.296875 32.078125 29.296875 
L 19.671875 29.296875 
L 19.671875 0 
L 9.8125 0 
z
" id="DejaVuSans-80"/>
      <path d="M 34.28125 27.484375 
Q 23.390625 27.484375 19.1875 25 
Q 14.984375 22.515625 14.984375 16.5 
Q 14.984375 11.71875 18.140625 8.90625 
Q 21.296875 6.109375 26.703125 6.109375 
Q 34.1875 6.109375 38.703125 11.40625 
Q 43.21875 16.703125 43.21875 25.484375 
L 43.21875 27.484375 
z
M 52.203125 31.203125 
L 52.203125 0 
L 43.21875 0 
L 43.21875 8.296875 
Q 40.140625 3.328125 35.546875 0.953125 
Q 30.953125 -1.421875 24.3125 -1.421875 
Q 15.921875 -1.421875 10.953125 3.296875 
Q 6 8.015625 6 15.921875 
Q 6 25.140625 12.171875 29.828125 
Q 18.359375 34.515625 30.609375 34.515625 
L 43.21875 34.515625 
L 43.21875 35.40625 
Q 43.21875 41.609375 39.140625 45 
Q 35.0625 48.390625 27.6875 48.390625 
Q 23 48.390625 18.546875 47.265625 
Q 14.109375 46.140625 10.015625 43.890625 
L 10.015625 52.203125 
Q 14.9375 54.109375 19.578125 55.046875 
Q 24.21875 56 28.609375 56 
Q 40.484375 56 46.34375 49.84375 
Q 52.203125 43.703125 52.203125 31.203125 
z
" id="DejaVuSans-97"/>
      <path d="M 18.3125 70.21875 
L 18.3125 54.6875 
L 36.8125 54.6875 
L 36.8125 47.703125 
L 18.3125 47.703125 
L 18.3125 18.015625 
Q 18.3125 11.328125 20.140625 9.421875 
Q 21.96875 7.515625 27.59375 7.515625 
L 36.8125 7.515625 
L 36.8125 0 
L 27.59375 0 
Q 17.1875 0 13.234375 3.875 
Q 9.28125 7.765625 9.28125 18.015625 
L 9.28125 47.703125 
L 2.6875 47.703125 
L 2.6875 54.6875 
L 9.28125 54.6875 
L 9.28125 70.21875 
z
" id="DejaVuSans-116"/>
      <path d="M 9.421875 54.6875 
L 18.40625 54.6875 
L 18.40625 0 
L 9.421875 0 
z
M 9.421875 75.984375 
L 18.40625 75.984375 
L 18.40625 64.59375 
L 9.421875 64.59375 
z
" id="DejaVuSans-105"/>
      <path d="M 54.890625 33.015625 
L 54.890625 0 
L 45.90625 0 
L 45.90625 32.71875 
Q 45.90625 40.484375 42.875 44.328125 
Q 39.84375 48.1875 33.796875 48.1875 
Q 26.515625 48.1875 22.3125 43.546875 
Q 18.109375 38.921875 18.109375 30.90625 
L 18.109375 0 
L 9.078125 0 
L 9.078125 54.6875 
L 18.109375 54.6875 
L 18.109375 46.1875 
Q 21.34375 51.125 25.703125 53.5625 
Q 30.078125 56 35.796875 56 
Q 45.21875 56 50.046875 50.171875 
Q 54.890625 44.34375 54.890625 33.015625 
z
" id="DejaVuSans-110"/>
      <path d="M 44.28125 53.078125 
L 44.28125 44.578125 
Q 40.484375 46.53125 36.375 47.5 
Q 32.28125 48.484375 27.875 48.484375 
Q 21.1875 48.484375 17.84375 46.4375 
Q 14.5 44.390625 14.5 40.28125 
Q 14.5 37.15625 16.890625 35.375 
Q 19.28125 33.59375 26.515625 31.984375 
L 29.59375 31.296875 
Q 39.15625 29.25 43.1875 25.515625 
Q 47.21875 21.78125 47.21875 15.09375 
Q 47.21875 7.46875 41.1875 3.015625 
Q 35.15625 -1.421875 24.609375 -1.421875 
Q 20.21875 -1.421875 15.453125 -0.5625 
Q 10.6875 0.296875 5.421875 2 
L 5.421875 11.28125 
Q 10.40625 8.6875 15.234375 7.390625 
Q 20.0625 6.109375 24.8125 6.109375 
Q 31.15625 6.109375 34.5625 8.28125 
Q 37.984375 10.453125 37.984375 14.40625 
Q 37.984375 18.0625 35.515625 20.015625 
Q 33.0625 21.96875 24.703125 23.78125 
L 21.578125 24.515625 
Q 13.234375 26.265625 9.515625 29.90625 
Q 5.8125 33.546875 5.8125 39.890625 
Q 5.8125 47.609375 11.28125 51.796875 
Q 16.75 56 26.8125 56 
Q 31.78125 56 36.171875 55.265625 
Q 40.578125 54.546875 44.28125 53.078125 
z
" id="DejaVuSans-115"/>
     </defs>
     <g transform="translate(152.966797 326.256782)scale(0.15 -0.15)">
      <use xlink:href="#DejaVuSans-78"/>
      <use x="74.804688" xlink:href="#DejaVuSans-117"/>
      <use x="138.183594" xlink:href="#DejaVuSans-109"/>
      <use x="235.595703" xlink:href="#DejaVuSans-98"/>
      <use x="299.072266" xlink:href="#DejaVuSans-101"/>
      <use x="360.595703" xlink:href="#DejaVuSans-114"/>
      <use x="401.708984" xlink:href="#DejaVuSans-32"/>
      <use x="433.496094" xlink:href="#DejaVuSans-111"/>
      <use x="494.677734" xlink:href="#DejaVuSans-102"/>
      <use x="529.882812" xlink:href="#DejaVuSans-32"/>
      <use x="561.669922" xlink:href="#DejaVuSans-80"/>
      <use x="621.910156" xlink:href="#DejaVuSans-97"/>
      <use x="683.189453" xlink:href="#DejaVuSans-114"/>
      <use x="724.302734" xlink:href="#DejaVuSans-116"/>
      <use x="763.511719" xlink:href="#DejaVuSans-105"/>
      <use x="791.294922" xlink:href="#DejaVuSans-116"/>
      <use x="830.503906" xlink:href="#DejaVuSans-105"/>
      <use x="858.287109" xlink:href="#DejaVuSans-111"/>
      <use x="919.46875" xlink:href="#DejaVuSans-110"/>
      <use x="982.847656" xlink:href="#DejaVuSans-115"/>
     </g>
    </g>
   </g>
   <g id="matplotlib.axis_2">
    <g id="ytick_1">
     <g id="line2d_15">
      <path clip-path="url(#p9e6f6129eb)" d="M 57.785938 284.295957 
L 414.905938 284.295957 
" style="fill:none;stroke:#d3d3d3;"/>
     </g>
     <g id="line2d_16">
      <path d="M 57.785938 284.295957 
" style="fill:none;stroke:#333333;stroke-width:1.5;"/>
      <defs>
       <path d="M 0 0 
L -2.75 0 
" id="m7ca90f71fc" style="stroke:#333333;"/>
      </defs>
      <g>
       <use style="fill:#333333;stroke:#333333;" x="57.785938" xlink:href="#m7ca90f71fc" y="284.295957"/>
      </g>
     </g>
     <g id="text_6">
      <!-- 0 -->
      <g style="fill:#4d4d4d;" transform="translate(45.200938 287.607207)scale(0.12 -0.12)">
       <use xlink:href="#DejaVuSans-48"/>
      </g>
     </g>
    </g>
    <g id="ytick_2">
     <g id="line2d_17">
      <path clip-path="url(#p9e6f6129eb)" d="M 57.785938 223.191452 
L 414.905938 223.191452 
" style="fill:none;stroke:#d3d3d3;"/>
     </g>
     <g id="line2d_18">
      <path d="M 57.785938 223.191452 
" style="fill:none;stroke:#333333;stroke-width:1.5;"/>
      <g>
       <use style="fill:#333333;stroke:#333333;" x="57.785938" xlink:href="#m7ca90f71fc" y="223.191452"/>
      </g>
     </g>
     <g id="text_7">
      <!-- 0.25 -->
      <defs>
       <path d="M 10.6875 12.40625 
L 21 12.40625 
L 21 0 
L 10.6875 0 
z
" id="DejaVuSans-46"/>
       <path d="M 10.796875 72.90625 
L 49.515625 72.90625 
L 49.515625 64.59375 
L 19.828125 64.59375 
L 19.828125 46.734375 
Q 21.96875 47.46875 24.109375 47.828125 
Q 26.265625 48.1875 28.421875 48.1875 
Q 40.625 48.1875 47.75 41.5 
Q 54.890625 34.8125 54.890625 23.390625 
Q 54.890625 11.625 47.5625 5.09375 
Q 40.234375 -1.421875 26.90625 -1.421875 
Q 22.3125 -1.421875 17.546875 -0.640625 
Q 12.796875 0.140625 7.71875 1.703125 
L 7.71875 11.625 
Q 12.109375 9.234375 16.796875 8.0625 
Q 21.484375 6.890625 26.703125 6.890625 
Q 35.15625 6.890625 40.078125 11.328125 
Q 45.015625 15.765625 45.015625 23.390625 
Q 45.015625 31 40.078125 35.4375 
Q 35.15625 39.890625 26.703125 39.890625 
Q 22.75 39.890625 18.8125 39.015625 
Q 14.890625 38.140625 10.796875 36.28125 
z
" id="DejaVuSans-53"/>
      </defs>
      <g style="fill:#4d4d4d;" transform="translate(26.117188 226.502702)scale(0.12 -0.12)">
       <use xlink:href="#DejaVuSans-48"/>
       <use x="63.623047" xlink:href="#DejaVuSans-46"/>
       <use x="95.410156" xlink:href="#DejaVuSans-50"/>
       <use x="159.033203" xlink:href="#DejaVuSans-53"/>
      </g>
     </g>
    </g>
    <g id="ytick_3">
     <g id="line2d_19">
      <path clip-path="url(#p9e6f6129eb)" d="M 57.785938 162.086947 
L 414.905938 162.086947 
" style="fill:none;stroke:#d3d3d3;"/>
     </g>
     <g id="line2d_20">
      <path d="M 57.785938 162.086947 
" style="fill:none;stroke:#333333;stroke-width:1.5;"/>
      <g>
       <use style="fill:#333333;stroke:#333333;" x="57.785938" xlink:href="#m7ca90f71fc" y="162.086947"/>
      </g>
     </g>
     <g id="text_8">
      <!-- 0.50 -->
      <g style="fill:#4d4d4d;" transform="translate(26.117188 165.398197)scale(0.12 -0.12)">
       <use xlink:href="#DejaVuSans-48"/>
       <use x="63.623047" xlink:href="#DejaVuSans-46"/>
       <use x="95.410156" xlink:href="#DejaVuSans-53"/>
       <use x="159.033203" xlink:href="#DejaVuSans-48"/>
      </g>
     </g>
    </g>
    <g id="ytick_4">
     <g id="line2d_21">
      <path clip-path="url(#p9e6f6129eb)" d="M 57.785938 100.982441 
L 414.905938 100.982441 
" style="fill:none;stroke:#d3d3d3;"/>
     </g>
     <g id="line2d_22">
      <path d="M 57.785938 100.982441 
" style="fill:none;stroke:#333333;stroke-width:1.5;"/>
      <g>
       <use style="fill:#333333;stroke:#333333;" x="57.785938" xlink:href="#m7ca90f71fc" y="100.982441"/>
      </g>
     </g>
     <g id="text_9">
      <!-- 0.75 -->
      <defs>
       <path d="M 8.203125 72.90625 
L 55.078125 72.90625 
L 55.078125 68.703125 
L 28.609375 0 
L 18.3125 0 
L 43.21875 64.59375 
L 8.203125 64.59375 
z
" id="DejaVuSans-55"/>
      </defs>
      <g style="fill:#4d4d4d;" transform="translate(26.117188 104.293691)scale(0.12 -0.12)">
       <use xlink:href="#DejaVuSans-48"/>
       <use x="63.623047" xlink:href="#DejaVuSans-46"/>
       <use x="95.410156" xlink:href="#DejaVuSans-55"/>
       <use x="159.033203" xlink:href="#DejaVuSans-53"/>
      </g>
     </g>
    </g>
    <g id="ytick_5">
     <g id="line2d_23">
      <path clip-path="url(#p9e6f6129eb)" d="M 57.785938 39.877936 
L 414.905938 39.877936 
" style="fill:none;stroke:#d3d3d3;"/>
     </g>
     <g id="line2d_24">
      <path d="M 57.785938 39.877936 
" style="fill:none;stroke:#333333;stroke-width:1.5;"/>
      <g>
       <use style="fill:#333333;stroke:#333333;" x="57.785938" xlink:href="#m7ca90f71fc" y="39.877936"/>
      </g>
     </g>
     <g id="text_10">
      <!-- 1 -->
      <defs>
       <path d="M 12.40625 8.296875 
L 28.515625 8.296875 
L 28.515625 63.921875 
L 10.984375 60.40625 
L 10.984375 69.390625 
L 28.421875 72.90625 
L 38.28125 72.90625 
L 38.28125 8.296875 
L 54.390625 8.296875 
L 54.390625 0 
L 12.40625 0 
z
" id="DejaVuSans-49"/>
      </defs>
      <g style="fill:#4d4d4d;" transform="translate(45.200938 43.189186)scale(0.12 -0.12)">
       <use xlink:href="#DejaVuSans-49"/>
      </g>
     </g>
    </g>
    <g id="ytick_6">
     <g id="line2d_25">
      <path clip-path="url(#p9e6f6129eb)" d="M 57.785938 253.743704 
L 414.905938 253.743704 
" style="fill:none;stroke:#ffffff;stroke-width:0.5;"/>
     </g>
     <g id="line2d_26">
      <path d="M 57.785938 253.743704 
" style="fill:none;stroke:#333333;stroke-width:1.5;"/>
     </g>
    </g>
    <g id="ytick_7">
     <g id="line2d_27">
      <path clip-path="url(#p9e6f6129eb)" d="M 57.785938 192.639199 
L 414.905938 192.639199 
" style="fill:none;stroke:#ffffff;stroke-width:0.5;"/>
     </g>
     <g id="line2d_28">
      <path d="M 57.785938 192.639199 
" style="fill:none;stroke:#333333;stroke-width:1.5;"/>
     </g>
    </g>
    <g id="ytick_8">
     <g id="line2d_29">
      <path clip-path="url(#p9e6f6129eb)" d="M 57.785938 131.534694 
L 414.905938 131.534694 
" style="fill:none;stroke:#ffffff;stroke-width:0.5;"/>
     </g>
     <g id="line2d_30">
      <path d="M 57.785938 131.534694 
" style="fill:none;stroke:#333333;stroke-width:1.5;"/>
     </g>
    </g>
    <g id="ytick_9">
     <g id="line2d_31">
      <path clip-path="url(#p9e6f6129eb)" d="M 57.785938 70.430189 
L 414.905938 70.430189 
" style="fill:none;stroke:#ffffff;stroke-width:0.5;"/>
     </g>
     <g id="line2d_32">
      <path d="M 57.785938 70.430189 
" style="fill:none;stroke:#333333;stroke-width:1.5;"/>
     </g>
    </g>
    <g id="text_11">
     <!-- Similarity score (SVCCA) -->
     <defs>
      <path d="M 53.515625 70.515625 
L 53.515625 60.890625 
Q 47.90625 63.578125 42.921875 64.890625 
Q 37.9375 66.21875 33.296875 66.21875 
Q 25.25 66.21875 20.875 63.09375 
Q 16.5 59.96875 16.5 54.203125 
Q 16.5 49.359375 19.40625 46.890625 
Q 22.3125 44.4375 30.421875 42.921875 
L 36.375 41.703125 
Q 47.40625 39.59375 52.65625 34.296875 
Q 57.90625 29 57.90625 20.125 
Q 57.90625 9.515625 50.796875 4.046875 
Q 43.703125 -1.421875 29.984375 -1.421875 
Q 24.8125 -1.421875 18.96875 -0.25 
Q 13.140625 0.921875 6.890625 3.21875 
L 6.890625 13.375 
Q 12.890625 10.015625 18.65625 8.296875 
Q 24.421875 6.59375 29.984375 6.59375 
Q 38.421875 6.59375 43.015625 9.90625 
Q 47.609375 13.234375 47.609375 19.390625 
Q 47.609375 24.75 44.3125 27.78125 
Q 41.015625 30.8125 33.5 32.328125 
L 27.484375 33.5 
Q 16.453125 35.6875 11.515625 40.375 
Q 6.59375 45.0625 6.59375 53.421875 
Q 6.59375 63.09375 13.40625 68.65625 
Q 20.21875 74.21875 32.171875 74.21875 
Q 37.3125 74.21875 42.625 73.28125 
Q 47.953125 72.359375 53.515625 70.515625 
z
" id="DejaVuSans-83"/>
      <path d="M 9.421875 75.984375 
L 18.40625 75.984375 
L 18.40625 0 
L 9.421875 0 
z
" id="DejaVuSans-108"/>
      <path d="M 32.171875 -5.078125 
Q 28.375 -14.84375 24.75 -17.8125 
Q 21.140625 -20.796875 15.09375 -20.796875 
L 7.90625 -20.796875 
L 7.90625 -13.28125 
L 13.1875 -13.28125 
Q 16.890625 -13.28125 18.9375 -11.515625 
Q 21 -9.765625 23.484375 -3.21875 
L 25.09375 0.875 
L 2.984375 54.6875 
L 12.5 54.6875 
L 29.59375 11.921875 
L 46.6875 54.6875 
L 56.203125 54.6875 
z
" id="DejaVuSans-121"/>
      <path d="M 48.78125 52.59375 
L 48.78125 44.1875 
Q 44.96875 46.296875 41.140625 47.34375 
Q 37.3125 48.390625 33.40625 48.390625 
Q 24.65625 48.390625 19.8125 42.84375 
Q 14.984375 37.3125 14.984375 27.296875 
Q 14.984375 17.28125 19.8125 11.734375 
Q 24.65625 6.203125 33.40625 6.203125 
Q 37.3125 6.203125 41.140625 7.25 
Q 44.96875 8.296875 48.78125 10.40625 
L 48.78125 2.09375 
Q 45.015625 0.34375 40.984375 -0.53125 
Q 36.96875 -1.421875 32.421875 -1.421875 
Q 20.0625 -1.421875 12.78125 6.34375 
Q 5.515625 14.109375 5.515625 27.296875 
Q 5.515625 40.671875 12.859375 48.328125 
Q 20.21875 56 33.015625 56 
Q 37.15625 56 41.109375 55.140625 
Q 45.0625 54.296875 48.78125 52.59375 
z
" id="DejaVuSans-99"/>
      <path d="M 31 75.875 
Q 24.46875 64.65625 21.28125 53.65625 
Q 18.109375 42.671875 18.109375 31.390625 
Q 18.109375 20.125 21.3125 9.0625 
Q 24.515625 -2 31 -13.1875 
L 23.1875 -13.1875 
Q 15.875 -1.703125 12.234375 9.375 
Q 8.59375 20.453125 8.59375 31.390625 
Q 8.59375 42.28125 12.203125 53.3125 
Q 15.828125 64.359375 23.1875 75.875 
z
" id="DejaVuSans-40"/>
      <path d="M 28.609375 0 
L 0.78125 72.90625 
L 11.078125 72.90625 
L 34.1875 11.53125 
L 57.328125 72.90625 
L 67.578125 72.90625 
L 39.796875 0 
z
" id="DejaVuSans-86"/>
      <path d="M 64.40625 67.28125 
L 64.40625 56.890625 
Q 59.421875 61.53125 53.78125 63.8125 
Q 48.140625 66.109375 41.796875 66.109375 
Q 29.296875 66.109375 22.65625 58.46875 
Q 16.015625 50.828125 16.015625 36.375 
Q 16.015625 21.96875 22.65625 14.328125 
Q 29.296875 6.6875 41.796875 6.6875 
Q 48.140625 6.6875 53.78125 8.984375 
Q 59.421875 11.28125 64.40625 15.921875 
L 64.40625 5.609375 
Q 59.234375 2.09375 53.4375 0.328125 
Q 47.65625 -1.421875 41.21875 -1.421875 
Q 24.65625 -1.421875 15.125 8.703125 
Q 5.609375 18.84375 5.609375 36.375 
Q 5.609375 53.953125 15.125 64.078125 
Q 24.65625 74.21875 41.21875 74.21875 
Q 47.75 74.21875 53.53125 72.484375 
Q 59.328125 70.75 64.40625 67.28125 
z
" id="DejaVuSans-67"/>
      <path d="M 34.1875 63.1875 
L 20.796875 26.90625 
L 47.609375 26.90625 
z
M 28.609375 72.90625 
L 39.796875 72.90625 
L 67.578125 0 
L 57.328125 0 
L 50.6875 18.703125 
L 17.828125 18.703125 
L 11.1875 0 
L 0.78125 0 
z
" id="DejaVuSans-65"/>
      <path d="M 8.015625 75.875 
L 15.828125 75.875 
Q 23.140625 64.359375 26.78125 53.3125 
Q 30.421875 42.28125 30.421875 31.390625 
Q 30.421875 20.453125 26.78125 9.375 
Q 23.140625 -1.703125 15.828125 -13.1875 
L 8.015625 -13.1875 
Q 14.5 -2 17.703125 9.0625 
Q 20.90625 20.125 20.90625 31.390625 
Q 20.90625 42.671875 17.703125 53.65625 
Q 14.5 64.65625 8.015625 75.875 
z
" id="DejaVuSans-41"/>
     </defs>
     <g transform="translate(18.597656 251.002782)rotate(-90)scale(0.15 -0.15)">
      <use xlink:href="#DejaVuSans-83"/>
      <use x="63.476562" xlink:href="#DejaVuSans-105"/>
      <use x="91.259766" xlink:href="#DejaVuSans-109"/>
      <use x="188.671875" xlink:href="#DejaVuSans-105"/>
      <use x="216.455078" xlink:href="#DejaVuSans-108"/>
      <use x="244.238281" xlink:href="#DejaVuSans-97"/>
      <use x="305.517578" xlink:href="#DejaVuSans-114"/>
      <use x="346.630859" xlink:href="#DejaVuSans-105"/>
      <use x="374.414062" xlink:href="#DejaVuSans-116"/>
      <use x="413.623047" xlink:href="#DejaVuSans-121"/>
      <use x="472.802734" xlink:href="#DejaVuSans-32"/>
      <use x="504.589844" xlink:href="#DejaVuSans-115"/>
      <use x="556.689453" xlink:href="#DejaVuSans-99"/>
      <use x="611.669922" xlink:href="#DejaVuSans-111"/>
      <use x="672.851562" xlink:href="#DejaVuSans-114"/>
      <use x="713.933594" xlink:href="#DejaVuSans-101"/>
      <use x="775.457031" xlink:href="#DejaVuSans-32"/>
      <use x="807.244141" xlink:href="#DejaVuSans-40"/>
      <use x="846.257812" xlink:href="#DejaVuSans-83"/>
      <use x="909.734375" xlink:href="#DejaVuSans-86"/>
      <use x="978.142578" xlink:href="#DejaVuSans-67"/>
      <use x="1047.966797" xlink:href="#DejaVuSans-67"/>
      <use x="1117.791016" xlink:href="#DejaVuSans-65"/>
      <use x="1186.199219" xlink:href="#DejaVuSans-41"/>
     </g>
    </g>
   </g>
   <g id="line2d_33">
    <path clip-path="url(#p9e6f6129eb)" d="M 74.032193 39.879399 
L 74.086307 39.895602 
L 74.248648 39.968661 
L 74.519216 40.06438 
L 75.060352 40.238122 
L 76.68376 40.92178 
L 79.38944 41.872194 
L 101.03488 50.320352 
L 128.09168 61.278844 
L 182.20528 85.41085 
L 236.318881 114.149986 
L 398.659682 279.996265 
" style="fill:none;stroke:#1976d2;stroke-width:2.658681;"/>
   </g>
   <g id="line2d_34">
    <path clip-path="url(#p9e6f6129eb)" d="M 74.032193 39.87942 
L 74.086307 63.991219 
L 74.248648 134.739762 
L 74.519216 215.520834 
L 75.060352 120.936523 
L 76.68376 41.971256 
L 79.38944 40.644311 
L 101.03488 40.322843 
L 128.09168 40.305313 
L 182.20528 40.270029 
L 236.318881 40.274746 
L 398.659682 40.257911 
" style="fill:none;stroke:#b3e5fc;stroke-width:2.658681;"/>
   </g>
   <g id="PathCollection_1">
    <path clip-path="url(#p9e6f6129eb)" d="M 74.032193 40.765647 
C 74.267223 40.765647 74.492659 40.672268 74.65885 40.506077 
C 74.825042 40.339885 74.91842 40.11445 74.91842 39.87942 
C 74.91842 39.64439 74.825042 39.418954 74.65885 39.252763 
C 74.492659 39.086571 74.267223 38.993193 74.032193 38.993193 
C 73.797163 38.993193 73.571728 39.086571 73.405536 39.252763 
C 73.239345 39.418954 73.145966 39.64439 73.145966 39.87942 
C 73.145966 40.11445 73.239345 40.339885 73.405536 40.506077 
C 73.571728 40.672268 73.797163 40.765647 74.032193 40.765647 
z
" style="fill:#a9a9a9;stroke:#a9a9a9;stroke-width:0.886227;"/>
    <path clip-path="url(#p9e6f6129eb)" d="M 74.086307 64.877446 
C 74.321337 64.877446 74.546772 64.784067 74.712964 64.617876 
C 74.879155 64.451685 74.972534 64.226249 74.972534 63.991219 
C 74.972534 63.756189 74.879155 63.530753 74.712964 63.364562 
C 74.546772 63.19837 74.321337 63.104992 74.086307 63.104992 
C 73.851277 63.104992 73.625841 63.19837 73.45965 63.364562 
C 73.293458 63.530753 73.20008 63.756189 73.20008 63.991219 
C 73.20008 64.226249 73.293458 64.451685 73.45965 64.617876 
C 73.625841 64.784067 73.851277 64.877446 74.086307 64.877446 
z
" style="fill:#a9a9a9;stroke:#a9a9a9;stroke-width:0.886227;"/>
    <path clip-path="url(#p9e6f6129eb)" d="M 74.248648 135.625989 
C 74.483678 135.625989 74.709113 135.53261 74.875305 135.366419 
C 75.041496 135.200228 75.134874 134.974792 75.134874 134.739762 
C 75.134874 134.504732 75.041496 134.279296 74.875305 134.113105 
C 74.709113 133.946913 74.483678 133.853535 74.248648 133.853535 
C 74.013617 133.853535 73.788182 133.946913 73.621991 134.113105 
C 73.455799 134.279296 73.362421 134.504732 73.362421 134.739762 
C 73.362421 134.974792 73.455799 135.200228 73.621991 135.366419 
C 73.788182 135.53261 74.013617 135.625989 74.248648 135.625989 
z
" style="fill:#a9a9a9;stroke:#a9a9a9;stroke-width:0.886227;"/>
    <path clip-path="url(#p9e6f6129eb)" d="M 74.519216 216.407061 
C 74.754246 216.407061 74.979681 216.313683 75.145873 216.147491 
C 75.312064 215.9813 75.405443 215.755864 75.405443 215.520834 
C 75.405443 215.285804 75.312064 215.060369 75.145873 214.894177 
C 74.979681 214.727986 74.754246 214.634607 74.519216 214.634607 
C 74.284185 214.634607 74.05875 214.727986 73.892559 214.894177 
C 73.726367 215.060369 73.632989 215.285804 73.632989 215.520834 
C 73.632989 215.755864 73.726367 215.9813 73.892559 216.147491 
C 74.05875 216.313683 74.284185 216.407061 74.519216 216.407061 
z
" style="fill:#a9a9a9;stroke:#a9a9a9;stroke-width:0.886227;"/>
    <path clip-path="url(#p9e6f6129eb)" d="M 75.060352 121.82275 
C 75.295382 121.82275 75.520817 121.729372 75.687009 121.56318 
C 75.8532 121.396989 75.946579 121.171554 75.946579 120.936523 
C 75.946579 120.701493 75.8532 120.476058 75.687009 120.309866 
C 75.520817 120.143675 75.295382 120.050296 75.060352 120.050296 
C 74.825321 120.050296 74.599886 120.143675 74.433695 120.309866 
C 74.267503 120.476058 74.174125 120.701493 74.174125 120.936523 
C 74.174125 121.171554 74.267503 121.396989 74.433695 121.56318 
C 74.599886 121.729372 74.825321 121.82275 75.060352 121.82275 
z
" style="fill:#a9a9a9;stroke:#a9a9a9;stroke-width:0.886227;"/>
    <path clip-path="url(#p9e6f6129eb)" d="M 76.68376 42.857483 
C 76.91879 42.857483 77.144225 42.764105 77.310417 42.597913 
C 77.476608 42.431722 77.569987 42.206286 77.569987 41.971256 
C 77.569987 41.736226 77.476608 41.51079 77.310417 41.344599 
C 77.144225 41.178408 76.91879 41.085029 76.68376 41.085029 
C 76.448729 41.085029 76.223294 41.178408 76.057103 41.344599 
C 75.890911 41.51079 75.797533 41.736226 75.797533 41.971256 
C 75.797533 42.206286 75.890911 42.431722 76.057103 42.597913 
C 76.223294 42.764105 76.448729 42.857483 76.68376 42.857483 
z
" style="fill:#a9a9a9;stroke:#a9a9a9;stroke-width:0.886227;"/>
    <path clip-path="url(#p9e6f6129eb)" d="M 79.38944 41.530538 
C 79.62447 41.530538 79.849905 41.43716 80.016097 41.270968 
C 80.182288 41.104777 80.275667 40.879341 80.275667 40.644311 
C 80.275667 40.409281 80.182288 40.183845 80.016097 40.017654 
C 79.849905 39.851463 79.62447 39.758084 79.38944 39.758084 
C 79.154409 39.758084 78.928974 39.851463 78.762783 40.017654 
C 78.596591 40.183845 78.503213 40.409281 78.503213 40.644311 
C 78.503213 40.879341 78.596591 41.104777 78.762783 41.270968 
C 78.928974 41.43716 79.154409 41.530538 79.38944 41.530538 
z
" style="fill:#a9a9a9;stroke:#a9a9a9;stroke-width:0.886227;"/>
    <path clip-path="url(#p9e6f6129eb)" d="M 101.03488 41.20907 
C 101.26991 41.20907 101.495345 41.115692 101.661537 40.9495 
C 101.827728 40.783309 101.921107 40.557873 101.921107 40.322843 
C 101.921107 40.087813 101.827728 39.862378 101.661537 39.696186 
C 101.495345 39.529995 101.26991 39.436616 101.03488 39.436616 
C 100.79985 39.436616 100.574414 39.529995 100.408223 39.696186 
C 100.242031 39.862378 100.148653 40.087813 100.148653 40.322843 
C 100.148653 40.557873 100.242031 40.783309 100.408223 40.9495 
C 100.574414 41.115692 100.79985 41.20907 101.03488 41.20907 
z
" style="fill:#a9a9a9;stroke:#a9a9a9;stroke-width:0.886227;"/>
    <path clip-path="url(#p9e6f6129eb)" d="M 128.09168 41.19154 
C 128.32671 41.19154 128.552146 41.098161 128.718337 40.93197 
C 128.884528 40.765779 128.977907 40.540343 128.977907 40.305313 
C 128.977907 40.070283 128.884528 39.844847 128.718337 39.678656 
C 128.552146 39.512464 128.32671 39.419086 128.09168 39.419086 
C 127.85665 39.419086 127.631214 39.512464 127.465023 39.678656 
C 127.298831 39.844847 127.205453 40.070283 127.205453 40.305313 
C 127.205453 40.540343 127.298831 40.765779 127.465023 40.93197 
C 127.631214 41.098161 127.85665 41.19154 128.09168 41.19154 
z
" style="fill:#a9a9a9;stroke:#a9a9a9;stroke-width:0.886227;"/>
    <path clip-path="url(#p9e6f6129eb)" d="M 182.20528 41.156256 
C 182.44031 41.156256 182.665746 41.062878 182.831937 40.896686 
C 182.998129 40.730495 183.091507 40.505059 183.091507 40.270029 
C 183.091507 40.034999 182.998129 39.809564 182.831937 39.643372 
C 182.665746 39.477181 182.44031 39.383802 182.20528 39.383802 
C 181.97025 39.383802 181.744815 39.477181 181.578623 39.643372 
C 181.412432 39.809564 181.319053 40.034999 181.319053 40.270029 
C 181.319053 40.505059 181.412432 40.730495 181.578623 40.896686 
C 181.744815 41.062878 181.97025 41.156256 182.20528 41.156256 
z
" style="fill:#a9a9a9;stroke:#a9a9a9;stroke-width:0.886227;"/>
    <path clip-path="url(#p9e6f6129eb)" d="M 236.318881 41.160973 
C 236.553911 41.160973 236.779346 41.067594 236.945538 40.901403 
C 237.111729 40.735211 237.205108 40.509776 237.205108 40.274746 
C 237.205108 40.039716 237.111729 39.81428 236.945538 39.648089 
C 236.779346 39.481897 236.553911 39.388519 236.318881 39.388519 
C 236.083851 39.388519 235.858415 39.481897 235.692224 39.648089 
C 235.526032 39.81428 235.432654 40.039716 235.432654 40.274746 
C 235.432654 40.509776 235.526032 40.735211 235.692224 40.901403 
C 235.858415 41.067594 236.083851 41.160973 236.318881 41.160973 
z
" style="fill:#a9a9a9;stroke:#a9a9a9;stroke-width:0.886227;"/>
    <path clip-path="url(#p9e6f6129eb)" d="M 398.659682 41.144138 
C 398.894712 41.144138 399.120147 41.05076 399.286339 40.884568 
C 399.45253 40.718377 399.545909 40.492941 399.545909 40.257911 
C 399.545909 40.022881 399.45253 39.797446 399.286339 39.631254 
C 399.120147 39.465063 398.894712 39.371684 398.659682 39.371684 
C 398.424652 39.371684 398.199216 39.465063 398.033025 39.631254 
C 397.866833 39.797446 397.773455 40.022881 397.773455 40.257911 
C 397.773455 40.492941 397.866833 40.718377 398.033025 40.884568 
C 398.199216 41.05076 398.424652 41.144138 398.659682 41.144138 
z
" style="fill:#a9a9a9;stroke:#a9a9a9;stroke-width:0.886227;"/>
    <path clip-path="url(#p9e6f6129eb)" d="M 74.032193 40.765626 
C 74.267223 40.765626 74.492659 40.672247 74.65885 40.506056 
C 74.825042 40.339865 74.91842 40.114429 74.91842 39.879399 
C 74.91842 39.644369 74.825042 39.418933 74.65885 39.252742 
C 74.492659 39.086551 74.267223 38.993172 74.032193 38.993172 
C 73.797163 38.993172 73.571728 39.086551 73.405536 39.252742 
C 73.239345 39.418933 73.145966 39.644369 73.145966 39.879399 
C 73.145966 40.114429 73.239345 40.339865 73.405536 40.506056 
C 73.571728 40.672247 73.797163 40.765626 74.032193 40.765626 
z
" style="fill:#a9a9a9;stroke:#a9a9a9;stroke-width:0.886227;"/>
    <path clip-path="url(#p9e6f6129eb)" d="M 74.086307 40.781828 
C 74.321337 40.781828 74.546772 40.68845 74.712964 40.522259 
C 74.879155 40.356067 74.972534 40.130632 74.972534 39.895602 
C 74.972534 39.660571 74.879155 39.435136 74.712964 39.268944 
C 74.546772 39.102753 74.321337 39.009375 74.086307 39.009375 
C 73.851277 39.009375 73.625841 39.102753 73.45965 39.268944 
C 73.293458 39.435136 73.20008 39.660571 73.20008 39.895602 
C 73.20008 40.130632 73.293458 40.356067 73.45965 40.522259 
C 73.625841 40.68845 73.851277 40.781828 74.086307 40.781828 
z
" style="fill:#a9a9a9;stroke:#a9a9a9;stroke-width:0.886227;"/>
    <path clip-path="url(#p9e6f6129eb)" d="M 74.248648 40.854887 
C 74.483678 40.854887 74.709113 40.761509 74.875305 40.595318 
C 75.041496 40.429126 75.134874 40.203691 75.134874 39.968661 
C 75.134874 39.73363 75.041496 39.508195 74.875305 39.342003 
C 74.709113 39.175812 74.483678 39.082434 74.248648 39.082434 
C 74.013617 39.082434 73.788182 39.175812 73.621991 39.342003 
C 73.455799 39.508195 73.362421 39.73363 73.362421 39.968661 
C 73.362421 40.203691 73.455799 40.429126 73.621991 40.595318 
C 73.788182 40.761509 74.013617 40.854887 74.248648 40.854887 
z
" style="fill:#a9a9a9;stroke:#a9a9a9;stroke-width:0.886227;"/>
    <path clip-path="url(#p9e6f6129eb)" d="M 74.519216 40.950607 
C 74.754246 40.950607 74.979681 40.857228 75.145873 40.691037 
C 75.312064 40.524846 75.405443 40.29941 75.405443 40.06438 
C 75.405443 39.82935 75.312064 39.603914 75.145873 39.437723 
C 74.979681 39.271531 74.754246 39.178153 74.519216 39.178153 
C 74.284185 39.178153 74.05875 39.271531 73.892559 39.437723 
C 73.726367 39.603914 73.632989 39.82935 73.632989 40.06438 
C 73.632989 40.29941 73.726367 40.524846 73.892559 40.691037 
C 74.05875 40.857228 74.284185 40.950607 74.519216 40.950607 
z
" style="fill:#a9a9a9;stroke:#a9a9a9;stroke-width:0.886227;"/>
    <path clip-path="url(#p9e6f6129eb)" d="M 75.060352 41.124349 
C 75.295382 41.124349 75.520817 41.030971 75.687009 40.864779 
C 75.8532 40.698588 75.946579 40.473152 75.946579 40.238122 
C 75.946579 40.003092 75.8532 39.777657 75.687009 39.611465 
C 75.520817 39.445274 75.295382 39.351895 75.060352 39.351895 
C 74.825321 39.351895 74.599886 39.445274 74.433695 39.611465 
C 74.267503 39.777657 74.174125 40.003092 74.174125 40.238122 
C 74.174125 40.473152 74.267503 40.698588 74.433695 40.864779 
C 74.599886 41.030971 74.825321 41.124349 75.060352 41.124349 
z
" style="fill:#a9a9a9;stroke:#a9a9a9;stroke-width:0.886227;"/>
    <path clip-path="url(#p9e6f6129eb)" d="M 76.68376 41.808007 
C 76.91879 41.808007 77.144225 41.714629 77.310417 41.548437 
C 77.476608 41.382246 77.569987 41.15681 77.569987 40.92178 
C 77.569987 40.68675 77.476608 40.461314 77.310417 40.295123 
C 77.144225 40.128932 76.91879 40.035553 76.68376 40.035553 
C 76.448729 40.035553 76.223294 40.128932 76.057103 40.295123 
C 75.890911 40.461314 75.797533 40.68675 75.797533 40.92178 
C 75.797533 41.15681 75.890911 41.382246 76.057103 41.548437 
C 76.223294 41.714629 76.448729 41.808007 76.68376 41.808007 
z
" style="fill:#a9a9a9;stroke:#a9a9a9;stroke-width:0.886227;"/>
    <path clip-path="url(#p9e6f6129eb)" d="M 79.38944 42.758421 
C 79.62447 42.758421 79.849905 42.665043 80.016097 42.498851 
C 80.182288 42.33266 80.275667 42.107224 80.275667 41.872194 
C 80.275667 41.637164 80.182288 41.411728 80.016097 41.245537 
C 79.849905 41.079346 79.62447 40.985967 79.38944 40.985967 
C 79.154409 40.985967 78.928974 41.079346 78.762783 41.245537 
C 78.596591 41.411728 78.503213 41.637164 78.503213 41.872194 
C 78.503213 42.107224 78.596591 42.33266 78.762783 42.498851 
C 78.928974 42.665043 79.154409 42.758421 79.38944 42.758421 
z
" style="fill:#a9a9a9;stroke:#a9a9a9;stroke-width:0.886227;"/>
    <path clip-path="url(#p9e6f6129eb)" d="M 101.03488 51.206578 
C 101.26991 51.206578 101.495345 51.1132 101.661537 50.947009 
C 101.827728 50.780817 101.921107 50.555382 101.921107 50.320352 
C 101.921107 50.085321 101.827728 49.859886 101.661537 49.693694 
C 101.495345 49.527503 101.26991 49.434125 101.03488 49.434125 
C 100.79985 49.434125 100.574414 49.527503 100.408223 49.693694 
C 100.242031 49.859886 100.148653 50.085321 100.148653 50.320352 
C 100.148653 50.555382 100.242031 50.780817 100.408223 50.947009 
C 100.574414 51.1132 100.79985 51.206578 101.03488 51.206578 
z
" style="fill:#a9a9a9;stroke:#a9a9a9;stroke-width:0.886227;"/>
    <path clip-path="url(#p9e6f6129eb)" d="M 128.09168 62.165071 
C 128.32671 62.165071 128.552146 62.071692 128.718337 61.905501 
C 128.884528 61.739309 128.977907 61.513874 128.977907 61.278844 
C 128.977907 61.043814 128.884528 60.818378 128.718337 60.652187 
C 128.552146 60.485995 128.32671 60.392617 128.09168 60.392617 
C 127.85665 60.392617 127.631214 60.485995 127.465023 60.652187 
C 127.298831 60.818378 127.205453 61.043814 127.205453 61.278844 
C 127.205453 61.513874 127.298831 61.739309 127.465023 61.905501 
C 127.631214 62.071692 127.85665 62.165071 128.09168 62.165071 
z
" style="fill:#a9a9a9;stroke:#a9a9a9;stroke-width:0.886227;"/>
    <path clip-path="url(#p9e6f6129eb)" d="M 182.20528 86.297077 
C 182.44031 86.297077 182.665746 86.203699 182.831937 86.037507 
C 182.998129 85.871316 183.091507 85.64588 183.091507 85.41085 
C 183.091507 85.17582 182.998129 84.950385 182.831937 84.784193 
C 182.665746 84.618002 182.44031 84.524623 182.20528 84.524623 
C 181.97025 84.524623 181.744815 84.618002 181.578623 84.784193 
C 181.412432 84.950385 181.319053 85.17582 181.319053 85.41085 
C 181.319053 85.64588 181.412432 85.871316 181.578623 86.037507 
C 181.744815 86.203699 181.97025 86.297077 182.20528 86.297077 
z
" style="fill:#a9a9a9;stroke:#a9a9a9;stroke-width:0.886227;"/>
    <path clip-path="url(#p9e6f6129eb)" d="M 236.318881 115.036213 
C 236.553911 115.036213 236.779346 114.942835 236.945538 114.776643 
C 237.111729 114.610452 237.205108 114.385017 237.205108 114.149986 
C 237.205108 113.914956 237.111729 113.689521 236.945538 113.523329 
C 236.779346 113.357138 236.553911 113.263759 236.318881 113.263759 
C 236.083851 113.263759 235.858415 113.357138 235.692224 113.523329 
C 235.526032 113.689521 235.432654 113.914956 235.432654 114.149986 
C 235.432654 114.385017 235.526032 114.610452 235.692224 114.776643 
C 235.858415 114.942835 236.083851 115.036213 236.318881 115.036213 
z
" style="fill:#a9a9a9;stroke:#a9a9a9;stroke-width:0.886227;"/>
    <path clip-path="url(#p9e6f6129eb)" d="M 398.659682 280.882492 
C 398.894712 280.882492 399.120147 280.789113 399.286339 280.622922 
C 399.45253 280.456731 399.545909 280.231295 399.545909 279.996265 
C 399.545909 279.761235 399.45253 279.535799 399.286339 279.369608 
C 399.120147 279.203417 398.894712 279.110038 398.659682 279.110038 
C 398.424652 279.110038 398.199216 279.203417 398.033025 279.369608 
C 397.866833 279.535799 397.773455 279.761235 397.773455 279.996265 
C 397.773455 280.231295 397.866833 280.456731 398.033025 280.622922 
C 398.199216 280.789113 398.424652 280.882492 398.659682 280.882492 
z
" style="fill:#a9a9a9;stroke:#a9a9a9;stroke-width:0.886227;"/>
   </g>
   <g id="patch_3">
    <path d="M 57.785938 293.895376 
L 57.785938 27.783376 
" style="fill:none;stroke:#808080;stroke-linecap:square;stroke-linejoin:miter;"/>
   </g>
   <g id="patch_4">
    <path d="M 57.785938 293.895376 
L 414.905938 293.895376 
" style="fill:none;stroke:#808080;stroke-linecap:square;stroke-linejoin:miter;"/>
   </g>
   <g id="LineCollection_1">
    <path clip-path="url(#p9e6f6129eb)" d="M 74.018665 39.879436 
L 74.045722 39.879436 
" style="fill:none;stroke:#a9a9a9;stroke-width:0.886227;"/>
    <path clip-path="url(#p9e6f6129eb)" d="M 74.072778 64.167461 
L 74.099835 64.167461 
" style="fill:none;stroke:#a9a9a9;stroke-width:0.886227;"/>
    <path clip-path="url(#p9e6f6129eb)" d="M 74.235119 135.088683 
L 74.262176 135.088683 
" style="fill:none;stroke:#a9a9a9;stroke-width:0.886227;"/>
    <path clip-path="url(#p9e6f6129eb)" d="M 74.505687 216.720031 
L 74.532744 216.720031 
" style="fill:none;stroke:#a9a9a9;stroke-width:0.886227;"/>
    <path clip-path="url(#p9e6f6129eb)" d="M 75.046823 122.346853 
L 75.07388 122.346853 
" style="fill:none;stroke:#a9a9a9;stroke-width:0.886227;"/>
    <path clip-path="url(#p9e6f6129eb)" d="M 76.670231 42.164203 
L 76.697288 42.164203 
" style="fill:none;stroke:#a9a9a9;stroke-width:0.886227;"/>
    <path clip-path="url(#p9e6f6129eb)" d="M 79.375911 40.682463 
L 79.402968 40.682463 
" style="fill:none;stroke:#a9a9a9;stroke-width:0.886227;"/>
    <path clip-path="url(#p9e6f6129eb)" d="M 101.021351 40.359861 
L 101.048408 40.359861 
" style="fill:none;stroke:#a9a9a9;stroke-width:0.886227;"/>
    <path clip-path="url(#p9e6f6129eb)" d="M 128.078152 40.344935 
L 128.105208 40.344935 
" style="fill:none;stroke:#a9a9a9;stroke-width:0.886227;"/>
    <path clip-path="url(#p9e6f6129eb)" d="M 182.191752 40.275422 
L 182.218809 40.275422 
" style="fill:none;stroke:#a9a9a9;stroke-width:0.886227;"/>
    <path clip-path="url(#p9e6f6129eb)" d="M 236.305352 40.282821 
L 236.332409 40.282821 
" style="fill:none;stroke:#a9a9a9;stroke-width:0.886227;"/>
    <path clip-path="url(#p9e6f6129eb)" d="M 398.646153 40.260707 
L 398.67321 40.260707 
" style="fill:none;stroke:#a9a9a9;stroke-width:0.886227;"/>
    <path clip-path="url(#p9e6f6129eb)" d="M 74.018665 39.879422 
L 74.045722 39.879422 
" style="fill:none;stroke:#a9a9a9;stroke-width:0.886227;"/>
    <path clip-path="url(#p9e6f6129eb)" d="M 74.072778 39.90304 
L 74.099835 39.90304 
" style="fill:none;stroke:#a9a9a9;stroke-width:0.886227;"/>
    <path clip-path="url(#p9e6f6129eb)" d="M 74.235119 39.976874 
L 74.262176 39.976874 
" style="fill:none;stroke:#a9a9a9;stroke-width:0.886227;"/>
    <path clip-path="url(#p9e6f6129eb)" d="M 74.505687 40.079366 
L 74.532744 40.079366 
" style="fill:none;stroke:#a9a9a9;stroke-width:0.886227;"/>
    <path clip-path="url(#p9e6f6129eb)" d="M 75.046823 40.250835 
L 75.07388 40.250835 
" style="fill:none;stroke:#a9a9a9;stroke-width:0.886227;"/>
    <path clip-path="url(#p9e6f6129eb)" d="M 76.670231 40.958851 
L 76.697288 40.958851 
" style="fill:none;stroke:#a9a9a9;stroke-width:0.886227;"/>
    <path clip-path="url(#p9e6f6129eb)" d="M 79.375911 41.929279 
L 79.402968 41.929279 
" style="fill:none;stroke:#a9a9a9;stroke-width:0.886227;"/>
    <path clip-path="url(#p9e6f6129eb)" d="M 101.021351 50.357946 
L 101.048408 50.357946 
" style="fill:none;stroke:#a9a9a9;stroke-width:0.886227;"/>
    <path clip-path="url(#p9e6f6129eb)" d="M 128.078152 61.605009 
L 128.105208 61.605009 
" style="fill:none;stroke:#a9a9a9;stroke-width:0.886227;"/>
    <path clip-path="url(#p9e6f6129eb)" d="M 182.191752 85.640632 
L 182.218809 85.640632 
" style="fill:none;stroke:#a9a9a9;stroke-width:0.886227;"/>
    <path clip-path="url(#p9e6f6129eb)" d="M 236.305352 117.507979 
L 236.332409 117.507979 
" style="fill:none;stroke:#a9a9a9;stroke-width:0.886227;"/>
    <path clip-path="url(#p9e6f6129eb)" d="M 398.646153 281.799376 
L 398.67321 281.799376 
" style="fill:none;stroke:#a9a9a9;stroke-width:0.886227;"/>
    <path clip-path="url(#p9e6f6129eb)" d="M 74.018665 39.879404 
L 74.045722 39.879404 
" style="fill:none;stroke:#a9a9a9;stroke-width:0.886227;"/>
    <path clip-path="url(#p9e6f6129eb)" d="M 74.072778 63.814977 
L 74.099835 63.814977 
" style="fill:none;stroke:#a9a9a9;stroke-width:0.886227;"/>
    <path clip-path="url(#p9e6f6129eb)" d="M 74.235119 134.390841 
L 74.262176 134.390841 
" style="fill:none;stroke:#a9a9a9;stroke-width:0.886227;"/>
    <path clip-path="url(#p9e6f6129eb)" d="M 74.505687 214.321638 
L 74.532744 214.321638 
" style="fill:none;stroke:#a9a9a9;stroke-width:0.886227;"/>
    <path clip-path="url(#p9e6f6129eb)" d="M 75.046823 119.526194 
L 75.07388 119.526194 
" style="fill:none;stroke:#a9a9a9;stroke-width:0.886227;"/>
    <path clip-path="url(#p9e6f6129eb)" d="M 76.670231 41.778309 
L 76.697288 41.778309 
" style="fill:none;stroke:#a9a9a9;stroke-width:0.886227;"/>
    <path clip-path="url(#p9e6f6129eb)" d="M 79.375911 40.606159 
L 79.402968 40.606159 
" style="fill:none;stroke:#a9a9a9;stroke-width:0.886227;"/>
    <path clip-path="url(#p9e6f6129eb)" d="M 101.021351 40.285825 
L 101.048408 40.285825 
" style="fill:none;stroke:#a9a9a9;stroke-width:0.886227;"/>
    <path clip-path="url(#p9e6f6129eb)" d="M 128.078152 40.265691 
L 128.105208 40.265691 
" style="fill:none;stroke:#a9a9a9;stroke-width:0.886227;"/>
    <path clip-path="url(#p9e6f6129eb)" d="M 182.191752 40.264637 
L 182.218809 40.264637 
" style="fill:none;stroke:#a9a9a9;stroke-width:0.886227;"/>
    <path clip-path="url(#p9e6f6129eb)" d="M 236.305352 40.266671 
L 236.332409 40.266671 
" style="fill:none;stroke:#a9a9a9;stroke-width:0.886227;"/>
    <path clip-path="url(#p9e6f6129eb)" d="M 398.646153 40.255116 
L 398.67321 40.255116 
" style="fill:none;stroke:#a9a9a9;stroke-width:0.886227;"/>
    <path clip-path="url(#p9e6f6129eb)" d="M 74.018665 39.879376 
L 74.045722 39.879376 
" style="fill:none;stroke:#a9a9a9;stroke-width:0.886227;"/>
    <path clip-path="url(#p9e6f6129eb)" d="M 74.072778 39.888163 
L 74.099835 39.888163 
" style="fill:none;stroke:#a9a9a9;stroke-width:0.886227;"/>
    <path clip-path="url(#p9e6f6129eb)" d="M 74.235119 39.960447 
L 74.262176 39.960447 
" style="fill:none;stroke:#a9a9a9;stroke-width:0.886227;"/>
    <path clip-path="url(#p9e6f6129eb)" d="M 74.505687 40.049394 
L 74.532744 40.049394 
" style="fill:none;stroke:#a9a9a9;stroke-width:0.886227;"/>
    <path clip-path="url(#p9e6f6129eb)" d="M 75.046823 40.225409 
L 75.07388 40.225409 
" style="fill:none;stroke:#a9a9a9;stroke-width:0.886227;"/>
    <path clip-path="url(#p9e6f6129eb)" d="M 76.670231 40.884709 
L 76.697288 40.884709 
" style="fill:none;stroke:#a9a9a9;stroke-width:0.886227;"/>
    <path clip-path="url(#p9e6f6129eb)" d="M 79.375911 41.815109 
L 79.402968 41.815109 
" style="fill:none;stroke:#a9a9a9;stroke-width:0.886227;"/>
    <path clip-path="url(#p9e6f6129eb)" d="M 101.021351 50.282757 
L 101.048408 50.282757 
" style="fill:none;stroke:#a9a9a9;stroke-width:0.886227;"/>
    <path clip-path="url(#p9e6f6129eb)" d="M 128.078152 60.952679 
L 128.105208 60.952679 
" style="fill:none;stroke:#a9a9a9;stroke-width:0.886227;"/>
    <path clip-path="url(#p9e6f6129eb)" d="M 182.191752 85.181068 
L 182.218809 85.181068 
" style="fill:none;stroke:#a9a9a9;stroke-width:0.886227;"/>
    <path clip-path="url(#p9e6f6129eb)" d="M 236.305352 110.791993 
L 236.332409 110.791993 
" style="fill:none;stroke:#a9a9a9;stroke-width:0.886227;"/>
    <path clip-path="url(#p9e6f6129eb)" d="M 398.646153 278.193154 
L 398.67321 278.193154 
" style="fill:none;stroke:#a9a9a9;stroke-width:0.886227;"/>
    <path clip-path="url(#p9e6f6129eb)" d="M 74.032193 39.879404 
L 74.032193 39.879436 
" style="fill:none;stroke:#a9a9a9;stroke-width:0.886227;"/>
    <path clip-path="url(#p9e6f6129eb)" d="M 74.086307 63.814977 
L 74.086307 64.167461 
" style="fill:none;stroke:#a9a9a9;stroke-width:0.886227;"/>
    <path clip-path="url(#p9e6f6129eb)" d="M 74.248648 134.390841 
L 74.248648 135.088683 
" style="fill:none;stroke:#a9a9a9;stroke-width:0.886227;"/>
    <path clip-path="url(#p9e6f6129eb)" d="M 74.519216 214.321638 
L 74.519216 216.720031 
" style="fill:none;stroke:#a9a9a9;stroke-width:0.886227;"/>
    <path clip-path="url(#p9e6f6129eb)" d="M 75.060352 119.526194 
L 75.060352 122.346853 
" style="fill:none;stroke:#a9a9a9;stroke-width:0.886227;"/>
    <path clip-path="url(#p9e6f6129eb)" d="M 76.68376 41.778309 
L 76.68376 42.164203 
" style="fill:none;stroke:#a9a9a9;stroke-width:0.886227;"/>
    <path clip-path="url(#p9e6f6129eb)" d="M 79.38944 40.606159 
L 79.38944 40.682463 
" style="fill:none;stroke:#a9a9a9;stroke-width:0.886227;"/>
    <path clip-path="url(#p9e6f6129eb)" d="M 101.03488 40.285825 
L 101.03488 40.359861 
" style="fill:none;stroke:#a9a9a9;stroke-width:0.886227;"/>
    <path clip-path="url(#p9e6f6129eb)" d="M 128.09168 40.265691 
L 128.09168 40.344935 
" style="fill:none;stroke:#a9a9a9;stroke-width:0.886227;"/>
    <path clip-path="url(#p9e6f6129eb)" d="M 182.20528 40.264637 
L 182.20528 40.275422 
" style="fill:none;stroke:#a9a9a9;stroke-width:0.886227;"/>
    <path clip-path="url(#p9e6f6129eb)" d="M 236.318881 40.266671 
L 236.318881 40.282821 
" style="fill:none;stroke:#a9a9a9;stroke-width:0.886227;"/>
    <path clip-path="url(#p9e6f6129eb)" d="M 398.659682 40.255116 
L 398.659682 40.260707 
" style="fill:none;stroke:#a9a9a9;stroke-width:0.886227;"/>
    <path clip-path="url(#p9e6f6129eb)" d="M 74.032193 39.879376 
L 74.032193 39.879422 
" style="fill:none;stroke:#a9a9a9;stroke-width:0.886227;"/>
    <path clip-path="url(#p9e6f6129eb)" d="M 74.086307 39.888163 
L 74.086307 39.90304 
" style="fill:none;stroke:#a9a9a9;stroke-width:0.886227;"/>
    <path clip-path="url(#p9e6f6129eb)" d="M 74.248648 39.960447 
L 74.248648 39.976874 
" style="fill:none;stroke:#a9a9a9;stroke-width:0.886227;"/>
    <path clip-path="url(#p9e6f6129eb)" d="M 74.519216 40.049394 
L 74.519216 40.079366 
" style="fill:none;stroke:#a9a9a9;stroke-width:0.886227;"/>
    <path clip-path="url(#p9e6f6129eb)" d="M 75.060352 40.225409 
L 75.060352 40.250835 
" style="fill:none;stroke:#a9a9a9;stroke-width:0.886227;"/>
    <path clip-path="url(#p9e6f6129eb)" d="M 76.68376 40.884709 
L 76.68376 40.958851 
" style="fill:none;stroke:#a9a9a9;stroke-width:0.886227;"/>
    <path clip-path="url(#p9e6f6129eb)" d="M 79.38944 41.815109 
L 79.38944 41.929279 
" style="fill:none;stroke:#a9a9a9;stroke-width:0.886227;"/>
    <path clip-path="url(#p9e6f6129eb)" d="M 101.03488 50.282757 
L 101.03488 50.357946 
" style="fill:none;stroke:#a9a9a9;stroke-width:0.886227;"/>
    <path clip-path="url(#p9e6f6129eb)" d="M 128.09168 60.952679 
L 128.09168 61.605009 
" style="fill:none;stroke:#a9a9a9;stroke-width:0.886227;"/>
    <path clip-path="url(#p9e6f6129eb)" d="M 182.20528 85.181068 
L 182.20528 85.640632 
" style="fill:none;stroke:#a9a9a9;stroke-width:0.886227;"/>
    <path clip-path="url(#p9e6f6129eb)" d="M 236.318881 110.791993 
L 236.318881 117.507979 
" style="fill:none;stroke:#a9a9a9;stroke-width:0.886227;"/>
    <path clip-path="url(#p9e6f6129eb)" d="M 398.659682 278.193154 
L 398.659682 281.799376 
" style="fill:none;stroke:#a9a9a9;stroke-width:0.886227;"/>
   </g>
   <g id="line2d_35">
    <path clip-path="url(#p9e6f6129eb)" d="M 74.032193 259.639852 
L 74.032193 259.639852 
L 74.086307 259.639852 
L 74.086307 259.639852 
L 74.248648 259.639852 
L 74.248648 259.639852 
L 74.519216 259.639852 
L 74.519216 259.639852 
L 75.060352 259.639852 
L 75.060352 259.639852 
L 76.68376 259.639852 
L 76.68376 259.639852 
L 79.38944 259.639852 
L 79.38944 259.639852 
L 101.03488 259.639852 
L 101.03488 259.639852 
L 128.09168 259.639852 
L 128.09168 259.639852 
L 182.20528 259.639852 
L 182.20528 259.639852 
L 236.318881 259.639852 
L 236.318881 259.639852 
L 398.659682 259.639852 
L 398.659682 259.639852 
" style="fill:none;stroke:#a9a9a9;stroke-dasharray:6.558079,2.835926;stroke-dashoffset:0;stroke-width:1.772454;"/>
   </g>
   <g id="patch_5">
    <path d="M 422.105938 197.60997 
L 538.045313 197.60997 
L 538.045313 120.612782 
L 422.105938 120.612782 
z
" style="fill:#ffffff;"/>
   </g>
   <g id="text_12">
    <!-- Group -->
    <defs>
     <path d="M 59.515625 10.40625 
L 59.515625 29.984375 
L 43.40625 29.984375 
L 43.40625 38.09375 
L 69.28125 38.09375 
L 69.28125 6.78125 
Q 63.578125 2.734375 56.6875 0.65625 
Q 49.8125 -1.421875 42 -1.421875 
Q 24.90625 -1.421875 15.25 8.5625 
Q 5.609375 18.5625 5.609375 36.375 
Q 5.609375 54.25 15.25 64.234375 
Q 24.90625 74.21875 42 74.21875 
Q 49.125 74.21875 55.546875 72.453125 
Q 61.96875 70.703125 67.390625 67.28125 
L 67.390625 56.78125 
Q 61.921875 61.421875 55.765625 63.765625 
Q 49.609375 66.109375 42.828125 66.109375 
Q 29.4375 66.109375 22.71875 58.640625 
Q 16.015625 51.171875 16.015625 36.375 
Q 16.015625 21.625 22.71875 14.15625 
Q 29.4375 6.6875 42.828125 6.6875 
Q 48.046875 6.6875 52.140625 7.59375 
Q 56.25 8.5 59.515625 10.40625 
z
" id="DejaVuSans-71"/>
     <path d="M 18.109375 8.203125 
L 18.109375 -20.796875 
L 9.078125 -20.796875 
L 9.078125 54.6875 
L 18.109375 54.6875 
L 18.109375 46.390625 
Q 20.953125 51.265625 25.265625 53.625 
Q 29.59375 56 35.59375 56 
Q 45.5625 56 51.78125 48.09375 
Q 58.015625 40.1875 58.015625 27.296875 
Q 58.015625 14.40625 51.78125 6.484375 
Q 45.5625 -1.421875 35.59375 -1.421875 
Q 29.59375 -1.421875 25.265625 0.953125 
Q 20.953125 3.328125 18.109375 8.203125 
z
M 48.6875 27.296875 
Q 48.6875 37.203125 44.609375 42.84375 
Q 40.53125 48.484375 33.40625 48.484375 
Q 26.265625 48.484375 22.1875 42.84375 
Q 18.109375 37.203125 18.109375 27.296875 
Q 18.109375 17.390625 22.1875 11.75 
Q 26.265625 6.109375 33.40625 6.109375 
Q 40.53125 6.109375 44.609375 11.75 
Q 48.6875 17.390625 48.6875 27.296875 
z
" id="DejaVuSans-112"/>
    </defs>
    <g transform="translate(434.305938 148.349501)scale(0.15 -0.15)">
     <use xlink:href="#DejaVuSans-71"/>
     <use x="77.490234" xlink:href="#DejaVuSans-114"/>
     <use x="118.572266" xlink:href="#DejaVuSans-111"/>
     <use x="179.753906" xlink:href="#DejaVuSans-117"/>
     <use x="243.132812" xlink:href="#DejaVuSans-112"/>
    </g>
   </g>
   <g id="patch_6">
    <path clip-path="url(#p8192991136)" d="M 434.305938 167.56997 
L 450.145938 167.56997 
L 450.145938 151.72997 
L 434.305938 151.72997 
z
" style="fill:#ffffff;stroke:#ffffff;stroke-linejoin:miter;"/>
   </g>
   <g id="line2d_36">
    <path clip-path="url(#p8192991136)" d="M 434.305938 159.64997 
L 450.145938 159.64997 
" style="fill:none;stroke:#1976d2;stroke-width:2.658681;"/>
   </g>
   <g id="text_13">
    <!-- corrected -->
    <defs>
     <path d="M 45.40625 46.390625 
L 45.40625 75.984375 
L 54.390625 75.984375 
L 54.390625 0 
L 45.40625 0 
L 45.40625 8.203125 
Q 42.578125 3.328125 38.25 0.953125 
Q 33.9375 -1.421875 27.875 -1.421875 
Q 17.96875 -1.421875 11.734375 6.484375 
Q 5.515625 14.40625 5.515625 27.296875 
Q 5.515625 40.1875 11.734375 48.09375 
Q 17.96875 56 27.875 56 
Q 33.9375 56 38.25 53.625 
Q 42.578125 51.265625 45.40625 46.390625 
z
M 14.796875 27.296875 
Q 14.796875 17.390625 18.875 11.75 
Q 22.953125 6.109375 30.078125 6.109375 
Q 37.203125 6.109375 41.296875 11.75 
Q 45.40625 17.390625 45.40625 27.296875 
Q 45.40625 37.203125 41.296875 42.84375 
Q 37.203125 48.484375 30.078125 48.484375 
Q 22.953125 48.484375 18.875 42.84375 
Q 14.796875 37.203125 14.796875 27.296875 
z
" id="DejaVuSans-100"/>
    </defs>
    <g transform="translate(453.145938 162.96122)scale(0.12 -0.12)">
     <use xlink:href="#DejaVuSans-99"/>
     <use x="54.980469" xlink:href="#DejaVuSans-111"/>
     <use x="116.162109" xlink:href="#DejaVuSans-114"/>
     <use x="157.259766" xlink:href="#DejaVuSans-114"/>
     <use x="198.341797" xlink:href="#DejaVuSans-101"/>
     <use x="259.865234" xlink:href="#DejaVuSans-99"/>
     <use x="314.845703" xlink:href="#DejaVuSans-116"/>
     <use x="354.054688" xlink:href="#DejaVuSans-101"/>
     <use x="415.578125" xlink:href="#DejaVuSans-100"/>
    </g>
   </g>
   <g id="patch_7">
    <path clip-path="url(#p85cd63218a)" d="M 434.305938 185.40997 
L 450.145938 185.40997 
L 450.145938 169.56997 
L 434.305938 169.56997 
z
" style="fill:#ffffff;stroke:#ffffff;stroke-linejoin:miter;"/>
   </g>
   <g id="line2d_37">
    <path clip-path="url(#p85cd63218a)" d="M 434.305938 177.48997 
L 450.145938 177.48997 
" style="fill:none;stroke:#b3e5fc;stroke-width:2.658681;"/>
   </g>
   <g id="text_14">
    <!-- uncorrected -->
    <g transform="translate(453.145938 180.80122)scale(0.12 -0.12)">
     <use xlink:href="#DejaVuSans-117"/>
     <use x="63.378906" xlink:href="#DejaVuSans-110"/>
     <use x="126.757812" xlink:href="#DejaVuSans-99"/>
     <use x="181.738281" xlink:href="#DejaVuSans-111"/>
     <use x="242.919922" xlink:href="#DejaVuSans-114"/>
     <use x="284.017578" xlink:href="#DejaVuSans-114"/>
     <use x="325.099609" xlink:href="#DejaVuSans-101"/>
     <use x="386.623047" xlink:href="#DejaVuSans-99"/>
     <use x="441.603516" xlink:href="#DejaVuSans-116"/>
     <use x="480.8125" xlink:href="#DejaVuSans-101"/>
     <use x="542.335938" xlink:href="#DejaVuSans-100"/>
    </g>
   </g>
  </g>
  <g id="text_15">
   <!-- Similarity across varying numbers of partitions -->
   <defs>
    <path d="M 2.984375 54.6875 
L 12.5 54.6875 
L 29.59375 8.796875 
L 46.6875 54.6875 
L 56.203125 54.6875 
L 35.6875 0 
L 23.484375 0 
z
" id="DejaVuSans-118"/>
    <path d="M 45.40625 27.984375 
Q 45.40625 37.75 41.375 43.109375 
Q 37.359375 48.484375 30.078125 48.484375 
Q 22.859375 48.484375 18.828125 43.109375 
Q 14.796875 37.75 14.796875 27.984375 
Q 14.796875 18.265625 18.828125 12.890625 
Q 22.859375 7.515625 30.078125 7.515625 
Q 37.359375 7.515625 41.375 12.890625 
Q 45.40625 18.265625 45.40625 27.984375 
z
M 54.390625 6.78125 
Q 54.390625 -7.171875 48.1875 -13.984375 
Q 42 -20.796875 29.203125 -20.796875 
Q 24.46875 -20.796875 20.265625 -20.09375 
Q 16.0625 -19.390625 12.109375 -17.921875 
L 12.109375 -9.1875 
Q 16.0625 -11.328125 19.921875 -12.34375 
Q 23.78125 -13.375 27.78125 -13.375 
Q 36.625 -13.375 41.015625 -8.765625 
Q 45.40625 -4.15625 45.40625 5.171875 
L 45.40625 9.625 
Q 42.625 4.78125 38.28125 2.390625 
Q 33.9375 0 27.875 0 
Q 17.828125 0 11.671875 7.65625 
Q 5.515625 15.328125 5.515625 27.984375 
Q 5.515625 40.671875 11.671875 48.328125 
Q 17.828125 56 27.875 56 
Q 33.9375 56 38.28125 53.609375 
Q 42.625 51.21875 45.40625 46.390625 
L 45.40625 54.6875 
L 54.390625 54.6875 
z
" id="DejaVuSans-103"/>
   </defs>
   <g transform="translate(54.703906 18.597656)scale(0.15 -0.15)">
    <use xlink:href="#DejaVuSans-83"/>
    <use x="63.476562" xlink:href="#DejaVuSans-105"/>
    <use x="91.259766" xlink:href="#DejaVuSans-109"/>
    <use x="188.671875" xlink:href="#DejaVuSans-105"/>
    <use x="216.455078" xlink:href="#DejaVuSans-108"/>
    <use x="244.238281" xlink:href="#DejaVuSans-97"/>
    <use x="305.517578" xlink:href="#DejaVuSans-114"/>
    <use x="346.630859" xlink:href="#DejaVuSans-105"/>
    <use x="374.414062" xlink:href="#DejaVuSans-116"/>
    <use x="413.623047" xlink:href="#DejaVuSans-121"/>
    <use x="472.802734" xlink:href="#DejaVuSans-32"/>
    <use x="504.589844" xlink:href="#DejaVuSans-97"/>
    <use x="565.869141" xlink:href="#DejaVuSans-99"/>
    <use x="620.849609" xlink:href="#DejaVuSans-114"/>
    <use x="661.931641" xlink:href="#DejaVuSans-111"/>
    <use x="723.113281" xlink:href="#DejaVuSans-115"/>
    <use x="775.212891" xlink:href="#DejaVuSans-115"/>
    <use x="827.3125" xlink:href="#DejaVuSans-32"/>
    <use x="859.099609" xlink:href="#DejaVuSans-118"/>
    <use x="918.279297" xlink:href="#DejaVuSans-97"/>
    <use x="979.558594" xlink:href="#DejaVuSans-114"/>
    <use x="1020.671875" xlink:href="#DejaVuSans-121"/>
    <use x="1079.851562" xlink:href="#DejaVuSans-105"/>
    <use x="1107.634766" xlink:href="#DejaVuSans-110"/>
    <use x="1171.013672" xlink:href="#DejaVuSans-103"/>
    <use x="1234.490234" xlink:href="#DejaVuSans-32"/>
    <use x="1266.277344" xlink:href="#DejaVuSans-110"/>
    <use x="1329.65625" xlink:href="#DejaVuSans-117"/>
    <use x="1393.035156" xlink:href="#DejaVuSans-109"/>
    <use x="1490.447266" xlink:href="#DejaVuSans-98"/>
    <use x="1553.923828" xlink:href="#DejaVuSans-101"/>
    <use x="1615.447266" xlink:href="#DejaVuSans-114"/>
    <use x="1656.560547" xlink:href="#DejaVuSans-115"/>
    <use x="1708.660156" xlink:href="#DejaVuSans-32"/>
    <use x="1740.447266" xlink:href="#DejaVuSans-111"/>
    <use x="1801.628906" xlink:href="#DejaVuSans-102"/>
    <use x="1836.833984" xlink:href="#DejaVuSans-32"/>
    <use x="1868.621094" xlink:href="#DejaVuSans-112"/>
    <use x="1932.097656" xlink:href="#DejaVuSans-97"/>
    <use x="1993.376953" xlink:href="#DejaVuSans-114"/>
    <use x="2034.490234" xlink:href="#DejaVuSans-116"/>
    <use x="2073.699219" xlink:href="#DejaVuSans-105"/>
    <use x="2101.482422" xlink:href="#DejaVuSans-116"/>
    <use x="2140.691406" xlink:href="#DejaVuSans-105"/>
    <use x="2168.474609" xlink:href="#DejaVuSans-111"/>
    <use x="2229.65625" xlink:href="#DejaVuSans-110"/>
    <use x="2293.035156" xlink:href="#DejaVuSans-115"/>
   </g>
  </g>
 </g>
 <defs>
  <clipPath id="p9e6f6129eb">
   <rect height="266.112" width="357.12" x="57.785938" y="27.783376"/>
  </clipPath>
  <clipPath id="p8192991136">
   <path d="M 434.305938 167.56997 
L 434.305938 151.72997 
L 450.145938 151.72997 
L 450.145938 167.56997 
"/>
  </clipPath>
  <clipPath id="p85cd63218a">
   <path d="M 434.305938 185.40997 
L 434.305938 169.56997 
L 450.145938 169.56997 
L 450.145938 185.40997 
"/>
  </clipPath>
 </defs>
</svg>
