<?xml version="1.0" encoding="utf-8" standalone="no"?>
<!DOCTYPE svg PUBLIC "-//W3C//DTD SVG 1.1//EN"
  "http://www.w3.org/Graphics/SVG/1.1/DTD/svg11.dtd">
<!-- Created with matplotlib (https://matplotlib.org/) -->
<svg height="336.576313pt" version="1.1" viewBox="0 0 545.245312 336.576313" width="545.245312pt" xmlns="http://www.w3.org/2000/svg" xmlns:xlink="http://www.w3.org/1999/xlink">
 <defs>
  <style type="text/css">
*{stroke-linecap:butt;stroke-linejoin:round;}
  </style>
 </defs>
 <g id="figure_1">
  <g id="patch_1">
   <path d="M 0 336.576313 
L 545.245312 336.576313 
L 545.245312 0 
L 0 0 
z
" style="fill:#ffffff;stroke:#ffffff;stroke-linejoin:miter;"/>
  </g>
  <g id="axes_1">
   <g id="patch_2">
    <path d="M 57.785938 293.895376 
L 414.905938 293.895376 
L 414.905938 27.783376 
L 57.785938 27.783376 
z
" style="fill:#ffffff;"/>
   </g>
   <g id="matplotlib.axis_1">
    <g id="xtick_1">
     <g id="line2d_1">
      <path clip-path="url(#p601437e6ff)" d="M 73.531195 293.895376 
L 73.531195 27.783376 
" style="fill:none;stroke:#d3d3d3;"/>
     </g>
     <g id="line2d_2">
      <path d="M 73.531195 293.895376 
" style="fill:none;stroke:#333333;stroke-width:1.5;"/>
      <defs>
       <path d="M 0 0 
L 0 2.75 
" id="m150f06262c" style="stroke:#333333;"/>
      </defs>
      <g>
       <use style="fill:#333333;stroke:#333333;" x="73.531195" xlink:href="#m150f06262c" y="293.895376"/>
      </g>
     </g>
     <g id="text_1">
      <!-- 0 -->
      <defs>
       <path d="M 31.78125 66.40625 
Q 24.171875 66.40625 20.328125 58.90625 
Q 16.5 51.421875 16.5 36.375 
Q 16.5 21.390625 20.328125 13.890625 
Q 24.171875 6.390625 31.78125 6.390625 
Q 39.453125 6.390625 43.28125 13.890625 
Q 47.125 21.390625 47.125 36.375 
Q 47.125 51.421875 43.28125 58.90625 
Q 39.453125 66.40625 31.78125 66.40625 
z
M 31.78125 74.21875 
Q 44.046875 74.21875 50.515625 64.515625 
Q 56.984375 54.828125 56.984375 36.375 
Q 56.984375 17.96875 50.515625 8.265625 
Q 44.046875 -1.421875 31.78125 -1.421875 
Q 19.53125 -1.421875 13.0625 8.265625 
Q 6.59375 17.96875 6.59375 36.375 
Q 6.59375 54.828125 13.0625 64.515625 
Q 19.53125 74.21875 31.78125 74.21875 
z
" id="DejaVuSans-48"/>
      </defs>
      <g style="fill:#4d4d4d;" transform="translate(69.713695 307.963501)scale(0.12 -0.12)">
       <use xlink:href="#DejaVuSans-48"/>
      </g>
     </g>
    </g>
    <g id="xtick_2">
     <g id="line2d_3">
      <path clip-path="url(#p601437e6ff)" d="M 138.5271 293.895376 
L 138.5271 27.783376 
" style="fill:none;stroke:#d3d3d3;"/>
     </g>
     <g id="line2d_4">
      <path d="M 138.5271 293.895376 
" style="fill:none;stroke:#333333;stroke-width:1.5;"/>
      <g>
       <use style="fill:#333333;stroke:#333333;" x="138.5271" xlink:href="#m150f06262c" y="293.895376"/>
      </g>
     </g>
     <g id="text_2">
      <!-- 100 -->
      <defs>
       <path d="M 12.40625 8.296875 
L 28.515625 8.296875 
L 28.515625 63.921875 
L 10.984375 60.40625 
L 10.984375 69.390625 
L 28.421875 72.90625 
L 38.28125 72.90625 
L 38.28125 8.296875 
L 54.390625 8.296875 
L 54.390625 0 
L 12.40625 0 
z
" id="DejaVuSans-49"/>
      </defs>
      <g style="fill:#4d4d4d;" transform="translate(127.0746 307.963501)scale(0.12 -0.12)">
       <use xlink:href="#DejaVuSans-49"/>
       <use x="63.623047" xlink:href="#DejaVuSans-48"/>
       <use x="127.246094" xlink:href="#DejaVuSans-48"/>
      </g>
     </g>
    </g>
    <g id="xtick_3">
     <g id="line2d_5">
      <path clip-path="url(#p601437e6ff)" d="M 203.523005 293.895376 
L 203.523005 27.783376 
" style="fill:none;stroke:#d3d3d3;"/>
     </g>
     <g id="line2d_6">
      <path d="M 203.523005 293.895376 
" style="fill:none;stroke:#333333;stroke-width:1.5;"/>
      <g>
       <use style="fill:#333333;stroke:#333333;" x="203.523005" xlink:href="#m150f06262c" y="293.895376"/>
      </g>
     </g>
     <g id="text_3">
      <!-- 200 -->
      <defs>
       <path d="M 19.1875 8.296875 
L 53.609375 8.296875 
L 53.609375 0 
L 7.328125 0 
L 7.328125 8.296875 
Q 12.9375 14.109375 22.625 23.890625 
Q 32.328125 33.6875 34.8125 36.53125 
Q 39.546875 41.84375 41.421875 45.53125 
Q 43.3125 49.21875 43.3125 52.78125 
Q 43.3125 58.59375 39.234375 62.25 
Q 35.15625 65.921875 28.609375 65.921875 
Q 23.96875 65.921875 18.8125 64.3125 
Q 13.671875 62.703125 7.8125 59.421875 
L 7.8125 69.390625 
Q 13.765625 71.78125 18.9375 73 
Q 24.125 74.21875 28.421875 74.21875 
Q 39.75 74.21875 46.484375 68.546875 
Q 53.21875 62.890625 53.21875 53.421875 
Q 53.21875 48.921875 51.53125 44.890625 
Q 49.859375 40.875 45.40625 35.40625 
Q 44.1875 33.984375 37.640625 27.21875 
Q 31.109375 20.453125 19.1875 8.296875 
z
" id="DejaVuSans-50"/>
      </defs>
      <g style="fill:#4d4d4d;" transform="translate(192.070505 307.963501)scale(0.12 -0.12)">
       <use xlink:href="#DejaVuSans-50"/>
       <use x="63.623047" xlink:href="#DejaVuSans-48"/>
       <use x="127.246094" xlink:href="#DejaVuSans-48"/>
      </g>
     </g>
    </g>
    <g id="xtick_4">
     <g id="line2d_7">
      <path clip-path="url(#p601437e6ff)" d="M 268.51891 293.895376 
L 268.51891 27.783376 
" style="fill:none;stroke:#d3d3d3;"/>
     </g>
     <g id="line2d_8">
      <path d="M 268.51891 293.895376 
" style="fill:none;stroke:#333333;stroke-width:1.5;"/>
      <g>
       <use style="fill:#333333;stroke:#333333;" x="268.51891" xlink:href="#m150f06262c" y="293.895376"/>
      </g>
     </g>
     <g id="text_4">
      <!-- 300 -->
      <defs>
       <path d="M 40.578125 39.3125 
Q 47.65625 37.796875 51.625 33 
Q 55.609375 28.21875 55.609375 21.1875 
Q 55.609375 10.40625 48.1875 4.484375 
Q 40.765625 -1.421875 27.09375 -1.421875 
Q 22.515625 -1.421875 17.65625 -0.515625 
Q 12.796875 0.390625 7.625 2.203125 
L 7.625 11.71875 
Q 11.71875 9.328125 16.59375 8.109375 
Q 21.484375 6.890625 26.8125 6.890625 
Q 36.078125 6.890625 40.9375 10.546875 
Q 45.796875 14.203125 45.796875 21.1875 
Q 45.796875 27.640625 41.28125 31.265625 
Q 36.765625 34.90625 28.71875 34.90625 
L 20.21875 34.90625 
L 20.21875 43.015625 
L 29.109375 43.015625 
Q 36.375 43.015625 40.234375 45.921875 
Q 44.09375 48.828125 44.09375 54.296875 
Q 44.09375 59.90625 40.109375 62.90625 
Q 36.140625 65.921875 28.71875 65.921875 
Q 24.65625 65.921875 20.015625 65.03125 
Q 15.375 64.15625 9.8125 62.3125 
L 9.8125 71.09375 
Q 15.4375 72.65625 20.34375 73.4375 
Q 25.25 74.21875 29.59375 74.21875 
Q 40.828125 74.21875 47.359375 69.109375 
Q 53.90625 64.015625 53.90625 55.328125 
Q 53.90625 49.265625 50.4375 45.09375 
Q 46.96875 40.921875 40.578125 39.3125 
z
" id="DejaVuSans-51"/>
      </defs>
      <g style="fill:#4d4d4d;" transform="translate(257.06641 307.963501)scale(0.12 -0.12)">
       <use xlink:href="#DejaVuSans-51"/>
       <use x="63.623047" xlink:href="#DejaVuSans-48"/>
       <use x="127.246094" xlink:href="#DejaVuSans-48"/>
      </g>
     </g>
    </g>
    <g id="xtick_5">
     <g id="line2d_9">
      <path clip-path="url(#p601437e6ff)" d="M 333.514815 293.895376 
L 333.514815 27.783376 
" style="fill:none;stroke:#d3d3d3;"/>
     </g>
     <g id="line2d_10">
      <path d="M 333.514815 293.895376 
" style="fill:none;stroke:#333333;stroke-width:1.5;"/>
      <g>
       <use style="fill:#333333;stroke:#333333;" x="333.514815" xlink:href="#m150f06262c" y="293.895376"/>
      </g>
     </g>
     <g id="text_5">
      <!-- 400 -->
      <defs>
       <path d="M 37.796875 64.3125 
L 12.890625 25.390625 
L 37.796875 25.390625 
z
M 35.203125 72.90625 
L 47.609375 72.90625 
L 47.609375 25.390625 
L 58.015625 25.390625 
L 58.015625 17.1875 
L 47.609375 17.1875 
L 47.609375 0 
L 37.796875 0 
L 37.796875 17.1875 
L 4.890625 17.1875 
L 4.890625 26.703125 
z
" id="DejaVuSans-52"/>
      </defs>
      <g style="fill:#4d4d4d;" transform="translate(322.062315 307.963501)scale(0.12 -0.12)">
       <use xlink:href="#DejaVuSans-52"/>
       <use x="63.623047" xlink:href="#DejaVuSans-48"/>
       <use x="127.246094" xlink:href="#DejaVuSans-48"/>
      </g>
     </g>
    </g>
    <g id="xtick_6">
     <g id="line2d_11">
      <path clip-path="url(#p601437e6ff)" d="M 398.51072 293.895376 
L 398.51072 27.783376 
" style="fill:none;stroke:#d3d3d3;"/>
     </g>
     <g id="line2d_12">
      <path d="M 398.51072 293.895376 
" style="fill:none;stroke:#333333;stroke-width:1.5;"/>
      <g>
       <use style="fill:#333333;stroke:#333333;" x="398.51072" xlink:href="#m150f06262c" y="293.895376"/>
      </g>
     </g>
     <g id="text_6">
      <!-- 500 -->
      <defs>
       <path d="M 10.796875 72.90625 
L 49.515625 72.90625 
L 49.515625 64.59375 
L 19.828125 64.59375 
L 19.828125 46.734375 
Q 21.96875 47.46875 24.109375 47.828125 
Q 26.265625 48.1875 28.421875 48.1875 
Q 40.625 48.1875 47.75 41.5 
Q 54.890625 34.8125 54.890625 23.390625 
Q 54.890625 11.625 47.5625 5.09375 
Q 40.234375 -1.421875 26.90625 -1.421875 
Q 22.3125 -1.421875 17.546875 -0.640625 
Q 12.796875 0.140625 7.71875 1.703125 
L 7.71875 11.625 
Q 12.109375 9.234375 16.796875 8.0625 
Q 21.484375 6.890625 26.703125 6.890625 
Q 35.15625 6.890625 40.078125 11.328125 
Q 45.015625 15.765625 45.015625 23.390625 
Q 45.015625 31 40.078125 35.4375 
Q 35.15625 39.890625 26.703125 39.890625 
Q 22.75 39.890625 18.8125 39.015625 
Q 14.890625 38.140625 10.796875 36.28125 
z
" id="DejaVuSans-53"/>
      </defs>
      <g style="fill:#4d4d4d;" transform="translate(387.05822 307.963501)scale(0.12 -0.12)">
       <use xlink:href="#DejaVuSans-53"/>
       <use x="63.623047" xlink:href="#DejaVuSans-48"/>
       <use x="127.246094" xlink:href="#DejaVuSans-48"/>
      </g>
     </g>
    </g>
    <g id="xtick_7">
     <g id="line2d_13">
      <path clip-path="url(#p601437e6ff)" d="M 106.029148 293.895376 
L 106.029148 27.783376 
" style="fill:none;stroke:#ffffff;stroke-width:0.5;"/>
     </g>
     <g id="line2d_14">
      <path d="M 106.029148 293.895376 
" style="fill:none;stroke:#333333;stroke-width:1.5;"/>
     </g>
    </g>
    <g id="xtick_8">
     <g id="line2d_15">
      <path clip-path="url(#p601437e6ff)" d="M 171.025053 293.895376 
L 171.025053 27.783376 
" style="fill:none;stroke:#ffffff;stroke-width:0.5;"/>
     </g>
     <g id="line2d_16">
      <path d="M 171.025053 293.895376 
" style="fill:none;stroke:#333333;stroke-width:1.5;"/>
     </g>
    </g>
    <g id="xtick_9">
     <g id="line2d_17">
      <path clip-path="url(#p601437e6ff)" d="M 236.020958 293.895376 
L 236.020958 27.783376 
" style="fill:none;stroke:#ffffff;stroke-width:0.5;"/>
     </g>
     <g id="line2d_18">
      <path d="M 236.020958 293.895376 
" style="fill:none;stroke:#333333;stroke-width:1.5;"/>
     </g>
    </g>
    <g id="xtick_10">
     <g id="line2d_19">
      <path clip-path="url(#p601437e6ff)" d="M 301.016863 293.895376 
L 301.016863 27.783376 
" style="fill:none;stroke:#ffffff;stroke-width:0.5;"/>
     </g>
     <g id="line2d_20">
      <path d="M 301.016863 293.895376 
" style="fill:none;stroke:#333333;stroke-width:1.5;"/>
     </g>
    </g>
    <g id="xtick_11">
     <g id="line2d_21">
      <path clip-path="url(#p601437e6ff)" d="M 366.012768 293.895376 
L 366.012768 27.783376 
" style="fill:none;stroke:#ffffff;stroke-width:0.5;"/>
     </g>
     <g id="line2d_22">
      <path d="M 366.012768 293.895376 
" style="fill:none;stroke:#333333;stroke-width:1.5;"/>
     </g>
    </g>
    <g id="text_7">
     <!-- Number of Partitions -->
     <defs>
      <path d="M 9.8125 72.90625 
L 23.09375 72.90625 
L 55.421875 11.921875 
L 55.421875 72.90625 
L 64.984375 72.90625 
L 64.984375 0 
L 51.703125 0 
L 19.390625 60.984375 
L 19.390625 0 
L 9.8125 0 
z
" id="DejaVuSans-78"/>
      <path d="M 8.5 21.578125 
L 8.5 54.6875 
L 17.484375 54.6875 
L 17.484375 21.921875 
Q 17.484375 14.15625 20.5 10.265625 
Q 23.53125 6.390625 29.59375 6.390625 
Q 36.859375 6.390625 41.078125 11.03125 
Q 45.3125 15.671875 45.3125 23.6875 
L 45.3125 54.6875 
L 54.296875 54.6875 
L 54.296875 0 
L 45.3125 0 
L 45.3125 8.40625 
Q 42.046875 3.421875 37.71875 1 
Q 33.40625 -1.421875 27.6875 -1.421875 
Q 18.265625 -1.421875 13.375 4.4375 
Q 8.5 10.296875 8.5 21.578125 
z
M 31.109375 56 
z
" id="DejaVuSans-117"/>
      <path d="M 52 44.1875 
Q 55.375 50.25 60.0625 53.125 
Q 64.75 56 71.09375 56 
Q 79.640625 56 84.28125 50.015625 
Q 88.921875 44.046875 88.921875 33.015625 
L 88.921875 0 
L 79.890625 0 
L 79.890625 32.71875 
Q 79.890625 40.578125 77.09375 44.375 
Q 74.3125 48.1875 68.609375 48.1875 
Q 61.625 48.1875 57.5625 43.546875 
Q 53.515625 38.921875 53.515625 30.90625 
L 53.515625 0 
L 44.484375 0 
L 44.484375 32.71875 
Q 44.484375 40.625 41.703125 44.40625 
Q 38.921875 48.1875 33.109375 48.1875 
Q 26.21875 48.1875 22.15625 43.53125 
Q 18.109375 38.875 18.109375 30.90625 
L 18.109375 0 
L 9.078125 0 
L 9.078125 54.6875 
L 18.109375 54.6875 
L 18.109375 46.1875 
Q 21.1875 51.21875 25.484375 53.609375 
Q 29.78125 56 35.6875 56 
Q 41.65625 56 45.828125 52.96875 
Q 50 49.953125 52 44.1875 
z
" id="DejaVuSans-109"/>
      <path d="M 48.6875 27.296875 
Q 48.6875 37.203125 44.609375 42.84375 
Q 40.53125 48.484375 33.40625 48.484375 
Q 26.265625 48.484375 22.1875 42.84375 
Q 18.109375 37.203125 18.109375 27.296875 
Q 18.109375 17.390625 22.1875 11.75 
Q 26.265625 6.109375 33.40625 6.109375 
Q 40.53125 6.109375 44.609375 11.75 
Q 48.6875 17.390625 48.6875 27.296875 
z
M 18.109375 46.390625 
Q 20.953125 51.265625 25.265625 53.625 
Q 29.59375 56 35.59375 56 
Q 45.5625 56 51.78125 48.09375 
Q 58.015625 40.1875 58.015625 27.296875 
Q 58.015625 14.40625 51.78125 6.484375 
Q 45.5625 -1.421875 35.59375 -1.421875 
Q 29.59375 -1.421875 25.265625 0.953125 
Q 20.953125 3.328125 18.109375 8.203125 
L 18.109375 0 
L 9.078125 0 
L 9.078125 75.984375 
L 18.109375 75.984375 
z
" id="DejaVuSans-98"/>
      <path d="M 56.203125 29.59375 
L 56.203125 25.203125 
L 14.890625 25.203125 
Q 15.484375 15.921875 20.484375 11.0625 
Q 25.484375 6.203125 34.421875 6.203125 
Q 39.59375 6.203125 44.453125 7.46875 
Q 49.3125 8.734375 54.109375 11.28125 
L 54.109375 2.78125 
Q 49.265625 0.734375 44.1875 -0.34375 
Q 39.109375 -1.421875 33.890625 -1.421875 
Q 20.796875 -1.421875 13.15625 6.1875 
Q 5.515625 13.8125 5.515625 26.8125 
Q 5.515625 40.234375 12.765625 48.109375 
Q 20.015625 56 32.328125 56 
Q 43.359375 56 49.78125 48.890625 
Q 56.203125 41.796875 56.203125 29.59375 
z
M 47.21875 32.234375 
Q 47.125 39.59375 43.09375 43.984375 
Q 39.0625 48.390625 32.421875 48.390625 
Q 24.90625 48.390625 20.390625 44.140625 
Q 15.875 39.890625 15.1875 32.171875 
z
" id="DejaVuSans-101"/>
      <path d="M 41.109375 46.296875 
Q 39.59375 47.171875 37.8125 47.578125 
Q 36.03125 48 33.890625 48 
Q 26.265625 48 22.1875 43.046875 
Q 18.109375 38.09375 18.109375 28.8125 
L 18.109375 0 
L 9.078125 0 
L 9.078125 54.6875 
L 18.109375 54.6875 
L 18.109375 46.1875 
Q 20.953125 51.171875 25.484375 53.578125 
Q 30.03125 56 36.53125 56 
Q 37.453125 56 38.578125 55.875 
Q 39.703125 55.765625 41.0625 55.515625 
z
" id="DejaVuSans-114"/>
      <path id="DejaVuSans-32"/>
      <path d="M 30.609375 48.390625 
Q 23.390625 48.390625 19.1875 42.75 
Q 14.984375 37.109375 14.984375 27.296875 
Q 14.984375 17.484375 19.15625 11.84375 
Q 23.34375 6.203125 30.609375 6.203125 
Q 37.796875 6.203125 41.984375 11.859375 
Q 46.1875 17.53125 46.1875 27.296875 
Q 46.1875 37.015625 41.984375 42.703125 
Q 37.796875 48.390625 30.609375 48.390625 
z
M 30.609375 56 
Q 42.328125 56 49.015625 48.375 
Q 55.71875 40.765625 55.71875 27.296875 
Q 55.71875 13.875 49.015625 6.21875 
Q 42.328125 -1.421875 30.609375 -1.421875 
Q 18.84375 -1.421875 12.171875 6.21875 
Q 5.515625 13.875 5.515625 27.296875 
Q 5.515625 40.765625 12.171875 48.375 
Q 18.84375 56 30.609375 56 
z
" id="DejaVuSans-111"/>
      <path d="M 37.109375 75.984375 
L 37.109375 68.5 
L 28.515625 68.5 
Q 23.6875 68.5 21.796875 66.546875 
Q 19.921875 64.59375 19.921875 59.515625 
L 19.921875 54.6875 
L 34.71875 54.6875 
L 34.71875 47.703125 
L 19.921875 47.703125 
L 19.921875 0 
L 10.890625 0 
L 10.890625 47.703125 
L 2.296875 47.703125 
L 2.296875 54.6875 
L 10.890625 54.6875 
L 10.890625 58.5 
Q 10.890625 67.625 15.140625 71.796875 
Q 19.390625 75.984375 28.609375 75.984375 
z
" id="DejaVuSans-102"/>
      <path d="M 19.671875 64.796875 
L 19.671875 37.40625 
L 32.078125 37.40625 
Q 38.96875 37.40625 42.71875 40.96875 
Q 46.484375 44.53125 46.484375 51.125 
Q 46.484375 57.671875 42.71875 61.234375 
Q 38.96875 64.796875 32.078125 64.796875 
z
M 9.8125 72.90625 
L 32.078125 72.90625 
Q 44.34375 72.90625 50.609375 67.359375 
Q 56.890625 61.8125 56.890625 51.125 
Q 56.890625 40.328125 50.609375 34.8125 
Q 44.34375 29.296875 32.078125 29.296875 
L 19.671875 29.296875 
L 19.671875 0 
L 9.8125 0 
z
" id="DejaVuSans-80"/>
      <path d="M 34.28125 27.484375 
Q 23.390625 27.484375 19.1875 25 
Q 14.984375 22.515625 14.984375 16.5 
Q 14.984375 11.71875 18.140625 8.90625 
Q 21.296875 6.109375 26.703125 6.109375 
Q 34.1875 6.109375 38.703125 11.40625 
Q 43.21875 16.703125 43.21875 25.484375 
L 43.21875 27.484375 
z
M 52.203125 31.203125 
L 52.203125 0 
L 43.21875 0 
L 43.21875 8.296875 
Q 40.140625 3.328125 35.546875 0.953125 
Q 30.953125 -1.421875 24.3125 -1.421875 
Q 15.921875 -1.421875 10.953125 3.296875 
Q 6 8.015625 6 15.921875 
Q 6 25.140625 12.171875 29.828125 
Q 18.359375 34.515625 30.609375 34.515625 
L 43.21875 34.515625 
L 43.21875 35.40625 
Q 43.21875 41.609375 39.140625 45 
Q 35.0625 48.390625 27.6875 48.390625 
Q 23 48.390625 18.546875 47.265625 
Q 14.109375 46.140625 10.015625 43.890625 
L 10.015625 52.203125 
Q 14.9375 54.109375 19.578125 55.046875 
Q 24.21875 56 28.609375 56 
Q 40.484375 56 46.34375 49.84375 
Q 52.203125 43.703125 52.203125 31.203125 
z
" id="DejaVuSans-97"/>
      <path d="M 18.3125 70.21875 
L 18.3125 54.6875 
L 36.8125 54.6875 
L 36.8125 47.703125 
L 18.3125 47.703125 
L 18.3125 18.015625 
Q 18.3125 11.328125 20.140625 9.421875 
Q 21.96875 7.515625 27.59375 7.515625 
L 36.8125 7.515625 
L 36.8125 0 
L 27.59375 0 
Q 17.1875 0 13.234375 3.875 
Q 9.28125 7.765625 9.28125 18.015625 
L 9.28125 47.703125 
L 2.6875 47.703125 
L 2.6875 54.6875 
L 9.28125 54.6875 
L 9.28125 70.21875 
z
" id="DejaVuSans-116"/>
      <path d="M 9.421875 54.6875 
L 18.40625 54.6875 
L 18.40625 0 
L 9.421875 0 
z
M 9.421875 75.984375 
L 18.40625 75.984375 
L 18.40625 64.59375 
L 9.421875 64.59375 
z
" id="DejaVuSans-105"/>
      <path d="M 54.890625 33.015625 
L 54.890625 0 
L 45.90625 0 
L 45.90625 32.71875 
Q 45.90625 40.484375 42.875 44.328125 
Q 39.84375 48.1875 33.796875 48.1875 
Q 26.515625 48.1875 22.3125 43.546875 
Q 18.109375 38.921875 18.109375 30.90625 
L 18.109375 0 
L 9.078125 0 
L 9.078125 54.6875 
L 18.109375 54.6875 
L 18.109375 46.1875 
Q 21.34375 51.125 25.703125 53.5625 
Q 30.078125 56 35.796875 56 
Q 45.21875 56 50.046875 50.171875 
Q 54.890625 44.34375 54.890625 33.015625 
z
" id="DejaVuSans-110"/>
      <path d="M 44.28125 53.078125 
L 44.28125 44.578125 
Q 40.484375 46.53125 36.375 47.5 
Q 32.28125 48.484375 27.875 48.484375 
Q 21.1875 48.484375 17.84375 46.4375 
Q 14.5 44.390625 14.5 40.28125 
Q 14.5 37.15625 16.890625 35.375 
Q 19.28125 33.59375 26.515625 31.984375 
L 29.59375 31.296875 
Q 39.15625 29.25 43.1875 25.515625 
Q 47.21875 21.78125 47.21875 15.09375 
Q 47.21875 7.46875 41.1875 3.015625 
Q 35.15625 -1.421875 24.609375 -1.421875 
Q 20.21875 -1.421875 15.453125 -0.5625 
Q 10.6875 0.296875 5.421875 2 
L 5.421875 11.28125 
Q 10.40625 8.6875 15.234375 7.390625 
Q 20.0625 6.109375 24.8125 6.109375 
Q 31.15625 6.109375 34.5625 8.28125 
Q 37.984375 10.453125 37.984375 14.40625 
Q 37.984375 18.0625 35.515625 20.015625 
Q 33.0625 21.96875 24.703125 23.78125 
L 21.578125 24.515625 
Q 13.234375 26.265625 9.515625 29.90625 
Q 5.8125 33.546875 5.8125 39.890625 
Q 5.8125 47.609375 11.28125 51.796875 
Q 16.75 56 26.8125 56 
Q 31.78125 56 36.171875 55.265625 
Q 40.578125 54.546875 44.28125 53.078125 
z
" id="DejaVuSans-115"/>
     </defs>
     <g transform="translate(152.966797 326.256782)scale(0.15 -0.15)">
      <use xlink:href="#DejaVuSans-78"/>
      <use x="74.804688" xlink:href="#DejaVuSans-117"/>
      <use x="138.183594" xlink:href="#DejaVuSans-109"/>
      <use x="235.595703" xlink:href="#DejaVuSans-98"/>
      <use x="299.072266" xlink:href="#DejaVuSans-101"/>
      <use x="360.595703" xlink:href="#DejaVuSans-114"/>
      <use x="401.708984" xlink:href="#DejaVuSans-32"/>
      <use x="433.496094" xlink:href="#DejaVuSans-111"/>
      <use x="494.677734" xlink:href="#DejaVuSans-102"/>
      <use x="529.882812" xlink:href="#DejaVuSans-32"/>
      <use x="561.669922" xlink:href="#DejaVuSans-80"/>
      <use x="621.910156" xlink:href="#DejaVuSans-97"/>
      <use x="683.189453" xlink:href="#DejaVuSans-114"/>
      <use x="724.302734" xlink:href="#DejaVuSans-116"/>
      <use x="763.511719" xlink:href="#DejaVuSans-105"/>
      <use x="791.294922" xlink:href="#DejaVuSans-116"/>
      <use x="830.503906" xlink:href="#DejaVuSans-105"/>
      <use x="858.287109" xlink:href="#DejaVuSans-111"/>
      <use x="919.46875" xlink:href="#DejaVuSans-110"/>
      <use x="982.847656" xlink:href="#DejaVuSans-115"/>
     </g>
    </g>
   </g>
   <g id="matplotlib.axis_2">
    <g id="ytick_1">
     <g id="line2d_23">
      <path clip-path="url(#p601437e6ff)" d="M 57.785938 247.06669 
L 414.905938 247.06669 
" style="fill:none;stroke:#d3d3d3;"/>
     </g>
     <g id="line2d_24">
      <path d="M 57.785938 247.06669 
" style="fill:none;stroke:#333333;stroke-width:1.5;"/>
      <defs>
       <path d="M 0 0 
L -2.75 0 
" id="m2374d03171" style="stroke:#333333;"/>
      </defs>
      <g>
       <use style="fill:#333333;stroke:#333333;" x="57.785938" xlink:href="#m2374d03171" y="247.06669"/>
      </g>
     </g>
     <g id="text_8">
      <!-- 0.25 -->
      <defs>
       <path d="M 10.6875 12.40625 
L 21 12.40625 
L 21 0 
L 10.6875 0 
z
" id="DejaVuSans-46"/>
      </defs>
      <g style="fill:#4d4d4d;" transform="translate(26.117188 250.37794)scale(0.12 -0.12)">
       <use xlink:href="#DejaVuSans-48"/>
       <use x="63.623047" xlink:href="#DejaVuSans-46"/>
       <use x="95.410156" xlink:href="#DejaVuSans-50"/>
       <use x="159.033203" xlink:href="#DejaVuSans-53"/>
      </g>
     </g>
    </g>
    <g id="ytick_2">
     <g id="line2d_25">
      <path clip-path="url(#p601437e6ff)" d="M 57.785938 178.003637 
L 414.905938 178.003637 
" style="fill:none;stroke:#d3d3d3;"/>
     </g>
     <g id="line2d_26">
      <path d="M 57.785938 178.003637 
" style="fill:none;stroke:#333333;stroke-width:1.5;"/>
      <g>
       <use style="fill:#333333;stroke:#333333;" x="57.785938" xlink:href="#m2374d03171" y="178.003637"/>
      </g>
     </g>
     <g id="text_9">
      <!-- 0.50 -->
      <g style="fill:#4d4d4d;" transform="translate(26.117188 181.314887)scale(0.12 -0.12)">
       <use xlink:href="#DejaVuSans-48"/>
       <use x="63.623047" xlink:href="#DejaVuSans-46"/>
       <use x="95.410156" xlink:href="#DejaVuSans-53"/>
       <use x="159.033203" xlink:href="#DejaVuSans-48"/>
      </g>
     </g>
    </g>
    <g id="ytick_3">
     <g id="line2d_27">
      <path clip-path="url(#p601437e6ff)" d="M 57.785938 108.940585 
L 414.905938 108.940585 
" style="fill:none;stroke:#d3d3d3;"/>
     </g>
     <g id="line2d_28">
      <path d="M 57.785938 108.940585 
" style="fill:none;stroke:#333333;stroke-width:1.5;"/>
      <g>
       <use style="fill:#333333;stroke:#333333;" x="57.785938" xlink:href="#m2374d03171" y="108.940585"/>
      </g>
     </g>
     <g id="text_10">
      <!-- 0.75 -->
      <defs>
       <path d="M 8.203125 72.90625 
L 55.078125 72.90625 
L 55.078125 68.703125 
L 28.609375 0 
L 18.3125 0 
L 43.21875 64.59375 
L 8.203125 64.59375 
z
" id="DejaVuSans-55"/>
      </defs>
      <g style="fill:#4d4d4d;" transform="translate(26.117188 112.251835)scale(0.12 -0.12)">
       <use xlink:href="#DejaVuSans-48"/>
       <use x="63.623047" xlink:href="#DejaVuSans-46"/>
       <use x="95.410156" xlink:href="#DejaVuSans-55"/>
       <use x="159.033203" xlink:href="#DejaVuSans-53"/>
      </g>
     </g>
    </g>
    <g id="ytick_4">
     <g id="line2d_29">
      <path clip-path="url(#p601437e6ff)" d="M 57.785938 39.877532 
L 414.905938 39.877532 
" style="fill:none;stroke:#d3d3d3;"/>
     </g>
     <g id="line2d_30">
      <path d="M 57.785938 39.877532 
" style="fill:none;stroke:#333333;stroke-width:1.5;"/>
      <g>
       <use style="fill:#333333;stroke:#333333;" x="57.785938" xlink:href="#m2374d03171" y="39.877532"/>
      </g>
     </g>
     <g id="text_11">
      <!-- 1 -->
      <g style="fill:#4d4d4d;" transform="translate(45.200938 43.188782)scale(0.12 -0.12)">
       <use xlink:href="#DejaVuSans-49"/>
      </g>
     </g>
    </g>
    <g id="ytick_5">
     <g id="line2d_31">
      <path clip-path="url(#p601437e6ff)" d="M 57.785938 281.598216 
L 414.905938 281.598216 
" style="fill:none;stroke:#ffffff;stroke-width:0.5;"/>
     </g>
     <g id="line2d_32">
      <path d="M 57.785938 281.598216 
" style="fill:none;stroke:#333333;stroke-width:1.5;"/>
     </g>
    </g>
    <g id="ytick_6">
     <g id="line2d_33">
      <path clip-path="url(#p601437e6ff)" d="M 57.785938 212.535164 
L 414.905938 212.535164 
" style="fill:none;stroke:#ffffff;stroke-width:0.5;"/>
     </g>
     <g id="line2d_34">
      <path d="M 57.785938 212.535164 
" style="fill:none;stroke:#333333;stroke-width:1.5;"/>
     </g>
    </g>
    <g id="ytick_7">
     <g id="line2d_35">
      <path clip-path="url(#p601437e6ff)" d="M 57.785938 143.472111 
L 414.905938 143.472111 
" style="fill:none;stroke:#ffffff;stroke-width:0.5;"/>
     </g>
     <g id="line2d_36">
      <path d="M 57.785938 143.472111 
" style="fill:none;stroke:#333333;stroke-width:1.5;"/>
     </g>
    </g>
    <g id="ytick_8">
     <g id="line2d_37">
      <path clip-path="url(#p601437e6ff)" d="M 57.785938 74.409058 
L 414.905938 74.409058 
" style="fill:none;stroke:#ffffff;stroke-width:0.5;"/>
     </g>
     <g id="line2d_38">
      <path d="M 57.785938 74.409058 
" style="fill:none;stroke:#333333;stroke-width:1.5;"/>
     </g>
    </g>
    <g id="text_12">
     <!-- Similarity score (SVCCA) -->
     <defs>
      <path d="M 53.515625 70.515625 
L 53.515625 60.890625 
Q 47.90625 63.578125 42.921875 64.890625 
Q 37.9375 66.21875 33.296875 66.21875 
Q 25.25 66.21875 20.875 63.09375 
Q 16.5 59.96875 16.5 54.203125 
Q 16.5 49.359375 19.40625 46.890625 
Q 22.3125 44.4375 30.421875 42.921875 
L 36.375 41.703125 
Q 47.40625 39.59375 52.65625 34.296875 
Q 57.90625 29 57.90625 20.125 
Q 57.90625 9.515625 50.796875 4.046875 
Q 43.703125 -1.421875 29.984375 -1.421875 
Q 24.8125 -1.421875 18.96875 -0.25 
Q 13.140625 0.921875 6.890625 3.21875 
L 6.890625 13.375 
Q 12.890625 10.015625 18.65625 8.296875 
Q 24.421875 6.59375 29.984375 6.59375 
Q 38.421875 6.59375 43.015625 9.90625 
Q 47.609375 13.234375 47.609375 19.390625 
Q 47.609375 24.75 44.3125 27.78125 
Q 41.015625 30.8125 33.5 32.328125 
L 27.484375 33.5 
Q 16.453125 35.6875 11.515625 40.375 
Q 6.59375 45.0625 6.59375 53.421875 
Q 6.59375 63.09375 13.40625 68.65625 
Q 20.21875 74.21875 32.171875 74.21875 
Q 37.3125 74.21875 42.625 73.28125 
Q 47.953125 72.359375 53.515625 70.515625 
z
" id="DejaVuSans-83"/>
      <path d="M 9.421875 75.984375 
L 18.40625 75.984375 
L 18.40625 0 
L 9.421875 0 
z
" id="DejaVuSans-108"/>
      <path d="M 32.171875 -5.078125 
Q 28.375 -14.84375 24.75 -17.8125 
Q 21.140625 -20.796875 15.09375 -20.796875 
L 7.90625 -20.796875 
L 7.90625 -13.28125 
L 13.1875 -13.28125 
Q 16.890625 -13.28125 18.9375 -11.515625 
Q 21 -9.765625 23.484375 -3.21875 
L 25.09375 0.875 
L 2.984375 54.6875 
L 12.5 54.6875 
L 29.59375 11.921875 
L 46.6875 54.6875 
L 56.203125 54.6875 
z
" id="DejaVuSans-121"/>
      <path d="M 48.78125 52.59375 
L 48.78125 44.1875 
Q 44.96875 46.296875 41.140625 47.34375 
Q 37.3125 48.390625 33.40625 48.390625 
Q 24.65625 48.390625 19.8125 42.84375 
Q 14.984375 37.3125 14.984375 27.296875 
Q 14.984375 17.28125 19.8125 11.734375 
Q 24.65625 6.203125 33.40625 6.203125 
Q 37.3125 6.203125 41.140625 7.25 
Q 44.96875 8.296875 48.78125 10.40625 
L 48.78125 2.09375 
Q 45.015625 0.34375 40.984375 -0.53125 
Q 36.96875 -1.421875 32.421875 -1.421875 
Q 20.0625 -1.421875 12.78125 6.34375 
Q 5.515625 14.109375 5.515625 27.296875 
Q 5.515625 40.671875 12.859375 48.328125 
Q 20.21875 56 33.015625 56 
Q 37.15625 56 41.109375 55.140625 
Q 45.0625 54.296875 48.78125 52.59375 
z
" id="DejaVuSans-99"/>
      <path d="M 31 75.875 
Q 24.46875 64.65625 21.28125 53.65625 
Q 18.109375 42.671875 18.109375 31.390625 
Q 18.109375 20.125 21.3125 9.0625 
Q 24.515625 -2 31 -13.1875 
L 23.1875 -13.1875 
Q 15.875 -1.703125 12.234375 9.375 
Q 8.59375 20.453125 8.59375 31.390625 
Q 8.59375 42.28125 12.203125 53.3125 
Q 15.828125 64.359375 23.1875 75.875 
z
" id="DejaVuSans-40"/>
      <path d="M 28.609375 0 
L 0.78125 72.90625 
L 11.078125 72.90625 
L 34.1875 11.53125 
L 57.328125 72.90625 
L 67.578125 72.90625 
L 39.796875 0 
z
" id="DejaVuSans-86"/>
      <path d="M 64.40625 67.28125 
L 64.40625 56.890625 
Q 59.421875 61.53125 53.78125 63.8125 
Q 48.140625 66.109375 41.796875 66.109375 
Q 29.296875 66.109375 22.65625 58.46875 
Q 16.015625 50.828125 16.015625 36.375 
Q 16.015625 21.96875 22.65625 14.328125 
Q 29.296875 6.6875 41.796875 6.6875 
Q 48.140625 6.6875 53.78125 8.984375 
Q 59.421875 11.28125 64.40625 15.921875 
L 64.40625 5.609375 
Q 59.234375 2.09375 53.4375 0.328125 
Q 47.65625 -1.421875 41.21875 -1.421875 
Q 24.65625 -1.421875 15.125 8.703125 
Q 5.609375 18.84375 5.609375 36.375 
Q 5.609375 53.953125 15.125 64.078125 
Q 24.65625 74.21875 41.21875 74.21875 
Q 47.75 74.21875 53.53125 72.484375 
Q 59.328125 70.75 64.40625 67.28125 
z
" id="DejaVuSans-67"/>
      <path d="M 34.1875 63.1875 
L 20.796875 26.90625 
L 47.609375 26.90625 
z
M 28.609375 72.90625 
L 39.796875 72.90625 
L 67.578125 0 
L 57.328125 0 
L 50.6875 18.703125 
L 17.828125 18.703125 
L 11.1875 0 
L 0.78125 0 
z
" id="DejaVuSans-65"/>
      <path d="M 8.015625 75.875 
L 15.828125 75.875 
Q 23.140625 64.359375 26.78125 53.3125 
Q 30.421875 42.28125 30.421875 31.390625 
Q 30.421875 20.453125 26.78125 9.375 
Q 23.140625 -1.703125 15.828125 -13.1875 
L 8.015625 -13.1875 
Q 14.5 -2 17.703125 9.0625 
Q 20.90625 20.125 20.90625 31.390625 
Q 20.90625 42.671875 17.703125 53.65625 
Q 14.5 64.65625 8.015625 75.875 
z
" id="DejaVuSans-41"/>
     </defs>
     <g transform="translate(18.597656 251.002782)rotate(-90)scale(0.15 -0.15)">
      <use xlink:href="#DejaVuSans-83"/>
      <use x="63.476562" xlink:href="#DejaVuSans-105"/>
      <use x="91.259766" xlink:href="#DejaVuSans-109"/>
      <use x="188.671875" xlink:href="#DejaVuSans-105"/>
      <use x="216.455078" xlink:href="#DejaVuSans-108"/>
      <use x="244.238281" xlink:href="#DejaVuSans-97"/>
      <use x="305.517578" xlink:href="#DejaVuSans-114"/>
      <use x="346.630859" xlink:href="#DejaVuSans-105"/>
      <use x="374.414062" xlink:href="#DejaVuSans-116"/>
      <use x="413.623047" xlink:href="#DejaVuSans-121"/>
      <use x="472.802734" xlink:href="#DejaVuSans-32"/>
      <use x="504.589844" xlink:href="#DejaVuSans-115"/>
      <use x="556.689453" xlink:href="#DejaVuSans-99"/>
      <use x="611.669922" xlink:href="#DejaVuSans-111"/>
      <use x="672.851562" xlink:href="#DejaVuSans-114"/>
      <use x="713.933594" xlink:href="#DejaVuSans-101"/>
      <use x="775.457031" xlink:href="#DejaVuSans-32"/>
      <use x="807.244141" xlink:href="#DejaVuSans-40"/>
      <use x="846.257812" xlink:href="#DejaVuSans-83"/>
      <use x="909.734375" xlink:href="#DejaVuSans-86"/>
      <use x="978.142578" xlink:href="#DejaVuSans-67"/>
      <use x="1047.966797" xlink:href="#DejaVuSans-67"/>
      <use x="1117.791016" xlink:href="#DejaVuSans-65"/>
      <use x="1186.199219" xlink:href="#DejaVuSans-41"/>
     </g>
    </g>
   </g>
   <g id="line2d_39">
    <path clip-path="url(#p601437e6ff)" d="M 74.181155 39.879441 
L 74.831114 40.403662 
L 75.481073 40.666484 
L 76.780991 41.384911 
L 80.030786 43.409469 
L 86.530376 47.345621 
L 93.029967 51.28711 
L 106.029148 56.94747 
L 119.028329 65.520665 
L 138.5271 73.89104 
L 203.523005 93.782905 
L 268.51891 114.722204 
L 333.514815 136.761625 
L 398.51072 155.687906 
" style="fill:none;stroke:#1976d2;stroke-width:2.658681;"/>
   </g>
   <g id="line2d_40">
    <path clip-path="url(#p601437e6ff)" d="M 74.181155 39.879457 
L 74.831114 66.531921 
L 75.481073 90.426379 
L 76.780991 140.165304 
L 80.030786 248.219171 
L 86.530376 222.593011 
L 93.029967 211.693837 
L 106.029148 195.637533 
L 119.028329 177.12432 
L 138.5271 158.93983 
L 203.523005 124.775209 
L 268.51891 118.945234 
L 333.514815 112.410618 
L 398.51072 108.121895 
" style="fill:none;stroke:#b3e5fc;stroke-width:2.658681;"/>
   </g>
   <g id="PathCollection_1">
    <path clip-path="url(#p601437e6ff)" d="M 74.181155 40.765684 
C 74.416185 40.765684 74.64162 40.672305 74.807812 40.506114 
C 74.974003 40.339922 75.067381 40.114487 75.067381 39.879457 
C 75.067381 39.644426 74.974003 39.418991 74.807812 39.2528 
C 74.64162 39.086608 74.416185 38.99323 74.181155 38.99323 
C 73.946124 38.99323 73.720689 39.086608 73.554497 39.2528 
C 73.388306 39.418991 73.294928 39.644426 73.294928 39.879457 
C 73.294928 40.114487 73.388306 40.339922 73.554497 40.506114 
C 73.720689 40.672305 73.946124 40.765684 74.181155 40.765684 
z
" style="fill:#a9a9a9;stroke:#a9a9a9;stroke-width:0.886227;"/>
    <path clip-path="url(#p601437e6ff)" d="M 74.831114 67.418148 
C 75.066144 67.418148 75.291579 67.32477 75.457771 67.158578 
C 75.623962 66.992387 75.717341 66.766951 75.717341 66.531921 
C 75.717341 66.296891 75.623962 66.071456 75.457771 65.905264 
C 75.291579 65.739073 75.066144 65.645694 74.831114 65.645694 
C 74.596083 65.645694 74.370648 65.739073 74.204457 65.905264 
C 74.038265 66.071456 73.944887 66.296891 73.944887 66.531921 
C 73.944887 66.766951 74.038265 66.992387 74.204457 67.158578 
C 74.370648 67.32477 74.596083 67.418148 74.831114 67.418148 
z
" style="fill:#a9a9a9;stroke:#a9a9a9;stroke-width:0.886227;"/>
    <path clip-path="url(#p601437e6ff)" d="M 75.481073 91.312606 
C 75.716103 91.312606 75.941538 91.219228 76.10773 91.053036 
C 76.273921 90.886845 76.3673 90.661409 76.3673 90.426379 
C 76.3673 90.191349 76.273921 89.965914 76.10773 89.799722 
C 75.941538 89.633531 75.716103 89.540152 75.481073 89.540152 
C 75.246043 89.540152 75.020607 89.633531 74.854416 89.799722 
C 74.688224 89.965914 74.594846 90.191349 74.594846 90.426379 
C 74.594846 90.661409 74.688224 90.886845 74.854416 91.053036 
C 75.020607 91.219228 75.246043 91.312606 75.481073 91.312606 
z
" style="fill:#a9a9a9;stroke:#a9a9a9;stroke-width:0.886227;"/>
    <path clip-path="url(#p601437e6ff)" d="M 76.780991 141.051531 
C 77.016021 141.051531 77.241456 140.958153 77.407648 140.791961 
C 77.573839 140.62577 77.667218 140.400334 77.667218 140.165304 
C 77.667218 139.930274 77.573839 139.704839 77.407648 139.538647 
C 77.241456 139.372456 77.016021 139.279077 76.780991 139.279077 
C 76.545961 139.279077 76.320525 139.372456 76.154334 139.538647 
C 75.988142 139.704839 75.894764 139.930274 75.894764 140.165304 
C 75.894764 140.400334 75.988142 140.62577 76.154334 140.791961 
C 76.320525 140.958153 76.545961 141.051531 76.780991 141.051531 
z
" style="fill:#a9a9a9;stroke:#a9a9a9;stroke-width:0.886227;"/>
    <path clip-path="url(#p601437e6ff)" d="M 80.030786 249.105398 
C 80.265816 249.105398 80.491252 249.012019 80.657443 248.845828 
C 80.823634 248.679636 80.917013 248.454201 80.917013 248.219171 
C 80.917013 247.98414 80.823634 247.758705 80.657443 247.592514 
C 80.491252 247.426322 80.265816 247.332944 80.030786 247.332944 
C 79.795756 247.332944 79.57032 247.426322 79.404129 247.592514 
C 79.237938 247.758705 79.144559 247.98414 79.144559 248.219171 
C 79.144559 248.454201 79.237938 248.679636 79.404129 248.845828 
C 79.57032 249.012019 79.795756 249.105398 80.030786 249.105398 
z
" style="fill:#a9a9a9;stroke:#a9a9a9;stroke-width:0.886227;"/>
    <path clip-path="url(#p601437e6ff)" d="M 86.530376 223.479238 
C 86.765407 223.479238 86.990842 223.38586 87.157034 223.219668 
C 87.323225 223.053477 87.416603 222.828041 87.416603 222.593011 
C 87.416603 222.357981 87.323225 222.132546 87.157034 221.966354 
C 86.990842 221.800163 86.765407 221.706784 86.530376 221.706784 
C 86.295346 221.706784 86.069911 221.800163 85.903719 221.966354 
C 85.737528 222.132546 85.64415 222.357981 85.64415 222.593011 
C 85.64415 222.828041 85.737528 223.053477 85.903719 223.219668 
C 86.069911 223.38586 86.295346 223.479238 86.530376 223.479238 
z
" style="fill:#a9a9a9;stroke:#a9a9a9;stroke-width:0.886227;"/>
    <path clip-path="url(#p601437e6ff)" d="M 93.029967 212.580064 
C 93.264997 212.580064 93.490433 212.486686 93.656624 212.320494 
C 93.822815 212.154303 93.916194 211.928867 93.916194 211.693837 
C 93.916194 211.458807 93.822815 211.233371 93.656624 211.06718 
C 93.490433 210.900989 93.264997 210.80761 93.029967 210.80761 
C 92.794937 210.80761 92.569501 210.900989 92.40331 211.06718 
C 92.237119 211.233371 92.14374 211.458807 92.14374 211.693837 
C 92.14374 211.928867 92.237119 212.154303 92.40331 212.320494 
C 92.569501 212.486686 92.794937 212.580064 93.029967 212.580064 
z
" style="fill:#a9a9a9;stroke:#a9a9a9;stroke-width:0.886227;"/>
    <path clip-path="url(#p601437e6ff)" d="M 106.029148 196.52376 
C 106.264178 196.52376 106.489614 196.430382 106.655805 196.26419 
C 106.821996 196.097999 106.915375 195.872564 106.915375 195.637533 
C 106.915375 195.402503 106.821996 195.177068 106.655805 195.010876 
C 106.489614 194.844685 106.264178 194.751307 106.029148 194.751307 
C 105.794118 194.751307 105.568682 194.844685 105.402491 195.010876 
C 105.2363 195.177068 105.142921 195.402503 105.142921 195.637533 
C 105.142921 195.872564 105.2363 196.097999 105.402491 196.26419 
C 105.568682 196.430382 105.794118 196.52376 106.029148 196.52376 
z
" style="fill:#a9a9a9;stroke:#a9a9a9;stroke-width:0.886227;"/>
    <path clip-path="url(#p601437e6ff)" d="M 119.028329 178.010547 
C 119.263359 178.010547 119.488795 177.917168 119.654986 177.750977 
C 119.821177 177.584785 119.914556 177.35935 119.914556 177.12432 
C 119.914556 176.88929 119.821177 176.663854 119.654986 176.497663 
C 119.488795 176.331471 119.263359 176.238093 119.028329 176.238093 
C 118.793299 176.238093 118.567863 176.331471 118.401672 176.497663 
C 118.235481 176.663854 118.142102 176.88929 118.142102 177.12432 
C 118.142102 177.35935 118.235481 177.584785 118.401672 177.750977 
C 118.567863 177.917168 118.793299 178.010547 119.028329 178.010547 
z
" style="fill:#a9a9a9;stroke:#a9a9a9;stroke-width:0.886227;"/>
    <path clip-path="url(#p601437e6ff)" d="M 138.5271 159.826057 
C 138.762131 159.826057 138.987566 159.732678 139.153758 159.566487 
C 139.319949 159.400296 139.413327 159.17486 139.413327 158.93983 
C 139.413327 158.7048 139.319949 158.479364 139.153758 158.313173 
C 138.987566 158.146982 138.762131 158.053603 138.5271 158.053603 
C 138.29207 158.053603 138.066635 158.146982 137.900443 158.313173 
C 137.734252 158.479364 137.640874 158.7048 137.640874 158.93983 
C 137.640874 159.17486 137.734252 159.400296 137.900443 159.566487 
C 138.066635 159.732678 138.29207 159.826057 138.5271 159.826057 
z
" style="fill:#a9a9a9;stroke:#a9a9a9;stroke-width:0.886227;"/>
    <path clip-path="url(#p601437e6ff)" d="M 203.523005 125.661436 
C 203.758036 125.661436 203.983471 125.568057 204.149663 125.401866 
C 204.315854 125.235674 204.409232 125.010239 204.409232 124.775209 
C 204.409232 124.540178 204.315854 124.314743 204.149663 124.148552 
C 203.983471 123.98236 203.758036 123.888982 203.523005 123.888982 
C 203.287975 123.888982 203.06254 123.98236 202.896348 124.148552 
C 202.730157 124.314743 202.636779 124.540178 202.636779 124.775209 
C 202.636779 125.010239 202.730157 125.235674 202.896348 125.401866 
C 203.06254 125.568057 203.287975 125.661436 203.523005 125.661436 
z
" style="fill:#a9a9a9;stroke:#a9a9a9;stroke-width:0.886227;"/>
    <path clip-path="url(#p601437e6ff)" d="M 268.51891 119.831461 
C 268.753941 119.831461 268.979376 119.738082 269.145568 119.571891 
C 269.311759 119.405699 269.405137 119.180264 269.405137 118.945234 
C 269.405137 118.710204 269.311759 118.484768 269.145568 118.318577 
C 268.979376 118.152385 268.753941 118.059007 268.51891 118.059007 
C 268.28388 118.059007 268.058445 118.152385 267.892253 118.318577 
C 267.726062 118.484768 267.632684 118.710204 267.632684 118.945234 
C 267.632684 119.180264 267.726062 119.405699 267.892253 119.571891 
C 268.058445 119.738082 268.28388 119.831461 268.51891 119.831461 
z
" style="fill:#a9a9a9;stroke:#a9a9a9;stroke-width:0.886227;"/>
    <path clip-path="url(#p601437e6ff)" d="M 333.514815 113.296845 
C 333.749846 113.296845 333.975281 113.203466 334.141473 113.037275 
C 334.307664 112.871084 334.401042 112.645648 334.401042 112.410618 
C 334.401042 112.175588 334.307664 111.950152 334.141473 111.783961 
C 333.975281 111.61777 333.749846 111.524391 333.514815 111.524391 
C 333.279785 111.524391 333.05435 111.61777 332.888158 111.783961 
C 332.721967 111.950152 332.628589 112.175588 332.628589 112.410618 
C 332.628589 112.645648 332.721967 112.871084 332.888158 113.037275 
C 333.05435 113.203466 333.279785 113.296845 333.514815 113.296845 
z
" style="fill:#a9a9a9;stroke:#a9a9a9;stroke-width:0.886227;"/>
    <path clip-path="url(#p601437e6ff)" d="M 398.51072 109.008122 
C 398.745751 109.008122 398.971186 108.914744 399.137378 108.748552 
C 399.303569 108.582361 399.396947 108.356925 399.396947 108.121895 
C 399.396947 107.886865 399.303569 107.66143 399.137378 107.495238 
C 398.971186 107.329047 398.745751 107.235668 398.51072 107.235668 
C 398.27569 107.235668 398.050255 107.329047 397.884063 107.495238 
C 397.717872 107.66143 397.624494 107.886865 397.624494 108.121895 
C 397.624494 108.356925 397.717872 108.582361 397.884063 108.748552 
C 398.050255 108.914744 398.27569 109.008122 398.51072 109.008122 
z
" style="fill:#a9a9a9;stroke:#a9a9a9;stroke-width:0.886227;"/>
    <path clip-path="url(#p601437e6ff)" d="M 74.181155 40.765668 
C 74.416185 40.765668 74.64162 40.67229 74.807812 40.506098 
C 74.974003 40.339907 75.067381 40.114471 75.067381 39.879441 
C 75.067381 39.644411 74.974003 39.418975 74.807812 39.252784 
C 74.64162 39.086593 74.416185 38.993214 74.181155 38.993214 
C 73.946124 38.993214 73.720689 39.086593 73.554497 39.252784 
C 73.388306 39.418975 73.294928 39.644411 73.294928 39.879441 
C 73.294928 40.114471 73.388306 40.339907 73.554497 40.506098 
C 73.720689 40.67229 73.946124 40.765668 74.181155 40.765668 
z
" style="fill:#a9a9a9;stroke:#a9a9a9;stroke-width:0.886227;"/>
    <path clip-path="url(#p601437e6ff)" d="M 74.831114 41.289889 
C 75.066144 41.289889 75.291579 41.196511 75.457771 41.030319 
C 75.623962 40.864128 75.717341 40.638693 75.717341 40.403662 
C 75.717341 40.168632 75.623962 39.943197 75.457771 39.777005 
C 75.291579 39.610814 75.066144 39.517435 74.831114 39.517435 
C 74.596083 39.517435 74.370648 39.610814 74.204457 39.777005 
C 74.038265 39.943197 73.944887 40.168632 73.944887 40.403662 
C 73.944887 40.638693 74.038265 40.864128 74.204457 41.030319 
C 74.370648 41.196511 74.596083 41.289889 74.831114 41.289889 
z
" style="fill:#a9a9a9;stroke:#a9a9a9;stroke-width:0.886227;"/>
    <path clip-path="url(#p601437e6ff)" d="M 75.481073 41.552711 
C 75.716103 41.552711 75.941538 41.459332 76.10773 41.293141 
C 76.273921 41.12695 76.3673 40.901514 76.3673 40.666484 
C 76.3673 40.431454 76.273921 40.206018 76.10773 40.039827 
C 75.941538 39.873635 75.716103 39.780257 75.481073 39.780257 
C 75.246043 39.780257 75.020607 39.873635 74.854416 40.039827 
C 74.688224 40.206018 74.594846 40.431454 74.594846 40.666484 
C 74.594846 40.901514 74.688224 41.12695 74.854416 41.293141 
C 75.020607 41.459332 75.246043 41.552711 75.481073 41.552711 
z
" style="fill:#a9a9a9;stroke:#a9a9a9;stroke-width:0.886227;"/>
    <path clip-path="url(#p601437e6ff)" d="M 76.780991 42.271137 
C 77.016021 42.271137 77.241456 42.177759 77.407648 42.011568 
C 77.573839 41.845376 77.667218 41.619941 77.667218 41.384911 
C 77.667218 41.14988 77.573839 40.924445 77.407648 40.758254 
C 77.241456 40.592062 77.016021 40.498684 76.780991 40.498684 
C 76.545961 40.498684 76.320525 40.592062 76.154334 40.758254 
C 75.988142 40.924445 75.894764 41.14988 75.894764 41.384911 
C 75.894764 41.619941 75.988142 41.845376 76.154334 42.011568 
C 76.320525 42.177759 76.545961 42.271137 76.780991 42.271137 
z
" style="fill:#a9a9a9;stroke:#a9a9a9;stroke-width:0.886227;"/>
    <path clip-path="url(#p601437e6ff)" d="M 80.030786 44.295696 
C 80.265816 44.295696 80.491252 44.202318 80.657443 44.036126 
C 80.823634 43.869935 80.917013 43.644499 80.917013 43.409469 
C 80.917013 43.174439 80.823634 42.949004 80.657443 42.782812 
C 80.491252 42.616621 80.265816 42.523242 80.030786 42.523242 
C 79.795756 42.523242 79.57032 42.616621 79.404129 42.782812 
C 79.237938 42.949004 79.144559 43.174439 79.144559 43.409469 
C 79.144559 43.644499 79.237938 43.869935 79.404129 44.036126 
C 79.57032 44.202318 79.795756 44.295696 80.030786 44.295696 
z
" style="fill:#a9a9a9;stroke:#a9a9a9;stroke-width:0.886227;"/>
    <path clip-path="url(#p601437e6ff)" d="M 86.530376 48.231848 
C 86.765407 48.231848 86.990842 48.138469 87.157034 47.972278 
C 87.323225 47.806087 87.416603 47.580651 87.416603 47.345621 
C 87.416603 47.110591 87.323225 46.885155 87.157034 46.718964 
C 86.990842 46.552773 86.765407 46.459394 86.530376 46.459394 
C 86.295346 46.459394 86.069911 46.552773 85.903719 46.718964 
C 85.737528 46.885155 85.64415 47.110591 85.64415 47.345621 
C 85.64415 47.580651 85.737528 47.806087 85.903719 47.972278 
C 86.069911 48.138469 86.295346 48.231848 86.530376 48.231848 
z
" style="fill:#a9a9a9;stroke:#a9a9a9;stroke-width:0.886227;"/>
    <path clip-path="url(#p601437e6ff)" d="M 93.029967 52.173337 
C 93.264997 52.173337 93.490433 52.079959 93.656624 51.913767 
C 93.822815 51.747576 93.916194 51.52214 93.916194 51.28711 
C 93.916194 51.05208 93.822815 50.826645 93.656624 50.660453 
C 93.490433 50.494262 93.264997 50.400883 93.029967 50.400883 
C 92.794937 50.400883 92.569501 50.494262 92.40331 50.660453 
C 92.237119 50.826645 92.14374 51.05208 92.14374 51.28711 
C 92.14374 51.52214 92.237119 51.747576 92.40331 51.913767 
C 92.569501 52.079959 92.794937 52.173337 93.029967 52.173337 
z
" style="fill:#a9a9a9;stroke:#a9a9a9;stroke-width:0.886227;"/>
    <path clip-path="url(#p601437e6ff)" d="M 106.029148 57.833697 
C 106.264178 57.833697 106.489614 57.740319 106.655805 57.574127 
C 106.821996 57.407936 106.915375 57.1825 106.915375 56.94747 
C 106.915375 56.71244 106.821996 56.487004 106.655805 56.320813 
C 106.489614 56.154622 106.264178 56.061243 106.029148 56.061243 
C 105.794118 56.061243 105.568682 56.154622 105.402491 56.320813 
C 105.2363 56.487004 105.142921 56.71244 105.142921 56.94747 
C 105.142921 57.1825 105.2363 57.407936 105.402491 57.574127 
C 105.568682 57.740319 105.794118 57.833697 106.029148 57.833697 
z
" style="fill:#a9a9a9;stroke:#a9a9a9;stroke-width:0.886227;"/>
    <path clip-path="url(#p601437e6ff)" d="M 119.028329 66.406892 
C 119.263359 66.406892 119.488795 66.313514 119.654986 66.147322 
C 119.821177 65.981131 119.914556 65.755695 119.914556 65.520665 
C 119.914556 65.285635 119.821177 65.0602 119.654986 64.894008 
C 119.488795 64.727817 119.263359 64.634438 119.028329 64.634438 
C 118.793299 64.634438 118.567863 64.727817 118.401672 64.894008 
C 118.235481 65.0602 118.142102 65.285635 118.142102 65.520665 
C 118.142102 65.755695 118.235481 65.981131 118.401672 66.147322 
C 118.567863 66.313514 118.793299 66.406892 119.028329 66.406892 
z
" style="fill:#a9a9a9;stroke:#a9a9a9;stroke-width:0.886227;"/>
    <path clip-path="url(#p601437e6ff)" d="M 138.5271 74.777267 
C 138.762131 74.777267 138.987566 74.683889 139.153758 74.517697 
C 139.319949 74.351506 139.413327 74.126071 139.413327 73.89104 
C 139.413327 73.65601 139.319949 73.430575 139.153758 73.264383 
C 138.987566 73.098192 138.762131 73.004813 138.5271 73.004813 
C 138.29207 73.004813 138.066635 73.098192 137.900443 73.264383 
C 137.734252 73.430575 137.640874 73.65601 137.640874 73.89104 
C 137.640874 74.126071 137.734252 74.351506 137.900443 74.517697 
C 138.066635 74.683889 138.29207 74.777267 138.5271 74.777267 
z
" style="fill:#a9a9a9;stroke:#a9a9a9;stroke-width:0.886227;"/>
    <path clip-path="url(#p601437e6ff)" d="M 203.523005 94.669132 
C 203.758036 94.669132 203.983471 94.575754 204.149663 94.409562 
C 204.315854 94.243371 204.409232 94.017935 204.409232 93.782905 
C 204.409232 93.547875 204.315854 93.322439 204.149663 93.156248 
C 203.983471 92.990057 203.758036 92.896678 203.523005 92.896678 
C 203.287975 92.896678 203.06254 92.990057 202.896348 93.156248 
C 202.730157 93.322439 202.636779 93.547875 202.636779 93.782905 
C 202.636779 94.017935 202.730157 94.243371 202.896348 94.409562 
C 203.06254 94.575754 203.287975 94.669132 203.523005 94.669132 
z
" style="fill:#a9a9a9;stroke:#a9a9a9;stroke-width:0.886227;"/>
    <path clip-path="url(#p601437e6ff)" d="M 268.51891 115.608431 
C 268.753941 115.608431 268.979376 115.515052 269.145568 115.348861 
C 269.311759 115.182669 269.405137 114.957234 269.405137 114.722204 
C 269.405137 114.487174 269.311759 114.261738 269.145568 114.095547 
C 268.979376 113.929355 268.753941 113.835977 268.51891 113.835977 
C 268.28388 113.835977 268.058445 113.929355 267.892253 114.095547 
C 267.726062 114.261738 267.632684 114.487174 267.632684 114.722204 
C 267.632684 114.957234 267.726062 115.182669 267.892253 115.348861 
C 268.058445 115.515052 268.28388 115.608431 268.51891 115.608431 
z
" style="fill:#a9a9a9;stroke:#a9a9a9;stroke-width:0.886227;"/>
    <path clip-path="url(#p601437e6ff)" d="M 333.514815 137.647852 
C 333.749846 137.647852 333.975281 137.554473 334.141473 137.388282 
C 334.307664 137.22209 334.401042 136.996655 334.401042 136.761625 
C 334.401042 136.526595 334.307664 136.301159 334.141473 136.134968 
C 333.975281 135.968776 333.749846 135.875398 333.514815 135.875398 
C 333.279785 135.875398 333.05435 135.968776 332.888158 136.134968 
C 332.721967 136.301159 332.628589 136.526595 332.628589 136.761625 
C 332.628589 136.996655 332.721967 137.22209 332.888158 137.388282 
C 333.05435 137.554473 333.279785 137.647852 333.514815 137.647852 
z
" style="fill:#a9a9a9;stroke:#a9a9a9;stroke-width:0.886227;"/>
    <path clip-path="url(#p601437e6ff)" d="M 398.51072 156.574133 
C 398.745751 156.574133 398.971186 156.480754 399.137378 156.314563 
C 399.303569 156.148372 399.396947 155.922936 399.396947 155.687906 
C 399.396947 155.452876 399.303569 155.22744 399.137378 155.061249 
C 398.971186 154.895057 398.745751 154.801679 398.51072 154.801679 
C 398.27569 154.801679 398.050255 154.895057 397.884063 155.061249 
C 397.717872 155.22744 397.624494 155.452876 397.624494 155.687906 
C 397.624494 155.922936 397.717872 156.148372 397.884063 156.314563 
C 398.050255 156.480754 398.27569 156.574133 398.51072 156.574133 
z
" style="fill:#a9a9a9;stroke:#a9a9a9;stroke-width:0.886227;"/>
   </g>
   <g id="patch_3">
    <path d="M 57.785938 293.895376 
L 57.785938 27.783376 
" style="fill:none;stroke:#808080;stroke-linecap:square;stroke-linejoin:miter;"/>
   </g>
   <g id="patch_4">
    <path d="M 57.785938 293.895376 
L 414.905938 293.895376 
" style="fill:none;stroke:#808080;stroke-linecap:square;stroke-linejoin:miter;"/>
   </g>
   <g id="LineCollection_1">
    <path clip-path="url(#p601437e6ff)" d="M 74.018665 39.879498 
L 74.343644 39.879498 
" style="fill:none;stroke:#a9a9a9;stroke-width:0.886227;"/>
    <path clip-path="url(#p601437e6ff)" d="M 74.668624 67.160303 
L 74.993603 67.160303 
" style="fill:none;stroke:#a9a9a9;stroke-width:0.886227;"/>
    <path clip-path="url(#p601437e6ff)" d="M 75.318583 91.133912 
L 75.643562 91.133912 
" style="fill:none;stroke:#a9a9a9;stroke-width:0.886227;"/>
    <path clip-path="url(#p601437e6ff)" d="M 76.618501 141.359123 
L 76.94348 141.359123 
" style="fill:none;stroke:#a9a9a9;stroke-width:0.886227;"/>
    <path clip-path="url(#p601437e6ff)" d="M 79.868296 251.593478 
L 80.193276 251.593478 
" style="fill:none;stroke:#a9a9a9;stroke-width:0.886227;"/>
    <path clip-path="url(#p601437e6ff)" d="M 86.367887 224.096121 
L 86.692866 224.096121 
" style="fill:none;stroke:#a9a9a9;stroke-width:0.886227;"/>
    <path clip-path="url(#p601437e6ff)" d="M 92.867477 214.511056 
L 93.192457 214.511056 
" style="fill:none;stroke:#a9a9a9;stroke-width:0.886227;"/>
    <path clip-path="url(#p601437e6ff)" d="M 105.866658 201.278742 
L 106.191638 201.278742 
" style="fill:none;stroke:#a9a9a9;stroke-width:0.886227;"/>
    <path clip-path="url(#p601437e6ff)" d="M 118.865839 182.708085 
L 119.190819 182.708085 
" style="fill:none;stroke:#a9a9a9;stroke-width:0.886227;"/>
    <path clip-path="url(#p601437e6ff)" d="M 138.364611 165.662343 
L 138.68959 165.662343 
" style="fill:none;stroke:#a9a9a9;stroke-width:0.886227;"/>
    <path clip-path="url(#p601437e6ff)" d="M 203.360516 128.741455 
L 203.685495 128.741455 
" style="fill:none;stroke:#a9a9a9;stroke-width:0.886227;"/>
    <path clip-path="url(#p601437e6ff)" d="M 268.356421 122.071449 
L 268.6814 122.071449 
" style="fill:none;stroke:#a9a9a9;stroke-width:0.886227;"/>
    <path clip-path="url(#p601437e6ff)" d="M 333.352326 116.570836 
L 333.677305 116.570836 
" style="fill:none;stroke:#a9a9a9;stroke-width:0.886227;"/>
    <path clip-path="url(#p601437e6ff)" d="M 398.348231 112.87763 
L 398.67321 112.87763 
" style="fill:none;stroke:#a9a9a9;stroke-width:0.886227;"/>
    <path clip-path="url(#p601437e6ff)" d="M 74.018665 39.879506 
L 74.343644 39.879506 
" style="fill:none;stroke:#a9a9a9;stroke-width:0.886227;"/>
    <path clip-path="url(#p601437e6ff)" d="M 74.668624 40.554144 
L 74.993603 40.554144 
" style="fill:none;stroke:#a9a9a9;stroke-width:0.886227;"/>
    <path clip-path="url(#p601437e6ff)" d="M 75.318583 40.78495 
L 75.643562 40.78495 
" style="fill:none;stroke:#a9a9a9;stroke-width:0.886227;"/>
    <path clip-path="url(#p601437e6ff)" d="M 76.618501 41.784902 
L 76.94348 41.784902 
" style="fill:none;stroke:#a9a9a9;stroke-width:0.886227;"/>
    <path clip-path="url(#p601437e6ff)" d="M 79.868296 43.74282 
L 80.193276 43.74282 
" style="fill:none;stroke:#a9a9a9;stroke-width:0.886227;"/>
    <path clip-path="url(#p601437e6ff)" d="M 86.367887 47.78089 
L 86.692866 47.78089 
" style="fill:none;stroke:#a9a9a9;stroke-width:0.886227;"/>
    <path clip-path="url(#p601437e6ff)" d="M 92.867477 52.581744 
L 93.192457 52.581744 
" style="fill:none;stroke:#a9a9a9;stroke-width:0.886227;"/>
    <path clip-path="url(#p601437e6ff)" d="M 105.866658 57.478512 
L 106.191638 57.478512 
" style="fill:none;stroke:#a9a9a9;stroke-width:0.886227;"/>
    <path clip-path="url(#p601437e6ff)" d="M 118.865839 69.979414 
L 119.190819 69.979414 
" style="fill:none;stroke:#a9a9a9;stroke-width:0.886227;"/>
    <path clip-path="url(#p601437e6ff)" d="M 138.364611 79.513738 
L 138.68959 79.513738 
" style="fill:none;stroke:#a9a9a9;stroke-width:0.886227;"/>
    <path clip-path="url(#p601437e6ff)" d="M 203.360516 95.596721 
L 203.685495 95.596721 
" style="fill:none;stroke:#a9a9a9;stroke-width:0.886227;"/>
    <path clip-path="url(#p601437e6ff)" d="M 268.356421 116.91549 
L 268.6814 116.91549 
" style="fill:none;stroke:#a9a9a9;stroke-width:0.886227;"/>
    <path clip-path="url(#p601437e6ff)" d="M 333.352326 140.596648 
L 333.677305 140.596648 
" style="fill:none;stroke:#a9a9a9;stroke-width:0.886227;"/>
    <path clip-path="url(#p601437e6ff)" d="M 398.348231 158.146047 
L 398.67321 158.146047 
" style="fill:none;stroke:#a9a9a9;stroke-width:0.886227;"/>
    <path clip-path="url(#p601437e6ff)" d="M 74.018665 39.879415 
L 74.343644 39.879415 
" style="fill:none;stroke:#a9a9a9;stroke-width:0.886227;"/>
    <path clip-path="url(#p601437e6ff)" d="M 74.668624 65.903539 
L 74.993603 65.903539 
" style="fill:none;stroke:#a9a9a9;stroke-width:0.886227;"/>
    <path clip-path="url(#p601437e6ff)" d="M 75.318583 89.718847 
L 75.643562 89.718847 
" style="fill:none;stroke:#a9a9a9;stroke-width:0.886227;"/>
    <path clip-path="url(#p601437e6ff)" d="M 76.618501 138.971486 
L 76.94348 138.971486 
" style="fill:none;stroke:#a9a9a9;stroke-width:0.886227;"/>
    <path clip-path="url(#p601437e6ff)" d="M 79.868296 244.844863 
L 80.193276 244.844863 
" style="fill:none;stroke:#a9a9a9;stroke-width:0.886227;"/>
    <path clip-path="url(#p601437e6ff)" d="M 86.367887 221.089902 
L 86.692866 221.089902 
" style="fill:none;stroke:#a9a9a9;stroke-width:0.886227;"/>
    <path clip-path="url(#p601437e6ff)" d="M 92.867477 208.876618 
L 93.192457 208.876618 
" style="fill:none;stroke:#a9a9a9;stroke-width:0.886227;"/>
    <path clip-path="url(#p601437e6ff)" d="M 105.866658 189.996324 
L 106.191638 189.996324 
" style="fill:none;stroke:#a9a9a9;stroke-width:0.886227;"/>
    <path clip-path="url(#p601437e6ff)" d="M 118.865839 171.540555 
L 119.190819 171.540555 
" style="fill:none;stroke:#a9a9a9;stroke-width:0.886227;"/>
    <path clip-path="url(#p601437e6ff)" d="M 138.364611 152.217317 
L 138.68959 152.217317 
" style="fill:none;stroke:#a9a9a9;stroke-width:0.886227;"/>
    <path clip-path="url(#p601437e6ff)" d="M 203.360516 120.808962 
L 203.685495 120.808962 
" style="fill:none;stroke:#a9a9a9;stroke-width:0.886227;"/>
    <path clip-path="url(#p601437e6ff)" d="M 268.356421 115.819019 
L 268.6814 115.819019 
" style="fill:none;stroke:#a9a9a9;stroke-width:0.886227;"/>
    <path clip-path="url(#p601437e6ff)" d="M 333.352326 108.2504 
L 333.677305 108.2504 
" style="fill:none;stroke:#a9a9a9;stroke-width:0.886227;"/>
    <path clip-path="url(#p601437e6ff)" d="M 398.348231 103.36616 
L 398.67321 103.36616 
" style="fill:none;stroke:#a9a9a9;stroke-width:0.886227;"/>
    <path clip-path="url(#p601437e6ff)" d="M 74.018665 39.879376 
L 74.343644 39.879376 
" style="fill:none;stroke:#a9a9a9;stroke-width:0.886227;"/>
    <path clip-path="url(#p601437e6ff)" d="M 74.668624 40.253181 
L 74.993603 40.253181 
" style="fill:none;stroke:#a9a9a9;stroke-width:0.886227;"/>
    <path clip-path="url(#p601437e6ff)" d="M 75.318583 40.548018 
L 75.643562 40.548018 
" style="fill:none;stroke:#a9a9a9;stroke-width:0.886227;"/>
    <path clip-path="url(#p601437e6ff)" d="M 76.618501 40.984919 
L 76.94348 40.984919 
" style="fill:none;stroke:#a9a9a9;stroke-width:0.886227;"/>
    <path clip-path="url(#p601437e6ff)" d="M 79.868296 43.076119 
L 80.193276 43.076119 
" style="fill:none;stroke:#a9a9a9;stroke-width:0.886227;"/>
    <path clip-path="url(#p601437e6ff)" d="M 86.367887 46.910352 
L 86.692866 46.910352 
" style="fill:none;stroke:#a9a9a9;stroke-width:0.886227;"/>
    <path clip-path="url(#p601437e6ff)" d="M 92.867477 49.992476 
L 93.192457 49.992476 
" style="fill:none;stroke:#a9a9a9;stroke-width:0.886227;"/>
    <path clip-path="url(#p601437e6ff)" d="M 105.866658 56.416428 
L 106.191638 56.416428 
" style="fill:none;stroke:#a9a9a9;stroke-width:0.886227;"/>
    <path clip-path="url(#p601437e6ff)" d="M 118.865839 61.061917 
L 119.190819 61.061917 
" style="fill:none;stroke:#a9a9a9;stroke-width:0.886227;"/>
    <path clip-path="url(#p601437e6ff)" d="M 138.364611 68.268343 
L 138.68959 68.268343 
" style="fill:none;stroke:#a9a9a9;stroke-width:0.886227;"/>
    <path clip-path="url(#p601437e6ff)" d="M 203.360516 91.969089 
L 203.685495 91.969089 
" style="fill:none;stroke:#a9a9a9;stroke-width:0.886227;"/>
    <path clip-path="url(#p601437e6ff)" d="M 268.356421 112.528917 
L 268.6814 112.528917 
" style="fill:none;stroke:#a9a9a9;stroke-width:0.886227;"/>
    <path clip-path="url(#p601437e6ff)" d="M 333.352326 132.926601 
L 333.677305 132.926601 
" style="fill:none;stroke:#a9a9a9;stroke-width:0.886227;"/>
    <path clip-path="url(#p601437e6ff)" d="M 398.348231 153.229765 
L 398.67321 153.229765 
" style="fill:none;stroke:#a9a9a9;stroke-width:0.886227;"/>
    <path clip-path="url(#p601437e6ff)" d="M 74.181155 39.879415 
L 74.181155 39.879498 
" style="fill:none;stroke:#a9a9a9;stroke-width:0.886227;"/>
    <path clip-path="url(#p601437e6ff)" d="M 74.831114 65.903539 
L 74.831114 67.160303 
" style="fill:none;stroke:#a9a9a9;stroke-width:0.886227;"/>
    <path clip-path="url(#p601437e6ff)" d="M 75.481073 89.718847 
L 75.481073 91.133912 
" style="fill:none;stroke:#a9a9a9;stroke-width:0.886227;"/>
    <path clip-path="url(#p601437e6ff)" d="M 76.780991 138.971486 
L 76.780991 141.359123 
" style="fill:none;stroke:#a9a9a9;stroke-width:0.886227;"/>
    <path clip-path="url(#p601437e6ff)" d="M 80.030786 244.844863 
L 80.030786 251.593478 
" style="fill:none;stroke:#a9a9a9;stroke-width:0.886227;"/>
    <path clip-path="url(#p601437e6ff)" d="M 86.530376 221.089902 
L 86.530376 224.096121 
" style="fill:none;stroke:#a9a9a9;stroke-width:0.886227;"/>
    <path clip-path="url(#p601437e6ff)" d="M 93.029967 208.876618 
L 93.029967 214.511056 
" style="fill:none;stroke:#a9a9a9;stroke-width:0.886227;"/>
    <path clip-path="url(#p601437e6ff)" d="M 106.029148 189.996324 
L 106.029148 201.278742 
" style="fill:none;stroke:#a9a9a9;stroke-width:0.886227;"/>
    <path clip-path="url(#p601437e6ff)" d="M 119.028329 171.540555 
L 119.028329 182.708085 
" style="fill:none;stroke:#a9a9a9;stroke-width:0.886227;"/>
    <path clip-path="url(#p601437e6ff)" d="M 138.5271 152.217317 
L 138.5271 165.662343 
" style="fill:none;stroke:#a9a9a9;stroke-width:0.886227;"/>
    <path clip-path="url(#p601437e6ff)" d="M 203.523005 120.808962 
L 203.523005 128.741455 
" style="fill:none;stroke:#a9a9a9;stroke-width:0.886227;"/>
    <path clip-path="url(#p601437e6ff)" d="M 268.51891 115.819019 
L 268.51891 122.071449 
" style="fill:none;stroke:#a9a9a9;stroke-width:0.886227;"/>
    <path clip-path="url(#p601437e6ff)" d="M 333.514815 108.2504 
L 333.514815 116.570836 
" style="fill:none;stroke:#a9a9a9;stroke-width:0.886227;"/>
    <path clip-path="url(#p601437e6ff)" d="M 398.51072 103.36616 
L 398.51072 112.87763 
" style="fill:none;stroke:#a9a9a9;stroke-width:0.886227;"/>
    <path clip-path="url(#p601437e6ff)" d="M 74.181155 39.879376 
L 74.181155 39.879506 
" style="fill:none;stroke:#a9a9a9;stroke-width:0.886227;"/>
    <path clip-path="url(#p601437e6ff)" d="M 74.831114 40.253181 
L 74.831114 40.554144 
" style="fill:none;stroke:#a9a9a9;stroke-width:0.886227;"/>
    <path clip-path="url(#p601437e6ff)" d="M 75.481073 40.548018 
L 75.481073 40.78495 
" style="fill:none;stroke:#a9a9a9;stroke-width:0.886227;"/>
    <path clip-path="url(#p601437e6ff)" d="M 76.780991 40.984919 
L 76.780991 41.784902 
" style="fill:none;stroke:#a9a9a9;stroke-width:0.886227;"/>
    <path clip-path="url(#p601437e6ff)" d="M 80.030786 43.076119 
L 80.030786 43.74282 
" style="fill:none;stroke:#a9a9a9;stroke-width:0.886227;"/>
    <path clip-path="url(#p601437e6ff)" d="M 86.530376 46.910352 
L 86.530376 47.78089 
" style="fill:none;stroke:#a9a9a9;stroke-width:0.886227;"/>
    <path clip-path="url(#p601437e6ff)" d="M 93.029967 49.992476 
L 93.029967 52.581744 
" style="fill:none;stroke:#a9a9a9;stroke-width:0.886227;"/>
    <path clip-path="url(#p601437e6ff)" d="M 106.029148 56.416428 
L 106.029148 57.478512 
" style="fill:none;stroke:#a9a9a9;stroke-width:0.886227;"/>
    <path clip-path="url(#p601437e6ff)" d="M 119.028329 61.061917 
L 119.028329 69.979414 
" style="fill:none;stroke:#a9a9a9;stroke-width:0.886227;"/>
    <path clip-path="url(#p601437e6ff)" d="M 138.5271 68.268343 
L 138.5271 79.513738 
" style="fill:none;stroke:#a9a9a9;stroke-width:0.886227;"/>
    <path clip-path="url(#p601437e6ff)" d="M 203.523005 91.969089 
L 203.523005 95.596721 
" style="fill:none;stroke:#a9a9a9;stroke-width:0.886227;"/>
    <path clip-path="url(#p601437e6ff)" d="M 268.51891 112.528917 
L 268.51891 116.91549 
" style="fill:none;stroke:#a9a9a9;stroke-width:0.886227;"/>
    <path clip-path="url(#p601437e6ff)" d="M 333.514815 132.926601 
L 333.514815 140.596648 
" style="fill:none;stroke:#a9a9a9;stroke-width:0.886227;"/>
    <path clip-path="url(#p601437e6ff)" d="M 398.51072 153.229765 
L 398.51072 158.146047 
" style="fill:none;stroke:#a9a9a9;stroke-width:0.886227;"/>
   </g>
   <g id="line2d_41">
    <path clip-path="url(#p601437e6ff)" d="M 74.181155 281.799376 
L 74.181155 281.799376 
L 74.831114 281.799376 
L 74.831114 281.799376 
L 75.481073 281.799376 
L 75.481073 281.799376 
L 76.780991 281.799376 
L 76.780991 281.799376 
L 80.030786 281.799376 
L 80.030786 281.799376 
L 86.530376 281.799376 
L 86.530376 281.799376 
L 93.029967 281.799376 
L 93.029967 281.799376 
L 106.029148 281.799376 
L 106.029148 281.799376 
L 119.028329 281.799376 
L 119.028329 281.799376 
L 138.5271 281.799376 
L 138.5271 281.799376 
L 203.523005 281.799376 
L 203.523005 281.799376 
L 268.51891 281.799376 
L 268.51891 281.799376 
L 333.514815 281.799376 
L 333.514815 281.799376 
L 398.51072 281.799376 
L 398.51072 281.799376 
" style="fill:none;stroke:#a9a9a9;stroke-dasharray:6.558079,2.835926;stroke-dashoffset:0;stroke-width:1.772454;"/>
   </g>
   <g id="patch_5">
    <path d="M 422.105938 197.60997 
L 538.045313 197.60997 
L 538.045313 120.612782 
L 422.105938 120.612782 
z
" style="fill:#ffffff;"/>
   </g>
   <g id="text_13">
    <!-- Group -->
    <defs>
     <path d="M 59.515625 10.40625 
L 59.515625 29.984375 
L 43.40625 29.984375 
L 43.40625 38.09375 
L 69.28125 38.09375 
L 69.28125 6.78125 
Q 63.578125 2.734375 56.6875 0.65625 
Q 49.8125 -1.421875 42 -1.421875 
Q 24.90625 -1.421875 15.25 8.5625 
Q 5.609375 18.5625 5.609375 36.375 
Q 5.609375 54.25 15.25 64.234375 
Q 24.90625 74.21875 42 74.21875 
Q 49.125 74.21875 55.546875 72.453125 
Q 61.96875 70.703125 67.390625 67.28125 
L 67.390625 56.78125 
Q 61.921875 61.421875 55.765625 63.765625 
Q 49.609375 66.109375 42.828125 66.109375 
Q 29.4375 66.109375 22.71875 58.640625 
Q 16.015625 51.171875 16.015625 36.375 
Q 16.015625 21.625 22.71875 14.15625 
Q 29.4375 6.6875 42.828125 6.6875 
Q 48.046875 6.6875 52.140625 7.59375 
Q 56.25 8.5 59.515625 10.40625 
z
" id="DejaVuSans-71"/>
     <path d="M 18.109375 8.203125 
L 18.109375 -20.796875 
L 9.078125 -20.796875 
L 9.078125 54.6875 
L 18.109375 54.6875 
L 18.109375 46.390625 
Q 20.953125 51.265625 25.265625 53.625 
Q 29.59375 56 35.59375 56 
Q 45.5625 56 51.78125 48.09375 
Q 58.015625 40.1875 58.015625 27.296875 
Q 58.015625 14.40625 51.78125 6.484375 
Q 45.5625 -1.421875 35.59375 -1.421875 
Q 29.59375 -1.421875 25.265625 0.953125 
Q 20.953125 3.328125 18.109375 8.203125 
z
M 48.6875 27.296875 
Q 48.6875 37.203125 44.609375 42.84375 
Q 40.53125 48.484375 33.40625 48.484375 
Q 26.265625 48.484375 22.1875 42.84375 
Q 18.109375 37.203125 18.109375 27.296875 
Q 18.109375 17.390625 22.1875 11.75 
Q 26.265625 6.109375 33.40625 6.109375 
Q 40.53125 6.109375 44.609375 11.75 
Q 48.6875 17.390625 48.6875 27.296875 
z
" id="DejaVuSans-112"/>
    </defs>
    <g transform="translate(434.305938 148.349501)scale(0.15 -0.15)">
     <use xlink:href="#DejaVuSans-71"/>
     <use x="77.490234" xlink:href="#DejaVuSans-114"/>
     <use x="118.572266" xlink:href="#DejaVuSans-111"/>
     <use x="179.753906" xlink:href="#DejaVuSans-117"/>
     <use x="243.132812" xlink:href="#DejaVuSans-112"/>
    </g>
   </g>
   <g id="patch_6">
    <path clip-path="url(#p6f45e55a9b)" d="M 434.305938 167.56997 
L 450.145938 167.56997 
L 450.145938 151.72997 
L 434.305938 151.72997 
z
" style="fill:#ffffff;stroke:#ffffff;stroke-linejoin:miter;"/>
   </g>
   <g id="line2d_42">
    <path clip-path="url(#p6f45e55a9b)" d="M 434.305938 159.64997 
L 450.145938 159.64997 
" style="fill:none;stroke:#1976d2;stroke-width:2.658681;"/>
   </g>
   <g id="text_14">
    <!-- corrected -->
    <defs>
     <path d="M 45.40625 46.390625 
L 45.40625 75.984375 
L 54.390625 75.984375 
L 54.390625 0 
L 45.40625 0 
L 45.40625 8.203125 
Q 42.578125 3.328125 38.25 0.953125 
Q 33.9375 -1.421875 27.875 -1.421875 
Q 17.96875 -1.421875 11.734375 6.484375 
Q 5.515625 14.40625 5.515625 27.296875 
Q 5.515625 40.1875 11.734375 48.09375 
Q 17.96875 56 27.875 56 
Q 33.9375 56 38.25 53.625 
Q 42.578125 51.265625 45.40625 46.390625 
z
M 14.796875 27.296875 
Q 14.796875 17.390625 18.875 11.75 
Q 22.953125 6.109375 30.078125 6.109375 
Q 37.203125 6.109375 41.296875 11.75 
Q 45.40625 17.390625 45.40625 27.296875 
Q 45.40625 37.203125 41.296875 42.84375 
Q 37.203125 48.484375 30.078125 48.484375 
Q 22.953125 48.484375 18.875 42.84375 
Q 14.796875 37.203125 14.796875 27.296875 
z
" id="DejaVuSans-100"/>
    </defs>
    <g transform="translate(453.145938 162.96122)scale(0.12 -0.12)">
     <use xlink:href="#DejaVuSans-99"/>
     <use x="54.980469" xlink:href="#DejaVuSans-111"/>
     <use x="116.162109" xlink:href="#DejaVuSans-114"/>
     <use x="157.259766" xlink:href="#DejaVuSans-114"/>
     <use x="198.341797" xlink:href="#DejaVuSans-101"/>
     <use x="259.865234" xlink:href="#DejaVuSans-99"/>
     <use x="314.845703" xlink:href="#DejaVuSans-116"/>
     <use x="354.054688" xlink:href="#DejaVuSans-101"/>
     <use x="415.578125" xlink:href="#DejaVuSans-100"/>
    </g>
   </g>
   <g id="patch_7">
    <path clip-path="url(#p10abdf7a70)" d="M 434.305938 185.40997 
L 450.145938 185.40997 
L 450.145938 169.56997 
L 434.305938 169.56997 
z
" style="fill:#ffffff;stroke:#ffffff;stroke-linejoin:miter;"/>
   </g>
   <g id="line2d_43">
    <path clip-path="url(#p10abdf7a70)" d="M 434.305938 177.48997 
L 450.145938 177.48997 
" style="fill:none;stroke:#b3e5fc;stroke-width:2.658681;"/>
   </g>
   <g id="text_15">
    <!-- uncorrected -->
    <g transform="translate(453.145938 180.80122)scale(0.12 -0.12)">
     <use xlink:href="#DejaVuSans-117"/>
     <use x="63.378906" xlink:href="#DejaVuSans-110"/>
     <use x="126.757812" xlink:href="#DejaVuSans-99"/>
     <use x="181.738281" xlink:href="#DejaVuSans-111"/>
     <use x="242.919922" xlink:href="#DejaVuSans-114"/>
     <use x="284.017578" xlink:href="#DejaVuSans-114"/>
     <use x="325.099609" xlink:href="#DejaVuSans-101"/>
     <use x="386.623047" xlink:href="#DejaVuSans-99"/>
     <use x="441.603516" xlink:href="#DejaVuSans-116"/>
     <use x="480.8125" xlink:href="#DejaVuSans-101"/>
     <use x="542.335938" xlink:href="#DejaVuSans-100"/>
    </g>
   </g>
  </g>
  <g id="text_16">
   <!-- Similarity across varying numbers of partitions -->
   <defs>
    <path d="M 2.984375 54.6875 
L 12.5 54.6875 
L 29.59375 8.796875 
L 46.6875 54.6875 
L 56.203125 54.6875 
L 35.6875 0 
L 23.484375 0 
z
" id="DejaVuSans-118"/>
    <path d="M 45.40625 27.984375 
Q 45.40625 37.75 41.375 43.109375 
Q 37.359375 48.484375 30.078125 48.484375 
Q 22.859375 48.484375 18.828125 43.109375 
Q 14.796875 37.75 14.796875 27.984375 
Q 14.796875 18.265625 18.828125 12.890625 
Q 22.859375 7.515625 30.078125 7.515625 
Q 37.359375 7.515625 41.375 12.890625 
Q 45.40625 18.265625 45.40625 27.984375 
z
M 54.390625 6.78125 
Q 54.390625 -7.171875 48.1875 -13.984375 
Q 42 -20.796875 29.203125 -20.796875 
Q 24.46875 -20.796875 20.265625 -20.09375 
Q 16.0625 -19.390625 12.109375 -17.921875 
L 12.109375 -9.1875 
Q 16.0625 -11.328125 19.921875 -12.34375 
Q 23.78125 -13.375 27.78125 -13.375 
Q 36.625 -13.375 41.015625 -8.765625 
Q 45.40625 -4.15625 45.40625 5.171875 
L 45.40625 9.625 
Q 42.625 4.78125 38.28125 2.390625 
Q 33.9375 0 27.875 0 
Q 17.828125 0 11.671875 7.65625 
Q 5.515625 15.328125 5.515625 27.984375 
Q 5.515625 40.671875 11.671875 48.328125 
Q 17.828125 56 27.875 56 
Q 33.9375 56 38.28125 53.609375 
Q 42.625 51.21875 45.40625 46.390625 
L 45.40625 54.6875 
L 54.390625 54.6875 
z
" id="DejaVuSans-103"/>
   </defs>
   <g transform="translate(54.703906 18.597656)scale(0.15 -0.15)">
    <use xlink:href="#DejaVuSans-83"/>
    <use x="63.476562" xlink:href="#DejaVuSans-105"/>
    <use x="91.259766" xlink:href="#DejaVuSans-109"/>
    <use x="188.671875" xlink:href="#DejaVuSans-105"/>
    <use x="216.455078" xlink:href="#DejaVuSans-108"/>
    <use x="244.238281" xlink:href="#DejaVuSans-97"/>
    <use x="305.517578" xlink:href="#DejaVuSans-114"/>
    <use x="346.630859" xlink:href="#DejaVuSans-105"/>
    <use x="374.414062" xlink:href="#DejaVuSans-116"/>
    <use x="413.623047" xlink:href="#DejaVuSans-121"/>
    <use x="472.802734" xlink:href="#DejaVuSans-32"/>
    <use x="504.589844" xlink:href="#DejaVuSans-97"/>
    <use x="565.869141" xlink:href="#DejaVuSans-99"/>
    <use x="620.849609" xlink:href="#DejaVuSans-114"/>
    <use x="661.931641" xlink:href="#DejaVuSans-111"/>
    <use x="723.113281" xlink:href="#DejaVuSans-115"/>
    <use x="775.212891" xlink:href="#DejaVuSans-115"/>
    <use x="827.3125" xlink:href="#DejaVuSans-32"/>
    <use x="859.099609" xlink:href="#DejaVuSans-118"/>
    <use x="918.279297" xlink:href="#DejaVuSans-97"/>
    <use x="979.558594" xlink:href="#DejaVuSans-114"/>
    <use x="1020.671875" xlink:href="#DejaVuSans-121"/>
    <use x="1079.851562" xlink:href="#DejaVuSans-105"/>
    <use x="1107.634766" xlink:href="#DejaVuSans-110"/>
    <use x="1171.013672" xlink:href="#DejaVuSans-103"/>
    <use x="1234.490234" xlink:href="#DejaVuSans-32"/>
    <use x="1266.277344" xlink:href="#DejaVuSans-110"/>
    <use x="1329.65625" xlink:href="#DejaVuSans-117"/>
    <use x="1393.035156" xlink:href="#DejaVuSans-109"/>
    <use x="1490.447266" xlink:href="#DejaVuSans-98"/>
    <use x="1553.923828" xlink:href="#DejaVuSans-101"/>
    <use x="1615.447266" xlink:href="#DejaVuSans-114"/>
    <use x="1656.560547" xlink:href="#DejaVuSans-115"/>
    <use x="1708.660156" xlink:href="#DejaVuSans-32"/>
    <use x="1740.447266" xlink:href="#DejaVuSans-111"/>
    <use x="1801.628906" xlink:href="#DejaVuSans-102"/>
    <use x="1836.833984" xlink:href="#DejaVuSans-32"/>
    <use x="1868.621094" xlink:href="#DejaVuSans-112"/>
    <use x="1932.097656" xlink:href="#DejaVuSans-97"/>
    <use x="1993.376953" xlink:href="#DejaVuSans-114"/>
    <use x="2034.490234" xlink:href="#DejaVuSans-116"/>
    <use x="2073.699219" xlink:href="#DejaVuSans-105"/>
    <use x="2101.482422" xlink:href="#DejaVuSans-116"/>
    <use x="2140.691406" xlink:href="#DejaVuSans-105"/>
    <use x="2168.474609" xlink:href="#DejaVuSans-111"/>
    <use x="2229.65625" xlink:href="#DejaVuSans-110"/>
    <use x="2293.035156" xlink:href="#DejaVuSans-115"/>
   </g>
  </g>
 </g>
 <defs>
  <clipPath id="p601437e6ff">
   <rect height="266.112" width="357.12" x="57.785938" y="27.783376"/>
  </clipPath>
  <clipPath id="p6f45e55a9b">
   <path d="M 434.305938 167.56997 
L 434.305938 151.72997 
L 450.145938 151.72997 
L 450.145938 167.56997 
"/>
  </clipPath>
  <clipPath id="p10abdf7a70">
   <path d="M 434.305938 185.40997 
L 434.305938 169.56997 
L 450.145938 169.56997 
L 450.145938 185.40997 
"/>
  </clipPath>
 </defs>
</svg>
