<?xml version="1.0" encoding="utf-8" standalone="no"?>
<!DOCTYPE svg PUBLIC "-//W3C//DTD SVG 1.1//EN"
  "http://www.w3.org/Graphics/SVG/1.1/DTD/svg11.dtd">
<!-- Created with matplotlib (https://matplotlib.org/) -->
<svg height="327.981621pt" version="1.1" viewBox="0 0 514.862562 327.981621" width="514.862562pt" xmlns="http://www.w3.org/2000/svg" xmlns:xlink="http://www.w3.org/1999/xlink">
 <defs>
  <style type="text/css">
*{stroke-linecap:butt;stroke-linejoin:round;}
  </style>
 </defs>
 <g id="figure_1">
  <g id="patch_1">
   <path d="M 0 327.981621 
L 514.862562 327.981621 
L 514.862562 0 
L 0 0 
z
" style="fill:#ffffff;stroke:#ffffff;stroke-linejoin:miter;"/>
  </g>
  <g id="axes_1">
   <g id="patch_2">
    <path d="M 46.789688 292.268933 
L 403.909688 292.268933 
L 403.909688 26.156933 
L 46.789688 26.156933 
z
" style="fill:#ffffff;"/>
   </g>
   <g id="matplotlib.axis_1">
    <g id="xtick_1">
     <g id="line2d_1">
      <path clip-path="url(#p8d2883c16e)" d="M 62.616258 292.268933 
L 62.616258 26.156933 
" style="fill:none;stroke:#d3d3d3;"/>
     </g>
     <g id="line2d_2">
      <path d="M 62.616258 292.268933 
" style="fill:none;stroke:#333333;stroke-width:1.5;"/>
      <defs>
       <path d="M 0 0 
L 0 2.75 
" id="m0e2df53a0f" style="stroke:#333333;"/>
      </defs>
      <g>
       <use style="fill:#333333;stroke:#333333;" x="62.616258" xlink:href="#m0e2df53a0f" y="292.268933"/>
      </g>
     </g>
     <g id="text_1">
      <!-- 0 -->
      <defs>
       <path d="M 31.78125 66.40625 
Q 24.171875 66.40625 20.328125 58.90625 
Q 16.5 51.421875 16.5 36.375 
Q 16.5 21.390625 20.328125 13.890625 
Q 24.171875 6.390625 31.78125 6.390625 
Q 39.453125 6.390625 43.28125 13.890625 
Q 47.125 21.390625 47.125 36.375 
Q 47.125 51.421875 43.28125 58.90625 
Q 39.453125 66.40625 31.78125 66.40625 
z
M 31.78125 74.21875 
Q 44.046875 74.21875 50.515625 64.515625 
Q 56.984375 54.828125 56.984375 36.375 
Q 56.984375 17.96875 50.515625 8.265625 
Q 44.046875 -1.421875 31.78125 -1.421875 
Q 19.53125 -1.421875 13.0625 8.265625 
Q 6.59375 17.96875 6.59375 36.375 
Q 6.59375 54.828125 13.0625 64.515625 
Q 19.53125 74.21875 31.78125 74.21875 
z
" id="DejaVuSans-48"/>
      </defs>
      <g style="fill:#4d4d4d;" transform="translate(59.816758 303.905558)scale(0.088 -0.088)">
       <use xlink:href="#DejaVuSans-48"/>
      </g>
     </g>
    </g>
    <g id="xtick_2">
     <g id="line2d_3">
      <path clip-path="url(#p8d2883c16e)" d="M 170.924697 292.268933 
L 170.924697 26.156933 
" style="fill:none;stroke:#d3d3d3;"/>
     </g>
     <g id="line2d_4">
      <path d="M 170.924697 292.268933 
" style="fill:none;stroke:#333333;stroke-width:1.5;"/>
      <g>
       <use style="fill:#333333;stroke:#333333;" x="170.924697" xlink:href="#m0e2df53a0f" y="292.268933"/>
      </g>
     </g>
     <g id="text_2">
      <!-- 200 -->
      <defs>
       <path d="M 19.1875 8.296875 
L 53.609375 8.296875 
L 53.609375 0 
L 7.328125 0 
L 7.328125 8.296875 
Q 12.9375 14.109375 22.625 23.890625 
Q 32.328125 33.6875 34.8125 36.53125 
Q 39.546875 41.84375 41.421875 45.53125 
Q 43.3125 49.21875 43.3125 52.78125 
Q 43.3125 58.59375 39.234375 62.25 
Q 35.15625 65.921875 28.609375 65.921875 
Q 23.96875 65.921875 18.8125 64.3125 
Q 13.671875 62.703125 7.8125 59.421875 
L 7.8125 69.390625 
Q 13.765625 71.78125 18.9375 73 
Q 24.125 74.21875 28.421875 74.21875 
Q 39.75 74.21875 46.484375 68.546875 
Q 53.21875 62.890625 53.21875 53.421875 
Q 53.21875 48.921875 51.53125 44.890625 
Q 49.859375 40.875 45.40625 35.40625 
Q 44.1875 33.984375 37.640625 27.21875 
Q 31.109375 20.453125 19.1875 8.296875 
z
" id="DejaVuSans-50"/>
      </defs>
      <g style="fill:#4d4d4d;" transform="translate(162.526197 303.905558)scale(0.088 -0.088)">
       <use xlink:href="#DejaVuSans-50"/>
       <use x="63.623047" xlink:href="#DejaVuSans-48"/>
       <use x="127.246094" xlink:href="#DejaVuSans-48"/>
      </g>
     </g>
    </g>
    <g id="xtick_3">
     <g id="line2d_5">
      <path clip-path="url(#p8d2883c16e)" d="M 279.233136 292.268933 
L 279.233136 26.156933 
" style="fill:none;stroke:#d3d3d3;"/>
     </g>
     <g id="line2d_6">
      <path d="M 279.233136 292.268933 
" style="fill:none;stroke:#333333;stroke-width:1.5;"/>
      <g>
       <use style="fill:#333333;stroke:#333333;" x="279.233136" xlink:href="#m0e2df53a0f" y="292.268933"/>
      </g>
     </g>
     <g id="text_3">
      <!-- 400 -->
      <defs>
       <path d="M 37.796875 64.3125 
L 12.890625 25.390625 
L 37.796875 25.390625 
z
M 35.203125 72.90625 
L 47.609375 72.90625 
L 47.609375 25.390625 
L 58.015625 25.390625 
L 58.015625 17.1875 
L 47.609375 17.1875 
L 47.609375 0 
L 37.796875 0 
L 37.796875 17.1875 
L 4.890625 17.1875 
L 4.890625 26.703125 
z
" id="DejaVuSans-52"/>
      </defs>
      <g style="fill:#4d4d4d;" transform="translate(270.834636 303.905558)scale(0.088 -0.088)">
       <use xlink:href="#DejaVuSans-52"/>
       <use x="63.623047" xlink:href="#DejaVuSans-48"/>
       <use x="127.246094" xlink:href="#DejaVuSans-48"/>
      </g>
     </g>
    </g>
    <g id="xtick_4">
     <g id="line2d_7">
      <path clip-path="url(#p8d2883c16e)" d="M 387.541575 292.268933 
L 387.541575 26.156933 
" style="fill:none;stroke:#d3d3d3;"/>
     </g>
     <g id="line2d_8">
      <path d="M 387.541575 292.268933 
" style="fill:none;stroke:#333333;stroke-width:1.5;"/>
      <g>
       <use style="fill:#333333;stroke:#333333;" x="387.541575" xlink:href="#m0e2df53a0f" y="292.268933"/>
      </g>
     </g>
     <g id="text_4">
      <!-- 600 -->
      <defs>
       <path d="M 33.015625 40.375 
Q 26.375 40.375 22.484375 35.828125 
Q 18.609375 31.296875 18.609375 23.390625 
Q 18.609375 15.53125 22.484375 10.953125 
Q 26.375 6.390625 33.015625 6.390625 
Q 39.65625 6.390625 43.53125 10.953125 
Q 47.40625 15.53125 47.40625 23.390625 
Q 47.40625 31.296875 43.53125 35.828125 
Q 39.65625 40.375 33.015625 40.375 
z
M 52.59375 71.296875 
L 52.59375 62.3125 
Q 48.875 64.0625 45.09375 64.984375 
Q 41.3125 65.921875 37.59375 65.921875 
Q 27.828125 65.921875 22.671875 59.328125 
Q 17.53125 52.734375 16.796875 39.40625 
Q 19.671875 43.65625 24.015625 45.921875 
Q 28.375 48.1875 33.59375 48.1875 
Q 44.578125 48.1875 50.953125 41.515625 
Q 57.328125 34.859375 57.328125 23.390625 
Q 57.328125 12.15625 50.6875 5.359375 
Q 44.046875 -1.421875 33.015625 -1.421875 
Q 20.359375 -1.421875 13.671875 8.265625 
Q 6.984375 17.96875 6.984375 36.375 
Q 6.984375 53.65625 15.1875 63.9375 
Q 23.390625 74.21875 37.203125 74.21875 
Q 40.921875 74.21875 44.703125 73.484375 
Q 48.484375 72.75 52.59375 71.296875 
z
" id="DejaVuSans-54"/>
      </defs>
      <g style="fill:#4d4d4d;" transform="translate(379.143075 303.905558)scale(0.088 -0.088)">
       <use xlink:href="#DejaVuSans-54"/>
       <use x="63.623047" xlink:href="#DejaVuSans-48"/>
       <use x="127.246094" xlink:href="#DejaVuSans-48"/>
      </g>
     </g>
    </g>
    <g id="xtick_5">
     <g id="line2d_9">
      <path clip-path="url(#p8d2883c16e)" d="M 116.770478 292.268933 
L 116.770478 26.156933 
" style="fill:none;stroke:#ffffff;stroke-width:0.5;"/>
     </g>
     <g id="line2d_10">
      <path d="M 116.770478 292.268933 
" style="fill:none;stroke:#333333;stroke-width:1.5;"/>
     </g>
    </g>
    <g id="xtick_6">
     <g id="line2d_11">
      <path clip-path="url(#p8d2883c16e)" d="M 225.078916 292.268933 
L 225.078916 26.156933 
" style="fill:none;stroke:#ffffff;stroke-width:0.5;"/>
     </g>
     <g id="line2d_12">
      <path d="M 225.078916 292.268933 
" style="fill:none;stroke:#333333;stroke-width:1.5;"/>
     </g>
    </g>
    <g id="xtick_7">
     <g id="line2d_13">
      <path clip-path="url(#p8d2883c16e)" d="M 333.387355 292.268933 
L 333.387355 26.156933 
" style="fill:none;stroke:#ffffff;stroke-width:0.5;"/>
     </g>
     <g id="line2d_14">
      <path d="M 333.387355 292.268933 
" style="fill:none;stroke:#333333;stroke-width:1.5;"/>
     </g>
    </g>
    <g id="text_5">
     <!-- Number of Partitions -->
     <defs>
      <path d="M 9.8125 72.90625 
L 23.09375 72.90625 
L 55.421875 11.921875 
L 55.421875 72.90625 
L 64.984375 72.90625 
L 64.984375 0 
L 51.703125 0 
L 19.390625 60.984375 
L 19.390625 0 
L 9.8125 0 
z
" id="DejaVuSans-78"/>
      <path d="M 8.5 21.578125 
L 8.5 54.6875 
L 17.484375 54.6875 
L 17.484375 21.921875 
Q 17.484375 14.15625 20.5 10.265625 
Q 23.53125 6.390625 29.59375 6.390625 
Q 36.859375 6.390625 41.078125 11.03125 
Q 45.3125 15.671875 45.3125 23.6875 
L 45.3125 54.6875 
L 54.296875 54.6875 
L 54.296875 0 
L 45.3125 0 
L 45.3125 8.40625 
Q 42.046875 3.421875 37.71875 1 
Q 33.40625 -1.421875 27.6875 -1.421875 
Q 18.265625 -1.421875 13.375 4.4375 
Q 8.5 10.296875 8.5 21.578125 
z
M 31.109375 56 
z
" id="DejaVuSans-117"/>
      <path d="M 52 44.1875 
Q 55.375 50.25 60.0625 53.125 
Q 64.75 56 71.09375 56 
Q 79.640625 56 84.28125 50.015625 
Q 88.921875 44.046875 88.921875 33.015625 
L 88.921875 0 
L 79.890625 0 
L 79.890625 32.71875 
Q 79.890625 40.578125 77.09375 44.375 
Q 74.3125 48.1875 68.609375 48.1875 
Q 61.625 48.1875 57.5625 43.546875 
Q 53.515625 38.921875 53.515625 30.90625 
L 53.515625 0 
L 44.484375 0 
L 44.484375 32.71875 
Q 44.484375 40.625 41.703125 44.40625 
Q 38.921875 48.1875 33.109375 48.1875 
Q 26.21875 48.1875 22.15625 43.53125 
Q 18.109375 38.875 18.109375 30.90625 
L 18.109375 0 
L 9.078125 0 
L 9.078125 54.6875 
L 18.109375 54.6875 
L 18.109375 46.1875 
Q 21.1875 51.21875 25.484375 53.609375 
Q 29.78125 56 35.6875 56 
Q 41.65625 56 45.828125 52.96875 
Q 50 49.953125 52 44.1875 
z
" id="DejaVuSans-109"/>
      <path d="M 48.6875 27.296875 
Q 48.6875 37.203125 44.609375 42.84375 
Q 40.53125 48.484375 33.40625 48.484375 
Q 26.265625 48.484375 22.1875 42.84375 
Q 18.109375 37.203125 18.109375 27.296875 
Q 18.109375 17.390625 22.1875 11.75 
Q 26.265625 6.109375 33.40625 6.109375 
Q 40.53125 6.109375 44.609375 11.75 
Q 48.6875 17.390625 48.6875 27.296875 
z
M 18.109375 46.390625 
Q 20.953125 51.265625 25.265625 53.625 
Q 29.59375 56 35.59375 56 
Q 45.5625 56 51.78125 48.09375 
Q 58.015625 40.1875 58.015625 27.296875 
Q 58.015625 14.40625 51.78125 6.484375 
Q 45.5625 -1.421875 35.59375 -1.421875 
Q 29.59375 -1.421875 25.265625 0.953125 
Q 20.953125 3.328125 18.109375 8.203125 
L 18.109375 0 
L 9.078125 0 
L 9.078125 75.984375 
L 18.109375 75.984375 
z
" id="DejaVuSans-98"/>
      <path d="M 56.203125 29.59375 
L 56.203125 25.203125 
L 14.890625 25.203125 
Q 15.484375 15.921875 20.484375 11.0625 
Q 25.484375 6.203125 34.421875 6.203125 
Q 39.59375 6.203125 44.453125 7.46875 
Q 49.3125 8.734375 54.109375 11.28125 
L 54.109375 2.78125 
Q 49.265625 0.734375 44.1875 -0.34375 
Q 39.109375 -1.421875 33.890625 -1.421875 
Q 20.796875 -1.421875 13.15625 6.1875 
Q 5.515625 13.8125 5.515625 26.8125 
Q 5.515625 40.234375 12.765625 48.109375 
Q 20.015625 56 32.328125 56 
Q 43.359375 56 49.78125 48.890625 
Q 56.203125 41.796875 56.203125 29.59375 
z
M 47.21875 32.234375 
Q 47.125 39.59375 43.09375 43.984375 
Q 39.0625 48.390625 32.421875 48.390625 
Q 24.90625 48.390625 20.390625 44.140625 
Q 15.875 39.890625 15.1875 32.171875 
z
" id="DejaVuSans-101"/>
      <path d="M 41.109375 46.296875 
Q 39.59375 47.171875 37.8125 47.578125 
Q 36.03125 48 33.890625 48 
Q 26.265625 48 22.1875 43.046875 
Q 18.109375 38.09375 18.109375 28.8125 
L 18.109375 0 
L 9.078125 0 
L 9.078125 54.6875 
L 18.109375 54.6875 
L 18.109375 46.1875 
Q 20.953125 51.171875 25.484375 53.578125 
Q 30.03125 56 36.53125 56 
Q 37.453125 56 38.578125 55.875 
Q 39.703125 55.765625 41.0625 55.515625 
z
" id="DejaVuSans-114"/>
      <path id="DejaVuSans-32"/>
      <path d="M 30.609375 48.390625 
Q 23.390625 48.390625 19.1875 42.75 
Q 14.984375 37.109375 14.984375 27.296875 
Q 14.984375 17.484375 19.15625 11.84375 
Q 23.34375 6.203125 30.609375 6.203125 
Q 37.796875 6.203125 41.984375 11.859375 
Q 46.1875 17.53125 46.1875 27.296875 
Q 46.1875 37.015625 41.984375 42.703125 
Q 37.796875 48.390625 30.609375 48.390625 
z
M 30.609375 56 
Q 42.328125 56 49.015625 48.375 
Q 55.71875 40.765625 55.71875 27.296875 
Q 55.71875 13.875 49.015625 6.21875 
Q 42.328125 -1.421875 30.609375 -1.421875 
Q 18.84375 -1.421875 12.171875 6.21875 
Q 5.515625 13.875 5.515625 27.296875 
Q 5.515625 40.765625 12.171875 48.375 
Q 18.84375 56 30.609375 56 
z
" id="DejaVuSans-111"/>
      <path d="M 37.109375 75.984375 
L 37.109375 68.5 
L 28.515625 68.5 
Q 23.6875 68.5 21.796875 66.546875 
Q 19.921875 64.59375 19.921875 59.515625 
L 19.921875 54.6875 
L 34.71875 54.6875 
L 34.71875 47.703125 
L 19.921875 47.703125 
L 19.921875 0 
L 10.890625 0 
L 10.890625 47.703125 
L 2.296875 47.703125 
L 2.296875 54.6875 
L 10.890625 54.6875 
L 10.890625 58.5 
Q 10.890625 67.625 15.140625 71.796875 
Q 19.390625 75.984375 28.609375 75.984375 
z
" id="DejaVuSans-102"/>
      <path d="M 19.671875 64.796875 
L 19.671875 37.40625 
L 32.078125 37.40625 
Q 38.96875 37.40625 42.71875 40.96875 
Q 46.484375 44.53125 46.484375 51.125 
Q 46.484375 57.671875 42.71875 61.234375 
Q 38.96875 64.796875 32.078125 64.796875 
z
M 9.8125 72.90625 
L 32.078125 72.90625 
Q 44.34375 72.90625 50.609375 67.359375 
Q 56.890625 61.8125 56.890625 51.125 
Q 56.890625 40.328125 50.609375 34.8125 
Q 44.34375 29.296875 32.078125 29.296875 
L 19.671875 29.296875 
L 19.671875 0 
L 9.8125 0 
z
" id="DejaVuSans-80"/>
      <path d="M 34.28125 27.484375 
Q 23.390625 27.484375 19.1875 25 
Q 14.984375 22.515625 14.984375 16.5 
Q 14.984375 11.71875 18.140625 8.90625 
Q 21.296875 6.109375 26.703125 6.109375 
Q 34.1875 6.109375 38.703125 11.40625 
Q 43.21875 16.703125 43.21875 25.484375 
L 43.21875 27.484375 
z
M 52.203125 31.203125 
L 52.203125 0 
L 43.21875 0 
L 43.21875 8.296875 
Q 40.140625 3.328125 35.546875 0.953125 
Q 30.953125 -1.421875 24.3125 -1.421875 
Q 15.921875 -1.421875 10.953125 3.296875 
Q 6 8.015625 6 15.921875 
Q 6 25.140625 12.171875 29.828125 
Q 18.359375 34.515625 30.609375 34.515625 
L 43.21875 34.515625 
L 43.21875 35.40625 
Q 43.21875 41.609375 39.140625 45 
Q 35.0625 48.390625 27.6875 48.390625 
Q 23 48.390625 18.546875 47.265625 
Q 14.109375 46.140625 10.015625 43.890625 
L 10.015625 52.203125 
Q 14.9375 54.109375 19.578125 55.046875 
Q 24.21875 56 28.609375 56 
Q 40.484375 56 46.34375 49.84375 
Q 52.203125 43.703125 52.203125 31.203125 
z
" id="DejaVuSans-97"/>
      <path d="M 18.3125 70.21875 
L 18.3125 54.6875 
L 36.8125 54.6875 
L 36.8125 47.703125 
L 18.3125 47.703125 
L 18.3125 18.015625 
Q 18.3125 11.328125 20.140625 9.421875 
Q 21.96875 7.515625 27.59375 7.515625 
L 36.8125 7.515625 
L 36.8125 0 
L 27.59375 0 
Q 17.1875 0 13.234375 3.875 
Q 9.28125 7.765625 9.28125 18.015625 
L 9.28125 47.703125 
L 2.6875 47.703125 
L 2.6875 54.6875 
L 9.28125 54.6875 
L 9.28125 70.21875 
z
" id="DejaVuSans-116"/>
      <path d="M 9.421875 54.6875 
L 18.40625 54.6875 
L 18.40625 0 
L 9.421875 0 
z
M 9.421875 75.984375 
L 18.40625 75.984375 
L 18.40625 64.59375 
L 9.421875 64.59375 
z
" id="DejaVuSans-105"/>
      <path d="M 54.890625 33.015625 
L 54.890625 0 
L 45.90625 0 
L 45.90625 32.71875 
Q 45.90625 40.484375 42.875 44.328125 
Q 39.84375 48.1875 33.796875 48.1875 
Q 26.515625 48.1875 22.3125 43.546875 
Q 18.109375 38.921875 18.109375 30.90625 
L 18.109375 0 
L 9.078125 0 
L 9.078125 54.6875 
L 18.109375 54.6875 
L 18.109375 46.1875 
Q 21.34375 51.125 25.703125 53.5625 
Q 30.078125 56 35.796875 56 
Q 45.21875 56 50.046875 50.171875 
Q 54.890625 44.34375 54.890625 33.015625 
z
" id="DejaVuSans-110"/>
      <path d="M 44.28125 53.078125 
L 44.28125 44.578125 
Q 40.484375 46.53125 36.375 47.5 
Q 32.28125 48.484375 27.875 48.484375 
Q 21.1875 48.484375 17.84375 46.4375 
Q 14.5 44.390625 14.5 40.28125 
Q 14.5 37.15625 16.890625 35.375 
Q 19.28125 33.59375 26.515625 31.984375 
L 29.59375 31.296875 
Q 39.15625 29.25 43.1875 25.515625 
Q 47.21875 21.78125 47.21875 15.09375 
Q 47.21875 7.46875 41.1875 3.015625 
Q 35.15625 -1.421875 24.609375 -1.421875 
Q 20.21875 -1.421875 15.453125 -0.5625 
Q 10.6875 0.296875 5.421875 2 
L 5.421875 11.28125 
Q 10.40625 8.6875 15.234375 7.390625 
Q 20.0625 6.109375 24.8125 6.109375 
Q 31.15625 6.109375 34.5625 8.28125 
Q 37.984375 10.453125 37.984375 14.40625 
Q 37.984375 18.0625 35.515625 20.015625 
Q 33.0625 21.96875 24.703125 23.78125 
L 21.578125 24.515625 
Q 13.234375 26.265625 9.515625 29.90625 
Q 5.8125 33.546875 5.8125 39.890625 
Q 5.8125 47.609375 11.28125 51.796875 
Q 16.75 56 26.8125 56 
Q 31.78125 56 36.171875 55.265625 
Q 40.578125 54.546875 44.28125 53.078125 
z
" id="DejaVuSans-115"/>
     </defs>
     <g transform="translate(162.668984 318.493964)scale(0.11 -0.11)">
      <use xlink:href="#DejaVuSans-78"/>
      <use x="74.804688" xlink:href="#DejaVuSans-117"/>
      <use x="138.183594" xlink:href="#DejaVuSans-109"/>
      <use x="235.595703" xlink:href="#DejaVuSans-98"/>
      <use x="299.072266" xlink:href="#DejaVuSans-101"/>
      <use x="360.595703" xlink:href="#DejaVuSans-114"/>
      <use x="401.708984" xlink:href="#DejaVuSans-32"/>
      <use x="433.496094" xlink:href="#DejaVuSans-111"/>
      <use x="494.677734" xlink:href="#DejaVuSans-102"/>
      <use x="529.882812" xlink:href="#DejaVuSans-32"/>
      <use x="561.669922" xlink:href="#DejaVuSans-80"/>
      <use x="621.910156" xlink:href="#DejaVuSans-97"/>
      <use x="683.189453" xlink:href="#DejaVuSans-114"/>
      <use x="724.302734" xlink:href="#DejaVuSans-116"/>
      <use x="763.511719" xlink:href="#DejaVuSans-105"/>
      <use x="791.294922" xlink:href="#DejaVuSans-116"/>
      <use x="830.503906" xlink:href="#DejaVuSans-105"/>
      <use x="858.287109" xlink:href="#DejaVuSans-111"/>
      <use x="919.46875" xlink:href="#DejaVuSans-110"/>
      <use x="982.847656" xlink:href="#DejaVuSans-115"/>
     </g>
    </g>
   </g>
   <g id="matplotlib.axis_2">
    <g id="ytick_1">
     <g id="line2d_15">
      <path clip-path="url(#p8d2883c16e)" d="M 46.789688 245.569551 
L 403.909688 245.569551 
" style="fill:none;stroke:#d3d3d3;"/>
     </g>
     <g id="line2d_16">
      <path d="M 46.789688 245.569551 
" style="fill:none;stroke:#333333;stroke-width:1.5;"/>
      <defs>
       <path d="M 0 0 
L -2.75 0 
" id="m6fdddb6987" style="stroke:#333333;"/>
      </defs>
      <g>
       <use style="fill:#333333;stroke:#333333;" x="46.789688" xlink:href="#m6fdddb6987" y="245.569551"/>
      </g>
     </g>
     <g id="text_6">
      <!-- 0.25 -->
      <defs>
       <path d="M 10.6875 12.40625 
L 21 12.40625 
L 21 0 
L 10.6875 0 
z
" id="DejaVuSans-46"/>
       <path d="M 10.796875 72.90625 
L 49.515625 72.90625 
L 49.515625 64.59375 
L 19.828125 64.59375 
L 19.828125 46.734375 
Q 21.96875 47.46875 24.109375 47.828125 
Q 26.265625 48.1875 28.421875 48.1875 
Q 40.625 48.1875 47.75 41.5 
Q 54.890625 34.8125 54.890625 23.390625 
Q 54.890625 11.625 47.5625 5.09375 
Q 40.234375 -1.421875 26.90625 -1.421875 
Q 22.3125 -1.421875 17.546875 -0.640625 
Q 12.796875 0.140625 7.71875 1.703125 
L 7.71875 11.625 
Q 12.109375 9.234375 16.796875 8.0625 
Q 21.484375 6.890625 26.703125 6.890625 
Q 35.15625 6.890625 40.078125 11.328125 
Q 45.015625 15.765625 45.015625 23.390625 
Q 45.015625 31 40.078125 35.4375 
Q 35.15625 39.890625 26.703125 39.890625 
Q 22.75 39.890625 18.8125 39.015625 
Q 14.890625 38.140625 10.796875 36.28125 
z
" id="DejaVuSans-53"/>
      </defs>
      <g style="fill:#4d4d4d;" transform="translate(22.245938 247.997801)scale(0.088 -0.088)">
       <use xlink:href="#DejaVuSans-48"/>
       <use x="63.623047" xlink:href="#DejaVuSans-46"/>
       <use x="95.410156" xlink:href="#DejaVuSans-50"/>
       <use x="159.033203" xlink:href="#DejaVuSans-53"/>
      </g>
     </g>
    </g>
    <g id="ytick_2">
     <g id="line2d_17">
      <path clip-path="url(#p8d2883c16e)" d="M 46.789688 176.763607 
L 403.909688 176.763607 
" style="fill:none;stroke:#d3d3d3;"/>
     </g>
     <g id="line2d_18">
      <path d="M 46.789688 176.763607 
" style="fill:none;stroke:#333333;stroke-width:1.5;"/>
      <g>
       <use style="fill:#333333;stroke:#333333;" x="46.789688" xlink:href="#m6fdddb6987" y="176.763607"/>
      </g>
     </g>
     <g id="text_7">
      <!-- 0.50 -->
      <g style="fill:#4d4d4d;" transform="translate(22.245938 179.191857)scale(0.088 -0.088)">
       <use xlink:href="#DejaVuSans-48"/>
       <use x="63.623047" xlink:href="#DejaVuSans-46"/>
       <use x="95.410156" xlink:href="#DejaVuSans-53"/>
       <use x="159.033203" xlink:href="#DejaVuSans-48"/>
      </g>
     </g>
    </g>
    <g id="ytick_3">
     <g id="line2d_19">
      <path clip-path="url(#p8d2883c16e)" d="M 46.789688 107.957663 
L 403.909688 107.957663 
" style="fill:none;stroke:#d3d3d3;"/>
     </g>
     <g id="line2d_20">
      <path d="M 46.789688 107.957663 
" style="fill:none;stroke:#333333;stroke-width:1.5;"/>
      <g>
       <use style="fill:#333333;stroke:#333333;" x="46.789688" xlink:href="#m6fdddb6987" y="107.957663"/>
      </g>
     </g>
     <g id="text_8">
      <!-- 0.75 -->
      <defs>
       <path d="M 8.203125 72.90625 
L 55.078125 72.90625 
L 55.078125 68.703125 
L 28.609375 0 
L 18.3125 0 
L 43.21875 64.59375 
L 8.203125 64.59375 
z
" id="DejaVuSans-55"/>
      </defs>
      <g style="fill:#4d4d4d;" transform="translate(22.245938 110.385913)scale(0.088 -0.088)">
       <use xlink:href="#DejaVuSans-48"/>
       <use x="63.623047" xlink:href="#DejaVuSans-46"/>
       <use x="95.410156" xlink:href="#DejaVuSans-55"/>
       <use x="159.033203" xlink:href="#DejaVuSans-53"/>
      </g>
     </g>
    </g>
    <g id="ytick_4">
     <g id="line2d_21">
      <path clip-path="url(#p8d2883c16e)" d="M 46.789688 39.151719 
L 403.909688 39.151719 
" style="fill:none;stroke:#d3d3d3;"/>
     </g>
     <g id="line2d_22">
      <path d="M 46.789688 39.151719 
" style="fill:none;stroke:#333333;stroke-width:1.5;"/>
      <g>
       <use style="fill:#333333;stroke:#333333;" x="46.789688" xlink:href="#m6fdddb6987" y="39.151719"/>
      </g>
     </g>
     <g id="text_9">
      <!-- 1 -->
      <defs>
       <path d="M 12.40625 8.296875 
L 28.515625 8.296875 
L 28.515625 63.921875 
L 10.984375 60.40625 
L 10.984375 69.390625 
L 28.421875 72.90625 
L 38.28125 72.90625 
L 38.28125 8.296875 
L 54.390625 8.296875 
L 54.390625 0 
L 12.40625 0 
z
" id="DejaVuSans-49"/>
      </defs>
      <g style="fill:#4d4d4d;" transform="translate(36.240688 41.579969)scale(0.088 -0.088)">
       <use xlink:href="#DejaVuSans-49"/>
      </g>
     </g>
    </g>
    <g id="ytick_5">
     <g id="line2d_23">
      <path clip-path="url(#p8d2883c16e)" d="M 46.789688 279.972523 
L 403.909688 279.972523 
" style="fill:none;stroke:#ffffff;stroke-width:0.5;"/>
     </g>
     <g id="line2d_24">
      <path d="M 46.789688 279.972523 
" style="fill:none;stroke:#333333;stroke-width:1.5;"/>
     </g>
    </g>
    <g id="ytick_6">
     <g id="line2d_25">
      <path clip-path="url(#p8d2883c16e)" d="M 46.789688 211.166579 
L 403.909688 211.166579 
" style="fill:none;stroke:#ffffff;stroke-width:0.5;"/>
     </g>
     <g id="line2d_26">
      <path d="M 46.789688 211.166579 
" style="fill:none;stroke:#333333;stroke-width:1.5;"/>
     </g>
    </g>
    <g id="ytick_7">
     <g id="line2d_27">
      <path clip-path="url(#p8d2883c16e)" d="M 46.789688 142.360635 
L 403.909688 142.360635 
" style="fill:none;stroke:#ffffff;stroke-width:0.5;"/>
     </g>
     <g id="line2d_28">
      <path d="M 46.789688 142.360635 
" style="fill:none;stroke:#333333;stroke-width:1.5;"/>
     </g>
    </g>
    <g id="ytick_8">
     <g id="line2d_29">
      <path clip-path="url(#p8d2883c16e)" d="M 46.789688 73.554691 
L 403.909688 73.554691 
" style="fill:none;stroke:#ffffff;stroke-width:0.5;"/>
     </g>
     <g id="line2d_30">
      <path d="M 46.789688 73.554691 
" style="fill:none;stroke:#333333;stroke-width:1.5;"/>
     </g>
    </g>
    <g id="text_10">
     <!-- Similarity score (SVCCA) -->
     <defs>
      <path d="M 53.515625 70.515625 
L 53.515625 60.890625 
Q 47.90625 63.578125 42.921875 64.890625 
Q 37.9375 66.21875 33.296875 66.21875 
Q 25.25 66.21875 20.875 63.09375 
Q 16.5 59.96875 16.5 54.203125 
Q 16.5 49.359375 19.40625 46.890625 
Q 22.3125 44.4375 30.421875 42.921875 
L 36.375 41.703125 
Q 47.40625 39.59375 52.65625 34.296875 
Q 57.90625 29 57.90625 20.125 
Q 57.90625 9.515625 50.796875 4.046875 
Q 43.703125 -1.421875 29.984375 -1.421875 
Q 24.8125 -1.421875 18.96875 -0.25 
Q 13.140625 0.921875 6.890625 3.21875 
L 6.890625 13.375 
Q 12.890625 10.015625 18.65625 8.296875 
Q 24.421875 6.59375 29.984375 6.59375 
Q 38.421875 6.59375 43.015625 9.90625 
Q 47.609375 13.234375 47.609375 19.390625 
Q 47.609375 24.75 44.3125 27.78125 
Q 41.015625 30.8125 33.5 32.328125 
L 27.484375 33.5 
Q 16.453125 35.6875 11.515625 40.375 
Q 6.59375 45.0625 6.59375 53.421875 
Q 6.59375 63.09375 13.40625 68.65625 
Q 20.21875 74.21875 32.171875 74.21875 
Q 37.3125 74.21875 42.625 73.28125 
Q 47.953125 72.359375 53.515625 70.515625 
z
" id="DejaVuSans-83"/>
      <path d="M 9.421875 75.984375 
L 18.40625 75.984375 
L 18.40625 0 
L 9.421875 0 
z
" id="DejaVuSans-108"/>
      <path d="M 32.171875 -5.078125 
Q 28.375 -14.84375 24.75 -17.8125 
Q 21.140625 -20.796875 15.09375 -20.796875 
L 7.90625 -20.796875 
L 7.90625 -13.28125 
L 13.1875 -13.28125 
Q 16.890625 -13.28125 18.9375 -11.515625 
Q 21 -9.765625 23.484375 -3.21875 
L 25.09375 0.875 
L 2.984375 54.6875 
L 12.5 54.6875 
L 29.59375 11.921875 
L 46.6875 54.6875 
L 56.203125 54.6875 
z
" id="DejaVuSans-121"/>
      <path d="M 48.78125 52.59375 
L 48.78125 44.1875 
Q 44.96875 46.296875 41.140625 47.34375 
Q 37.3125 48.390625 33.40625 48.390625 
Q 24.65625 48.390625 19.8125 42.84375 
Q 14.984375 37.3125 14.984375 27.296875 
Q 14.984375 17.28125 19.8125 11.734375 
Q 24.65625 6.203125 33.40625 6.203125 
Q 37.3125 6.203125 41.140625 7.25 
Q 44.96875 8.296875 48.78125 10.40625 
L 48.78125 2.09375 
Q 45.015625 0.34375 40.984375 -0.53125 
Q 36.96875 -1.421875 32.421875 -1.421875 
Q 20.0625 -1.421875 12.78125 6.34375 
Q 5.515625 14.109375 5.515625 27.296875 
Q 5.515625 40.671875 12.859375 48.328125 
Q 20.21875 56 33.015625 56 
Q 37.15625 56 41.109375 55.140625 
Q 45.0625 54.296875 48.78125 52.59375 
z
" id="DejaVuSans-99"/>
      <path d="M 31 75.875 
Q 24.46875 64.65625 21.28125 53.65625 
Q 18.109375 42.671875 18.109375 31.390625 
Q 18.109375 20.125 21.3125 9.0625 
Q 24.515625 -2 31 -13.1875 
L 23.1875 -13.1875 
Q 15.875 -1.703125 12.234375 9.375 
Q 8.59375 20.453125 8.59375 31.390625 
Q 8.59375 42.28125 12.203125 53.3125 
Q 15.828125 64.359375 23.1875 75.875 
z
" id="DejaVuSans-40"/>
      <path d="M 28.609375 0 
L 0.78125 72.90625 
L 11.078125 72.90625 
L 34.1875 11.53125 
L 57.328125 72.90625 
L 67.578125 72.90625 
L 39.796875 0 
z
" id="DejaVuSans-86"/>
      <path d="M 64.40625 67.28125 
L 64.40625 56.890625 
Q 59.421875 61.53125 53.78125 63.8125 
Q 48.140625 66.109375 41.796875 66.109375 
Q 29.296875 66.109375 22.65625 58.46875 
Q 16.015625 50.828125 16.015625 36.375 
Q 16.015625 21.96875 22.65625 14.328125 
Q 29.296875 6.6875 41.796875 6.6875 
Q 48.140625 6.6875 53.78125 8.984375 
Q 59.421875 11.28125 64.40625 15.921875 
L 64.40625 5.609375 
Q 59.234375 2.09375 53.4375 0.328125 
Q 47.65625 -1.421875 41.21875 -1.421875 
Q 24.65625 -1.421875 15.125 8.703125 
Q 5.609375 18.84375 5.609375 36.375 
Q 5.609375 53.953125 15.125 64.078125 
Q 24.65625 74.21875 41.21875 74.21875 
Q 47.75 74.21875 53.53125 72.484375 
Q 59.328125 70.75 64.40625 67.28125 
z
" id="DejaVuSans-67"/>
      <path d="M 34.1875 63.1875 
L 20.796875 26.90625 
L 47.609375 26.90625 
z
M 28.609375 72.90625 
L 39.796875 72.90625 
L 67.578125 0 
L 57.328125 0 
L 50.6875 18.703125 
L 17.828125 18.703125 
L 11.1875 0 
L 0.78125 0 
z
" id="DejaVuSans-65"/>
      <path d="M 8.015625 75.875 
L 15.828125 75.875 
Q 23.140625 64.359375 26.78125 53.3125 
Q 30.421875 42.28125 30.421875 31.390625 
Q 30.421875 20.453125 26.78125 9.375 
Q 23.140625 -1.703125 15.828125 -13.1875 
L 8.015625 -13.1875 
Q 14.5 -2 17.703125 9.0625 
Q 20.90625 20.125 20.90625 31.390625 
Q 20.90625 42.671875 17.703125 53.65625 
Q 14.5 64.65625 8.015625 75.875 
z
" id="DejaVuSans-41"/>
     </defs>
     <g transform="translate(15.558281 224.871964)rotate(-90)scale(0.11 -0.11)">
      <use xlink:href="#DejaVuSans-83"/>
      <use x="63.476562" xlink:href="#DejaVuSans-105"/>
      <use x="91.259766" xlink:href="#DejaVuSans-109"/>
      <use x="188.671875" xlink:href="#DejaVuSans-105"/>
      <use x="216.455078" xlink:href="#DejaVuSans-108"/>
      <use x="244.238281" xlink:href="#DejaVuSans-97"/>
      <use x="305.517578" xlink:href="#DejaVuSans-114"/>
      <use x="346.630859" xlink:href="#DejaVuSans-105"/>
      <use x="374.414062" xlink:href="#DejaVuSans-116"/>
      <use x="413.623047" xlink:href="#DejaVuSans-121"/>
      <use x="472.802734" xlink:href="#DejaVuSans-32"/>
      <use x="504.589844" xlink:href="#DejaVuSans-115"/>
      <use x="556.689453" xlink:href="#DejaVuSans-99"/>
      <use x="611.669922" xlink:href="#DejaVuSans-111"/>
      <use x="672.851562" xlink:href="#DejaVuSans-114"/>
      <use x="713.933594" xlink:href="#DejaVuSans-101"/>
      <use x="775.457031" xlink:href="#DejaVuSans-32"/>
      <use x="807.244141" xlink:href="#DejaVuSans-40"/>
      <use x="846.257812" xlink:href="#DejaVuSans-83"/>
      <use x="909.734375" xlink:href="#DejaVuSans-86"/>
      <use x="978.142578" xlink:href="#DejaVuSans-67"/>
      <use x="1047.966797" xlink:href="#DejaVuSans-67"/>
      <use x="1117.791016" xlink:href="#DejaVuSans-65"/>
      <use x="1186.199219" xlink:href="#DejaVuSans-41"/>
     </g>
    </g>
   </g>
   <g id="line2d_31">
    <path clip-path="url(#p8d2883c16e)" d="M 63.1578 39.153641 
L 63.699343 39.604945 
L 64.240885 44.215388 
L 65.323969 40.958547 
L 68.03168 44.496524 
L 73.447102 51.382295 
L 78.862524 52.692133 
L 89.693368 59.297315 
L 100.524212 65.258759 
L 116.770478 69.512639 
L 170.924697 92.761296 
L 225.078916 113.339037 
L 279.233136 129.093432 
L 333.387355 149.10501 
L 387.541575 169.898458 
" style="fill:none;stroke:#1976d2;stroke-width:2.658681;"/>
   </g>
   <g id="line2d_32">
    <path clip-path="url(#p8d2883c16e)" d="M 63.1578 39.153692 
L 63.699343 65.414759 
L 64.240885 90.230919 
L 65.323969 139.607489 
L 68.03168 246.57014 
L 73.447102 221.871136 
L 78.862524 212.965992 
L 89.693368 192.653318 
L 100.524212 175.28458 
L 116.770478 154.493094 
L 170.924697 127.311368 
L 225.078916 117.53425 
L 279.233136 117.021892 
L 333.387355 110.295035 
L 387.541575 104.287908 
" style="fill:none;stroke:#b3e5fc;stroke-width:2.658681;"/>
   </g>
   <g id="PathCollection_1">
    <path clip-path="url(#p8d2883c16e)" d="M 63.1578 40.039919 
C 63.39283 40.039919 63.618266 39.946541 63.784457 39.780349 
C 63.950649 39.614158 64.044027 39.388722 64.044027 39.153692 
C 64.044027 38.918662 63.950649 38.693227 63.784457 38.527035 
C 63.618266 38.360844 63.39283 38.267465 63.1578 38.267465 
C 62.92277 38.267465 62.697335 38.360844 62.531143 38.527035 
C 62.364952 38.693227 62.271573 38.918662 62.271573 39.153692 
C 62.271573 39.388722 62.364952 39.614158 62.531143 39.780349 
C 62.697335 39.946541 62.92277 40.039919 63.1578 40.039919 
z
" style="fill:#a9a9a9;stroke:#a9a9a9;stroke-width:0.886227;"/>
    <path clip-path="url(#p8d2883c16e)" d="M 63.699343 66.300986 
C 63.934373 66.300986 64.159808 66.207608 64.326 66.041416 
C 64.492191 65.875225 64.585569 65.649789 64.585569 65.414759 
C 64.585569 65.179729 64.492191 64.954293 64.326 64.788102 
C 64.159808 64.621911 63.934373 64.528532 63.699343 64.528532 
C 63.464312 64.528532 63.238877 64.621911 63.072685 64.788102 
C 62.906494 64.954293 62.813116 65.179729 62.813116 65.414759 
C 62.813116 65.649789 62.906494 65.875225 63.072685 66.041416 
C 63.238877 66.207608 63.464312 66.300986 63.699343 66.300986 
z
" style="fill:#a9a9a9;stroke:#a9a9a9;stroke-width:0.886227;"/>
    <path clip-path="url(#p8d2883c16e)" d="M 64.240885 91.117146 
C 64.475915 91.117146 64.70135 91.023768 64.867542 90.857576 
C 65.033733 90.691385 65.127112 90.465949 65.127112 90.230919 
C 65.127112 89.995889 65.033733 89.770454 64.867542 89.604262 
C 64.70135 89.438071 64.475915 89.344692 64.240885 89.344692 
C 64.005855 89.344692 63.780419 89.438071 63.614228 89.604262 
C 63.448036 89.770454 63.354658 89.995889 63.354658 90.230919 
C 63.354658 90.465949 63.448036 90.691385 63.614228 90.857576 
C 63.780419 91.023768 64.005855 91.117146 64.240885 91.117146 
z
" style="fill:#a9a9a9;stroke:#a9a9a9;stroke-width:0.886227;"/>
    <path clip-path="url(#p8d2883c16e)" d="M 65.323969 140.493716 
C 65.558999 140.493716 65.784435 140.400337 65.950626 140.234146 
C 66.116818 140.067954 66.210196 139.842519 66.210196 139.607489 
C 66.210196 139.372459 66.116818 139.147023 65.950626 138.980832 
C 65.784435 138.81464 65.558999 138.721262 65.323969 138.721262 
C 65.088939 138.721262 64.863503 138.81464 64.697312 138.980832 
C 64.531121 139.147023 64.437742 139.372459 64.437742 139.607489 
C 64.437742 139.842519 64.531121 140.067954 64.697312 140.234146 
C 64.863503 140.400337 65.088939 140.493716 65.323969 140.493716 
z
" style="fill:#a9a9a9;stroke:#a9a9a9;stroke-width:0.886227;"/>
    <path clip-path="url(#p8d2883c16e)" d="M 68.03168 247.456367 
C 68.26671 247.456367 68.492146 247.362988 68.658337 247.196797 
C 68.824529 247.030605 68.917907 246.80517 68.917907 246.57014 
C 68.917907 246.33511 68.824529 246.109674 68.658337 245.943483 
C 68.492146 245.777291 68.26671 245.683913 68.03168 245.683913 
C 67.79665 245.683913 67.571214 245.777291 67.405023 245.943483 
C 67.238832 246.109674 67.145453 246.33511 67.145453 246.57014 
C 67.145453 246.80517 67.238832 247.030605 67.405023 247.196797 
C 67.571214 247.362988 67.79665 247.456367 68.03168 247.456367 
z
" style="fill:#a9a9a9;stroke:#a9a9a9;stroke-width:0.886227;"/>
    <path clip-path="url(#p8d2883c16e)" d="M 73.447102 222.757363 
C 73.682132 222.757363 73.907568 222.663985 74.073759 222.497793 
C 74.23995 222.331602 74.333329 222.106166 74.333329 221.871136 
C 74.333329 221.636106 74.23995 221.410671 74.073759 221.244479 
C 73.907568 221.078288 73.682132 220.984909 73.447102 220.984909 
C 73.212072 220.984909 72.986636 221.078288 72.820445 221.244479 
C 72.654254 221.410671 72.560875 221.636106 72.560875 221.871136 
C 72.560875 222.106166 72.654254 222.331602 72.820445 222.497793 
C 72.986636 222.663985 73.212072 222.757363 73.447102 222.757363 
z
" style="fill:#a9a9a9;stroke:#a9a9a9;stroke-width:0.886227;"/>
    <path clip-path="url(#p8d2883c16e)" d="M 78.862524 213.852218 
C 79.097554 213.852218 79.32299 213.75884 79.489181 213.592649 
C 79.655372 213.426457 79.748751 213.201022 79.748751 212.965992 
C 79.748751 212.730961 79.655372 212.505526 79.489181 212.339335 
C 79.32299 212.173143 79.097554 212.079765 78.862524 212.079765 
C 78.627494 212.079765 78.402058 212.173143 78.235867 212.339335 
C 78.069675 212.505526 77.976297 212.730961 77.976297 212.965992 
C 77.976297 213.201022 78.069675 213.426457 78.235867 213.592649 
C 78.402058 213.75884 78.627494 213.852218 78.862524 213.852218 
z
" style="fill:#a9a9a9;stroke:#a9a9a9;stroke-width:0.886227;"/>
    <path clip-path="url(#p8d2883c16e)" d="M 89.693368 193.539545 
C 89.928398 193.539545 90.153834 193.446167 90.320025 193.279975 
C 90.486216 193.113784 90.579595 192.888349 90.579595 192.653318 
C 90.579595 192.418288 90.486216 192.192853 90.320025 192.026661 
C 90.153834 191.86047 89.928398 191.767091 89.693368 191.767091 
C 89.458338 191.767091 89.232902 191.86047 89.066711 192.026661 
C 88.900519 192.192853 88.807141 192.418288 88.807141 192.653318 
C 88.807141 192.888349 88.900519 193.113784 89.066711 193.279975 
C 89.232902 193.446167 89.458338 193.539545 89.693368 193.539545 
z
" style="fill:#a9a9a9;stroke:#a9a9a9;stroke-width:0.886227;"/>
    <path clip-path="url(#p8d2883c16e)" d="M 100.524212 176.170807 
C 100.759242 176.170807 100.984677 176.077428 101.150869 175.911237 
C 101.31706 175.745045 101.410439 175.51961 101.410439 175.28458 
C 101.410439 175.049549 101.31706 174.824114 101.150869 174.657923 
C 100.984677 174.491731 100.759242 174.398353 100.524212 174.398353 
C 100.289182 174.398353 100.063746 174.491731 99.897555 174.657923 
C 99.731363 174.824114 99.637985 175.049549 99.637985 175.28458 
C 99.637985 175.51961 99.731363 175.745045 99.897555 175.911237 
C 100.063746 176.077428 100.289182 176.170807 100.524212 176.170807 
z
" style="fill:#a9a9a9;stroke:#a9a9a9;stroke-width:0.886227;"/>
    <path clip-path="url(#p8d2883c16e)" d="M 116.770478 155.379321 
C 117.005508 155.379321 117.230943 155.285942 117.397135 155.119751 
C 117.563326 154.95356 117.656704 154.728124 117.656704 154.493094 
C 117.656704 154.258064 117.563326 154.032628 117.397135 153.866437 
C 117.230943 153.700245 117.005508 153.606867 116.770478 153.606867 
C 116.535447 153.606867 116.310012 153.700245 116.14382 153.866437 
C 115.977629 154.032628 115.884251 154.258064 115.884251 154.493094 
C 115.884251 154.728124 115.977629 154.95356 116.14382 155.119751 
C 116.310012 155.285942 116.535447 155.379321 116.770478 155.379321 
z
" style="fill:#a9a9a9;stroke:#a9a9a9;stroke-width:0.886227;"/>
    <path clip-path="url(#p8d2883c16e)" d="M 170.924697 128.197595 
C 171.159727 128.197595 171.385163 128.104216 171.551354 127.938025 
C 171.717545 127.771833 171.810924 127.546398 171.810924 127.311368 
C 171.810924 127.076338 171.717545 126.850902 171.551354 126.684711 
C 171.385163 126.518519 171.159727 126.425141 170.924697 126.425141 
C 170.689667 126.425141 170.464231 126.518519 170.29804 126.684711 
C 170.131849 126.850902 170.03847 127.076338 170.03847 127.311368 
C 170.03847 127.546398 170.131849 127.771833 170.29804 127.938025 
C 170.464231 128.104216 170.689667 128.197595 170.924697 128.197595 
z
" style="fill:#a9a9a9;stroke:#a9a9a9;stroke-width:0.886227;"/>
    <path clip-path="url(#p8d2883c16e)" d="M 225.078916 118.420477 
C 225.313947 118.420477 225.539382 118.327098 225.705573 118.160907 
C 225.871765 117.994715 225.965143 117.76928 225.965143 117.53425 
C 225.965143 117.29922 225.871765 117.073784 225.705573 116.907593 
C 225.539382 116.741401 225.313947 116.648023 225.078916 116.648023 
C 224.843886 116.648023 224.618451 116.741401 224.452259 116.907593 
C 224.286068 117.073784 224.192689 117.29922 224.192689 117.53425 
C 224.192689 117.76928 224.286068 117.994715 224.452259 118.160907 
C 224.618451 118.327098 224.843886 118.420477 225.078916 118.420477 
z
" style="fill:#a9a9a9;stroke:#a9a9a9;stroke-width:0.886227;"/>
    <path clip-path="url(#p8d2883c16e)" d="M 279.233136 117.908119 
C 279.468166 117.908119 279.693601 117.814741 279.859793 117.64855 
C 280.025984 117.482358 280.119363 117.256923 280.119363 117.021892 
C 280.119363 116.786862 280.025984 116.561427 279.859793 116.395235 
C 279.693601 116.229044 279.468166 116.135666 279.233136 116.135666 
C 278.998106 116.135666 278.77267 116.229044 278.606479 116.395235 
C 278.440287 116.561427 278.346909 116.786862 278.346909 117.021892 
C 278.346909 117.256923 278.440287 117.482358 278.606479 117.64855 
C 278.77267 117.814741 278.998106 117.908119 279.233136 117.908119 
z
" style="fill:#a9a9a9;stroke:#a9a9a9;stroke-width:0.886227;"/>
    <path clip-path="url(#p8d2883c16e)" d="M 333.387355 111.181261 
C 333.622385 111.181261 333.847821 111.087883 334.014012 110.921692 
C 334.180204 110.7555 334.273582 110.530065 334.273582 110.295035 
C 334.273582 110.060004 334.180204 109.834569 334.014012 109.668377 
C 333.847821 109.502186 333.622385 109.408808 333.387355 109.408808 
C 333.152325 109.408808 332.92689 109.502186 332.760698 109.668377 
C 332.594507 109.834569 332.501128 110.060004 332.501128 110.295035 
C 332.501128 110.530065 332.594507 110.7555 332.760698 110.921692 
C 332.92689 111.087883 333.152325 111.181261 333.387355 111.181261 
z
" style="fill:#a9a9a9;stroke:#a9a9a9;stroke-width:0.886227;"/>
    <path clip-path="url(#p8d2883c16e)" d="M 387.541575 105.174135 
C 387.776605 105.174135 388.00204 105.080756 388.168232 104.914565 
C 388.334423 104.748374 388.427802 104.522938 388.427802 104.287908 
C 388.427802 104.052878 388.334423 103.827442 388.168232 103.661251 
C 388.00204 103.495059 387.776605 103.401681 387.541575 103.401681 
C 387.306545 103.401681 387.081109 103.495059 386.914918 103.661251 
C 386.748726 103.827442 386.655348 104.052878 386.655348 104.287908 
C 386.655348 104.522938 386.748726 104.748374 386.914918 104.914565 
C 387.081109 105.080756 387.306545 105.174135 387.541575 105.174135 
z
" style="fill:#a9a9a9;stroke:#a9a9a9;stroke-width:0.886227;"/>
    <path clip-path="url(#p8d2883c16e)" d="M 63.1578 40.039868 
C 63.39283 40.039868 63.618266 39.946489 63.784457 39.780298 
C 63.950649 39.614107 64.044027 39.388671 64.044027 39.153641 
C 64.044027 38.918611 63.950649 38.693175 63.784457 38.526984 
C 63.618266 38.360792 63.39283 38.267414 63.1578 38.267414 
C 62.92277 38.267414 62.697335 38.360792 62.531143 38.526984 
C 62.364952 38.693175 62.271573 38.918611 62.271573 39.153641 
C 62.271573 39.388671 62.364952 39.614107 62.531143 39.780298 
C 62.697335 39.946489 62.92277 40.039868 63.1578 40.039868 
z
" style="fill:#a9a9a9;stroke:#a9a9a9;stroke-width:0.886227;"/>
    <path clip-path="url(#p8d2883c16e)" d="M 63.699343 40.491172 
C 63.934373 40.491172 64.159808 40.397794 64.326 40.231602 
C 64.492191 40.065411 64.585569 39.839975 64.585569 39.604945 
C 64.585569 39.369915 64.492191 39.14448 64.326 38.978288 
C 64.159808 38.812097 63.934373 38.718718 63.699343 38.718718 
C 63.464312 38.718718 63.238877 38.812097 63.072685 38.978288 
C 62.906494 39.14448 62.813116 39.369915 62.813116 39.604945 
C 62.813116 39.839975 62.906494 40.065411 63.072685 40.231602 
C 63.238877 40.397794 63.464312 40.491172 63.699343 40.491172 
z
" style="fill:#a9a9a9;stroke:#a9a9a9;stroke-width:0.886227;"/>
    <path clip-path="url(#p8d2883c16e)" d="M 64.240885 45.101615 
C 64.475915 45.101615 64.70135 45.008236 64.867542 44.842045 
C 65.033733 44.675853 65.127112 44.450418 65.127112 44.215388 
C 65.127112 43.980358 65.033733 43.754922 64.867542 43.588731 
C 64.70135 43.422539 64.475915 43.329161 64.240885 43.329161 
C 64.005855 43.329161 63.780419 43.422539 63.614228 43.588731 
C 63.448036 43.754922 63.354658 43.980358 63.354658 44.215388 
C 63.354658 44.450418 63.448036 44.675853 63.614228 44.842045 
C 63.780419 45.008236 64.005855 45.101615 64.240885 45.101615 
z
" style="fill:#a9a9a9;stroke:#a9a9a9;stroke-width:0.886227;"/>
    <path clip-path="url(#p8d2883c16e)" d="M 65.323969 41.844774 
C 65.558999 41.844774 65.784435 41.751396 65.950626 41.585205 
C 66.116818 41.419013 66.210196 41.193578 66.210196 40.958547 
C 66.210196 40.723517 66.116818 40.498082 65.950626 40.33189 
C 65.784435 40.165699 65.558999 40.072321 65.323969 40.072321 
C 65.088939 40.072321 64.863503 40.165699 64.697312 40.33189 
C 64.531121 40.498082 64.437742 40.723517 64.437742 40.958547 
C 64.437742 41.193578 64.531121 41.419013 64.697312 41.585205 
C 64.863503 41.751396 65.088939 41.844774 65.323969 41.844774 
z
" style="fill:#a9a9a9;stroke:#a9a9a9;stroke-width:0.886227;"/>
    <path clip-path="url(#p8d2883c16e)" d="M 68.03168 45.38275 
C 68.26671 45.38275 68.492146 45.289372 68.658337 45.123181 
C 68.824529 44.956989 68.917907 44.731554 68.917907 44.496524 
C 68.917907 44.261493 68.824529 44.036058 68.658337 43.869866 
C 68.492146 43.703675 68.26671 43.610297 68.03168 43.610297 
C 67.79665 43.610297 67.571214 43.703675 67.405023 43.869866 
C 67.238832 44.036058 67.145453 44.261493 67.145453 44.496524 
C 67.145453 44.731554 67.238832 44.956989 67.405023 45.123181 
C 67.571214 45.289372 67.79665 45.38275 68.03168 45.38275 
z
" style="fill:#a9a9a9;stroke:#a9a9a9;stroke-width:0.886227;"/>
    <path clip-path="url(#p8d2883c16e)" d="M 73.447102 52.268522 
C 73.682132 52.268522 73.907568 52.175143 74.073759 52.008952 
C 74.23995 51.84276 74.333329 51.617325 74.333329 51.382295 
C 74.333329 51.147265 74.23995 50.921829 74.073759 50.755638 
C 73.907568 50.589446 73.682132 50.496068 73.447102 50.496068 
C 73.212072 50.496068 72.986636 50.589446 72.820445 50.755638 
C 72.654254 50.921829 72.560875 51.147265 72.560875 51.382295 
C 72.560875 51.617325 72.654254 51.84276 72.820445 52.008952 
C 72.986636 52.175143 73.212072 52.268522 73.447102 52.268522 
z
" style="fill:#a9a9a9;stroke:#a9a9a9;stroke-width:0.886227;"/>
    <path clip-path="url(#p8d2883c16e)" d="M 78.862524 53.57836 
C 79.097554 53.57836 79.32299 53.484982 79.489181 53.31879 
C 79.655372 53.152599 79.748751 52.927163 79.748751 52.692133 
C 79.748751 52.457103 79.655372 52.231667 79.489181 52.065476 
C 79.32299 51.899285 79.097554 51.805906 78.862524 51.805906 
C 78.627494 51.805906 78.402058 51.899285 78.235867 52.065476 
C 78.069675 52.231667 77.976297 52.457103 77.976297 52.692133 
C 77.976297 52.927163 78.069675 53.152599 78.235867 53.31879 
C 78.402058 53.484982 78.627494 53.57836 78.862524 53.57836 
z
" style="fill:#a9a9a9;stroke:#a9a9a9;stroke-width:0.886227;"/>
    <path clip-path="url(#p8d2883c16e)" d="M 89.693368 60.183542 
C 89.928398 60.183542 90.153834 60.090164 90.320025 59.923972 
C 90.486216 59.757781 90.579595 59.532345 90.579595 59.297315 
C 90.579595 59.062285 90.486216 58.83685 90.320025 58.670658 
C 90.153834 58.504467 89.928398 58.411088 89.693368 58.411088 
C 89.458338 58.411088 89.232902 58.504467 89.066711 58.670658 
C 88.900519 58.83685 88.807141 59.062285 88.807141 59.297315 
C 88.807141 59.532345 88.900519 59.757781 89.066711 59.923972 
C 89.232902 60.090164 89.458338 60.183542 89.693368 60.183542 
z
" style="fill:#a9a9a9;stroke:#a9a9a9;stroke-width:0.886227;"/>
    <path clip-path="url(#p8d2883c16e)" d="M 100.524212 66.144986 
C 100.759242 66.144986 100.984677 66.051607 101.150869 65.885416 
C 101.31706 65.719224 101.410439 65.493789 101.410439 65.258759 
C 101.410439 65.023729 101.31706 64.798293 101.150869 64.632102 
C 100.984677 64.46591 100.759242 64.372532 100.524212 64.372532 
C 100.289182 64.372532 100.063746 64.46591 99.897555 64.632102 
C 99.731363 64.798293 99.637985 65.023729 99.637985 65.258759 
C 99.637985 65.493789 99.731363 65.719224 99.897555 65.885416 
C 100.063746 66.051607 100.289182 66.144986 100.524212 66.144986 
z
" style="fill:#a9a9a9;stroke:#a9a9a9;stroke-width:0.886227;"/>
    <path clip-path="url(#p8d2883c16e)" d="M 116.770478 70.398866 
C 117.005508 70.398866 117.230943 70.305487 117.397135 70.139296 
C 117.563326 69.973104 117.656704 69.747669 117.656704 69.512639 
C 117.656704 69.277608 117.563326 69.052173 117.397135 68.885982 
C 117.230943 68.71979 117.005508 68.626412 116.770478 68.626412 
C 116.535447 68.626412 116.310012 68.71979 116.14382 68.885982 
C 115.977629 69.052173 115.884251 69.277608 115.884251 69.512639 
C 115.884251 69.747669 115.977629 69.973104 116.14382 70.139296 
C 116.310012 70.305487 116.535447 70.398866 116.770478 70.398866 
z
" style="fill:#a9a9a9;stroke:#a9a9a9;stroke-width:0.886227;"/>
    <path clip-path="url(#p8d2883c16e)" d="M 170.924697 93.647523 
C 171.159727 93.647523 171.385163 93.554144 171.551354 93.387953 
C 171.717545 93.221761 171.810924 92.996326 171.810924 92.761296 
C 171.810924 92.526266 171.717545 92.30083 171.551354 92.134639 
C 171.385163 91.968447 171.159727 91.875069 170.924697 91.875069 
C 170.689667 91.875069 170.464231 91.968447 170.29804 92.134639 
C 170.131849 92.30083 170.03847 92.526266 170.03847 92.761296 
C 170.03847 92.996326 170.131849 93.221761 170.29804 93.387953 
C 170.464231 93.554144 170.689667 93.647523 170.924697 93.647523 
z
" style="fill:#a9a9a9;stroke:#a9a9a9;stroke-width:0.886227;"/>
    <path clip-path="url(#p8d2883c16e)" d="M 225.078916 114.225264 
C 225.313947 114.225264 225.539382 114.131886 225.705573 113.965694 
C 225.871765 113.799503 225.965143 113.574067 225.965143 113.339037 
C 225.965143 113.104007 225.871765 112.878572 225.705573 112.71238 
C 225.539382 112.546189 225.313947 112.45281 225.078916 112.45281 
C 224.843886 112.45281 224.618451 112.546189 224.452259 112.71238 
C 224.286068 112.878572 224.192689 113.104007 224.192689 113.339037 
C 224.192689 113.574067 224.286068 113.799503 224.452259 113.965694 
C 224.618451 114.131886 224.843886 114.225264 225.078916 114.225264 
z
" style="fill:#a9a9a9;stroke:#a9a9a9;stroke-width:0.886227;"/>
    <path clip-path="url(#p8d2883c16e)" d="M 279.233136 129.979659 
C 279.468166 129.979659 279.693601 129.886281 279.859793 129.720089 
C 280.025984 129.553898 280.119363 129.328463 280.119363 129.093432 
C 280.119363 128.858402 280.025984 128.632967 279.859793 128.466775 
C 279.693601 128.300584 279.468166 128.207205 279.233136 128.207205 
C 278.998106 128.207205 278.77267 128.300584 278.606479 128.466775 
C 278.440287 128.632967 278.346909 128.858402 278.346909 129.093432 
C 278.346909 129.328463 278.440287 129.553898 278.606479 129.720089 
C 278.77267 129.886281 278.998106 129.979659 279.233136 129.979659 
z
" style="fill:#a9a9a9;stroke:#a9a9a9;stroke-width:0.886227;"/>
    <path clip-path="url(#p8d2883c16e)" d="M 333.387355 149.991237 
C 333.622385 149.991237 333.847821 149.897859 334.014012 149.731667 
C 334.180204 149.565476 334.273582 149.34004 334.273582 149.10501 
C 334.273582 148.86998 334.180204 148.644544 334.014012 148.478353 
C 333.847821 148.312162 333.622385 148.218783 333.387355 148.218783 
C 333.152325 148.218783 332.92689 148.312162 332.760698 148.478353 
C 332.594507 148.644544 332.501128 148.86998 332.501128 149.10501 
C 332.501128 149.34004 332.594507 149.565476 332.760698 149.731667 
C 332.92689 149.897859 333.152325 149.991237 333.387355 149.991237 
z
" style="fill:#a9a9a9;stroke:#a9a9a9;stroke-width:0.886227;"/>
    <path clip-path="url(#p8d2883c16e)" d="M 387.541575 170.784685 
C 387.776605 170.784685 388.00204 170.691306 388.168232 170.525115 
C 388.334423 170.358924 388.427802 170.133488 388.427802 169.898458 
C 388.427802 169.663428 388.334423 169.437992 388.168232 169.271801 
C 388.00204 169.105609 387.776605 169.012231 387.541575 169.012231 
C 387.306545 169.012231 387.081109 169.105609 386.914918 169.271801 
C 386.748726 169.437992 386.655348 169.663428 386.655348 169.898458 
C 386.655348 170.133488 386.748726 170.358924 386.914918 170.525115 
C 387.081109 170.691306 387.306545 170.784685 387.541575 170.784685 
z
" style="fill:#a9a9a9;stroke:#a9a9a9;stroke-width:0.886227;"/>
   </g>
   <g id="patch_3">
    <path d="M 46.789688 292.268933 
L 46.789688 26.156933 
" style="fill:none;stroke:#808080;stroke-linecap:square;stroke-linejoin:miter;"/>
   </g>
   <g id="patch_4">
    <path d="M 46.789688 292.268933 
L 403.909688 292.268933 
" style="fill:none;stroke:#808080;stroke-linecap:square;stroke-linejoin:miter;"/>
   </g>
   <g id="LineCollection_1">
    <path clip-path="url(#p8d2883c16e)" d="M 63.022415 39.153816 
L 63.293186 39.153816 
" style="fill:none;stroke:#a9a9a9;stroke-width:0.886227;"/>
    <path clip-path="url(#p8d2883c16e)" d="M 63.563957 65.898124 
L 63.834728 65.898124 
" style="fill:none;stroke:#a9a9a9;stroke-width:0.886227;"/>
    <path clip-path="url(#p8d2883c16e)" d="M 64.105499 91.298212 
L 64.37627 91.298212 
" style="fill:none;stroke:#a9a9a9;stroke-width:0.886227;"/>
    <path clip-path="url(#p8d2883c16e)" d="M 65.188584 140.449092 
L 65.459355 140.449092 
" style="fill:none;stroke:#a9a9a9;stroke-width:0.886227;"/>
    <path clip-path="url(#p8d2883c16e)" d="M 67.896295 249.626474 
L 68.167066 249.626474 
" style="fill:none;stroke:#a9a9a9;stroke-width:0.886227;"/>
    <path clip-path="url(#p8d2883c16e)" d="M 73.311716 223.307885 
L 73.582488 223.307885 
" style="fill:none;stroke:#a9a9a9;stroke-width:0.886227;"/>
    <path clip-path="url(#p8d2883c16e)" d="M 78.727138 214.863965 
L 78.99791 214.863965 
" style="fill:none;stroke:#a9a9a9;stroke-width:0.886227;"/>
    <path clip-path="url(#p8d2883c16e)" d="M 89.557982 196.206735 
L 89.828753 196.206735 
" style="fill:none;stroke:#a9a9a9;stroke-width:0.886227;"/>
    <path clip-path="url(#p8d2883c16e)" d="M 100.388826 178.094303 
L 100.659597 178.094303 
" style="fill:none;stroke:#a9a9a9;stroke-width:0.886227;"/>
    <path clip-path="url(#p8d2883c16e)" d="M 116.635092 159.19111 
L 116.905863 159.19111 
" style="fill:none;stroke:#a9a9a9;stroke-width:0.886227;"/>
    <path clip-path="url(#p8d2883c16e)" d="M 170.789311 132.43088 
L 171.060083 132.43088 
" style="fill:none;stroke:#a9a9a9;stroke-width:0.886227;"/>
    <path clip-path="url(#p8d2883c16e)" d="M 224.943531 124.993112 
L 225.214302 124.993112 
" style="fill:none;stroke:#a9a9a9;stroke-width:0.886227;"/>
    <path clip-path="url(#p8d2883c16e)" d="M 279.09775 125.007645 
L 279.368521 125.007645 
" style="fill:none;stroke:#a9a9a9;stroke-width:0.886227;"/>
    <path clip-path="url(#p8d2883c16e)" d="M 333.25197 116.313596 
L 333.522741 116.313596 
" style="fill:none;stroke:#a9a9a9;stroke-width:0.886227;"/>
    <path clip-path="url(#p8d2883c16e)" d="M 387.406189 110.749884 
L 387.67696 110.749884 
" style="fill:none;stroke:#a9a9a9;stroke-width:0.886227;"/>
    <path clip-path="url(#p8d2883c16e)" d="M 63.022415 39.153687 
L 63.293186 39.153687 
" style="fill:none;stroke:#a9a9a9;stroke-width:0.886227;"/>
    <path clip-path="url(#p8d2883c16e)" d="M 63.563957 39.736464 
L 63.834728 39.736464 
" style="fill:none;stroke:#a9a9a9;stroke-width:0.886227;"/>
    <path clip-path="url(#p8d2883c16e)" d="M 64.105499 50.177842 
L 64.37627 50.177842 
" style="fill:none;stroke:#a9a9a9;stroke-width:0.886227;"/>
    <path clip-path="url(#p8d2883c16e)" d="M 65.188584 41.334489 
L 65.459355 41.334489 
" style="fill:none;stroke:#a9a9a9;stroke-width:0.886227;"/>
    <path clip-path="url(#p8d2883c16e)" d="M 67.896295 46.829424 
L 68.167066 46.829424 
" style="fill:none;stroke:#a9a9a9;stroke-width:0.886227;"/>
    <path clip-path="url(#p8d2883c16e)" d="M 73.311716 58.476259 
L 73.582488 58.476259 
" style="fill:none;stroke:#a9a9a9;stroke-width:0.886227;"/>
    <path clip-path="url(#p8d2883c16e)" d="M 78.727138 58.056817 
L 78.99791 58.056817 
" style="fill:none;stroke:#a9a9a9;stroke-width:0.886227;"/>
    <path clip-path="url(#p8d2883c16e)" d="M 89.557982 64.809296 
L 89.828753 64.809296 
" style="fill:none;stroke:#a9a9a9;stroke-width:0.886227;"/>
    <path clip-path="url(#p8d2883c16e)" d="M 100.388826 71.072059 
L 100.659597 71.072059 
" style="fill:none;stroke:#a9a9a9;stroke-width:0.886227;"/>
    <path clip-path="url(#p8d2883c16e)" d="M 116.635092 72.524306 
L 116.905863 72.524306 
" style="fill:none;stroke:#a9a9a9;stroke-width:0.886227;"/>
    <path clip-path="url(#p8d2883c16e)" d="M 170.789311 97.188712 
L 171.060083 97.188712 
" style="fill:none;stroke:#a9a9a9;stroke-width:0.886227;"/>
    <path clip-path="url(#p8d2883c16e)" d="M 224.943531 117.786094 
L 225.214302 117.786094 
" style="fill:none;stroke:#a9a9a9;stroke-width:0.886227;"/>
    <path clip-path="url(#p8d2883c16e)" d="M 279.09775 133.762494 
L 279.368521 133.762494 
" style="fill:none;stroke:#a9a9a9;stroke-width:0.886227;"/>
    <path clip-path="url(#p8d2883c16e)" d="M 333.25197 153.276331 
L 333.522741 153.276331 
" style="fill:none;stroke:#a9a9a9;stroke-width:0.886227;"/>
    <path clip-path="url(#p8d2883c16e)" d="M 387.406189 173.802844 
L 387.67696 173.802844 
" style="fill:none;stroke:#a9a9a9;stroke-width:0.886227;"/>
    <path clip-path="url(#p8d2883c16e)" d="M 63.022415 39.153568 
L 63.293186 39.153568 
" style="fill:none;stroke:#a9a9a9;stroke-width:0.886227;"/>
    <path clip-path="url(#p8d2883c16e)" d="M 63.563957 64.931394 
L 63.834728 64.931394 
" style="fill:none;stroke:#a9a9a9;stroke-width:0.886227;"/>
    <path clip-path="url(#p8d2883c16e)" d="M 64.105499 89.163626 
L 64.37627 89.163626 
" style="fill:none;stroke:#a9a9a9;stroke-width:0.886227;"/>
    <path clip-path="url(#p8d2883c16e)" d="M 65.188584 138.765886 
L 65.459355 138.765886 
" style="fill:none;stroke:#a9a9a9;stroke-width:0.886227;"/>
    <path clip-path="url(#p8d2883c16e)" d="M 67.896295 243.513805 
L 68.167066 243.513805 
" style="fill:none;stroke:#a9a9a9;stroke-width:0.886227;"/>
    <path clip-path="url(#p8d2883c16e)" d="M 73.311716 220.434387 
L 73.582488 220.434387 
" style="fill:none;stroke:#a9a9a9;stroke-width:0.886227;"/>
    <path clip-path="url(#p8d2883c16e)" d="M 78.727138 211.068019 
L 78.99791 211.068019 
" style="fill:none;stroke:#a9a9a9;stroke-width:0.886227;"/>
    <path clip-path="url(#p8d2883c16e)" d="M 89.557982 189.099902 
L 89.828753 189.099902 
" style="fill:none;stroke:#a9a9a9;stroke-width:0.886227;"/>
    <path clip-path="url(#p8d2883c16e)" d="M 100.388826 172.474856 
L 100.659597 172.474856 
" style="fill:none;stroke:#a9a9a9;stroke-width:0.886227;"/>
    <path clip-path="url(#p8d2883c16e)" d="M 116.635092 149.795077 
L 116.905863 149.795077 
" style="fill:none;stroke:#a9a9a9;stroke-width:0.886227;"/>
    <path clip-path="url(#p8d2883c16e)" d="M 170.789311 122.191855 
L 171.060083 122.191855 
" style="fill:none;stroke:#a9a9a9;stroke-width:0.886227;"/>
    <path clip-path="url(#p8d2883c16e)" d="M 224.943531 110.075388 
L 225.214302 110.075388 
" style="fill:none;stroke:#a9a9a9;stroke-width:0.886227;"/>
    <path clip-path="url(#p8d2883c16e)" d="M 279.09775 109.03614 
L 279.368521 109.03614 
" style="fill:none;stroke:#a9a9a9;stroke-width:0.886227;"/>
    <path clip-path="url(#p8d2883c16e)" d="M 333.25197 104.276473 
L 333.522741 104.276473 
" style="fill:none;stroke:#a9a9a9;stroke-width:0.886227;"/>
    <path clip-path="url(#p8d2883c16e)" d="M 387.406189 97.825931 
L 387.67696 97.825931 
" style="fill:none;stroke:#a9a9a9;stroke-width:0.886227;"/>
    <path clip-path="url(#p8d2883c16e)" d="M 63.022415 39.153595 
L 63.293186 39.153595 
" style="fill:none;stroke:#a9a9a9;stroke-width:0.886227;"/>
    <path clip-path="url(#p8d2883c16e)" d="M 63.563957 39.473426 
L 63.834728 39.473426 
" style="fill:none;stroke:#a9a9a9;stroke-width:0.886227;"/>
    <path clip-path="url(#p8d2883c16e)" d="M 64.105499 38.252933 
L 64.37627 38.252933 
" style="fill:none;stroke:#a9a9a9;stroke-width:0.886227;"/>
    <path clip-path="url(#p8d2883c16e)" d="M 65.188584 40.582606 
L 65.459355 40.582606 
" style="fill:none;stroke:#a9a9a9;stroke-width:0.886227;"/>
    <path clip-path="url(#p8d2883c16e)" d="M 67.896295 42.163623 
L 68.167066 42.163623 
" style="fill:none;stroke:#a9a9a9;stroke-width:0.886227;"/>
    <path clip-path="url(#p8d2883c16e)" d="M 73.311716 44.28833 
L 73.582488 44.28833 
" style="fill:none;stroke:#a9a9a9;stroke-width:0.886227;"/>
    <path clip-path="url(#p8d2883c16e)" d="M 78.727138 47.32745 
L 78.99791 47.32745 
" style="fill:none;stroke:#a9a9a9;stroke-width:0.886227;"/>
    <path clip-path="url(#p8d2883c16e)" d="M 89.557982 53.785335 
L 89.828753 53.785335 
" style="fill:none;stroke:#a9a9a9;stroke-width:0.886227;"/>
    <path clip-path="url(#p8d2883c16e)" d="M 100.388826 59.445458 
L 100.659597 59.445458 
" style="fill:none;stroke:#a9a9a9;stroke-width:0.886227;"/>
    <path clip-path="url(#p8d2883c16e)" d="M 116.635092 66.500971 
L 116.905863 66.500971 
" style="fill:none;stroke:#a9a9a9;stroke-width:0.886227;"/>
    <path clip-path="url(#p8d2883c16e)" d="M 170.789311 88.333879 
L 171.060083 88.333879 
" style="fill:none;stroke:#a9a9a9;stroke-width:0.886227;"/>
    <path clip-path="url(#p8d2883c16e)" d="M 224.943531 108.891981 
L 225.214302 108.891981 
" style="fill:none;stroke:#a9a9a9;stroke-width:0.886227;"/>
    <path clip-path="url(#p8d2883c16e)" d="M 279.09775 124.424371 
L 279.368521 124.424371 
" style="fill:none;stroke:#a9a9a9;stroke-width:0.886227;"/>
    <path clip-path="url(#p8d2883c16e)" d="M 333.25197 144.933689 
L 333.522741 144.933689 
" style="fill:none;stroke:#a9a9a9;stroke-width:0.886227;"/>
    <path clip-path="url(#p8d2883c16e)" d="M 387.406189 165.994072 
L 387.67696 165.994072 
" style="fill:none;stroke:#a9a9a9;stroke-width:0.886227;"/>
    <path clip-path="url(#p8d2883c16e)" d="M 63.1578 39.153568 
L 63.1578 39.153816 
" style="fill:none;stroke:#a9a9a9;stroke-width:0.886227;"/>
    <path clip-path="url(#p8d2883c16e)" d="M 63.699343 64.931394 
L 63.699343 65.898124 
" style="fill:none;stroke:#a9a9a9;stroke-width:0.886227;"/>
    <path clip-path="url(#p8d2883c16e)" d="M 64.240885 89.163626 
L 64.240885 91.298212 
" style="fill:none;stroke:#a9a9a9;stroke-width:0.886227;"/>
    <path clip-path="url(#p8d2883c16e)" d="M 65.323969 138.765886 
L 65.323969 140.449092 
" style="fill:none;stroke:#a9a9a9;stroke-width:0.886227;"/>
    <path clip-path="url(#p8d2883c16e)" d="M 68.03168 243.513805 
L 68.03168 249.626474 
" style="fill:none;stroke:#a9a9a9;stroke-width:0.886227;"/>
    <path clip-path="url(#p8d2883c16e)" d="M 73.447102 220.434387 
L 73.447102 223.307885 
" style="fill:none;stroke:#a9a9a9;stroke-width:0.886227;"/>
    <path clip-path="url(#p8d2883c16e)" d="M 78.862524 211.068019 
L 78.862524 214.863965 
" style="fill:none;stroke:#a9a9a9;stroke-width:0.886227;"/>
    <path clip-path="url(#p8d2883c16e)" d="M 89.693368 189.099902 
L 89.693368 196.206735 
" style="fill:none;stroke:#a9a9a9;stroke-width:0.886227;"/>
    <path clip-path="url(#p8d2883c16e)" d="M 100.524212 172.474856 
L 100.524212 178.094303 
" style="fill:none;stroke:#a9a9a9;stroke-width:0.886227;"/>
    <path clip-path="url(#p8d2883c16e)" d="M 116.770478 149.795077 
L 116.770478 159.19111 
" style="fill:none;stroke:#a9a9a9;stroke-width:0.886227;"/>
    <path clip-path="url(#p8d2883c16e)" d="M 170.924697 122.191855 
L 170.924697 132.43088 
" style="fill:none;stroke:#a9a9a9;stroke-width:0.886227;"/>
    <path clip-path="url(#p8d2883c16e)" d="M 225.078916 110.075388 
L 225.078916 124.993112 
" style="fill:none;stroke:#a9a9a9;stroke-width:0.886227;"/>
    <path clip-path="url(#p8d2883c16e)" d="M 279.233136 109.03614 
L 279.233136 125.007645 
" style="fill:none;stroke:#a9a9a9;stroke-width:0.886227;"/>
    <path clip-path="url(#p8d2883c16e)" d="M 333.387355 104.276473 
L 333.387355 116.313596 
" style="fill:none;stroke:#a9a9a9;stroke-width:0.886227;"/>
    <path clip-path="url(#p8d2883c16e)" d="M 387.541575 97.825931 
L 387.541575 110.749884 
" style="fill:none;stroke:#a9a9a9;stroke-width:0.886227;"/>
    <path clip-path="url(#p8d2883c16e)" d="M 63.1578 39.153595 
L 63.1578 39.153687 
" style="fill:none;stroke:#a9a9a9;stroke-width:0.886227;"/>
    <path clip-path="url(#p8d2883c16e)" d="M 63.699343 39.473426 
L 63.699343 39.736464 
" style="fill:none;stroke:#a9a9a9;stroke-width:0.886227;"/>
    <path clip-path="url(#p8d2883c16e)" d="M 64.240885 38.252933 
L 64.240885 50.177842 
" style="fill:none;stroke:#a9a9a9;stroke-width:0.886227;"/>
    <path clip-path="url(#p8d2883c16e)" d="M 65.323969 40.582606 
L 65.323969 41.334489 
" style="fill:none;stroke:#a9a9a9;stroke-width:0.886227;"/>
    <path clip-path="url(#p8d2883c16e)" d="M 68.03168 42.163623 
L 68.03168 46.829424 
" style="fill:none;stroke:#a9a9a9;stroke-width:0.886227;"/>
    <path clip-path="url(#p8d2883c16e)" d="M 73.447102 44.28833 
L 73.447102 58.476259 
" style="fill:none;stroke:#a9a9a9;stroke-width:0.886227;"/>
    <path clip-path="url(#p8d2883c16e)" d="M 78.862524 47.32745 
L 78.862524 58.056817 
" style="fill:none;stroke:#a9a9a9;stroke-width:0.886227;"/>
    <path clip-path="url(#p8d2883c16e)" d="M 89.693368 53.785335 
L 89.693368 64.809296 
" style="fill:none;stroke:#a9a9a9;stroke-width:0.886227;"/>
    <path clip-path="url(#p8d2883c16e)" d="M 100.524212 59.445458 
L 100.524212 71.072059 
" style="fill:none;stroke:#a9a9a9;stroke-width:0.886227;"/>
    <path clip-path="url(#p8d2883c16e)" d="M 116.770478 66.500971 
L 116.770478 72.524306 
" style="fill:none;stroke:#a9a9a9;stroke-width:0.886227;"/>
    <path clip-path="url(#p8d2883c16e)" d="M 170.924697 88.333879 
L 170.924697 97.188712 
" style="fill:none;stroke:#a9a9a9;stroke-width:0.886227;"/>
    <path clip-path="url(#p8d2883c16e)" d="M 225.078916 108.891981 
L 225.078916 117.786094 
" style="fill:none;stroke:#a9a9a9;stroke-width:0.886227;"/>
    <path clip-path="url(#p8d2883c16e)" d="M 279.233136 124.424371 
L 279.233136 133.762494 
" style="fill:none;stroke:#a9a9a9;stroke-width:0.886227;"/>
    <path clip-path="url(#p8d2883c16e)" d="M 333.387355 144.933689 
L 333.387355 153.276331 
" style="fill:none;stroke:#a9a9a9;stroke-width:0.886227;"/>
    <path clip-path="url(#p8d2883c16e)" d="M 387.541575 165.994072 
L 387.541575 173.802844 
" style="fill:none;stroke:#a9a9a9;stroke-width:0.886227;"/>
   </g>
   <g id="line2d_33">
    <path clip-path="url(#p8d2883c16e)" d="M 63.1578 280.172933 
L 63.1578 280.172933 
L 63.699343 280.172933 
L 63.699343 280.172933 
L 64.240885 280.172933 
L 64.240885 280.172933 
L 65.323969 280.172933 
L 65.323969 280.172933 
L 68.03168 280.172933 
L 68.03168 280.172933 
L 73.447102 280.172933 
L 73.447102 280.172933 
L 78.862524 280.172933 
L 78.862524 280.172933 
L 89.693368 280.172933 
L 89.693368 280.172933 
L 100.524212 280.172933 
L 100.524212 280.172933 
L 116.770478 280.172933 
L 116.770478 280.172933 
L 170.924697 280.172933 
L 170.924697 280.172933 
L 225.078916 280.172933 
L 225.078916 280.172933 
L 279.233136 280.172933 
L 279.233136 280.172933 
L 333.387355 280.172933 
L 333.387355 280.172933 
L 387.541575 280.172933 
L 387.541575 280.172933 
" style="fill:none;stroke:#a9a9a9;stroke-dasharray:6.558079,2.835926;stroke-dashoffset:0;stroke-width:1.772454;"/>
   </g>
   <g id="patch_5">
    <path d="M 411.109688 194.047902 
L 507.662563 194.047902 
L 507.662563 120.921964 
L 411.109688 120.921964 
z
" style="fill:#ffffff;"/>
   </g>
   <g id="text_11">
    <!-- Group -->
    <defs>
     <path d="M 59.515625 10.40625 
L 59.515625 29.984375 
L 43.40625 29.984375 
L 43.40625 38.09375 
L 69.28125 38.09375 
L 69.28125 6.78125 
Q 63.578125 2.734375 56.6875 0.65625 
Q 49.8125 -1.421875 42 -1.421875 
Q 24.90625 -1.421875 15.25 8.5625 
Q 5.609375 18.5625 5.609375 36.375 
Q 5.609375 54.25 15.25 64.234375 
Q 24.90625 74.21875 42 74.21875 
Q 49.125 74.21875 55.546875 72.453125 
Q 61.96875 70.703125 67.390625 67.28125 
L 67.390625 56.78125 
Q 61.921875 61.421875 55.765625 63.765625 
Q 49.609375 66.109375 42.828125 66.109375 
Q 29.4375 66.109375 22.71875 58.640625 
Q 16.015625 51.171875 16.015625 36.375 
Q 16.015625 21.625 22.71875 14.15625 
Q 29.4375 6.6875 42.828125 6.6875 
Q 48.046875 6.6875 52.140625 7.59375 
Q 56.25 8.5 59.515625 10.40625 
z
" id="DejaVuSans-71"/>
     <path d="M 18.109375 8.203125 
L 18.109375 -20.796875 
L 9.078125 -20.796875 
L 9.078125 54.6875 
L 18.109375 54.6875 
L 18.109375 46.390625 
Q 20.953125 51.265625 25.265625 53.625 
Q 29.59375 56 35.59375 56 
Q 45.5625 56 51.78125 48.09375 
Q 58.015625 40.1875 58.015625 27.296875 
Q 58.015625 14.40625 51.78125 6.484375 
Q 45.5625 -1.421875 35.59375 -1.421875 
Q 29.59375 -1.421875 25.265625 0.953125 
Q 20.953125 3.328125 18.109375 8.203125 
z
M 48.6875 27.296875 
Q 48.6875 37.203125 44.609375 42.84375 
Q 40.53125 48.484375 33.40625 48.484375 
Q 26.265625 48.484375 22.1875 42.84375 
Q 18.109375 37.203125 18.109375 27.296875 
Q 18.109375 17.390625 22.1875 11.75 
Q 26.265625 6.109375 33.40625 6.109375 
Q 40.53125 6.109375 44.609375 11.75 
Q 48.6875 17.390625 48.6875 27.296875 
z
" id="DejaVuSans-112"/>
    </defs>
    <g transform="translate(423.309687 144.515558)scale(0.11 -0.11)">
     <use xlink:href="#DejaVuSans-71"/>
     <use x="77.490234" xlink:href="#DejaVuSans-114"/>
     <use x="118.572266" xlink:href="#DejaVuSans-111"/>
     <use x="179.753906" xlink:href="#DejaVuSans-117"/>
     <use x="243.132812" xlink:href="#DejaVuSans-112"/>
    </g>
   </g>
   <g id="patch_6">
    <path clip-path="url(#p28b6265933)" d="M 423.309687 164.007902 
L 439.149687 164.007902 
L 439.149687 148.167902 
L 423.309687 148.167902 
z
" style="fill:#ffffff;stroke:#ffffff;stroke-linejoin:miter;"/>
   </g>
   <g id="line2d_34">
    <path clip-path="url(#p28b6265933)" d="M 423.309687 156.087902 
L 439.149687 156.087902 
" style="fill:none;stroke:#1976d2;stroke-width:2.658681;"/>
   </g>
   <g id="text_12">
    <!-- corrected -->
    <defs>
     <path d="M 45.40625 46.390625 
L 45.40625 75.984375 
L 54.390625 75.984375 
L 54.390625 0 
L 45.40625 0 
L 45.40625 8.203125 
Q 42.578125 3.328125 38.25 0.953125 
Q 33.9375 -1.421875 27.875 -1.421875 
Q 17.96875 -1.421875 11.734375 6.484375 
Q 5.515625 14.40625 5.515625 27.296875 
Q 5.515625 40.1875 11.734375 48.09375 
Q 17.96875 56 27.875 56 
Q 33.9375 56 38.25 53.625 
Q 42.578125 51.265625 45.40625 46.390625 
z
M 14.796875 27.296875 
Q 14.796875 17.390625 18.875 11.75 
Q 22.953125 6.109375 30.078125 6.109375 
Q 37.203125 6.109375 41.296875 11.75 
Q 45.40625 17.390625 45.40625 27.296875 
Q 45.40625 37.203125 41.296875 42.84375 
Q 37.203125 48.484375 30.078125 48.484375 
Q 22.953125 48.484375 18.875 42.84375 
Q 14.796875 37.203125 14.796875 27.296875 
z
" id="DejaVuSans-100"/>
    </defs>
    <g transform="translate(442.149688 158.516152)scale(0.088 -0.088)">
     <use xlink:href="#DejaVuSans-99"/>
     <use x="54.980469" xlink:href="#DejaVuSans-111"/>
     <use x="116.162109" xlink:href="#DejaVuSans-114"/>
     <use x="157.259766" xlink:href="#DejaVuSans-114"/>
     <use x="198.341797" xlink:href="#DejaVuSans-101"/>
     <use x="259.865234" xlink:href="#DejaVuSans-99"/>
     <use x="314.845703" xlink:href="#DejaVuSans-116"/>
     <use x="354.054688" xlink:href="#DejaVuSans-101"/>
     <use x="415.578125" xlink:href="#DejaVuSans-100"/>
    </g>
   </g>
   <g id="patch_7">
    <path clip-path="url(#pe13a132520)" d="M 423.309687 181.847902 
L 439.149687 181.847902 
L 439.149687 166.007902 
L 423.309687 166.007902 
z
" style="fill:#ffffff;stroke:#ffffff;stroke-linejoin:miter;"/>
   </g>
   <g id="line2d_35">
    <path clip-path="url(#pe13a132520)" d="M 423.309687 173.927902 
L 439.149687 173.927902 
" style="fill:none;stroke:#b3e5fc;stroke-width:2.658681;"/>
   </g>
   <g id="text_13">
    <!-- uncorrected -->
    <g transform="translate(442.149688 176.356152)scale(0.088 -0.088)">
     <use xlink:href="#DejaVuSans-117"/>
     <use x="63.378906" xlink:href="#DejaVuSans-110"/>
     <use x="126.757812" xlink:href="#DejaVuSans-99"/>
     <use x="181.738281" xlink:href="#DejaVuSans-111"/>
     <use x="242.919922" xlink:href="#DejaVuSans-114"/>
     <use x="284.017578" xlink:href="#DejaVuSans-114"/>
     <use x="325.099609" xlink:href="#DejaVuSans-101"/>
     <use x="386.623047" xlink:href="#DejaVuSans-99"/>
     <use x="441.603516" xlink:href="#DejaVuSans-116"/>
     <use x="480.8125" xlink:href="#DejaVuSans-101"/>
     <use x="542.335938" xlink:href="#DejaVuSans-100"/>
    </g>
   </g>
  </g>
  <g id="text_14">
   <!-- Similarity across varying numbers of partitions -->
   <defs>
    <path d="M 59.90625 70.609375 
L 59.90625 55.171875 
Q 53.90625 57.859375 48.1875 59.21875 
Q 42.484375 60.59375 37.40625 60.59375 
Q 30.671875 60.59375 27.4375 58.734375 
Q 24.21875 56.890625 24.21875 52.984375 
Q 24.21875 50.046875 26.390625 48.40625 
Q 28.5625 46.78125 34.28125 45.609375 
L 42.28125 44 
Q 54.4375 41.546875 59.5625 36.5625 
Q 64.703125 31.59375 64.703125 22.40625 
Q 64.703125 10.359375 57.546875 4.46875 
Q 50.390625 -1.421875 35.6875 -1.421875 
Q 28.765625 -1.421875 21.78125 -0.09375 
Q 14.796875 1.21875 7.8125 3.8125 
L 7.8125 19.671875 
Q 14.796875 15.96875 21.3125 14.078125 
Q 27.828125 12.203125 33.890625 12.203125 
Q 40.046875 12.203125 43.3125 14.25 
Q 46.578125 16.3125 46.578125 20.125 
Q 46.578125 23.53125 44.359375 25.390625 
Q 42.140625 27.25 35.5 28.71875 
L 28.21875 30.328125 
Q 17.28125 32.671875 12.21875 37.796875 
Q 7.171875 42.921875 7.171875 51.609375 
Q 7.171875 62.5 14.203125 68.359375 
Q 21.234375 74.21875 34.421875 74.21875 
Q 40.4375 74.21875 46.78125 73.3125 
Q 53.125 72.40625 59.90625 70.609375 
z
" id="DejaVuSans-Bold-83"/>
    <path d="M 8.40625 54.6875 
L 25.875 54.6875 
L 25.875 0 
L 8.40625 0 
z
M 8.40625 75.984375 
L 25.875 75.984375 
L 25.875 61.71875 
L 8.40625 61.71875 
z
" id="DejaVuSans-Bold-105"/>
    <path d="M 59.078125 45.609375 
Q 62.40625 50.6875 66.96875 53.34375 
Q 71.53125 56 77 56 
Q 86.421875 56 91.359375 50.1875 
Q 96.296875 44.390625 96.296875 33.296875 
L 96.296875 0 
L 78.71875 0 
L 78.71875 28.515625 
Q 78.765625 29.15625 78.78125 29.828125 
Q 78.8125 30.515625 78.8125 31.78125 
Q 78.8125 37.59375 77.09375 40.203125 
Q 75.390625 42.828125 71.578125 42.828125 
Q 66.609375 42.828125 63.890625 38.71875 
Q 61.1875 34.625 61.078125 26.859375 
L 61.078125 0 
L 43.5 0 
L 43.5 28.515625 
Q 43.5 37.59375 41.9375 40.203125 
Q 40.375 42.828125 36.375 42.828125 
Q 31.34375 42.828125 28.609375 38.703125 
Q 25.875 34.578125 25.875 26.90625 
L 25.875 0 
L 8.296875 0 
L 8.296875 54.6875 
L 25.875 54.6875 
L 25.875 46.6875 
Q 29.109375 51.3125 33.28125 53.65625 
Q 37.453125 56 42.484375 56 
Q 48.140625 56 52.484375 53.265625 
Q 56.84375 50.53125 59.078125 45.609375 
z
" id="DejaVuSans-Bold-109"/>
    <path d="M 8.40625 75.984375 
L 25.875 75.984375 
L 25.875 0 
L 8.40625 0 
z
" id="DejaVuSans-Bold-108"/>
    <path d="M 32.90625 24.609375 
Q 27.4375 24.609375 24.671875 22.75 
Q 21.921875 20.90625 21.921875 17.28125 
Q 21.921875 13.96875 24.140625 12.078125 
Q 26.375 10.203125 30.328125 10.203125 
Q 35.25 10.203125 38.625 13.734375 
Q 42 17.28125 42 22.609375 
L 42 24.609375 
z
M 59.625 31.203125 
L 59.625 0 
L 42 0 
L 42 8.109375 
Q 38.484375 3.125 34.078125 0.84375 
Q 29.6875 -1.421875 23.390625 -1.421875 
Q 14.890625 -1.421875 9.59375 3.53125 
Q 4.296875 8.5 4.296875 16.40625 
Q 4.296875 26.03125 10.90625 30.515625 
Q 17.53125 35.015625 31.6875 35.015625 
L 42 35.015625 
L 42 36.375 
Q 42 40.53125 38.71875 42.453125 
Q 35.453125 44.390625 28.515625 44.390625 
Q 22.90625 44.390625 18.0625 43.265625 
Q 13.234375 42.140625 9.078125 39.890625 
L 9.078125 53.21875 
Q 14.703125 54.59375 20.359375 55.296875 
Q 26.03125 56 31.6875 56 
Q 46.484375 56 53.046875 50.171875 
Q 59.625 44.34375 59.625 31.203125 
z
" id="DejaVuSans-Bold-97"/>
    <path d="M 49.03125 39.796875 
Q 46.734375 40.875 44.453125 41.375 
Q 42.1875 41.890625 39.890625 41.890625 
Q 33.15625 41.890625 29.515625 37.5625 
Q 25.875 33.25 25.875 25.203125 
L 25.875 0 
L 8.40625 0 
L 8.40625 54.6875 
L 25.875 54.6875 
L 25.875 45.703125 
Q 29.25 51.078125 33.609375 53.53125 
Q 37.984375 56 44.09375 56 
Q 44.96875 56 45.984375 55.921875 
Q 47.015625 55.859375 48.96875 55.609375 
z
" id="DejaVuSans-Bold-114"/>
    <path d="M 27.484375 70.21875 
L 27.484375 54.6875 
L 45.515625 54.6875 
L 45.515625 42.1875 
L 27.484375 42.1875 
L 27.484375 19 
Q 27.484375 15.1875 29 13.84375 
Q 30.515625 12.5 35.015625 12.5 
L 44 12.5 
L 44 0 
L 29 0 
Q 18.65625 0 14.328125 4.3125 
Q 10.015625 8.640625 10.015625 19 
L 10.015625 42.1875 
L 1.3125 42.1875 
L 1.3125 54.6875 
L 10.015625 54.6875 
L 10.015625 70.21875 
z
" id="DejaVuSans-Bold-116"/>
    <path d="M 1.21875 54.6875 
L 18.703125 54.6875 
L 33.40625 17.578125 
L 45.90625 54.6875 
L 63.375 54.6875 
L 40.375 -5.171875 
Q 36.921875 -14.3125 32.296875 -17.9375 
Q 27.6875 -21.578125 20.125 -21.578125 
L 10.015625 -21.578125 
L 10.015625 -10.109375 
L 15.484375 -10.109375 
Q 19.921875 -10.109375 21.9375 -8.6875 
Q 23.96875 -7.28125 25.09375 -3.609375 
L 25.59375 -2.09375 
z
" id="DejaVuSans-Bold-121"/>
    <path id="DejaVuSans-Bold-32"/>
    <path d="M 52.59375 52.984375 
L 52.59375 38.71875 
Q 49.03125 41.15625 45.4375 42.328125 
Q 41.84375 43.5 37.984375 43.5 
Q 30.671875 43.5 26.59375 39.234375 
Q 22.515625 34.96875 22.515625 27.296875 
Q 22.515625 19.625 26.59375 15.34375 
Q 30.671875 11.078125 37.984375 11.078125 
Q 42.09375 11.078125 45.78125 12.296875 
Q 49.46875 13.53125 52.59375 15.921875 
L 52.59375 1.609375 
Q 48.484375 0.09375 44.265625 -0.65625 
Q 40.046875 -1.421875 35.796875 -1.421875 
Q 21 -1.421875 12.640625 6.171875 
Q 4.296875 13.765625 4.296875 27.296875 
Q 4.296875 40.828125 12.640625 48.40625 
Q 21 56 35.796875 56 
Q 40.09375 56 44.265625 55.25 
Q 48.4375 54.5 52.59375 52.984375 
z
" id="DejaVuSans-Bold-99"/>
    <path d="M 34.421875 43.5 
Q 28.609375 43.5 25.5625 39.328125 
Q 22.515625 35.15625 22.515625 27.296875 
Q 22.515625 19.4375 25.5625 15.25 
Q 28.609375 11.078125 34.421875 11.078125 
Q 40.140625 11.078125 43.15625 15.25 
Q 46.1875 19.4375 46.1875 27.296875 
Q 46.1875 35.15625 43.15625 39.328125 
Q 40.140625 43.5 34.421875 43.5 
z
M 34.421875 56 
Q 48.53125 56 56.46875 48.375 
Q 64.40625 40.765625 64.40625 27.296875 
Q 64.40625 13.8125 56.46875 6.1875 
Q 48.53125 -1.421875 34.421875 -1.421875 
Q 20.265625 -1.421875 12.28125 6.1875 
Q 4.296875 13.8125 4.296875 27.296875 
Q 4.296875 40.765625 12.28125 48.375 
Q 20.265625 56 34.421875 56 
z
" id="DejaVuSans-Bold-111"/>
    <path d="M 51.125 52.984375 
L 51.125 39.703125 
Q 45.515625 42.046875 40.28125 43.21875 
Q 35.0625 44.390625 30.421875 44.390625 
Q 25.4375 44.390625 23.015625 43.140625 
Q 20.609375 41.890625 20.609375 39.3125 
Q 20.609375 37.203125 22.4375 36.078125 
Q 24.265625 34.96875 29 34.421875 
L 32.078125 33.984375 
Q 45.515625 32.28125 50.140625 28.375 
Q 54.78125 24.46875 54.78125 16.109375 
Q 54.78125 7.375 48.328125 2.96875 
Q 41.890625 -1.421875 29.109375 -1.421875 
Q 23.6875 -1.421875 17.890625 -0.5625 
Q 12.109375 0.296875 6 2 
L 6 15.28125 
Q 11.234375 12.75 16.71875 11.46875 
Q 22.21875 10.203125 27.875 10.203125 
Q 33.015625 10.203125 35.59375 11.609375 
Q 38.1875 13.03125 38.1875 15.828125 
Q 38.1875 18.171875 36.40625 19.3125 
Q 34.625 20.453125 29.296875 21.09375 
L 26.21875 21.484375 
Q 14.546875 22.953125 9.859375 26.90625 
Q 5.171875 30.859375 5.171875 38.921875 
Q 5.171875 47.609375 11.125 51.796875 
Q 17.09375 56 29.390625 56 
Q 34.234375 56 39.546875 55.265625 
Q 44.875 54.546875 51.125 52.984375 
z
" id="DejaVuSans-Bold-115"/>
    <path d="M 1.515625 54.6875 
L 19 54.6875 
L 32.625 16.890625 
L 46.1875 54.6875 
L 63.71875 54.6875 
L 42.1875 0 
L 23 0 
z
" id="DejaVuSans-Bold-118"/>
    <path d="M 63.375 33.296875 
L 63.375 0 
L 45.796875 0 
L 45.796875 5.421875 
L 45.796875 25.484375 
Q 45.796875 32.5625 45.484375 35.25 
Q 45.171875 37.9375 44.390625 39.203125 
Q 43.359375 40.921875 41.59375 41.875 
Q 39.84375 42.828125 37.59375 42.828125 
Q 32.125 42.828125 29 38.59375 
Q 25.875 34.375 25.875 26.90625 
L 25.875 0 
L 8.40625 0 
L 8.40625 54.6875 
L 25.875 54.6875 
L 25.875 46.6875 
Q 29.828125 51.46875 34.265625 53.734375 
Q 38.71875 56 44.09375 56 
Q 53.5625 56 58.46875 50.1875 
Q 63.375 44.390625 63.375 33.296875 
z
" id="DejaVuSans-Bold-110"/>
    <path d="M 45.609375 9.28125 
Q 42 4.5 37.640625 2.25 
Q 33.296875 0 27.59375 0 
Q 17.578125 0 11.03125 7.875 
Q 4.5 15.765625 4.5 27.984375 
Q 4.5 40.234375 11.03125 48.0625 
Q 17.578125 55.90625 27.59375 55.90625 
Q 33.296875 55.90625 37.640625 53.65625 
Q 42 51.421875 45.609375 46.578125 
L 45.609375 54.6875 
L 63.1875 54.6875 
L 63.1875 5.515625 
Q 63.1875 -7.671875 54.859375 -14.625 
Q 46.53125 -21.578125 30.71875 -21.578125 
Q 25.59375 -21.578125 20.796875 -20.796875 
Q 16.015625 -20.015625 11.1875 -18.40625 
L 11.1875 -4.78125 
Q 15.765625 -7.421875 20.15625 -8.71875 
Q 24.5625 -10.015625 29 -10.015625 
Q 37.59375 -10.015625 41.59375 -6.25 
Q 45.609375 -2.484375 45.609375 5.515625 
z
M 34.078125 43.3125 
Q 28.65625 43.3125 25.625 39.296875 
Q 22.609375 35.296875 22.609375 27.984375 
Q 22.609375 20.453125 25.53125 16.578125 
Q 28.46875 12.703125 34.078125 12.703125 
Q 39.546875 12.703125 42.578125 16.703125 
Q 45.609375 20.703125 45.609375 27.984375 
Q 45.609375 35.296875 42.578125 39.296875 
Q 39.546875 43.3125 34.078125 43.3125 
z
" id="DejaVuSans-Bold-103"/>
    <path d="M 7.8125 21.296875 
L 7.8125 54.6875 
L 25.390625 54.6875 
L 25.390625 49.21875 
Q 25.390625 44.78125 25.34375 38.0625 
Q 25.296875 31.34375 25.296875 29.109375 
Q 25.296875 22.515625 25.640625 19.609375 
Q 25.984375 16.703125 26.8125 15.375 
Q 27.875 13.671875 29.609375 12.734375 
Q 31.34375 11.8125 33.59375 11.8125 
Q 39.0625 11.8125 42.1875 16.015625 
Q 45.3125 20.21875 45.3125 27.6875 
L 45.3125 54.6875 
L 62.796875 54.6875 
L 62.796875 0 
L 45.3125 0 
L 45.3125 7.90625 
Q 41.359375 3.125 36.9375 0.84375 
Q 32.515625 -1.421875 27.203125 -1.421875 
Q 17.71875 -1.421875 12.765625 4.390625 
Q 7.8125 10.203125 7.8125 21.296875 
z
" id="DejaVuSans-Bold-117"/>
    <path d="M 37.5 11.28125 
Q 43.109375 11.28125 46.0625 15.375 
Q 49.03125 19.484375 49.03125 27.296875 
Q 49.03125 35.109375 46.0625 39.203125 
Q 43.109375 43.3125 37.5 43.3125 
Q 31.890625 43.3125 28.875 39.1875 
Q 25.875 35.0625 25.875 27.296875 
Q 25.875 19.53125 28.875 15.40625 
Q 31.890625 11.28125 37.5 11.28125 
z
M 25.875 46.6875 
Q 29.5 51.46875 33.890625 53.734375 
Q 38.28125 56 44 56 
Q 54.109375 56 60.59375 47.96875 
Q 67.09375 39.9375 67.09375 27.296875 
Q 67.09375 14.65625 60.59375 6.609375 
Q 54.109375 -1.421875 44 -1.421875 
Q 38.28125 -1.421875 33.890625 0.84375 
Q 29.5 3.125 25.875 7.90625 
L 25.875 0 
L 8.40625 0 
L 8.40625 75.984375 
L 25.875 75.984375 
z
" id="DejaVuSans-Bold-98"/>
    <path d="M 62.984375 27.484375 
L 62.984375 22.515625 
L 22.125 22.515625 
Q 22.75 16.359375 26.5625 13.28125 
Q 30.375 10.203125 37.203125 10.203125 
Q 42.71875 10.203125 48.5 11.84375 
Q 54.296875 13.484375 60.40625 16.796875 
L 60.40625 3.328125 
Q 54.203125 0.984375 48 -0.21875 
Q 41.796875 -1.421875 35.59375 -1.421875 
Q 20.75 -1.421875 12.515625 6.125 
Q 4.296875 13.671875 4.296875 27.296875 
Q 4.296875 40.671875 12.375 48.328125 
Q 20.453125 56 34.625 56 
Q 47.515625 56 55.25 48.234375 
Q 62.984375 40.484375 62.984375 27.484375 
z
M 45.015625 33.296875 
Q 45.015625 38.28125 42.109375 41.328125 
Q 39.203125 44.390625 34.515625 44.390625 
Q 29.4375 44.390625 26.265625 41.53125 
Q 23.09375 38.671875 22.3125 33.296875 
z
" id="DejaVuSans-Bold-101"/>
    <path d="M 44.390625 75.984375 
L 44.390625 64.5 
L 34.71875 64.5 
Q 31 64.5 29.53125 63.15625 
Q 28.078125 61.8125 28.078125 58.5 
L 28.078125 54.6875 
L 43.015625 54.6875 
L 43.015625 42.1875 
L 28.078125 42.1875 
L 28.078125 0 
L 10.59375 0 
L 10.59375 42.1875 
L 1.90625 42.1875 
L 1.90625 54.6875 
L 10.59375 54.6875 
L 10.59375 58.5 
Q 10.59375 67.4375 15.578125 71.703125 
Q 20.5625 75.984375 31 75.984375 
z
" id="DejaVuSans-Bold-102"/>
    <path d="M 25.875 7.90625 
L 25.875 -20.796875 
L 8.40625 -20.796875 
L 8.40625 54.6875 
L 25.875 54.6875 
L 25.875 46.6875 
Q 29.5 51.46875 33.890625 53.734375 
Q 38.28125 56 44 56 
Q 54.109375 56 60.59375 47.96875 
Q 67.09375 39.9375 67.09375 27.296875 
Q 67.09375 14.65625 60.59375 6.609375 
Q 54.109375 -1.421875 44 -1.421875 
Q 38.28125 -1.421875 33.890625 0.84375 
Q 29.5 3.125 25.875 7.90625 
z
M 37.5 43.3125 
Q 31.890625 43.3125 28.875 39.1875 
Q 25.875 35.0625 25.875 27.296875 
Q 25.875 19.53125 28.875 15.40625 
Q 31.890625 11.28125 37.5 11.28125 
Q 43.109375 11.28125 46.0625 15.375 
Q 49.03125 19.484375 49.03125 27.296875 
Q 49.03125 35.109375 46.0625 39.203125 
Q 43.109375 43.3125 37.5 43.3125 
z
" id="DejaVuSans-Bold-112"/>
   </defs>
   <g transform="translate(43.754344 17.229937)scale(0.132 -0.132)">
    <use xlink:href="#DejaVuSans-Bold-83"/>
    <use x="72.021484" xlink:href="#DejaVuSans-Bold-105"/>
    <use x="106.298828" xlink:href="#DejaVuSans-Bold-109"/>
    <use x="210.498047" xlink:href="#DejaVuSans-Bold-105"/>
    <use x="244.775391" xlink:href="#DejaVuSans-Bold-108"/>
    <use x="279.052734" xlink:href="#DejaVuSans-Bold-97"/>
    <use x="346.533203" xlink:href="#DejaVuSans-Bold-114"/>
    <use x="395.849609" xlink:href="#DejaVuSans-Bold-105"/>
    <use x="430.126953" xlink:href="#DejaVuSans-Bold-116"/>
    <use x="477.929688" xlink:href="#DejaVuSans-Bold-121"/>
    <use x="543.115234" xlink:href="#DejaVuSans-Bold-32"/>
    <use x="577.929688" xlink:href="#DejaVuSans-Bold-97"/>
    <use x="645.410156" xlink:href="#DejaVuSans-Bold-99"/>
    <use x="704.6875" xlink:href="#DejaVuSans-Bold-114"/>
    <use x="754.003906" xlink:href="#DejaVuSans-Bold-111"/>
    <use x="822.705078" xlink:href="#DejaVuSans-Bold-115"/>
    <use x="882.226562" xlink:href="#DejaVuSans-Bold-115"/>
    <use x="941.748047" xlink:href="#DejaVuSans-Bold-32"/>
    <use x="976.5625" xlink:href="#DejaVuSans-Bold-118"/>
    <use x="1041.748047" xlink:href="#DejaVuSans-Bold-97"/>
    <use x="1109.228516" xlink:href="#DejaVuSans-Bold-114"/>
    <use x="1158.544922" xlink:href="#DejaVuSans-Bold-121"/>
    <use x="1223.730469" xlink:href="#DejaVuSans-Bold-105"/>
    <use x="1258.007812" xlink:href="#DejaVuSans-Bold-110"/>
    <use x="1329.199219" xlink:href="#DejaVuSans-Bold-103"/>
    <use x="1400.78125" xlink:href="#DejaVuSans-Bold-32"/>
    <use x="1435.595703" xlink:href="#DejaVuSans-Bold-110"/>
    <use x="1506.787109" xlink:href="#DejaVuSans-Bold-117"/>
    <use x="1577.978516" xlink:href="#DejaVuSans-Bold-109"/>
    <use x="1682.177734" xlink:href="#DejaVuSans-Bold-98"/>
    <use x="1753.759766" xlink:href="#DejaVuSans-Bold-101"/>
    <use x="1821.582031" xlink:href="#DejaVuSans-Bold-114"/>
    <use x="1870.898438" xlink:href="#DejaVuSans-Bold-115"/>
    <use x="1930.419922" xlink:href="#DejaVuSans-Bold-32"/>
    <use x="1965.234375" xlink:href="#DejaVuSans-Bold-111"/>
    <use x="2033.935547" xlink:href="#DejaVuSans-Bold-102"/>
    <use x="2077.441406" xlink:href="#DejaVuSans-Bold-32"/>
    <use x="2112.255859" xlink:href="#DejaVuSans-Bold-112"/>
    <use x="2183.837891" xlink:href="#DejaVuSans-Bold-97"/>
    <use x="2251.318359" xlink:href="#DejaVuSans-Bold-114"/>
    <use x="2300.634766" xlink:href="#DejaVuSans-Bold-116"/>
    <use x="2348.4375" xlink:href="#DejaVuSans-Bold-105"/>
    <use x="2382.714844" xlink:href="#DejaVuSans-Bold-116"/>
    <use x="2430.517578" xlink:href="#DejaVuSans-Bold-105"/>
    <use x="2464.794922" xlink:href="#DejaVuSans-Bold-111"/>
    <use x="2533.496094" xlink:href="#DejaVuSans-Bold-110"/>
    <use x="2604.6875" xlink:href="#DejaVuSans-Bold-115"/>
   </g>
  </g>
 </g>
 <defs>
  <clipPath id="p8d2883c16e">
   <rect height="266.112" width="357.12" x="46.789688" y="26.156933"/>
  </clipPath>
  <clipPath id="p28b6265933">
   <path d="M 423.309687 164.007902 
L 423.309687 148.167902 
L 439.149687 148.167902 
L 439.149687 164.007902 
"/>
  </clipPath>
  <clipPath id="pe13a132520">
   <path d="M 423.309687 181.847902 
L 423.309687 166.007902 
L 439.149687 166.007902 
L 439.149687 181.847902 
"/>
  </clipPath>
 </defs>
</svg>
