<?xml version="1.0" encoding="utf-8" standalone="no"?>
<!DOCTYPE svg PUBLIC "-//W3C//DTD SVG 1.1//EN"
  "http://www.w3.org/Graphics/SVG/1.1/DTD/svg11.dtd">
<!-- Created with matplotlib (https://matplotlib.org/) -->
<svg height="336.576313pt" version="1.1" viewBox="0 0 545.245312 336.576313" width="545.245312pt" xmlns="http://www.w3.org/2000/svg" xmlns:xlink="http://www.w3.org/1999/xlink">
 <defs>
  <style type="text/css">
*{stroke-linecap:butt;stroke-linejoin:round;}
  </style>
 </defs>
 <g id="figure_1">
  <g id="patch_1">
   <path d="M 0 336.576313 
L 545.245312 336.576313 
L 545.245312 0 
L 0 0 
z
" style="fill:#ffffff;stroke:#ffffff;stroke-linejoin:miter;"/>
  </g>
  <g id="axes_1">
   <g id="patch_2">
    <path d="M 57.785938 293.895376 
L 414.905938 293.895376 
L 414.905938 27.783376 
L 57.785938 27.783376 
z
" style="fill:#ffffff;"/>
   </g>
   <g id="matplotlib.axis_1">
    <g id="xtick_1">
     <g id="line2d_1">
      <path clip-path="url(#p5e363808c0)" d="M 73.531195 293.895376 
L 73.531195 27.783376 
" style="fill:none;stroke:#d3d3d3;"/>
     </g>
     <g id="line2d_2">
      <path d="M 73.531195 293.895376 
" style="fill:none;stroke:#333333;stroke-width:1.5;"/>
      <defs>
       <path d="M 0 0 
L 0 2.75 
" id="m7926787fa6" style="stroke:#333333;"/>
      </defs>
      <g>
       <use style="fill:#333333;stroke:#333333;" x="73.531195" xlink:href="#m7926787fa6" y="293.895376"/>
      </g>
     </g>
     <g id="text_1">
      <!-- 0 -->
      <defs>
       <path d="M 31.78125 66.40625 
Q 24.171875 66.40625 20.328125 58.90625 
Q 16.5 51.421875 16.5 36.375 
Q 16.5 21.390625 20.328125 13.890625 
Q 24.171875 6.390625 31.78125 6.390625 
Q 39.453125 6.390625 43.28125 13.890625 
Q 47.125 21.390625 47.125 36.375 
Q 47.125 51.421875 43.28125 58.90625 
Q 39.453125 66.40625 31.78125 66.40625 
z
M 31.78125 74.21875 
Q 44.046875 74.21875 50.515625 64.515625 
Q 56.984375 54.828125 56.984375 36.375 
Q 56.984375 17.96875 50.515625 8.265625 
Q 44.046875 -1.421875 31.78125 -1.421875 
Q 19.53125 -1.421875 13.0625 8.265625 
Q 6.59375 17.96875 6.59375 36.375 
Q 6.59375 54.828125 13.0625 64.515625 
Q 19.53125 74.21875 31.78125 74.21875 
z
" id="DejaVuSans-48"/>
      </defs>
      <g style="fill:#4d4d4d;" transform="translate(69.713695 307.963501)scale(0.12 -0.12)">
       <use xlink:href="#DejaVuSans-48"/>
      </g>
     </g>
    </g>
    <g id="xtick_2">
     <g id="line2d_3">
      <path clip-path="url(#p5e363808c0)" d="M 138.5271 293.895376 
L 138.5271 27.783376 
" style="fill:none;stroke:#d3d3d3;"/>
     </g>
     <g id="line2d_4">
      <path d="M 138.5271 293.895376 
" style="fill:none;stroke:#333333;stroke-width:1.5;"/>
      <g>
       <use style="fill:#333333;stroke:#333333;" x="138.5271" xlink:href="#m7926787fa6" y="293.895376"/>
      </g>
     </g>
     <g id="text_2">
      <!-- 100 -->
      <defs>
       <path d="M 12.40625 8.296875 
L 28.515625 8.296875 
L 28.515625 63.921875 
L 10.984375 60.40625 
L 10.984375 69.390625 
L 28.421875 72.90625 
L 38.28125 72.90625 
L 38.28125 8.296875 
L 54.390625 8.296875 
L 54.390625 0 
L 12.40625 0 
z
" id="DejaVuSans-49"/>
      </defs>
      <g style="fill:#4d4d4d;" transform="translate(127.0746 307.963501)scale(0.12 -0.12)">
       <use xlink:href="#DejaVuSans-49"/>
       <use x="63.623047" xlink:href="#DejaVuSans-48"/>
       <use x="127.246094" xlink:href="#DejaVuSans-48"/>
      </g>
     </g>
    </g>
    <g id="xtick_3">
     <g id="line2d_5">
      <path clip-path="url(#p5e363808c0)" d="M 203.523005 293.895376 
L 203.523005 27.783376 
" style="fill:none;stroke:#d3d3d3;"/>
     </g>
     <g id="line2d_6">
      <path d="M 203.523005 293.895376 
" style="fill:none;stroke:#333333;stroke-width:1.5;"/>
      <g>
       <use style="fill:#333333;stroke:#333333;" x="203.523005" xlink:href="#m7926787fa6" y="293.895376"/>
      </g>
     </g>
     <g id="text_3">
      <!-- 200 -->
      <defs>
       <path d="M 19.1875 8.296875 
L 53.609375 8.296875 
L 53.609375 0 
L 7.328125 0 
L 7.328125 8.296875 
Q 12.9375 14.109375 22.625 23.890625 
Q 32.328125 33.6875 34.8125 36.53125 
Q 39.546875 41.84375 41.421875 45.53125 
Q 43.3125 49.21875 43.3125 52.78125 
Q 43.3125 58.59375 39.234375 62.25 
Q 35.15625 65.921875 28.609375 65.921875 
Q 23.96875 65.921875 18.8125 64.3125 
Q 13.671875 62.703125 7.8125 59.421875 
L 7.8125 69.390625 
Q 13.765625 71.78125 18.9375 73 
Q 24.125 74.21875 28.421875 74.21875 
Q 39.75 74.21875 46.484375 68.546875 
Q 53.21875 62.890625 53.21875 53.421875 
Q 53.21875 48.921875 51.53125 44.890625 
Q 49.859375 40.875 45.40625 35.40625 
Q 44.1875 33.984375 37.640625 27.21875 
Q 31.109375 20.453125 19.1875 8.296875 
z
" id="DejaVuSans-50"/>
      </defs>
      <g style="fill:#4d4d4d;" transform="translate(192.070505 307.963501)scale(0.12 -0.12)">
       <use xlink:href="#DejaVuSans-50"/>
       <use x="63.623047" xlink:href="#DejaVuSans-48"/>
       <use x="127.246094" xlink:href="#DejaVuSans-48"/>
      </g>
     </g>
    </g>
    <g id="xtick_4">
     <g id="line2d_7">
      <path clip-path="url(#p5e363808c0)" d="M 268.51891 293.895376 
L 268.51891 27.783376 
" style="fill:none;stroke:#d3d3d3;"/>
     </g>
     <g id="line2d_8">
      <path d="M 268.51891 293.895376 
" style="fill:none;stroke:#333333;stroke-width:1.5;"/>
      <g>
       <use style="fill:#333333;stroke:#333333;" x="268.51891" xlink:href="#m7926787fa6" y="293.895376"/>
      </g>
     </g>
     <g id="text_4">
      <!-- 300 -->
      <defs>
       <path d="M 40.578125 39.3125 
Q 47.65625 37.796875 51.625 33 
Q 55.609375 28.21875 55.609375 21.1875 
Q 55.609375 10.40625 48.1875 4.484375 
Q 40.765625 -1.421875 27.09375 -1.421875 
Q 22.515625 -1.421875 17.65625 -0.515625 
Q 12.796875 0.390625 7.625 2.203125 
L 7.625 11.71875 
Q 11.71875 9.328125 16.59375 8.109375 
Q 21.484375 6.890625 26.8125 6.890625 
Q 36.078125 6.890625 40.9375 10.546875 
Q 45.796875 14.203125 45.796875 21.1875 
Q 45.796875 27.640625 41.28125 31.265625 
Q 36.765625 34.90625 28.71875 34.90625 
L 20.21875 34.90625 
L 20.21875 43.015625 
L 29.109375 43.015625 
Q 36.375 43.015625 40.234375 45.921875 
Q 44.09375 48.828125 44.09375 54.296875 
Q 44.09375 59.90625 40.109375 62.90625 
Q 36.140625 65.921875 28.71875 65.921875 
Q 24.65625 65.921875 20.015625 65.03125 
Q 15.375 64.15625 9.8125 62.3125 
L 9.8125 71.09375 
Q 15.4375 72.65625 20.34375 73.4375 
Q 25.25 74.21875 29.59375 74.21875 
Q 40.828125 74.21875 47.359375 69.109375 
Q 53.90625 64.015625 53.90625 55.328125 
Q 53.90625 49.265625 50.4375 45.09375 
Q 46.96875 40.921875 40.578125 39.3125 
z
" id="DejaVuSans-51"/>
      </defs>
      <g style="fill:#4d4d4d;" transform="translate(257.06641 307.963501)scale(0.12 -0.12)">
       <use xlink:href="#DejaVuSans-51"/>
       <use x="63.623047" xlink:href="#DejaVuSans-48"/>
       <use x="127.246094" xlink:href="#DejaVuSans-48"/>
      </g>
     </g>
    </g>
    <g id="xtick_5">
     <g id="line2d_9">
      <path clip-path="url(#p5e363808c0)" d="M 333.514815 293.895376 
L 333.514815 27.783376 
" style="fill:none;stroke:#d3d3d3;"/>
     </g>
     <g id="line2d_10">
      <path d="M 333.514815 293.895376 
" style="fill:none;stroke:#333333;stroke-width:1.5;"/>
      <g>
       <use style="fill:#333333;stroke:#333333;" x="333.514815" xlink:href="#m7926787fa6" y="293.895376"/>
      </g>
     </g>
     <g id="text_5">
      <!-- 400 -->
      <defs>
       <path d="M 37.796875 64.3125 
L 12.890625 25.390625 
L 37.796875 25.390625 
z
M 35.203125 72.90625 
L 47.609375 72.90625 
L 47.609375 25.390625 
L 58.015625 25.390625 
L 58.015625 17.1875 
L 47.609375 17.1875 
L 47.609375 0 
L 37.796875 0 
L 37.796875 17.1875 
L 4.890625 17.1875 
L 4.890625 26.703125 
z
" id="DejaVuSans-52"/>
      </defs>
      <g style="fill:#4d4d4d;" transform="translate(322.062315 307.963501)scale(0.12 -0.12)">
       <use xlink:href="#DejaVuSans-52"/>
       <use x="63.623047" xlink:href="#DejaVuSans-48"/>
       <use x="127.246094" xlink:href="#DejaVuSans-48"/>
      </g>
     </g>
    </g>
    <g id="xtick_6">
     <g id="line2d_11">
      <path clip-path="url(#p5e363808c0)" d="M 398.51072 293.895376 
L 398.51072 27.783376 
" style="fill:none;stroke:#d3d3d3;"/>
     </g>
     <g id="line2d_12">
      <path d="M 398.51072 293.895376 
" style="fill:none;stroke:#333333;stroke-width:1.5;"/>
      <g>
       <use style="fill:#333333;stroke:#333333;" x="398.51072" xlink:href="#m7926787fa6" y="293.895376"/>
      </g>
     </g>
     <g id="text_6">
      <!-- 500 -->
      <defs>
       <path d="M 10.796875 72.90625 
L 49.515625 72.90625 
L 49.515625 64.59375 
L 19.828125 64.59375 
L 19.828125 46.734375 
Q 21.96875 47.46875 24.109375 47.828125 
Q 26.265625 48.1875 28.421875 48.1875 
Q 40.625 48.1875 47.75 41.5 
Q 54.890625 34.8125 54.890625 23.390625 
Q 54.890625 11.625 47.5625 5.09375 
Q 40.234375 -1.421875 26.90625 -1.421875 
Q 22.3125 -1.421875 17.546875 -0.640625 
Q 12.796875 0.140625 7.71875 1.703125 
L 7.71875 11.625 
Q 12.109375 9.234375 16.796875 8.0625 
Q 21.484375 6.890625 26.703125 6.890625 
Q 35.15625 6.890625 40.078125 11.328125 
Q 45.015625 15.765625 45.015625 23.390625 
Q 45.015625 31 40.078125 35.4375 
Q 35.15625 39.890625 26.703125 39.890625 
Q 22.75 39.890625 18.8125 39.015625 
Q 14.890625 38.140625 10.796875 36.28125 
z
" id="DejaVuSans-53"/>
      </defs>
      <g style="fill:#4d4d4d;" transform="translate(387.05822 307.963501)scale(0.12 -0.12)">
       <use xlink:href="#DejaVuSans-53"/>
       <use x="63.623047" xlink:href="#DejaVuSans-48"/>
       <use x="127.246094" xlink:href="#DejaVuSans-48"/>
      </g>
     </g>
    </g>
    <g id="xtick_7">
     <g id="line2d_13">
      <path clip-path="url(#p5e363808c0)" d="M 106.029148 293.895376 
L 106.029148 27.783376 
" style="fill:none;stroke:#ffffff;stroke-width:0.5;"/>
     </g>
     <g id="line2d_14">
      <path d="M 106.029148 293.895376 
" style="fill:none;stroke:#333333;stroke-width:1.5;"/>
     </g>
    </g>
    <g id="xtick_8">
     <g id="line2d_15">
      <path clip-path="url(#p5e363808c0)" d="M 171.025053 293.895376 
L 171.025053 27.783376 
" style="fill:none;stroke:#ffffff;stroke-width:0.5;"/>
     </g>
     <g id="line2d_16">
      <path d="M 171.025053 293.895376 
" style="fill:none;stroke:#333333;stroke-width:1.5;"/>
     </g>
    </g>
    <g id="xtick_9">
     <g id="line2d_17">
      <path clip-path="url(#p5e363808c0)" d="M 236.020958 293.895376 
L 236.020958 27.783376 
" style="fill:none;stroke:#ffffff;stroke-width:0.5;"/>
     </g>
     <g id="line2d_18">
      <path d="M 236.020958 293.895376 
" style="fill:none;stroke:#333333;stroke-width:1.5;"/>
     </g>
    </g>
    <g id="xtick_10">
     <g id="line2d_19">
      <path clip-path="url(#p5e363808c0)" d="M 301.016863 293.895376 
L 301.016863 27.783376 
" style="fill:none;stroke:#ffffff;stroke-width:0.5;"/>
     </g>
     <g id="line2d_20">
      <path d="M 301.016863 293.895376 
" style="fill:none;stroke:#333333;stroke-width:1.5;"/>
     </g>
    </g>
    <g id="xtick_11">
     <g id="line2d_21">
      <path clip-path="url(#p5e363808c0)" d="M 366.012768 293.895376 
L 366.012768 27.783376 
" style="fill:none;stroke:#ffffff;stroke-width:0.5;"/>
     </g>
     <g id="line2d_22">
      <path d="M 366.012768 293.895376 
" style="fill:none;stroke:#333333;stroke-width:1.5;"/>
     </g>
    </g>
    <g id="text_7">
     <!-- Number of Partitions -->
     <defs>
      <path d="M 9.8125 72.90625 
L 23.09375 72.90625 
L 55.421875 11.921875 
L 55.421875 72.90625 
L 64.984375 72.90625 
L 64.984375 0 
L 51.703125 0 
L 19.390625 60.984375 
L 19.390625 0 
L 9.8125 0 
z
" id="DejaVuSans-78"/>
      <path d="M 8.5 21.578125 
L 8.5 54.6875 
L 17.484375 54.6875 
L 17.484375 21.921875 
Q 17.484375 14.15625 20.5 10.265625 
Q 23.53125 6.390625 29.59375 6.390625 
Q 36.859375 6.390625 41.078125 11.03125 
Q 45.3125 15.671875 45.3125 23.6875 
L 45.3125 54.6875 
L 54.296875 54.6875 
L 54.296875 0 
L 45.3125 0 
L 45.3125 8.40625 
Q 42.046875 3.421875 37.71875 1 
Q 33.40625 -1.421875 27.6875 -1.421875 
Q 18.265625 -1.421875 13.375 4.4375 
Q 8.5 10.296875 8.5 21.578125 
z
M 31.109375 56 
z
" id="DejaVuSans-117"/>
      <path d="M 52 44.1875 
Q 55.375 50.25 60.0625 53.125 
Q 64.75 56 71.09375 56 
Q 79.640625 56 84.28125 50.015625 
Q 88.921875 44.046875 88.921875 33.015625 
L 88.921875 0 
L 79.890625 0 
L 79.890625 32.71875 
Q 79.890625 40.578125 77.09375 44.375 
Q 74.3125 48.1875 68.609375 48.1875 
Q 61.625 48.1875 57.5625 43.546875 
Q 53.515625 38.921875 53.515625 30.90625 
L 53.515625 0 
L 44.484375 0 
L 44.484375 32.71875 
Q 44.484375 40.625 41.703125 44.40625 
Q 38.921875 48.1875 33.109375 48.1875 
Q 26.21875 48.1875 22.15625 43.53125 
Q 18.109375 38.875 18.109375 30.90625 
L 18.109375 0 
L 9.078125 0 
L 9.078125 54.6875 
L 18.109375 54.6875 
L 18.109375 46.1875 
Q 21.1875 51.21875 25.484375 53.609375 
Q 29.78125 56 35.6875 56 
Q 41.65625 56 45.828125 52.96875 
Q 50 49.953125 52 44.1875 
z
" id="DejaVuSans-109"/>
      <path d="M 48.6875 27.296875 
Q 48.6875 37.203125 44.609375 42.84375 
Q 40.53125 48.484375 33.40625 48.484375 
Q 26.265625 48.484375 22.1875 42.84375 
Q 18.109375 37.203125 18.109375 27.296875 
Q 18.109375 17.390625 22.1875 11.75 
Q 26.265625 6.109375 33.40625 6.109375 
Q 40.53125 6.109375 44.609375 11.75 
Q 48.6875 17.390625 48.6875 27.296875 
z
M 18.109375 46.390625 
Q 20.953125 51.265625 25.265625 53.625 
Q 29.59375 56 35.59375 56 
Q 45.5625 56 51.78125 48.09375 
Q 58.015625 40.1875 58.015625 27.296875 
Q 58.015625 14.40625 51.78125 6.484375 
Q 45.5625 -1.421875 35.59375 -1.421875 
Q 29.59375 -1.421875 25.265625 0.953125 
Q 20.953125 3.328125 18.109375 8.203125 
L 18.109375 0 
L 9.078125 0 
L 9.078125 75.984375 
L 18.109375 75.984375 
z
" id="DejaVuSans-98"/>
      <path d="M 56.203125 29.59375 
L 56.203125 25.203125 
L 14.890625 25.203125 
Q 15.484375 15.921875 20.484375 11.0625 
Q 25.484375 6.203125 34.421875 6.203125 
Q 39.59375 6.203125 44.453125 7.46875 
Q 49.3125 8.734375 54.109375 11.28125 
L 54.109375 2.78125 
Q 49.265625 0.734375 44.1875 -0.34375 
Q 39.109375 -1.421875 33.890625 -1.421875 
Q 20.796875 -1.421875 13.15625 6.1875 
Q 5.515625 13.8125 5.515625 26.8125 
Q 5.515625 40.234375 12.765625 48.109375 
Q 20.015625 56 32.328125 56 
Q 43.359375 56 49.78125 48.890625 
Q 56.203125 41.796875 56.203125 29.59375 
z
M 47.21875 32.234375 
Q 47.125 39.59375 43.09375 43.984375 
Q 39.0625 48.390625 32.421875 48.390625 
Q 24.90625 48.390625 20.390625 44.140625 
Q 15.875 39.890625 15.1875 32.171875 
z
" id="DejaVuSans-101"/>
      <path d="M 41.109375 46.296875 
Q 39.59375 47.171875 37.8125 47.578125 
Q 36.03125 48 33.890625 48 
Q 26.265625 48 22.1875 43.046875 
Q 18.109375 38.09375 18.109375 28.8125 
L 18.109375 0 
L 9.078125 0 
L 9.078125 54.6875 
L 18.109375 54.6875 
L 18.109375 46.1875 
Q 20.953125 51.171875 25.484375 53.578125 
Q 30.03125 56 36.53125 56 
Q 37.453125 56 38.578125 55.875 
Q 39.703125 55.765625 41.0625 55.515625 
z
" id="DejaVuSans-114"/>
      <path id="DejaVuSans-32"/>
      <path d="M 30.609375 48.390625 
Q 23.390625 48.390625 19.1875 42.75 
Q 14.984375 37.109375 14.984375 27.296875 
Q 14.984375 17.484375 19.15625 11.84375 
Q 23.34375 6.203125 30.609375 6.203125 
Q 37.796875 6.203125 41.984375 11.859375 
Q 46.1875 17.53125 46.1875 27.296875 
Q 46.1875 37.015625 41.984375 42.703125 
Q 37.796875 48.390625 30.609375 48.390625 
z
M 30.609375 56 
Q 42.328125 56 49.015625 48.375 
Q 55.71875 40.765625 55.71875 27.296875 
Q 55.71875 13.875 49.015625 6.21875 
Q 42.328125 -1.421875 30.609375 -1.421875 
Q 18.84375 -1.421875 12.171875 6.21875 
Q 5.515625 13.875 5.515625 27.296875 
Q 5.515625 40.765625 12.171875 48.375 
Q 18.84375 56 30.609375 56 
z
" id="DejaVuSans-111"/>
      <path d="M 37.109375 75.984375 
L 37.109375 68.5 
L 28.515625 68.5 
Q 23.6875 68.5 21.796875 66.546875 
Q 19.921875 64.59375 19.921875 59.515625 
L 19.921875 54.6875 
L 34.71875 54.6875 
L 34.71875 47.703125 
L 19.921875 47.703125 
L 19.921875 0 
L 10.890625 0 
L 10.890625 47.703125 
L 2.296875 47.703125 
L 2.296875 54.6875 
L 10.890625 54.6875 
L 10.890625 58.5 
Q 10.890625 67.625 15.140625 71.796875 
Q 19.390625 75.984375 28.609375 75.984375 
z
" id="DejaVuSans-102"/>
      <path d="M 19.671875 64.796875 
L 19.671875 37.40625 
L 32.078125 37.40625 
Q 38.96875 37.40625 42.71875 40.96875 
Q 46.484375 44.53125 46.484375 51.125 
Q 46.484375 57.671875 42.71875 61.234375 
Q 38.96875 64.796875 32.078125 64.796875 
z
M 9.8125 72.90625 
L 32.078125 72.90625 
Q 44.34375 72.90625 50.609375 67.359375 
Q 56.890625 61.8125 56.890625 51.125 
Q 56.890625 40.328125 50.609375 34.8125 
Q 44.34375 29.296875 32.078125 29.296875 
L 19.671875 29.296875 
L 19.671875 0 
L 9.8125 0 
z
" id="DejaVuSans-80"/>
      <path d="M 34.28125 27.484375 
Q 23.390625 27.484375 19.1875 25 
Q 14.984375 22.515625 14.984375 16.5 
Q 14.984375 11.71875 18.140625 8.90625 
Q 21.296875 6.109375 26.703125 6.109375 
Q 34.1875 6.109375 38.703125 11.40625 
Q 43.21875 16.703125 43.21875 25.484375 
L 43.21875 27.484375 
z
M 52.203125 31.203125 
L 52.203125 0 
L 43.21875 0 
L 43.21875 8.296875 
Q 40.140625 3.328125 35.546875 0.953125 
Q 30.953125 -1.421875 24.3125 -1.421875 
Q 15.921875 -1.421875 10.953125 3.296875 
Q 6 8.015625 6 15.921875 
Q 6 25.140625 12.171875 29.828125 
Q 18.359375 34.515625 30.609375 34.515625 
L 43.21875 34.515625 
L 43.21875 35.40625 
Q 43.21875 41.609375 39.140625 45 
Q 35.0625 48.390625 27.6875 48.390625 
Q 23 48.390625 18.546875 47.265625 
Q 14.109375 46.140625 10.015625 43.890625 
L 10.015625 52.203125 
Q 14.9375 54.109375 19.578125 55.046875 
Q 24.21875 56 28.609375 56 
Q 40.484375 56 46.34375 49.84375 
Q 52.203125 43.703125 52.203125 31.203125 
z
" id="DejaVuSans-97"/>
      <path d="M 18.3125 70.21875 
L 18.3125 54.6875 
L 36.8125 54.6875 
L 36.8125 47.703125 
L 18.3125 47.703125 
L 18.3125 18.015625 
Q 18.3125 11.328125 20.140625 9.421875 
Q 21.96875 7.515625 27.59375 7.515625 
L 36.8125 7.515625 
L 36.8125 0 
L 27.59375 0 
Q 17.1875 0 13.234375 3.875 
Q 9.28125 7.765625 9.28125 18.015625 
L 9.28125 47.703125 
L 2.6875 47.703125 
L 2.6875 54.6875 
L 9.28125 54.6875 
L 9.28125 70.21875 
z
" id="DejaVuSans-116"/>
      <path d="M 9.421875 54.6875 
L 18.40625 54.6875 
L 18.40625 0 
L 9.421875 0 
z
M 9.421875 75.984375 
L 18.40625 75.984375 
L 18.40625 64.59375 
L 9.421875 64.59375 
z
" id="DejaVuSans-105"/>
      <path d="M 54.890625 33.015625 
L 54.890625 0 
L 45.90625 0 
L 45.90625 32.71875 
Q 45.90625 40.484375 42.875 44.328125 
Q 39.84375 48.1875 33.796875 48.1875 
Q 26.515625 48.1875 22.3125 43.546875 
Q 18.109375 38.921875 18.109375 30.90625 
L 18.109375 0 
L 9.078125 0 
L 9.078125 54.6875 
L 18.109375 54.6875 
L 18.109375 46.1875 
Q 21.34375 51.125 25.703125 53.5625 
Q 30.078125 56 35.796875 56 
Q 45.21875 56 50.046875 50.171875 
Q 54.890625 44.34375 54.890625 33.015625 
z
" id="DejaVuSans-110"/>
      <path d="M 44.28125 53.078125 
L 44.28125 44.578125 
Q 40.484375 46.53125 36.375 47.5 
Q 32.28125 48.484375 27.875 48.484375 
Q 21.1875 48.484375 17.84375 46.4375 
Q 14.5 44.390625 14.5 40.28125 
Q 14.5 37.15625 16.890625 35.375 
Q 19.28125 33.59375 26.515625 31.984375 
L 29.59375 31.296875 
Q 39.15625 29.25 43.1875 25.515625 
Q 47.21875 21.78125 47.21875 15.09375 
Q 47.21875 7.46875 41.1875 3.015625 
Q 35.15625 -1.421875 24.609375 -1.421875 
Q 20.21875 -1.421875 15.453125 -0.5625 
Q 10.6875 0.296875 5.421875 2 
L 5.421875 11.28125 
Q 10.40625 8.6875 15.234375 7.390625 
Q 20.0625 6.109375 24.8125 6.109375 
Q 31.15625 6.109375 34.5625 8.28125 
Q 37.984375 10.453125 37.984375 14.40625 
Q 37.984375 18.0625 35.515625 20.015625 
Q 33.0625 21.96875 24.703125 23.78125 
L 21.578125 24.515625 
Q 13.234375 26.265625 9.515625 29.90625 
Q 5.8125 33.546875 5.8125 39.890625 
Q 5.8125 47.609375 11.28125 51.796875 
Q 16.75 56 26.8125 56 
Q 31.78125 56 36.171875 55.265625 
Q 40.578125 54.546875 44.28125 53.078125 
z
" id="DejaVuSans-115"/>
     </defs>
     <g transform="translate(152.966797 326.256782)scale(0.15 -0.15)">
      <use xlink:href="#DejaVuSans-78"/>
      <use x="74.804688" xlink:href="#DejaVuSans-117"/>
      <use x="138.183594" xlink:href="#DejaVuSans-109"/>
      <use x="235.595703" xlink:href="#DejaVuSans-98"/>
      <use x="299.072266" xlink:href="#DejaVuSans-101"/>
      <use x="360.595703" xlink:href="#DejaVuSans-114"/>
      <use x="401.708984" xlink:href="#DejaVuSans-32"/>
      <use x="433.496094" xlink:href="#DejaVuSans-111"/>
      <use x="494.677734" xlink:href="#DejaVuSans-102"/>
      <use x="529.882812" xlink:href="#DejaVuSans-32"/>
      <use x="561.669922" xlink:href="#DejaVuSans-80"/>
      <use x="621.910156" xlink:href="#DejaVuSans-97"/>
      <use x="683.189453" xlink:href="#DejaVuSans-114"/>
      <use x="724.302734" xlink:href="#DejaVuSans-116"/>
      <use x="763.511719" xlink:href="#DejaVuSans-105"/>
      <use x="791.294922" xlink:href="#DejaVuSans-116"/>
      <use x="830.503906" xlink:href="#DejaVuSans-105"/>
      <use x="858.287109" xlink:href="#DejaVuSans-111"/>
      <use x="919.46875" xlink:href="#DejaVuSans-110"/>
      <use x="982.847656" xlink:href="#DejaVuSans-115"/>
     </g>
    </g>
   </g>
   <g id="matplotlib.axis_2">
    <g id="ytick_1">
     <g id="line2d_23">
      <path clip-path="url(#p5e363808c0)" d="M 57.785938 244.211641 
L 414.905938 244.211641 
" style="fill:none;stroke:#d3d3d3;"/>
     </g>
     <g id="line2d_24">
      <path d="M 57.785938 244.211641 
" style="fill:none;stroke:#333333;stroke-width:1.5;"/>
      <defs>
       <path d="M 0 0 
L -2.75 0 
" id="m5dc2d2c940" style="stroke:#333333;"/>
      </defs>
      <g>
       <use style="fill:#333333;stroke:#333333;" x="57.785938" xlink:href="#m5dc2d2c940" y="244.211641"/>
      </g>
     </g>
     <g id="text_8">
      <!-- 0.25 -->
      <defs>
       <path d="M 10.6875 12.40625 
L 21 12.40625 
L 21 0 
L 10.6875 0 
z
" id="DejaVuSans-46"/>
      </defs>
      <g style="fill:#4d4d4d;" transform="translate(26.117188 247.522891)scale(0.12 -0.12)">
       <use xlink:href="#DejaVuSans-48"/>
       <use x="63.623047" xlink:href="#DejaVuSans-46"/>
       <use x="95.410156" xlink:href="#DejaVuSans-50"/>
       <use x="159.033203" xlink:href="#DejaVuSans-53"/>
      </g>
     </g>
    </g>
    <g id="ytick_2">
     <g id="line2d_25">
      <path clip-path="url(#p5e363808c0)" d="M 57.785938 176.100149 
L 414.905938 176.100149 
" style="fill:none;stroke:#d3d3d3;"/>
     </g>
     <g id="line2d_26">
      <path d="M 57.785938 176.100149 
" style="fill:none;stroke:#333333;stroke-width:1.5;"/>
      <g>
       <use style="fill:#333333;stroke:#333333;" x="57.785938" xlink:href="#m5dc2d2c940" y="176.100149"/>
      </g>
     </g>
     <g id="text_9">
      <!-- 0.50 -->
      <g style="fill:#4d4d4d;" transform="translate(26.117188 179.411399)scale(0.12 -0.12)">
       <use xlink:href="#DejaVuSans-48"/>
       <use x="63.623047" xlink:href="#DejaVuSans-46"/>
       <use x="95.410156" xlink:href="#DejaVuSans-53"/>
       <use x="159.033203" xlink:href="#DejaVuSans-48"/>
      </g>
     </g>
    </g>
    <g id="ytick_3">
     <g id="line2d_27">
      <path clip-path="url(#p5e363808c0)" d="M 57.785938 107.988657 
L 414.905938 107.988657 
" style="fill:none;stroke:#d3d3d3;"/>
     </g>
     <g id="line2d_28">
      <path d="M 57.785938 107.988657 
" style="fill:none;stroke:#333333;stroke-width:1.5;"/>
      <g>
       <use style="fill:#333333;stroke:#333333;" x="57.785938" xlink:href="#m5dc2d2c940" y="107.988657"/>
      </g>
     </g>
     <g id="text_10">
      <!-- 0.75 -->
      <defs>
       <path d="M 8.203125 72.90625 
L 55.078125 72.90625 
L 55.078125 68.703125 
L 28.609375 0 
L 18.3125 0 
L 43.21875 64.59375 
L 8.203125 64.59375 
z
" id="DejaVuSans-55"/>
      </defs>
      <g style="fill:#4d4d4d;" transform="translate(26.117188 111.299907)scale(0.12 -0.12)">
       <use xlink:href="#DejaVuSans-48"/>
       <use x="63.623047" xlink:href="#DejaVuSans-46"/>
       <use x="95.410156" xlink:href="#DejaVuSans-55"/>
       <use x="159.033203" xlink:href="#DejaVuSans-53"/>
      </g>
     </g>
    </g>
    <g id="ytick_4">
     <g id="line2d_29">
      <path clip-path="url(#p5e363808c0)" d="M 57.785938 39.877165 
L 414.905938 39.877165 
" style="fill:none;stroke:#d3d3d3;"/>
     </g>
     <g id="line2d_30">
      <path d="M 57.785938 39.877165 
" style="fill:none;stroke:#333333;stroke-width:1.5;"/>
      <g>
       <use style="fill:#333333;stroke:#333333;" x="57.785938" xlink:href="#m5dc2d2c940" y="39.877165"/>
      </g>
     </g>
     <g id="text_11">
      <!-- 1 -->
      <g style="fill:#4d4d4d;" transform="translate(45.200938 43.188415)scale(0.12 -0.12)">
       <use xlink:href="#DejaVuSans-49"/>
      </g>
     </g>
    </g>
    <g id="ytick_5">
     <g id="line2d_31">
      <path clip-path="url(#p5e363808c0)" d="M 57.785938 278.267387 
L 414.905938 278.267387 
" style="fill:none;stroke:#ffffff;stroke-width:0.5;"/>
     </g>
     <g id="line2d_32">
      <path d="M 57.785938 278.267387 
" style="fill:none;stroke:#333333;stroke-width:1.5;"/>
     </g>
    </g>
    <g id="ytick_6">
     <g id="line2d_33">
      <path clip-path="url(#p5e363808c0)" d="M 57.785938 210.155895 
L 414.905938 210.155895 
" style="fill:none;stroke:#ffffff;stroke-width:0.5;"/>
     </g>
     <g id="line2d_34">
      <path d="M 57.785938 210.155895 
" style="fill:none;stroke:#333333;stroke-width:1.5;"/>
     </g>
    </g>
    <g id="ytick_7">
     <g id="line2d_35">
      <path clip-path="url(#p5e363808c0)" d="M 57.785938 142.044403 
L 414.905938 142.044403 
" style="fill:none;stroke:#ffffff;stroke-width:0.5;"/>
     </g>
     <g id="line2d_36">
      <path d="M 57.785938 142.044403 
" style="fill:none;stroke:#333333;stroke-width:1.5;"/>
     </g>
    </g>
    <g id="ytick_8">
     <g id="line2d_37">
      <path clip-path="url(#p5e363808c0)" d="M 57.785938 73.932911 
L 414.905938 73.932911 
" style="fill:none;stroke:#ffffff;stroke-width:0.5;"/>
     </g>
     <g id="line2d_38">
      <path d="M 57.785938 73.932911 
" style="fill:none;stroke:#333333;stroke-width:1.5;"/>
     </g>
    </g>
    <g id="text_12">
     <!-- Similarity score (SVCCA) -->
     <defs>
      <path d="M 53.515625 70.515625 
L 53.515625 60.890625 
Q 47.90625 63.578125 42.921875 64.890625 
Q 37.9375 66.21875 33.296875 66.21875 
Q 25.25 66.21875 20.875 63.09375 
Q 16.5 59.96875 16.5 54.203125 
Q 16.5 49.359375 19.40625 46.890625 
Q 22.3125 44.4375 30.421875 42.921875 
L 36.375 41.703125 
Q 47.40625 39.59375 52.65625 34.296875 
Q 57.90625 29 57.90625 20.125 
Q 57.90625 9.515625 50.796875 4.046875 
Q 43.703125 -1.421875 29.984375 -1.421875 
Q 24.8125 -1.421875 18.96875 -0.25 
Q 13.140625 0.921875 6.890625 3.21875 
L 6.890625 13.375 
Q 12.890625 10.015625 18.65625 8.296875 
Q 24.421875 6.59375 29.984375 6.59375 
Q 38.421875 6.59375 43.015625 9.90625 
Q 47.609375 13.234375 47.609375 19.390625 
Q 47.609375 24.75 44.3125 27.78125 
Q 41.015625 30.8125 33.5 32.328125 
L 27.484375 33.5 
Q 16.453125 35.6875 11.515625 40.375 
Q 6.59375 45.0625 6.59375 53.421875 
Q 6.59375 63.09375 13.40625 68.65625 
Q 20.21875 74.21875 32.171875 74.21875 
Q 37.3125 74.21875 42.625 73.28125 
Q 47.953125 72.359375 53.515625 70.515625 
z
" id="DejaVuSans-83"/>
      <path d="M 9.421875 75.984375 
L 18.40625 75.984375 
L 18.40625 0 
L 9.421875 0 
z
" id="DejaVuSans-108"/>
      <path d="M 32.171875 -5.078125 
Q 28.375 -14.84375 24.75 -17.8125 
Q 21.140625 -20.796875 15.09375 -20.796875 
L 7.90625 -20.796875 
L 7.90625 -13.28125 
L 13.1875 -13.28125 
Q 16.890625 -13.28125 18.9375 -11.515625 
Q 21 -9.765625 23.484375 -3.21875 
L 25.09375 0.875 
L 2.984375 54.6875 
L 12.5 54.6875 
L 29.59375 11.921875 
L 46.6875 54.6875 
L 56.203125 54.6875 
z
" id="DejaVuSans-121"/>
      <path d="M 48.78125 52.59375 
L 48.78125 44.1875 
Q 44.96875 46.296875 41.140625 47.34375 
Q 37.3125 48.390625 33.40625 48.390625 
Q 24.65625 48.390625 19.8125 42.84375 
Q 14.984375 37.3125 14.984375 27.296875 
Q 14.984375 17.28125 19.8125 11.734375 
Q 24.65625 6.203125 33.40625 6.203125 
Q 37.3125 6.203125 41.140625 7.25 
Q 44.96875 8.296875 48.78125 10.40625 
L 48.78125 2.09375 
Q 45.015625 0.34375 40.984375 -0.53125 
Q 36.96875 -1.421875 32.421875 -1.421875 
Q 20.0625 -1.421875 12.78125 6.34375 
Q 5.515625 14.109375 5.515625 27.296875 
Q 5.515625 40.671875 12.859375 48.328125 
Q 20.21875 56 33.015625 56 
Q 37.15625 56 41.109375 55.140625 
Q 45.0625 54.296875 48.78125 52.59375 
z
" id="DejaVuSans-99"/>
      <path d="M 31 75.875 
Q 24.46875 64.65625 21.28125 53.65625 
Q 18.109375 42.671875 18.109375 31.390625 
Q 18.109375 20.125 21.3125 9.0625 
Q 24.515625 -2 31 -13.1875 
L 23.1875 -13.1875 
Q 15.875 -1.703125 12.234375 9.375 
Q 8.59375 20.453125 8.59375 31.390625 
Q 8.59375 42.28125 12.203125 53.3125 
Q 15.828125 64.359375 23.1875 75.875 
z
" id="DejaVuSans-40"/>
      <path d="M 28.609375 0 
L 0.78125 72.90625 
L 11.078125 72.90625 
L 34.1875 11.53125 
L 57.328125 72.90625 
L 67.578125 72.90625 
L 39.796875 0 
z
" id="DejaVuSans-86"/>
      <path d="M 64.40625 67.28125 
L 64.40625 56.890625 
Q 59.421875 61.53125 53.78125 63.8125 
Q 48.140625 66.109375 41.796875 66.109375 
Q 29.296875 66.109375 22.65625 58.46875 
Q 16.015625 50.828125 16.015625 36.375 
Q 16.015625 21.96875 22.65625 14.328125 
Q 29.296875 6.6875 41.796875 6.6875 
Q 48.140625 6.6875 53.78125 8.984375 
Q 59.421875 11.28125 64.40625 15.921875 
L 64.40625 5.609375 
Q 59.234375 2.09375 53.4375 0.328125 
Q 47.65625 -1.421875 41.21875 -1.421875 
Q 24.65625 -1.421875 15.125 8.703125 
Q 5.609375 18.84375 5.609375 36.375 
Q 5.609375 53.953125 15.125 64.078125 
Q 24.65625 74.21875 41.21875 74.21875 
Q 47.75 74.21875 53.53125 72.484375 
Q 59.328125 70.75 64.40625 67.28125 
z
" id="DejaVuSans-67"/>
      <path d="M 34.1875 63.1875 
L 20.796875 26.90625 
L 47.609375 26.90625 
z
M 28.609375 72.90625 
L 39.796875 72.90625 
L 67.578125 0 
L 57.328125 0 
L 50.6875 18.703125 
L 17.828125 18.703125 
L 11.1875 0 
L 0.78125 0 
z
" id="DejaVuSans-65"/>
      <path d="M 8.015625 75.875 
L 15.828125 75.875 
Q 23.140625 64.359375 26.78125 53.3125 
Q 30.421875 42.28125 30.421875 31.390625 
Q 30.421875 20.453125 26.78125 9.375 
Q 23.140625 -1.703125 15.828125 -13.1875 
L 8.015625 -13.1875 
Q 14.5 -2 17.703125 9.0625 
Q 20.90625 20.125 20.90625 31.390625 
Q 20.90625 42.671875 17.703125 53.65625 
Q 14.5 64.65625 8.015625 75.875 
z
" id="DejaVuSans-41"/>
     </defs>
     <g transform="translate(18.597656 251.002782)rotate(-90)scale(0.15 -0.15)">
      <use xlink:href="#DejaVuSans-83"/>
      <use x="63.476562" xlink:href="#DejaVuSans-105"/>
      <use x="91.259766" xlink:href="#DejaVuSans-109"/>
      <use x="188.671875" xlink:href="#DejaVuSans-105"/>
      <use x="216.455078" xlink:href="#DejaVuSans-108"/>
      <use x="244.238281" xlink:href="#DejaVuSans-97"/>
      <use x="305.517578" xlink:href="#DejaVuSans-114"/>
      <use x="346.630859" xlink:href="#DejaVuSans-105"/>
      <use x="374.414062" xlink:href="#DejaVuSans-116"/>
      <use x="413.623047" xlink:href="#DejaVuSans-121"/>
      <use x="472.802734" xlink:href="#DejaVuSans-32"/>
      <use x="504.589844" xlink:href="#DejaVuSans-115"/>
      <use x="556.689453" xlink:href="#DejaVuSans-99"/>
      <use x="611.669922" xlink:href="#DejaVuSans-111"/>
      <use x="672.851562" xlink:href="#DejaVuSans-114"/>
      <use x="713.933594" xlink:href="#DejaVuSans-101"/>
      <use x="775.457031" xlink:href="#DejaVuSans-32"/>
      <use x="807.244141" xlink:href="#DejaVuSans-40"/>
      <use x="846.257812" xlink:href="#DejaVuSans-83"/>
      <use x="909.734375" xlink:href="#DejaVuSans-86"/>
      <use x="978.142578" xlink:href="#DejaVuSans-67"/>
      <use x="1047.966797" xlink:href="#DejaVuSans-67"/>
      <use x="1117.791016" xlink:href="#DejaVuSans-65"/>
      <use x="1186.199219" xlink:href="#DejaVuSans-41"/>
     </g>
    </g>
   </g>
   <g id="line2d_39">
    <path clip-path="url(#p5e363808c0)" d="M 74.181155 39.879521 
L 74.831114 40.241487 
L 76.780991 41.061661 
L 80.030786 42.62074 
L 86.530376 45.006572 
L 106.029148 54.579263 
L 138.5271 70.095587 
L 236.020958 121.72339 
L 398.51072 280.413933 
" style="fill:none;stroke:#1976d2;stroke-width:2.658681;"/>
   </g>
   <g id="line2d_40">
    <path clip-path="url(#p5e363808c0)" d="M 74.181155 39.879526 
L 74.831114 66.727325 
L 76.780991 139.972983 
L 80.030786 256.75035 
L 86.530376 279.918881 
L 106.029148 275.430049 
L 138.5271 262.01485 
L 236.020958 209.153476 
L 398.51072 134.320986 
" style="fill:none;stroke:#b3e5fc;stroke-width:2.658681;"/>
   </g>
   <g id="PathCollection_1">
    <path clip-path="url(#p5e363808c0)" d="M 74.181155 40.765753 
C 74.416185 40.765753 74.64162 40.672375 74.807812 40.506183 
C 74.974003 40.339992 75.067381 40.114556 75.067381 39.879526 
C 75.067381 39.644496 74.974003 39.419061 74.807812 39.252869 
C 74.64162 39.086678 74.416185 38.993299 74.181155 38.993299 
C 73.946124 38.993299 73.720689 39.086678 73.554497 39.252869 
C 73.388306 39.419061 73.294928 39.644496 73.294928 39.879526 
C 73.294928 40.114556 73.388306 40.339992 73.554497 40.506183 
C 73.720689 40.672375 73.946124 40.765753 74.181155 40.765753 
z
" style="fill:#a9a9a9;stroke:#a9a9a9;stroke-width:0.886227;"/>
    <path clip-path="url(#p5e363808c0)" d="M 74.831114 67.613552 
C 75.066144 67.613552 75.291579 67.520174 75.457771 67.353983 
C 75.623962 67.187791 75.717341 66.962356 75.717341 66.727325 
C 75.717341 66.492295 75.623962 66.26686 75.457771 66.100668 
C 75.291579 65.934477 75.066144 65.841099 74.831114 65.841099 
C 74.596083 65.841099 74.370648 65.934477 74.204457 66.100668 
C 74.038265 66.26686 73.944887 66.492295 73.944887 66.727325 
C 73.944887 66.962356 74.038265 67.187791 74.204457 67.353983 
C 74.370648 67.520174 74.596083 67.613552 74.831114 67.613552 
z
" style="fill:#a9a9a9;stroke:#a9a9a9;stroke-width:0.886227;"/>
    <path clip-path="url(#p5e363808c0)" d="M 76.780991 140.85921 
C 77.016021 140.85921 77.241456 140.765832 77.407648 140.59964 
C 77.573839 140.433449 77.667218 140.208013 77.667218 139.972983 
C 77.667218 139.737953 77.573839 139.512517 77.407648 139.346326 
C 77.241456 139.180135 77.016021 139.086756 76.780991 139.086756 
C 76.545961 139.086756 76.320525 139.180135 76.154334 139.346326 
C 75.988142 139.512517 75.894764 139.737953 75.894764 139.972983 
C 75.894764 140.208013 75.988142 140.433449 76.154334 140.59964 
C 76.320525 140.765832 76.545961 140.85921 76.780991 140.85921 
z
" style="fill:#a9a9a9;stroke:#a9a9a9;stroke-width:0.886227;"/>
    <path clip-path="url(#p5e363808c0)" d="M 80.030786 257.636577 
C 80.265816 257.636577 80.491252 257.543199 80.657443 257.377008 
C 80.823634 257.210816 80.917013 256.985381 80.917013 256.75035 
C 80.917013 256.51532 80.823634 256.289885 80.657443 256.123693 
C 80.491252 255.957502 80.265816 255.864124 80.030786 255.864124 
C 79.795756 255.864124 79.57032 255.957502 79.404129 256.123693 
C 79.237938 256.289885 79.144559 256.51532 79.144559 256.75035 
C 79.144559 256.985381 79.237938 257.210816 79.404129 257.377008 
C 79.57032 257.543199 79.795756 257.636577 80.030786 257.636577 
z
" style="fill:#a9a9a9;stroke:#a9a9a9;stroke-width:0.886227;"/>
    <path clip-path="url(#p5e363808c0)" d="M 86.530376 280.805108 
C 86.765407 280.805108 86.990842 280.711729 87.157034 280.545538 
C 87.323225 280.379346 87.416603 280.153911 87.416603 279.918881 
C 87.416603 279.683851 87.323225 279.458415 87.157034 279.292224 
C 86.990842 279.126032 86.765407 279.032654 86.530376 279.032654 
C 86.295346 279.032654 86.069911 279.126032 85.903719 279.292224 
C 85.737528 279.458415 85.64415 279.683851 85.64415 279.918881 
C 85.64415 280.153911 85.737528 280.379346 85.903719 280.545538 
C 86.069911 280.711729 86.295346 280.805108 86.530376 280.805108 
z
" style="fill:#a9a9a9;stroke:#a9a9a9;stroke-width:0.886227;"/>
    <path clip-path="url(#p5e363808c0)" d="M 106.029148 276.316276 
C 106.264178 276.316276 106.489614 276.222898 106.655805 276.056706 
C 106.821996 275.890515 106.915375 275.665079 106.915375 275.430049 
C 106.915375 275.195019 106.821996 274.969583 106.655805 274.803392 
C 106.489614 274.637201 106.264178 274.543822 106.029148 274.543822 
C 105.794118 274.543822 105.568682 274.637201 105.402491 274.803392 
C 105.2363 274.969583 105.142921 275.195019 105.142921 275.430049 
C 105.142921 275.665079 105.2363 275.890515 105.402491 276.056706 
C 105.568682 276.222898 105.794118 276.316276 106.029148 276.316276 
z
" style="fill:#a9a9a9;stroke:#a9a9a9;stroke-width:0.886227;"/>
    <path clip-path="url(#p5e363808c0)" d="M 138.5271 262.901077 
C 138.762131 262.901077 138.987566 262.807699 139.153758 262.641507 
C 139.319949 262.475316 139.413327 262.249881 139.413327 262.01485 
C 139.413327 261.77982 139.319949 261.554385 139.153758 261.388193 
C 138.987566 261.222002 138.762131 261.128623 138.5271 261.128623 
C 138.29207 261.128623 138.066635 261.222002 137.900443 261.388193 
C 137.734252 261.554385 137.640874 261.77982 137.640874 262.01485 
C 137.640874 262.249881 137.734252 262.475316 137.900443 262.641507 
C 138.066635 262.807699 138.29207 262.901077 138.5271 262.901077 
z
" style="fill:#a9a9a9;stroke:#a9a9a9;stroke-width:0.886227;"/>
    <path clip-path="url(#p5e363808c0)" d="M 236.020958 210.039703 
C 236.255988 210.039703 236.481424 209.946325 236.647615 209.780133 
C 236.813806 209.613942 236.907185 209.388506 236.907185 209.153476 
C 236.907185 208.918446 236.813806 208.69301 236.647615 208.526819 
C 236.481424 208.360628 236.255988 208.267249 236.020958 208.267249 
C 235.785928 208.267249 235.560492 208.360628 235.394301 208.526819 
C 235.22811 208.69301 235.134731 208.918446 235.134731 209.153476 
C 235.134731 209.388506 235.22811 209.613942 235.394301 209.780133 
C 235.560492 209.946325 235.785928 210.039703 236.020958 210.039703 
z
" style="fill:#a9a9a9;stroke:#a9a9a9;stroke-width:0.886227;"/>
    <path clip-path="url(#p5e363808c0)" d="M 398.51072 135.207213 
C 398.745751 135.207213 398.971186 135.113834 399.137378 134.947643 
C 399.303569 134.781451 399.396947 134.556016 399.396947 134.320986 
C 399.396947 134.085956 399.303569 133.86052 399.137378 133.694329 
C 398.971186 133.528137 398.745751 133.434759 398.51072 133.434759 
C 398.27569 133.434759 398.050255 133.528137 397.884063 133.694329 
C 397.717872 133.86052 397.624494 134.085956 397.624494 134.320986 
C 397.624494 134.556016 397.717872 134.781451 397.884063 134.947643 
C 398.050255 135.113834 398.27569 135.207213 398.51072 135.207213 
z
" style="fill:#a9a9a9;stroke:#a9a9a9;stroke-width:0.886227;"/>
    <path clip-path="url(#p5e363808c0)" d="M 74.181155 40.765748 
C 74.416185 40.765748 74.64162 40.672369 74.807812 40.506178 
C 74.974003 40.339986 75.067381 40.114551 75.067381 39.879521 
C 75.067381 39.644491 74.974003 39.419055 74.807812 39.252864 
C 74.64162 39.086672 74.416185 38.993294 74.181155 38.993294 
C 73.946124 38.993294 73.720689 39.086672 73.554497 39.252864 
C 73.388306 39.419055 73.294928 39.644491 73.294928 39.879521 
C 73.294928 40.114551 73.388306 40.339986 73.554497 40.506178 
C 73.720689 40.672369 73.946124 40.765748 74.181155 40.765748 
z
" style="fill:#a9a9a9;stroke:#a9a9a9;stroke-width:0.886227;"/>
    <path clip-path="url(#p5e363808c0)" d="M 74.831114 41.127714 
C 75.066144 41.127714 75.291579 41.034335 75.457771 40.868144 
C 75.623962 40.701953 75.717341 40.476517 75.717341 40.241487 
C 75.717341 40.006457 75.623962 39.781021 75.457771 39.61483 
C 75.291579 39.448638 75.066144 39.35526 74.831114 39.35526 
C 74.596083 39.35526 74.370648 39.448638 74.204457 39.61483 
C 74.038265 39.781021 73.944887 40.006457 73.944887 40.241487 
C 73.944887 40.476517 74.038265 40.701953 74.204457 40.868144 
C 74.370648 41.034335 74.596083 41.127714 74.831114 41.127714 
z
" style="fill:#a9a9a9;stroke:#a9a9a9;stroke-width:0.886227;"/>
    <path clip-path="url(#p5e363808c0)" d="M 76.780991 41.947888 
C 77.016021 41.947888 77.241456 41.85451 77.407648 41.688318 
C 77.573839 41.522127 77.667218 41.296691 77.667218 41.061661 
C 77.667218 40.826631 77.573839 40.601195 77.407648 40.435004 
C 77.241456 40.268813 77.016021 40.175434 76.780991 40.175434 
C 76.545961 40.175434 76.320525 40.268813 76.154334 40.435004 
C 75.988142 40.601195 75.894764 40.826631 75.894764 41.061661 
C 75.894764 41.296691 75.988142 41.522127 76.154334 41.688318 
C 76.320525 41.85451 76.545961 41.947888 76.780991 41.947888 
z
" style="fill:#a9a9a9;stroke:#a9a9a9;stroke-width:0.886227;"/>
    <path clip-path="url(#p5e363808c0)" d="M 80.030786 43.506967 
C 80.265816 43.506967 80.491252 43.413589 80.657443 43.247397 
C 80.823634 43.081206 80.917013 42.85577 80.917013 42.62074 
C 80.917013 42.38571 80.823634 42.160275 80.657443 41.994083 
C 80.491252 41.827892 80.265816 41.734513 80.030786 41.734513 
C 79.795756 41.734513 79.57032 41.827892 79.404129 41.994083 
C 79.237938 42.160275 79.144559 42.38571 79.144559 42.62074 
C 79.144559 42.85577 79.237938 43.081206 79.404129 43.247397 
C 79.57032 43.413589 79.795756 43.506967 80.030786 43.506967 
z
" style="fill:#a9a9a9;stroke:#a9a9a9;stroke-width:0.886227;"/>
    <path clip-path="url(#p5e363808c0)" d="M 86.530376 45.892799 
C 86.765407 45.892799 86.990842 45.79942 87.157034 45.633229 
C 87.323225 45.467037 87.416603 45.241602 87.416603 45.006572 
C 87.416603 44.771542 87.323225 44.546106 87.157034 44.379915 
C 86.990842 44.213723 86.765407 44.120345 86.530376 44.120345 
C 86.295346 44.120345 86.069911 44.213723 85.903719 44.379915 
C 85.737528 44.546106 85.64415 44.771542 85.64415 45.006572 
C 85.64415 45.241602 85.737528 45.467037 85.903719 45.633229 
C 86.069911 45.79942 86.295346 45.892799 86.530376 45.892799 
z
" style="fill:#a9a9a9;stroke:#a9a9a9;stroke-width:0.886227;"/>
    <path clip-path="url(#p5e363808c0)" d="M 106.029148 55.46549 
C 106.264178 55.46549 106.489614 55.372112 106.655805 55.20592 
C 106.821996 55.039729 106.915375 54.814294 106.915375 54.579263 
C 106.915375 54.344233 106.821996 54.118798 106.655805 53.952606 
C 106.489614 53.786415 106.264178 53.693036 106.029148 53.693036 
C 105.794118 53.693036 105.568682 53.786415 105.402491 53.952606 
C 105.2363 54.118798 105.142921 54.344233 105.142921 54.579263 
C 105.142921 54.814294 105.2363 55.039729 105.402491 55.20592 
C 105.568682 55.372112 105.794118 55.46549 106.029148 55.46549 
z
" style="fill:#a9a9a9;stroke:#a9a9a9;stroke-width:0.886227;"/>
    <path clip-path="url(#p5e363808c0)" d="M 138.5271 70.981814 
C 138.762131 70.981814 138.987566 70.888435 139.153758 70.722244 
C 139.319949 70.556052 139.413327 70.330617 139.413327 70.095587 
C 139.413327 69.860557 139.319949 69.635121 139.153758 69.46893 
C 138.987566 69.302738 138.762131 69.20936 138.5271 69.20936 
C 138.29207 69.20936 138.066635 69.302738 137.900443 69.46893 
C 137.734252 69.635121 137.640874 69.860557 137.640874 70.095587 
C 137.640874 70.330617 137.734252 70.556052 137.900443 70.722244 
C 138.066635 70.888435 138.29207 70.981814 138.5271 70.981814 
z
" style="fill:#a9a9a9;stroke:#a9a9a9;stroke-width:0.886227;"/>
    <path clip-path="url(#p5e363808c0)" d="M 236.020958 122.609617 
C 236.255988 122.609617 236.481424 122.516238 236.647615 122.350047 
C 236.813806 122.183856 236.907185 121.95842 236.907185 121.72339 
C 236.907185 121.48836 236.813806 121.262924 236.647615 121.096733 
C 236.481424 120.930542 236.255988 120.837163 236.020958 120.837163 
C 235.785928 120.837163 235.560492 120.930542 235.394301 121.096733 
C 235.22811 121.262924 235.134731 121.48836 235.134731 121.72339 
C 235.134731 121.95842 235.22811 122.183856 235.394301 122.350047 
C 235.560492 122.516238 235.785928 122.609617 236.020958 122.609617 
z
" style="fill:#a9a9a9;stroke:#a9a9a9;stroke-width:0.886227;"/>
    <path clip-path="url(#p5e363808c0)" d="M 398.51072 281.30016 
C 398.745751 281.30016 398.971186 281.206782 399.137378 281.04059 
C 399.303569 280.874399 399.396947 280.648963 399.396947 280.413933 
C 399.396947 280.178903 399.303569 279.953468 399.137378 279.787276 
C 398.971186 279.621085 398.745751 279.527706 398.51072 279.527706 
C 398.27569 279.527706 398.050255 279.621085 397.884063 279.787276 
C 397.717872 279.953468 397.624494 280.178903 397.624494 280.413933 
C 397.624494 280.648963 397.717872 280.874399 397.884063 281.04059 
C 398.050255 281.206782 398.27569 281.30016 398.51072 281.30016 
z
" style="fill:#a9a9a9;stroke:#a9a9a9;stroke-width:0.886227;"/>
   </g>
   <g id="patch_3">
    <path d="M 57.785938 293.895376 
L 57.785938 27.783376 
" style="fill:none;stroke:#808080;stroke-linecap:square;stroke-linejoin:miter;"/>
   </g>
   <g id="patch_4">
    <path d="M 57.785938 293.895376 
L 414.905938 293.895376 
" style="fill:none;stroke:#808080;stroke-linecap:square;stroke-linejoin:miter;"/>
   </g>
   <g id="LineCollection_1">
    <path clip-path="url(#p5e363808c0)" d="M 74.018665 39.879677 
L 74.343644 39.879677 
" style="fill:none;stroke:#a9a9a9;stroke-width:0.886227;"/>
    <path clip-path="url(#p5e363808c0)" d="M 74.668624 66.811561 
L 74.993603 66.811561 
" style="fill:none;stroke:#a9a9a9;stroke-width:0.886227;"/>
    <path clip-path="url(#p5e363808c0)" d="M 76.618501 141.192779 
L 76.94348 141.192779 
" style="fill:none;stroke:#a9a9a9;stroke-width:0.886227;"/>
    <path clip-path="url(#p5e363808c0)" d="M 79.868296 257.325809 
L 80.193276 257.325809 
" style="fill:none;stroke:#a9a9a9;stroke-width:0.886227;"/>
    <path clip-path="url(#p5e363808c0)" d="M 86.367887 281.008448 
L 86.692866 281.008448 
" style="fill:none;stroke:#a9a9a9;stroke-width:0.886227;"/>
    <path clip-path="url(#p5e363808c0)" d="M 105.866658 277.820121 
L 106.191638 277.820121 
" style="fill:none;stroke:#a9a9a9;stroke-width:0.886227;"/>
    <path clip-path="url(#p5e363808c0)" d="M 138.364611 263.558604 
L 138.68959 263.558604 
" style="fill:none;stroke:#a9a9a9;stroke-width:0.886227;"/>
    <path clip-path="url(#p5e363808c0)" d="M 235.858468 210.203064 
L 236.183448 210.203064 
" style="fill:none;stroke:#a9a9a9;stroke-width:0.886227;"/>
    <path clip-path="url(#p5e363808c0)" d="M 398.348231 137.430898 
L 398.67321 137.430898 
" style="fill:none;stroke:#a9a9a9;stroke-width:0.886227;"/>
    <path clip-path="url(#p5e363808c0)" d="M 74.018665 39.879662 
L 74.343644 39.879662 
" style="fill:none;stroke:#a9a9a9;stroke-width:0.886227;"/>
    <path clip-path="url(#p5e363808c0)" d="M 74.668624 40.429421 
L 74.993603 40.429421 
" style="fill:none;stroke:#a9a9a9;stroke-width:0.886227;"/>
    <path clip-path="url(#p5e363808c0)" d="M 76.618501 41.198753 
L 76.94348 41.198753 
" style="fill:none;stroke:#a9a9a9;stroke-width:0.886227;"/>
    <path clip-path="url(#p5e363808c0)" d="M 79.868296 42.794599 
L 80.193276 42.794599 
" style="fill:none;stroke:#a9a9a9;stroke-width:0.886227;"/>
    <path clip-path="url(#p5e363808c0)" d="M 86.367887 45.277657 
L 86.692866 45.277657 
" style="fill:none;stroke:#a9a9a9;stroke-width:0.886227;"/>
    <path clip-path="url(#p5e363808c0)" d="M 105.866658 55.131242 
L 106.191638 55.131242 
" style="fill:none;stroke:#a9a9a9;stroke-width:0.886227;"/>
    <path clip-path="url(#p5e363808c0)" d="M 138.364611 71.976484 
L 138.68959 71.976484 
" style="fill:none;stroke:#a9a9a9;stroke-width:0.886227;"/>
    <path clip-path="url(#p5e363808c0)" d="M 235.858468 123.259497 
L 236.183448 123.259497 
" style="fill:none;stroke:#a9a9a9;stroke-width:0.886227;"/>
    <path clip-path="url(#p5e363808c0)" d="M 398.348231 281.799376 
L 398.67321 281.799376 
" style="fill:none;stroke:#a9a9a9;stroke-width:0.886227;"/>
    <path clip-path="url(#p5e363808c0)" d="M 74.018665 39.879376 
L 74.343644 39.879376 
" style="fill:none;stroke:#a9a9a9;stroke-width:0.886227;"/>
    <path clip-path="url(#p5e363808c0)" d="M 74.668624 66.64309 
L 74.993603 66.64309 
" style="fill:none;stroke:#a9a9a9;stroke-width:0.886227;"/>
    <path clip-path="url(#p5e363808c0)" d="M 76.618501 138.753188 
L 76.94348 138.753188 
" style="fill:none;stroke:#a9a9a9;stroke-width:0.886227;"/>
    <path clip-path="url(#p5e363808c0)" d="M 79.868296 256.174892 
L 80.193276 256.174892 
" style="fill:none;stroke:#a9a9a9;stroke-width:0.886227;"/>
    <path clip-path="url(#p5e363808c0)" d="M 86.367887 278.829313 
L 86.692866 278.829313 
" style="fill:none;stroke:#a9a9a9;stroke-width:0.886227;"/>
    <path clip-path="url(#p5e363808c0)" d="M 105.866658 273.039978 
L 106.191638 273.039978 
" style="fill:none;stroke:#a9a9a9;stroke-width:0.886227;"/>
    <path clip-path="url(#p5e363808c0)" d="M 138.364611 260.471096 
L 138.68959 260.471096 
" style="fill:none;stroke:#a9a9a9;stroke-width:0.886227;"/>
    <path clip-path="url(#p5e363808c0)" d="M 235.858468 208.103888 
L 236.183448 208.103888 
" style="fill:none;stroke:#a9a9a9;stroke-width:0.886227;"/>
    <path clip-path="url(#p5e363808c0)" d="M 398.348231 131.211074 
L 398.67321 131.211074 
" style="fill:none;stroke:#a9a9a9;stroke-width:0.886227;"/>
    <path clip-path="url(#p5e363808c0)" d="M 74.018665 39.879379 
L 74.343644 39.879379 
" style="fill:none;stroke:#a9a9a9;stroke-width:0.886227;"/>
    <path clip-path="url(#p5e363808c0)" d="M 74.668624 40.053553 
L 74.993603 40.053553 
" style="fill:none;stroke:#a9a9a9;stroke-width:0.886227;"/>
    <path clip-path="url(#p5e363808c0)" d="M 76.618501 40.92457 
L 76.94348 40.92457 
" style="fill:none;stroke:#a9a9a9;stroke-width:0.886227;"/>
    <path clip-path="url(#p5e363808c0)" d="M 79.868296 42.446881 
L 80.193276 42.446881 
" style="fill:none;stroke:#a9a9a9;stroke-width:0.886227;"/>
    <path clip-path="url(#p5e363808c0)" d="M 86.367887 44.735486 
L 86.692866 44.735486 
" style="fill:none;stroke:#a9a9a9;stroke-width:0.886227;"/>
    <path clip-path="url(#p5e363808c0)" d="M 105.866658 54.027285 
L 106.191638 54.027285 
" style="fill:none;stroke:#a9a9a9;stroke-width:0.886227;"/>
    <path clip-path="url(#p5e363808c0)" d="M 138.364611 68.21469 
L 138.68959 68.21469 
" style="fill:none;stroke:#a9a9a9;stroke-width:0.886227;"/>
    <path clip-path="url(#p5e363808c0)" d="M 235.858468 120.187283 
L 236.183448 120.187283 
" style="fill:none;stroke:#a9a9a9;stroke-width:0.886227;"/>
    <path clip-path="url(#p5e363808c0)" d="M 398.348231 279.028491 
L 398.67321 279.028491 
" style="fill:none;stroke:#a9a9a9;stroke-width:0.886227;"/>
    <path clip-path="url(#p5e363808c0)" d="M 74.181155 39.879376 
L 74.181155 39.879677 
" style="fill:none;stroke:#a9a9a9;stroke-width:0.886227;"/>
    <path clip-path="url(#p5e363808c0)" d="M 74.831114 66.64309 
L 74.831114 66.811561 
" style="fill:none;stroke:#a9a9a9;stroke-width:0.886227;"/>
    <path clip-path="url(#p5e363808c0)" d="M 76.780991 138.753188 
L 76.780991 141.192779 
" style="fill:none;stroke:#a9a9a9;stroke-width:0.886227;"/>
    <path clip-path="url(#p5e363808c0)" d="M 80.030786 256.174892 
L 80.030786 257.325809 
" style="fill:none;stroke:#a9a9a9;stroke-width:0.886227;"/>
    <path clip-path="url(#p5e363808c0)" d="M 86.530376 278.829313 
L 86.530376 281.008448 
" style="fill:none;stroke:#a9a9a9;stroke-width:0.886227;"/>
    <path clip-path="url(#p5e363808c0)" d="M 106.029148 273.039978 
L 106.029148 277.820121 
" style="fill:none;stroke:#a9a9a9;stroke-width:0.886227;"/>
    <path clip-path="url(#p5e363808c0)" d="M 138.5271 260.471096 
L 138.5271 263.558604 
" style="fill:none;stroke:#a9a9a9;stroke-width:0.886227;"/>
    <path clip-path="url(#p5e363808c0)" d="M 236.020958 208.103888 
L 236.020958 210.203064 
" style="fill:none;stroke:#a9a9a9;stroke-width:0.886227;"/>
    <path clip-path="url(#p5e363808c0)" d="M 398.51072 131.211074 
L 398.51072 137.430898 
" style="fill:none;stroke:#a9a9a9;stroke-width:0.886227;"/>
    <path clip-path="url(#p5e363808c0)" d="M 74.181155 39.879379 
L 74.181155 39.879662 
" style="fill:none;stroke:#a9a9a9;stroke-width:0.886227;"/>
    <path clip-path="url(#p5e363808c0)" d="M 74.831114 40.053553 
L 74.831114 40.429421 
" style="fill:none;stroke:#a9a9a9;stroke-width:0.886227;"/>
    <path clip-path="url(#p5e363808c0)" d="M 76.780991 40.92457 
L 76.780991 41.198753 
" style="fill:none;stroke:#a9a9a9;stroke-width:0.886227;"/>
    <path clip-path="url(#p5e363808c0)" d="M 80.030786 42.446881 
L 80.030786 42.794599 
" style="fill:none;stroke:#a9a9a9;stroke-width:0.886227;"/>
    <path clip-path="url(#p5e363808c0)" d="M 86.530376 44.735486 
L 86.530376 45.277657 
" style="fill:none;stroke:#a9a9a9;stroke-width:0.886227;"/>
    <path clip-path="url(#p5e363808c0)" d="M 106.029148 54.027285 
L 106.029148 55.131242 
" style="fill:none;stroke:#a9a9a9;stroke-width:0.886227;"/>
    <path clip-path="url(#p5e363808c0)" d="M 138.5271 68.21469 
L 138.5271 71.976484 
" style="fill:none;stroke:#a9a9a9;stroke-width:0.886227;"/>
    <path clip-path="url(#p5e363808c0)" d="M 236.020958 120.187283 
L 236.020958 123.259497 
" style="fill:none;stroke:#a9a9a9;stroke-width:0.886227;"/>
    <path clip-path="url(#p5e363808c0)" d="M 398.51072 279.028491 
L 398.51072 281.799376 
" style="fill:none;stroke:#a9a9a9;stroke-width:0.886227;"/>
   </g>
   <g id="line2d_41">
    <path clip-path="url(#p5e363808c0)" d="M 74.181155 240.388414 
L 74.181155 240.388414 
L 74.831114 240.388414 
L 74.831114 240.388414 
L 76.780991 240.388414 
L 76.780991 240.388414 
L 80.030786 240.388414 
L 80.030786 240.388414 
L 86.530376 240.388414 
L 86.530376 240.388414 
L 106.029148 240.388414 
L 106.029148 240.388414 
L 138.5271 240.388414 
L 138.5271 240.388414 
L 236.020958 240.388414 
L 236.020958 240.388414 
L 398.51072 240.388414 
L 398.51072 240.388414 
" style="fill:none;stroke:#a9a9a9;stroke-dasharray:6.558079,2.835926;stroke-dashoffset:0;stroke-width:1.772454;"/>
   </g>
   <g id="patch_5">
    <path d="M 422.105938 197.60997 
L 538.045313 197.60997 
L 538.045313 120.612782 
L 422.105938 120.612782 
z
" style="fill:#ffffff;"/>
   </g>
   <g id="text_13">
    <!-- Group -->
    <defs>
     <path d="M 59.515625 10.40625 
L 59.515625 29.984375 
L 43.40625 29.984375 
L 43.40625 38.09375 
L 69.28125 38.09375 
L 69.28125 6.78125 
Q 63.578125 2.734375 56.6875 0.65625 
Q 49.8125 -1.421875 42 -1.421875 
Q 24.90625 -1.421875 15.25 8.5625 
Q 5.609375 18.5625 5.609375 36.375 
Q 5.609375 54.25 15.25 64.234375 
Q 24.90625 74.21875 42 74.21875 
Q 49.125 74.21875 55.546875 72.453125 
Q 61.96875 70.703125 67.390625 67.28125 
L 67.390625 56.78125 
Q 61.921875 61.421875 55.765625 63.765625 
Q 49.609375 66.109375 42.828125 66.109375 
Q 29.4375 66.109375 22.71875 58.640625 
Q 16.015625 51.171875 16.015625 36.375 
Q 16.015625 21.625 22.71875 14.15625 
Q 29.4375 6.6875 42.828125 6.6875 
Q 48.046875 6.6875 52.140625 7.59375 
Q 56.25 8.5 59.515625 10.40625 
z
" id="DejaVuSans-71"/>
     <path d="M 18.109375 8.203125 
L 18.109375 -20.796875 
L 9.078125 -20.796875 
L 9.078125 54.6875 
L 18.109375 54.6875 
L 18.109375 46.390625 
Q 20.953125 51.265625 25.265625 53.625 
Q 29.59375 56 35.59375 56 
Q 45.5625 56 51.78125 48.09375 
Q 58.015625 40.1875 58.015625 27.296875 
Q 58.015625 14.40625 51.78125 6.484375 
Q 45.5625 -1.421875 35.59375 -1.421875 
Q 29.59375 -1.421875 25.265625 0.953125 
Q 20.953125 3.328125 18.109375 8.203125 
z
M 48.6875 27.296875 
Q 48.6875 37.203125 44.609375 42.84375 
Q 40.53125 48.484375 33.40625 48.484375 
Q 26.265625 48.484375 22.1875 42.84375 
Q 18.109375 37.203125 18.109375 27.296875 
Q 18.109375 17.390625 22.1875 11.75 
Q 26.265625 6.109375 33.40625 6.109375 
Q 40.53125 6.109375 44.609375 11.75 
Q 48.6875 17.390625 48.6875 27.296875 
z
" id="DejaVuSans-112"/>
    </defs>
    <g transform="translate(434.305938 148.349501)scale(0.15 -0.15)">
     <use xlink:href="#DejaVuSans-71"/>
     <use x="77.490234" xlink:href="#DejaVuSans-114"/>
     <use x="118.572266" xlink:href="#DejaVuSans-111"/>
     <use x="179.753906" xlink:href="#DejaVuSans-117"/>
     <use x="243.132812" xlink:href="#DejaVuSans-112"/>
    </g>
   </g>
   <g id="patch_6">
    <path clip-path="url(#p198b6f9340)" d="M 434.305938 167.56997 
L 450.145938 167.56997 
L 450.145938 151.72997 
L 434.305938 151.72997 
z
" style="fill:#ffffff;stroke:#ffffff;stroke-linejoin:miter;"/>
   </g>
   <g id="line2d_42">
    <path clip-path="url(#p198b6f9340)" d="M 434.305938 159.64997 
L 450.145938 159.64997 
" style="fill:none;stroke:#1976d2;stroke-width:2.658681;"/>
   </g>
   <g id="text_14">
    <!-- corrected -->
    <defs>
     <path d="M 45.40625 46.390625 
L 45.40625 75.984375 
L 54.390625 75.984375 
L 54.390625 0 
L 45.40625 0 
L 45.40625 8.203125 
Q 42.578125 3.328125 38.25 0.953125 
Q 33.9375 -1.421875 27.875 -1.421875 
Q 17.96875 -1.421875 11.734375 6.484375 
Q 5.515625 14.40625 5.515625 27.296875 
Q 5.515625 40.1875 11.734375 48.09375 
Q 17.96875 56 27.875 56 
Q 33.9375 56 38.25 53.625 
Q 42.578125 51.265625 45.40625 46.390625 
z
M 14.796875 27.296875 
Q 14.796875 17.390625 18.875 11.75 
Q 22.953125 6.109375 30.078125 6.109375 
Q 37.203125 6.109375 41.296875 11.75 
Q 45.40625 17.390625 45.40625 27.296875 
Q 45.40625 37.203125 41.296875 42.84375 
Q 37.203125 48.484375 30.078125 48.484375 
Q 22.953125 48.484375 18.875 42.84375 
Q 14.796875 37.203125 14.796875 27.296875 
z
" id="DejaVuSans-100"/>
    </defs>
    <g transform="translate(453.145938 162.96122)scale(0.12 -0.12)">
     <use xlink:href="#DejaVuSans-99"/>
     <use x="54.980469" xlink:href="#DejaVuSans-111"/>
     <use x="116.162109" xlink:href="#DejaVuSans-114"/>
     <use x="157.259766" xlink:href="#DejaVuSans-114"/>
     <use x="198.341797" xlink:href="#DejaVuSans-101"/>
     <use x="259.865234" xlink:href="#DejaVuSans-99"/>
     <use x="314.845703" xlink:href="#DejaVuSans-116"/>
     <use x="354.054688" xlink:href="#DejaVuSans-101"/>
     <use x="415.578125" xlink:href="#DejaVuSans-100"/>
    </g>
   </g>
   <g id="patch_7">
    <path clip-path="url(#p8b8bd08bf4)" d="M 434.305938 185.40997 
L 450.145938 185.40997 
L 450.145938 169.56997 
L 434.305938 169.56997 
z
" style="fill:#ffffff;stroke:#ffffff;stroke-linejoin:miter;"/>
   </g>
   <g id="line2d_43">
    <path clip-path="url(#p8b8bd08bf4)" d="M 434.305938 177.48997 
L 450.145938 177.48997 
" style="fill:none;stroke:#b3e5fc;stroke-width:2.658681;"/>
   </g>
   <g id="text_15">
    <!-- uncorrected -->
    <g transform="translate(453.145938 180.80122)scale(0.12 -0.12)">
     <use xlink:href="#DejaVuSans-117"/>
     <use x="63.378906" xlink:href="#DejaVuSans-110"/>
     <use x="126.757812" xlink:href="#DejaVuSans-99"/>
     <use x="181.738281" xlink:href="#DejaVuSans-111"/>
     <use x="242.919922" xlink:href="#DejaVuSans-114"/>
     <use x="284.017578" xlink:href="#DejaVuSans-114"/>
     <use x="325.099609" xlink:href="#DejaVuSans-101"/>
     <use x="386.623047" xlink:href="#DejaVuSans-99"/>
     <use x="441.603516" xlink:href="#DejaVuSans-116"/>
     <use x="480.8125" xlink:href="#DejaVuSans-101"/>
     <use x="542.335938" xlink:href="#DejaVuSans-100"/>
    </g>
   </g>
  </g>
  <g id="text_16">
   <!-- Similarity across varying numbers of partitions -->
   <defs>
    <path d="M 2.984375 54.6875 
L 12.5 54.6875 
L 29.59375 8.796875 
L 46.6875 54.6875 
L 56.203125 54.6875 
L 35.6875 0 
L 23.484375 0 
z
" id="DejaVuSans-118"/>
    <path d="M 45.40625 27.984375 
Q 45.40625 37.75 41.375 43.109375 
Q 37.359375 48.484375 30.078125 48.484375 
Q 22.859375 48.484375 18.828125 43.109375 
Q 14.796875 37.75 14.796875 27.984375 
Q 14.796875 18.265625 18.828125 12.890625 
Q 22.859375 7.515625 30.078125 7.515625 
Q 37.359375 7.515625 41.375 12.890625 
Q 45.40625 18.265625 45.40625 27.984375 
z
M 54.390625 6.78125 
Q 54.390625 -7.171875 48.1875 -13.984375 
Q 42 -20.796875 29.203125 -20.796875 
Q 24.46875 -20.796875 20.265625 -20.09375 
Q 16.0625 -19.390625 12.109375 -17.921875 
L 12.109375 -9.1875 
Q 16.0625 -11.328125 19.921875 -12.34375 
Q 23.78125 -13.375 27.78125 -13.375 
Q 36.625 -13.375 41.015625 -8.765625 
Q 45.40625 -4.15625 45.40625 5.171875 
L 45.40625 9.625 
Q 42.625 4.78125 38.28125 2.390625 
Q 33.9375 0 27.875 0 
Q 17.828125 0 11.671875 7.65625 
Q 5.515625 15.328125 5.515625 27.984375 
Q 5.515625 40.671875 11.671875 48.328125 
Q 17.828125 56 27.875 56 
Q 33.9375 56 38.28125 53.609375 
Q 42.625 51.21875 45.40625 46.390625 
L 45.40625 54.6875 
L 54.390625 54.6875 
z
" id="DejaVuSans-103"/>
   </defs>
   <g transform="translate(54.703906 18.597656)scale(0.15 -0.15)">
    <use xlink:href="#DejaVuSans-83"/>
    <use x="63.476562" xlink:href="#DejaVuSans-105"/>
    <use x="91.259766" xlink:href="#DejaVuSans-109"/>
    <use x="188.671875" xlink:href="#DejaVuSans-105"/>
    <use x="216.455078" xlink:href="#DejaVuSans-108"/>
    <use x="244.238281" xlink:href="#DejaVuSans-97"/>
    <use x="305.517578" xlink:href="#DejaVuSans-114"/>
    <use x="346.630859" xlink:href="#DejaVuSans-105"/>
    <use x="374.414062" xlink:href="#DejaVuSans-116"/>
    <use x="413.623047" xlink:href="#DejaVuSans-121"/>
    <use x="472.802734" xlink:href="#DejaVuSans-32"/>
    <use x="504.589844" xlink:href="#DejaVuSans-97"/>
    <use x="565.869141" xlink:href="#DejaVuSans-99"/>
    <use x="620.849609" xlink:href="#DejaVuSans-114"/>
    <use x="661.931641" xlink:href="#DejaVuSans-111"/>
    <use x="723.113281" xlink:href="#DejaVuSans-115"/>
    <use x="775.212891" xlink:href="#DejaVuSans-115"/>
    <use x="827.3125" xlink:href="#DejaVuSans-32"/>
    <use x="859.099609" xlink:href="#DejaVuSans-118"/>
    <use x="918.279297" xlink:href="#DejaVuSans-97"/>
    <use x="979.558594" xlink:href="#DejaVuSans-114"/>
    <use x="1020.671875" xlink:href="#DejaVuSans-121"/>
    <use x="1079.851562" xlink:href="#DejaVuSans-105"/>
    <use x="1107.634766" xlink:href="#DejaVuSans-110"/>
    <use x="1171.013672" xlink:href="#DejaVuSans-103"/>
    <use x="1234.490234" xlink:href="#DejaVuSans-32"/>
    <use x="1266.277344" xlink:href="#DejaVuSans-110"/>
    <use x="1329.65625" xlink:href="#DejaVuSans-117"/>
    <use x="1393.035156" xlink:href="#DejaVuSans-109"/>
    <use x="1490.447266" xlink:href="#DejaVuSans-98"/>
    <use x="1553.923828" xlink:href="#DejaVuSans-101"/>
    <use x="1615.447266" xlink:href="#DejaVuSans-114"/>
    <use x="1656.560547" xlink:href="#DejaVuSans-115"/>
    <use x="1708.660156" xlink:href="#DejaVuSans-32"/>
    <use x="1740.447266" xlink:href="#DejaVuSans-111"/>
    <use x="1801.628906" xlink:href="#DejaVuSans-102"/>
    <use x="1836.833984" xlink:href="#DejaVuSans-32"/>
    <use x="1868.621094" xlink:href="#DejaVuSans-112"/>
    <use x="1932.097656" xlink:href="#DejaVuSans-97"/>
    <use x="1993.376953" xlink:href="#DejaVuSans-114"/>
    <use x="2034.490234" xlink:href="#DejaVuSans-116"/>
    <use x="2073.699219" xlink:href="#DejaVuSans-105"/>
    <use x="2101.482422" xlink:href="#DejaVuSans-116"/>
    <use x="2140.691406" xlink:href="#DejaVuSans-105"/>
    <use x="2168.474609" xlink:href="#DejaVuSans-111"/>
    <use x="2229.65625" xlink:href="#DejaVuSans-110"/>
    <use x="2293.035156" xlink:href="#DejaVuSans-115"/>
   </g>
  </g>
 </g>
 <defs>
  <clipPath id="p5e363808c0">
   <rect height="266.112" width="357.12" x="57.785938" y="27.783376"/>
  </clipPath>
  <clipPath id="p198b6f9340">
   <path d="M 434.305938 167.56997 
L 434.305938 151.72997 
L 450.145938 151.72997 
L 450.145938 167.56997 
"/>
  </clipPath>
  <clipPath id="p8b8bd08bf4">
   <path d="M 434.305938 185.40997 
L 434.305938 169.56997 
L 450.145938 169.56997 
L 450.145938 185.40997 
"/>
  </clipPath>
 </defs>
</svg>
