<?xml version="1.0" encoding="utf-8" standalone="no"?>
<!DOCTYPE svg PUBLIC "-//W3C//DTD SVG 1.1//EN"
  "http://www.w3.org/Graphics/SVG/1.1/DTD/svg11.dtd">
<!-- Created with matplotlib (https://matplotlib.org/) -->
<svg height="327.981621pt" version="1.1" viewBox="0 0 514.862562 327.981621" width="514.862562pt" xmlns="http://www.w3.org/2000/svg" xmlns:xlink="http://www.w3.org/1999/xlink">
 <defs>
  <style type="text/css">
*{stroke-linecap:butt;stroke-linejoin:round;}
  </style>
 </defs>
 <g id="figure_1">
  <g id="patch_1">
   <path d="M 0 327.981621 
L 514.862562 327.981621 
L 514.862562 0 
L 0 0 
z
" style="fill:#ffffff;stroke:#ffffff;stroke-linejoin:miter;"/>
  </g>
  <g id="axes_1">
   <g id="patch_2">
    <path d="M 46.789688 292.268933 
L 403.909688 292.268933 
L 403.909688 26.156933 
L 46.789688 26.156933 
z
" style="fill:#ffffff;"/>
   </g>
   <g id="matplotlib.axis_1">
    <g id="xtick_1">
     <g id="line2d_1">
      <path clip-path="url(#p62a5c0b1b9)" d="M 62.616258 292.268933 
L 62.616258 26.156933 
" style="fill:none;stroke:#d3d3d3;"/>
     </g>
     <g id="line2d_2">
      <path d="M 62.616258 292.268933 
" style="fill:none;stroke:#333333;stroke-width:1.5;"/>
      <defs>
       <path d="M 0 0 
L 0 2.75 
" id="mf033ed4177" style="stroke:#333333;"/>
      </defs>
      <g>
       <use style="fill:#333333;stroke:#333333;" x="62.616258" xlink:href="#mf033ed4177" y="292.268933"/>
      </g>
     </g>
     <g id="text_1">
      <!-- 0 -->
      <defs>
       <path d="M 31.78125 66.40625 
Q 24.171875 66.40625 20.328125 58.90625 
Q 16.5 51.421875 16.5 36.375 
Q 16.5 21.390625 20.328125 13.890625 
Q 24.171875 6.390625 31.78125 6.390625 
Q 39.453125 6.390625 43.28125 13.890625 
Q 47.125 21.390625 47.125 36.375 
Q 47.125 51.421875 43.28125 58.90625 
Q 39.453125 66.40625 31.78125 66.40625 
z
M 31.78125 74.21875 
Q 44.046875 74.21875 50.515625 64.515625 
Q 56.984375 54.828125 56.984375 36.375 
Q 56.984375 17.96875 50.515625 8.265625 
Q 44.046875 -1.421875 31.78125 -1.421875 
Q 19.53125 -1.421875 13.0625 8.265625 
Q 6.59375 17.96875 6.59375 36.375 
Q 6.59375 54.828125 13.0625 64.515625 
Q 19.53125 74.21875 31.78125 74.21875 
z
" id="DejaVuSans-48"/>
      </defs>
      <g style="fill:#4d4d4d;" transform="translate(59.816758 303.905558)scale(0.088 -0.088)">
       <use xlink:href="#DejaVuSans-48"/>
      </g>
     </g>
    </g>
    <g id="xtick_2">
     <g id="line2d_3">
      <path clip-path="url(#p62a5c0b1b9)" d="M 170.924697 292.268933 
L 170.924697 26.156933 
" style="fill:none;stroke:#d3d3d3;"/>
     </g>
     <g id="line2d_4">
      <path d="M 170.924697 292.268933 
" style="fill:none;stroke:#333333;stroke-width:1.5;"/>
      <g>
       <use style="fill:#333333;stroke:#333333;" x="170.924697" xlink:href="#mf033ed4177" y="292.268933"/>
      </g>
     </g>
     <g id="text_2">
      <!-- 200 -->
      <defs>
       <path d="M 19.1875 8.296875 
L 53.609375 8.296875 
L 53.609375 0 
L 7.328125 0 
L 7.328125 8.296875 
Q 12.9375 14.109375 22.625 23.890625 
Q 32.328125 33.6875 34.8125 36.53125 
Q 39.546875 41.84375 41.421875 45.53125 
Q 43.3125 49.21875 43.3125 52.78125 
Q 43.3125 58.59375 39.234375 62.25 
Q 35.15625 65.921875 28.609375 65.921875 
Q 23.96875 65.921875 18.8125 64.3125 
Q 13.671875 62.703125 7.8125 59.421875 
L 7.8125 69.390625 
Q 13.765625 71.78125 18.9375 73 
Q 24.125 74.21875 28.421875 74.21875 
Q 39.75 74.21875 46.484375 68.546875 
Q 53.21875 62.890625 53.21875 53.421875 
Q 53.21875 48.921875 51.53125 44.890625 
Q 49.859375 40.875 45.40625 35.40625 
Q 44.1875 33.984375 37.640625 27.21875 
Q 31.109375 20.453125 19.1875 8.296875 
z
" id="DejaVuSans-50"/>
      </defs>
      <g style="fill:#4d4d4d;" transform="translate(162.526197 303.905558)scale(0.088 -0.088)">
       <use xlink:href="#DejaVuSans-50"/>
       <use x="63.623047" xlink:href="#DejaVuSans-48"/>
       <use x="127.246094" xlink:href="#DejaVuSans-48"/>
      </g>
     </g>
    </g>
    <g id="xtick_3">
     <g id="line2d_5">
      <path clip-path="url(#p62a5c0b1b9)" d="M 279.233136 292.268933 
L 279.233136 26.156933 
" style="fill:none;stroke:#d3d3d3;"/>
     </g>
     <g id="line2d_6">
      <path d="M 279.233136 292.268933 
" style="fill:none;stroke:#333333;stroke-width:1.5;"/>
      <g>
       <use style="fill:#333333;stroke:#333333;" x="279.233136" xlink:href="#mf033ed4177" y="292.268933"/>
      </g>
     </g>
     <g id="text_3">
      <!-- 400 -->
      <defs>
       <path d="M 37.796875 64.3125 
L 12.890625 25.390625 
L 37.796875 25.390625 
z
M 35.203125 72.90625 
L 47.609375 72.90625 
L 47.609375 25.390625 
L 58.015625 25.390625 
L 58.015625 17.1875 
L 47.609375 17.1875 
L 47.609375 0 
L 37.796875 0 
L 37.796875 17.1875 
L 4.890625 17.1875 
L 4.890625 26.703125 
z
" id="DejaVuSans-52"/>
      </defs>
      <g style="fill:#4d4d4d;" transform="translate(270.834636 303.905558)scale(0.088 -0.088)">
       <use xlink:href="#DejaVuSans-52"/>
       <use x="63.623047" xlink:href="#DejaVuSans-48"/>
       <use x="127.246094" xlink:href="#DejaVuSans-48"/>
      </g>
     </g>
    </g>
    <g id="xtick_4">
     <g id="line2d_7">
      <path clip-path="url(#p62a5c0b1b9)" d="M 387.541575 292.268933 
L 387.541575 26.156933 
" style="fill:none;stroke:#d3d3d3;"/>
     </g>
     <g id="line2d_8">
      <path d="M 387.541575 292.268933 
" style="fill:none;stroke:#333333;stroke-width:1.5;"/>
      <g>
       <use style="fill:#333333;stroke:#333333;" x="387.541575" xlink:href="#mf033ed4177" y="292.268933"/>
      </g>
     </g>
     <g id="text_4">
      <!-- 600 -->
      <defs>
       <path d="M 33.015625 40.375 
Q 26.375 40.375 22.484375 35.828125 
Q 18.609375 31.296875 18.609375 23.390625 
Q 18.609375 15.53125 22.484375 10.953125 
Q 26.375 6.390625 33.015625 6.390625 
Q 39.65625 6.390625 43.53125 10.953125 
Q 47.40625 15.53125 47.40625 23.390625 
Q 47.40625 31.296875 43.53125 35.828125 
Q 39.65625 40.375 33.015625 40.375 
z
M 52.59375 71.296875 
L 52.59375 62.3125 
Q 48.875 64.0625 45.09375 64.984375 
Q 41.3125 65.921875 37.59375 65.921875 
Q 27.828125 65.921875 22.671875 59.328125 
Q 17.53125 52.734375 16.796875 39.40625 
Q 19.671875 43.65625 24.015625 45.921875 
Q 28.375 48.1875 33.59375 48.1875 
Q 44.578125 48.1875 50.953125 41.515625 
Q 57.328125 34.859375 57.328125 23.390625 
Q 57.328125 12.15625 50.6875 5.359375 
Q 44.046875 -1.421875 33.015625 -1.421875 
Q 20.359375 -1.421875 13.671875 8.265625 
Q 6.984375 17.96875 6.984375 36.375 
Q 6.984375 53.65625 15.1875 63.9375 
Q 23.390625 74.21875 37.203125 74.21875 
Q 40.921875 74.21875 44.703125 73.484375 
Q 48.484375 72.75 52.59375 71.296875 
z
" id="DejaVuSans-54"/>
      </defs>
      <g style="fill:#4d4d4d;" transform="translate(379.143075 303.905558)scale(0.088 -0.088)">
       <use xlink:href="#DejaVuSans-54"/>
       <use x="63.623047" xlink:href="#DejaVuSans-48"/>
       <use x="127.246094" xlink:href="#DejaVuSans-48"/>
      </g>
     </g>
    </g>
    <g id="xtick_5">
     <g id="line2d_9">
      <path clip-path="url(#p62a5c0b1b9)" d="M 116.770478 292.268933 
L 116.770478 26.156933 
" style="fill:none;stroke:#ffffff;stroke-width:0.5;"/>
     </g>
     <g id="line2d_10">
      <path d="M 116.770478 292.268933 
" style="fill:none;stroke:#333333;stroke-width:1.5;"/>
     </g>
    </g>
    <g id="xtick_6">
     <g id="line2d_11">
      <path clip-path="url(#p62a5c0b1b9)" d="M 225.078916 292.268933 
L 225.078916 26.156933 
" style="fill:none;stroke:#ffffff;stroke-width:0.5;"/>
     </g>
     <g id="line2d_12">
      <path d="M 225.078916 292.268933 
" style="fill:none;stroke:#333333;stroke-width:1.5;"/>
     </g>
    </g>
    <g id="xtick_7">
     <g id="line2d_13">
      <path clip-path="url(#p62a5c0b1b9)" d="M 333.387355 292.268933 
L 333.387355 26.156933 
" style="fill:none;stroke:#ffffff;stroke-width:0.5;"/>
     </g>
     <g id="line2d_14">
      <path d="M 333.387355 292.268933 
" style="fill:none;stroke:#333333;stroke-width:1.5;"/>
     </g>
    </g>
    <g id="text_5">
     <!-- Number of Partitions -->
     <defs>
      <path d="M 9.8125 72.90625 
L 23.09375 72.90625 
L 55.421875 11.921875 
L 55.421875 72.90625 
L 64.984375 72.90625 
L 64.984375 0 
L 51.703125 0 
L 19.390625 60.984375 
L 19.390625 0 
L 9.8125 0 
z
" id="DejaVuSans-78"/>
      <path d="M 8.5 21.578125 
L 8.5 54.6875 
L 17.484375 54.6875 
L 17.484375 21.921875 
Q 17.484375 14.15625 20.5 10.265625 
Q 23.53125 6.390625 29.59375 6.390625 
Q 36.859375 6.390625 41.078125 11.03125 
Q 45.3125 15.671875 45.3125 23.6875 
L 45.3125 54.6875 
L 54.296875 54.6875 
L 54.296875 0 
L 45.3125 0 
L 45.3125 8.40625 
Q 42.046875 3.421875 37.71875 1 
Q 33.40625 -1.421875 27.6875 -1.421875 
Q 18.265625 -1.421875 13.375 4.4375 
Q 8.5 10.296875 8.5 21.578125 
z
M 31.109375 56 
z
" id="DejaVuSans-117"/>
      <path d="M 52 44.1875 
Q 55.375 50.25 60.0625 53.125 
Q 64.75 56 71.09375 56 
Q 79.640625 56 84.28125 50.015625 
Q 88.921875 44.046875 88.921875 33.015625 
L 88.921875 0 
L 79.890625 0 
L 79.890625 32.71875 
Q 79.890625 40.578125 77.09375 44.375 
Q 74.3125 48.1875 68.609375 48.1875 
Q 61.625 48.1875 57.5625 43.546875 
Q 53.515625 38.921875 53.515625 30.90625 
L 53.515625 0 
L 44.484375 0 
L 44.484375 32.71875 
Q 44.484375 40.625 41.703125 44.40625 
Q 38.921875 48.1875 33.109375 48.1875 
Q 26.21875 48.1875 22.15625 43.53125 
Q 18.109375 38.875 18.109375 30.90625 
L 18.109375 0 
L 9.078125 0 
L 9.078125 54.6875 
L 18.109375 54.6875 
L 18.109375 46.1875 
Q 21.1875 51.21875 25.484375 53.609375 
Q 29.78125 56 35.6875 56 
Q 41.65625 56 45.828125 52.96875 
Q 50 49.953125 52 44.1875 
z
" id="DejaVuSans-109"/>
      <path d="M 48.6875 27.296875 
Q 48.6875 37.203125 44.609375 42.84375 
Q 40.53125 48.484375 33.40625 48.484375 
Q 26.265625 48.484375 22.1875 42.84375 
Q 18.109375 37.203125 18.109375 27.296875 
Q 18.109375 17.390625 22.1875 11.75 
Q 26.265625 6.109375 33.40625 6.109375 
Q 40.53125 6.109375 44.609375 11.75 
Q 48.6875 17.390625 48.6875 27.296875 
z
M 18.109375 46.390625 
Q 20.953125 51.265625 25.265625 53.625 
Q 29.59375 56 35.59375 56 
Q 45.5625 56 51.78125 48.09375 
Q 58.015625 40.1875 58.015625 27.296875 
Q 58.015625 14.40625 51.78125 6.484375 
Q 45.5625 -1.421875 35.59375 -1.421875 
Q 29.59375 -1.421875 25.265625 0.953125 
Q 20.953125 3.328125 18.109375 8.203125 
L 18.109375 0 
L 9.078125 0 
L 9.078125 75.984375 
L 18.109375 75.984375 
z
" id="DejaVuSans-98"/>
      <path d="M 56.203125 29.59375 
L 56.203125 25.203125 
L 14.890625 25.203125 
Q 15.484375 15.921875 20.484375 11.0625 
Q 25.484375 6.203125 34.421875 6.203125 
Q 39.59375 6.203125 44.453125 7.46875 
Q 49.3125 8.734375 54.109375 11.28125 
L 54.109375 2.78125 
Q 49.265625 0.734375 44.1875 -0.34375 
Q 39.109375 -1.421875 33.890625 -1.421875 
Q 20.796875 -1.421875 13.15625 6.1875 
Q 5.515625 13.8125 5.515625 26.8125 
Q 5.515625 40.234375 12.765625 48.109375 
Q 20.015625 56 32.328125 56 
Q 43.359375 56 49.78125 48.890625 
Q 56.203125 41.796875 56.203125 29.59375 
z
M 47.21875 32.234375 
Q 47.125 39.59375 43.09375 43.984375 
Q 39.0625 48.390625 32.421875 48.390625 
Q 24.90625 48.390625 20.390625 44.140625 
Q 15.875 39.890625 15.1875 32.171875 
z
" id="DejaVuSans-101"/>
      <path d="M 41.109375 46.296875 
Q 39.59375 47.171875 37.8125 47.578125 
Q 36.03125 48 33.890625 48 
Q 26.265625 48 22.1875 43.046875 
Q 18.109375 38.09375 18.109375 28.8125 
L 18.109375 0 
L 9.078125 0 
L 9.078125 54.6875 
L 18.109375 54.6875 
L 18.109375 46.1875 
Q 20.953125 51.171875 25.484375 53.578125 
Q 30.03125 56 36.53125 56 
Q 37.453125 56 38.578125 55.875 
Q 39.703125 55.765625 41.0625 55.515625 
z
" id="DejaVuSans-114"/>
      <path id="DejaVuSans-32"/>
      <path d="M 30.609375 48.390625 
Q 23.390625 48.390625 19.1875 42.75 
Q 14.984375 37.109375 14.984375 27.296875 
Q 14.984375 17.484375 19.15625 11.84375 
Q 23.34375 6.203125 30.609375 6.203125 
Q 37.796875 6.203125 41.984375 11.859375 
Q 46.1875 17.53125 46.1875 27.296875 
Q 46.1875 37.015625 41.984375 42.703125 
Q 37.796875 48.390625 30.609375 48.390625 
z
M 30.609375 56 
Q 42.328125 56 49.015625 48.375 
Q 55.71875 40.765625 55.71875 27.296875 
Q 55.71875 13.875 49.015625 6.21875 
Q 42.328125 -1.421875 30.609375 -1.421875 
Q 18.84375 -1.421875 12.171875 6.21875 
Q 5.515625 13.875 5.515625 27.296875 
Q 5.515625 40.765625 12.171875 48.375 
Q 18.84375 56 30.609375 56 
z
" id="DejaVuSans-111"/>
      <path d="M 37.109375 75.984375 
L 37.109375 68.5 
L 28.515625 68.5 
Q 23.6875 68.5 21.796875 66.546875 
Q 19.921875 64.59375 19.921875 59.515625 
L 19.921875 54.6875 
L 34.71875 54.6875 
L 34.71875 47.703125 
L 19.921875 47.703125 
L 19.921875 0 
L 10.890625 0 
L 10.890625 47.703125 
L 2.296875 47.703125 
L 2.296875 54.6875 
L 10.890625 54.6875 
L 10.890625 58.5 
Q 10.890625 67.625 15.140625 71.796875 
Q 19.390625 75.984375 28.609375 75.984375 
z
" id="DejaVuSans-102"/>
      <path d="M 19.671875 64.796875 
L 19.671875 37.40625 
L 32.078125 37.40625 
Q 38.96875 37.40625 42.71875 40.96875 
Q 46.484375 44.53125 46.484375 51.125 
Q 46.484375 57.671875 42.71875 61.234375 
Q 38.96875 64.796875 32.078125 64.796875 
z
M 9.8125 72.90625 
L 32.078125 72.90625 
Q 44.34375 72.90625 50.609375 67.359375 
Q 56.890625 61.8125 56.890625 51.125 
Q 56.890625 40.328125 50.609375 34.8125 
Q 44.34375 29.296875 32.078125 29.296875 
L 19.671875 29.296875 
L 19.671875 0 
L 9.8125 0 
z
" id="DejaVuSans-80"/>
      <path d="M 34.28125 27.484375 
Q 23.390625 27.484375 19.1875 25 
Q 14.984375 22.515625 14.984375 16.5 
Q 14.984375 11.71875 18.140625 8.90625 
Q 21.296875 6.109375 26.703125 6.109375 
Q 34.1875 6.109375 38.703125 11.40625 
Q 43.21875 16.703125 43.21875 25.484375 
L 43.21875 27.484375 
z
M 52.203125 31.203125 
L 52.203125 0 
L 43.21875 0 
L 43.21875 8.296875 
Q 40.140625 3.328125 35.546875 0.953125 
Q 30.953125 -1.421875 24.3125 -1.421875 
Q 15.921875 -1.421875 10.953125 3.296875 
Q 6 8.015625 6 15.921875 
Q 6 25.140625 12.171875 29.828125 
Q 18.359375 34.515625 30.609375 34.515625 
L 43.21875 34.515625 
L 43.21875 35.40625 
Q 43.21875 41.609375 39.140625 45 
Q 35.0625 48.390625 27.6875 48.390625 
Q 23 48.390625 18.546875 47.265625 
Q 14.109375 46.140625 10.015625 43.890625 
L 10.015625 52.203125 
Q 14.9375 54.109375 19.578125 55.046875 
Q 24.21875 56 28.609375 56 
Q 40.484375 56 46.34375 49.84375 
Q 52.203125 43.703125 52.203125 31.203125 
z
" id="DejaVuSans-97"/>
      <path d="M 18.3125 70.21875 
L 18.3125 54.6875 
L 36.8125 54.6875 
L 36.8125 47.703125 
L 18.3125 47.703125 
L 18.3125 18.015625 
Q 18.3125 11.328125 20.140625 9.421875 
Q 21.96875 7.515625 27.59375 7.515625 
L 36.8125 7.515625 
L 36.8125 0 
L 27.59375 0 
Q 17.1875 0 13.234375 3.875 
Q 9.28125 7.765625 9.28125 18.015625 
L 9.28125 47.703125 
L 2.6875 47.703125 
L 2.6875 54.6875 
L 9.28125 54.6875 
L 9.28125 70.21875 
z
" id="DejaVuSans-116"/>
      <path d="M 9.421875 54.6875 
L 18.40625 54.6875 
L 18.40625 0 
L 9.421875 0 
z
M 9.421875 75.984375 
L 18.40625 75.984375 
L 18.40625 64.59375 
L 9.421875 64.59375 
z
" id="DejaVuSans-105"/>
      <path d="M 54.890625 33.015625 
L 54.890625 0 
L 45.90625 0 
L 45.90625 32.71875 
Q 45.90625 40.484375 42.875 44.328125 
Q 39.84375 48.1875 33.796875 48.1875 
Q 26.515625 48.1875 22.3125 43.546875 
Q 18.109375 38.921875 18.109375 30.90625 
L 18.109375 0 
L 9.078125 0 
L 9.078125 54.6875 
L 18.109375 54.6875 
L 18.109375 46.1875 
Q 21.34375 51.125 25.703125 53.5625 
Q 30.078125 56 35.796875 56 
Q 45.21875 56 50.046875 50.171875 
Q 54.890625 44.34375 54.890625 33.015625 
z
" id="DejaVuSans-110"/>
      <path d="M 44.28125 53.078125 
L 44.28125 44.578125 
Q 40.484375 46.53125 36.375 47.5 
Q 32.28125 48.484375 27.875 48.484375 
Q 21.1875 48.484375 17.84375 46.4375 
Q 14.5 44.390625 14.5 40.28125 
Q 14.5 37.15625 16.890625 35.375 
Q 19.28125 33.59375 26.515625 31.984375 
L 29.59375 31.296875 
Q 39.15625 29.25 43.1875 25.515625 
Q 47.21875 21.78125 47.21875 15.09375 
Q 47.21875 7.46875 41.1875 3.015625 
Q 35.15625 -1.421875 24.609375 -1.421875 
Q 20.21875 -1.421875 15.453125 -0.5625 
Q 10.6875 0.296875 5.421875 2 
L 5.421875 11.28125 
Q 10.40625 8.6875 15.234375 7.390625 
Q 20.0625 6.109375 24.8125 6.109375 
Q 31.15625 6.109375 34.5625 8.28125 
Q 37.984375 10.453125 37.984375 14.40625 
Q 37.984375 18.0625 35.515625 20.015625 
Q 33.0625 21.96875 24.703125 23.78125 
L 21.578125 24.515625 
Q 13.234375 26.265625 9.515625 29.90625 
Q 5.8125 33.546875 5.8125 39.890625 
Q 5.8125 47.609375 11.28125 51.796875 
Q 16.75 56 26.8125 56 
Q 31.78125 56 36.171875 55.265625 
Q 40.578125 54.546875 44.28125 53.078125 
z
" id="DejaVuSans-115"/>
     </defs>
     <g transform="translate(162.668984 318.493964)scale(0.11 -0.11)">
      <use xlink:href="#DejaVuSans-78"/>
      <use x="74.804688" xlink:href="#DejaVuSans-117"/>
      <use x="138.183594" xlink:href="#DejaVuSans-109"/>
      <use x="235.595703" xlink:href="#DejaVuSans-98"/>
      <use x="299.072266" xlink:href="#DejaVuSans-101"/>
      <use x="360.595703" xlink:href="#DejaVuSans-114"/>
      <use x="401.708984" xlink:href="#DejaVuSans-32"/>
      <use x="433.496094" xlink:href="#DejaVuSans-111"/>
      <use x="494.677734" xlink:href="#DejaVuSans-102"/>
      <use x="529.882812" xlink:href="#DejaVuSans-32"/>
      <use x="561.669922" xlink:href="#DejaVuSans-80"/>
      <use x="621.910156" xlink:href="#DejaVuSans-97"/>
      <use x="683.189453" xlink:href="#DejaVuSans-114"/>
      <use x="724.302734" xlink:href="#DejaVuSans-116"/>
      <use x="763.511719" xlink:href="#DejaVuSans-105"/>
      <use x="791.294922" xlink:href="#DejaVuSans-116"/>
      <use x="830.503906" xlink:href="#DejaVuSans-105"/>
      <use x="858.287109" xlink:href="#DejaVuSans-111"/>
      <use x="919.46875" xlink:href="#DejaVuSans-110"/>
      <use x="982.847656" xlink:href="#DejaVuSans-115"/>
     </g>
    </g>
   </g>
   <g id="matplotlib.axis_2">
    <g id="ytick_1">
     <g id="line2d_15">
      <path clip-path="url(#p62a5c0b1b9)" d="M 46.789688 244.655695 
L 403.909688 244.655695 
" style="fill:none;stroke:#d3d3d3;"/>
     </g>
     <g id="line2d_16">
      <path d="M 46.789688 244.655695 
" style="fill:none;stroke:#333333;stroke-width:1.5;"/>
      <defs>
       <path d="M 0 0 
L -2.75 0 
" id="m8b452b8cde" style="stroke:#333333;"/>
      </defs>
      <g>
       <use style="fill:#333333;stroke:#333333;" x="46.789688" xlink:href="#m8b452b8cde" y="244.655695"/>
      </g>
     </g>
     <g id="text_6">
      <!-- 0.25 -->
      <defs>
       <path d="M 10.6875 12.40625 
L 21 12.40625 
L 21 0 
L 10.6875 0 
z
" id="DejaVuSans-46"/>
       <path d="M 10.796875 72.90625 
L 49.515625 72.90625 
L 49.515625 64.59375 
L 19.828125 64.59375 
L 19.828125 46.734375 
Q 21.96875 47.46875 24.109375 47.828125 
Q 26.265625 48.1875 28.421875 48.1875 
Q 40.625 48.1875 47.75 41.5 
Q 54.890625 34.8125 54.890625 23.390625 
Q 54.890625 11.625 47.5625 5.09375 
Q 40.234375 -1.421875 26.90625 -1.421875 
Q 22.3125 -1.421875 17.546875 -0.640625 
Q 12.796875 0.140625 7.71875 1.703125 
L 7.71875 11.625 
Q 12.109375 9.234375 16.796875 8.0625 
Q 21.484375 6.890625 26.703125 6.890625 
Q 35.15625 6.890625 40.078125 11.328125 
Q 45.015625 15.765625 45.015625 23.390625 
Q 45.015625 31 40.078125 35.4375 
Q 35.15625 39.890625 26.703125 39.890625 
Q 22.75 39.890625 18.8125 39.015625 
Q 14.890625 38.140625 10.796875 36.28125 
z
" id="DejaVuSans-53"/>
      </defs>
      <g style="fill:#4d4d4d;" transform="translate(22.245938 247.083945)scale(0.088 -0.088)">
       <use xlink:href="#DejaVuSans-48"/>
       <use x="63.623047" xlink:href="#DejaVuSans-46"/>
       <use x="95.410156" xlink:href="#DejaVuSans-50"/>
       <use x="159.033203" xlink:href="#DejaVuSans-53"/>
      </g>
     </g>
    </g>
    <g id="ytick_2">
     <g id="line2d_17">
      <path clip-path="url(#p62a5c0b1b9)" d="M 46.789688 175.854128 
L 403.909688 175.854128 
" style="fill:none;stroke:#d3d3d3;"/>
     </g>
     <g id="line2d_18">
      <path d="M 46.789688 175.854128 
" style="fill:none;stroke:#333333;stroke-width:1.5;"/>
      <g>
       <use style="fill:#333333;stroke:#333333;" x="46.789688" xlink:href="#m8b452b8cde" y="175.854128"/>
      </g>
     </g>
     <g id="text_7">
      <!-- 0.50 -->
      <g style="fill:#4d4d4d;" transform="translate(22.245938 178.282378)scale(0.088 -0.088)">
       <use xlink:href="#DejaVuSans-48"/>
       <use x="63.623047" xlink:href="#DejaVuSans-46"/>
       <use x="95.410156" xlink:href="#DejaVuSans-53"/>
       <use x="159.033203" xlink:href="#DejaVuSans-48"/>
      </g>
     </g>
    </g>
    <g id="ytick_3">
     <g id="line2d_19">
      <path clip-path="url(#p62a5c0b1b9)" d="M 46.789688 107.052561 
L 403.909688 107.052561 
" style="fill:none;stroke:#d3d3d3;"/>
     </g>
     <g id="line2d_20">
      <path d="M 46.789688 107.052561 
" style="fill:none;stroke:#333333;stroke-width:1.5;"/>
      <g>
       <use style="fill:#333333;stroke:#333333;" x="46.789688" xlink:href="#m8b452b8cde" y="107.052561"/>
      </g>
     </g>
     <g id="text_8">
      <!-- 0.75 -->
      <defs>
       <path d="M 8.203125 72.90625 
L 55.078125 72.90625 
L 55.078125 68.703125 
L 28.609375 0 
L 18.3125 0 
L 43.21875 64.59375 
L 8.203125 64.59375 
z
" id="DejaVuSans-55"/>
      </defs>
      <g style="fill:#4d4d4d;" transform="translate(22.245938 109.480811)scale(0.088 -0.088)">
       <use xlink:href="#DejaVuSans-48"/>
       <use x="63.623047" xlink:href="#DejaVuSans-46"/>
       <use x="95.410156" xlink:href="#DejaVuSans-55"/>
       <use x="159.033203" xlink:href="#DejaVuSans-53"/>
      </g>
     </g>
    </g>
    <g id="ytick_4">
     <g id="line2d_21">
      <path clip-path="url(#p62a5c0b1b9)" d="M 46.789688 38.250994 
L 403.909688 38.250994 
" style="fill:none;stroke:#d3d3d3;"/>
     </g>
     <g id="line2d_22">
      <path d="M 46.789688 38.250994 
" style="fill:none;stroke:#333333;stroke-width:1.5;"/>
      <g>
       <use style="fill:#333333;stroke:#333333;" x="46.789688" xlink:href="#m8b452b8cde" y="38.250994"/>
      </g>
     </g>
     <g id="text_9">
      <!-- 1 -->
      <defs>
       <path d="M 12.40625 8.296875 
L 28.515625 8.296875 
L 28.515625 63.921875 
L 10.984375 60.40625 
L 10.984375 69.390625 
L 28.421875 72.90625 
L 38.28125 72.90625 
L 38.28125 8.296875 
L 54.390625 8.296875 
L 54.390625 0 
L 12.40625 0 
z
" id="DejaVuSans-49"/>
      </defs>
      <g style="fill:#4d4d4d;" transform="translate(36.240688 40.679244)scale(0.088 -0.088)">
       <use xlink:href="#DejaVuSans-49"/>
      </g>
     </g>
    </g>
    <g id="ytick_5">
     <g id="line2d_23">
      <path clip-path="url(#p62a5c0b1b9)" d="M 46.789688 279.056478 
L 403.909688 279.056478 
" style="fill:none;stroke:#ffffff;stroke-width:0.5;"/>
     </g>
     <g id="line2d_24">
      <path d="M 46.789688 279.056478 
" style="fill:none;stroke:#333333;stroke-width:1.5;"/>
     </g>
    </g>
    <g id="ytick_6">
     <g id="line2d_25">
      <path clip-path="url(#p62a5c0b1b9)" d="M 46.789688 210.254911 
L 403.909688 210.254911 
" style="fill:none;stroke:#ffffff;stroke-width:0.5;"/>
     </g>
     <g id="line2d_26">
      <path d="M 46.789688 210.254911 
" style="fill:none;stroke:#333333;stroke-width:1.5;"/>
     </g>
    </g>
    <g id="ytick_7">
     <g id="line2d_27">
      <path clip-path="url(#p62a5c0b1b9)" d="M 46.789688 141.453344 
L 403.909688 141.453344 
" style="fill:none;stroke:#ffffff;stroke-width:0.5;"/>
     </g>
     <g id="line2d_28">
      <path d="M 46.789688 141.453344 
" style="fill:none;stroke:#333333;stroke-width:1.5;"/>
     </g>
    </g>
    <g id="ytick_8">
     <g id="line2d_29">
      <path clip-path="url(#p62a5c0b1b9)" d="M 46.789688 72.651777 
L 403.909688 72.651777 
" style="fill:none;stroke:#ffffff;stroke-width:0.5;"/>
     </g>
     <g id="line2d_30">
      <path d="M 46.789688 72.651777 
" style="fill:none;stroke:#333333;stroke-width:1.5;"/>
     </g>
    </g>
    <g id="text_10">
     <!-- Similarity score (SVCCA) -->
     <defs>
      <path d="M 53.515625 70.515625 
L 53.515625 60.890625 
Q 47.90625 63.578125 42.921875 64.890625 
Q 37.9375 66.21875 33.296875 66.21875 
Q 25.25 66.21875 20.875 63.09375 
Q 16.5 59.96875 16.5 54.203125 
Q 16.5 49.359375 19.40625 46.890625 
Q 22.3125 44.4375 30.421875 42.921875 
L 36.375 41.703125 
Q 47.40625 39.59375 52.65625 34.296875 
Q 57.90625 29 57.90625 20.125 
Q 57.90625 9.515625 50.796875 4.046875 
Q 43.703125 -1.421875 29.984375 -1.421875 
Q 24.8125 -1.421875 18.96875 -0.25 
Q 13.140625 0.921875 6.890625 3.21875 
L 6.890625 13.375 
Q 12.890625 10.015625 18.65625 8.296875 
Q 24.421875 6.59375 29.984375 6.59375 
Q 38.421875 6.59375 43.015625 9.90625 
Q 47.609375 13.234375 47.609375 19.390625 
Q 47.609375 24.75 44.3125 27.78125 
Q 41.015625 30.8125 33.5 32.328125 
L 27.484375 33.5 
Q 16.453125 35.6875 11.515625 40.375 
Q 6.59375 45.0625 6.59375 53.421875 
Q 6.59375 63.09375 13.40625 68.65625 
Q 20.21875 74.21875 32.171875 74.21875 
Q 37.3125 74.21875 42.625 73.28125 
Q 47.953125 72.359375 53.515625 70.515625 
z
" id="DejaVuSans-83"/>
      <path d="M 9.421875 75.984375 
L 18.40625 75.984375 
L 18.40625 0 
L 9.421875 0 
z
" id="DejaVuSans-108"/>
      <path d="M 32.171875 -5.078125 
Q 28.375 -14.84375 24.75 -17.8125 
Q 21.140625 -20.796875 15.09375 -20.796875 
L 7.90625 -20.796875 
L 7.90625 -13.28125 
L 13.1875 -13.28125 
Q 16.890625 -13.28125 18.9375 -11.515625 
Q 21 -9.765625 23.484375 -3.21875 
L 25.09375 0.875 
L 2.984375 54.6875 
L 12.5 54.6875 
L 29.59375 11.921875 
L 46.6875 54.6875 
L 56.203125 54.6875 
z
" id="DejaVuSans-121"/>
      <path d="M 48.78125 52.59375 
L 48.78125 44.1875 
Q 44.96875 46.296875 41.140625 47.34375 
Q 37.3125 48.390625 33.40625 48.390625 
Q 24.65625 48.390625 19.8125 42.84375 
Q 14.984375 37.3125 14.984375 27.296875 
Q 14.984375 17.28125 19.8125 11.734375 
Q 24.65625 6.203125 33.40625 6.203125 
Q 37.3125 6.203125 41.140625 7.25 
Q 44.96875 8.296875 48.78125 10.40625 
L 48.78125 2.09375 
Q 45.015625 0.34375 40.984375 -0.53125 
Q 36.96875 -1.421875 32.421875 -1.421875 
Q 20.0625 -1.421875 12.78125 6.34375 
Q 5.515625 14.109375 5.515625 27.296875 
Q 5.515625 40.671875 12.859375 48.328125 
Q 20.21875 56 33.015625 56 
Q 37.15625 56 41.109375 55.140625 
Q 45.0625 54.296875 48.78125 52.59375 
z
" id="DejaVuSans-99"/>
      <path d="M 31 75.875 
Q 24.46875 64.65625 21.28125 53.65625 
Q 18.109375 42.671875 18.109375 31.390625 
Q 18.109375 20.125 21.3125 9.0625 
Q 24.515625 -2 31 -13.1875 
L 23.1875 -13.1875 
Q 15.875 -1.703125 12.234375 9.375 
Q 8.59375 20.453125 8.59375 31.390625 
Q 8.59375 42.28125 12.203125 53.3125 
Q 15.828125 64.359375 23.1875 75.875 
z
" id="DejaVuSans-40"/>
      <path d="M 28.609375 0 
L 0.78125 72.90625 
L 11.078125 72.90625 
L 34.1875 11.53125 
L 57.328125 72.90625 
L 67.578125 72.90625 
L 39.796875 0 
z
" id="DejaVuSans-86"/>
      <path d="M 64.40625 67.28125 
L 64.40625 56.890625 
Q 59.421875 61.53125 53.78125 63.8125 
Q 48.140625 66.109375 41.796875 66.109375 
Q 29.296875 66.109375 22.65625 58.46875 
Q 16.015625 50.828125 16.015625 36.375 
Q 16.015625 21.96875 22.65625 14.328125 
Q 29.296875 6.6875 41.796875 6.6875 
Q 48.140625 6.6875 53.78125 8.984375 
Q 59.421875 11.28125 64.40625 15.921875 
L 64.40625 5.609375 
Q 59.234375 2.09375 53.4375 0.328125 
Q 47.65625 -1.421875 41.21875 -1.421875 
Q 24.65625 -1.421875 15.125 8.703125 
Q 5.609375 18.84375 5.609375 36.375 
Q 5.609375 53.953125 15.125 64.078125 
Q 24.65625 74.21875 41.21875 74.21875 
Q 47.75 74.21875 53.53125 72.484375 
Q 59.328125 70.75 64.40625 67.28125 
z
" id="DejaVuSans-67"/>
      <path d="M 34.1875 63.1875 
L 20.796875 26.90625 
L 47.609375 26.90625 
z
M 28.609375 72.90625 
L 39.796875 72.90625 
L 67.578125 0 
L 57.328125 0 
L 50.6875 18.703125 
L 17.828125 18.703125 
L 11.1875 0 
L 0.78125 0 
z
" id="DejaVuSans-65"/>
      <path d="M 8.015625 75.875 
L 15.828125 75.875 
Q 23.140625 64.359375 26.78125 53.3125 
Q 30.421875 42.28125 30.421875 31.390625 
Q 30.421875 20.453125 26.78125 9.375 
Q 23.140625 -1.703125 15.828125 -13.1875 
L 8.015625 -13.1875 
Q 14.5 -2 17.703125 9.0625 
Q 20.90625 20.125 20.90625 31.390625 
Q 20.90625 42.671875 17.703125 53.65625 
Q 14.5 64.65625 8.015625 75.875 
z
" id="DejaVuSans-41"/>
     </defs>
     <g transform="translate(15.558281 224.871964)rotate(-90)scale(0.11 -0.11)">
      <use xlink:href="#DejaVuSans-83"/>
      <use x="63.476562" xlink:href="#DejaVuSans-105"/>
      <use x="91.259766" xlink:href="#DejaVuSans-109"/>
      <use x="188.671875" xlink:href="#DejaVuSans-105"/>
      <use x="216.455078" xlink:href="#DejaVuSans-108"/>
      <use x="244.238281" xlink:href="#DejaVuSans-97"/>
      <use x="305.517578" xlink:href="#DejaVuSans-114"/>
      <use x="346.630859" xlink:href="#DejaVuSans-105"/>
      <use x="374.414062" xlink:href="#DejaVuSans-116"/>
      <use x="413.623047" xlink:href="#DejaVuSans-121"/>
      <use x="472.802734" xlink:href="#DejaVuSans-32"/>
      <use x="504.589844" xlink:href="#DejaVuSans-115"/>
      <use x="556.689453" xlink:href="#DejaVuSans-99"/>
      <use x="611.669922" xlink:href="#DejaVuSans-111"/>
      <use x="672.851562" xlink:href="#DejaVuSans-114"/>
      <use x="713.933594" xlink:href="#DejaVuSans-101"/>
      <use x="775.457031" xlink:href="#DejaVuSans-32"/>
      <use x="807.244141" xlink:href="#DejaVuSans-40"/>
      <use x="846.257812" xlink:href="#DejaVuSans-83"/>
      <use x="909.734375" xlink:href="#DejaVuSans-86"/>
      <use x="978.142578" xlink:href="#DejaVuSans-67"/>
      <use x="1047.966797" xlink:href="#DejaVuSans-67"/>
      <use x="1117.791016" xlink:href="#DejaVuSans-65"/>
      <use x="1186.199219" xlink:href="#DejaVuSans-41"/>
     </g>
    </g>
   </g>
   <g id="line2d_31">
    <path clip-path="url(#p62a5c0b1b9)" d="M 63.1578 38.252964 
L 63.699343 38.615221 
L 64.240885 39.012676 
L 65.323969 39.716785 
L 68.03168 41.439209 
L 73.447102 45.635218 
L 78.862524 51.147112 
L 89.693368 54.56032 
L 100.524212 57.911442 
L 116.770478 69.126569 
L 170.924697 94.279534 
L 225.078916 110.432387 
L 279.233136 125.131927 
L 333.387355 148.654162 
L 387.541575 169.660375 
" style="fill:none;stroke:#1976d2;stroke-width:2.658681;"/>
   </g>
   <g id="line2d_32">
    <path clip-path="url(#p62a5c0b1b9)" d="M 63.1578 38.253057 
L 63.699343 63.837083 
L 64.240885 90.180272 
L 65.323969 139.217994 
L 68.03168 247.025656 
L 73.447102 224.727525 
L 78.862524 212.714078 
L 89.693368 198.536593 
L 100.524212 178.930434 
L 116.770478 154.373002 
L 170.924697 122.737246 
L 225.078916 113.77141 
L 279.233136 109.577511 
L 333.387355 105.152747 
L 387.541575 104.115337 
" style="fill:none;stroke:#b3e5fc;stroke-width:2.658681;"/>
   </g>
   <g id="PathCollection_1">
    <path clip-path="url(#p62a5c0b1b9)" d="M 63.1578 39.139284 
C 63.39283 39.139284 63.618266 39.045906 63.784457 38.879714 
C 63.950649 38.713523 64.044027 38.488087 64.044027 38.253057 
C 64.044027 38.018027 63.950649 37.792591 63.784457 37.6264 
C 63.618266 37.460209 63.39283 37.36683 63.1578 37.36683 
C 62.92277 37.36683 62.697335 37.460209 62.531143 37.6264 
C 62.364952 37.792591 62.271573 38.018027 62.271573 38.253057 
C 62.271573 38.488087 62.364952 38.713523 62.531143 38.879714 
C 62.697335 39.045906 62.92277 39.139284 63.1578 39.139284 
z
" style="fill:#a9a9a9;stroke:#a9a9a9;stroke-width:0.886227;"/>
    <path clip-path="url(#p62a5c0b1b9)" d="M 63.699343 64.72331 
C 63.934373 64.72331 64.159808 64.629931 64.326 64.46374 
C 64.492191 64.297548 64.585569 64.072113 64.585569 63.837083 
C 64.585569 63.602053 64.492191 63.376617 64.326 63.210426 
C 64.159808 63.044234 63.934373 62.950856 63.699343 62.950856 
C 63.464312 62.950856 63.238877 63.044234 63.072685 63.210426 
C 62.906494 63.376617 62.813116 63.602053 62.813116 63.837083 
C 62.813116 64.072113 62.906494 64.297548 63.072685 64.46374 
C 63.238877 64.629931 63.464312 64.72331 63.699343 64.72331 
z
" style="fill:#a9a9a9;stroke:#a9a9a9;stroke-width:0.886227;"/>
    <path clip-path="url(#p62a5c0b1b9)" d="M 64.240885 91.066499 
C 64.475915 91.066499 64.70135 90.973121 64.867542 90.806929 
C 65.033733 90.640738 65.127112 90.415302 65.127112 90.180272 
C 65.127112 89.945242 65.033733 89.719807 64.867542 89.553615 
C 64.70135 89.387424 64.475915 89.294045 64.240885 89.294045 
C 64.005855 89.294045 63.780419 89.387424 63.614228 89.553615 
C 63.448036 89.719807 63.354658 89.945242 63.354658 90.180272 
C 63.354658 90.415302 63.448036 90.640738 63.614228 90.806929 
C 63.780419 90.973121 64.005855 91.066499 64.240885 91.066499 
z
" style="fill:#a9a9a9;stroke:#a9a9a9;stroke-width:0.886227;"/>
    <path clip-path="url(#p62a5c0b1b9)" d="M 65.323969 140.104221 
C 65.558999 140.104221 65.784435 140.010843 65.950626 139.844652 
C 66.116818 139.67846 66.210196 139.453025 66.210196 139.217994 
C 66.210196 138.982964 66.116818 138.757529 65.950626 138.591337 
C 65.784435 138.425146 65.558999 138.331768 65.323969 138.331768 
C 65.088939 138.331768 64.863503 138.425146 64.697312 138.591337 
C 64.531121 138.757529 64.437742 138.982964 64.437742 139.217994 
C 64.437742 139.453025 64.531121 139.67846 64.697312 139.844652 
C 64.863503 140.010843 65.088939 140.104221 65.323969 140.104221 
z
" style="fill:#a9a9a9;stroke:#a9a9a9;stroke-width:0.886227;"/>
    <path clip-path="url(#p62a5c0b1b9)" d="M 68.03168 247.911883 
C 68.26671 247.911883 68.492146 247.818504 68.658337 247.652313 
C 68.824529 247.486121 68.917907 247.260686 68.917907 247.025656 
C 68.917907 246.790626 68.824529 246.56519 68.658337 246.398999 
C 68.492146 246.232807 68.26671 246.139429 68.03168 246.139429 
C 67.79665 246.139429 67.571214 246.232807 67.405023 246.398999 
C 67.238832 246.56519 67.145453 246.790626 67.145453 247.025656 
C 67.145453 247.260686 67.238832 247.486121 67.405023 247.652313 
C 67.571214 247.818504 67.79665 247.911883 68.03168 247.911883 
z
" style="fill:#a9a9a9;stroke:#a9a9a9;stroke-width:0.886227;"/>
    <path clip-path="url(#p62a5c0b1b9)" d="M 73.447102 225.613752 
C 73.682132 225.613752 73.907568 225.520373 74.073759 225.354182 
C 74.23995 225.187991 74.333329 224.962555 74.333329 224.727525 
C 74.333329 224.492495 74.23995 224.267059 74.073759 224.100868 
C 73.907568 223.934676 73.682132 223.841298 73.447102 223.841298 
C 73.212072 223.841298 72.986636 223.934676 72.820445 224.100868 
C 72.654254 224.267059 72.560875 224.492495 72.560875 224.727525 
C 72.560875 224.962555 72.654254 225.187991 72.820445 225.354182 
C 72.986636 225.520373 73.212072 225.613752 73.447102 225.613752 
z
" style="fill:#a9a9a9;stroke:#a9a9a9;stroke-width:0.886227;"/>
    <path clip-path="url(#p62a5c0b1b9)" d="M 78.862524 213.600305 
C 79.097554 213.600305 79.32299 213.506926 79.489181 213.340735 
C 79.655372 213.174543 79.748751 212.949108 79.748751 212.714078 
C 79.748751 212.479048 79.655372 212.253612 79.489181 212.087421 
C 79.32299 211.921229 79.097554 211.827851 78.862524 211.827851 
C 78.627494 211.827851 78.402058 211.921229 78.235867 212.087421 
C 78.069675 212.253612 77.976297 212.479048 77.976297 212.714078 
C 77.976297 212.949108 78.069675 213.174543 78.235867 213.340735 
C 78.402058 213.506926 78.627494 213.600305 78.862524 213.600305 
z
" style="fill:#a9a9a9;stroke:#a9a9a9;stroke-width:0.886227;"/>
    <path clip-path="url(#p62a5c0b1b9)" d="M 89.693368 199.42282 
C 89.928398 199.42282 90.153834 199.329442 90.320025 199.16325 
C 90.486216 198.997059 90.579595 198.771623 90.579595 198.536593 
C 90.579595 198.301563 90.486216 198.076128 90.320025 197.909936 
C 90.153834 197.743745 89.928398 197.650366 89.693368 197.650366 
C 89.458338 197.650366 89.232902 197.743745 89.066711 197.909936 
C 88.900519 198.076128 88.807141 198.301563 88.807141 198.536593 
C 88.807141 198.771623 88.900519 198.997059 89.066711 199.16325 
C 89.232902 199.329442 89.458338 199.42282 89.693368 199.42282 
z
" style="fill:#a9a9a9;stroke:#a9a9a9;stroke-width:0.886227;"/>
    <path clip-path="url(#p62a5c0b1b9)" d="M 100.524212 179.816661 
C 100.759242 179.816661 100.984677 179.723283 101.150869 179.557091 
C 101.31706 179.3909 101.410439 179.165464 101.410439 178.930434 
C 101.410439 178.695404 101.31706 178.469968 101.150869 178.303777 
C 100.984677 178.137586 100.759242 178.044207 100.524212 178.044207 
C 100.289182 178.044207 100.063746 178.137586 99.897555 178.303777 
C 99.731363 178.469968 99.637985 178.695404 99.637985 178.930434 
C 99.637985 179.165464 99.731363 179.3909 99.897555 179.557091 
C 100.063746 179.723283 100.289182 179.816661 100.524212 179.816661 
z
" style="fill:#a9a9a9;stroke:#a9a9a9;stroke-width:0.886227;"/>
    <path clip-path="url(#p62a5c0b1b9)" d="M 116.770478 155.259229 
C 117.005508 155.259229 117.230943 155.165851 117.397135 154.999659 
C 117.563326 154.833468 117.656704 154.608032 117.656704 154.373002 
C 117.656704 154.137972 117.563326 153.912537 117.397135 153.746345 
C 117.230943 153.580154 117.005508 153.486775 116.770478 153.486775 
C 116.535447 153.486775 116.310012 153.580154 116.14382 153.746345 
C 115.977629 153.912537 115.884251 154.137972 115.884251 154.373002 
C 115.884251 154.608032 115.977629 154.833468 116.14382 154.999659 
C 116.310012 155.165851 116.535447 155.259229 116.770478 155.259229 
z
" style="fill:#a9a9a9;stroke:#a9a9a9;stroke-width:0.886227;"/>
    <path clip-path="url(#p62a5c0b1b9)" d="M 170.924697 123.623473 
C 171.159727 123.623473 171.385163 123.530095 171.551354 123.363903 
C 171.717545 123.197712 171.810924 122.972276 171.810924 122.737246 
C 171.810924 122.502216 171.717545 122.27678 171.551354 122.110589 
C 171.385163 121.944398 171.159727 121.851019 170.924697 121.851019 
C 170.689667 121.851019 170.464231 121.944398 170.29804 122.110589 
C 170.131849 122.27678 170.03847 122.502216 170.03847 122.737246 
C 170.03847 122.972276 170.131849 123.197712 170.29804 123.363903 
C 170.464231 123.530095 170.689667 123.623473 170.924697 123.623473 
z
" style="fill:#a9a9a9;stroke:#a9a9a9;stroke-width:0.886227;"/>
    <path clip-path="url(#p62a5c0b1b9)" d="M 225.078916 114.657637 
C 225.313947 114.657637 225.539382 114.564258 225.705573 114.398067 
C 225.871765 114.231876 225.965143 114.00644 225.965143 113.77141 
C 225.965143 113.53638 225.871765 113.310944 225.705573 113.144753 
C 225.539382 112.978562 225.313947 112.885183 225.078916 112.885183 
C 224.843886 112.885183 224.618451 112.978562 224.452259 113.144753 
C 224.286068 113.310944 224.192689 113.53638 224.192689 113.77141 
C 224.192689 114.00644 224.286068 114.231876 224.452259 114.398067 
C 224.618451 114.564258 224.843886 114.657637 225.078916 114.657637 
z
" style="fill:#a9a9a9;stroke:#a9a9a9;stroke-width:0.886227;"/>
    <path clip-path="url(#p62a5c0b1b9)" d="M 279.233136 110.463738 
C 279.468166 110.463738 279.693601 110.37036 279.859793 110.204168 
C 280.025984 110.037977 280.119363 109.812542 280.119363 109.577511 
C 280.119363 109.342481 280.025984 109.117046 279.859793 108.950854 
C 279.693601 108.784663 279.468166 108.691284 279.233136 108.691284 
C 278.998106 108.691284 278.77267 108.784663 278.606479 108.950854 
C 278.440287 109.117046 278.346909 109.342481 278.346909 109.577511 
C 278.346909 109.812542 278.440287 110.037977 278.606479 110.204168 
C 278.77267 110.37036 278.998106 110.463738 279.233136 110.463738 
z
" style="fill:#a9a9a9;stroke:#a9a9a9;stroke-width:0.886227;"/>
    <path clip-path="url(#p62a5c0b1b9)" d="M 333.387355 106.038974 
C 333.622385 106.038974 333.847821 105.945595 334.014012 105.779404 
C 334.180204 105.613212 334.273582 105.387777 334.273582 105.152747 
C 334.273582 104.917717 334.180204 104.692281 334.014012 104.52609 
C 333.847821 104.359898 333.622385 104.26652 333.387355 104.26652 
C 333.152325 104.26652 332.92689 104.359898 332.760698 104.52609 
C 332.594507 104.692281 332.501128 104.917717 332.501128 105.152747 
C 332.501128 105.387777 332.594507 105.613212 332.760698 105.779404 
C 332.92689 105.945595 333.152325 106.038974 333.387355 106.038974 
z
" style="fill:#a9a9a9;stroke:#a9a9a9;stroke-width:0.886227;"/>
    <path clip-path="url(#p62a5c0b1b9)" d="M 387.541575 105.001564 
C 387.776605 105.001564 388.00204 104.908185 388.168232 104.741994 
C 388.334423 104.575803 388.427802 104.350367 388.427802 104.115337 
C 388.427802 103.880307 388.334423 103.654871 388.168232 103.48868 
C 388.00204 103.322489 387.776605 103.22911 387.541575 103.22911 
C 387.306545 103.22911 387.081109 103.322489 386.914918 103.48868 
C 386.748726 103.654871 386.655348 103.880307 386.655348 104.115337 
C 386.655348 104.350367 386.748726 104.575803 386.914918 104.741994 
C 387.081109 104.908185 387.306545 105.001564 387.541575 105.001564 
z
" style="fill:#a9a9a9;stroke:#a9a9a9;stroke-width:0.886227;"/>
    <path clip-path="url(#p62a5c0b1b9)" d="M 63.1578 39.139191 
C 63.39283 39.139191 63.618266 39.045813 63.784457 38.879621 
C 63.950649 38.71343 64.044027 38.487994 64.044027 38.252964 
C 64.044027 38.017934 63.950649 37.792498 63.784457 37.626307 
C 63.618266 37.460116 63.39283 37.366737 63.1578 37.366737 
C 62.92277 37.366737 62.697335 37.460116 62.531143 37.626307 
C 62.364952 37.792498 62.271573 38.017934 62.271573 38.252964 
C 62.271573 38.487994 62.364952 38.71343 62.531143 38.879621 
C 62.697335 39.045813 62.92277 39.139191 63.1578 39.139191 
z
" style="fill:#a9a9a9;stroke:#a9a9a9;stroke-width:0.886227;"/>
    <path clip-path="url(#p62a5c0b1b9)" d="M 63.699343 39.501448 
C 63.934373 39.501448 64.159808 39.408069 64.326 39.241878 
C 64.492191 39.075687 64.585569 38.850251 64.585569 38.615221 
C 64.585569 38.380191 64.492191 38.154755 64.326 37.988564 
C 64.159808 37.822373 63.934373 37.728994 63.699343 37.728994 
C 63.464312 37.728994 63.238877 37.822373 63.072685 37.988564 
C 62.906494 38.154755 62.813116 38.380191 62.813116 38.615221 
C 62.813116 38.850251 62.906494 39.075687 63.072685 39.241878 
C 63.238877 39.408069 63.464312 39.501448 63.699343 39.501448 
z
" style="fill:#a9a9a9;stroke:#a9a9a9;stroke-width:0.886227;"/>
    <path clip-path="url(#p62a5c0b1b9)" d="M 64.240885 39.898903 
C 64.475915 39.898903 64.70135 39.805524 64.867542 39.639333 
C 65.033733 39.473141 65.127112 39.247706 65.127112 39.012676 
C 65.127112 38.777646 65.033733 38.55221 64.867542 38.386019 
C 64.70135 38.219827 64.475915 38.126449 64.240885 38.126449 
C 64.005855 38.126449 63.780419 38.219827 63.614228 38.386019 
C 63.448036 38.55221 63.354658 38.777646 63.354658 39.012676 
C 63.354658 39.247706 63.448036 39.473141 63.614228 39.639333 
C 63.780419 39.805524 64.005855 39.898903 64.240885 39.898903 
z
" style="fill:#a9a9a9;stroke:#a9a9a9;stroke-width:0.886227;"/>
    <path clip-path="url(#p62a5c0b1b9)" d="M 65.323969 40.603012 
C 65.558999 40.603012 65.784435 40.509634 65.950626 40.343442 
C 66.116818 40.177251 66.210196 39.951815 66.210196 39.716785 
C 66.210196 39.481755 66.116818 39.25632 65.950626 39.090128 
C 65.784435 38.923937 65.558999 38.830558 65.323969 38.830558 
C 65.088939 38.830558 64.863503 38.923937 64.697312 39.090128 
C 64.531121 39.25632 64.437742 39.481755 64.437742 39.716785 
C 64.437742 39.951815 64.531121 40.177251 64.697312 40.343442 
C 64.863503 40.509634 65.088939 40.603012 65.323969 40.603012 
z
" style="fill:#a9a9a9;stroke:#a9a9a9;stroke-width:0.886227;"/>
    <path clip-path="url(#p62a5c0b1b9)" d="M 68.03168 42.325436 
C 68.26671 42.325436 68.492146 42.232057 68.658337 42.065866 
C 68.824529 41.899674 68.917907 41.674239 68.917907 41.439209 
C 68.917907 41.204179 68.824529 40.978743 68.658337 40.812552 
C 68.492146 40.64636 68.26671 40.552982 68.03168 40.552982 
C 67.79665 40.552982 67.571214 40.64636 67.405023 40.812552 
C 67.238832 40.978743 67.145453 41.204179 67.145453 41.439209 
C 67.145453 41.674239 67.238832 41.899674 67.405023 42.065866 
C 67.571214 42.232057 67.79665 42.325436 68.03168 42.325436 
z
" style="fill:#a9a9a9;stroke:#a9a9a9;stroke-width:0.886227;"/>
    <path clip-path="url(#p62a5c0b1b9)" d="M 73.447102 46.521445 
C 73.682132 46.521445 73.907568 46.428066 74.073759 46.261875 
C 74.23995 46.095684 74.333329 45.870248 74.333329 45.635218 
C 74.333329 45.400188 74.23995 45.174752 74.073759 45.008561 
C 73.907568 44.84237 73.682132 44.748991 73.447102 44.748991 
C 73.212072 44.748991 72.986636 44.84237 72.820445 45.008561 
C 72.654254 45.174752 72.560875 45.400188 72.560875 45.635218 
C 72.560875 45.870248 72.654254 46.095684 72.820445 46.261875 
C 72.986636 46.428066 73.212072 46.521445 73.447102 46.521445 
z
" style="fill:#a9a9a9;stroke:#a9a9a9;stroke-width:0.886227;"/>
    <path clip-path="url(#p62a5c0b1b9)" d="M 78.862524 52.033339 
C 79.097554 52.033339 79.32299 51.93996 79.489181 51.773769 
C 79.655372 51.607577 79.748751 51.382142 79.748751 51.147112 
C 79.748751 50.912082 79.655372 50.686646 79.489181 50.520455 
C 79.32299 50.354263 79.097554 50.260885 78.862524 50.260885 
C 78.627494 50.260885 78.402058 50.354263 78.235867 50.520455 
C 78.069675 50.686646 77.976297 50.912082 77.976297 51.147112 
C 77.976297 51.382142 78.069675 51.607577 78.235867 51.773769 
C 78.402058 51.93996 78.627494 52.033339 78.862524 52.033339 
z
" style="fill:#a9a9a9;stroke:#a9a9a9;stroke-width:0.886227;"/>
    <path clip-path="url(#p62a5c0b1b9)" d="M 89.693368 55.446547 
C 89.928398 55.446547 90.153834 55.353169 90.320025 55.186977 
C 90.486216 55.020786 90.579595 54.79535 90.579595 54.56032 
C 90.579595 54.32529 90.486216 54.099855 90.320025 53.933663 
C 90.153834 53.767472 89.928398 53.674093 89.693368 53.674093 
C 89.458338 53.674093 89.232902 53.767472 89.066711 53.933663 
C 88.900519 54.099855 88.807141 54.32529 88.807141 54.56032 
C 88.807141 54.79535 88.900519 55.020786 89.066711 55.186977 
C 89.232902 55.353169 89.458338 55.446547 89.693368 55.446547 
z
" style="fill:#a9a9a9;stroke:#a9a9a9;stroke-width:0.886227;"/>
    <path clip-path="url(#p62a5c0b1b9)" d="M 100.524212 58.797668 
C 100.759242 58.797668 100.984677 58.70429 101.150869 58.538099 
C 101.31706 58.371907 101.410439 58.146472 101.410439 57.911442 
C 101.410439 57.676411 101.31706 57.450976 101.150869 57.284784 
C 100.984677 57.118593 100.759242 57.025215 100.524212 57.025215 
C 100.289182 57.025215 100.063746 57.118593 99.897555 57.284784 
C 99.731363 57.450976 99.637985 57.676411 99.637985 57.911442 
C 99.637985 58.146472 99.731363 58.371907 99.897555 58.538099 
C 100.063746 58.70429 100.289182 58.797668 100.524212 58.797668 
z
" style="fill:#a9a9a9;stroke:#a9a9a9;stroke-width:0.886227;"/>
    <path clip-path="url(#p62a5c0b1b9)" d="M 116.770478 70.012796 
C 117.005508 70.012796 117.230943 69.919418 117.397135 69.753226 
C 117.563326 69.587035 117.656704 69.361599 117.656704 69.126569 
C 117.656704 68.891539 117.563326 68.666104 117.397135 68.499912 
C 117.230943 68.333721 117.005508 68.240342 116.770478 68.240342 
C 116.535447 68.240342 116.310012 68.333721 116.14382 68.499912 
C 115.977629 68.666104 115.884251 68.891539 115.884251 69.126569 
C 115.884251 69.361599 115.977629 69.587035 116.14382 69.753226 
C 116.310012 69.919418 116.535447 70.012796 116.770478 70.012796 
z
" style="fill:#a9a9a9;stroke:#a9a9a9;stroke-width:0.886227;"/>
    <path clip-path="url(#p62a5c0b1b9)" d="M 170.924697 95.165761 
C 171.159727 95.165761 171.385163 95.072382 171.551354 94.906191 
C 171.717545 94.74 171.810924 94.514564 171.810924 94.279534 
C 171.810924 94.044504 171.717545 93.819068 171.551354 93.652877 
C 171.385163 93.486685 171.159727 93.393307 170.924697 93.393307 
C 170.689667 93.393307 170.464231 93.486685 170.29804 93.652877 
C 170.131849 93.819068 170.03847 94.044504 170.03847 94.279534 
C 170.03847 94.514564 170.131849 94.74 170.29804 94.906191 
C 170.464231 95.072382 170.689667 95.165761 170.924697 95.165761 
z
" style="fill:#a9a9a9;stroke:#a9a9a9;stroke-width:0.886227;"/>
    <path clip-path="url(#p62a5c0b1b9)" d="M 225.078916 111.318614 
C 225.313947 111.318614 225.539382 111.225236 225.705573 111.059044 
C 225.871765 110.892853 225.965143 110.667418 225.965143 110.432387 
C 225.965143 110.197357 225.871765 109.971922 225.705573 109.80573 
C 225.539382 109.639539 225.313947 109.54616 225.078916 109.54616 
C 224.843886 109.54616 224.618451 109.639539 224.452259 109.80573 
C 224.286068 109.971922 224.192689 110.197357 224.192689 110.432387 
C 224.192689 110.667418 224.286068 110.892853 224.452259 111.059044 
C 224.618451 111.225236 224.843886 111.318614 225.078916 111.318614 
z
" style="fill:#a9a9a9;stroke:#a9a9a9;stroke-width:0.886227;"/>
    <path clip-path="url(#p62a5c0b1b9)" d="M 279.233136 126.018154 
C 279.468166 126.018154 279.693601 125.924776 279.859793 125.758584 
C 280.025984 125.592393 280.119363 125.366957 280.119363 125.131927 
C 280.119363 124.896897 280.025984 124.671462 279.859793 124.50527 
C 279.693601 124.339079 279.468166 124.2457 279.233136 124.2457 
C 278.998106 124.2457 278.77267 124.339079 278.606479 124.50527 
C 278.440287 124.671462 278.346909 124.896897 278.346909 125.131927 
C 278.346909 125.366957 278.440287 125.592393 278.606479 125.758584 
C 278.77267 125.924776 278.998106 126.018154 279.233136 126.018154 
z
" style="fill:#a9a9a9;stroke:#a9a9a9;stroke-width:0.886227;"/>
    <path clip-path="url(#p62a5c0b1b9)" d="M 333.387355 149.540389 
C 333.622385 149.540389 333.847821 149.44701 334.014012 149.280819 
C 334.180204 149.114627 334.273582 148.889192 334.273582 148.654162 
C 334.273582 148.419132 334.180204 148.193696 334.014012 148.027505 
C 333.847821 147.861313 333.622385 147.767935 333.387355 147.767935 
C 333.152325 147.767935 332.92689 147.861313 332.760698 148.027505 
C 332.594507 148.193696 332.501128 148.419132 332.501128 148.654162 
C 332.501128 148.889192 332.594507 149.114627 332.760698 149.280819 
C 332.92689 149.44701 333.152325 149.540389 333.387355 149.540389 
z
" style="fill:#a9a9a9;stroke:#a9a9a9;stroke-width:0.886227;"/>
    <path clip-path="url(#p62a5c0b1b9)" d="M 387.541575 170.546602 
C 387.776605 170.546602 388.00204 170.453224 388.168232 170.287032 
C 388.334423 170.120841 388.427802 169.895405 388.427802 169.660375 
C 388.427802 169.425345 388.334423 169.19991 388.168232 169.033718 
C 388.00204 168.867527 387.776605 168.774148 387.541575 168.774148 
C 387.306545 168.774148 387.081109 168.867527 386.914918 169.033718 
C 386.748726 169.19991 386.655348 169.425345 386.655348 169.660375 
C 386.655348 169.895405 386.748726 170.120841 386.914918 170.287032 
C 387.081109 170.453224 387.306545 170.546602 387.541575 170.546602 
z
" style="fill:#a9a9a9;stroke:#a9a9a9;stroke-width:0.886227;"/>
   </g>
   <g id="patch_3">
    <path d="M 46.789688 292.268933 
L 46.789688 26.156933 
" style="fill:none;stroke:#808080;stroke-linecap:square;stroke-linejoin:miter;"/>
   </g>
   <g id="patch_4">
    <path d="M 46.789688 292.268933 
L 403.909688 292.268933 
" style="fill:none;stroke:#808080;stroke-linecap:square;stroke-linejoin:miter;"/>
   </g>
   <g id="LineCollection_1">
    <path clip-path="url(#p62a5c0b1b9)" d="M 63.022415 38.253102 
L 63.293186 38.253102 
" style="fill:none;stroke:#a9a9a9;stroke-width:0.886227;"/>
    <path clip-path="url(#p62a5c0b1b9)" d="M 63.563957 64.544535 
L 63.834728 64.544535 
" style="fill:none;stroke:#a9a9a9;stroke-width:0.886227;"/>
    <path clip-path="url(#p62a5c0b1b9)" d="M 64.105499 91.069261 
L 64.37627 91.069261 
" style="fill:none;stroke:#a9a9a9;stroke-width:0.886227;"/>
    <path clip-path="url(#p62a5c0b1b9)" d="M 65.188584 140.905624 
L 65.459355 140.905624 
" style="fill:none;stroke:#a9a9a9;stroke-width:0.886227;"/>
    <path clip-path="url(#p62a5c0b1b9)" d="M 67.896295 248.293588 
L 68.167066 248.293588 
" style="fill:none;stroke:#a9a9a9;stroke-width:0.886227;"/>
    <path clip-path="url(#p62a5c0b1b9)" d="M 73.311716 226.218131 
L 73.582488 226.218131 
" style="fill:none;stroke:#a9a9a9;stroke-width:0.886227;"/>
    <path clip-path="url(#p62a5c0b1b9)" d="M 78.727138 215.681589 
L 78.99791 215.681589 
" style="fill:none;stroke:#a9a9a9;stroke-width:0.886227;"/>
    <path clip-path="url(#p62a5c0b1b9)" d="M 89.557982 201.953417 
L 89.828753 201.953417 
" style="fill:none;stroke:#a9a9a9;stroke-width:0.886227;"/>
    <path clip-path="url(#p62a5c0b1b9)" d="M 100.388826 185.141951 
L 100.659597 185.141951 
" style="fill:none;stroke:#a9a9a9;stroke-width:0.886227;"/>
    <path clip-path="url(#p62a5c0b1b9)" d="M 116.635092 160.281541 
L 116.905863 160.281541 
" style="fill:none;stroke:#a9a9a9;stroke-width:0.886227;"/>
    <path clip-path="url(#p62a5c0b1b9)" d="M 170.789311 129.834208 
L 171.060083 129.834208 
" style="fill:none;stroke:#a9a9a9;stroke-width:0.886227;"/>
    <path clip-path="url(#p62a5c0b1b9)" d="M 224.943531 124.519737 
L 225.214302 124.519737 
" style="fill:none;stroke:#a9a9a9;stroke-width:0.886227;"/>
    <path clip-path="url(#p62a5c0b1b9)" d="M 279.09775 119.016895 
L 279.368521 119.016895 
" style="fill:none;stroke:#a9a9a9;stroke-width:0.886227;"/>
    <path clip-path="url(#p62a5c0b1b9)" d="M 333.25197 114.37037 
L 333.522741 114.37037 
" style="fill:none;stroke:#a9a9a9;stroke-width:0.886227;"/>
    <path clip-path="url(#p62a5c0b1b9)" d="M 387.406189 114.364541 
L 387.67696 114.364541 
" style="fill:none;stroke:#a9a9a9;stroke-width:0.886227;"/>
    <path clip-path="url(#p62a5c0b1b9)" d="M 63.022415 38.252995 
L 63.293186 38.252995 
" style="fill:none;stroke:#a9a9a9;stroke-width:0.886227;"/>
    <path clip-path="url(#p62a5c0b1b9)" d="M 63.563957 38.686508 
L 63.834728 38.686508 
" style="fill:none;stroke:#a9a9a9;stroke-width:0.886227;"/>
    <path clip-path="url(#p62a5c0b1b9)" d="M 64.105499 39.040452 
L 64.37627 39.040452 
" style="fill:none;stroke:#a9a9a9;stroke-width:0.886227;"/>
    <path clip-path="url(#p62a5c0b1b9)" d="M 65.188584 40.033521 
L 65.459355 40.033521 
" style="fill:none;stroke:#a9a9a9;stroke-width:0.886227;"/>
    <path clip-path="url(#p62a5c0b1b9)" d="M 67.896295 41.777793 
L 68.167066 41.777793 
" style="fill:none;stroke:#a9a9a9;stroke-width:0.886227;"/>
    <path clip-path="url(#p62a5c0b1b9)" d="M 73.311716 47.260167 
L 73.582488 47.260167 
" style="fill:none;stroke:#a9a9a9;stroke-width:0.886227;"/>
    <path clip-path="url(#p62a5c0b1b9)" d="M 78.727138 53.830152 
L 78.99791 53.830152 
" style="fill:none;stroke:#a9a9a9;stroke-width:0.886227;"/>
    <path clip-path="url(#p62a5c0b1b9)" d="M 89.557982 55.916952 
L 89.828753 55.916952 
" style="fill:none;stroke:#a9a9a9;stroke-width:0.886227;"/>
    <path clip-path="url(#p62a5c0b1b9)" d="M 100.388826 58.692361 
L 100.659597 58.692361 
" style="fill:none;stroke:#a9a9a9;stroke-width:0.886227;"/>
    <path clip-path="url(#p62a5c0b1b9)" d="M 116.635092 72.543991 
L 116.905863 72.543991 
" style="fill:none;stroke:#a9a9a9;stroke-width:0.886227;"/>
    <path clip-path="url(#p62a5c0b1b9)" d="M 170.789311 99.544875 
L 171.060083 99.544875 
" style="fill:none;stroke:#a9a9a9;stroke-width:0.886227;"/>
    <path clip-path="url(#p62a5c0b1b9)" d="M 224.943531 113.806235 
L 225.214302 113.806235 
" style="fill:none;stroke:#a9a9a9;stroke-width:0.886227;"/>
    <path clip-path="url(#p62a5c0b1b9)" d="M 279.09775 127.193317 
L 279.368521 127.193317 
" style="fill:none;stroke:#a9a9a9;stroke-width:0.886227;"/>
    <path clip-path="url(#p62a5c0b1b9)" d="M 333.25197 151.789236 
L 333.522741 151.789236 
" style="fill:none;stroke:#a9a9a9;stroke-width:0.886227;"/>
    <path clip-path="url(#p62a5c0b1b9)" d="M 387.406189 171.757012 
L 387.67696 171.757012 
" style="fill:none;stroke:#a9a9a9;stroke-width:0.886227;"/>
    <path clip-path="url(#p62a5c0b1b9)" d="M 63.022415 38.253013 
L 63.293186 38.253013 
" style="fill:none;stroke:#a9a9a9;stroke-width:0.886227;"/>
    <path clip-path="url(#p62a5c0b1b9)" d="M 63.563957 63.129631 
L 63.834728 63.129631 
" style="fill:none;stroke:#a9a9a9;stroke-width:0.886227;"/>
    <path clip-path="url(#p62a5c0b1b9)" d="M 64.105499 89.291284 
L 64.37627 89.291284 
" style="fill:none;stroke:#a9a9a9;stroke-width:0.886227;"/>
    <path clip-path="url(#p62a5c0b1b9)" d="M 65.188584 137.530365 
L 65.459355 137.530365 
" style="fill:none;stroke:#a9a9a9;stroke-width:0.886227;"/>
    <path clip-path="url(#p62a5c0b1b9)" d="M 67.896295 245.757724 
L 68.167066 245.757724 
" style="fill:none;stroke:#a9a9a9;stroke-width:0.886227;"/>
    <path clip-path="url(#p62a5c0b1b9)" d="M 73.311716 223.236918 
L 73.582488 223.236918 
" style="fill:none;stroke:#a9a9a9;stroke-width:0.886227;"/>
    <path clip-path="url(#p62a5c0b1b9)" d="M 78.727138 209.746566 
L 78.99791 209.746566 
" style="fill:none;stroke:#a9a9a9;stroke-width:0.886227;"/>
    <path clip-path="url(#p62a5c0b1b9)" d="M 89.557982 195.11977 
L 89.828753 195.11977 
" style="fill:none;stroke:#a9a9a9;stroke-width:0.886227;"/>
    <path clip-path="url(#p62a5c0b1b9)" d="M 100.388826 172.718917 
L 100.659597 172.718917 
" style="fill:none;stroke:#a9a9a9;stroke-width:0.886227;"/>
    <path clip-path="url(#p62a5c0b1b9)" d="M 116.635092 148.464463 
L 116.905863 148.464463 
" style="fill:none;stroke:#a9a9a9;stroke-width:0.886227;"/>
    <path clip-path="url(#p62a5c0b1b9)" d="M 170.789311 115.640284 
L 171.060083 115.640284 
" style="fill:none;stroke:#a9a9a9;stroke-width:0.886227;"/>
    <path clip-path="url(#p62a5c0b1b9)" d="M 224.943531 103.023083 
L 225.214302 103.023083 
" style="fill:none;stroke:#a9a9a9;stroke-width:0.886227;"/>
    <path clip-path="url(#p62a5c0b1b9)" d="M 279.09775 100.138128 
L 279.368521 100.138128 
" style="fill:none;stroke:#a9a9a9;stroke-width:0.886227;"/>
    <path clip-path="url(#p62a5c0b1b9)" d="M 333.25197 95.935124 
L 333.522741 95.935124 
" style="fill:none;stroke:#a9a9a9;stroke-width:0.886227;"/>
    <path clip-path="url(#p62a5c0b1b9)" d="M 387.406189 93.866133 
L 387.67696 93.866133 
" style="fill:none;stroke:#a9a9a9;stroke-width:0.886227;"/>
    <path clip-path="url(#p62a5c0b1b9)" d="M 63.022415 38.252933 
L 63.293186 38.252933 
" style="fill:none;stroke:#a9a9a9;stroke-width:0.886227;"/>
    <path clip-path="url(#p62a5c0b1b9)" d="M 63.563957 38.543934 
L 63.834728 38.543934 
" style="fill:none;stroke:#a9a9a9;stroke-width:0.886227;"/>
    <path clip-path="url(#p62a5c0b1b9)" d="M 64.105499 38.984899 
L 64.37627 38.984899 
" style="fill:none;stroke:#a9a9a9;stroke-width:0.886227;"/>
    <path clip-path="url(#p62a5c0b1b9)" d="M 65.188584 39.40005 
L 65.459355 39.40005 
" style="fill:none;stroke:#a9a9a9;stroke-width:0.886227;"/>
    <path clip-path="url(#p62a5c0b1b9)" d="M 67.896295 41.100625 
L 68.167066 41.100625 
" style="fill:none;stroke:#a9a9a9;stroke-width:0.886227;"/>
    <path clip-path="url(#p62a5c0b1b9)" d="M 73.311716 44.01027 
L 73.582488 44.01027 
" style="fill:none;stroke:#a9a9a9;stroke-width:0.886227;"/>
    <path clip-path="url(#p62a5c0b1b9)" d="M 78.727138 48.464071 
L 78.99791 48.464071 
" style="fill:none;stroke:#a9a9a9;stroke-width:0.886227;"/>
    <path clip-path="url(#p62a5c0b1b9)" d="M 89.557982 53.203688 
L 89.828753 53.203688 
" style="fill:none;stroke:#a9a9a9;stroke-width:0.886227;"/>
    <path clip-path="url(#p62a5c0b1b9)" d="M 100.388826 57.130523 
L 100.659597 57.130523 
" style="fill:none;stroke:#a9a9a9;stroke-width:0.886227;"/>
    <path clip-path="url(#p62a5c0b1b9)" d="M 116.635092 65.709148 
L 116.905863 65.709148 
" style="fill:none;stroke:#a9a9a9;stroke-width:0.886227;"/>
    <path clip-path="url(#p62a5c0b1b9)" d="M 170.789311 89.014192 
L 171.060083 89.014192 
" style="fill:none;stroke:#a9a9a9;stroke-width:0.886227;"/>
    <path clip-path="url(#p62a5c0b1b9)" d="M 224.943531 107.058539 
L 225.214302 107.058539 
" style="fill:none;stroke:#a9a9a9;stroke-width:0.886227;"/>
    <path clip-path="url(#p62a5c0b1b9)" d="M 279.09775 123.070537 
L 279.368521 123.070537 
" style="fill:none;stroke:#a9a9a9;stroke-width:0.886227;"/>
    <path clip-path="url(#p62a5c0b1b9)" d="M 333.25197 145.519088 
L 333.522741 145.519088 
" style="fill:none;stroke:#a9a9a9;stroke-width:0.886227;"/>
    <path clip-path="url(#p62a5c0b1b9)" d="M 387.406189 167.563738 
L 387.67696 167.563738 
" style="fill:none;stroke:#a9a9a9;stroke-width:0.886227;"/>
    <path clip-path="url(#p62a5c0b1b9)" d="M 63.1578 38.253013 
L 63.1578 38.253102 
" style="fill:none;stroke:#a9a9a9;stroke-width:0.886227;"/>
    <path clip-path="url(#p62a5c0b1b9)" d="M 63.699343 63.129631 
L 63.699343 64.544535 
" style="fill:none;stroke:#a9a9a9;stroke-width:0.886227;"/>
    <path clip-path="url(#p62a5c0b1b9)" d="M 64.240885 89.291284 
L 64.240885 91.069261 
" style="fill:none;stroke:#a9a9a9;stroke-width:0.886227;"/>
    <path clip-path="url(#p62a5c0b1b9)" d="M 65.323969 137.530365 
L 65.323969 140.905624 
" style="fill:none;stroke:#a9a9a9;stroke-width:0.886227;"/>
    <path clip-path="url(#p62a5c0b1b9)" d="M 68.03168 245.757724 
L 68.03168 248.293588 
" style="fill:none;stroke:#a9a9a9;stroke-width:0.886227;"/>
    <path clip-path="url(#p62a5c0b1b9)" d="M 73.447102 223.236918 
L 73.447102 226.218131 
" style="fill:none;stroke:#a9a9a9;stroke-width:0.886227;"/>
    <path clip-path="url(#p62a5c0b1b9)" d="M 78.862524 209.746566 
L 78.862524 215.681589 
" style="fill:none;stroke:#a9a9a9;stroke-width:0.886227;"/>
    <path clip-path="url(#p62a5c0b1b9)" d="M 89.693368 195.11977 
L 89.693368 201.953417 
" style="fill:none;stroke:#a9a9a9;stroke-width:0.886227;"/>
    <path clip-path="url(#p62a5c0b1b9)" d="M 100.524212 172.718917 
L 100.524212 185.141951 
" style="fill:none;stroke:#a9a9a9;stroke-width:0.886227;"/>
    <path clip-path="url(#p62a5c0b1b9)" d="M 116.770478 148.464463 
L 116.770478 160.281541 
" style="fill:none;stroke:#a9a9a9;stroke-width:0.886227;"/>
    <path clip-path="url(#p62a5c0b1b9)" d="M 170.924697 115.640284 
L 170.924697 129.834208 
" style="fill:none;stroke:#a9a9a9;stroke-width:0.886227;"/>
    <path clip-path="url(#p62a5c0b1b9)" d="M 225.078916 103.023083 
L 225.078916 124.519737 
" style="fill:none;stroke:#a9a9a9;stroke-width:0.886227;"/>
    <path clip-path="url(#p62a5c0b1b9)" d="M 279.233136 100.138128 
L 279.233136 119.016895 
" style="fill:none;stroke:#a9a9a9;stroke-width:0.886227;"/>
    <path clip-path="url(#p62a5c0b1b9)" d="M 333.387355 95.935124 
L 333.387355 114.37037 
" style="fill:none;stroke:#a9a9a9;stroke-width:0.886227;"/>
    <path clip-path="url(#p62a5c0b1b9)" d="M 387.541575 93.866133 
L 387.541575 114.364541 
" style="fill:none;stroke:#a9a9a9;stroke-width:0.886227;"/>
    <path clip-path="url(#p62a5c0b1b9)" d="M 63.1578 38.252933 
L 63.1578 38.252995 
" style="fill:none;stroke:#a9a9a9;stroke-width:0.886227;"/>
    <path clip-path="url(#p62a5c0b1b9)" d="M 63.699343 38.543934 
L 63.699343 38.686508 
" style="fill:none;stroke:#a9a9a9;stroke-width:0.886227;"/>
    <path clip-path="url(#p62a5c0b1b9)" d="M 64.240885 38.984899 
L 64.240885 39.040452 
" style="fill:none;stroke:#a9a9a9;stroke-width:0.886227;"/>
    <path clip-path="url(#p62a5c0b1b9)" d="M 65.323969 39.40005 
L 65.323969 40.033521 
" style="fill:none;stroke:#a9a9a9;stroke-width:0.886227;"/>
    <path clip-path="url(#p62a5c0b1b9)" d="M 68.03168 41.100625 
L 68.03168 41.777793 
" style="fill:none;stroke:#a9a9a9;stroke-width:0.886227;"/>
    <path clip-path="url(#p62a5c0b1b9)" d="M 73.447102 44.01027 
L 73.447102 47.260167 
" style="fill:none;stroke:#a9a9a9;stroke-width:0.886227;"/>
    <path clip-path="url(#p62a5c0b1b9)" d="M 78.862524 48.464071 
L 78.862524 53.830152 
" style="fill:none;stroke:#a9a9a9;stroke-width:0.886227;"/>
    <path clip-path="url(#p62a5c0b1b9)" d="M 89.693368 53.203688 
L 89.693368 55.916952 
" style="fill:none;stroke:#a9a9a9;stroke-width:0.886227;"/>
    <path clip-path="url(#p62a5c0b1b9)" d="M 100.524212 57.130523 
L 100.524212 58.692361 
" style="fill:none;stroke:#a9a9a9;stroke-width:0.886227;"/>
    <path clip-path="url(#p62a5c0b1b9)" d="M 116.770478 65.709148 
L 116.770478 72.543991 
" style="fill:none;stroke:#a9a9a9;stroke-width:0.886227;"/>
    <path clip-path="url(#p62a5c0b1b9)" d="M 170.924697 89.014192 
L 170.924697 99.544875 
" style="fill:none;stroke:#a9a9a9;stroke-width:0.886227;"/>
    <path clip-path="url(#p62a5c0b1b9)" d="M 225.078916 107.058539 
L 225.078916 113.806235 
" style="fill:none;stroke:#a9a9a9;stroke-width:0.886227;"/>
    <path clip-path="url(#p62a5c0b1b9)" d="M 279.233136 123.070537 
L 279.233136 127.193317 
" style="fill:none;stroke:#a9a9a9;stroke-width:0.886227;"/>
    <path clip-path="url(#p62a5c0b1b9)" d="M 333.387355 145.519088 
L 333.387355 151.789236 
" style="fill:none;stroke:#a9a9a9;stroke-width:0.886227;"/>
    <path clip-path="url(#p62a5c0b1b9)" d="M 387.541575 167.563738 
L 387.541575 171.757012 
" style="fill:none;stroke:#a9a9a9;stroke-width:0.886227;"/>
   </g>
   <g id="line2d_33">
    <path clip-path="url(#p62a5c0b1b9)" d="M 63.1578 280.172933 
L 63.1578 280.172933 
L 63.699343 280.172933 
L 63.699343 280.172933 
L 64.240885 280.172933 
L 64.240885 280.172933 
L 65.323969 280.172933 
L 65.323969 280.172933 
L 68.03168 280.172933 
L 68.03168 280.172933 
L 73.447102 280.172933 
L 73.447102 280.172933 
L 78.862524 280.172933 
L 78.862524 280.172933 
L 89.693368 280.172933 
L 89.693368 280.172933 
L 100.524212 280.172933 
L 100.524212 280.172933 
L 116.770478 280.172933 
L 116.770478 280.172933 
L 170.924697 280.172933 
L 170.924697 280.172933 
L 225.078916 280.172933 
L 225.078916 280.172933 
L 279.233136 280.172933 
L 279.233136 280.172933 
L 333.387355 280.172933 
L 333.387355 280.172933 
L 387.541575 280.172933 
L 387.541575 280.172933 
" style="fill:none;stroke:#a9a9a9;stroke-dasharray:6.558079,2.835926;stroke-dashoffset:0;stroke-width:1.772454;"/>
   </g>
   <g id="patch_5">
    <path d="M 411.109688 194.047902 
L 507.662563 194.047902 
L 507.662563 120.921964 
L 411.109688 120.921964 
z
" style="fill:#ffffff;"/>
   </g>
   <g id="text_11">
    <!-- Group -->
    <defs>
     <path d="M 59.515625 10.40625 
L 59.515625 29.984375 
L 43.40625 29.984375 
L 43.40625 38.09375 
L 69.28125 38.09375 
L 69.28125 6.78125 
Q 63.578125 2.734375 56.6875 0.65625 
Q 49.8125 -1.421875 42 -1.421875 
Q 24.90625 -1.421875 15.25 8.5625 
Q 5.609375 18.5625 5.609375 36.375 
Q 5.609375 54.25 15.25 64.234375 
Q 24.90625 74.21875 42 74.21875 
Q 49.125 74.21875 55.546875 72.453125 
Q 61.96875 70.703125 67.390625 67.28125 
L 67.390625 56.78125 
Q 61.921875 61.421875 55.765625 63.765625 
Q 49.609375 66.109375 42.828125 66.109375 
Q 29.4375 66.109375 22.71875 58.640625 
Q 16.015625 51.171875 16.015625 36.375 
Q 16.015625 21.625 22.71875 14.15625 
Q 29.4375 6.6875 42.828125 6.6875 
Q 48.046875 6.6875 52.140625 7.59375 
Q 56.25 8.5 59.515625 10.40625 
z
" id="DejaVuSans-71"/>
     <path d="M 18.109375 8.203125 
L 18.109375 -20.796875 
L 9.078125 -20.796875 
L 9.078125 54.6875 
L 18.109375 54.6875 
L 18.109375 46.390625 
Q 20.953125 51.265625 25.265625 53.625 
Q 29.59375 56 35.59375 56 
Q 45.5625 56 51.78125 48.09375 
Q 58.015625 40.1875 58.015625 27.296875 
Q 58.015625 14.40625 51.78125 6.484375 
Q 45.5625 -1.421875 35.59375 -1.421875 
Q 29.59375 -1.421875 25.265625 0.953125 
Q 20.953125 3.328125 18.109375 8.203125 
z
M 48.6875 27.296875 
Q 48.6875 37.203125 44.609375 42.84375 
Q 40.53125 48.484375 33.40625 48.484375 
Q 26.265625 48.484375 22.1875 42.84375 
Q 18.109375 37.203125 18.109375 27.296875 
Q 18.109375 17.390625 22.1875 11.75 
Q 26.265625 6.109375 33.40625 6.109375 
Q 40.53125 6.109375 44.609375 11.75 
Q 48.6875 17.390625 48.6875 27.296875 
z
" id="DejaVuSans-112"/>
    </defs>
    <g transform="translate(423.309687 144.515558)scale(0.11 -0.11)">
     <use xlink:href="#DejaVuSans-71"/>
     <use x="77.490234" xlink:href="#DejaVuSans-114"/>
     <use x="118.572266" xlink:href="#DejaVuSans-111"/>
     <use x="179.753906" xlink:href="#DejaVuSans-117"/>
     <use x="243.132812" xlink:href="#DejaVuSans-112"/>
    </g>
   </g>
   <g id="patch_6">
    <path clip-path="url(#pa8f10d91df)" d="M 423.309687 164.007902 
L 439.149687 164.007902 
L 439.149687 148.167902 
L 423.309687 148.167902 
z
" style="fill:#ffffff;stroke:#ffffff;stroke-linejoin:miter;"/>
   </g>
   <g id="line2d_34">
    <path clip-path="url(#pa8f10d91df)" d="M 423.309687 156.087902 
L 439.149687 156.087902 
" style="fill:none;stroke:#1976d2;stroke-width:2.658681;"/>
   </g>
   <g id="text_12">
    <!-- corrected -->
    <defs>
     <path d="M 45.40625 46.390625 
L 45.40625 75.984375 
L 54.390625 75.984375 
L 54.390625 0 
L 45.40625 0 
L 45.40625 8.203125 
Q 42.578125 3.328125 38.25 0.953125 
Q 33.9375 -1.421875 27.875 -1.421875 
Q 17.96875 -1.421875 11.734375 6.484375 
Q 5.515625 14.40625 5.515625 27.296875 
Q 5.515625 40.1875 11.734375 48.09375 
Q 17.96875 56 27.875 56 
Q 33.9375 56 38.25 53.625 
Q 42.578125 51.265625 45.40625 46.390625 
z
M 14.796875 27.296875 
Q 14.796875 17.390625 18.875 11.75 
Q 22.953125 6.109375 30.078125 6.109375 
Q 37.203125 6.109375 41.296875 11.75 
Q 45.40625 17.390625 45.40625 27.296875 
Q 45.40625 37.203125 41.296875 42.84375 
Q 37.203125 48.484375 30.078125 48.484375 
Q 22.953125 48.484375 18.875 42.84375 
Q 14.796875 37.203125 14.796875 27.296875 
z
" id="DejaVuSans-100"/>
    </defs>
    <g transform="translate(442.149688 158.516152)scale(0.088 -0.088)">
     <use xlink:href="#DejaVuSans-99"/>
     <use x="54.980469" xlink:href="#DejaVuSans-111"/>
     <use x="116.162109" xlink:href="#DejaVuSans-114"/>
     <use x="157.259766" xlink:href="#DejaVuSans-114"/>
     <use x="198.341797" xlink:href="#DejaVuSans-101"/>
     <use x="259.865234" xlink:href="#DejaVuSans-99"/>
     <use x="314.845703" xlink:href="#DejaVuSans-116"/>
     <use x="354.054688" xlink:href="#DejaVuSans-101"/>
     <use x="415.578125" xlink:href="#DejaVuSans-100"/>
    </g>
   </g>
   <g id="patch_7">
    <path clip-path="url(#pbdfbfef6c5)" d="M 423.309687 181.847902 
L 439.149687 181.847902 
L 439.149687 166.007902 
L 423.309687 166.007902 
z
" style="fill:#ffffff;stroke:#ffffff;stroke-linejoin:miter;"/>
   </g>
   <g id="line2d_35">
    <path clip-path="url(#pbdfbfef6c5)" d="M 423.309687 173.927902 
L 439.149687 173.927902 
" style="fill:none;stroke:#b3e5fc;stroke-width:2.658681;"/>
   </g>
   <g id="text_13">
    <!-- uncorrected -->
    <g transform="translate(442.149688 176.356152)scale(0.088 -0.088)">
     <use xlink:href="#DejaVuSans-117"/>
     <use x="63.378906" xlink:href="#DejaVuSans-110"/>
     <use x="126.757812" xlink:href="#DejaVuSans-99"/>
     <use x="181.738281" xlink:href="#DejaVuSans-111"/>
     <use x="242.919922" xlink:href="#DejaVuSans-114"/>
     <use x="284.017578" xlink:href="#DejaVuSans-114"/>
     <use x="325.099609" xlink:href="#DejaVuSans-101"/>
     <use x="386.623047" xlink:href="#DejaVuSans-99"/>
     <use x="441.603516" xlink:href="#DejaVuSans-116"/>
     <use x="480.8125" xlink:href="#DejaVuSans-101"/>
     <use x="542.335938" xlink:href="#DejaVuSans-100"/>
    </g>
   </g>
  </g>
  <g id="text_14">
   <!-- Similarity across varying numbers of partitions -->
   <defs>
    <path d="M 59.90625 70.609375 
L 59.90625 55.171875 
Q 53.90625 57.859375 48.1875 59.21875 
Q 42.484375 60.59375 37.40625 60.59375 
Q 30.671875 60.59375 27.4375 58.734375 
Q 24.21875 56.890625 24.21875 52.984375 
Q 24.21875 50.046875 26.390625 48.40625 
Q 28.5625 46.78125 34.28125 45.609375 
L 42.28125 44 
Q 54.4375 41.546875 59.5625 36.5625 
Q 64.703125 31.59375 64.703125 22.40625 
Q 64.703125 10.359375 57.546875 4.46875 
Q 50.390625 -1.421875 35.6875 -1.421875 
Q 28.765625 -1.421875 21.78125 -0.09375 
Q 14.796875 1.21875 7.8125 3.8125 
L 7.8125 19.671875 
Q 14.796875 15.96875 21.3125 14.078125 
Q 27.828125 12.203125 33.890625 12.203125 
Q 40.046875 12.203125 43.3125 14.25 
Q 46.578125 16.3125 46.578125 20.125 
Q 46.578125 23.53125 44.359375 25.390625 
Q 42.140625 27.25 35.5 28.71875 
L 28.21875 30.328125 
Q 17.28125 32.671875 12.21875 37.796875 
Q 7.171875 42.921875 7.171875 51.609375 
Q 7.171875 62.5 14.203125 68.359375 
Q 21.234375 74.21875 34.421875 74.21875 
Q 40.4375 74.21875 46.78125 73.3125 
Q 53.125 72.40625 59.90625 70.609375 
z
" id="DejaVuSans-Bold-83"/>
    <path d="M 8.40625 54.6875 
L 25.875 54.6875 
L 25.875 0 
L 8.40625 0 
z
M 8.40625 75.984375 
L 25.875 75.984375 
L 25.875 61.71875 
L 8.40625 61.71875 
z
" id="DejaVuSans-Bold-105"/>
    <path d="M 59.078125 45.609375 
Q 62.40625 50.6875 66.96875 53.34375 
Q 71.53125 56 77 56 
Q 86.421875 56 91.359375 50.1875 
Q 96.296875 44.390625 96.296875 33.296875 
L 96.296875 0 
L 78.71875 0 
L 78.71875 28.515625 
Q 78.765625 29.15625 78.78125 29.828125 
Q 78.8125 30.515625 78.8125 31.78125 
Q 78.8125 37.59375 77.09375 40.203125 
Q 75.390625 42.828125 71.578125 42.828125 
Q 66.609375 42.828125 63.890625 38.71875 
Q 61.1875 34.625 61.078125 26.859375 
L 61.078125 0 
L 43.5 0 
L 43.5 28.515625 
Q 43.5 37.59375 41.9375 40.203125 
Q 40.375 42.828125 36.375 42.828125 
Q 31.34375 42.828125 28.609375 38.703125 
Q 25.875 34.578125 25.875 26.90625 
L 25.875 0 
L 8.296875 0 
L 8.296875 54.6875 
L 25.875 54.6875 
L 25.875 46.6875 
Q 29.109375 51.3125 33.28125 53.65625 
Q 37.453125 56 42.484375 56 
Q 48.140625 56 52.484375 53.265625 
Q 56.84375 50.53125 59.078125 45.609375 
z
" id="DejaVuSans-Bold-109"/>
    <path d="M 8.40625 75.984375 
L 25.875 75.984375 
L 25.875 0 
L 8.40625 0 
z
" id="DejaVuSans-Bold-108"/>
    <path d="M 32.90625 24.609375 
Q 27.4375 24.609375 24.671875 22.75 
Q 21.921875 20.90625 21.921875 17.28125 
Q 21.921875 13.96875 24.140625 12.078125 
Q 26.375 10.203125 30.328125 10.203125 
Q 35.25 10.203125 38.625 13.734375 
Q 42 17.28125 42 22.609375 
L 42 24.609375 
z
M 59.625 31.203125 
L 59.625 0 
L 42 0 
L 42 8.109375 
Q 38.484375 3.125 34.078125 0.84375 
Q 29.6875 -1.421875 23.390625 -1.421875 
Q 14.890625 -1.421875 9.59375 3.53125 
Q 4.296875 8.5 4.296875 16.40625 
Q 4.296875 26.03125 10.90625 30.515625 
Q 17.53125 35.015625 31.6875 35.015625 
L 42 35.015625 
L 42 36.375 
Q 42 40.53125 38.71875 42.453125 
Q 35.453125 44.390625 28.515625 44.390625 
Q 22.90625 44.390625 18.0625 43.265625 
Q 13.234375 42.140625 9.078125 39.890625 
L 9.078125 53.21875 
Q 14.703125 54.59375 20.359375 55.296875 
Q 26.03125 56 31.6875 56 
Q 46.484375 56 53.046875 50.171875 
Q 59.625 44.34375 59.625 31.203125 
z
" id="DejaVuSans-Bold-97"/>
    <path d="M 49.03125 39.796875 
Q 46.734375 40.875 44.453125 41.375 
Q 42.1875 41.890625 39.890625 41.890625 
Q 33.15625 41.890625 29.515625 37.5625 
Q 25.875 33.25 25.875 25.203125 
L 25.875 0 
L 8.40625 0 
L 8.40625 54.6875 
L 25.875 54.6875 
L 25.875 45.703125 
Q 29.25 51.078125 33.609375 53.53125 
Q 37.984375 56 44.09375 56 
Q 44.96875 56 45.984375 55.921875 
Q 47.015625 55.859375 48.96875 55.609375 
z
" id="DejaVuSans-Bold-114"/>
    <path d="M 27.484375 70.21875 
L 27.484375 54.6875 
L 45.515625 54.6875 
L 45.515625 42.1875 
L 27.484375 42.1875 
L 27.484375 19 
Q 27.484375 15.1875 29 13.84375 
Q 30.515625 12.5 35.015625 12.5 
L 44 12.5 
L 44 0 
L 29 0 
Q 18.65625 0 14.328125 4.3125 
Q 10.015625 8.640625 10.015625 19 
L 10.015625 42.1875 
L 1.3125 42.1875 
L 1.3125 54.6875 
L 10.015625 54.6875 
L 10.015625 70.21875 
z
" id="DejaVuSans-Bold-116"/>
    <path d="M 1.21875 54.6875 
L 18.703125 54.6875 
L 33.40625 17.578125 
L 45.90625 54.6875 
L 63.375 54.6875 
L 40.375 -5.171875 
Q 36.921875 -14.3125 32.296875 -17.9375 
Q 27.6875 -21.578125 20.125 -21.578125 
L 10.015625 -21.578125 
L 10.015625 -10.109375 
L 15.484375 -10.109375 
Q 19.921875 -10.109375 21.9375 -8.6875 
Q 23.96875 -7.28125 25.09375 -3.609375 
L 25.59375 -2.09375 
z
" id="DejaVuSans-Bold-121"/>
    <path id="DejaVuSans-Bold-32"/>
    <path d="M 52.59375 52.984375 
L 52.59375 38.71875 
Q 49.03125 41.15625 45.4375 42.328125 
Q 41.84375 43.5 37.984375 43.5 
Q 30.671875 43.5 26.59375 39.234375 
Q 22.515625 34.96875 22.515625 27.296875 
Q 22.515625 19.625 26.59375 15.34375 
Q 30.671875 11.078125 37.984375 11.078125 
Q 42.09375 11.078125 45.78125 12.296875 
Q 49.46875 13.53125 52.59375 15.921875 
L 52.59375 1.609375 
Q 48.484375 0.09375 44.265625 -0.65625 
Q 40.046875 -1.421875 35.796875 -1.421875 
Q 21 -1.421875 12.640625 6.171875 
Q 4.296875 13.765625 4.296875 27.296875 
Q 4.296875 40.828125 12.640625 48.40625 
Q 21 56 35.796875 56 
Q 40.09375 56 44.265625 55.25 
Q 48.4375 54.5 52.59375 52.984375 
z
" id="DejaVuSans-Bold-99"/>
    <path d="M 34.421875 43.5 
Q 28.609375 43.5 25.5625 39.328125 
Q 22.515625 35.15625 22.515625 27.296875 
Q 22.515625 19.4375 25.5625 15.25 
Q 28.609375 11.078125 34.421875 11.078125 
Q 40.140625 11.078125 43.15625 15.25 
Q 46.1875 19.4375 46.1875 27.296875 
Q 46.1875 35.15625 43.15625 39.328125 
Q 40.140625 43.5 34.421875 43.5 
z
M 34.421875 56 
Q 48.53125 56 56.46875 48.375 
Q 64.40625 40.765625 64.40625 27.296875 
Q 64.40625 13.8125 56.46875 6.1875 
Q 48.53125 -1.421875 34.421875 -1.421875 
Q 20.265625 -1.421875 12.28125 6.1875 
Q 4.296875 13.8125 4.296875 27.296875 
Q 4.296875 40.765625 12.28125 48.375 
Q 20.265625 56 34.421875 56 
z
" id="DejaVuSans-Bold-111"/>
    <path d="M 51.125 52.984375 
L 51.125 39.703125 
Q 45.515625 42.046875 40.28125 43.21875 
Q 35.0625 44.390625 30.421875 44.390625 
Q 25.4375 44.390625 23.015625 43.140625 
Q 20.609375 41.890625 20.609375 39.3125 
Q 20.609375 37.203125 22.4375 36.078125 
Q 24.265625 34.96875 29 34.421875 
L 32.078125 33.984375 
Q 45.515625 32.28125 50.140625 28.375 
Q 54.78125 24.46875 54.78125 16.109375 
Q 54.78125 7.375 48.328125 2.96875 
Q 41.890625 -1.421875 29.109375 -1.421875 
Q 23.6875 -1.421875 17.890625 -0.5625 
Q 12.109375 0.296875 6 2 
L 6 15.28125 
Q 11.234375 12.75 16.71875 11.46875 
Q 22.21875 10.203125 27.875 10.203125 
Q 33.015625 10.203125 35.59375 11.609375 
Q 38.1875 13.03125 38.1875 15.828125 
Q 38.1875 18.171875 36.40625 19.3125 
Q 34.625 20.453125 29.296875 21.09375 
L 26.21875 21.484375 
Q 14.546875 22.953125 9.859375 26.90625 
Q 5.171875 30.859375 5.171875 38.921875 
Q 5.171875 47.609375 11.125 51.796875 
Q 17.09375 56 29.390625 56 
Q 34.234375 56 39.546875 55.265625 
Q 44.875 54.546875 51.125 52.984375 
z
" id="DejaVuSans-Bold-115"/>
    <path d="M 1.515625 54.6875 
L 19 54.6875 
L 32.625 16.890625 
L 46.1875 54.6875 
L 63.71875 54.6875 
L 42.1875 0 
L 23 0 
z
" id="DejaVuSans-Bold-118"/>
    <path d="M 63.375 33.296875 
L 63.375 0 
L 45.796875 0 
L 45.796875 5.421875 
L 45.796875 25.484375 
Q 45.796875 32.5625 45.484375 35.25 
Q 45.171875 37.9375 44.390625 39.203125 
Q 43.359375 40.921875 41.59375 41.875 
Q 39.84375 42.828125 37.59375 42.828125 
Q 32.125 42.828125 29 38.59375 
Q 25.875 34.375 25.875 26.90625 
L 25.875 0 
L 8.40625 0 
L 8.40625 54.6875 
L 25.875 54.6875 
L 25.875 46.6875 
Q 29.828125 51.46875 34.265625 53.734375 
Q 38.71875 56 44.09375 56 
Q 53.5625 56 58.46875 50.1875 
Q 63.375 44.390625 63.375 33.296875 
z
" id="DejaVuSans-Bold-110"/>
    <path d="M 45.609375 9.28125 
Q 42 4.5 37.640625 2.25 
Q 33.296875 0 27.59375 0 
Q 17.578125 0 11.03125 7.875 
Q 4.5 15.765625 4.5 27.984375 
Q 4.5 40.234375 11.03125 48.0625 
Q 17.578125 55.90625 27.59375 55.90625 
Q 33.296875 55.90625 37.640625 53.65625 
Q 42 51.421875 45.609375 46.578125 
L 45.609375 54.6875 
L 63.1875 54.6875 
L 63.1875 5.515625 
Q 63.1875 -7.671875 54.859375 -14.625 
Q 46.53125 -21.578125 30.71875 -21.578125 
Q 25.59375 -21.578125 20.796875 -20.796875 
Q 16.015625 -20.015625 11.1875 -18.40625 
L 11.1875 -4.78125 
Q 15.765625 -7.421875 20.15625 -8.71875 
Q 24.5625 -10.015625 29 -10.015625 
Q 37.59375 -10.015625 41.59375 -6.25 
Q 45.609375 -2.484375 45.609375 5.515625 
z
M 34.078125 43.3125 
Q 28.65625 43.3125 25.625 39.296875 
Q 22.609375 35.296875 22.609375 27.984375 
Q 22.609375 20.453125 25.53125 16.578125 
Q 28.46875 12.703125 34.078125 12.703125 
Q 39.546875 12.703125 42.578125 16.703125 
Q 45.609375 20.703125 45.609375 27.984375 
Q 45.609375 35.296875 42.578125 39.296875 
Q 39.546875 43.3125 34.078125 43.3125 
z
" id="DejaVuSans-Bold-103"/>
    <path d="M 7.8125 21.296875 
L 7.8125 54.6875 
L 25.390625 54.6875 
L 25.390625 49.21875 
Q 25.390625 44.78125 25.34375 38.0625 
Q 25.296875 31.34375 25.296875 29.109375 
Q 25.296875 22.515625 25.640625 19.609375 
Q 25.984375 16.703125 26.8125 15.375 
Q 27.875 13.671875 29.609375 12.734375 
Q 31.34375 11.8125 33.59375 11.8125 
Q 39.0625 11.8125 42.1875 16.015625 
Q 45.3125 20.21875 45.3125 27.6875 
L 45.3125 54.6875 
L 62.796875 54.6875 
L 62.796875 0 
L 45.3125 0 
L 45.3125 7.90625 
Q 41.359375 3.125 36.9375 0.84375 
Q 32.515625 -1.421875 27.203125 -1.421875 
Q 17.71875 -1.421875 12.765625 4.390625 
Q 7.8125 10.203125 7.8125 21.296875 
z
" id="DejaVuSans-Bold-117"/>
    <path d="M 37.5 11.28125 
Q 43.109375 11.28125 46.0625 15.375 
Q 49.03125 19.484375 49.03125 27.296875 
Q 49.03125 35.109375 46.0625 39.203125 
Q 43.109375 43.3125 37.5 43.3125 
Q 31.890625 43.3125 28.875 39.1875 
Q 25.875 35.0625 25.875 27.296875 
Q 25.875 19.53125 28.875 15.40625 
Q 31.890625 11.28125 37.5 11.28125 
z
M 25.875 46.6875 
Q 29.5 51.46875 33.890625 53.734375 
Q 38.28125 56 44 56 
Q 54.109375 56 60.59375 47.96875 
Q 67.09375 39.9375 67.09375 27.296875 
Q 67.09375 14.65625 60.59375 6.609375 
Q 54.109375 -1.421875 44 -1.421875 
Q 38.28125 -1.421875 33.890625 0.84375 
Q 29.5 3.125 25.875 7.90625 
L 25.875 0 
L 8.40625 0 
L 8.40625 75.984375 
L 25.875 75.984375 
z
" id="DejaVuSans-Bold-98"/>
    <path d="M 62.984375 27.484375 
L 62.984375 22.515625 
L 22.125 22.515625 
Q 22.75 16.359375 26.5625 13.28125 
Q 30.375 10.203125 37.203125 10.203125 
Q 42.71875 10.203125 48.5 11.84375 
Q 54.296875 13.484375 60.40625 16.796875 
L 60.40625 3.328125 
Q 54.203125 0.984375 48 -0.21875 
Q 41.796875 -1.421875 35.59375 -1.421875 
Q 20.75 -1.421875 12.515625 6.125 
Q 4.296875 13.671875 4.296875 27.296875 
Q 4.296875 40.671875 12.375 48.328125 
Q 20.453125 56 34.625 56 
Q 47.515625 56 55.25 48.234375 
Q 62.984375 40.484375 62.984375 27.484375 
z
M 45.015625 33.296875 
Q 45.015625 38.28125 42.109375 41.328125 
Q 39.203125 44.390625 34.515625 44.390625 
Q 29.4375 44.390625 26.265625 41.53125 
Q 23.09375 38.671875 22.3125 33.296875 
z
" id="DejaVuSans-Bold-101"/>
    <path d="M 44.390625 75.984375 
L 44.390625 64.5 
L 34.71875 64.5 
Q 31 64.5 29.53125 63.15625 
Q 28.078125 61.8125 28.078125 58.5 
L 28.078125 54.6875 
L 43.015625 54.6875 
L 43.015625 42.1875 
L 28.078125 42.1875 
L 28.078125 0 
L 10.59375 0 
L 10.59375 42.1875 
L 1.90625 42.1875 
L 1.90625 54.6875 
L 10.59375 54.6875 
L 10.59375 58.5 
Q 10.59375 67.4375 15.578125 71.703125 
Q 20.5625 75.984375 31 75.984375 
z
" id="DejaVuSans-Bold-102"/>
    <path d="M 25.875 7.90625 
L 25.875 -20.796875 
L 8.40625 -20.796875 
L 8.40625 54.6875 
L 25.875 54.6875 
L 25.875 46.6875 
Q 29.5 51.46875 33.890625 53.734375 
Q 38.28125 56 44 56 
Q 54.109375 56 60.59375 47.96875 
Q 67.09375 39.9375 67.09375 27.296875 
Q 67.09375 14.65625 60.59375 6.609375 
Q 54.109375 -1.421875 44 -1.421875 
Q 38.28125 -1.421875 33.890625 0.84375 
Q 29.5 3.125 25.875 7.90625 
z
M 37.5 43.3125 
Q 31.890625 43.3125 28.875 39.1875 
Q 25.875 35.0625 25.875 27.296875 
Q 25.875 19.53125 28.875 15.40625 
Q 31.890625 11.28125 37.5 11.28125 
Q 43.109375 11.28125 46.0625 15.375 
Q 49.03125 19.484375 49.03125 27.296875 
Q 49.03125 35.109375 46.0625 39.203125 
Q 43.109375 43.3125 37.5 43.3125 
z
" id="DejaVuSans-Bold-112"/>
   </defs>
   <g transform="translate(43.754344 17.229937)scale(0.132 -0.132)">
    <use xlink:href="#DejaVuSans-Bold-83"/>
    <use x="72.021484" xlink:href="#DejaVuSans-Bold-105"/>
    <use x="106.298828" xlink:href="#DejaVuSans-Bold-109"/>
    <use x="210.498047" xlink:href="#DejaVuSans-Bold-105"/>
    <use x="244.775391" xlink:href="#DejaVuSans-Bold-108"/>
    <use x="279.052734" xlink:href="#DejaVuSans-Bold-97"/>
    <use x="346.533203" xlink:href="#DejaVuSans-Bold-114"/>
    <use x="395.849609" xlink:href="#DejaVuSans-Bold-105"/>
    <use x="430.126953" xlink:href="#DejaVuSans-Bold-116"/>
    <use x="477.929688" xlink:href="#DejaVuSans-Bold-121"/>
    <use x="543.115234" xlink:href="#DejaVuSans-Bold-32"/>
    <use x="577.929688" xlink:href="#DejaVuSans-Bold-97"/>
    <use x="645.410156" xlink:href="#DejaVuSans-Bold-99"/>
    <use x="704.6875" xlink:href="#DejaVuSans-Bold-114"/>
    <use x="754.003906" xlink:href="#DejaVuSans-Bold-111"/>
    <use x="822.705078" xlink:href="#DejaVuSans-Bold-115"/>
    <use x="882.226562" xlink:href="#DejaVuSans-Bold-115"/>
    <use x="941.748047" xlink:href="#DejaVuSans-Bold-32"/>
    <use x="976.5625" xlink:href="#DejaVuSans-Bold-118"/>
    <use x="1041.748047" xlink:href="#DejaVuSans-Bold-97"/>
    <use x="1109.228516" xlink:href="#DejaVuSans-Bold-114"/>
    <use x="1158.544922" xlink:href="#DejaVuSans-Bold-121"/>
    <use x="1223.730469" xlink:href="#DejaVuSans-Bold-105"/>
    <use x="1258.007812" xlink:href="#DejaVuSans-Bold-110"/>
    <use x="1329.199219" xlink:href="#DejaVuSans-Bold-103"/>
    <use x="1400.78125" xlink:href="#DejaVuSans-Bold-32"/>
    <use x="1435.595703" xlink:href="#DejaVuSans-Bold-110"/>
    <use x="1506.787109" xlink:href="#DejaVuSans-Bold-117"/>
    <use x="1577.978516" xlink:href="#DejaVuSans-Bold-109"/>
    <use x="1682.177734" xlink:href="#DejaVuSans-Bold-98"/>
    <use x="1753.759766" xlink:href="#DejaVuSans-Bold-101"/>
    <use x="1821.582031" xlink:href="#DejaVuSans-Bold-114"/>
    <use x="1870.898438" xlink:href="#DejaVuSans-Bold-115"/>
    <use x="1930.419922" xlink:href="#DejaVuSans-Bold-32"/>
    <use x="1965.234375" xlink:href="#DejaVuSans-Bold-111"/>
    <use x="2033.935547" xlink:href="#DejaVuSans-Bold-102"/>
    <use x="2077.441406" xlink:href="#DejaVuSans-Bold-32"/>
    <use x="2112.255859" xlink:href="#DejaVuSans-Bold-112"/>
    <use x="2183.837891" xlink:href="#DejaVuSans-Bold-97"/>
    <use x="2251.318359" xlink:href="#DejaVuSans-Bold-114"/>
    <use x="2300.634766" xlink:href="#DejaVuSans-Bold-116"/>
    <use x="2348.4375" xlink:href="#DejaVuSans-Bold-105"/>
    <use x="2382.714844" xlink:href="#DejaVuSans-Bold-116"/>
    <use x="2430.517578" xlink:href="#DejaVuSans-Bold-105"/>
    <use x="2464.794922" xlink:href="#DejaVuSans-Bold-111"/>
    <use x="2533.496094" xlink:href="#DejaVuSans-Bold-110"/>
    <use x="2604.6875" xlink:href="#DejaVuSans-Bold-115"/>
   </g>
  </g>
 </g>
 <defs>
  <clipPath id="p62a5c0b1b9">
   <rect height="266.112" width="357.12" x="46.789688" y="26.156933"/>
  </clipPath>
  <clipPath id="pa8f10d91df">
   <path d="M 423.309687 164.007902 
L 423.309687 148.167902 
L 439.149687 148.167902 
L 439.149687 164.007902 
"/>
  </clipPath>
  <clipPath id="pbdfbfef6c5">
   <path d="M 423.309687 181.847902 
L 423.309687 166.007902 
L 439.149687 166.007902 
L 439.149687 181.847902 
"/>
  </clipPath>
 </defs>
</svg>
