<?xml version="1.0" encoding="utf-8" standalone="no"?>
<!DOCTYPE svg PUBLIC "-//W3C//DTD SVG 1.1//EN"
  "http://www.w3.org/Graphics/SVG/1.1/DTD/svg11.dtd">
<!-- Created with matplotlib (https://matplotlib.org/) -->
<svg height="327.981621pt" version="1.1" viewBox="0 0 514.862562 327.981621" width="514.862562pt" xmlns="http://www.w3.org/2000/svg" xmlns:xlink="http://www.w3.org/1999/xlink">
 <defs>
  <style type="text/css">
*{stroke-linecap:butt;stroke-linejoin:round;}
  </style>
 </defs>
 <g id="figure_1">
  <g id="patch_1">
   <path d="M 0 327.981621 
L 514.862562 327.981621 
L 514.862562 0 
L 0 0 
z
" style="fill:#ffffff;stroke:#ffffff;stroke-linejoin:miter;"/>
  </g>
  <g id="axes_1">
   <g id="patch_2">
    <path d="M 46.789688 292.268933 
L 403.909688 292.268933 
L 403.909688 26.156933 
L 46.789688 26.156933 
z
" style="fill:#ffffff;"/>
   </g>
   <g id="matplotlib.axis_1">
    <g id="xtick_1">
     <g id="line2d_1">
      <path clip-path="url(#pc0f88bf2c7)" d="M 62.98183 292.268933 
L 62.98183 26.156933 
" style="fill:none;stroke:#d3d3d3;"/>
     </g>
     <g id="line2d_2">
      <path d="M 62.98183 292.268933 
" style="fill:none;stroke:#333333;stroke-width:1.5;"/>
      <defs>
       <path d="M 0 0 
L 0 2.75 
" id="mae27a00a48" style="stroke:#333333;"/>
      </defs>
      <g>
       <use style="fill:#333333;stroke:#333333;" x="62.98183" xlink:href="#mae27a00a48" y="292.268933"/>
      </g>
     </g>
     <g id="text_1">
      <!-- 0 -->
      <defs>
       <path d="M 31.78125 66.40625 
Q 24.171875 66.40625 20.328125 58.90625 
Q 16.5 51.421875 16.5 36.375 
Q 16.5 21.390625 20.328125 13.890625 
Q 24.171875 6.390625 31.78125 6.390625 
Q 39.453125 6.390625 43.28125 13.890625 
Q 47.125 21.390625 47.125 36.375 
Q 47.125 51.421875 43.28125 58.90625 
Q 39.453125 66.40625 31.78125 66.40625 
z
M 31.78125 74.21875 
Q 44.046875 74.21875 50.515625 64.515625 
Q 56.984375 54.828125 56.984375 36.375 
Q 56.984375 17.96875 50.515625 8.265625 
Q 44.046875 -1.421875 31.78125 -1.421875 
Q 19.53125 -1.421875 13.0625 8.265625 
Q 6.59375 17.96875 6.59375 36.375 
Q 6.59375 54.828125 13.0625 64.515625 
Q 19.53125 74.21875 31.78125 74.21875 
z
" id="DejaVuSans-48"/>
      </defs>
      <g style="fill:#4d4d4d;" transform="translate(60.18233 303.905558)scale(0.088 -0.088)">
       <use xlink:href="#DejaVuSans-48"/>
      </g>
     </g>
    </g>
    <g id="xtick_2">
     <g id="line2d_3">
      <path clip-path="url(#pc0f88bf2c7)" d="M 171.20903 292.268933 
L 171.20903 26.156933 
" style="fill:none;stroke:#d3d3d3;"/>
     </g>
     <g id="line2d_4">
      <path d="M 171.20903 292.268933 
" style="fill:none;stroke:#333333;stroke-width:1.5;"/>
      <g>
       <use style="fill:#333333;stroke:#333333;" x="171.20903" xlink:href="#mae27a00a48" y="292.268933"/>
      </g>
     </g>
     <g id="text_2">
      <!-- 2000 -->
      <defs>
       <path d="M 19.1875 8.296875 
L 53.609375 8.296875 
L 53.609375 0 
L 7.328125 0 
L 7.328125 8.296875 
Q 12.9375 14.109375 22.625 23.890625 
Q 32.328125 33.6875 34.8125 36.53125 
Q 39.546875 41.84375 41.421875 45.53125 
Q 43.3125 49.21875 43.3125 52.78125 
Q 43.3125 58.59375 39.234375 62.25 
Q 35.15625 65.921875 28.609375 65.921875 
Q 23.96875 65.921875 18.8125 64.3125 
Q 13.671875 62.703125 7.8125 59.421875 
L 7.8125 69.390625 
Q 13.765625 71.78125 18.9375 73 
Q 24.125 74.21875 28.421875 74.21875 
Q 39.75 74.21875 46.484375 68.546875 
Q 53.21875 62.890625 53.21875 53.421875 
Q 53.21875 48.921875 51.53125 44.890625 
Q 49.859375 40.875 45.40625 35.40625 
Q 44.1875 33.984375 37.640625 27.21875 
Q 31.109375 20.453125 19.1875 8.296875 
z
" id="DejaVuSans-50"/>
      </defs>
      <g style="fill:#4d4d4d;" transform="translate(160.01103 303.905558)scale(0.088 -0.088)">
       <use xlink:href="#DejaVuSans-50"/>
       <use x="63.623047" xlink:href="#DejaVuSans-48"/>
       <use x="127.246094" xlink:href="#DejaVuSans-48"/>
       <use x="190.869141" xlink:href="#DejaVuSans-48"/>
      </g>
     </g>
    </g>
    <g id="xtick_3">
     <g id="line2d_5">
      <path clip-path="url(#pc0f88bf2c7)" d="M 279.436231 292.268933 
L 279.436231 26.156933 
" style="fill:none;stroke:#d3d3d3;"/>
     </g>
     <g id="line2d_6">
      <path d="M 279.436231 292.268933 
" style="fill:none;stroke:#333333;stroke-width:1.5;"/>
      <g>
       <use style="fill:#333333;stroke:#333333;" x="279.436231" xlink:href="#mae27a00a48" y="292.268933"/>
      </g>
     </g>
     <g id="text_3">
      <!-- 4000 -->
      <defs>
       <path d="M 37.796875 64.3125 
L 12.890625 25.390625 
L 37.796875 25.390625 
z
M 35.203125 72.90625 
L 47.609375 72.90625 
L 47.609375 25.390625 
L 58.015625 25.390625 
L 58.015625 17.1875 
L 47.609375 17.1875 
L 47.609375 0 
L 37.796875 0 
L 37.796875 17.1875 
L 4.890625 17.1875 
L 4.890625 26.703125 
z
" id="DejaVuSans-52"/>
      </defs>
      <g style="fill:#4d4d4d;" transform="translate(268.238231 303.905558)scale(0.088 -0.088)">
       <use xlink:href="#DejaVuSans-52"/>
       <use x="63.623047" xlink:href="#DejaVuSans-48"/>
       <use x="127.246094" xlink:href="#DejaVuSans-48"/>
       <use x="190.869141" xlink:href="#DejaVuSans-48"/>
      </g>
     </g>
    </g>
    <g id="xtick_4">
     <g id="line2d_7">
      <path clip-path="url(#pc0f88bf2c7)" d="M 387.663432 292.268933 
L 387.663432 26.156933 
" style="fill:none;stroke:#d3d3d3;"/>
     </g>
     <g id="line2d_8">
      <path d="M 387.663432 292.268933 
" style="fill:none;stroke:#333333;stroke-width:1.5;"/>
      <g>
       <use style="fill:#333333;stroke:#333333;" x="387.663432" xlink:href="#mae27a00a48" y="292.268933"/>
      </g>
     </g>
     <g id="text_4">
      <!-- 6000 -->
      <defs>
       <path d="M 33.015625 40.375 
Q 26.375 40.375 22.484375 35.828125 
Q 18.609375 31.296875 18.609375 23.390625 
Q 18.609375 15.53125 22.484375 10.953125 
Q 26.375 6.390625 33.015625 6.390625 
Q 39.65625 6.390625 43.53125 10.953125 
Q 47.40625 15.53125 47.40625 23.390625 
Q 47.40625 31.296875 43.53125 35.828125 
Q 39.65625 40.375 33.015625 40.375 
z
M 52.59375 71.296875 
L 52.59375 62.3125 
Q 48.875 64.0625 45.09375 64.984375 
Q 41.3125 65.921875 37.59375 65.921875 
Q 27.828125 65.921875 22.671875 59.328125 
Q 17.53125 52.734375 16.796875 39.40625 
Q 19.671875 43.65625 24.015625 45.921875 
Q 28.375 48.1875 33.59375 48.1875 
Q 44.578125 48.1875 50.953125 41.515625 
Q 57.328125 34.859375 57.328125 23.390625 
Q 57.328125 12.15625 50.6875 5.359375 
Q 44.046875 -1.421875 33.015625 -1.421875 
Q 20.359375 -1.421875 13.671875 8.265625 
Q 6.984375 17.96875 6.984375 36.375 
Q 6.984375 53.65625 15.1875 63.9375 
Q 23.390625 74.21875 37.203125 74.21875 
Q 40.921875 74.21875 44.703125 73.484375 
Q 48.484375 72.75 52.59375 71.296875 
z
" id="DejaVuSans-54"/>
      </defs>
      <g style="fill:#4d4d4d;" transform="translate(376.465432 303.905558)scale(0.088 -0.088)">
       <use xlink:href="#DejaVuSans-54"/>
       <use x="63.623047" xlink:href="#DejaVuSans-48"/>
       <use x="127.246094" xlink:href="#DejaVuSans-48"/>
       <use x="190.869141" xlink:href="#DejaVuSans-48"/>
      </g>
     </g>
    </g>
    <g id="xtick_5">
     <g id="line2d_9">
      <path clip-path="url(#pc0f88bf2c7)" d="M 117.09543 292.268933 
L 117.09543 26.156933 
" style="fill:none;stroke:#ffffff;stroke-width:0.5;"/>
     </g>
     <g id="line2d_10">
      <path d="M 117.09543 292.268933 
" style="fill:none;stroke:#333333;stroke-width:1.5;"/>
     </g>
    </g>
    <g id="xtick_6">
     <g id="line2d_11">
      <path clip-path="url(#pc0f88bf2c7)" d="M 225.322631 292.268933 
L 225.322631 26.156933 
" style="fill:none;stroke:#ffffff;stroke-width:0.5;"/>
     </g>
     <g id="line2d_12">
      <path d="M 225.322631 292.268933 
" style="fill:none;stroke:#333333;stroke-width:1.5;"/>
     </g>
    </g>
    <g id="xtick_7">
     <g id="line2d_13">
      <path clip-path="url(#pc0f88bf2c7)" d="M 333.549831 292.268933 
L 333.549831 26.156933 
" style="fill:none;stroke:#ffffff;stroke-width:0.5;"/>
     </g>
     <g id="line2d_14">
      <path d="M 333.549831 292.268933 
" style="fill:none;stroke:#333333;stroke-width:1.5;"/>
     </g>
    </g>
    <g id="text_5">
     <!-- Number of Partitions -->
     <defs>
      <path d="M 9.8125 72.90625 
L 23.09375 72.90625 
L 55.421875 11.921875 
L 55.421875 72.90625 
L 64.984375 72.90625 
L 64.984375 0 
L 51.703125 0 
L 19.390625 60.984375 
L 19.390625 0 
L 9.8125 0 
z
" id="DejaVuSans-78"/>
      <path d="M 8.5 21.578125 
L 8.5 54.6875 
L 17.484375 54.6875 
L 17.484375 21.921875 
Q 17.484375 14.15625 20.5 10.265625 
Q 23.53125 6.390625 29.59375 6.390625 
Q 36.859375 6.390625 41.078125 11.03125 
Q 45.3125 15.671875 45.3125 23.6875 
L 45.3125 54.6875 
L 54.296875 54.6875 
L 54.296875 0 
L 45.3125 0 
L 45.3125 8.40625 
Q 42.046875 3.421875 37.71875 1 
Q 33.40625 -1.421875 27.6875 -1.421875 
Q 18.265625 -1.421875 13.375 4.4375 
Q 8.5 10.296875 8.5 21.578125 
z
M 31.109375 56 
z
" id="DejaVuSans-117"/>
      <path d="M 52 44.1875 
Q 55.375 50.25 60.0625 53.125 
Q 64.75 56 71.09375 56 
Q 79.640625 56 84.28125 50.015625 
Q 88.921875 44.046875 88.921875 33.015625 
L 88.921875 0 
L 79.890625 0 
L 79.890625 32.71875 
Q 79.890625 40.578125 77.09375 44.375 
Q 74.3125 48.1875 68.609375 48.1875 
Q 61.625 48.1875 57.5625 43.546875 
Q 53.515625 38.921875 53.515625 30.90625 
L 53.515625 0 
L 44.484375 0 
L 44.484375 32.71875 
Q 44.484375 40.625 41.703125 44.40625 
Q 38.921875 48.1875 33.109375 48.1875 
Q 26.21875 48.1875 22.15625 43.53125 
Q 18.109375 38.875 18.109375 30.90625 
L 18.109375 0 
L 9.078125 0 
L 9.078125 54.6875 
L 18.109375 54.6875 
L 18.109375 46.1875 
Q 21.1875 51.21875 25.484375 53.609375 
Q 29.78125 56 35.6875 56 
Q 41.65625 56 45.828125 52.96875 
Q 50 49.953125 52 44.1875 
z
" id="DejaVuSans-109"/>
      <path d="M 48.6875 27.296875 
Q 48.6875 37.203125 44.609375 42.84375 
Q 40.53125 48.484375 33.40625 48.484375 
Q 26.265625 48.484375 22.1875 42.84375 
Q 18.109375 37.203125 18.109375 27.296875 
Q 18.109375 17.390625 22.1875 11.75 
Q 26.265625 6.109375 33.40625 6.109375 
Q 40.53125 6.109375 44.609375 11.75 
Q 48.6875 17.390625 48.6875 27.296875 
z
M 18.109375 46.390625 
Q 20.953125 51.265625 25.265625 53.625 
Q 29.59375 56 35.59375 56 
Q 45.5625 56 51.78125 48.09375 
Q 58.015625 40.1875 58.015625 27.296875 
Q 58.015625 14.40625 51.78125 6.484375 
Q 45.5625 -1.421875 35.59375 -1.421875 
Q 29.59375 -1.421875 25.265625 0.953125 
Q 20.953125 3.328125 18.109375 8.203125 
L 18.109375 0 
L 9.078125 0 
L 9.078125 75.984375 
L 18.109375 75.984375 
z
" id="DejaVuSans-98"/>
      <path d="M 56.203125 29.59375 
L 56.203125 25.203125 
L 14.890625 25.203125 
Q 15.484375 15.921875 20.484375 11.0625 
Q 25.484375 6.203125 34.421875 6.203125 
Q 39.59375 6.203125 44.453125 7.46875 
Q 49.3125 8.734375 54.109375 11.28125 
L 54.109375 2.78125 
Q 49.265625 0.734375 44.1875 -0.34375 
Q 39.109375 -1.421875 33.890625 -1.421875 
Q 20.796875 -1.421875 13.15625 6.1875 
Q 5.515625 13.8125 5.515625 26.8125 
Q 5.515625 40.234375 12.765625 48.109375 
Q 20.015625 56 32.328125 56 
Q 43.359375 56 49.78125 48.890625 
Q 56.203125 41.796875 56.203125 29.59375 
z
M 47.21875 32.234375 
Q 47.125 39.59375 43.09375 43.984375 
Q 39.0625 48.390625 32.421875 48.390625 
Q 24.90625 48.390625 20.390625 44.140625 
Q 15.875 39.890625 15.1875 32.171875 
z
" id="DejaVuSans-101"/>
      <path d="M 41.109375 46.296875 
Q 39.59375 47.171875 37.8125 47.578125 
Q 36.03125 48 33.890625 48 
Q 26.265625 48 22.1875 43.046875 
Q 18.109375 38.09375 18.109375 28.8125 
L 18.109375 0 
L 9.078125 0 
L 9.078125 54.6875 
L 18.109375 54.6875 
L 18.109375 46.1875 
Q 20.953125 51.171875 25.484375 53.578125 
Q 30.03125 56 36.53125 56 
Q 37.453125 56 38.578125 55.875 
Q 39.703125 55.765625 41.0625 55.515625 
z
" id="DejaVuSans-114"/>
      <path id="DejaVuSans-32"/>
      <path d="M 30.609375 48.390625 
Q 23.390625 48.390625 19.1875 42.75 
Q 14.984375 37.109375 14.984375 27.296875 
Q 14.984375 17.484375 19.15625 11.84375 
Q 23.34375 6.203125 30.609375 6.203125 
Q 37.796875 6.203125 41.984375 11.859375 
Q 46.1875 17.53125 46.1875 27.296875 
Q 46.1875 37.015625 41.984375 42.703125 
Q 37.796875 48.390625 30.609375 48.390625 
z
M 30.609375 56 
Q 42.328125 56 49.015625 48.375 
Q 55.71875 40.765625 55.71875 27.296875 
Q 55.71875 13.875 49.015625 6.21875 
Q 42.328125 -1.421875 30.609375 -1.421875 
Q 18.84375 -1.421875 12.171875 6.21875 
Q 5.515625 13.875 5.515625 27.296875 
Q 5.515625 40.765625 12.171875 48.375 
Q 18.84375 56 30.609375 56 
z
" id="DejaVuSans-111"/>
      <path d="M 37.109375 75.984375 
L 37.109375 68.5 
L 28.515625 68.5 
Q 23.6875 68.5 21.796875 66.546875 
Q 19.921875 64.59375 19.921875 59.515625 
L 19.921875 54.6875 
L 34.71875 54.6875 
L 34.71875 47.703125 
L 19.921875 47.703125 
L 19.921875 0 
L 10.890625 0 
L 10.890625 47.703125 
L 2.296875 47.703125 
L 2.296875 54.6875 
L 10.890625 54.6875 
L 10.890625 58.5 
Q 10.890625 67.625 15.140625 71.796875 
Q 19.390625 75.984375 28.609375 75.984375 
z
" id="DejaVuSans-102"/>
      <path d="M 19.671875 64.796875 
L 19.671875 37.40625 
L 32.078125 37.40625 
Q 38.96875 37.40625 42.71875 40.96875 
Q 46.484375 44.53125 46.484375 51.125 
Q 46.484375 57.671875 42.71875 61.234375 
Q 38.96875 64.796875 32.078125 64.796875 
z
M 9.8125 72.90625 
L 32.078125 72.90625 
Q 44.34375 72.90625 50.609375 67.359375 
Q 56.890625 61.8125 56.890625 51.125 
Q 56.890625 40.328125 50.609375 34.8125 
Q 44.34375 29.296875 32.078125 29.296875 
L 19.671875 29.296875 
L 19.671875 0 
L 9.8125 0 
z
" id="DejaVuSans-80"/>
      <path d="M 34.28125 27.484375 
Q 23.390625 27.484375 19.1875 25 
Q 14.984375 22.515625 14.984375 16.5 
Q 14.984375 11.71875 18.140625 8.90625 
Q 21.296875 6.109375 26.703125 6.109375 
Q 34.1875 6.109375 38.703125 11.40625 
Q 43.21875 16.703125 43.21875 25.484375 
L 43.21875 27.484375 
z
M 52.203125 31.203125 
L 52.203125 0 
L 43.21875 0 
L 43.21875 8.296875 
Q 40.140625 3.328125 35.546875 0.953125 
Q 30.953125 -1.421875 24.3125 -1.421875 
Q 15.921875 -1.421875 10.953125 3.296875 
Q 6 8.015625 6 15.921875 
Q 6 25.140625 12.171875 29.828125 
Q 18.359375 34.515625 30.609375 34.515625 
L 43.21875 34.515625 
L 43.21875 35.40625 
Q 43.21875 41.609375 39.140625 45 
Q 35.0625 48.390625 27.6875 48.390625 
Q 23 48.390625 18.546875 47.265625 
Q 14.109375 46.140625 10.015625 43.890625 
L 10.015625 52.203125 
Q 14.9375 54.109375 19.578125 55.046875 
Q 24.21875 56 28.609375 56 
Q 40.484375 56 46.34375 49.84375 
Q 52.203125 43.703125 52.203125 31.203125 
z
" id="DejaVuSans-97"/>
      <path d="M 18.3125 70.21875 
L 18.3125 54.6875 
L 36.8125 54.6875 
L 36.8125 47.703125 
L 18.3125 47.703125 
L 18.3125 18.015625 
Q 18.3125 11.328125 20.140625 9.421875 
Q 21.96875 7.515625 27.59375 7.515625 
L 36.8125 7.515625 
L 36.8125 0 
L 27.59375 0 
Q 17.1875 0 13.234375 3.875 
Q 9.28125 7.765625 9.28125 18.015625 
L 9.28125 47.703125 
L 2.6875 47.703125 
L 2.6875 54.6875 
L 9.28125 54.6875 
L 9.28125 70.21875 
z
" id="DejaVuSans-116"/>
      <path d="M 9.421875 54.6875 
L 18.40625 54.6875 
L 18.40625 0 
L 9.421875 0 
z
M 9.421875 75.984375 
L 18.40625 75.984375 
L 18.40625 64.59375 
L 9.421875 64.59375 
z
" id="DejaVuSans-105"/>
      <path d="M 54.890625 33.015625 
L 54.890625 0 
L 45.90625 0 
L 45.90625 32.71875 
Q 45.90625 40.484375 42.875 44.328125 
Q 39.84375 48.1875 33.796875 48.1875 
Q 26.515625 48.1875 22.3125 43.546875 
Q 18.109375 38.921875 18.109375 30.90625 
L 18.109375 0 
L 9.078125 0 
L 9.078125 54.6875 
L 18.109375 54.6875 
L 18.109375 46.1875 
Q 21.34375 51.125 25.703125 53.5625 
Q 30.078125 56 35.796875 56 
Q 45.21875 56 50.046875 50.171875 
Q 54.890625 44.34375 54.890625 33.015625 
z
" id="DejaVuSans-110"/>
      <path d="M 44.28125 53.078125 
L 44.28125 44.578125 
Q 40.484375 46.53125 36.375 47.5 
Q 32.28125 48.484375 27.875 48.484375 
Q 21.1875 48.484375 17.84375 46.4375 
Q 14.5 44.390625 14.5 40.28125 
Q 14.5 37.15625 16.890625 35.375 
Q 19.28125 33.59375 26.515625 31.984375 
L 29.59375 31.296875 
Q 39.15625 29.25 43.1875 25.515625 
Q 47.21875 21.78125 47.21875 15.09375 
Q 47.21875 7.46875 41.1875 3.015625 
Q 35.15625 -1.421875 24.609375 -1.421875 
Q 20.21875 -1.421875 15.453125 -0.5625 
Q 10.6875 0.296875 5.421875 2 
L 5.421875 11.28125 
Q 10.40625 8.6875 15.234375 7.390625 
Q 20.0625 6.109375 24.8125 6.109375 
Q 31.15625 6.109375 34.5625 8.28125 
Q 37.984375 10.453125 37.984375 14.40625 
Q 37.984375 18.0625 35.515625 20.015625 
Q 33.0625 21.96875 24.703125 23.78125 
L 21.578125 24.515625 
Q 13.234375 26.265625 9.515625 29.90625 
Q 5.8125 33.546875 5.8125 39.890625 
Q 5.8125 47.609375 11.28125 51.796875 
Q 16.75 56 26.8125 56 
Q 31.78125 56 36.171875 55.265625 
Q 40.578125 54.546875 44.28125 53.078125 
z
" id="DejaVuSans-115"/>
     </defs>
     <g transform="translate(162.668984 318.493964)scale(0.11 -0.11)">
      <use xlink:href="#DejaVuSans-78"/>
      <use x="74.804688" xlink:href="#DejaVuSans-117"/>
      <use x="138.183594" xlink:href="#DejaVuSans-109"/>
      <use x="235.595703" xlink:href="#DejaVuSans-98"/>
      <use x="299.072266" xlink:href="#DejaVuSans-101"/>
      <use x="360.595703" xlink:href="#DejaVuSans-114"/>
      <use x="401.708984" xlink:href="#DejaVuSans-32"/>
      <use x="433.496094" xlink:href="#DejaVuSans-111"/>
      <use x="494.677734" xlink:href="#DejaVuSans-102"/>
      <use x="529.882812" xlink:href="#DejaVuSans-32"/>
      <use x="561.669922" xlink:href="#DejaVuSans-80"/>
      <use x="621.910156" xlink:href="#DejaVuSans-97"/>
      <use x="683.189453" xlink:href="#DejaVuSans-114"/>
      <use x="724.302734" xlink:href="#DejaVuSans-116"/>
      <use x="763.511719" xlink:href="#DejaVuSans-105"/>
      <use x="791.294922" xlink:href="#DejaVuSans-116"/>
      <use x="830.503906" xlink:href="#DejaVuSans-105"/>
      <use x="858.287109" xlink:href="#DejaVuSans-111"/>
      <use x="919.46875" xlink:href="#DejaVuSans-110"/>
      <use x="982.847656" xlink:href="#DejaVuSans-115"/>
     </g>
    </g>
   </g>
   <g id="matplotlib.axis_2">
    <g id="ytick_1">
     <g id="line2d_15">
      <path clip-path="url(#pc0f88bf2c7)" d="M 46.789688 284.099214 
L 403.909688 284.099214 
" style="fill:none;stroke:#d3d3d3;"/>
     </g>
     <g id="line2d_16">
      <path d="M 46.789688 284.099214 
" style="fill:none;stroke:#333333;stroke-width:1.5;"/>
      <defs>
       <path d="M 0 0 
L -2.75 0 
" id="mb7168666bf" style="stroke:#333333;"/>
      </defs>
      <g>
       <use style="fill:#333333;stroke:#333333;" x="46.789688" xlink:href="#mb7168666bf" y="284.099214"/>
      </g>
     </g>
     <g id="text_6">
      <!-- 0 -->
      <g style="fill:#4d4d4d;" transform="translate(36.240688 286.527464)scale(0.088 -0.088)">
       <use xlink:href="#DejaVuSans-48"/>
      </g>
     </g>
    </g>
    <g id="ytick_2">
     <g id="line2d_17">
      <path clip-path="url(#pc0f88bf2c7)" d="M 46.789688 222.637272 
L 403.909688 222.637272 
" style="fill:none;stroke:#d3d3d3;"/>
     </g>
     <g id="line2d_18">
      <path d="M 46.789688 222.637272 
" style="fill:none;stroke:#333333;stroke-width:1.5;"/>
      <g>
       <use style="fill:#333333;stroke:#333333;" x="46.789688" xlink:href="#mb7168666bf" y="222.637272"/>
      </g>
     </g>
     <g id="text_7">
      <!-- 0.25 -->
      <defs>
       <path d="M 10.6875 12.40625 
L 21 12.40625 
L 21 0 
L 10.6875 0 
z
" id="DejaVuSans-46"/>
       <path d="M 10.796875 72.90625 
L 49.515625 72.90625 
L 49.515625 64.59375 
L 19.828125 64.59375 
L 19.828125 46.734375 
Q 21.96875 47.46875 24.109375 47.828125 
Q 26.265625 48.1875 28.421875 48.1875 
Q 40.625 48.1875 47.75 41.5 
Q 54.890625 34.8125 54.890625 23.390625 
Q 54.890625 11.625 47.5625 5.09375 
Q 40.234375 -1.421875 26.90625 -1.421875 
Q 22.3125 -1.421875 17.546875 -0.640625 
Q 12.796875 0.140625 7.71875 1.703125 
L 7.71875 11.625 
Q 12.109375 9.234375 16.796875 8.0625 
Q 21.484375 6.890625 26.703125 6.890625 
Q 35.15625 6.890625 40.078125 11.328125 
Q 45.015625 15.765625 45.015625 23.390625 
Q 45.015625 31 40.078125 35.4375 
Q 35.15625 39.890625 26.703125 39.890625 
Q 22.75 39.890625 18.8125 39.015625 
Q 14.890625 38.140625 10.796875 36.28125 
z
" id="DejaVuSans-53"/>
      </defs>
      <g style="fill:#4d4d4d;" transform="translate(22.245938 225.065522)scale(0.088 -0.088)">
       <use xlink:href="#DejaVuSans-48"/>
       <use x="63.623047" xlink:href="#DejaVuSans-46"/>
       <use x="95.410156" xlink:href="#DejaVuSans-50"/>
       <use x="159.033203" xlink:href="#DejaVuSans-53"/>
      </g>
     </g>
    </g>
    <g id="ytick_3">
     <g id="line2d_19">
      <path clip-path="url(#pc0f88bf2c7)" d="M 46.789688 161.17533 
L 403.909688 161.17533 
" style="fill:none;stroke:#d3d3d3;"/>
     </g>
     <g id="line2d_20">
      <path d="M 46.789688 161.17533 
" style="fill:none;stroke:#333333;stroke-width:1.5;"/>
      <g>
       <use style="fill:#333333;stroke:#333333;" x="46.789688" xlink:href="#mb7168666bf" y="161.17533"/>
      </g>
     </g>
     <g id="text_8">
      <!-- 0.50 -->
      <g style="fill:#4d4d4d;" transform="translate(22.245938 163.60358)scale(0.088 -0.088)">
       <use xlink:href="#DejaVuSans-48"/>
       <use x="63.623047" xlink:href="#DejaVuSans-46"/>
       <use x="95.410156" xlink:href="#DejaVuSans-53"/>
       <use x="159.033203" xlink:href="#DejaVuSans-48"/>
      </g>
     </g>
    </g>
    <g id="ytick_4">
     <g id="line2d_21">
      <path clip-path="url(#pc0f88bf2c7)" d="M 46.789688 99.713388 
L 403.909688 99.713388 
" style="fill:none;stroke:#d3d3d3;"/>
     </g>
     <g id="line2d_22">
      <path d="M 46.789688 99.713388 
" style="fill:none;stroke:#333333;stroke-width:1.5;"/>
      <g>
       <use style="fill:#333333;stroke:#333333;" x="46.789688" xlink:href="#mb7168666bf" y="99.713388"/>
      </g>
     </g>
     <g id="text_9">
      <!-- 0.75 -->
      <defs>
       <path d="M 8.203125 72.90625 
L 55.078125 72.90625 
L 55.078125 68.703125 
L 28.609375 0 
L 18.3125 0 
L 43.21875 64.59375 
L 8.203125 64.59375 
z
" id="DejaVuSans-55"/>
      </defs>
      <g style="fill:#4d4d4d;" transform="translate(22.245938 102.141638)scale(0.088 -0.088)">
       <use xlink:href="#DejaVuSans-48"/>
       <use x="63.623047" xlink:href="#DejaVuSans-46"/>
       <use x="95.410156" xlink:href="#DejaVuSans-55"/>
       <use x="159.033203" xlink:href="#DejaVuSans-53"/>
      </g>
     </g>
    </g>
    <g id="ytick_5">
     <g id="line2d_23">
      <path clip-path="url(#pc0f88bf2c7)" d="M 46.789688 38.251447 
L 403.909688 38.251447 
" style="fill:none;stroke:#d3d3d3;"/>
     </g>
     <g id="line2d_24">
      <path d="M 46.789688 38.251447 
" style="fill:none;stroke:#333333;stroke-width:1.5;"/>
      <g>
       <use style="fill:#333333;stroke:#333333;" x="46.789688" xlink:href="#mb7168666bf" y="38.251447"/>
      </g>
     </g>
     <g id="text_10">
      <!-- 1 -->
      <defs>
       <path d="M 12.40625 8.296875 
L 28.515625 8.296875 
L 28.515625 63.921875 
L 10.984375 60.40625 
L 10.984375 69.390625 
L 28.421875 72.90625 
L 38.28125 72.90625 
L 38.28125 8.296875 
L 54.390625 8.296875 
L 54.390625 0 
L 12.40625 0 
z
" id="DejaVuSans-49"/>
      </defs>
      <g style="fill:#4d4d4d;" transform="translate(36.240688 40.679697)scale(0.088 -0.088)">
       <use xlink:href="#DejaVuSans-49"/>
      </g>
     </g>
    </g>
    <g id="ytick_6">
     <g id="line2d_25">
      <path clip-path="url(#pc0f88bf2c7)" d="M 46.789688 253.368243 
L 403.909688 253.368243 
" style="fill:none;stroke:#ffffff;stroke-width:0.5;"/>
     </g>
     <g id="line2d_26">
      <path d="M 46.789688 253.368243 
" style="fill:none;stroke:#333333;stroke-width:1.5;"/>
     </g>
    </g>
    <g id="ytick_7">
     <g id="line2d_27">
      <path clip-path="url(#pc0f88bf2c7)" d="M 46.789688 191.906301 
L 403.909688 191.906301 
" style="fill:none;stroke:#ffffff;stroke-width:0.5;"/>
     </g>
     <g id="line2d_28">
      <path d="M 46.789688 191.906301 
" style="fill:none;stroke:#333333;stroke-width:1.5;"/>
     </g>
    </g>
    <g id="ytick_8">
     <g id="line2d_29">
      <path clip-path="url(#pc0f88bf2c7)" d="M 46.789688 130.444359 
L 403.909688 130.444359 
" style="fill:none;stroke:#ffffff;stroke-width:0.5;"/>
     </g>
     <g id="line2d_30">
      <path d="M 46.789688 130.444359 
" style="fill:none;stroke:#333333;stroke-width:1.5;"/>
     </g>
    </g>
    <g id="ytick_9">
     <g id="line2d_31">
      <path clip-path="url(#pc0f88bf2c7)" d="M 46.789688 68.982418 
L 403.909688 68.982418 
" style="fill:none;stroke:#ffffff;stroke-width:0.5;"/>
     </g>
     <g id="line2d_32">
      <path d="M 46.789688 68.982418 
" style="fill:none;stroke:#333333;stroke-width:1.5;"/>
     </g>
    </g>
    <g id="text_11">
     <!-- Similarity score (SVCCA) -->
     <defs>
      <path d="M 53.515625 70.515625 
L 53.515625 60.890625 
Q 47.90625 63.578125 42.921875 64.890625 
Q 37.9375 66.21875 33.296875 66.21875 
Q 25.25 66.21875 20.875 63.09375 
Q 16.5 59.96875 16.5 54.203125 
Q 16.5 49.359375 19.40625 46.890625 
Q 22.3125 44.4375 30.421875 42.921875 
L 36.375 41.703125 
Q 47.40625 39.59375 52.65625 34.296875 
Q 57.90625 29 57.90625 20.125 
Q 57.90625 9.515625 50.796875 4.046875 
Q 43.703125 -1.421875 29.984375 -1.421875 
Q 24.8125 -1.421875 18.96875 -0.25 
Q 13.140625 0.921875 6.890625 3.21875 
L 6.890625 13.375 
Q 12.890625 10.015625 18.65625 8.296875 
Q 24.421875 6.59375 29.984375 6.59375 
Q 38.421875 6.59375 43.015625 9.90625 
Q 47.609375 13.234375 47.609375 19.390625 
Q 47.609375 24.75 44.3125 27.78125 
Q 41.015625 30.8125 33.5 32.328125 
L 27.484375 33.5 
Q 16.453125 35.6875 11.515625 40.375 
Q 6.59375 45.0625 6.59375 53.421875 
Q 6.59375 63.09375 13.40625 68.65625 
Q 20.21875 74.21875 32.171875 74.21875 
Q 37.3125 74.21875 42.625 73.28125 
Q 47.953125 72.359375 53.515625 70.515625 
z
" id="DejaVuSans-83"/>
      <path d="M 9.421875 75.984375 
L 18.40625 75.984375 
L 18.40625 0 
L 9.421875 0 
z
" id="DejaVuSans-108"/>
      <path d="M 32.171875 -5.078125 
Q 28.375 -14.84375 24.75 -17.8125 
Q 21.140625 -20.796875 15.09375 -20.796875 
L 7.90625 -20.796875 
L 7.90625 -13.28125 
L 13.1875 -13.28125 
Q 16.890625 -13.28125 18.9375 -11.515625 
Q 21 -9.765625 23.484375 -3.21875 
L 25.09375 0.875 
L 2.984375 54.6875 
L 12.5 54.6875 
L 29.59375 11.921875 
L 46.6875 54.6875 
L 56.203125 54.6875 
z
" id="DejaVuSans-121"/>
      <path d="M 48.78125 52.59375 
L 48.78125 44.1875 
Q 44.96875 46.296875 41.140625 47.34375 
Q 37.3125 48.390625 33.40625 48.390625 
Q 24.65625 48.390625 19.8125 42.84375 
Q 14.984375 37.3125 14.984375 27.296875 
Q 14.984375 17.28125 19.8125 11.734375 
Q 24.65625 6.203125 33.40625 6.203125 
Q 37.3125 6.203125 41.140625 7.25 
Q 44.96875 8.296875 48.78125 10.40625 
L 48.78125 2.09375 
Q 45.015625 0.34375 40.984375 -0.53125 
Q 36.96875 -1.421875 32.421875 -1.421875 
Q 20.0625 -1.421875 12.78125 6.34375 
Q 5.515625 14.109375 5.515625 27.296875 
Q 5.515625 40.671875 12.859375 48.328125 
Q 20.21875 56 33.015625 56 
Q 37.15625 56 41.109375 55.140625 
Q 45.0625 54.296875 48.78125 52.59375 
z
" id="DejaVuSans-99"/>
      <path d="M 31 75.875 
Q 24.46875 64.65625 21.28125 53.65625 
Q 18.109375 42.671875 18.109375 31.390625 
Q 18.109375 20.125 21.3125 9.0625 
Q 24.515625 -2 31 -13.1875 
L 23.1875 -13.1875 
Q 15.875 -1.703125 12.234375 9.375 
Q 8.59375 20.453125 8.59375 31.390625 
Q 8.59375 42.28125 12.203125 53.3125 
Q 15.828125 64.359375 23.1875 75.875 
z
" id="DejaVuSans-40"/>
      <path d="M 28.609375 0 
L 0.78125 72.90625 
L 11.078125 72.90625 
L 34.1875 11.53125 
L 57.328125 72.90625 
L 67.578125 72.90625 
L 39.796875 0 
z
" id="DejaVuSans-86"/>
      <path d="M 64.40625 67.28125 
L 64.40625 56.890625 
Q 59.421875 61.53125 53.78125 63.8125 
Q 48.140625 66.109375 41.796875 66.109375 
Q 29.296875 66.109375 22.65625 58.46875 
Q 16.015625 50.828125 16.015625 36.375 
Q 16.015625 21.96875 22.65625 14.328125 
Q 29.296875 6.6875 41.796875 6.6875 
Q 48.140625 6.6875 53.78125 8.984375 
Q 59.421875 11.28125 64.40625 15.921875 
L 64.40625 5.609375 
Q 59.234375 2.09375 53.4375 0.328125 
Q 47.65625 -1.421875 41.21875 -1.421875 
Q 24.65625 -1.421875 15.125 8.703125 
Q 5.609375 18.84375 5.609375 36.375 
Q 5.609375 53.953125 15.125 64.078125 
Q 24.65625 74.21875 41.21875 74.21875 
Q 47.75 74.21875 53.53125 72.484375 
Q 59.328125 70.75 64.40625 67.28125 
z
" id="DejaVuSans-67"/>
      <path d="M 34.1875 63.1875 
L 20.796875 26.90625 
L 47.609375 26.90625 
z
M 28.609375 72.90625 
L 39.796875 72.90625 
L 67.578125 0 
L 57.328125 0 
L 50.6875 18.703125 
L 17.828125 18.703125 
L 11.1875 0 
L 0.78125 0 
z
" id="DejaVuSans-65"/>
      <path d="M 8.015625 75.875 
L 15.828125 75.875 
Q 23.140625 64.359375 26.78125 53.3125 
Q 30.421875 42.28125 30.421875 31.390625 
Q 30.421875 20.453125 26.78125 9.375 
Q 23.140625 -1.703125 15.828125 -13.1875 
L 8.015625 -13.1875 
Q 14.5 -2 17.703125 9.0625 
Q 20.90625 20.125 20.90625 31.390625 
Q 20.90625 42.671875 17.703125 53.65625 
Q 14.5 64.65625 8.015625 75.875 
z
" id="DejaVuSans-41"/>
     </defs>
     <g transform="translate(15.558281 224.871964)rotate(-90)scale(0.11 -0.11)">
      <use xlink:href="#DejaVuSans-83"/>
      <use x="63.476562" xlink:href="#DejaVuSans-105"/>
      <use x="91.259766" xlink:href="#DejaVuSans-109"/>
      <use x="188.671875" xlink:href="#DejaVuSans-105"/>
      <use x="216.455078" xlink:href="#DejaVuSans-108"/>
      <use x="244.238281" xlink:href="#DejaVuSans-97"/>
      <use x="305.517578" xlink:href="#DejaVuSans-114"/>
      <use x="346.630859" xlink:href="#DejaVuSans-105"/>
      <use x="374.414062" xlink:href="#DejaVuSans-116"/>
      <use x="413.623047" xlink:href="#DejaVuSans-121"/>
      <use x="472.802734" xlink:href="#DejaVuSans-32"/>
      <use x="504.589844" xlink:href="#DejaVuSans-115"/>
      <use x="556.689453" xlink:href="#DejaVuSans-99"/>
      <use x="611.669922" xlink:href="#DejaVuSans-111"/>
      <use x="672.851562" xlink:href="#DejaVuSans-114"/>
      <use x="713.933594" xlink:href="#DejaVuSans-101"/>
      <use x="775.457031" xlink:href="#DejaVuSans-32"/>
      <use x="807.244141" xlink:href="#DejaVuSans-40"/>
      <use x="846.257812" xlink:href="#DejaVuSans-83"/>
      <use x="909.734375" xlink:href="#DejaVuSans-86"/>
      <use x="978.142578" xlink:href="#DejaVuSans-67"/>
      <use x="1047.966797" xlink:href="#DejaVuSans-67"/>
      <use x="1117.791016" xlink:href="#DejaVuSans-65"/>
      <use x="1186.199219" xlink:href="#DejaVuSans-41"/>
     </g>
    </g>
   </g>
   <g id="line2d_33">
    <path clip-path="url(#pc0f88bf2c7)" d="M 63.035943 38.252933 
L 63.090057 38.263726 
L 63.252398 38.320171 
L 63.522966 38.438728 
L 64.064102 38.637229 
L 65.68751 39.265329 
L 68.39319 40.371554 
L 90.03863 48.934439 
L 117.09543 59.855453 
L 171.20903 83.082377 
L 225.322631 109.411885 
L 387.663432 280.172933 
" style="fill:none;stroke:#1976d2;stroke-width:2.658681;"/>
   </g>
   <g id="line2d_34">
    <path clip-path="url(#pc0f88bf2c7)" d="M 63.035943 38.252933 
L 63.090057 62.621795 
L 63.252398 111.838466 
L 63.522966 38.946771 
L 64.064102 38.476512 
L 65.68751 38.375326 
L 68.39319 38.366043 
L 90.03863 38.349825 
L 117.09543 38.348135 
L 171.20903 38.347542 
L 225.322631 38.348102 
L 387.663432 38.345542 
" style="fill:none;stroke:#b3e5fc;stroke-width:2.658681;"/>
   </g>
   <g id="PathCollection_1">
    <path clip-path="url(#pc0f88bf2c7)" d="M 63.035943 39.13916 
C 63.270973 39.13916 63.496409 39.045782 63.6626 38.87959 
C 63.828792 38.713399 63.92217 38.487963 63.92217 38.252933 
C 63.92217 38.017903 63.828792 37.792468 63.6626 37.626276 
C 63.496409 37.460085 63.270973 37.366706 63.035943 37.366706 
C 62.800913 37.366706 62.575478 37.460085 62.409286 37.626276 
C 62.243095 37.792468 62.149716 38.017903 62.149716 38.252933 
C 62.149716 38.487963 62.243095 38.713399 62.409286 38.87959 
C 62.575478 39.045782 62.800913 39.13916 63.035943 39.13916 
z
" style="fill:#a9a9a9;stroke:#a9a9a9;stroke-width:0.886227;"/>
    <path clip-path="url(#pc0f88bf2c7)" d="M 63.090057 63.508021 
C 63.325087 63.508021 63.550522 63.414643 63.716714 63.248452 
C 63.882905 63.08226 63.976284 62.856825 63.976284 62.621795 
C 63.976284 62.386764 63.882905 62.161329 63.716714 61.995137 
C 63.550522 61.828946 63.325087 61.735568 63.090057 61.735568 
C 62.855027 61.735568 62.629591 61.828946 62.4634 61.995137 
C 62.297208 62.161329 62.20383 62.386764 62.20383 62.621795 
C 62.20383 62.856825 62.297208 63.08226 62.4634 63.248452 
C 62.629591 63.414643 62.855027 63.508021 63.090057 63.508021 
z
" style="fill:#a9a9a9;stroke:#a9a9a9;stroke-width:0.886227;"/>
    <path clip-path="url(#pc0f88bf2c7)" d="M 63.252398 112.724693 
C 63.487428 112.724693 63.712863 112.631315 63.879055 112.465123 
C 64.045246 112.298932 64.138624 112.073496 64.138624 111.838466 
C 64.138624 111.603436 64.045246 111.378001 63.879055 111.211809 
C 63.712863 111.045618 63.487428 110.952239 63.252398 110.952239 
C 63.017367 110.952239 62.791932 111.045618 62.625741 111.211809 
C 62.459549 111.378001 62.366171 111.603436 62.366171 111.838466 
C 62.366171 112.073496 62.459549 112.298932 62.625741 112.465123 
C 62.791932 112.631315 63.017367 112.724693 63.252398 112.724693 
z
" style="fill:#a9a9a9;stroke:#a9a9a9;stroke-width:0.886227;"/>
    <path clip-path="url(#pc0f88bf2c7)" d="M 63.522966 39.832998 
C 63.757996 39.832998 63.983431 39.739619 64.149623 39.573428 
C 64.315814 39.407236 64.409193 39.181801 64.409193 38.946771 
C 64.409193 38.71174 64.315814 38.486305 64.149623 38.320114 
C 63.983431 38.153922 63.757996 38.060544 63.522966 38.060544 
C 63.287935 38.060544 63.0625 38.153922 62.896309 38.320114 
C 62.730117 38.486305 62.636739 38.71174 62.636739 38.946771 
C 62.636739 39.181801 62.730117 39.407236 62.896309 39.573428 
C 63.0625 39.739619 63.287935 39.832998 63.522966 39.832998 
z
" style="fill:#a9a9a9;stroke:#a9a9a9;stroke-width:0.886227;"/>
    <path clip-path="url(#pc0f88bf2c7)" d="M 64.064102 39.362739 
C 64.299132 39.362739 64.524567 39.26936 64.690759 39.103169 
C 64.85695 38.936977 64.950329 38.711542 64.950329 38.476512 
C 64.950329 38.241482 64.85695 38.016046 64.690759 37.849855 
C 64.524567 37.683663 64.299132 37.590285 64.064102 37.590285 
C 63.829071 37.590285 63.603636 37.683663 63.437445 37.849855 
C 63.271253 38.016046 63.177875 38.241482 63.177875 38.476512 
C 63.177875 38.711542 63.271253 38.936977 63.437445 39.103169 
C 63.603636 39.26936 63.829071 39.362739 64.064102 39.362739 
z
" style="fill:#a9a9a9;stroke:#a9a9a9;stroke-width:0.886227;"/>
    <path clip-path="url(#pc0f88bf2c7)" d="M 65.68751 39.261553 
C 65.92254 39.261553 66.147975 39.168174 66.314167 39.001983 
C 66.480358 38.835791 66.573737 38.610356 66.573737 38.375326 
C 66.573737 38.140296 66.480358 37.91486 66.314167 37.748669 
C 66.147975 37.582477 65.92254 37.489099 65.68751 37.489099 
C 65.452479 37.489099 65.227044 37.582477 65.060853 37.748669 
C 64.894661 37.91486 64.801283 38.140296 64.801283 38.375326 
C 64.801283 38.610356 64.894661 38.835791 65.060853 39.001983 
C 65.227044 39.168174 65.452479 39.261553 65.68751 39.261553 
z
" style="fill:#a9a9a9;stroke:#a9a9a9;stroke-width:0.886227;"/>
    <path clip-path="url(#pc0f88bf2c7)" d="M 68.39319 39.25227 
C 68.62822 39.25227 68.853655 39.158892 69.019847 38.9927 
C 69.186038 38.826509 69.279417 38.601073 69.279417 38.366043 
C 69.279417 38.131013 69.186038 37.905578 69.019847 37.739386 
C 68.853655 37.573195 68.62822 37.479816 68.39319 37.479816 
C 68.158159 37.479816 67.932724 37.573195 67.766533 37.739386 
C 67.600341 37.905578 67.506963 38.131013 67.506963 38.366043 
C 67.506963 38.601073 67.600341 38.826509 67.766533 38.9927 
C 67.932724 39.158892 68.158159 39.25227 68.39319 39.25227 
z
" style="fill:#a9a9a9;stroke:#a9a9a9;stroke-width:0.886227;"/>
    <path clip-path="url(#pc0f88bf2c7)" d="M 90.03863 39.236052 
C 90.27366 39.236052 90.499095 39.142674 90.665287 38.976482 
C 90.831478 38.810291 90.924857 38.584855 90.924857 38.349825 
C 90.924857 38.114795 90.831478 37.88936 90.665287 37.723168 
C 90.499095 37.556977 90.27366 37.463598 90.03863 37.463598 
C 89.8036 37.463598 89.578164 37.556977 89.411973 37.723168 
C 89.245781 37.88936 89.152403 38.114795 89.152403 38.349825 
C 89.152403 38.584855 89.245781 38.810291 89.411973 38.976482 
C 89.578164 39.142674 89.8036 39.236052 90.03863 39.236052 
z
" style="fill:#a9a9a9;stroke:#a9a9a9;stroke-width:0.886227;"/>
    <path clip-path="url(#pc0f88bf2c7)" d="M 117.09543 39.234362 
C 117.33046 39.234362 117.555896 39.140983 117.722087 38.974792 
C 117.888278 38.8086 117.981657 38.583165 117.981657 38.348135 
C 117.981657 38.113105 117.888278 37.887669 117.722087 37.721478 
C 117.555896 37.555286 117.33046 37.461908 117.09543 37.461908 
C 116.8604 37.461908 116.634964 37.555286 116.468773 37.721478 
C 116.302581 37.887669 116.209203 38.113105 116.209203 38.348135 
C 116.209203 38.583165 116.302581 38.8086 116.468773 38.974792 
C 116.634964 39.140983 116.8604 39.234362 117.09543 39.234362 
z
" style="fill:#a9a9a9;stroke:#a9a9a9;stroke-width:0.886227;"/>
    <path clip-path="url(#pc0f88bf2c7)" d="M 171.20903 39.233769 
C 171.44406 39.233769 171.669496 39.140391 171.835687 38.974199 
C 172.001879 38.808008 172.095257 38.582572 172.095257 38.347542 
C 172.095257 38.112512 172.001879 37.887076 171.835687 37.720885 
C 171.669496 37.554694 171.44406 37.461315 171.20903 37.461315 
C 170.974 37.461315 170.748565 37.554694 170.582373 37.720885 
C 170.416182 37.887076 170.322803 38.112512 170.322803 38.347542 
C 170.322803 38.582572 170.416182 38.808008 170.582373 38.974199 
C 170.748565 39.140391 170.974 39.233769 171.20903 39.233769 
z
" style="fill:#a9a9a9;stroke:#a9a9a9;stroke-width:0.886227;"/>
    <path clip-path="url(#pc0f88bf2c7)" d="M 225.322631 39.234329 
C 225.557661 39.234329 225.783096 39.14095 225.949288 38.974759 
C 226.115479 38.808567 226.208858 38.583132 226.208858 38.348102 
C 226.208858 38.113072 226.115479 37.887636 225.949288 37.721445 
C 225.783096 37.555253 225.557661 37.461875 225.322631 37.461875 
C 225.087601 37.461875 224.862165 37.555253 224.695974 37.721445 
C 224.529782 37.887636 224.436404 38.113072 224.436404 38.348102 
C 224.436404 38.583132 224.529782 38.808567 224.695974 38.974759 
C 224.862165 39.14095 225.087601 39.234329 225.322631 39.234329 
z
" style="fill:#a9a9a9;stroke:#a9a9a9;stroke-width:0.886227;"/>
    <path clip-path="url(#pc0f88bf2c7)" d="M 387.663432 39.231769 
C 387.898462 39.231769 388.123897 39.138391 388.290089 38.972199 
C 388.45628 38.806008 388.549659 38.580572 388.549659 38.345542 
C 388.549659 38.110512 388.45628 37.885077 388.290089 37.718885 
C 388.123897 37.552694 387.898462 37.459315 387.663432 37.459315 
C 387.428402 37.459315 387.202966 37.552694 387.036775 37.718885 
C 386.870583 37.885077 386.777205 38.110512 386.777205 38.345542 
C 386.777205 38.580572 386.870583 38.806008 387.036775 38.972199 
C 387.202966 39.138391 387.428402 39.231769 387.663432 39.231769 
z
" style="fill:#a9a9a9;stroke:#a9a9a9;stroke-width:0.886227;"/>
    <path clip-path="url(#pc0f88bf2c7)" d="M 63.035943 39.13916 
C 63.270973 39.13916 63.496409 39.045782 63.6626 38.87959 
C 63.828792 38.713399 63.92217 38.487963 63.92217 38.252933 
C 63.92217 38.017903 63.828792 37.792468 63.6626 37.626276 
C 63.496409 37.460085 63.270973 37.366706 63.035943 37.366706 
C 62.800913 37.366706 62.575478 37.460085 62.409286 37.626276 
C 62.243095 37.792468 62.149716 38.017903 62.149716 38.252933 
C 62.149716 38.487963 62.243095 38.713399 62.409286 38.87959 
C 62.575478 39.045782 62.800913 39.13916 63.035943 39.13916 
z
" style="fill:#a9a9a9;stroke:#a9a9a9;stroke-width:0.886227;"/>
    <path clip-path="url(#pc0f88bf2c7)" d="M 63.090057 39.149953 
C 63.325087 39.149953 63.550522 39.056575 63.716714 38.890383 
C 63.882905 38.724192 63.976284 38.498756 63.976284 38.263726 
C 63.976284 38.028696 63.882905 37.80326 63.716714 37.637069 
C 63.550522 37.470878 63.325087 37.377499 63.090057 37.377499 
C 62.855027 37.377499 62.629591 37.470878 62.4634 37.637069 
C 62.297208 37.80326 62.20383 38.028696 62.20383 38.263726 
C 62.20383 38.498756 62.297208 38.724192 62.4634 38.890383 
C 62.629591 39.056575 62.855027 39.149953 63.090057 39.149953 
z
" style="fill:#a9a9a9;stroke:#a9a9a9;stroke-width:0.886227;"/>
    <path clip-path="url(#pc0f88bf2c7)" d="M 63.252398 39.206398 
C 63.487428 39.206398 63.712863 39.113019 63.879055 38.946828 
C 64.045246 38.780636 64.138624 38.555201 64.138624 38.320171 
C 64.138624 38.085141 64.045246 37.859705 63.879055 37.693514 
C 63.712863 37.527322 63.487428 37.433944 63.252398 37.433944 
C 63.017367 37.433944 62.791932 37.527322 62.625741 37.693514 
C 62.459549 37.859705 62.366171 38.085141 62.366171 38.320171 
C 62.366171 38.555201 62.459549 38.780636 62.625741 38.946828 
C 62.791932 39.113019 63.017367 39.206398 63.252398 39.206398 
z
" style="fill:#a9a9a9;stroke:#a9a9a9;stroke-width:0.886227;"/>
    <path clip-path="url(#pc0f88bf2c7)" d="M 63.522966 39.324955 
C 63.757996 39.324955 63.983431 39.231577 64.149623 39.065385 
C 64.315814 38.899194 64.409193 38.673758 64.409193 38.438728 
C 64.409193 38.203698 64.315814 37.978263 64.149623 37.812071 
C 63.983431 37.64588 63.757996 37.552501 63.522966 37.552501 
C 63.287935 37.552501 63.0625 37.64588 62.896309 37.812071 
C 62.730117 37.978263 62.636739 38.203698 62.636739 38.438728 
C 62.636739 38.673758 62.730117 38.899194 62.896309 39.065385 
C 63.0625 39.231577 63.287935 39.324955 63.522966 39.324955 
z
" style="fill:#a9a9a9;stroke:#a9a9a9;stroke-width:0.886227;"/>
    <path clip-path="url(#pc0f88bf2c7)" d="M 64.064102 39.523456 
C 64.299132 39.523456 64.524567 39.430077 64.690759 39.263886 
C 64.85695 39.097694 64.950329 38.872259 64.950329 38.637229 
C 64.950329 38.402199 64.85695 38.176763 64.690759 38.010572 
C 64.524567 37.84438 64.299132 37.751002 64.064102 37.751002 
C 63.829071 37.751002 63.603636 37.84438 63.437445 38.010572 
C 63.271253 38.176763 63.177875 38.402199 63.177875 38.637229 
C 63.177875 38.872259 63.271253 39.097694 63.437445 39.263886 
C 63.603636 39.430077 63.829071 39.523456 64.064102 39.523456 
z
" style="fill:#a9a9a9;stroke:#a9a9a9;stroke-width:0.886227;"/>
    <path clip-path="url(#pc0f88bf2c7)" d="M 65.68751 40.151556 
C 65.92254 40.151556 66.147975 40.058178 66.314167 39.891986 
C 66.480358 39.725795 66.573737 39.500359 66.573737 39.265329 
C 66.573737 39.030299 66.480358 38.804864 66.314167 38.638672 
C 66.147975 38.472481 65.92254 38.379102 65.68751 38.379102 
C 65.452479 38.379102 65.227044 38.472481 65.060853 38.638672 
C 64.894661 38.804864 64.801283 39.030299 64.801283 39.265329 
C 64.801283 39.500359 64.894661 39.725795 65.060853 39.891986 
C 65.227044 40.058178 65.452479 40.151556 65.68751 40.151556 
z
" style="fill:#a9a9a9;stroke:#a9a9a9;stroke-width:0.886227;"/>
    <path clip-path="url(#pc0f88bf2c7)" d="M 68.39319 41.25778 
C 68.62822 41.25778 68.853655 41.164402 69.019847 40.998211 
C 69.186038 40.832019 69.279417 40.606584 69.279417 40.371554 
C 69.279417 40.136523 69.186038 39.911088 69.019847 39.744896 
C 68.853655 39.578705 68.62822 39.485327 68.39319 39.485327 
C 68.158159 39.485327 67.932724 39.578705 67.766533 39.744896 
C 67.600341 39.911088 67.506963 40.136523 67.506963 40.371554 
C 67.506963 40.606584 67.600341 40.832019 67.766533 40.998211 
C 67.932724 41.164402 68.158159 41.25778 68.39319 41.25778 
z
" style="fill:#a9a9a9;stroke:#a9a9a9;stroke-width:0.886227;"/>
    <path clip-path="url(#pc0f88bf2c7)" d="M 90.03863 49.820666 
C 90.27366 49.820666 90.499095 49.727288 90.665287 49.561096 
C 90.831478 49.394905 90.924857 49.169469 90.924857 48.934439 
C 90.924857 48.699409 90.831478 48.473974 90.665287 48.307782 
C 90.499095 48.141591 90.27366 48.048212 90.03863 48.048212 
C 89.8036 48.048212 89.578164 48.141591 89.411973 48.307782 
C 89.245781 48.473974 89.152403 48.699409 89.152403 48.934439 
C 89.152403 49.169469 89.245781 49.394905 89.411973 49.561096 
C 89.578164 49.727288 89.8036 49.820666 90.03863 49.820666 
z
" style="fill:#a9a9a9;stroke:#a9a9a9;stroke-width:0.886227;"/>
    <path clip-path="url(#pc0f88bf2c7)" d="M 117.09543 60.74168 
C 117.33046 60.74168 117.555896 60.648301 117.722087 60.48211 
C 117.888278 60.315919 117.981657 60.090483 117.981657 59.855453 
C 117.981657 59.620423 117.888278 59.394987 117.722087 59.228796 
C 117.555896 59.062604 117.33046 58.969226 117.09543 58.969226 
C 116.8604 58.969226 116.634964 59.062604 116.468773 59.228796 
C 116.302581 59.394987 116.209203 59.620423 116.209203 59.855453 
C 116.209203 60.090483 116.302581 60.315919 116.468773 60.48211 
C 116.634964 60.648301 116.8604 60.74168 117.09543 60.74168 
z
" style="fill:#a9a9a9;stroke:#a9a9a9;stroke-width:0.886227;"/>
    <path clip-path="url(#pc0f88bf2c7)" d="M 171.20903 83.968604 
C 171.44406 83.968604 171.669496 83.875226 171.835687 83.709034 
C 172.001879 83.542843 172.095257 83.317407 172.095257 83.082377 
C 172.095257 82.847347 172.001879 82.621912 171.835687 82.45572 
C 171.669496 82.289529 171.44406 82.19615 171.20903 82.19615 
C 170.974 82.19615 170.748565 82.289529 170.582373 82.45572 
C 170.416182 82.621912 170.322803 82.847347 170.322803 83.082377 
C 170.322803 83.317407 170.416182 83.542843 170.582373 83.709034 
C 170.748565 83.875226 170.974 83.968604 171.20903 83.968604 
z
" style="fill:#a9a9a9;stroke:#a9a9a9;stroke-width:0.886227;"/>
    <path clip-path="url(#pc0f88bf2c7)" d="M 225.322631 110.298112 
C 225.557661 110.298112 225.783096 110.204734 225.949288 110.038542 
C 226.115479 109.872351 226.208858 109.646915 226.208858 109.411885 
C 226.208858 109.176855 226.115479 108.951419 225.949288 108.785228 
C 225.783096 108.619037 225.557661 108.525658 225.322631 108.525658 
C 225.087601 108.525658 224.862165 108.619037 224.695974 108.785228 
C 224.529782 108.951419 224.436404 109.176855 224.436404 109.411885 
C 224.436404 109.646915 224.529782 109.872351 224.695974 110.038542 
C 224.862165 110.204734 225.087601 110.298112 225.322631 110.298112 
z
" style="fill:#a9a9a9;stroke:#a9a9a9;stroke-width:0.886227;"/>
    <path clip-path="url(#pc0f88bf2c7)" d="M 387.663432 281.05916 
C 387.898462 281.05916 388.123897 280.965782 388.290089 280.79959 
C 388.45628 280.633399 388.549659 280.407963 388.549659 280.172933 
C 388.549659 279.937903 388.45628 279.712468 388.290089 279.546276 
C 388.123897 279.380085 387.898462 279.286706 387.663432 279.286706 
C 387.428402 279.286706 387.202966 279.380085 387.036775 279.546276 
C 386.870583 279.712468 386.777205 279.937903 386.777205 280.172933 
C 386.777205 280.407963 386.870583 280.633399 387.036775 280.79959 
C 387.202966 280.965782 387.428402 281.05916 387.663432 281.05916 
z
" style="fill:#a9a9a9;stroke:#a9a9a9;stroke-width:0.886227;"/>
   </g>
   <g id="patch_3">
    <path d="M 46.789688 292.268933 
L 46.789688 26.156933 
" style="fill:none;stroke:#808080;stroke-linecap:square;stroke-linejoin:miter;"/>
   </g>
   <g id="patch_4">
    <path d="M 46.789688 292.268933 
L 403.909688 292.268933 
" style="fill:none;stroke:#808080;stroke-linecap:square;stroke-linejoin:miter;"/>
   </g>
   <g id="line2d_35">
    <path clip-path="url(#pc0f88bf2c7)" d="M 63.035943 259.526049 
L 63.035943 259.526049 
L 63.090057 259.526049 
L 63.090057 259.526049 
L 63.252398 259.526049 
L 63.252398 259.526049 
L 63.522966 259.526049 
L 63.522966 259.526049 
L 64.064102 259.526049 
L 64.064102 259.526049 
L 65.68751 259.526049 
L 65.68751 259.526049 
L 68.39319 259.526049 
L 68.39319 259.526049 
L 90.03863 259.526049 
L 90.03863 259.526049 
L 117.09543 259.526049 
L 117.09543 259.526049 
L 171.20903 259.526049 
L 171.20903 259.526049 
L 225.322631 259.526049 
L 225.322631 259.526049 
L 387.663432 259.526049 
L 387.663432 259.526049 
" style="fill:none;stroke:#a9a9a9;stroke-dasharray:9.837119,4.253889;stroke-dashoffset:0;stroke-width:2.658681;"/>
   </g>
   <g id="patch_5">
    <path d="M 411.109688 194.047902 
L 507.662563 194.047902 
L 507.662563 120.921964 
L 411.109688 120.921964 
z
" style="fill:#ffffff;"/>
   </g>
   <g id="text_12">
    <!-- Group -->
    <defs>
     <path d="M 59.515625 10.40625 
L 59.515625 29.984375 
L 43.40625 29.984375 
L 43.40625 38.09375 
L 69.28125 38.09375 
L 69.28125 6.78125 
Q 63.578125 2.734375 56.6875 0.65625 
Q 49.8125 -1.421875 42 -1.421875 
Q 24.90625 -1.421875 15.25 8.5625 
Q 5.609375 18.5625 5.609375 36.375 
Q 5.609375 54.25 15.25 64.234375 
Q 24.90625 74.21875 42 74.21875 
Q 49.125 74.21875 55.546875 72.453125 
Q 61.96875 70.703125 67.390625 67.28125 
L 67.390625 56.78125 
Q 61.921875 61.421875 55.765625 63.765625 
Q 49.609375 66.109375 42.828125 66.109375 
Q 29.4375 66.109375 22.71875 58.640625 
Q 16.015625 51.171875 16.015625 36.375 
Q 16.015625 21.625 22.71875 14.15625 
Q 29.4375 6.6875 42.828125 6.6875 
Q 48.046875 6.6875 52.140625 7.59375 
Q 56.25 8.5 59.515625 10.40625 
z
" id="DejaVuSans-71"/>
     <path d="M 18.109375 8.203125 
L 18.109375 -20.796875 
L 9.078125 -20.796875 
L 9.078125 54.6875 
L 18.109375 54.6875 
L 18.109375 46.390625 
Q 20.953125 51.265625 25.265625 53.625 
Q 29.59375 56 35.59375 56 
Q 45.5625 56 51.78125 48.09375 
Q 58.015625 40.1875 58.015625 27.296875 
Q 58.015625 14.40625 51.78125 6.484375 
Q 45.5625 -1.421875 35.59375 -1.421875 
Q 29.59375 -1.421875 25.265625 0.953125 
Q 20.953125 3.328125 18.109375 8.203125 
z
M 48.6875 27.296875 
Q 48.6875 37.203125 44.609375 42.84375 
Q 40.53125 48.484375 33.40625 48.484375 
Q 26.265625 48.484375 22.1875 42.84375 
Q 18.109375 37.203125 18.109375 27.296875 
Q 18.109375 17.390625 22.1875 11.75 
Q 26.265625 6.109375 33.40625 6.109375 
Q 40.53125 6.109375 44.609375 11.75 
Q 48.6875 17.390625 48.6875 27.296875 
z
" id="DejaVuSans-112"/>
    </defs>
    <g transform="translate(423.309687 144.515558)scale(0.11 -0.11)">
     <use xlink:href="#DejaVuSans-71"/>
     <use x="77.490234" xlink:href="#DejaVuSans-114"/>
     <use x="118.572266" xlink:href="#DejaVuSans-111"/>
     <use x="179.753906" xlink:href="#DejaVuSans-117"/>
     <use x="243.132812" xlink:href="#DejaVuSans-112"/>
    </g>
   </g>
   <g id="patch_6">
    <path clip-path="url(#p057ee28749)" d="M 423.309687 164.007902 
L 439.149687 164.007902 
L 439.149687 148.167902 
L 423.309687 148.167902 
z
" style="fill:#ffffff;stroke:#ffffff;stroke-linejoin:miter;"/>
   </g>
   <g id="line2d_36">
    <path clip-path="url(#p057ee28749)" d="M 423.309687 156.087902 
L 439.149687 156.087902 
" style="fill:none;stroke:#1976d2;stroke-width:2.658681;"/>
   </g>
   <g id="text_13">
    <!-- corrected -->
    <defs>
     <path d="M 45.40625 46.390625 
L 45.40625 75.984375 
L 54.390625 75.984375 
L 54.390625 0 
L 45.40625 0 
L 45.40625 8.203125 
Q 42.578125 3.328125 38.25 0.953125 
Q 33.9375 -1.421875 27.875 -1.421875 
Q 17.96875 -1.421875 11.734375 6.484375 
Q 5.515625 14.40625 5.515625 27.296875 
Q 5.515625 40.1875 11.734375 48.09375 
Q 17.96875 56 27.875 56 
Q 33.9375 56 38.25 53.625 
Q 42.578125 51.265625 45.40625 46.390625 
z
M 14.796875 27.296875 
Q 14.796875 17.390625 18.875 11.75 
Q 22.953125 6.109375 30.078125 6.109375 
Q 37.203125 6.109375 41.296875 11.75 
Q 45.40625 17.390625 45.40625 27.296875 
Q 45.40625 37.203125 41.296875 42.84375 
Q 37.203125 48.484375 30.078125 48.484375 
Q 22.953125 48.484375 18.875 42.84375 
Q 14.796875 37.203125 14.796875 27.296875 
z
" id="DejaVuSans-100"/>
    </defs>
    <g transform="translate(442.149688 158.516152)scale(0.088 -0.088)">
     <use xlink:href="#DejaVuSans-99"/>
     <use x="54.980469" xlink:href="#DejaVuSans-111"/>
     <use x="116.162109" xlink:href="#DejaVuSans-114"/>
     <use x="157.259766" xlink:href="#DejaVuSans-114"/>
     <use x="198.341797" xlink:href="#DejaVuSans-101"/>
     <use x="259.865234" xlink:href="#DejaVuSans-99"/>
     <use x="314.845703" xlink:href="#DejaVuSans-116"/>
     <use x="354.054688" xlink:href="#DejaVuSans-101"/>
     <use x="415.578125" xlink:href="#DejaVuSans-100"/>
    </g>
   </g>
   <g id="patch_7">
    <path clip-path="url(#pf63db11d33)" d="M 423.309687 181.847902 
L 439.149687 181.847902 
L 439.149687 166.007902 
L 423.309687 166.007902 
z
" style="fill:#ffffff;stroke:#ffffff;stroke-linejoin:miter;"/>
   </g>
   <g id="line2d_37">
    <path clip-path="url(#pf63db11d33)" d="M 423.309687 173.927902 
L 439.149687 173.927902 
" style="fill:none;stroke:#b3e5fc;stroke-width:2.658681;"/>
   </g>
   <g id="text_14">
    <!-- uncorrected -->
    <g transform="translate(442.149688 176.356152)scale(0.088 -0.088)">
     <use xlink:href="#DejaVuSans-117"/>
     <use x="63.378906" xlink:href="#DejaVuSans-110"/>
     <use x="126.757812" xlink:href="#DejaVuSans-99"/>
     <use x="181.738281" xlink:href="#DejaVuSans-111"/>
     <use x="242.919922" xlink:href="#DejaVuSans-114"/>
     <use x="284.017578" xlink:href="#DejaVuSans-114"/>
     <use x="325.099609" xlink:href="#DejaVuSans-101"/>
     <use x="386.623047" xlink:href="#DejaVuSans-99"/>
     <use x="441.603516" xlink:href="#DejaVuSans-116"/>
     <use x="480.8125" xlink:href="#DejaVuSans-101"/>
     <use x="542.335938" xlink:href="#DejaVuSans-100"/>
    </g>
   </g>
  </g>
  <g id="text_15">
   <!-- Similarity across varying numbers of partitions -->
   <defs>
    <path d="M 59.90625 70.609375 
L 59.90625 55.171875 
Q 53.90625 57.859375 48.1875 59.21875 
Q 42.484375 60.59375 37.40625 60.59375 
Q 30.671875 60.59375 27.4375 58.734375 
Q 24.21875 56.890625 24.21875 52.984375 
Q 24.21875 50.046875 26.390625 48.40625 
Q 28.5625 46.78125 34.28125 45.609375 
L 42.28125 44 
Q 54.4375 41.546875 59.5625 36.5625 
Q 64.703125 31.59375 64.703125 22.40625 
Q 64.703125 10.359375 57.546875 4.46875 
Q 50.390625 -1.421875 35.6875 -1.421875 
Q 28.765625 -1.421875 21.78125 -0.09375 
Q 14.796875 1.21875 7.8125 3.8125 
L 7.8125 19.671875 
Q 14.796875 15.96875 21.3125 14.078125 
Q 27.828125 12.203125 33.890625 12.203125 
Q 40.046875 12.203125 43.3125 14.25 
Q 46.578125 16.3125 46.578125 20.125 
Q 46.578125 23.53125 44.359375 25.390625 
Q 42.140625 27.25 35.5 28.71875 
L 28.21875 30.328125 
Q 17.28125 32.671875 12.21875 37.796875 
Q 7.171875 42.921875 7.171875 51.609375 
Q 7.171875 62.5 14.203125 68.359375 
Q 21.234375 74.21875 34.421875 74.21875 
Q 40.4375 74.21875 46.78125 73.3125 
Q 53.125 72.40625 59.90625 70.609375 
z
" id="DejaVuSans-Bold-83"/>
    <path d="M 8.40625 54.6875 
L 25.875 54.6875 
L 25.875 0 
L 8.40625 0 
z
M 8.40625 75.984375 
L 25.875 75.984375 
L 25.875 61.71875 
L 8.40625 61.71875 
z
" id="DejaVuSans-Bold-105"/>
    <path d="M 59.078125 45.609375 
Q 62.40625 50.6875 66.96875 53.34375 
Q 71.53125 56 77 56 
Q 86.421875 56 91.359375 50.1875 
Q 96.296875 44.390625 96.296875 33.296875 
L 96.296875 0 
L 78.71875 0 
L 78.71875 28.515625 
Q 78.765625 29.15625 78.78125 29.828125 
Q 78.8125 30.515625 78.8125 31.78125 
Q 78.8125 37.59375 77.09375 40.203125 
Q 75.390625 42.828125 71.578125 42.828125 
Q 66.609375 42.828125 63.890625 38.71875 
Q 61.1875 34.625 61.078125 26.859375 
L 61.078125 0 
L 43.5 0 
L 43.5 28.515625 
Q 43.5 37.59375 41.9375 40.203125 
Q 40.375 42.828125 36.375 42.828125 
Q 31.34375 42.828125 28.609375 38.703125 
Q 25.875 34.578125 25.875 26.90625 
L 25.875 0 
L 8.296875 0 
L 8.296875 54.6875 
L 25.875 54.6875 
L 25.875 46.6875 
Q 29.109375 51.3125 33.28125 53.65625 
Q 37.453125 56 42.484375 56 
Q 48.140625 56 52.484375 53.265625 
Q 56.84375 50.53125 59.078125 45.609375 
z
" id="DejaVuSans-Bold-109"/>
    <path d="M 8.40625 75.984375 
L 25.875 75.984375 
L 25.875 0 
L 8.40625 0 
z
" id="DejaVuSans-Bold-108"/>
    <path d="M 32.90625 24.609375 
Q 27.4375 24.609375 24.671875 22.75 
Q 21.921875 20.90625 21.921875 17.28125 
Q 21.921875 13.96875 24.140625 12.078125 
Q 26.375 10.203125 30.328125 10.203125 
Q 35.25 10.203125 38.625 13.734375 
Q 42 17.28125 42 22.609375 
L 42 24.609375 
z
M 59.625 31.203125 
L 59.625 0 
L 42 0 
L 42 8.109375 
Q 38.484375 3.125 34.078125 0.84375 
Q 29.6875 -1.421875 23.390625 -1.421875 
Q 14.890625 -1.421875 9.59375 3.53125 
Q 4.296875 8.5 4.296875 16.40625 
Q 4.296875 26.03125 10.90625 30.515625 
Q 17.53125 35.015625 31.6875 35.015625 
L 42 35.015625 
L 42 36.375 
Q 42 40.53125 38.71875 42.453125 
Q 35.453125 44.390625 28.515625 44.390625 
Q 22.90625 44.390625 18.0625 43.265625 
Q 13.234375 42.140625 9.078125 39.890625 
L 9.078125 53.21875 
Q 14.703125 54.59375 20.359375 55.296875 
Q 26.03125 56 31.6875 56 
Q 46.484375 56 53.046875 50.171875 
Q 59.625 44.34375 59.625 31.203125 
z
" id="DejaVuSans-Bold-97"/>
    <path d="M 49.03125 39.796875 
Q 46.734375 40.875 44.453125 41.375 
Q 42.1875 41.890625 39.890625 41.890625 
Q 33.15625 41.890625 29.515625 37.5625 
Q 25.875 33.25 25.875 25.203125 
L 25.875 0 
L 8.40625 0 
L 8.40625 54.6875 
L 25.875 54.6875 
L 25.875 45.703125 
Q 29.25 51.078125 33.609375 53.53125 
Q 37.984375 56 44.09375 56 
Q 44.96875 56 45.984375 55.921875 
Q 47.015625 55.859375 48.96875 55.609375 
z
" id="DejaVuSans-Bold-114"/>
    <path d="M 27.484375 70.21875 
L 27.484375 54.6875 
L 45.515625 54.6875 
L 45.515625 42.1875 
L 27.484375 42.1875 
L 27.484375 19 
Q 27.484375 15.1875 29 13.84375 
Q 30.515625 12.5 35.015625 12.5 
L 44 12.5 
L 44 0 
L 29 0 
Q 18.65625 0 14.328125 4.3125 
Q 10.015625 8.640625 10.015625 19 
L 10.015625 42.1875 
L 1.3125 42.1875 
L 1.3125 54.6875 
L 10.015625 54.6875 
L 10.015625 70.21875 
z
" id="DejaVuSans-Bold-116"/>
    <path d="M 1.21875 54.6875 
L 18.703125 54.6875 
L 33.40625 17.578125 
L 45.90625 54.6875 
L 63.375 54.6875 
L 40.375 -5.171875 
Q 36.921875 -14.3125 32.296875 -17.9375 
Q 27.6875 -21.578125 20.125 -21.578125 
L 10.015625 -21.578125 
L 10.015625 -10.109375 
L 15.484375 -10.109375 
Q 19.921875 -10.109375 21.9375 -8.6875 
Q 23.96875 -7.28125 25.09375 -3.609375 
L 25.59375 -2.09375 
z
" id="DejaVuSans-Bold-121"/>
    <path id="DejaVuSans-Bold-32"/>
    <path d="M 52.59375 52.984375 
L 52.59375 38.71875 
Q 49.03125 41.15625 45.4375 42.328125 
Q 41.84375 43.5 37.984375 43.5 
Q 30.671875 43.5 26.59375 39.234375 
Q 22.515625 34.96875 22.515625 27.296875 
Q 22.515625 19.625 26.59375 15.34375 
Q 30.671875 11.078125 37.984375 11.078125 
Q 42.09375 11.078125 45.78125 12.296875 
Q 49.46875 13.53125 52.59375 15.921875 
L 52.59375 1.609375 
Q 48.484375 0.09375 44.265625 -0.65625 
Q 40.046875 -1.421875 35.796875 -1.421875 
Q 21 -1.421875 12.640625 6.171875 
Q 4.296875 13.765625 4.296875 27.296875 
Q 4.296875 40.828125 12.640625 48.40625 
Q 21 56 35.796875 56 
Q 40.09375 56 44.265625 55.25 
Q 48.4375 54.5 52.59375 52.984375 
z
" id="DejaVuSans-Bold-99"/>
    <path d="M 34.421875 43.5 
Q 28.609375 43.5 25.5625 39.328125 
Q 22.515625 35.15625 22.515625 27.296875 
Q 22.515625 19.4375 25.5625 15.25 
Q 28.609375 11.078125 34.421875 11.078125 
Q 40.140625 11.078125 43.15625 15.25 
Q 46.1875 19.4375 46.1875 27.296875 
Q 46.1875 35.15625 43.15625 39.328125 
Q 40.140625 43.5 34.421875 43.5 
z
M 34.421875 56 
Q 48.53125 56 56.46875 48.375 
Q 64.40625 40.765625 64.40625 27.296875 
Q 64.40625 13.8125 56.46875 6.1875 
Q 48.53125 -1.421875 34.421875 -1.421875 
Q 20.265625 -1.421875 12.28125 6.1875 
Q 4.296875 13.8125 4.296875 27.296875 
Q 4.296875 40.765625 12.28125 48.375 
Q 20.265625 56 34.421875 56 
z
" id="DejaVuSans-Bold-111"/>
    <path d="M 51.125 52.984375 
L 51.125 39.703125 
Q 45.515625 42.046875 40.28125 43.21875 
Q 35.0625 44.390625 30.421875 44.390625 
Q 25.4375 44.390625 23.015625 43.140625 
Q 20.609375 41.890625 20.609375 39.3125 
Q 20.609375 37.203125 22.4375 36.078125 
Q 24.265625 34.96875 29 34.421875 
L 32.078125 33.984375 
Q 45.515625 32.28125 50.140625 28.375 
Q 54.78125 24.46875 54.78125 16.109375 
Q 54.78125 7.375 48.328125 2.96875 
Q 41.890625 -1.421875 29.109375 -1.421875 
Q 23.6875 -1.421875 17.890625 -0.5625 
Q 12.109375 0.296875 6 2 
L 6 15.28125 
Q 11.234375 12.75 16.71875 11.46875 
Q 22.21875 10.203125 27.875 10.203125 
Q 33.015625 10.203125 35.59375 11.609375 
Q 38.1875 13.03125 38.1875 15.828125 
Q 38.1875 18.171875 36.40625 19.3125 
Q 34.625 20.453125 29.296875 21.09375 
L 26.21875 21.484375 
Q 14.546875 22.953125 9.859375 26.90625 
Q 5.171875 30.859375 5.171875 38.921875 
Q 5.171875 47.609375 11.125 51.796875 
Q 17.09375 56 29.390625 56 
Q 34.234375 56 39.546875 55.265625 
Q 44.875 54.546875 51.125 52.984375 
z
" id="DejaVuSans-Bold-115"/>
    <path d="M 1.515625 54.6875 
L 19 54.6875 
L 32.625 16.890625 
L 46.1875 54.6875 
L 63.71875 54.6875 
L 42.1875 0 
L 23 0 
z
" id="DejaVuSans-Bold-118"/>
    <path d="M 63.375 33.296875 
L 63.375 0 
L 45.796875 0 
L 45.796875 5.421875 
L 45.796875 25.484375 
Q 45.796875 32.5625 45.484375 35.25 
Q 45.171875 37.9375 44.390625 39.203125 
Q 43.359375 40.921875 41.59375 41.875 
Q 39.84375 42.828125 37.59375 42.828125 
Q 32.125 42.828125 29 38.59375 
Q 25.875 34.375 25.875 26.90625 
L 25.875 0 
L 8.40625 0 
L 8.40625 54.6875 
L 25.875 54.6875 
L 25.875 46.6875 
Q 29.828125 51.46875 34.265625 53.734375 
Q 38.71875 56 44.09375 56 
Q 53.5625 56 58.46875 50.1875 
Q 63.375 44.390625 63.375 33.296875 
z
" id="DejaVuSans-Bold-110"/>
    <path d="M 45.609375 9.28125 
Q 42 4.5 37.640625 2.25 
Q 33.296875 0 27.59375 0 
Q 17.578125 0 11.03125 7.875 
Q 4.5 15.765625 4.5 27.984375 
Q 4.5 40.234375 11.03125 48.0625 
Q 17.578125 55.90625 27.59375 55.90625 
Q 33.296875 55.90625 37.640625 53.65625 
Q 42 51.421875 45.609375 46.578125 
L 45.609375 54.6875 
L 63.1875 54.6875 
L 63.1875 5.515625 
Q 63.1875 -7.671875 54.859375 -14.625 
Q 46.53125 -21.578125 30.71875 -21.578125 
Q 25.59375 -21.578125 20.796875 -20.796875 
Q 16.015625 -20.015625 11.1875 -18.40625 
L 11.1875 -4.78125 
Q 15.765625 -7.421875 20.15625 -8.71875 
Q 24.5625 -10.015625 29 -10.015625 
Q 37.59375 -10.015625 41.59375 -6.25 
Q 45.609375 -2.484375 45.609375 5.515625 
z
M 34.078125 43.3125 
Q 28.65625 43.3125 25.625 39.296875 
Q 22.609375 35.296875 22.609375 27.984375 
Q 22.609375 20.453125 25.53125 16.578125 
Q 28.46875 12.703125 34.078125 12.703125 
Q 39.546875 12.703125 42.578125 16.703125 
Q 45.609375 20.703125 45.609375 27.984375 
Q 45.609375 35.296875 42.578125 39.296875 
Q 39.546875 43.3125 34.078125 43.3125 
z
" id="DejaVuSans-Bold-103"/>
    <path d="M 7.8125 21.296875 
L 7.8125 54.6875 
L 25.390625 54.6875 
L 25.390625 49.21875 
Q 25.390625 44.78125 25.34375 38.0625 
Q 25.296875 31.34375 25.296875 29.109375 
Q 25.296875 22.515625 25.640625 19.609375 
Q 25.984375 16.703125 26.8125 15.375 
Q 27.875 13.671875 29.609375 12.734375 
Q 31.34375 11.8125 33.59375 11.8125 
Q 39.0625 11.8125 42.1875 16.015625 
Q 45.3125 20.21875 45.3125 27.6875 
L 45.3125 54.6875 
L 62.796875 54.6875 
L 62.796875 0 
L 45.3125 0 
L 45.3125 7.90625 
Q 41.359375 3.125 36.9375 0.84375 
Q 32.515625 -1.421875 27.203125 -1.421875 
Q 17.71875 -1.421875 12.765625 4.390625 
Q 7.8125 10.203125 7.8125 21.296875 
z
" id="DejaVuSans-Bold-117"/>
    <path d="M 37.5 11.28125 
Q 43.109375 11.28125 46.0625 15.375 
Q 49.03125 19.484375 49.03125 27.296875 
Q 49.03125 35.109375 46.0625 39.203125 
Q 43.109375 43.3125 37.5 43.3125 
Q 31.890625 43.3125 28.875 39.1875 
Q 25.875 35.0625 25.875 27.296875 
Q 25.875 19.53125 28.875 15.40625 
Q 31.890625 11.28125 37.5 11.28125 
z
M 25.875 46.6875 
Q 29.5 51.46875 33.890625 53.734375 
Q 38.28125 56 44 56 
Q 54.109375 56 60.59375 47.96875 
Q 67.09375 39.9375 67.09375 27.296875 
Q 67.09375 14.65625 60.59375 6.609375 
Q 54.109375 -1.421875 44 -1.421875 
Q 38.28125 -1.421875 33.890625 0.84375 
Q 29.5 3.125 25.875 7.90625 
L 25.875 0 
L 8.40625 0 
L 8.40625 75.984375 
L 25.875 75.984375 
z
" id="DejaVuSans-Bold-98"/>
    <path d="M 62.984375 27.484375 
L 62.984375 22.515625 
L 22.125 22.515625 
Q 22.75 16.359375 26.5625 13.28125 
Q 30.375 10.203125 37.203125 10.203125 
Q 42.71875 10.203125 48.5 11.84375 
Q 54.296875 13.484375 60.40625 16.796875 
L 60.40625 3.328125 
Q 54.203125 0.984375 48 -0.21875 
Q 41.796875 -1.421875 35.59375 -1.421875 
Q 20.75 -1.421875 12.515625 6.125 
Q 4.296875 13.671875 4.296875 27.296875 
Q 4.296875 40.671875 12.375 48.328125 
Q 20.453125 56 34.625 56 
Q 47.515625 56 55.25 48.234375 
Q 62.984375 40.484375 62.984375 27.484375 
z
M 45.015625 33.296875 
Q 45.015625 38.28125 42.109375 41.328125 
Q 39.203125 44.390625 34.515625 44.390625 
Q 29.4375 44.390625 26.265625 41.53125 
Q 23.09375 38.671875 22.3125 33.296875 
z
" id="DejaVuSans-Bold-101"/>
    <path d="M 44.390625 75.984375 
L 44.390625 64.5 
L 34.71875 64.5 
Q 31 64.5 29.53125 63.15625 
Q 28.078125 61.8125 28.078125 58.5 
L 28.078125 54.6875 
L 43.015625 54.6875 
L 43.015625 42.1875 
L 28.078125 42.1875 
L 28.078125 0 
L 10.59375 0 
L 10.59375 42.1875 
L 1.90625 42.1875 
L 1.90625 54.6875 
L 10.59375 54.6875 
L 10.59375 58.5 
Q 10.59375 67.4375 15.578125 71.703125 
Q 20.5625 75.984375 31 75.984375 
z
" id="DejaVuSans-Bold-102"/>
    <path d="M 25.875 7.90625 
L 25.875 -20.796875 
L 8.40625 -20.796875 
L 8.40625 54.6875 
L 25.875 54.6875 
L 25.875 46.6875 
Q 29.5 51.46875 33.890625 53.734375 
Q 38.28125 56 44 56 
Q 54.109375 56 60.59375 47.96875 
Q 67.09375 39.9375 67.09375 27.296875 
Q 67.09375 14.65625 60.59375 6.609375 
Q 54.109375 -1.421875 44 -1.421875 
Q 38.28125 -1.421875 33.890625 0.84375 
Q 29.5 3.125 25.875 7.90625 
z
M 37.5 43.3125 
Q 31.890625 43.3125 28.875 39.1875 
Q 25.875 35.0625 25.875 27.296875 
Q 25.875 19.53125 28.875 15.40625 
Q 31.890625 11.28125 37.5 11.28125 
Q 43.109375 11.28125 46.0625 15.375 
Q 49.03125 19.484375 49.03125 27.296875 
Q 49.03125 35.109375 46.0625 39.203125 
Q 43.109375 43.3125 37.5 43.3125 
z
" id="DejaVuSans-Bold-112"/>
   </defs>
   <g transform="translate(43.754344 17.229937)scale(0.132 -0.132)">
    <use xlink:href="#DejaVuSans-Bold-83"/>
    <use x="72.021484" xlink:href="#DejaVuSans-Bold-105"/>
    <use x="106.298828" xlink:href="#DejaVuSans-Bold-109"/>
    <use x="210.498047" xlink:href="#DejaVuSans-Bold-105"/>
    <use x="244.775391" xlink:href="#DejaVuSans-Bold-108"/>
    <use x="279.052734" xlink:href="#DejaVuSans-Bold-97"/>
    <use x="346.533203" xlink:href="#DejaVuSans-Bold-114"/>
    <use x="395.849609" xlink:href="#DejaVuSans-Bold-105"/>
    <use x="430.126953" xlink:href="#DejaVuSans-Bold-116"/>
    <use x="477.929688" xlink:href="#DejaVuSans-Bold-121"/>
    <use x="543.115234" xlink:href="#DejaVuSans-Bold-32"/>
    <use x="577.929688" xlink:href="#DejaVuSans-Bold-97"/>
    <use x="645.410156" xlink:href="#DejaVuSans-Bold-99"/>
    <use x="704.6875" xlink:href="#DejaVuSans-Bold-114"/>
    <use x="754.003906" xlink:href="#DejaVuSans-Bold-111"/>
    <use x="822.705078" xlink:href="#DejaVuSans-Bold-115"/>
    <use x="882.226562" xlink:href="#DejaVuSans-Bold-115"/>
    <use x="941.748047" xlink:href="#DejaVuSans-Bold-32"/>
    <use x="976.5625" xlink:href="#DejaVuSans-Bold-118"/>
    <use x="1041.748047" xlink:href="#DejaVuSans-Bold-97"/>
    <use x="1109.228516" xlink:href="#DejaVuSans-Bold-114"/>
    <use x="1158.544922" xlink:href="#DejaVuSans-Bold-121"/>
    <use x="1223.730469" xlink:href="#DejaVuSans-Bold-105"/>
    <use x="1258.007812" xlink:href="#DejaVuSans-Bold-110"/>
    <use x="1329.199219" xlink:href="#DejaVuSans-Bold-103"/>
    <use x="1400.78125" xlink:href="#DejaVuSans-Bold-32"/>
    <use x="1435.595703" xlink:href="#DejaVuSans-Bold-110"/>
    <use x="1506.787109" xlink:href="#DejaVuSans-Bold-117"/>
    <use x="1577.978516" xlink:href="#DejaVuSans-Bold-109"/>
    <use x="1682.177734" xlink:href="#DejaVuSans-Bold-98"/>
    <use x="1753.759766" xlink:href="#DejaVuSans-Bold-101"/>
    <use x="1821.582031" xlink:href="#DejaVuSans-Bold-114"/>
    <use x="1870.898438" xlink:href="#DejaVuSans-Bold-115"/>
    <use x="1930.419922" xlink:href="#DejaVuSans-Bold-32"/>
    <use x="1965.234375" xlink:href="#DejaVuSans-Bold-111"/>
    <use x="2033.935547" xlink:href="#DejaVuSans-Bold-102"/>
    <use x="2077.441406" xlink:href="#DejaVuSans-Bold-32"/>
    <use x="2112.255859" xlink:href="#DejaVuSans-Bold-112"/>
    <use x="2183.837891" xlink:href="#DejaVuSans-Bold-97"/>
    <use x="2251.318359" xlink:href="#DejaVuSans-Bold-114"/>
    <use x="2300.634766" xlink:href="#DejaVuSans-Bold-116"/>
    <use x="2348.4375" xlink:href="#DejaVuSans-Bold-105"/>
    <use x="2382.714844" xlink:href="#DejaVuSans-Bold-116"/>
    <use x="2430.517578" xlink:href="#DejaVuSans-Bold-105"/>
    <use x="2464.794922" xlink:href="#DejaVuSans-Bold-111"/>
    <use x="2533.496094" xlink:href="#DejaVuSans-Bold-110"/>
    <use x="2604.6875" xlink:href="#DejaVuSans-Bold-115"/>
   </g>
  </g>
 </g>
 <defs>
  <clipPath id="pc0f88bf2c7">
   <rect height="266.112" width="357.12" x="46.789688" y="26.156933"/>
  </clipPath>
  <clipPath id="p057ee28749">
   <path d="M 423.309687 164.007902 
L 423.309687 148.167902 
L 439.149687 148.167902 
L 439.149687 164.007902 
"/>
  </clipPath>
  <clipPath id="pf63db11d33">
   <path d="M 423.309687 181.847902 
L 423.309687 166.007902 
L 439.149687 166.007902 
L 439.149687 181.847902 
"/>
  </clipPath>
 </defs>
</svg>
