<?xml version="1.0" encoding="utf-8" standalone="no"?>
<!DOCTYPE svg PUBLIC "-//W3C//DTD SVG 1.1//EN"
  "http://www.w3.org/Graphics/SVG/1.1/DTD/svg11.dtd">
<!-- Created with matplotlib (https://matplotlib.org/) -->
<svg height="327.981621pt" version="1.1" viewBox="0 0 514.862562 327.981621" width="514.862562pt" xmlns="http://www.w3.org/2000/svg" xmlns:xlink="http://www.w3.org/1999/xlink">
 <defs>
  <style type="text/css">
*{stroke-linecap:butt;stroke-linejoin:round;}
  </style>
 </defs>
 <g id="figure_1">
  <g id="patch_1">
   <path d="M 0 327.981621 
L 514.862562 327.981621 
L 514.862562 0 
L 0 0 
z
" style="fill:#ffffff;stroke:#ffffff;stroke-linejoin:miter;"/>
  </g>
  <g id="axes_1">
   <g id="patch_2">
    <path d="M 46.789688 292.268933 
L 403.909688 292.268933 
L 403.909688 26.156933 
L 46.789688 26.156933 
z
" style="fill:#ffffff;"/>
   </g>
   <g id="matplotlib.axis_1">
    <g id="xtick_1">
     <g id="line2d_1">
      <path clip-path="url(#p626ee74ba7)" d="M 62.973712 292.268933 
L 62.973712 26.156933 
" style="fill:none;stroke:#d3d3d3;"/>
     </g>
     <g id="line2d_2">
      <path d="M 62.973712 292.268933 
" style="fill:none;stroke:#333333;stroke-width:1.5;"/>
      <defs>
       <path d="M 0 0 
L 0 2.75 
" id="md2ac6ec268" style="stroke:#333333;"/>
      </defs>
      <g>
       <use style="fill:#333333;stroke:#333333;" x="62.973712" xlink:href="#md2ac6ec268" y="292.268933"/>
      </g>
     </g>
     <g id="text_1">
      <!-- 0 -->
      <defs>
       <path d="M 31.78125 66.40625 
Q 24.171875 66.40625 20.328125 58.90625 
Q 16.5 51.421875 16.5 36.375 
Q 16.5 21.390625 20.328125 13.890625 
Q 24.171875 6.390625 31.78125 6.390625 
Q 39.453125 6.390625 43.28125 13.890625 
Q 47.125 21.390625 47.125 36.375 
Q 47.125 51.421875 43.28125 58.90625 
Q 39.453125 66.40625 31.78125 66.40625 
z
M 31.78125 74.21875 
Q 44.046875 74.21875 50.515625 64.515625 
Q 56.984375 54.828125 56.984375 36.375 
Q 56.984375 17.96875 50.515625 8.265625 
Q 44.046875 -1.421875 31.78125 -1.421875 
Q 19.53125 -1.421875 13.0625 8.265625 
Q 6.59375 17.96875 6.59375 36.375 
Q 6.59375 54.828125 13.0625 64.515625 
Q 19.53125 74.21875 31.78125 74.21875 
z
" id="DejaVuSans-48"/>
      </defs>
      <g style="fill:#4d4d4d;" transform="translate(60.174212 303.905558)scale(0.088 -0.088)">
       <use xlink:href="#DejaVuSans-48"/>
      </g>
     </g>
    </g>
    <g id="xtick_2">
     <g id="line2d_3">
      <path clip-path="url(#p626ee74ba7)" d="M 127.911115 292.268933 
L 127.911115 26.156933 
" style="fill:none;stroke:#d3d3d3;"/>
     </g>
     <g id="line2d_4">
      <path d="M 127.911115 292.268933 
" style="fill:none;stroke:#333333;stroke-width:1.5;"/>
      <g>
       <use style="fill:#333333;stroke:#333333;" x="127.911115" xlink:href="#md2ac6ec268" y="292.268933"/>
      </g>
     </g>
     <g id="text_2">
      <!-- 1000 -->
      <defs>
       <path d="M 12.40625 8.296875 
L 28.515625 8.296875 
L 28.515625 63.921875 
L 10.984375 60.40625 
L 10.984375 69.390625 
L 28.421875 72.90625 
L 38.28125 72.90625 
L 38.28125 8.296875 
L 54.390625 8.296875 
L 54.390625 0 
L 12.40625 0 
z
" id="DejaVuSans-49"/>
      </defs>
      <g style="fill:#4d4d4d;" transform="translate(116.713115 303.905558)scale(0.088 -0.088)">
       <use xlink:href="#DejaVuSans-49"/>
       <use x="63.623047" xlink:href="#DejaVuSans-48"/>
       <use x="127.246094" xlink:href="#DejaVuSans-48"/>
       <use x="190.869141" xlink:href="#DejaVuSans-48"/>
      </g>
     </g>
    </g>
    <g id="xtick_3">
     <g id="line2d_5">
      <path clip-path="url(#p626ee74ba7)" d="M 192.848517 292.268933 
L 192.848517 26.156933 
" style="fill:none;stroke:#d3d3d3;"/>
     </g>
     <g id="line2d_6">
      <path d="M 192.848517 292.268933 
" style="fill:none;stroke:#333333;stroke-width:1.5;"/>
      <g>
       <use style="fill:#333333;stroke:#333333;" x="192.848517" xlink:href="#md2ac6ec268" y="292.268933"/>
      </g>
     </g>
     <g id="text_3">
      <!-- 2000 -->
      <defs>
       <path d="M 19.1875 8.296875 
L 53.609375 8.296875 
L 53.609375 0 
L 7.328125 0 
L 7.328125 8.296875 
Q 12.9375 14.109375 22.625 23.890625 
Q 32.328125 33.6875 34.8125 36.53125 
Q 39.546875 41.84375 41.421875 45.53125 
Q 43.3125 49.21875 43.3125 52.78125 
Q 43.3125 58.59375 39.234375 62.25 
Q 35.15625 65.921875 28.609375 65.921875 
Q 23.96875 65.921875 18.8125 64.3125 
Q 13.671875 62.703125 7.8125 59.421875 
L 7.8125 69.390625 
Q 13.765625 71.78125 18.9375 73 
Q 24.125 74.21875 28.421875 74.21875 
Q 39.75 74.21875 46.484375 68.546875 
Q 53.21875 62.890625 53.21875 53.421875 
Q 53.21875 48.921875 51.53125 44.890625 
Q 49.859375 40.875 45.40625 35.40625 
Q 44.1875 33.984375 37.640625 27.21875 
Q 31.109375 20.453125 19.1875 8.296875 
z
" id="DejaVuSans-50"/>
      </defs>
      <g style="fill:#4d4d4d;" transform="translate(181.650517 303.905558)scale(0.088 -0.088)">
       <use xlink:href="#DejaVuSans-50"/>
       <use x="63.623047" xlink:href="#DejaVuSans-48"/>
       <use x="127.246094" xlink:href="#DejaVuSans-48"/>
       <use x="190.869141" xlink:href="#DejaVuSans-48"/>
      </g>
     </g>
    </g>
    <g id="xtick_4">
     <g id="line2d_7">
      <path clip-path="url(#p626ee74ba7)" d="M 257.78592 292.268933 
L 257.78592 26.156933 
" style="fill:none;stroke:#d3d3d3;"/>
     </g>
     <g id="line2d_8">
      <path d="M 257.78592 292.268933 
" style="fill:none;stroke:#333333;stroke-width:1.5;"/>
      <g>
       <use style="fill:#333333;stroke:#333333;" x="257.78592" xlink:href="#md2ac6ec268" y="292.268933"/>
      </g>
     </g>
     <g id="text_4">
      <!-- 3000 -->
      <defs>
       <path d="M 40.578125 39.3125 
Q 47.65625 37.796875 51.625 33 
Q 55.609375 28.21875 55.609375 21.1875 
Q 55.609375 10.40625 48.1875 4.484375 
Q 40.765625 -1.421875 27.09375 -1.421875 
Q 22.515625 -1.421875 17.65625 -0.515625 
Q 12.796875 0.390625 7.625 2.203125 
L 7.625 11.71875 
Q 11.71875 9.328125 16.59375 8.109375 
Q 21.484375 6.890625 26.8125 6.890625 
Q 36.078125 6.890625 40.9375 10.546875 
Q 45.796875 14.203125 45.796875 21.1875 
Q 45.796875 27.640625 41.28125 31.265625 
Q 36.765625 34.90625 28.71875 34.90625 
L 20.21875 34.90625 
L 20.21875 43.015625 
L 29.109375 43.015625 
Q 36.375 43.015625 40.234375 45.921875 
Q 44.09375 48.828125 44.09375 54.296875 
Q 44.09375 59.90625 40.109375 62.90625 
Q 36.140625 65.921875 28.71875 65.921875 
Q 24.65625 65.921875 20.015625 65.03125 
Q 15.375 64.15625 9.8125 62.3125 
L 9.8125 71.09375 
Q 15.4375 72.65625 20.34375 73.4375 
Q 25.25 74.21875 29.59375 74.21875 
Q 40.828125 74.21875 47.359375 69.109375 
Q 53.90625 64.015625 53.90625 55.328125 
Q 53.90625 49.265625 50.4375 45.09375 
Q 46.96875 40.921875 40.578125 39.3125 
z
" id="DejaVuSans-51"/>
      </defs>
      <g style="fill:#4d4d4d;" transform="translate(246.58792 303.905558)scale(0.088 -0.088)">
       <use xlink:href="#DejaVuSans-51"/>
       <use x="63.623047" xlink:href="#DejaVuSans-48"/>
       <use x="127.246094" xlink:href="#DejaVuSans-48"/>
       <use x="190.869141" xlink:href="#DejaVuSans-48"/>
      </g>
     </g>
    </g>
    <g id="xtick_5">
     <g id="line2d_9">
      <path clip-path="url(#p626ee74ba7)" d="M 322.723323 292.268933 
L 322.723323 26.156933 
" style="fill:none;stroke:#d3d3d3;"/>
     </g>
     <g id="line2d_10">
      <path d="M 322.723323 292.268933 
" style="fill:none;stroke:#333333;stroke-width:1.5;"/>
      <g>
       <use style="fill:#333333;stroke:#333333;" x="322.723323" xlink:href="#md2ac6ec268" y="292.268933"/>
      </g>
     </g>
     <g id="text_5">
      <!-- 4000 -->
      <defs>
       <path d="M 37.796875 64.3125 
L 12.890625 25.390625 
L 37.796875 25.390625 
z
M 35.203125 72.90625 
L 47.609375 72.90625 
L 47.609375 25.390625 
L 58.015625 25.390625 
L 58.015625 17.1875 
L 47.609375 17.1875 
L 47.609375 0 
L 37.796875 0 
L 37.796875 17.1875 
L 4.890625 17.1875 
L 4.890625 26.703125 
z
" id="DejaVuSans-52"/>
      </defs>
      <g style="fill:#4d4d4d;" transform="translate(311.525323 303.905558)scale(0.088 -0.088)">
       <use xlink:href="#DejaVuSans-52"/>
       <use x="63.623047" xlink:href="#DejaVuSans-48"/>
       <use x="127.246094" xlink:href="#DejaVuSans-48"/>
       <use x="190.869141" xlink:href="#DejaVuSans-48"/>
      </g>
     </g>
    </g>
    <g id="xtick_6">
     <g id="line2d_11">
      <path clip-path="url(#p626ee74ba7)" d="M 387.660726 292.268933 
L 387.660726 26.156933 
" style="fill:none;stroke:#d3d3d3;"/>
     </g>
     <g id="line2d_12">
      <path d="M 387.660726 292.268933 
" style="fill:none;stroke:#333333;stroke-width:1.5;"/>
      <g>
       <use style="fill:#333333;stroke:#333333;" x="387.660726" xlink:href="#md2ac6ec268" y="292.268933"/>
      </g>
     </g>
     <g id="text_6">
      <!-- 5000 -->
      <defs>
       <path d="M 10.796875 72.90625 
L 49.515625 72.90625 
L 49.515625 64.59375 
L 19.828125 64.59375 
L 19.828125 46.734375 
Q 21.96875 47.46875 24.109375 47.828125 
Q 26.265625 48.1875 28.421875 48.1875 
Q 40.625 48.1875 47.75 41.5 
Q 54.890625 34.8125 54.890625 23.390625 
Q 54.890625 11.625 47.5625 5.09375 
Q 40.234375 -1.421875 26.90625 -1.421875 
Q 22.3125 -1.421875 17.546875 -0.640625 
Q 12.796875 0.140625 7.71875 1.703125 
L 7.71875 11.625 
Q 12.109375 9.234375 16.796875 8.0625 
Q 21.484375 6.890625 26.703125 6.890625 
Q 35.15625 6.890625 40.078125 11.328125 
Q 45.015625 15.765625 45.015625 23.390625 
Q 45.015625 31 40.078125 35.4375 
Q 35.15625 39.890625 26.703125 39.890625 
Q 22.75 39.890625 18.8125 39.015625 
Q 14.890625 38.140625 10.796875 36.28125 
z
" id="DejaVuSans-53"/>
      </defs>
      <g style="fill:#4d4d4d;" transform="translate(376.462726 303.905558)scale(0.088 -0.088)">
       <use xlink:href="#DejaVuSans-53"/>
       <use x="63.623047" xlink:href="#DejaVuSans-48"/>
       <use x="127.246094" xlink:href="#DejaVuSans-48"/>
       <use x="190.869141" xlink:href="#DejaVuSans-48"/>
      </g>
     </g>
    </g>
    <g id="xtick_7">
     <g id="line2d_13">
      <path clip-path="url(#p626ee74ba7)" d="M 95.442413 292.268933 
L 95.442413 26.156933 
" style="fill:none;stroke:#ffffff;stroke-width:0.5;"/>
     </g>
     <g id="line2d_14">
      <path d="M 95.442413 292.268933 
" style="fill:none;stroke:#333333;stroke-width:1.5;"/>
     </g>
    </g>
    <g id="xtick_8">
     <g id="line2d_15">
      <path clip-path="url(#p626ee74ba7)" d="M 160.379816 292.268933 
L 160.379816 26.156933 
" style="fill:none;stroke:#ffffff;stroke-width:0.5;"/>
     </g>
     <g id="line2d_16">
      <path d="M 160.379816 292.268933 
" style="fill:none;stroke:#333333;stroke-width:1.5;"/>
     </g>
    </g>
    <g id="xtick_9">
     <g id="line2d_17">
      <path clip-path="url(#p626ee74ba7)" d="M 225.317219 292.268933 
L 225.317219 26.156933 
" style="fill:none;stroke:#ffffff;stroke-width:0.5;"/>
     </g>
     <g id="line2d_18">
      <path d="M 225.317219 292.268933 
" style="fill:none;stroke:#333333;stroke-width:1.5;"/>
     </g>
    </g>
    <g id="xtick_10">
     <g id="line2d_19">
      <path clip-path="url(#p626ee74ba7)" d="M 290.254622 292.268933 
L 290.254622 26.156933 
" style="fill:none;stroke:#ffffff;stroke-width:0.5;"/>
     </g>
     <g id="line2d_20">
      <path d="M 290.254622 292.268933 
" style="fill:none;stroke:#333333;stroke-width:1.5;"/>
     </g>
    </g>
    <g id="xtick_11">
     <g id="line2d_21">
      <path clip-path="url(#p626ee74ba7)" d="M 355.192024 292.268933 
L 355.192024 26.156933 
" style="fill:none;stroke:#ffffff;stroke-width:0.5;"/>
     </g>
     <g id="line2d_22">
      <path d="M 355.192024 292.268933 
" style="fill:none;stroke:#333333;stroke-width:1.5;"/>
     </g>
    </g>
    <g id="text_7">
     <!-- Number of Partitions -->
     <defs>
      <path d="M 9.8125 72.90625 
L 23.09375 72.90625 
L 55.421875 11.921875 
L 55.421875 72.90625 
L 64.984375 72.90625 
L 64.984375 0 
L 51.703125 0 
L 19.390625 60.984375 
L 19.390625 0 
L 9.8125 0 
z
" id="DejaVuSans-78"/>
      <path d="M 8.5 21.578125 
L 8.5 54.6875 
L 17.484375 54.6875 
L 17.484375 21.921875 
Q 17.484375 14.15625 20.5 10.265625 
Q 23.53125 6.390625 29.59375 6.390625 
Q 36.859375 6.390625 41.078125 11.03125 
Q 45.3125 15.671875 45.3125 23.6875 
L 45.3125 54.6875 
L 54.296875 54.6875 
L 54.296875 0 
L 45.3125 0 
L 45.3125 8.40625 
Q 42.046875 3.421875 37.71875 1 
Q 33.40625 -1.421875 27.6875 -1.421875 
Q 18.265625 -1.421875 13.375 4.4375 
Q 8.5 10.296875 8.5 21.578125 
z
M 31.109375 56 
z
" id="DejaVuSans-117"/>
      <path d="M 52 44.1875 
Q 55.375 50.25 60.0625 53.125 
Q 64.75 56 71.09375 56 
Q 79.640625 56 84.28125 50.015625 
Q 88.921875 44.046875 88.921875 33.015625 
L 88.921875 0 
L 79.890625 0 
L 79.890625 32.71875 
Q 79.890625 40.578125 77.09375 44.375 
Q 74.3125 48.1875 68.609375 48.1875 
Q 61.625 48.1875 57.5625 43.546875 
Q 53.515625 38.921875 53.515625 30.90625 
L 53.515625 0 
L 44.484375 0 
L 44.484375 32.71875 
Q 44.484375 40.625 41.703125 44.40625 
Q 38.921875 48.1875 33.109375 48.1875 
Q 26.21875 48.1875 22.15625 43.53125 
Q 18.109375 38.875 18.109375 30.90625 
L 18.109375 0 
L 9.078125 0 
L 9.078125 54.6875 
L 18.109375 54.6875 
L 18.109375 46.1875 
Q 21.1875 51.21875 25.484375 53.609375 
Q 29.78125 56 35.6875 56 
Q 41.65625 56 45.828125 52.96875 
Q 50 49.953125 52 44.1875 
z
" id="DejaVuSans-109"/>
      <path d="M 48.6875 27.296875 
Q 48.6875 37.203125 44.609375 42.84375 
Q 40.53125 48.484375 33.40625 48.484375 
Q 26.265625 48.484375 22.1875 42.84375 
Q 18.109375 37.203125 18.109375 27.296875 
Q 18.109375 17.390625 22.1875 11.75 
Q 26.265625 6.109375 33.40625 6.109375 
Q 40.53125 6.109375 44.609375 11.75 
Q 48.6875 17.390625 48.6875 27.296875 
z
M 18.109375 46.390625 
Q 20.953125 51.265625 25.265625 53.625 
Q 29.59375 56 35.59375 56 
Q 45.5625 56 51.78125 48.09375 
Q 58.015625 40.1875 58.015625 27.296875 
Q 58.015625 14.40625 51.78125 6.484375 
Q 45.5625 -1.421875 35.59375 -1.421875 
Q 29.59375 -1.421875 25.265625 0.953125 
Q 20.953125 3.328125 18.109375 8.203125 
L 18.109375 0 
L 9.078125 0 
L 9.078125 75.984375 
L 18.109375 75.984375 
z
" id="DejaVuSans-98"/>
      <path d="M 56.203125 29.59375 
L 56.203125 25.203125 
L 14.890625 25.203125 
Q 15.484375 15.921875 20.484375 11.0625 
Q 25.484375 6.203125 34.421875 6.203125 
Q 39.59375 6.203125 44.453125 7.46875 
Q 49.3125 8.734375 54.109375 11.28125 
L 54.109375 2.78125 
Q 49.265625 0.734375 44.1875 -0.34375 
Q 39.109375 -1.421875 33.890625 -1.421875 
Q 20.796875 -1.421875 13.15625 6.1875 
Q 5.515625 13.8125 5.515625 26.8125 
Q 5.515625 40.234375 12.765625 48.109375 
Q 20.015625 56 32.328125 56 
Q 43.359375 56 49.78125 48.890625 
Q 56.203125 41.796875 56.203125 29.59375 
z
M 47.21875 32.234375 
Q 47.125 39.59375 43.09375 43.984375 
Q 39.0625 48.390625 32.421875 48.390625 
Q 24.90625 48.390625 20.390625 44.140625 
Q 15.875 39.890625 15.1875 32.171875 
z
" id="DejaVuSans-101"/>
      <path d="M 41.109375 46.296875 
Q 39.59375 47.171875 37.8125 47.578125 
Q 36.03125 48 33.890625 48 
Q 26.265625 48 22.1875 43.046875 
Q 18.109375 38.09375 18.109375 28.8125 
L 18.109375 0 
L 9.078125 0 
L 9.078125 54.6875 
L 18.109375 54.6875 
L 18.109375 46.1875 
Q 20.953125 51.171875 25.484375 53.578125 
Q 30.03125 56 36.53125 56 
Q 37.453125 56 38.578125 55.875 
Q 39.703125 55.765625 41.0625 55.515625 
z
" id="DejaVuSans-114"/>
      <path id="DejaVuSans-32"/>
      <path d="M 30.609375 48.390625 
Q 23.390625 48.390625 19.1875 42.75 
Q 14.984375 37.109375 14.984375 27.296875 
Q 14.984375 17.484375 19.15625 11.84375 
Q 23.34375 6.203125 30.609375 6.203125 
Q 37.796875 6.203125 41.984375 11.859375 
Q 46.1875 17.53125 46.1875 27.296875 
Q 46.1875 37.015625 41.984375 42.703125 
Q 37.796875 48.390625 30.609375 48.390625 
z
M 30.609375 56 
Q 42.328125 56 49.015625 48.375 
Q 55.71875 40.765625 55.71875 27.296875 
Q 55.71875 13.875 49.015625 6.21875 
Q 42.328125 -1.421875 30.609375 -1.421875 
Q 18.84375 -1.421875 12.171875 6.21875 
Q 5.515625 13.875 5.515625 27.296875 
Q 5.515625 40.765625 12.171875 48.375 
Q 18.84375 56 30.609375 56 
z
" id="DejaVuSans-111"/>
      <path d="M 37.109375 75.984375 
L 37.109375 68.5 
L 28.515625 68.5 
Q 23.6875 68.5 21.796875 66.546875 
Q 19.921875 64.59375 19.921875 59.515625 
L 19.921875 54.6875 
L 34.71875 54.6875 
L 34.71875 47.703125 
L 19.921875 47.703125 
L 19.921875 0 
L 10.890625 0 
L 10.890625 47.703125 
L 2.296875 47.703125 
L 2.296875 54.6875 
L 10.890625 54.6875 
L 10.890625 58.5 
Q 10.890625 67.625 15.140625 71.796875 
Q 19.390625 75.984375 28.609375 75.984375 
z
" id="DejaVuSans-102"/>
      <path d="M 19.671875 64.796875 
L 19.671875 37.40625 
L 32.078125 37.40625 
Q 38.96875 37.40625 42.71875 40.96875 
Q 46.484375 44.53125 46.484375 51.125 
Q 46.484375 57.671875 42.71875 61.234375 
Q 38.96875 64.796875 32.078125 64.796875 
z
M 9.8125 72.90625 
L 32.078125 72.90625 
Q 44.34375 72.90625 50.609375 67.359375 
Q 56.890625 61.8125 56.890625 51.125 
Q 56.890625 40.328125 50.609375 34.8125 
Q 44.34375 29.296875 32.078125 29.296875 
L 19.671875 29.296875 
L 19.671875 0 
L 9.8125 0 
z
" id="DejaVuSans-80"/>
      <path d="M 34.28125 27.484375 
Q 23.390625 27.484375 19.1875 25 
Q 14.984375 22.515625 14.984375 16.5 
Q 14.984375 11.71875 18.140625 8.90625 
Q 21.296875 6.109375 26.703125 6.109375 
Q 34.1875 6.109375 38.703125 11.40625 
Q 43.21875 16.703125 43.21875 25.484375 
L 43.21875 27.484375 
z
M 52.203125 31.203125 
L 52.203125 0 
L 43.21875 0 
L 43.21875 8.296875 
Q 40.140625 3.328125 35.546875 0.953125 
Q 30.953125 -1.421875 24.3125 -1.421875 
Q 15.921875 -1.421875 10.953125 3.296875 
Q 6 8.015625 6 15.921875 
Q 6 25.140625 12.171875 29.828125 
Q 18.359375 34.515625 30.609375 34.515625 
L 43.21875 34.515625 
L 43.21875 35.40625 
Q 43.21875 41.609375 39.140625 45 
Q 35.0625 48.390625 27.6875 48.390625 
Q 23 48.390625 18.546875 47.265625 
Q 14.109375 46.140625 10.015625 43.890625 
L 10.015625 52.203125 
Q 14.9375 54.109375 19.578125 55.046875 
Q 24.21875 56 28.609375 56 
Q 40.484375 56 46.34375 49.84375 
Q 52.203125 43.703125 52.203125 31.203125 
z
" id="DejaVuSans-97"/>
      <path d="M 18.3125 70.21875 
L 18.3125 54.6875 
L 36.8125 54.6875 
L 36.8125 47.703125 
L 18.3125 47.703125 
L 18.3125 18.015625 
Q 18.3125 11.328125 20.140625 9.421875 
Q 21.96875 7.515625 27.59375 7.515625 
L 36.8125 7.515625 
L 36.8125 0 
L 27.59375 0 
Q 17.1875 0 13.234375 3.875 
Q 9.28125 7.765625 9.28125 18.015625 
L 9.28125 47.703125 
L 2.6875 47.703125 
L 2.6875 54.6875 
L 9.28125 54.6875 
L 9.28125 70.21875 
z
" id="DejaVuSans-116"/>
      <path d="M 9.421875 54.6875 
L 18.40625 54.6875 
L 18.40625 0 
L 9.421875 0 
z
M 9.421875 75.984375 
L 18.40625 75.984375 
L 18.40625 64.59375 
L 9.421875 64.59375 
z
" id="DejaVuSans-105"/>
      <path d="M 54.890625 33.015625 
L 54.890625 0 
L 45.90625 0 
L 45.90625 32.71875 
Q 45.90625 40.484375 42.875 44.328125 
Q 39.84375 48.1875 33.796875 48.1875 
Q 26.515625 48.1875 22.3125 43.546875 
Q 18.109375 38.921875 18.109375 30.90625 
L 18.109375 0 
L 9.078125 0 
L 9.078125 54.6875 
L 18.109375 54.6875 
L 18.109375 46.1875 
Q 21.34375 51.125 25.703125 53.5625 
Q 30.078125 56 35.796875 56 
Q 45.21875 56 50.046875 50.171875 
Q 54.890625 44.34375 54.890625 33.015625 
z
" id="DejaVuSans-110"/>
      <path d="M 44.28125 53.078125 
L 44.28125 44.578125 
Q 40.484375 46.53125 36.375 47.5 
Q 32.28125 48.484375 27.875 48.484375 
Q 21.1875 48.484375 17.84375 46.4375 
Q 14.5 44.390625 14.5 40.28125 
Q 14.5 37.15625 16.890625 35.375 
Q 19.28125 33.59375 26.515625 31.984375 
L 29.59375 31.296875 
Q 39.15625 29.25 43.1875 25.515625 
Q 47.21875 21.78125 47.21875 15.09375 
Q 47.21875 7.46875 41.1875 3.015625 
Q 35.15625 -1.421875 24.609375 -1.421875 
Q 20.21875 -1.421875 15.453125 -0.5625 
Q 10.6875 0.296875 5.421875 2 
L 5.421875 11.28125 
Q 10.40625 8.6875 15.234375 7.390625 
Q 20.0625 6.109375 24.8125 6.109375 
Q 31.15625 6.109375 34.5625 8.28125 
Q 37.984375 10.453125 37.984375 14.40625 
Q 37.984375 18.0625 35.515625 20.015625 
Q 33.0625 21.96875 24.703125 23.78125 
L 21.578125 24.515625 
Q 13.234375 26.265625 9.515625 29.90625 
Q 5.8125 33.546875 5.8125 39.890625 
Q 5.8125 47.609375 11.28125 51.796875 
Q 16.75 56 26.8125 56 
Q 31.78125 56 36.171875 55.265625 
Q 40.578125 54.546875 44.28125 53.078125 
z
" id="DejaVuSans-115"/>
     </defs>
     <g transform="translate(162.668984 318.493964)scale(0.11 -0.11)">
      <use xlink:href="#DejaVuSans-78"/>
      <use x="74.804688" xlink:href="#DejaVuSans-117"/>
      <use x="138.183594" xlink:href="#DejaVuSans-109"/>
      <use x="235.595703" xlink:href="#DejaVuSans-98"/>
      <use x="299.072266" xlink:href="#DejaVuSans-101"/>
      <use x="360.595703" xlink:href="#DejaVuSans-114"/>
      <use x="401.708984" xlink:href="#DejaVuSans-32"/>
      <use x="433.496094" xlink:href="#DejaVuSans-111"/>
      <use x="494.677734" xlink:href="#DejaVuSans-102"/>
      <use x="529.882812" xlink:href="#DejaVuSans-32"/>
      <use x="561.669922" xlink:href="#DejaVuSans-80"/>
      <use x="621.910156" xlink:href="#DejaVuSans-97"/>
      <use x="683.189453" xlink:href="#DejaVuSans-114"/>
      <use x="724.302734" xlink:href="#DejaVuSans-116"/>
      <use x="763.511719" xlink:href="#DejaVuSans-105"/>
      <use x="791.294922" xlink:href="#DejaVuSans-116"/>
      <use x="830.503906" xlink:href="#DejaVuSans-105"/>
      <use x="858.287109" xlink:href="#DejaVuSans-111"/>
      <use x="919.46875" xlink:href="#DejaVuSans-110"/>
      <use x="982.847656" xlink:href="#DejaVuSans-115"/>
     </g>
    </g>
   </g>
   <g id="matplotlib.axis_2">
    <g id="ytick_1">
     <g id="line2d_23">
      <path clip-path="url(#p626ee74ba7)" d="M 46.789688 290.855259 
L 403.909688 290.855259 
" style="fill:none;stroke:#d3d3d3;"/>
     </g>
     <g id="line2d_24">
      <path d="M 46.789688 290.855259 
" style="fill:none;stroke:#333333;stroke-width:1.5;"/>
      <defs>
       <path d="M 0 0 
L -2.75 0 
" id="m37366e04e4" style="stroke:#333333;"/>
      </defs>
      <g>
       <use style="fill:#333333;stroke:#333333;" x="46.789688" xlink:href="#m37366e04e4" y="290.855259"/>
      </g>
     </g>
     <g id="text_8">
      <!-- 0 -->
      <g style="fill:#4d4d4d;" transform="translate(36.240688 293.283509)scale(0.088 -0.088)">
       <use xlink:href="#DejaVuSans-48"/>
      </g>
     </g>
    </g>
    <g id="ytick_2">
     <g id="line2d_25">
      <path clip-path="url(#p626ee74ba7)" d="M 46.789688 227.704303 
L 403.909688 227.704303 
" style="fill:none;stroke:#d3d3d3;"/>
     </g>
     <g id="line2d_26">
      <path d="M 46.789688 227.704303 
" style="fill:none;stroke:#333333;stroke-width:1.5;"/>
      <g>
       <use style="fill:#333333;stroke:#333333;" x="46.789688" xlink:href="#m37366e04e4" y="227.704303"/>
      </g>
     </g>
     <g id="text_9">
      <!-- 0.25 -->
      <defs>
       <path d="M 10.6875 12.40625 
L 21 12.40625 
L 21 0 
L 10.6875 0 
z
" id="DejaVuSans-46"/>
      </defs>
      <g style="fill:#4d4d4d;" transform="translate(22.245938 230.132553)scale(0.088 -0.088)">
       <use xlink:href="#DejaVuSans-48"/>
       <use x="63.623047" xlink:href="#DejaVuSans-46"/>
       <use x="95.410156" xlink:href="#DejaVuSans-50"/>
       <use x="159.033203" xlink:href="#DejaVuSans-53"/>
      </g>
     </g>
    </g>
    <g id="ytick_3">
     <g id="line2d_27">
      <path clip-path="url(#p626ee74ba7)" d="M 46.789688 164.553348 
L 403.909688 164.553348 
" style="fill:none;stroke:#d3d3d3;"/>
     </g>
     <g id="line2d_28">
      <path d="M 46.789688 164.553348 
" style="fill:none;stroke:#333333;stroke-width:1.5;"/>
      <g>
       <use style="fill:#333333;stroke:#333333;" x="46.789688" xlink:href="#m37366e04e4" y="164.553348"/>
      </g>
     </g>
     <g id="text_10">
      <!-- 0.50 -->
      <g style="fill:#4d4d4d;" transform="translate(22.245938 166.981598)scale(0.088 -0.088)">
       <use xlink:href="#DejaVuSans-48"/>
       <use x="63.623047" xlink:href="#DejaVuSans-46"/>
       <use x="95.410156" xlink:href="#DejaVuSans-53"/>
       <use x="159.033203" xlink:href="#DejaVuSans-48"/>
      </g>
     </g>
    </g>
    <g id="ytick_4">
     <g id="line2d_29">
      <path clip-path="url(#p626ee74ba7)" d="M 46.789688 101.402392 
L 403.909688 101.402392 
" style="fill:none;stroke:#d3d3d3;"/>
     </g>
     <g id="line2d_30">
      <path d="M 46.789688 101.402392 
" style="fill:none;stroke:#333333;stroke-width:1.5;"/>
      <g>
       <use style="fill:#333333;stroke:#333333;" x="46.789688" xlink:href="#m37366e04e4" y="101.402392"/>
      </g>
     </g>
     <g id="text_11">
      <!-- 0.75 -->
      <defs>
       <path d="M 8.203125 72.90625 
L 55.078125 72.90625 
L 55.078125 68.703125 
L 28.609375 0 
L 18.3125 0 
L 43.21875 64.59375 
L 8.203125 64.59375 
z
" id="DejaVuSans-55"/>
      </defs>
      <g style="fill:#4d4d4d;" transform="translate(22.245938 103.830642)scale(0.088 -0.088)">
       <use xlink:href="#DejaVuSans-48"/>
       <use x="63.623047" xlink:href="#DejaVuSans-46"/>
       <use x="95.410156" xlink:href="#DejaVuSans-55"/>
       <use x="159.033203" xlink:href="#DejaVuSans-53"/>
      </g>
     </g>
    </g>
    <g id="ytick_5">
     <g id="line2d_31">
      <path clip-path="url(#p626ee74ba7)" d="M 46.789688 38.251437 
L 403.909688 38.251437 
" style="fill:none;stroke:#d3d3d3;"/>
     </g>
     <g id="line2d_32">
      <path d="M 46.789688 38.251437 
" style="fill:none;stroke:#333333;stroke-width:1.5;"/>
      <g>
       <use style="fill:#333333;stroke:#333333;" x="46.789688" xlink:href="#m37366e04e4" y="38.251437"/>
      </g>
     </g>
     <g id="text_12">
      <!-- 1 -->
      <g style="fill:#4d4d4d;" transform="translate(36.240688 40.679687)scale(0.088 -0.088)">
       <use xlink:href="#DejaVuSans-49"/>
      </g>
     </g>
    </g>
    <g id="ytick_6">
     <g id="line2d_33">
      <path clip-path="url(#p626ee74ba7)" d="M 46.789688 259.279781 
L 403.909688 259.279781 
" style="fill:none;stroke:#ffffff;stroke-width:0.5;"/>
     </g>
     <g id="line2d_34">
      <path d="M 46.789688 259.279781 
" style="fill:none;stroke:#333333;stroke-width:1.5;"/>
     </g>
    </g>
    <g id="ytick_7">
     <g id="line2d_35">
      <path clip-path="url(#p626ee74ba7)" d="M 46.789688 196.128825 
L 403.909688 196.128825 
" style="fill:none;stroke:#ffffff;stroke-width:0.5;"/>
     </g>
     <g id="line2d_36">
      <path d="M 46.789688 196.128825 
" style="fill:none;stroke:#333333;stroke-width:1.5;"/>
     </g>
    </g>
    <g id="ytick_8">
     <g id="line2d_37">
      <path clip-path="url(#p626ee74ba7)" d="M 46.789688 132.97787 
L 403.909688 132.97787 
" style="fill:none;stroke:#ffffff;stroke-width:0.5;"/>
     </g>
     <g id="line2d_38">
      <path d="M 46.789688 132.97787 
" style="fill:none;stroke:#333333;stroke-width:1.5;"/>
     </g>
    </g>
    <g id="ytick_9">
     <g id="line2d_39">
      <path clip-path="url(#p626ee74ba7)" d="M 46.789688 69.826914 
L 403.909688 69.826914 
" style="fill:none;stroke:#ffffff;stroke-width:0.5;"/>
     </g>
     <g id="line2d_40">
      <path d="M 46.789688 69.826914 
" style="fill:none;stroke:#333333;stroke-width:1.5;"/>
     </g>
    </g>
    <g id="text_13">
     <!-- Similarity score (SVCCA) -->
     <defs>
      <path d="M 53.515625 70.515625 
L 53.515625 60.890625 
Q 47.90625 63.578125 42.921875 64.890625 
Q 37.9375 66.21875 33.296875 66.21875 
Q 25.25 66.21875 20.875 63.09375 
Q 16.5 59.96875 16.5 54.203125 
Q 16.5 49.359375 19.40625 46.890625 
Q 22.3125 44.4375 30.421875 42.921875 
L 36.375 41.703125 
Q 47.40625 39.59375 52.65625 34.296875 
Q 57.90625 29 57.90625 20.125 
Q 57.90625 9.515625 50.796875 4.046875 
Q 43.703125 -1.421875 29.984375 -1.421875 
Q 24.8125 -1.421875 18.96875 -0.25 
Q 13.140625 0.921875 6.890625 3.21875 
L 6.890625 13.375 
Q 12.890625 10.015625 18.65625 8.296875 
Q 24.421875 6.59375 29.984375 6.59375 
Q 38.421875 6.59375 43.015625 9.90625 
Q 47.609375 13.234375 47.609375 19.390625 
Q 47.609375 24.75 44.3125 27.78125 
Q 41.015625 30.8125 33.5 32.328125 
L 27.484375 33.5 
Q 16.453125 35.6875 11.515625 40.375 
Q 6.59375 45.0625 6.59375 53.421875 
Q 6.59375 63.09375 13.40625 68.65625 
Q 20.21875 74.21875 32.171875 74.21875 
Q 37.3125 74.21875 42.625 73.28125 
Q 47.953125 72.359375 53.515625 70.515625 
z
" id="DejaVuSans-83"/>
      <path d="M 9.421875 75.984375 
L 18.40625 75.984375 
L 18.40625 0 
L 9.421875 0 
z
" id="DejaVuSans-108"/>
      <path d="M 32.171875 -5.078125 
Q 28.375 -14.84375 24.75 -17.8125 
Q 21.140625 -20.796875 15.09375 -20.796875 
L 7.90625 -20.796875 
L 7.90625 -13.28125 
L 13.1875 -13.28125 
Q 16.890625 -13.28125 18.9375 -11.515625 
Q 21 -9.765625 23.484375 -3.21875 
L 25.09375 0.875 
L 2.984375 54.6875 
L 12.5 54.6875 
L 29.59375 11.921875 
L 46.6875 54.6875 
L 56.203125 54.6875 
z
" id="DejaVuSans-121"/>
      <path d="M 48.78125 52.59375 
L 48.78125 44.1875 
Q 44.96875 46.296875 41.140625 47.34375 
Q 37.3125 48.390625 33.40625 48.390625 
Q 24.65625 48.390625 19.8125 42.84375 
Q 14.984375 37.3125 14.984375 27.296875 
Q 14.984375 17.28125 19.8125 11.734375 
Q 24.65625 6.203125 33.40625 6.203125 
Q 37.3125 6.203125 41.140625 7.25 
Q 44.96875 8.296875 48.78125 10.40625 
L 48.78125 2.09375 
Q 45.015625 0.34375 40.984375 -0.53125 
Q 36.96875 -1.421875 32.421875 -1.421875 
Q 20.0625 -1.421875 12.78125 6.34375 
Q 5.515625 14.109375 5.515625 27.296875 
Q 5.515625 40.671875 12.859375 48.328125 
Q 20.21875 56 33.015625 56 
Q 37.15625 56 41.109375 55.140625 
Q 45.0625 54.296875 48.78125 52.59375 
z
" id="DejaVuSans-99"/>
      <path d="M 31 75.875 
Q 24.46875 64.65625 21.28125 53.65625 
Q 18.109375 42.671875 18.109375 31.390625 
Q 18.109375 20.125 21.3125 9.0625 
Q 24.515625 -2 31 -13.1875 
L 23.1875 -13.1875 
Q 15.875 -1.703125 12.234375 9.375 
Q 8.59375 20.453125 8.59375 31.390625 
Q 8.59375 42.28125 12.203125 53.3125 
Q 15.828125 64.359375 23.1875 75.875 
z
" id="DejaVuSans-40"/>
      <path d="M 28.609375 0 
L 0.78125 72.90625 
L 11.078125 72.90625 
L 34.1875 11.53125 
L 57.328125 72.90625 
L 67.578125 72.90625 
L 39.796875 0 
z
" id="DejaVuSans-86"/>
      <path d="M 64.40625 67.28125 
L 64.40625 56.890625 
Q 59.421875 61.53125 53.78125 63.8125 
Q 48.140625 66.109375 41.796875 66.109375 
Q 29.296875 66.109375 22.65625 58.46875 
Q 16.015625 50.828125 16.015625 36.375 
Q 16.015625 21.96875 22.65625 14.328125 
Q 29.296875 6.6875 41.796875 6.6875 
Q 48.140625 6.6875 53.78125 8.984375 
Q 59.421875 11.28125 64.40625 15.921875 
L 64.40625 5.609375 
Q 59.234375 2.09375 53.4375 0.328125 
Q 47.65625 -1.421875 41.21875 -1.421875 
Q 24.65625 -1.421875 15.125 8.703125 
Q 5.609375 18.84375 5.609375 36.375 
Q 5.609375 53.953125 15.125 64.078125 
Q 24.65625 74.21875 41.21875 74.21875 
Q 47.75 74.21875 53.53125 72.484375 
Q 59.328125 70.75 64.40625 67.28125 
z
" id="DejaVuSans-67"/>
      <path d="M 34.1875 63.1875 
L 20.796875 26.90625 
L 47.609375 26.90625 
z
M 28.609375 72.90625 
L 39.796875 72.90625 
L 67.578125 0 
L 57.328125 0 
L 50.6875 18.703125 
L 17.828125 18.703125 
L 11.1875 0 
L 0.78125 0 
z
" id="DejaVuSans-65"/>
      <path d="M 8.015625 75.875 
L 15.828125 75.875 
Q 23.140625 64.359375 26.78125 53.3125 
Q 30.421875 42.28125 30.421875 31.390625 
Q 30.421875 20.453125 26.78125 9.375 
Q 23.140625 -1.703125 15.828125 -13.1875 
L 8.015625 -13.1875 
Q 14.5 -2 17.703125 9.0625 
Q 20.90625 20.125 20.90625 31.390625 
Q 20.90625 42.671875 17.703125 53.65625 
Q 14.5 64.65625 8.015625 75.875 
z
" id="DejaVuSans-41"/>
     </defs>
     <g transform="translate(15.558281 224.871964)rotate(-90)scale(0.11 -0.11)">
      <use xlink:href="#DejaVuSans-83"/>
      <use x="63.476562" xlink:href="#DejaVuSans-105"/>
      <use x="91.259766" xlink:href="#DejaVuSans-109"/>
      <use x="188.671875" xlink:href="#DejaVuSans-105"/>
      <use x="216.455078" xlink:href="#DejaVuSans-108"/>
      <use x="244.238281" xlink:href="#DejaVuSans-97"/>
      <use x="305.517578" xlink:href="#DejaVuSans-114"/>
      <use x="346.630859" xlink:href="#DejaVuSans-105"/>
      <use x="374.414062" xlink:href="#DejaVuSans-116"/>
      <use x="413.623047" xlink:href="#DejaVuSans-121"/>
      <use x="472.802734" xlink:href="#DejaVuSans-32"/>
      <use x="504.589844" xlink:href="#DejaVuSans-115"/>
      <use x="556.689453" xlink:href="#DejaVuSans-99"/>
      <use x="611.669922" xlink:href="#DejaVuSans-111"/>
      <use x="672.851562" xlink:href="#DejaVuSans-114"/>
      <use x="713.933594" xlink:href="#DejaVuSans-101"/>
      <use x="775.457031" xlink:href="#DejaVuSans-32"/>
      <use x="807.244141" xlink:href="#DejaVuSans-40"/>
      <use x="846.257812" xlink:href="#DejaVuSans-83"/>
      <use x="909.734375" xlink:href="#DejaVuSans-86"/>
      <use x="978.142578" xlink:href="#DejaVuSans-67"/>
      <use x="1047.966797" xlink:href="#DejaVuSans-67"/>
      <use x="1117.791016" xlink:href="#DejaVuSans-65"/>
      <use x="1186.199219" xlink:href="#DejaVuSans-41"/>
     </g>
    </g>
   </g>
   <g id="line2d_41">
    <path clip-path="url(#p626ee74ba7)" d="M 63.038649 38.252952 
L 63.103587 38.275663 
L 63.298399 38.350469 
L 63.623086 38.455052 
L 64.27246 38.698312 
L 66.220582 39.433706 
L 69.467452 40.584703 
L 95.442413 50.268798 
L 127.911115 62.083654 
L 192.848517 87.679082 
L 257.78592 113.054462 
L 387.660726 184.110093 
" style="fill:none;stroke:#1976d2;stroke-width:2.658681;"/>
   </g>
   <g id="line2d_42">
    <path clip-path="url(#p626ee74ba7)" d="M 63.038649 38.252956 
L 63.103587 63.35936 
L 63.298399 136.933557 
L 63.623086 257.939225 
L 64.27246 279.652425 
L 66.220582 253.647099 
L 69.467452 230.291141 
L 95.442413 106.205664 
L 127.911115 54.673866 
L 192.848517 46.984356 
L 257.78592 45.691438 
L 387.660726 45.062286 
" style="fill:none;stroke:#b3e5fc;stroke-width:2.658681;"/>
   </g>
   <g id="PathCollection_1">
    <path clip-path="url(#p626ee74ba7)" d="M 63.038649 39.139183 
C 63.273679 39.139183 63.499115 39.045805 63.665306 38.879613 
C 63.831498 38.713422 63.924876 38.487986 63.924876 38.252956 
C 63.924876 38.017926 63.831498 37.792491 63.665306 37.626299 
C 63.499115 37.460108 63.273679 37.366729 63.038649 37.366729 
C 62.803619 37.366729 62.578183 37.460108 62.411992 37.626299 
C 62.245801 37.792491 62.152422 38.017926 62.152422 38.252956 
C 62.152422 38.487986 62.245801 38.713422 62.411992 38.879613 
C 62.578183 39.045805 62.803619 39.139183 63.038649 39.139183 
z
" style="fill:#a9a9a9;stroke:#a9a9a9;stroke-width:0.886227;"/>
    <path clip-path="url(#p626ee74ba7)" d="M 63.103587 64.245587 
C 63.338617 64.245587 63.564052 64.152209 63.730244 63.986017 
C 63.896435 63.819826 63.989813 63.59439 63.989813 63.35936 
C 63.989813 63.12433 63.896435 62.898895 63.730244 62.732703 
C 63.564052 62.566512 63.338617 62.473133 63.103587 62.473133 
C 62.868556 62.473133 62.643121 62.566512 62.476929 62.732703 
C 62.310738 62.898895 62.21736 63.12433 62.21736 63.35936 
C 62.21736 63.59439 62.310738 63.819826 62.476929 63.986017 
C 62.643121 64.152209 62.868556 64.245587 63.103587 64.245587 
z
" style="fill:#a9a9a9;stroke:#a9a9a9;stroke-width:0.886227;"/>
    <path clip-path="url(#p626ee74ba7)" d="M 63.298399 137.819784 
C 63.533429 137.819784 63.758864 137.726406 63.925056 137.560214 
C 64.091247 137.394023 64.184626 137.168588 64.184626 136.933557 
C 64.184626 136.698527 64.091247 136.473092 63.925056 136.3069 
C 63.758864 136.140709 63.533429 136.04733 63.298399 136.04733 
C 63.063369 136.04733 62.837933 136.140709 62.671742 136.3069 
C 62.50555 136.473092 62.412172 136.698527 62.412172 136.933557 
C 62.412172 137.168588 62.50555 137.394023 62.671742 137.560214 
C 62.837933 137.726406 63.063369 137.819784 63.298399 137.819784 
z
" style="fill:#a9a9a9;stroke:#a9a9a9;stroke-width:0.886227;"/>
    <path clip-path="url(#p626ee74ba7)" d="M 63.623086 258.825452 
C 63.858116 258.825452 64.083551 258.732073 64.249743 258.565882 
C 64.415934 258.39969 64.509313 258.174255 64.509313 257.939225 
C 64.509313 257.704194 64.415934 257.478759 64.249743 257.312568 
C 64.083551 257.146376 63.858116 257.052998 63.623086 257.052998 
C 63.388056 257.052998 63.16262 257.146376 62.996429 257.312568 
C 62.830237 257.478759 62.736859 257.704194 62.736859 257.939225 
C 62.736859 258.174255 62.830237 258.39969 62.996429 258.565882 
C 63.16262 258.732073 63.388056 258.825452 63.623086 258.825452 
z
" style="fill:#a9a9a9;stroke:#a9a9a9;stroke-width:0.886227;"/>
    <path clip-path="url(#p626ee74ba7)" d="M 64.27246 280.538652 
C 64.50749 280.538652 64.732925 280.445274 64.899117 280.279082 
C 65.065308 280.112891 65.158687 279.887455 65.158687 279.652425 
C 65.158687 279.417395 65.065308 279.19196 64.899117 279.025768 
C 64.732925 278.859577 64.50749 278.766198 64.27246 278.766198 
C 64.03743 278.766198 63.811994 278.859577 63.645803 279.025768 
C 63.479611 279.19196 63.386233 279.417395 63.386233 279.652425 
C 63.386233 279.887455 63.479611 280.112891 63.645803 280.279082 
C 63.811994 280.445274 64.03743 280.538652 64.27246 280.538652 
z
" style="fill:#a9a9a9;stroke:#a9a9a9;stroke-width:0.886227;"/>
    <path clip-path="url(#p626ee74ba7)" d="M 66.220582 254.533326 
C 66.455612 254.533326 66.681048 254.439947 66.847239 254.273756 
C 67.01343 254.107565 67.106809 253.882129 67.106809 253.647099 
C 67.106809 253.412069 67.01343 253.186633 66.847239 253.020442 
C 66.681048 252.85425 66.455612 252.760872 66.220582 252.760872 
C 65.985552 252.760872 65.760116 252.85425 65.593925 253.020442 
C 65.427733 253.186633 65.334355 253.412069 65.334355 253.647099 
C 65.334355 253.882129 65.427733 254.107565 65.593925 254.273756 
C 65.760116 254.439947 65.985552 254.533326 66.220582 254.533326 
z
" style="fill:#a9a9a9;stroke:#a9a9a9;stroke-width:0.886227;"/>
    <path clip-path="url(#p626ee74ba7)" d="M 69.467452 231.177368 
C 69.702482 231.177368 69.927918 231.08399 70.094109 230.917798 
C 70.2603 230.751607 70.353679 230.526171 70.353679 230.291141 
C 70.353679 230.056111 70.2603 229.830676 70.094109 229.664484 
C 69.927918 229.498293 69.702482 229.404914 69.467452 229.404914 
C 69.232422 229.404914 69.006986 229.498293 68.840795 229.664484 
C 68.674604 229.830676 68.581225 230.056111 68.581225 230.291141 
C 68.581225 230.526171 68.674604 230.751607 68.840795 230.917798 
C 69.006986 231.08399 69.232422 231.177368 69.467452 231.177368 
z
" style="fill:#a9a9a9;stroke:#a9a9a9;stroke-width:0.886227;"/>
    <path clip-path="url(#p626ee74ba7)" d="M 95.442413 107.091891 
C 95.677443 107.091891 95.902879 106.998513 96.06907 106.832321 
C 96.235262 106.66613 96.32864 106.440694 96.32864 106.205664 
C 96.32864 105.970634 96.235262 105.745199 96.06907 105.579007 
C 95.902879 105.412816 95.677443 105.319437 95.442413 105.319437 
C 95.207383 105.319437 94.981947 105.412816 94.815756 105.579007 
C 94.649565 105.745199 94.556186 105.970634 94.556186 106.205664 
C 94.556186 106.440694 94.649565 106.66613 94.815756 106.832321 
C 94.981947 106.998513 95.207383 107.091891 95.442413 107.091891 
z
" style="fill:#a9a9a9;stroke:#a9a9a9;stroke-width:0.886227;"/>
    <path clip-path="url(#p626ee74ba7)" d="M 127.911115 55.560093 
C 128.146145 55.560093 128.37158 55.466715 128.537772 55.300523 
C 128.703963 55.134332 128.797341 54.908896 128.797341 54.673866 
C 128.797341 54.438836 128.703963 54.213401 128.537772 54.047209 
C 128.37158 53.881018 128.146145 53.787639 127.911115 53.787639 
C 127.676084 53.787639 127.450649 53.881018 127.284457 54.047209 
C 127.118266 54.213401 127.024888 54.438836 127.024888 54.673866 
C 127.024888 54.908896 127.118266 55.134332 127.284457 55.300523 
C 127.450649 55.466715 127.676084 55.560093 127.911115 55.560093 
z
" style="fill:#a9a9a9;stroke:#a9a9a9;stroke-width:0.886227;"/>
    <path clip-path="url(#p626ee74ba7)" d="M 192.848517 47.870583 
C 193.083548 47.870583 193.308983 47.777204 193.475174 47.611013 
C 193.641366 47.444821 193.734744 47.219386 193.734744 46.984356 
C 193.734744 46.749326 193.641366 46.52389 193.475174 46.357699 
C 193.308983 46.191507 193.083548 46.098129 192.848517 46.098129 
C 192.613487 46.098129 192.388052 46.191507 192.22186 46.357699 
C 192.055669 46.52389 191.96229 46.749326 191.96229 46.984356 
C 191.96229 47.219386 192.055669 47.444821 192.22186 47.611013 
C 192.388052 47.777204 192.613487 47.870583 192.848517 47.870583 
z
" style="fill:#a9a9a9;stroke:#a9a9a9;stroke-width:0.886227;"/>
    <path clip-path="url(#p626ee74ba7)" d="M 257.78592 46.577665 
C 258.02095 46.577665 258.246386 46.484286 258.412577 46.318095 
C 258.578769 46.151903 258.672147 45.926468 258.672147 45.691438 
C 258.672147 45.456408 258.578769 45.230972 258.412577 45.064781 
C 258.246386 44.898589 258.02095 44.805211 257.78592 44.805211 
C 257.55089 44.805211 257.325455 44.898589 257.159263 45.064781 
C 256.993072 45.230972 256.899693 45.456408 256.899693 45.691438 
C 256.899693 45.926468 256.993072 46.151903 257.159263 46.318095 
C 257.325455 46.484286 257.55089 46.577665 257.78592 46.577665 
z
" style="fill:#a9a9a9;stroke:#a9a9a9;stroke-width:0.886227;"/>
    <path clip-path="url(#p626ee74ba7)" d="M 387.660726 45.948513 
C 387.895756 45.948513 388.121192 45.855135 388.287383 45.688943 
C 388.453574 45.522752 388.546953 45.297316 388.546953 45.062286 
C 388.546953 44.827256 388.453574 44.60182 388.287383 44.435629 
C 388.121192 44.269438 387.895756 44.176059 387.660726 44.176059 
C 387.425696 44.176059 387.20026 44.269438 387.034069 44.435629 
C 386.867877 44.60182 386.774499 44.827256 386.774499 45.062286 
C 386.774499 45.297316 386.867877 45.522752 387.034069 45.688943 
C 387.20026 45.855135 387.425696 45.948513 387.660726 45.948513 
z
" style="fill:#a9a9a9;stroke:#a9a9a9;stroke-width:0.886227;"/>
    <path clip-path="url(#p626ee74ba7)" d="M 63.038649 39.139179 
C 63.273679 39.139179 63.499115 39.045801 63.665306 38.879609 
C 63.831498 38.713418 63.924876 38.487983 63.924876 38.252952 
C 63.924876 38.017922 63.831498 37.792487 63.665306 37.626295 
C 63.499115 37.460104 63.273679 37.366725 63.038649 37.366725 
C 62.803619 37.366725 62.578183 37.460104 62.411992 37.626295 
C 62.245801 37.792487 62.152422 38.017922 62.152422 38.252952 
C 62.152422 38.487983 62.245801 38.713418 62.411992 38.879609 
C 62.578183 39.045801 62.803619 39.139179 63.038649 39.139179 
z
" style="fill:#a9a9a9;stroke:#a9a9a9;stroke-width:0.886227;"/>
    <path clip-path="url(#p626ee74ba7)" d="M 63.103587 39.161889 
C 63.338617 39.161889 63.564052 39.068511 63.730244 38.90232 
C 63.896435 38.736128 63.989813 38.510693 63.989813 38.275663 
C 63.989813 38.040632 63.896435 37.815197 63.730244 37.649005 
C 63.564052 37.482814 63.338617 37.389436 63.103587 37.389436 
C 62.868556 37.389436 62.643121 37.482814 62.476929 37.649005 
C 62.310738 37.815197 62.21736 38.040632 62.21736 38.275663 
C 62.21736 38.510693 62.310738 38.736128 62.476929 38.90232 
C 62.643121 39.068511 62.868556 39.161889 63.103587 39.161889 
z
" style="fill:#a9a9a9;stroke:#a9a9a9;stroke-width:0.886227;"/>
    <path clip-path="url(#p626ee74ba7)" d="M 63.298399 39.236696 
C 63.533429 39.236696 63.758864 39.143318 63.925056 38.977126 
C 64.091247 38.810935 64.184626 38.585499 64.184626 38.350469 
C 64.184626 38.115439 64.091247 37.890003 63.925056 37.723812 
C 63.758864 37.557621 63.533429 37.464242 63.298399 37.464242 
C 63.063369 37.464242 62.837933 37.557621 62.671742 37.723812 
C 62.50555 37.890003 62.412172 38.115439 62.412172 38.350469 
C 62.412172 38.585499 62.50555 38.810935 62.671742 38.977126 
C 62.837933 39.143318 63.063369 39.236696 63.298399 39.236696 
z
" style="fill:#a9a9a9;stroke:#a9a9a9;stroke-width:0.886227;"/>
    <path clip-path="url(#p626ee74ba7)" d="M 63.623086 39.341279 
C 63.858116 39.341279 64.083551 39.247901 64.249743 39.081709 
C 64.415934 38.915518 64.509313 38.690083 64.509313 38.455052 
C 64.509313 38.220022 64.415934 37.994587 64.249743 37.828395 
C 64.083551 37.662204 63.858116 37.568826 63.623086 37.568826 
C 63.388056 37.568826 63.16262 37.662204 62.996429 37.828395 
C 62.830237 37.994587 62.736859 38.220022 62.736859 38.455052 
C 62.736859 38.690083 62.830237 38.915518 62.996429 39.081709 
C 63.16262 39.247901 63.388056 39.341279 63.623086 39.341279 
z
" style="fill:#a9a9a9;stroke:#a9a9a9;stroke-width:0.886227;"/>
    <path clip-path="url(#p626ee74ba7)" d="M 64.27246 39.584538 
C 64.50749 39.584538 64.732925 39.49116 64.899117 39.324969 
C 65.065308 39.158777 65.158687 38.933342 65.158687 38.698312 
C 65.158687 38.463281 65.065308 38.237846 64.899117 38.071654 
C 64.732925 37.905463 64.50749 37.812085 64.27246 37.812085 
C 64.03743 37.812085 63.811994 37.905463 63.645803 38.071654 
C 63.479611 38.237846 63.386233 38.463281 63.386233 38.698312 
C 63.386233 38.933342 63.479611 39.158777 63.645803 39.324969 
C 63.811994 39.49116 64.03743 39.584538 64.27246 39.584538 
z
" style="fill:#a9a9a9;stroke:#a9a9a9;stroke-width:0.886227;"/>
    <path clip-path="url(#p626ee74ba7)" d="M 66.220582 40.319933 
C 66.455612 40.319933 66.681048 40.226554 66.847239 40.060363 
C 67.01343 39.894172 67.106809 39.668736 67.106809 39.433706 
C 67.106809 39.198676 67.01343 38.97324 66.847239 38.807049 
C 66.681048 38.640857 66.455612 38.547479 66.220582 38.547479 
C 65.985552 38.547479 65.760116 38.640857 65.593925 38.807049 
C 65.427733 38.97324 65.334355 39.198676 65.334355 39.433706 
C 65.334355 39.668736 65.427733 39.894172 65.593925 40.060363 
C 65.760116 40.226554 65.985552 40.319933 66.220582 40.319933 
z
" style="fill:#a9a9a9;stroke:#a9a9a9;stroke-width:0.886227;"/>
    <path clip-path="url(#p626ee74ba7)" d="M 69.467452 41.47093 
C 69.702482 41.47093 69.927918 41.377552 70.094109 41.21136 
C 70.2603 41.045169 70.353679 40.819734 70.353679 40.584703 
C 70.353679 40.349673 70.2603 40.124238 70.094109 39.958046 
C 69.927918 39.791855 69.702482 39.698476 69.467452 39.698476 
C 69.232422 39.698476 69.006986 39.791855 68.840795 39.958046 
C 68.674604 40.124238 68.581225 40.349673 68.581225 40.584703 
C 68.581225 40.819734 68.674604 41.045169 68.840795 41.21136 
C 69.006986 41.377552 69.232422 41.47093 69.467452 41.47093 
z
" style="fill:#a9a9a9;stroke:#a9a9a9;stroke-width:0.886227;"/>
    <path clip-path="url(#p626ee74ba7)" d="M 95.442413 51.155025 
C 95.677443 51.155025 95.902879 51.061647 96.06907 50.895455 
C 96.235262 50.729264 96.32864 50.503828 96.32864 50.268798 
C 96.32864 50.033768 96.235262 49.808333 96.06907 49.642141 
C 95.902879 49.47595 95.677443 49.382571 95.442413 49.382571 
C 95.207383 49.382571 94.981947 49.47595 94.815756 49.642141 
C 94.649565 49.808333 94.556186 50.033768 94.556186 50.268798 
C 94.556186 50.503828 94.649565 50.729264 94.815756 50.895455 
C 94.981947 51.061647 95.207383 51.155025 95.442413 51.155025 
z
" style="fill:#a9a9a9;stroke:#a9a9a9;stroke-width:0.886227;"/>
    <path clip-path="url(#p626ee74ba7)" d="M 127.911115 62.969881 
C 128.146145 62.969881 128.37158 62.876503 128.537772 62.710311 
C 128.703963 62.54412 128.797341 62.318684 128.797341 62.083654 
C 128.797341 61.848624 128.703963 61.623189 128.537772 61.456997 
C 128.37158 61.290806 128.146145 61.197427 127.911115 61.197427 
C 127.676084 61.197427 127.450649 61.290806 127.284457 61.456997 
C 127.118266 61.623189 127.024888 61.848624 127.024888 62.083654 
C 127.024888 62.318684 127.118266 62.54412 127.284457 62.710311 
C 127.450649 62.876503 127.676084 62.969881 127.911115 62.969881 
z
" style="fill:#a9a9a9;stroke:#a9a9a9;stroke-width:0.886227;"/>
    <path clip-path="url(#p626ee74ba7)" d="M 192.848517 88.565309 
C 193.083548 88.565309 193.308983 88.47193 193.475174 88.305739 
C 193.641366 88.139548 193.734744 87.914112 193.734744 87.679082 
C 193.734744 87.444052 193.641366 87.218616 193.475174 87.052425 
C 193.308983 86.886233 193.083548 86.792855 192.848517 86.792855 
C 192.613487 86.792855 192.388052 86.886233 192.22186 87.052425 
C 192.055669 87.218616 191.96229 87.444052 191.96229 87.679082 
C 191.96229 87.914112 192.055669 88.139548 192.22186 88.305739 
C 192.388052 88.47193 192.613487 88.565309 192.848517 88.565309 
z
" style="fill:#a9a9a9;stroke:#a9a9a9;stroke-width:0.886227;"/>
    <path clip-path="url(#p626ee74ba7)" d="M 257.78592 113.940689 
C 258.02095 113.940689 258.246386 113.84731 258.412577 113.681119 
C 258.578769 113.514927 258.672147 113.289492 258.672147 113.054462 
C 258.672147 112.819432 258.578769 112.593996 258.412577 112.427805 
C 258.246386 112.261613 258.02095 112.168235 257.78592 112.168235 
C 257.55089 112.168235 257.325455 112.261613 257.159263 112.427805 
C 256.993072 112.593996 256.899693 112.819432 256.899693 113.054462 
C 256.899693 113.289492 256.993072 113.514927 257.159263 113.681119 
C 257.325455 113.84731 257.55089 113.940689 257.78592 113.940689 
z
" style="fill:#a9a9a9;stroke:#a9a9a9;stroke-width:0.886227;"/>
    <path clip-path="url(#p626ee74ba7)" d="M 387.660726 184.99632 
C 387.895756 184.99632 388.121192 184.902942 388.287383 184.73675 
C 388.453574 184.570559 388.546953 184.345123 388.546953 184.110093 
C 388.546953 183.875063 388.453574 183.649627 388.287383 183.483436 
C 388.121192 183.317245 387.895756 183.223866 387.660726 183.223866 
C 387.425696 183.223866 387.20026 183.317245 387.034069 183.483436 
C 386.867877 183.649627 386.774499 183.875063 386.774499 184.110093 
C 386.774499 184.345123 386.867877 184.570559 387.034069 184.73675 
C 387.20026 184.902942 387.425696 184.99632 387.660726 184.99632 
z
" style="fill:#a9a9a9;stroke:#a9a9a9;stroke-width:0.886227;"/>
   </g>
   <g id="patch_3">
    <path d="M 46.789688 292.268933 
L 46.789688 26.156933 
" style="fill:none;stroke:#808080;stroke-linecap:square;stroke-linejoin:miter;"/>
   </g>
   <g id="patch_4">
    <path d="M 46.789688 292.268933 
L 403.909688 292.268933 
" style="fill:none;stroke:#808080;stroke-linecap:square;stroke-linejoin:miter;"/>
   </g>
   <g id="LineCollection_1">
    <path clip-path="url(#p626ee74ba7)" d="M 63.022415 38.252963 
L 63.054883 38.252963 
" style="fill:none;stroke:#a9a9a9;stroke-width:0.886227;"/>
    <path clip-path="url(#p626ee74ba7)" d="M 63.087352 63.389105 
L 63.119821 63.389105 
" style="fill:none;stroke:#a9a9a9;stroke-width:0.886227;"/>
    <path clip-path="url(#p626ee74ba7)" d="M 63.282164 137.163272 
L 63.314633 137.163272 
" style="fill:none;stroke:#a9a9a9;stroke-width:0.886227;"/>
    <path clip-path="url(#p626ee74ba7)" d="M 63.606851 258.266662 
L 63.63932 258.266662 
" style="fill:none;stroke:#a9a9a9;stroke-width:0.886227;"/>
    <path clip-path="url(#p626ee74ba7)" d="M 64.256225 280.172933 
L 64.288694 280.172933 
" style="fill:none;stroke:#a9a9a9;stroke-width:0.886227;"/>
    <path clip-path="url(#p626ee74ba7)" d="M 66.204348 253.981155 
L 66.236816 253.981155 
" style="fill:none;stroke:#a9a9a9;stroke-width:0.886227;"/>
    <path clip-path="url(#p626ee74ba7)" d="M 69.451218 230.908481 
L 69.483686 230.908481 
" style="fill:none;stroke:#a9a9a9;stroke-width:0.886227;"/>
    <path clip-path="url(#p626ee74ba7)" d="M 95.426179 107.616941 
L 95.458647 107.616941 
" style="fill:none;stroke:#a9a9a9;stroke-width:0.886227;"/>
    <path clip-path="url(#p626ee74ba7)" d="M 127.89488 55.264613 
L 127.927349 55.264613 
" style="fill:none;stroke:#a9a9a9;stroke-width:0.886227;"/>
    <path clip-path="url(#p626ee74ba7)" d="M 192.832283 47.0568 
L 192.864752 47.0568 
" style="fill:none;stroke:#a9a9a9;stroke-width:0.886227;"/>
    <path clip-path="url(#p626ee74ba7)" d="M 257.769686 45.780672 
L 257.802155 45.780672 
" style="fill:none;stroke:#a9a9a9;stroke-width:0.886227;"/>
    <path clip-path="url(#p626ee74ba7)" d="M 387.644492 45.111073 
L 387.67696 45.111073 
" style="fill:none;stroke:#a9a9a9;stroke-width:0.886227;"/>
    <path clip-path="url(#p626ee74ba7)" d="M 63.022415 38.252972 
L 63.054883 38.252972 
" style="fill:none;stroke:#a9a9a9;stroke-width:0.886227;"/>
    <path clip-path="url(#p626ee74ba7)" d="M 63.087352 38.282358 
L 63.119821 38.282358 
" style="fill:none;stroke:#a9a9a9;stroke-width:0.886227;"/>
    <path clip-path="url(#p626ee74ba7)" d="M 63.282164 38.356824 
L 63.314633 38.356824 
" style="fill:none;stroke:#a9a9a9;stroke-width:0.886227;"/>
    <path clip-path="url(#p626ee74ba7)" d="M 63.606851 38.473272 
L 63.63932 38.473272 
" style="fill:none;stroke:#a9a9a9;stroke-width:0.886227;"/>
    <path clip-path="url(#p626ee74ba7)" d="M 64.256225 38.740061 
L 64.288694 38.740061 
" style="fill:none;stroke:#a9a9a9;stroke-width:0.886227;"/>
    <path clip-path="url(#p626ee74ba7)" d="M 66.204348 39.506828 
L 66.236816 39.506828 
" style="fill:none;stroke:#a9a9a9;stroke-width:0.886227;"/>
    <path clip-path="url(#p626ee74ba7)" d="M 69.451218 40.623387 
L 69.483686 40.623387 
" style="fill:none;stroke:#a9a9a9;stroke-width:0.886227;"/>
    <path clip-path="url(#p626ee74ba7)" d="M 95.426179 50.419228 
L 95.458647 50.419228 
" style="fill:none;stroke:#a9a9a9;stroke-width:0.886227;"/>
    <path clip-path="url(#p626ee74ba7)" d="M 127.89488 62.235837 
L 127.927349 62.235837 
" style="fill:none;stroke:#a9a9a9;stroke-width:0.886227;"/>
    <path clip-path="url(#p626ee74ba7)" d="M 192.832283 88.067153 
L 192.864752 88.067153 
" style="fill:none;stroke:#a9a9a9;stroke-width:0.886227;"/>
    <path clip-path="url(#p626ee74ba7)" d="M 257.769686 113.48076 
L 257.802155 113.48076 
" style="fill:none;stroke:#a9a9a9;stroke-width:0.886227;"/>
    <path clip-path="url(#p626ee74ba7)" d="M 387.644492 184.799927 
L 387.67696 184.799927 
" style="fill:none;stroke:#a9a9a9;stroke-width:0.886227;"/>
    <path clip-path="url(#p626ee74ba7)" d="M 63.022415 38.252949 
L 63.054883 38.252949 
" style="fill:none;stroke:#a9a9a9;stroke-width:0.886227;"/>
    <path clip-path="url(#p626ee74ba7)" d="M 63.087352 63.329615 
L 63.119821 63.329615 
" style="fill:none;stroke:#a9a9a9;stroke-width:0.886227;"/>
    <path clip-path="url(#p626ee74ba7)" d="M 63.282164 136.703843 
L 63.314633 136.703843 
" style="fill:none;stroke:#a9a9a9;stroke-width:0.886227;"/>
    <path clip-path="url(#p626ee74ba7)" d="M 63.606851 257.611788 
L 63.63932 257.611788 
" style="fill:none;stroke:#a9a9a9;stroke-width:0.886227;"/>
    <path clip-path="url(#p626ee74ba7)" d="M 64.256225 279.131918 
L 64.288694 279.131918 
" style="fill:none;stroke:#a9a9a9;stroke-width:0.886227;"/>
    <path clip-path="url(#p626ee74ba7)" d="M 66.204348 253.313043 
L 66.236816 253.313043 
" style="fill:none;stroke:#a9a9a9;stroke-width:0.886227;"/>
    <path clip-path="url(#p626ee74ba7)" d="M 69.451218 229.673802 
L 69.483686 229.673802 
" style="fill:none;stroke:#a9a9a9;stroke-width:0.886227;"/>
    <path clip-path="url(#p626ee74ba7)" d="M 95.426179 104.794388 
L 95.458647 104.794388 
" style="fill:none;stroke:#a9a9a9;stroke-width:0.886227;"/>
    <path clip-path="url(#p626ee74ba7)" d="M 127.89488 54.083119 
L 127.927349 54.083119 
" style="fill:none;stroke:#a9a9a9;stroke-width:0.886227;"/>
    <path clip-path="url(#p626ee74ba7)" d="M 192.832283 46.911911 
L 192.864752 46.911911 
" style="fill:none;stroke:#a9a9a9;stroke-width:0.886227;"/>
    <path clip-path="url(#p626ee74ba7)" d="M 257.769686 45.602203 
L 257.802155 45.602203 
" style="fill:none;stroke:#a9a9a9;stroke-width:0.886227;"/>
    <path clip-path="url(#p626ee74ba7)" d="M 387.644492 45.013499 
L 387.67696 45.013499 
" style="fill:none;stroke:#a9a9a9;stroke-width:0.886227;"/>
    <path clip-path="url(#p626ee74ba7)" d="M 63.022415 38.252933 
L 63.054883 38.252933 
" style="fill:none;stroke:#a9a9a9;stroke-width:0.886227;"/>
    <path clip-path="url(#p626ee74ba7)" d="M 63.087352 38.268967 
L 63.119821 38.268967 
" style="fill:none;stroke:#a9a9a9;stroke-width:0.886227;"/>
    <path clip-path="url(#p626ee74ba7)" d="M 63.282164 38.344114 
L 63.314633 38.344114 
" style="fill:none;stroke:#a9a9a9;stroke-width:0.886227;"/>
    <path clip-path="url(#p626ee74ba7)" d="M 63.606851 38.436833 
L 63.63932 38.436833 
" style="fill:none;stroke:#a9a9a9;stroke-width:0.886227;"/>
    <path clip-path="url(#p626ee74ba7)" d="M 64.256225 38.656562 
L 64.288694 38.656562 
" style="fill:none;stroke:#a9a9a9;stroke-width:0.886227;"/>
    <path clip-path="url(#p626ee74ba7)" d="M 66.204348 39.360584 
L 66.236816 39.360584 
" style="fill:none;stroke:#a9a9a9;stroke-width:0.886227;"/>
    <path clip-path="url(#p626ee74ba7)" d="M 69.451218 40.54602 
L 69.483686 40.54602 
" style="fill:none;stroke:#a9a9a9;stroke-width:0.886227;"/>
    <path clip-path="url(#p626ee74ba7)" d="M 95.426179 50.118368 
L 95.458647 50.118368 
" style="fill:none;stroke:#a9a9a9;stroke-width:0.886227;"/>
    <path clip-path="url(#p626ee74ba7)" d="M 127.89488 61.931472 
L 127.927349 61.931472 
" style="fill:none;stroke:#a9a9a9;stroke-width:0.886227;"/>
    <path clip-path="url(#p626ee74ba7)" d="M 192.832283 87.291011 
L 192.864752 87.291011 
" style="fill:none;stroke:#a9a9a9;stroke-width:0.886227;"/>
    <path clip-path="url(#p626ee74ba7)" d="M 257.769686 112.628163 
L 257.802155 112.628163 
" style="fill:none;stroke:#a9a9a9;stroke-width:0.886227;"/>
    <path clip-path="url(#p626ee74ba7)" d="M 387.644492 183.42026 
L 387.67696 183.42026 
" style="fill:none;stroke:#a9a9a9;stroke-width:0.886227;"/>
    <path clip-path="url(#p626ee74ba7)" d="M 63.038649 38.252949 
L 63.038649 38.252963 
" style="fill:none;stroke:#a9a9a9;stroke-width:0.886227;"/>
    <path clip-path="url(#p626ee74ba7)" d="M 63.103587 63.329615 
L 63.103587 63.389105 
" style="fill:none;stroke:#a9a9a9;stroke-width:0.886227;"/>
    <path clip-path="url(#p626ee74ba7)" d="M 63.298399 136.703843 
L 63.298399 137.163272 
" style="fill:none;stroke:#a9a9a9;stroke-width:0.886227;"/>
    <path clip-path="url(#p626ee74ba7)" d="M 63.623086 257.611788 
L 63.623086 258.266662 
" style="fill:none;stroke:#a9a9a9;stroke-width:0.886227;"/>
    <path clip-path="url(#p626ee74ba7)" d="M 64.27246 279.131918 
L 64.27246 280.172933 
" style="fill:none;stroke:#a9a9a9;stroke-width:0.886227;"/>
    <path clip-path="url(#p626ee74ba7)" d="M 66.220582 253.313043 
L 66.220582 253.981155 
" style="fill:none;stroke:#a9a9a9;stroke-width:0.886227;"/>
    <path clip-path="url(#p626ee74ba7)" d="M 69.467452 229.673802 
L 69.467452 230.908481 
" style="fill:none;stroke:#a9a9a9;stroke-width:0.886227;"/>
    <path clip-path="url(#p626ee74ba7)" d="M 95.442413 104.794388 
L 95.442413 107.616941 
" style="fill:none;stroke:#a9a9a9;stroke-width:0.886227;"/>
    <path clip-path="url(#p626ee74ba7)" d="M 127.911115 54.083119 
L 127.911115 55.264613 
" style="fill:none;stroke:#a9a9a9;stroke-width:0.886227;"/>
    <path clip-path="url(#p626ee74ba7)" d="M 192.848517 46.911911 
L 192.848517 47.0568 
" style="fill:none;stroke:#a9a9a9;stroke-width:0.886227;"/>
    <path clip-path="url(#p626ee74ba7)" d="M 257.78592 45.602203 
L 257.78592 45.780672 
" style="fill:none;stroke:#a9a9a9;stroke-width:0.886227;"/>
    <path clip-path="url(#p626ee74ba7)" d="M 387.660726 45.013499 
L 387.660726 45.111073 
" style="fill:none;stroke:#a9a9a9;stroke-width:0.886227;"/>
    <path clip-path="url(#p626ee74ba7)" d="M 63.038649 38.252933 
L 63.038649 38.252972 
" style="fill:none;stroke:#a9a9a9;stroke-width:0.886227;"/>
    <path clip-path="url(#p626ee74ba7)" d="M 63.103587 38.268967 
L 63.103587 38.282358 
" style="fill:none;stroke:#a9a9a9;stroke-width:0.886227;"/>
    <path clip-path="url(#p626ee74ba7)" d="M 63.298399 38.344114 
L 63.298399 38.356824 
" style="fill:none;stroke:#a9a9a9;stroke-width:0.886227;"/>
    <path clip-path="url(#p626ee74ba7)" d="M 63.623086 38.436833 
L 63.623086 38.473272 
" style="fill:none;stroke:#a9a9a9;stroke-width:0.886227;"/>
    <path clip-path="url(#p626ee74ba7)" d="M 64.27246 38.656562 
L 64.27246 38.740061 
" style="fill:none;stroke:#a9a9a9;stroke-width:0.886227;"/>
    <path clip-path="url(#p626ee74ba7)" d="M 66.220582 39.360584 
L 66.220582 39.506828 
" style="fill:none;stroke:#a9a9a9;stroke-width:0.886227;"/>
    <path clip-path="url(#p626ee74ba7)" d="M 69.467452 40.54602 
L 69.467452 40.623387 
" style="fill:none;stroke:#a9a9a9;stroke-width:0.886227;"/>
    <path clip-path="url(#p626ee74ba7)" d="M 95.442413 50.118368 
L 95.442413 50.419228 
" style="fill:none;stroke:#a9a9a9;stroke-width:0.886227;"/>
    <path clip-path="url(#p626ee74ba7)" d="M 127.911115 61.931472 
L 127.911115 62.235837 
" style="fill:none;stroke:#a9a9a9;stroke-width:0.886227;"/>
    <path clip-path="url(#p626ee74ba7)" d="M 192.848517 87.291011 
L 192.848517 88.067153 
" style="fill:none;stroke:#a9a9a9;stroke-width:0.886227;"/>
    <path clip-path="url(#p626ee74ba7)" d="M 257.78592 112.628163 
L 257.78592 113.48076 
" style="fill:none;stroke:#a9a9a9;stroke-width:0.886227;"/>
    <path clip-path="url(#p626ee74ba7)" d="M 387.660726 183.42026 
L 387.660726 184.799927 
" style="fill:none;stroke:#a9a9a9;stroke-width:0.886227;"/>
   </g>
   <g id="line2d_43">
    <path clip-path="url(#p626ee74ba7)" d="M 63.038649 265.634714 
L 63.038649 265.634714 
L 63.103587 265.634714 
L 63.103587 265.634714 
L 63.298399 265.634714 
L 63.298399 265.634714 
L 63.623086 265.634714 
L 63.623086 265.634714 
L 64.27246 265.634714 
L 64.27246 265.634714 
L 66.220582 265.634714 
L 66.220582 265.634714 
L 69.467452 265.634714 
L 69.467452 265.634714 
L 95.442413 265.634714 
L 95.442413 265.634714 
L 127.911115 265.634714 
L 127.911115 265.634714 
L 192.848517 265.634714 
L 192.848517 265.634714 
L 257.78592 265.634714 
L 257.78592 265.634714 
L 387.660726 265.634714 
L 387.660726 265.634714 
" style="fill:none;stroke:#a9a9a9;stroke-dasharray:9.837119,4.253889;stroke-dashoffset:0;stroke-width:2.658681;"/>
   </g>
   <g id="patch_5">
    <path d="M 411.109688 194.047902 
L 507.662563 194.047902 
L 507.662563 120.921964 
L 411.109688 120.921964 
z
" style="fill:#ffffff;"/>
   </g>
   <g id="text_14">
    <!-- Group -->
    <defs>
     <path d="M 59.515625 10.40625 
L 59.515625 29.984375 
L 43.40625 29.984375 
L 43.40625 38.09375 
L 69.28125 38.09375 
L 69.28125 6.78125 
Q 63.578125 2.734375 56.6875 0.65625 
Q 49.8125 -1.421875 42 -1.421875 
Q 24.90625 -1.421875 15.25 8.5625 
Q 5.609375 18.5625 5.609375 36.375 
Q 5.609375 54.25 15.25 64.234375 
Q 24.90625 74.21875 42 74.21875 
Q 49.125 74.21875 55.546875 72.453125 
Q 61.96875 70.703125 67.390625 67.28125 
L 67.390625 56.78125 
Q 61.921875 61.421875 55.765625 63.765625 
Q 49.609375 66.109375 42.828125 66.109375 
Q 29.4375 66.109375 22.71875 58.640625 
Q 16.015625 51.171875 16.015625 36.375 
Q 16.015625 21.625 22.71875 14.15625 
Q 29.4375 6.6875 42.828125 6.6875 
Q 48.046875 6.6875 52.140625 7.59375 
Q 56.25 8.5 59.515625 10.40625 
z
" id="DejaVuSans-71"/>
     <path d="M 18.109375 8.203125 
L 18.109375 -20.796875 
L 9.078125 -20.796875 
L 9.078125 54.6875 
L 18.109375 54.6875 
L 18.109375 46.390625 
Q 20.953125 51.265625 25.265625 53.625 
Q 29.59375 56 35.59375 56 
Q 45.5625 56 51.78125 48.09375 
Q 58.015625 40.1875 58.015625 27.296875 
Q 58.015625 14.40625 51.78125 6.484375 
Q 45.5625 -1.421875 35.59375 -1.421875 
Q 29.59375 -1.421875 25.265625 0.953125 
Q 20.953125 3.328125 18.109375 8.203125 
z
M 48.6875 27.296875 
Q 48.6875 37.203125 44.609375 42.84375 
Q 40.53125 48.484375 33.40625 48.484375 
Q 26.265625 48.484375 22.1875 42.84375 
Q 18.109375 37.203125 18.109375 27.296875 
Q 18.109375 17.390625 22.1875 11.75 
Q 26.265625 6.109375 33.40625 6.109375 
Q 40.53125 6.109375 44.609375 11.75 
Q 48.6875 17.390625 48.6875 27.296875 
z
" id="DejaVuSans-112"/>
    </defs>
    <g transform="translate(423.309687 144.515558)scale(0.11 -0.11)">
     <use xlink:href="#DejaVuSans-71"/>
     <use x="77.490234" xlink:href="#DejaVuSans-114"/>
     <use x="118.572266" xlink:href="#DejaVuSans-111"/>
     <use x="179.753906" xlink:href="#DejaVuSans-117"/>
     <use x="243.132812" xlink:href="#DejaVuSans-112"/>
    </g>
   </g>
   <g id="patch_6">
    <path clip-path="url(#pbba6c216cc)" d="M 423.309687 164.007902 
L 439.149687 164.007902 
L 439.149687 148.167902 
L 423.309687 148.167902 
z
" style="fill:#ffffff;stroke:#ffffff;stroke-linejoin:miter;"/>
   </g>
   <g id="line2d_44">
    <path clip-path="url(#pbba6c216cc)" d="M 423.309687 156.087902 
L 439.149687 156.087902 
" style="fill:none;stroke:#1976d2;stroke-width:2.658681;"/>
   </g>
   <g id="text_15">
    <!-- corrected -->
    <defs>
     <path d="M 45.40625 46.390625 
L 45.40625 75.984375 
L 54.390625 75.984375 
L 54.390625 0 
L 45.40625 0 
L 45.40625 8.203125 
Q 42.578125 3.328125 38.25 0.953125 
Q 33.9375 -1.421875 27.875 -1.421875 
Q 17.96875 -1.421875 11.734375 6.484375 
Q 5.515625 14.40625 5.515625 27.296875 
Q 5.515625 40.1875 11.734375 48.09375 
Q 17.96875 56 27.875 56 
Q 33.9375 56 38.25 53.625 
Q 42.578125 51.265625 45.40625 46.390625 
z
M 14.796875 27.296875 
Q 14.796875 17.390625 18.875 11.75 
Q 22.953125 6.109375 30.078125 6.109375 
Q 37.203125 6.109375 41.296875 11.75 
Q 45.40625 17.390625 45.40625 27.296875 
Q 45.40625 37.203125 41.296875 42.84375 
Q 37.203125 48.484375 30.078125 48.484375 
Q 22.953125 48.484375 18.875 42.84375 
Q 14.796875 37.203125 14.796875 27.296875 
z
" id="DejaVuSans-100"/>
    </defs>
    <g transform="translate(442.149688 158.516152)scale(0.088 -0.088)">
     <use xlink:href="#DejaVuSans-99"/>
     <use x="54.980469" xlink:href="#DejaVuSans-111"/>
     <use x="116.162109" xlink:href="#DejaVuSans-114"/>
     <use x="157.259766" xlink:href="#DejaVuSans-114"/>
     <use x="198.341797" xlink:href="#DejaVuSans-101"/>
     <use x="259.865234" xlink:href="#DejaVuSans-99"/>
     <use x="314.845703" xlink:href="#DejaVuSans-116"/>
     <use x="354.054688" xlink:href="#DejaVuSans-101"/>
     <use x="415.578125" xlink:href="#DejaVuSans-100"/>
    </g>
   </g>
   <g id="patch_7">
    <path clip-path="url(#pc3c25fa669)" d="M 423.309687 181.847902 
L 439.149687 181.847902 
L 439.149687 166.007902 
L 423.309687 166.007902 
z
" style="fill:#ffffff;stroke:#ffffff;stroke-linejoin:miter;"/>
   </g>
   <g id="line2d_45">
    <path clip-path="url(#pc3c25fa669)" d="M 423.309687 173.927902 
L 439.149687 173.927902 
" style="fill:none;stroke:#b3e5fc;stroke-width:2.658681;"/>
   </g>
   <g id="text_16">
    <!-- uncorrected -->
    <g transform="translate(442.149688 176.356152)scale(0.088 -0.088)">
     <use xlink:href="#DejaVuSans-117"/>
     <use x="63.378906" xlink:href="#DejaVuSans-110"/>
     <use x="126.757812" xlink:href="#DejaVuSans-99"/>
     <use x="181.738281" xlink:href="#DejaVuSans-111"/>
     <use x="242.919922" xlink:href="#DejaVuSans-114"/>
     <use x="284.017578" xlink:href="#DejaVuSans-114"/>
     <use x="325.099609" xlink:href="#DejaVuSans-101"/>
     <use x="386.623047" xlink:href="#DejaVuSans-99"/>
     <use x="441.603516" xlink:href="#DejaVuSans-116"/>
     <use x="480.8125" xlink:href="#DejaVuSans-101"/>
     <use x="542.335938" xlink:href="#DejaVuSans-100"/>
    </g>
   </g>
  </g>
  <g id="text_17">
   <!-- Similarity across varying numbers of partitions -->
   <defs>
    <path d="M 59.90625 70.609375 
L 59.90625 55.171875 
Q 53.90625 57.859375 48.1875 59.21875 
Q 42.484375 60.59375 37.40625 60.59375 
Q 30.671875 60.59375 27.4375 58.734375 
Q 24.21875 56.890625 24.21875 52.984375 
Q 24.21875 50.046875 26.390625 48.40625 
Q 28.5625 46.78125 34.28125 45.609375 
L 42.28125 44 
Q 54.4375 41.546875 59.5625 36.5625 
Q 64.703125 31.59375 64.703125 22.40625 
Q 64.703125 10.359375 57.546875 4.46875 
Q 50.390625 -1.421875 35.6875 -1.421875 
Q 28.765625 -1.421875 21.78125 -0.09375 
Q 14.796875 1.21875 7.8125 3.8125 
L 7.8125 19.671875 
Q 14.796875 15.96875 21.3125 14.078125 
Q 27.828125 12.203125 33.890625 12.203125 
Q 40.046875 12.203125 43.3125 14.25 
Q 46.578125 16.3125 46.578125 20.125 
Q 46.578125 23.53125 44.359375 25.390625 
Q 42.140625 27.25 35.5 28.71875 
L 28.21875 30.328125 
Q 17.28125 32.671875 12.21875 37.796875 
Q 7.171875 42.921875 7.171875 51.609375 
Q 7.171875 62.5 14.203125 68.359375 
Q 21.234375 74.21875 34.421875 74.21875 
Q 40.4375 74.21875 46.78125 73.3125 
Q 53.125 72.40625 59.90625 70.609375 
z
" id="DejaVuSans-Bold-83"/>
    <path d="M 8.40625 54.6875 
L 25.875 54.6875 
L 25.875 0 
L 8.40625 0 
z
M 8.40625 75.984375 
L 25.875 75.984375 
L 25.875 61.71875 
L 8.40625 61.71875 
z
" id="DejaVuSans-Bold-105"/>
    <path d="M 59.078125 45.609375 
Q 62.40625 50.6875 66.96875 53.34375 
Q 71.53125 56 77 56 
Q 86.421875 56 91.359375 50.1875 
Q 96.296875 44.390625 96.296875 33.296875 
L 96.296875 0 
L 78.71875 0 
L 78.71875 28.515625 
Q 78.765625 29.15625 78.78125 29.828125 
Q 78.8125 30.515625 78.8125 31.78125 
Q 78.8125 37.59375 77.09375 40.203125 
Q 75.390625 42.828125 71.578125 42.828125 
Q 66.609375 42.828125 63.890625 38.71875 
Q 61.1875 34.625 61.078125 26.859375 
L 61.078125 0 
L 43.5 0 
L 43.5 28.515625 
Q 43.5 37.59375 41.9375 40.203125 
Q 40.375 42.828125 36.375 42.828125 
Q 31.34375 42.828125 28.609375 38.703125 
Q 25.875 34.578125 25.875 26.90625 
L 25.875 0 
L 8.296875 0 
L 8.296875 54.6875 
L 25.875 54.6875 
L 25.875 46.6875 
Q 29.109375 51.3125 33.28125 53.65625 
Q 37.453125 56 42.484375 56 
Q 48.140625 56 52.484375 53.265625 
Q 56.84375 50.53125 59.078125 45.609375 
z
" id="DejaVuSans-Bold-109"/>
    <path d="M 8.40625 75.984375 
L 25.875 75.984375 
L 25.875 0 
L 8.40625 0 
z
" id="DejaVuSans-Bold-108"/>
    <path d="M 32.90625 24.609375 
Q 27.4375 24.609375 24.671875 22.75 
Q 21.921875 20.90625 21.921875 17.28125 
Q 21.921875 13.96875 24.140625 12.078125 
Q 26.375 10.203125 30.328125 10.203125 
Q 35.25 10.203125 38.625 13.734375 
Q 42 17.28125 42 22.609375 
L 42 24.609375 
z
M 59.625 31.203125 
L 59.625 0 
L 42 0 
L 42 8.109375 
Q 38.484375 3.125 34.078125 0.84375 
Q 29.6875 -1.421875 23.390625 -1.421875 
Q 14.890625 -1.421875 9.59375 3.53125 
Q 4.296875 8.5 4.296875 16.40625 
Q 4.296875 26.03125 10.90625 30.515625 
Q 17.53125 35.015625 31.6875 35.015625 
L 42 35.015625 
L 42 36.375 
Q 42 40.53125 38.71875 42.453125 
Q 35.453125 44.390625 28.515625 44.390625 
Q 22.90625 44.390625 18.0625 43.265625 
Q 13.234375 42.140625 9.078125 39.890625 
L 9.078125 53.21875 
Q 14.703125 54.59375 20.359375 55.296875 
Q 26.03125 56 31.6875 56 
Q 46.484375 56 53.046875 50.171875 
Q 59.625 44.34375 59.625 31.203125 
z
" id="DejaVuSans-Bold-97"/>
    <path d="M 49.03125 39.796875 
Q 46.734375 40.875 44.453125 41.375 
Q 42.1875 41.890625 39.890625 41.890625 
Q 33.15625 41.890625 29.515625 37.5625 
Q 25.875 33.25 25.875 25.203125 
L 25.875 0 
L 8.40625 0 
L 8.40625 54.6875 
L 25.875 54.6875 
L 25.875 45.703125 
Q 29.25 51.078125 33.609375 53.53125 
Q 37.984375 56 44.09375 56 
Q 44.96875 56 45.984375 55.921875 
Q 47.015625 55.859375 48.96875 55.609375 
z
" id="DejaVuSans-Bold-114"/>
    <path d="M 27.484375 70.21875 
L 27.484375 54.6875 
L 45.515625 54.6875 
L 45.515625 42.1875 
L 27.484375 42.1875 
L 27.484375 19 
Q 27.484375 15.1875 29 13.84375 
Q 30.515625 12.5 35.015625 12.5 
L 44 12.5 
L 44 0 
L 29 0 
Q 18.65625 0 14.328125 4.3125 
Q 10.015625 8.640625 10.015625 19 
L 10.015625 42.1875 
L 1.3125 42.1875 
L 1.3125 54.6875 
L 10.015625 54.6875 
L 10.015625 70.21875 
z
" id="DejaVuSans-Bold-116"/>
    <path d="M 1.21875 54.6875 
L 18.703125 54.6875 
L 33.40625 17.578125 
L 45.90625 54.6875 
L 63.375 54.6875 
L 40.375 -5.171875 
Q 36.921875 -14.3125 32.296875 -17.9375 
Q 27.6875 -21.578125 20.125 -21.578125 
L 10.015625 -21.578125 
L 10.015625 -10.109375 
L 15.484375 -10.109375 
Q 19.921875 -10.109375 21.9375 -8.6875 
Q 23.96875 -7.28125 25.09375 -3.609375 
L 25.59375 -2.09375 
z
" id="DejaVuSans-Bold-121"/>
    <path id="DejaVuSans-Bold-32"/>
    <path d="M 52.59375 52.984375 
L 52.59375 38.71875 
Q 49.03125 41.15625 45.4375 42.328125 
Q 41.84375 43.5 37.984375 43.5 
Q 30.671875 43.5 26.59375 39.234375 
Q 22.515625 34.96875 22.515625 27.296875 
Q 22.515625 19.625 26.59375 15.34375 
Q 30.671875 11.078125 37.984375 11.078125 
Q 42.09375 11.078125 45.78125 12.296875 
Q 49.46875 13.53125 52.59375 15.921875 
L 52.59375 1.609375 
Q 48.484375 0.09375 44.265625 -0.65625 
Q 40.046875 -1.421875 35.796875 -1.421875 
Q 21 -1.421875 12.640625 6.171875 
Q 4.296875 13.765625 4.296875 27.296875 
Q 4.296875 40.828125 12.640625 48.40625 
Q 21 56 35.796875 56 
Q 40.09375 56 44.265625 55.25 
Q 48.4375 54.5 52.59375 52.984375 
z
" id="DejaVuSans-Bold-99"/>
    <path d="M 34.421875 43.5 
Q 28.609375 43.5 25.5625 39.328125 
Q 22.515625 35.15625 22.515625 27.296875 
Q 22.515625 19.4375 25.5625 15.25 
Q 28.609375 11.078125 34.421875 11.078125 
Q 40.140625 11.078125 43.15625 15.25 
Q 46.1875 19.4375 46.1875 27.296875 
Q 46.1875 35.15625 43.15625 39.328125 
Q 40.140625 43.5 34.421875 43.5 
z
M 34.421875 56 
Q 48.53125 56 56.46875 48.375 
Q 64.40625 40.765625 64.40625 27.296875 
Q 64.40625 13.8125 56.46875 6.1875 
Q 48.53125 -1.421875 34.421875 -1.421875 
Q 20.265625 -1.421875 12.28125 6.1875 
Q 4.296875 13.8125 4.296875 27.296875 
Q 4.296875 40.765625 12.28125 48.375 
Q 20.265625 56 34.421875 56 
z
" id="DejaVuSans-Bold-111"/>
    <path d="M 51.125 52.984375 
L 51.125 39.703125 
Q 45.515625 42.046875 40.28125 43.21875 
Q 35.0625 44.390625 30.421875 44.390625 
Q 25.4375 44.390625 23.015625 43.140625 
Q 20.609375 41.890625 20.609375 39.3125 
Q 20.609375 37.203125 22.4375 36.078125 
Q 24.265625 34.96875 29 34.421875 
L 32.078125 33.984375 
Q 45.515625 32.28125 50.140625 28.375 
Q 54.78125 24.46875 54.78125 16.109375 
Q 54.78125 7.375 48.328125 2.96875 
Q 41.890625 -1.421875 29.109375 -1.421875 
Q 23.6875 -1.421875 17.890625 -0.5625 
Q 12.109375 0.296875 6 2 
L 6 15.28125 
Q 11.234375 12.75 16.71875 11.46875 
Q 22.21875 10.203125 27.875 10.203125 
Q 33.015625 10.203125 35.59375 11.609375 
Q 38.1875 13.03125 38.1875 15.828125 
Q 38.1875 18.171875 36.40625 19.3125 
Q 34.625 20.453125 29.296875 21.09375 
L 26.21875 21.484375 
Q 14.546875 22.953125 9.859375 26.90625 
Q 5.171875 30.859375 5.171875 38.921875 
Q 5.171875 47.609375 11.125 51.796875 
Q 17.09375 56 29.390625 56 
Q 34.234375 56 39.546875 55.265625 
Q 44.875 54.546875 51.125 52.984375 
z
" id="DejaVuSans-Bold-115"/>
    <path d="M 1.515625 54.6875 
L 19 54.6875 
L 32.625 16.890625 
L 46.1875 54.6875 
L 63.71875 54.6875 
L 42.1875 0 
L 23 0 
z
" id="DejaVuSans-Bold-118"/>
    <path d="M 63.375 33.296875 
L 63.375 0 
L 45.796875 0 
L 45.796875 5.421875 
L 45.796875 25.484375 
Q 45.796875 32.5625 45.484375 35.25 
Q 45.171875 37.9375 44.390625 39.203125 
Q 43.359375 40.921875 41.59375 41.875 
Q 39.84375 42.828125 37.59375 42.828125 
Q 32.125 42.828125 29 38.59375 
Q 25.875 34.375 25.875 26.90625 
L 25.875 0 
L 8.40625 0 
L 8.40625 54.6875 
L 25.875 54.6875 
L 25.875 46.6875 
Q 29.828125 51.46875 34.265625 53.734375 
Q 38.71875 56 44.09375 56 
Q 53.5625 56 58.46875 50.1875 
Q 63.375 44.390625 63.375 33.296875 
z
" id="DejaVuSans-Bold-110"/>
    <path d="M 45.609375 9.28125 
Q 42 4.5 37.640625 2.25 
Q 33.296875 0 27.59375 0 
Q 17.578125 0 11.03125 7.875 
Q 4.5 15.765625 4.5 27.984375 
Q 4.5 40.234375 11.03125 48.0625 
Q 17.578125 55.90625 27.59375 55.90625 
Q 33.296875 55.90625 37.640625 53.65625 
Q 42 51.421875 45.609375 46.578125 
L 45.609375 54.6875 
L 63.1875 54.6875 
L 63.1875 5.515625 
Q 63.1875 -7.671875 54.859375 -14.625 
Q 46.53125 -21.578125 30.71875 -21.578125 
Q 25.59375 -21.578125 20.796875 -20.796875 
Q 16.015625 -20.015625 11.1875 -18.40625 
L 11.1875 -4.78125 
Q 15.765625 -7.421875 20.15625 -8.71875 
Q 24.5625 -10.015625 29 -10.015625 
Q 37.59375 -10.015625 41.59375 -6.25 
Q 45.609375 -2.484375 45.609375 5.515625 
z
M 34.078125 43.3125 
Q 28.65625 43.3125 25.625 39.296875 
Q 22.609375 35.296875 22.609375 27.984375 
Q 22.609375 20.453125 25.53125 16.578125 
Q 28.46875 12.703125 34.078125 12.703125 
Q 39.546875 12.703125 42.578125 16.703125 
Q 45.609375 20.703125 45.609375 27.984375 
Q 45.609375 35.296875 42.578125 39.296875 
Q 39.546875 43.3125 34.078125 43.3125 
z
" id="DejaVuSans-Bold-103"/>
    <path d="M 7.8125 21.296875 
L 7.8125 54.6875 
L 25.390625 54.6875 
L 25.390625 49.21875 
Q 25.390625 44.78125 25.34375 38.0625 
Q 25.296875 31.34375 25.296875 29.109375 
Q 25.296875 22.515625 25.640625 19.609375 
Q 25.984375 16.703125 26.8125 15.375 
Q 27.875 13.671875 29.609375 12.734375 
Q 31.34375 11.8125 33.59375 11.8125 
Q 39.0625 11.8125 42.1875 16.015625 
Q 45.3125 20.21875 45.3125 27.6875 
L 45.3125 54.6875 
L 62.796875 54.6875 
L 62.796875 0 
L 45.3125 0 
L 45.3125 7.90625 
Q 41.359375 3.125 36.9375 0.84375 
Q 32.515625 -1.421875 27.203125 -1.421875 
Q 17.71875 -1.421875 12.765625 4.390625 
Q 7.8125 10.203125 7.8125 21.296875 
z
" id="DejaVuSans-Bold-117"/>
    <path d="M 37.5 11.28125 
Q 43.109375 11.28125 46.0625 15.375 
Q 49.03125 19.484375 49.03125 27.296875 
Q 49.03125 35.109375 46.0625 39.203125 
Q 43.109375 43.3125 37.5 43.3125 
Q 31.890625 43.3125 28.875 39.1875 
Q 25.875 35.0625 25.875 27.296875 
Q 25.875 19.53125 28.875 15.40625 
Q 31.890625 11.28125 37.5 11.28125 
z
M 25.875 46.6875 
Q 29.5 51.46875 33.890625 53.734375 
Q 38.28125 56 44 56 
Q 54.109375 56 60.59375 47.96875 
Q 67.09375 39.9375 67.09375 27.296875 
Q 67.09375 14.65625 60.59375 6.609375 
Q 54.109375 -1.421875 44 -1.421875 
Q 38.28125 -1.421875 33.890625 0.84375 
Q 29.5 3.125 25.875 7.90625 
L 25.875 0 
L 8.40625 0 
L 8.40625 75.984375 
L 25.875 75.984375 
z
" id="DejaVuSans-Bold-98"/>
    <path d="M 62.984375 27.484375 
L 62.984375 22.515625 
L 22.125 22.515625 
Q 22.75 16.359375 26.5625 13.28125 
Q 30.375 10.203125 37.203125 10.203125 
Q 42.71875 10.203125 48.5 11.84375 
Q 54.296875 13.484375 60.40625 16.796875 
L 60.40625 3.328125 
Q 54.203125 0.984375 48 -0.21875 
Q 41.796875 -1.421875 35.59375 -1.421875 
Q 20.75 -1.421875 12.515625 6.125 
Q 4.296875 13.671875 4.296875 27.296875 
Q 4.296875 40.671875 12.375 48.328125 
Q 20.453125 56 34.625 56 
Q 47.515625 56 55.25 48.234375 
Q 62.984375 40.484375 62.984375 27.484375 
z
M 45.015625 33.296875 
Q 45.015625 38.28125 42.109375 41.328125 
Q 39.203125 44.390625 34.515625 44.390625 
Q 29.4375 44.390625 26.265625 41.53125 
Q 23.09375 38.671875 22.3125 33.296875 
z
" id="DejaVuSans-Bold-101"/>
    <path d="M 44.390625 75.984375 
L 44.390625 64.5 
L 34.71875 64.5 
Q 31 64.5 29.53125 63.15625 
Q 28.078125 61.8125 28.078125 58.5 
L 28.078125 54.6875 
L 43.015625 54.6875 
L 43.015625 42.1875 
L 28.078125 42.1875 
L 28.078125 0 
L 10.59375 0 
L 10.59375 42.1875 
L 1.90625 42.1875 
L 1.90625 54.6875 
L 10.59375 54.6875 
L 10.59375 58.5 
Q 10.59375 67.4375 15.578125 71.703125 
Q 20.5625 75.984375 31 75.984375 
z
" id="DejaVuSans-Bold-102"/>
    <path d="M 25.875 7.90625 
L 25.875 -20.796875 
L 8.40625 -20.796875 
L 8.40625 54.6875 
L 25.875 54.6875 
L 25.875 46.6875 
Q 29.5 51.46875 33.890625 53.734375 
Q 38.28125 56 44 56 
Q 54.109375 56 60.59375 47.96875 
Q 67.09375 39.9375 67.09375 27.296875 
Q 67.09375 14.65625 60.59375 6.609375 
Q 54.109375 -1.421875 44 -1.421875 
Q 38.28125 -1.421875 33.890625 0.84375 
Q 29.5 3.125 25.875 7.90625 
z
M 37.5 43.3125 
Q 31.890625 43.3125 28.875 39.1875 
Q 25.875 35.0625 25.875 27.296875 
Q 25.875 19.53125 28.875 15.40625 
Q 31.890625 11.28125 37.5 11.28125 
Q 43.109375 11.28125 46.0625 15.375 
Q 49.03125 19.484375 49.03125 27.296875 
Q 49.03125 35.109375 46.0625 39.203125 
Q 43.109375 43.3125 37.5 43.3125 
z
" id="DejaVuSans-Bold-112"/>
   </defs>
   <g transform="translate(43.754344 17.229937)scale(0.132 -0.132)">
    <use xlink:href="#DejaVuSans-Bold-83"/>
    <use x="72.021484" xlink:href="#DejaVuSans-Bold-105"/>
    <use x="106.298828" xlink:href="#DejaVuSans-Bold-109"/>
    <use x="210.498047" xlink:href="#DejaVuSans-Bold-105"/>
    <use x="244.775391" xlink:href="#DejaVuSans-Bold-108"/>
    <use x="279.052734" xlink:href="#DejaVuSans-Bold-97"/>
    <use x="346.533203" xlink:href="#DejaVuSans-Bold-114"/>
    <use x="395.849609" xlink:href="#DejaVuSans-Bold-105"/>
    <use x="430.126953" xlink:href="#DejaVuSans-Bold-116"/>
    <use x="477.929688" xlink:href="#DejaVuSans-Bold-121"/>
    <use x="543.115234" xlink:href="#DejaVuSans-Bold-32"/>
    <use x="577.929688" xlink:href="#DejaVuSans-Bold-97"/>
    <use x="645.410156" xlink:href="#DejaVuSans-Bold-99"/>
    <use x="704.6875" xlink:href="#DejaVuSans-Bold-114"/>
    <use x="754.003906" xlink:href="#DejaVuSans-Bold-111"/>
    <use x="822.705078" xlink:href="#DejaVuSans-Bold-115"/>
    <use x="882.226562" xlink:href="#DejaVuSans-Bold-115"/>
    <use x="941.748047" xlink:href="#DejaVuSans-Bold-32"/>
    <use x="976.5625" xlink:href="#DejaVuSans-Bold-118"/>
    <use x="1041.748047" xlink:href="#DejaVuSans-Bold-97"/>
    <use x="1109.228516" xlink:href="#DejaVuSans-Bold-114"/>
    <use x="1158.544922" xlink:href="#DejaVuSans-Bold-121"/>
    <use x="1223.730469" xlink:href="#DejaVuSans-Bold-105"/>
    <use x="1258.007812" xlink:href="#DejaVuSans-Bold-110"/>
    <use x="1329.199219" xlink:href="#DejaVuSans-Bold-103"/>
    <use x="1400.78125" xlink:href="#DejaVuSans-Bold-32"/>
    <use x="1435.595703" xlink:href="#DejaVuSans-Bold-110"/>
    <use x="1506.787109" xlink:href="#DejaVuSans-Bold-117"/>
    <use x="1577.978516" xlink:href="#DejaVuSans-Bold-109"/>
    <use x="1682.177734" xlink:href="#DejaVuSans-Bold-98"/>
    <use x="1753.759766" xlink:href="#DejaVuSans-Bold-101"/>
    <use x="1821.582031" xlink:href="#DejaVuSans-Bold-114"/>
    <use x="1870.898438" xlink:href="#DejaVuSans-Bold-115"/>
    <use x="1930.419922" xlink:href="#DejaVuSans-Bold-32"/>
    <use x="1965.234375" xlink:href="#DejaVuSans-Bold-111"/>
    <use x="2033.935547" xlink:href="#DejaVuSans-Bold-102"/>
    <use x="2077.441406" xlink:href="#DejaVuSans-Bold-32"/>
    <use x="2112.255859" xlink:href="#DejaVuSans-Bold-112"/>
    <use x="2183.837891" xlink:href="#DejaVuSans-Bold-97"/>
    <use x="2251.318359" xlink:href="#DejaVuSans-Bold-114"/>
    <use x="2300.634766" xlink:href="#DejaVuSans-Bold-116"/>
    <use x="2348.4375" xlink:href="#DejaVuSans-Bold-105"/>
    <use x="2382.714844" xlink:href="#DejaVuSans-Bold-116"/>
    <use x="2430.517578" xlink:href="#DejaVuSans-Bold-105"/>
    <use x="2464.794922" xlink:href="#DejaVuSans-Bold-111"/>
    <use x="2533.496094" xlink:href="#DejaVuSans-Bold-110"/>
    <use x="2604.6875" xlink:href="#DejaVuSans-Bold-115"/>
   </g>
  </g>
 </g>
 <defs>
  <clipPath id="p626ee74ba7">
   <rect height="266.112" width="357.12" x="46.789688" y="26.156933"/>
  </clipPath>
  <clipPath id="pbba6c216cc">
   <path d="M 423.309687 164.007902 
L 423.309687 148.167902 
L 439.149687 148.167902 
L 439.149687 164.007902 
"/>
  </clipPath>
  <clipPath id="pc3c25fa669">
   <path d="M 423.309687 181.847902 
L 423.309687 166.007902 
L 439.149687 166.007902 
L 439.149687 181.847902 
"/>
  </clipPath>
 </defs>
</svg>
